<svg fill="none" height="152" viewBox="0 0 176 152" width="176" xmlns="http://www.w3.org/2000/svg" xmlns:xlink="http://www.w3.org/1999/xlink"><linearGradient id="a" gradientUnits="userSpaceOnUse" x1=".000019" x2="193.378" y1="76.0003" y2="76.0003"><stop offset=".455736" stop-color="#f2720c"/><stop offset=".862219" stop-color="#f7aa6d"/><stop offset="1" stop-color="#fcd0ad"/></linearGradient><clipPath id="b"><path d="m0 0h176v152h-176z"/></clipPath><g clip-path="url(#b)"><path d="m0 0h176v152h-176z" fill="#fff"/><path d="m175.536 4c0-2.20914-1.791-4-4-4h-167.53597c-2.20914 0-4.00000112 1.79086-4.00000112 4v119.071 15.394c0 3.986 5.19106112 5.52 7.35739112 2.175l10.19598-15.743c.7372-1.139 2.0011-1.826 3.3574-1.826h150.6252c2.209 0 4-1.791 4-4z" fill="url(#a)"/><path d="m17.3412 32.2213 2.1088-10.6087h1.7519l-2.1088 10.6087zm4.2733 0 1.5897-7.9647h1.4113l-.0811 1.1193h.0649c.4109-.3569.8381-.6651 1.2815-.9246.4433-.2596.8813-.3893 1.3139-.3893.3028 0 .5623.0378.7786.1135s.3947.1785.5353.3082c.1514.1298.265.2866.3407.4705.0865.173.1514.3676.1946.5839.4758-.4542.9463-.811 1.4113-1.0706.465-.2703.9138-.4055 1.3463-.4055.6597 0 1.1355.173 1.4275.5191.3028.346.4542.8435.4542 1.4923 0 .1839-.0108.3623-.0324.5353-.0217.1731-.0541.3677-.0974.584l-1.0057 5.0286h-1.7519l.9733-4.8015c.0433-.1838.0757-.3407.0973-.4704.0217-.1298.0325-.2542.0325-.3731 0-.6813-.3245-1.022-.9733-1.022-.2055 0-.4704.0974-.7949.292-.3244.1947-.6921.5083-1.103.9409l-1.0868 5.4341h-1.7357l.957-4.8015c.0433-.1838.0757-.3407.0974-.4704.0216-.1298.0324-.2542.0324-.3731 0-.6813-.319-1.022-.9571-1.022-.2162 0-.4866.0974-.811.292-.3244.1947-.6867.5083-1.0868.9409l-1.0707 5.4341zm13.1957 0 1.5897-7.9647h1.4113l-.0811 1.1193h.0648c.411-.3569.8382-.6651 1.2815-.9246.4434-.2596.8814-.3893 1.314-.3893.3028 0 .5623.0378.7786.1135s.3947.1785.5353.3082c.1514.1298.2649.2866.3406.4705.0866.173.1514.3676.1947.5839.4758-.4542.9462-.811 1.4113-1.0706.465-.2703.9138-.4055 1.3463-.4055.6597 0 1.1355.173 1.4275.5191.3028.346.4542.8435.4542 1.4923 0 .1839-.0108.3623-.0324.5353-.0217.1731-.0541.3677-.0974.584l-1.0057 5.0286h-1.7519l.9733-4.8015c.0432-.1838.0757-.3407.0973-.4704.0216-.1298.0325-.2542.0325-.3731 0-.6813-.3245-1.022-.9733-1.022-.2055 0-.4704.0974-.7949.292-.3244.1947-.6921.5083-1.103.9409l-1.0869 5.4341h-1.7356l.957-4.8015c.0433-.1838.0757-.3407.0973-.4704.0217-.1298.0325-.2542.0325-.3731 0-.6813-.319-1.022-.9571-1.022-.2163 0-.4866.0974-.811.292-.3245.1947-.6867.5083-1.0869.9409l-1.0706 5.4341zm13.3741-3.1794c0-.7462.1244-1.422.3731-2.0276.2596-.6164.5948-1.1409 1.0058-1.5735.4217-.4434.8921-.784 1.4112-1.022.5191-.2379 1.0382-.3568 1.5573-.3568.465 0 .8543.0757 1.1679.2271.3244.1514.584.3623.7786.6326.2055.2595.3515.5678.438.9246.0973.3569.146.7408.146 1.1517 0 .3461-.0433.6813-.1298 1.0058-.0865.3244-.1568.5515-.2109.6813h-4.8501c-.0433.4217-.0217.784.0648 1.0868.0866.3028.2163.5515.3894.7462.1838.1946.4055.3406.665.4379.2596.0866.5407.1298.8435.1298.2812 0 .5678-.0649.8598-.1946.292-.1298.5461-.2758.7624-.438l.6488 1.1193c-.3244.2271-.7191.4271-1.1841.6001-.4542.1623-.9679.2434-1.5411.2434-.4758 0-.9084-.0757-1.2977-.2271s-.7245-.3677-1.0057-.6489c-.2812-.292-.5028-.6434-.6651-1.0544-.1514-.4217-.2271-.903-.2271-1.4437zm1.8331-1.4599h3.52c.0216-.1081.0378-.2163.0486-.3244.0217-.119.0325-.2433.0325-.3731 0-.3893-.0973-.73-.292-1.022-.1838-.3028-.5191-.4542-1.0057-.4542-.4867 0-.9463.1947-1.3788.584-.4218.3785-.73.9084-.9246 1.5897zm5.9091 4.6393 1.5897-7.9647h1.4112l-.146 1.5411h.0649c.3136-.4975.6813-.9084 1.1031-1.2329.4217-.3352.8759-.5028 1.3626-.5028.3136 0 .5785.0486.7948.146l-.584 1.5248c-.0973-.0541-.2108-.0865-.3406-.0974-.1298-.0216-.265-.0324-.4055-.0324-.3785 0-.7516.146-1.1193.438s-.7137.7462-1.0382 1.3626l-.9408 4.8177zm8.1654.1947c-.2487 0-.5083-.0379-.7786-.1136-.2596-.0757-.5137-.1784-.7624-.3082-.2488-.1298-.4813-.2866-.6975-.4704-.2163-.1947-.4002-.4055-.5516-.6326l1.0382-.8435c.2595.346.5461.611.8597.7948.3245.1838.6651.2758 1.022.2758.3785 0 .7029-.0974.9733-.292.2811-.2055.4217-.4542.4217-.7462 0-.2487-.1135-.4596-.3406-.6326-.2271-.1839-.5894-.4164-1.0869-.6976-.5299-.2919-.9462-.611-1.249-.957-.3028-.3461-.4542-.7624-.4542-1.2491 0-.3568.0757-.6867.2271-.9895.1514-.3136.3569-.5785.6164-.7948.2704-.2163.5786-.3839.9246-.5029.3569-.1297.7354-.1946 1.1355-.1946.5191 0 .9841.1081 1.395.3244.4218.2163.7895.4866 1.1031.8111l-.9733.9246c-.2055-.2055-.4326-.3785-.6813-.5191-.2487-.1514-.5299-.2271-.8435-.2271-.3677 0-.6705.0973-.9084.292-.2379.1946-.3569.4326-.3569.7137 0 .1514.0379.2812.1136.3893.0757.1082.1784.2109.3082.3082.1298.0974.2758.1893.438.2758s.3298.1784.5028.2758c.5948.3136 1.0382.6434 1.3302.9895.292.346.438.7624.438 1.249 0 .3893-.0811.7408-.2434 1.0544-.1514.3136-.3676.584-.6488.8111-.2812.2163-.6164.3839-1.0057.5028-.3893.119-.8111.1785-1.2653.1785zm4.3649-.1947 1.606-7.9647h1.7356l-1.5897 7.9647zm2.8874-9.3759c-.2487 0-.4758-.0757-.6813-.2271-.2054-.1622-.3082-.3893-.3082-.6813 0-.3136.1136-.5786.3407-.7949.2271-.2271.5028-.3406.8273-.3406.2487 0 .4758.0811.6813.2433.2054.1514.3082.3731.3082.6651 0 .3244-.1136.5948-.3407.811-.2271.2163-.5028.3245-.8273.3245zm2.8708 9.3759-1.0868-7.9647h1.7357l.4217 4.2338c.0433.4001.0757.8003.0974 1.2004.0216.4001.0432.8056.0649 1.2166h.0648c.1839-.411.3677-.8111.5516-1.2004.1946-.4001.3839-.8057.5677-1.2166l2.0601-4.2338h1.7195l-4.1527 7.9647zm6.0794-3.1794c0-.7462.1243-1.422.3731-2.0276.2595-.6164.5947-1.1409 1.0057-1.5735.4217-.4434.8921-.784 1.4112-1.022.5191-.2379 1.0382-.3568 1.5573-.3568.465 0 .8543.0757 1.1679.2271.3244.1514.584.3623.7786.6326.2055.2595.3515.5678.438.9246.0973.3569.146.7408.146 1.1517 0 .3461-.0432.6813-.1298 1.0058-.0865.3244-.1568.5515-.2108.6813h-4.8502c-.0433.4217-.0216.784.0649 1.0868s.2163.5515.3893.7462c.1838.1946.4055.3406.6651.4379.2595.0866.5407.1298.8435.1298.2811 0 .5677-.0649.8597-.1946.292-.1298.5461-.2758.7624-.438l.6489 1.1193c-.3245.2271-.7192.4271-1.1842.6001-.4542.1623-.9679.2434-1.541.2434-.4759 0-.9084-.0757-1.2977-.2271-.3894-.1514-.7246-.3677-1.0058-.6489-.2811-.292-.5028-.6434-.665-1.0544-.1514-.4217-.2271-.903-.2271-1.4437zm1.833-1.4599h3.52c.0216-.1081.0379-.2163.0487-.3244.0216-.119.0324-.2433.0324-.3731 0-.3893-.0973-.73-.292-1.022-.1838-.3028-.5191-.4542-1.0057-.4542s-.9462.1947-1.3788.584c-.4218.3785-.73.9084-.9246 1.5897zm11.4132 4.834c-.2487 0-.5083-.0379-.7786-.1136-.2596-.0757-.5137-.1784-.7624-.3082s-.4812-.2866-.6975-.4704c-.2163-.1947-.4002-.4055-.5516-.6326l1.0382-.8435c.2595.346.5461.611.8597.7948.3245.1838.6651.2758 1.022.2758.3785 0 .7029-.0974.9733-.292.2811-.2055.4217-.4542.4217-.7462 0-.2487-.1135-.4596-.3406-.6326-.2271-.1839-.5894-.4164-1.0869-.6976-.5299-.2919-.9462-.611-1.249-.957-.3028-.3461-.4542-.7624-.4542-1.2491 0-.3568.0757-.6867.2271-.9895.1514-.3136.3569-.5785.6164-.7948.2704-.2163.5786-.3839.9246-.5029.3569-.1297.7354-.1946 1.1355-.1946.5191 0 .9841.1081 1.3951.3244.4217.2163.7894.4866 1.103.8111l-.9733.9246c-.2054-.2055-.4325-.3785-.6813-.5191-.2487-.1514-.5299-.2271-.8435-.2271-.3677 0-.6705.0973-.9084.292-.2379.1946-.3568.4326-.3568.7137 0 .1514.0378.2812.1135.3893.0757.1082.1784.2109.3082.3082.1298.0974.2758.1893.438.2758s.3298.1784.5028.2758c.5948.3136 1.0382.6434 1.3302.9895.292.346.438.7624.438 1.249 0 .3893-.0811.7408-.2433 1.0544-.1514.3136-.3677.584-.6489.8111-.2812.2163-.6164.3839-1.0057.5028-.3893.119-.8111.1785-1.2653.1785zm7.5284 0c-.444 0-.849-.0757-1.2169-.2271-.3677-.1514-.6813-.3677-.9408-.6489-.2596-.2812-.4596-.6218-.6002-1.0219-.1406-.4002-.2109-.8489-.2109-1.3464 0-.757.1244-1.4491.3731-2.0763.2595-.6381.5948-1.1788 1.0057-1.6222.411-.4433.876-.7894 1.395-1.0381.53-.2488 1.065-.3731 1.606-.3731.908 0 1.633.292 2.174.8759.54.5732.811 1.3626.811 2.3683 0 .757-.13 1.4492-.39 2.0764-.248.6272-.578 1.1679-.989 1.6221-.411.4434-.881.7895-1.411 1.0382-.519.2487-1.055.3731-1.606.3731zm.194-1.4113c.314 0 .617-.0919.909-.2758.292-.1946.551-.4541.778-.7786.227-.3352.406-.7245.536-1.1679.14-.4434.211-.9192.211-1.4275 0-.6056-.119-1.0706-.357-1.395-.238-.3245-.584-.4867-1.038-.4867-.314 0-.622.0974-.925.292-.292.1839-.552.438-.779.7624s-.411.7084-.551 1.1517c-.13.4434-.1949.9192-.1949 1.4275 0 .6056.119 1.076.3569 1.4113.238.3244.589.4866 1.054.4866zm13.098-6.7481-1.574 7.9647h-1.411l.065-1.1355h-.065c-.4.3569-.822.6705-1.265.9409-.444.2595-.909.3893-1.395.3893-.671 0-1.157-.1731-1.46-.5191-.292-.3569-.438-.8543-.438-1.4924 0-.1838.011-.3623.032-.5353.022-.1838.054-.3785.098-.5839l1.005-5.0287h1.736l-.957 4.8016c-.043.1838-.076.3406-.097.4704-.022.1297-.033.2541-.033.3731 0 .6813.33 1.0219.99 1.0219.53 0 1.184-.4109 1.962-1.2328l1.071-5.4342zm.764 7.9647 1.59-7.9647h1.411l-.081 1.1193h.065c.421-.3569.854-.6651 1.297-.9246.455-.2596.936-.3893 1.444-.3893.67 0 1.152.173 1.444.5191.292.346.438.8435.438 1.4923 0 .1839-.011.3623-.033.5353-.011.1731-.043.3677-.097.584l-1.006 5.0286h-1.735l.973-4.8015c.032-.1838.059-.3407.081-.4704.032-.1298.049-.2542.049-.3731 0-.6813-.336-1.022-1.006-1.022-.281 0-.584.0974-.909.292-.313.1947-.681.5083-1.103.9409l-1.07 5.4341zm15.038-7.1049.227-1.5248.552-2.8226h1.735l-2.303 11.4523h-1.428l.082-1.103h-.049c-.379.3893-.8.7029-1.265.9408-.455.2379-.909.3569-1.363.3569-.703 0-1.26-.2488-1.671-.7462-.4-.4975-.6-1.2166-.6-2.1575 0-.7569.119-1.4653.357-2.1249.238-.6705.557-1.2491.957-1.7357.4-.4975.854-.8868 1.363-1.168.519-.2811 1.054-.4217 1.606-.4217.389 0 .735.0973 1.038.292.302.1946.54.4488.713.7624zm-3.098 5.8721c.346 0 .697-.1027 1.054-.3082s.703-.5515 1.038-1.0382l.649-3.1794c-.184-.346-.395-.5947-.632-.7461-.228-.1514-.465-.2271-.714-.2271-.335 0-.66.1027-.973.3082-.314.1946-.59.465-.828.811-.238.3461-.427.7516-.567 1.2166-.141.4542-.211.9355-.211 1.4437 0 .584.102 1.0166.308 1.2977.216.2812.508.4218.876.4218zm-109.7076 18.0534c0-.7462.1244-1.422.3731-2.0276.2596-.6164.5948-1.1409 1.0058-1.5735.4217-.4434.8921-.784 1.4112-1.022.5191-.2379 1.0382-.3568 1.5573-.3568.465 0 .8543.0757 1.1679.2271.3244.1514.584.3623.7786.6326.2055.2595.3515.5678.438.9246.0973.3569.146.7408.146 1.1517 0 .3461-.0433.6813-.1298 1.0058-.0865.3244-.1568.5515-.2109.6813h-4.8501c-.0433.4217-.0217.784.0649 1.0868.0865.3028.2162.5515.3893.7462.1838.1946.4055.3406.665.4379.2596.0866.5408.1298.8436.1298.2811 0 .5677-.0649.8597-.1946.292-.1298.5461-.2758.7624-.438l.6488 1.1193c-.3244.2271-.7191.4271-1.1841.6001-.4542.1623-.9679.2434-1.541.2434-.4759 0-.9084-.0757-1.2978-.2271-.3893-.1514-.7245-.3677-1.0057-.6489-.2811-.292-.5028-.6434-.6651-1.0544-.1514-.4217-.2271-.903-.2271-1.4437zm1.8331-1.4599h3.52c.0216-.1081.0378-.2163.0487-.3244.0216-.119.0324-.2433.0324-.3731 0-.3893-.0973-.73-.292-1.022-.1838-.3028-.5191-.4542-1.0057-.4542s-.9463.1947-1.3788.584c-.4218.3785-.73.9084-.9246 1.5897zm4.8709 4.6393 3.4714-4.25-1.4437-3.7147h1.7681l.584 1.5573c.0757.2379.146.465.2109.6813s.1351.438.2108.6651h.0649c.1514-.2163.3028-.438.4542-.6651.1622-.2271.319-.4542.4704-.6813l1.1031-1.5573h1.8655l-3.1957 4.104 1.5411 3.8607h-1.7844l-.6002-1.6221c-.0865-.2379-.173-.4758-.2595-.7138-.0865-.2487-.173-.4866-.2595-.7137h-.0649c-.1514.2271-.3136.4596-.4867.6975-.1622.2271-.3352.465-.5191.7138l-1.249 1.6383zm10.3162-.8435-.2596 1.6221-.4542 2.3684h-1.7357l2.2386-11.1117h1.4112l-.0324.9733h.0487c.3785-.3352.7894-.611 1.2328-.8273.4434-.2271.8922-.3406 1.3464-.3406.7137 0 1.2706.2487 1.6708.7462.4001.4974.6001 1.2166.6001 2.1574 0 .7678-.1189 1.4815-.3568 2.1412s-.557 1.2382-.9571 1.7357c-.4001.4866-.8543.8705-1.3626 1.1517-.5082.2812-1.0381.4218-1.5897.4218-.3785 0-.7191-.092-1.0219-.2758-.3028-.1946-.5515-.4488-.7462-.7624zm3.082-5.8883c-.3136 0-.6542.0973-1.0219.2919-.3677.1839-.7029.4705-1.0057.8598l-.6813 3.4065c.173.3352.373.5785.6001.7299.2271.1406.4651.2109.7138.2109.3352 0 .6597-.0973.9733-.292.3136-.2055.5893-.4812.8273-.8273.2379-.346.4271-.7462.5677-1.2004.1514-.465.2271-.957.2271-1.4761 0-.584-.1081-1.0111-.3244-1.2815-.2163-.2812-.5083-.4217-.876-.4217zm4.1031 3.5524c0-.7462.1244-1.422.3731-2.0276.2596-.6164.5948-1.1409 1.0058-1.5735.4217-.4434.8921-.784 1.4112-1.022.5191-.2379 1.0382-.3568 1.5573-.3568.465 0 .8543.0757 1.1679.2271.3244.1514.584.3623.7786.6326.2055.2595.3515.5678.438.9246.0973.3569.146.7408.146 1.1517 0 .3461-.0433.6813-.1298 1.0058-.0865.3244-.1568.5515-.2109.6813h-4.8501c-.0433.4217-.0217.784.0648 1.0868.0866.3028.2163.5515.3894.7462.1838.1946.4055.3406.665.4379.2596.0866.5407.1298.8435.1298.2812 0 .5678-.0649.8598-.1946.292-.1298.5461-.2758.7624-.438l.6488 1.1193c-.3244.2271-.7191.4271-1.1841.6001-.4542.1623-.9679.2434-1.5411.2434-.4758 0-.9084-.0757-1.2977-.2271s-.7245-.3677-1.0057-.6489c-.2812-.292-.5029-.6434-.6651-1.0544-.1514-.4217-.2271-.903-.2271-1.4437zm1.833-1.4599h3.5201c.0216-.1081.0378-.2163.0486-.3244.0217-.119.0325-.2433.0325-.3731 0-.3893-.0973-.73-.292-1.022-.1838-.3028-.5191-.4542-1.0057-.4542-.4867 0-.9463.1947-1.3788.584-.4218.3785-.73.9084-.9247 1.5897zm5.9092 4.6393 1.5897-7.9647h1.4112l-.146 1.5411h.0649c.3136-.4975.6813-.9084 1.1031-1.2329.4217-.3352.8759-.5028 1.3626-.5028.3136 0 .5785.0486.7948.146l-.584 1.5248c-.0973-.0541-.2108-.0865-.3406-.0974-.1298-.0216-.265-.0324-.4055-.0324-.3785 0-.7516.146-1.1193.438s-.7138.7462-1.0382 1.3626l-.9408 4.8177zm5.8929 0 1.6059-7.9647h1.7357l-1.5897 7.9647zm2.8874-9.3759c-.2487 0-.4758-.0757-.6813-.2271-.2055-.1622-.3082-.3893-.3082-.6813 0-.3136.1135-.5786.3406-.7949.2271-.2271.5029-.3406.8273-.3406.2488 0 .4758.0811.6813.2433.2055.1514.3082.3731.3082.6651 0 .3244-.1135.5948-.3406.811-.2271.2163-.5029.3245-.8273.3245zm1.3622 6.1965c0-.7462.1244-1.422.3731-2.0276.2595-.6164.5948-1.1409 1.0057-1.5735.4218-.4434.8922-.784 1.4113-1.022.5191-.2379 1.0381-.3568 1.5572-.3568.465 0 .8543.0757 1.168.2271.3244.1514.5839.3623.7786.6326.2055.2595.3514.5678.438.9246.0973.3569.1459.7408.1459 1.1517 0 .3461-.0432.6813-.1297 1.0058-.0865.3244-.1568.5515-.2109.6813h-4.8502c-.0432.4217-.0216.784.0649 1.0868s.2163.5515.3893.7462c.1839.1946.4055.3406.6651.4379.2595.0866.5407.1298.8435.1298.2812 0 .5677-.0649.8597-.1946.292-.1298.5462-.2758.7624-.438l.6489 1.1193c-.3244.2271-.7192.4271-1.1842.6001-.4542.1623-.9678.2434-1.541.2434-.4758 0-.9084-.0757-1.2977-.2271s-.7246-.3677-1.0057-.6489c-.2812-.292-.5029-.6434-.6651-1.0544-.1514-.4217-.2271-.903-.2271-1.4437zm1.833-1.4599h3.52c.0217-.1081.0379-.2163.0487-.3244.0216-.119.0324-.2433.0324-.3731 0-.3893-.0973-.73-.2919-1.022-.1839-.3028-.5191-.4542-1.0058-.4542-.4866 0-.9462.1947-1.3788.584-.4217.3785-.7299.9084-.9246 1.5897zm5.9091 4.6393 1.5897-7.9647h1.4113l-.0811 1.1193h.0649c.4217-.3569.8543-.6651 1.2977-.9246.4542-.2596.9354-.3893 1.4437-.3893.6705 0 1.1517.173 1.4437.5191.292.346.438.8435.438 1.4923 0 .1839-.0109.3623-.0325.5353-.0108.1731-.0432.3677-.0973.584l-1.0057 5.0286h-1.7357l.9733-4.8015c.0324-.1838.0594-.3407.0811-.4704.0324-.1298.0486-.2542.0486-.3731 0-.6813-.3352-1.022-1.0057-1.022-.2812 0-.584.0974-.9084.292-.3136.1947-.6813.5083-1.103.9409l-1.0707 5.4341zm11.9562.1947c-.4434 0-.8489-.0703-1.2166-.2109-.3677-.1514-.6867-.3623-.9571-.6326-.2703-.2812-.4812-.6219-.6326-1.022s-.2271-.8597-.2271-1.3788c0-.7137.119-1.3788.3569-1.9952.2487-.6273.5785-1.168.9895-1.6222.4217-.465.9084-.8272 1.4599-1.0868.5623-.2703 1.1517-.4055 1.7681-.4055.4867 0 .903.0973 1.2491.292.346.1946.6272.4217.8435.6813l-.9733 1.0543c-.1839-.2162-.3677-.373-.5515-.4704-.1839-.0973-.411-.146-.6813-.146-.3569 0-.6976.0974-1.022.292-.3244.1947-.611.4596-.8597.7949-.2379.3244-.4326.7083-.584 1.1517-.1406.4325-.2109.8976-.2109 1.395 0 .6056.1298 1.076.3894 1.4113.2703.3244.6758.4866 1.2166.4866.3136 0 .5893-.0595.8272-.1784.2488-.1298.4759-.2758.6813-.438l.7462 1.1031c-.3028.2162-.6651.4271-1.0868.6326-.4109.1946-.9192.292-1.5248.292zm3.8575-3.3741c0-.7462.1244-1.422.3731-2.0276.2595-.6164.5948-1.1409 1.0057-1.5735.4218-.4434.8922-.784 1.4113-1.022.5191-.2379 1.0381-.3568 1.5572-.3568.465 0 .8543.0757 1.168.2271.3244.1514.5839.3623.7786.6326.2055.2595.3514.5678.438.9246.0973.3569.1459.7408.1459 1.1517 0 .3461-.0432.6813-.1297 1.0058-.0865.3244-.1568.5515-.2109.6813h-4.8502c-.0432.4217-.0216.784.0649 1.0868s.2163.5515.3893.7462c.1839.1946.4056.3406.6651.4379.2595.0866.5407.1298.8435.1298.2812 0 .5677-.0649.8597-.1946.292-.1298.5462-.2758.7624-.438l.6489 1.1193c-.3244.2271-.7192.4271-1.1842.6001-.4542.1623-.9678.2434-1.541.2434-.4758 0-.9084-.0757-1.2977-.2271s-.7246-.3677-1.0057-.6489c-.2812-.292-.5029-.6434-.6651-1.0544-.1514-.4217-.2271-.903-.2271-1.4437zm1.833-1.4599h3.52c.0217-.1081.0379-.2163.0487-.3244.0216-.119.0325-.2433.0325-.3731 0-.3893-.0974-.73-.292-1.022-.1839-.3028-.5191-.4542-1.0058-.4542-.4866 0-.9462.1947-1.3788.584-.4217.3785-.7299.9084-.9246 1.5897zm8.245 4.834c-.2487 0-.5083-.0379-.7786-.1136-.2595-.0757-.5137-.1784-.7624-.3082s-.4812-.2866-.6975-.4704c-.2163-.1947-.4002-.4055-.5516-.6326l1.0382-.8435c.2596.346.5461.611.8597.7948.3245.1838.6651.2758 1.022.2758.3785 0 .7029-.0974.9733-.292.2811-.2055.4217-.4542.4217-.7462 0-.2487-.1135-.4596-.3406-.6326-.2271-.1839-.5894-.4164-1.0869-.6976-.5299-.2919-.9462-.611-1.249-.957-.3028-.3461-.4542-.7624-.4542-1.2491 0-.3568.0757-.6867.2271-.9895.1514-.3136.3569-.5785.6164-.7948.2704-.2163.5786-.3839.9246-.5029.3569-.1297.7354-.1946 1.1355-.1946.5191 0 .9841.1081 1.3951.3244.4217.2163.7894.4866 1.103.8111l-.9733.9246c-.2054-.2055-.4325-.3785-.6813-.5191-.2487-.1514-.5299-.2271-.8435-.2271-.3677 0-.6705.0973-.9084.292-.2379.1946-.3568.4326-.3568.7137 0 .1514.0378.2812.1135.3893.0757.1082.1784.2109.3082.3082.1298.0974.2758.1893.438.2758s.3298.1784.5029.2758c.5947.3136 1.0381.6434 1.3301.9895.292.346.438.7624.438 1.249 0 .3893-.0811.7408-.2433 1.0544-.1514.3136-.3677.584-.6489.8111-.2812.2163-.6164.3839-1.0057.5028-.3893.119-.8111.1785-1.2653.1785zm8.1168-6.7806.26-1.2977 1.054-.0811.179-.9246c.162-.8111.47-1.4707.924-1.979.455-.5191 1.082-.7786 1.882-.7786.303 0 .584.0378.844.1135.259.0757.502.1731.729.292l-.583 1.2328c-.098-.054-.222-.1081-.374-.1622-.14-.054-.292-.0811-.454-.0811-.324 0-.589.1082-.795.3245-.205.2054-.351.5353-.438.9895l-.194.9732h1.508l-.275 1.3788h-1.525l-1.298 6.5859h-1.736l1.314-6.5859zm7.364 6.7806c-.444 0-.849-.0757-1.217-.2271s-.681-.3677-.941-.6489c-.259-.2812-.459-.6218-.6-1.0219-.141-.4002-.211-.8489-.211-1.3464 0-.757.124-1.4491.373-2.0763.26-.6381.595-1.1788 1.006-1.6222.411-.4433.876-.7894 1.395-1.0381.53-.2488 1.065-.3731 1.606-.3731.908 0 1.633.292 2.173.8759.541.5732.812 1.3626.812 2.3683 0 .757-.13 1.4492-.39 2.0764-.248.6272-.578 1.1679-.989 1.6221-.411.4434-.882.7895-1.412 1.0382-.519.2487-1.054.3731-1.605.3731zm.194-1.4113c.314 0 .617-.0919.909-.2758.292-.1946.551-.4541.778-.7786.227-.3352.406-.7245.536-1.1679.14-.4434.21-.9192.21-1.4275 0-.6056-.119-1.0706-.356-1.395-.238-.3245-.584-.4867-1.039-.4867-.313 0-.621.0974-.924.292-.292.1839-.552.438-.779.7624s-.411.7084-.551 1.1517c-.13.4434-.195.9192-.195 1.4275 0 .6056.119 1.076.357 1.4113.238.3244.589.4866 1.054.4866zm5.149 1.2166 1.59-7.9647h1.411l-.146 1.5411h.065c.314-.4975.681-.9084 1.103-1.2329.422-.3352.876-.5028 1.363-.5028.313 0 .578.0486.794.146l-.584 1.5248c-.097-.0541-.21-.0865-.34-.0974-.13-.0216-.265-.0324-.406-.0324-.378 0-.751.146-1.119.438s-.714.7462-1.038 1.3626l-.941 4.8177zm-96.8395 23.2767c-.1298 0-.292-.027-.4867-.0811-.2054-.0541-.3839-.1243-.5353-.2109l.5515-1.2652c.1839.1081.3785.1622.584.1622.3461 0 .6759-.1352.9895-.4055.3136-.2596.5786-.6165.7949-1.0707l.2433-.4866-1.3788-7.8836h1.7357l.5028 4.0229c.0433.3569.0811.7516.1136 1.1842.0324.4217.0594.8219.0811 1.2004h.0649c.1838-.3785.3676-.7733.5515-1.1842.1946-.4217.3839-.8219.5677-1.2004l1.979-4.0229h1.6871l-4.4771 8.3865c-.2488.4325-.5029.8218-.7624 1.1679-.2488.3569-.5137.6597-.7949.9084s-.5894.438-.9246.5677c-.3244.1406-.6867.2109-1.0868.2109zm10.8646-3.082c-.4434 0-.8489-.0757-1.2166-.2271s-.6813-.3677-.9408-.6489c-.2596-.2812-.4597-.6218-.6002-1.0219-.1406-.4002-.2109-.8489-.2109-1.3464 0-.757.1243-1.4491.3731-2.0763.2595-.6381.5948-1.1788 1.0057-1.6222.4109-.4433.876-.7894 1.395-1.0381.5299-.2488 1.0652-.3731 1.6059-.3731.9084 0 1.633.292 2.1737.8759.5407.5732.8111 1.3626.8111 2.3683 0 .757-.1298 1.4492-.3893 2.0764-.2488.6272-.5786 1.1679-.9895 1.6221-.411.4434-.8814.7895-1.4113 1.0382-.5191.2487-1.0544.3731-1.6059.3731zm.1946-1.4113c.3137 0 .6165-.0919.9084-.2758.292-.1946.5516-.4541.7787-.7786.2271-.3352.4055-.7245.5353-1.1679.1406-.4434.2108-.9192.2108-1.4275 0-.6056-.1189-1.0706-.3568-1.395-.2379-.3245-.584-.4867-1.0382-.4867-.3136 0-.6218.0974-.9246.292-.292.1839-.5515.438-.7786.7624s-.411.7084-.5516 1.1517c-.1297.4434-.1946.9192-.1946 1.4275 0 .6056.1189 1.076.3569 1.4113.2379.3244.5893.4866 1.0543.4866zm13.0974-6.7481-1.5735 7.9647h-1.4112l.0648-1.1355h-.0648c-.4002.3569-.8219.6705-1.2653.9409-.4434.2595-.9084.3893-1.395.3893-.6705 0-1.1572-.1731-1.46-.5191-.2919-.3569-.4379-.8543-.4379-1.4924 0-.1838.0108-.3623.0324-.5353.0216-.1838.0541-.3785.0973-.5839l1.0058-5.0287h1.7356l-.957 4.8016c-.0433.1838-.0757.3406-.0973.4704-.0217.1297-.0325.2541-.0325.3731 0 .6813.3298 1.0219.9895 1.0219.5299 0 1.1842-.4109 1.9628-1.2328l1.0706-5.4342zm.7642 7.9647 1.5897-7.9647h1.4112l-.146 1.5411h.0649c.3136-.4975.6813-.9084 1.1031-1.2329.4217-.3352.8759-.5028 1.3626-.5028.3136 0 .5785.0486.7948.146l-.584 1.5248c-.0973-.0541-.2108-.0865-.3406-.0974-.1298-.0216-.265-.0324-.4056-.0324-.3785 0-.7515.146-1.1192.438s-.7138.7462-1.0382 1.3626l-.9408 4.8177zm10.7481 0-1.0868-7.9647h1.7357l.4217 4.2338c.0433.4001.0757.8003.0974 1.2004.0216.4001.0432.8056.0648 1.2166h.0649c.1839-.411.3677-.8111.5516-1.2004.1946-.4001.3839-.8057.5677-1.2166l2.0601-4.2338h1.7195l-4.1527 7.9647zm5.996 0 1.6059-7.9647h1.7357l-1.5897 7.9647zm2.8874-9.3759c-.2488 0-.4759-.0757-.6813-.2271-.2055-.1622-.3082-.3893-.3082-.6813 0-.3136.1135-.5786.3406-.7949.2271-.2271.5029-.3406.8273-.3406.2487 0 .4758.0811.6813.2433.2055.1514.3082.3731.3082.6651 0 .3244-.1135.5948-.3406.811-.2271.2163-.5029.3245-.8273.3245zm1.1837 9.3759 1.5897-7.9647h1.4113l-.146 1.5411h.0649c.3136-.4975.6813-.9084 1.103-1.2329.4218-.3352.876-.5028 1.3626-.5028.3136 0 .5786.0486.7949.146l-.584 1.5248c-.0973-.0541-.2109-.0865-.3406-.0974-.1298-.0216-.265-.0324-.4056-.0324-.3785 0-.7516.146-1.1192.438-.3677.292-.7138.7462-1.0382 1.3626l-.9409 4.8177zm8.683.1947c-.7462 0-1.2815-.1839-1.6059-.5516-.3136-.3785-.4704-.8435-.4704-1.395 0-.1622.0108-.319.0324-.4704.0217-.1514.0433-.3082.0649-.4704l.8111-3.8932h-1.1193l.2596-1.2977 1.2166-.0811.6326-2.1412h1.4599l-.4217 2.1412h1.9141l-.2758 1.3788h-1.9466l-.811 3.9581c-.0325.1946-.0487.3839-.0487.5677 0 .292.0703.5137.2109.6651.1406.1406.3785.2109.7137.2109.1406 0 .2704-.0217.3893-.0649.119-.0433.238-.092.3569-.146l.3244 1.2328c-.1946.0865-.4325.1676-.7137.2433s-.6056.1136-.9733.1136zm10.6078-8.1594-1.5735 7.9647h-1.4113l.0649-1.1355h-.0649c-.4001.3569-.8218.6705-1.2652.9409-.4434.2595-.9084.3893-1.3951.3893-.6704 0-1.1571-.1731-1.4599-.5191-.292-.3569-.438-.8543-.438-1.4924 0-.1838.0109-.3623.0325-.5353.0216-.1838.0541-.3785.0973-.5839l1.0057-5.0287h1.7357l-.957 4.8016c-.0433.1838-.0757.3406-.0974.4704-.0216.1297-.0324.2541-.0324.3731 0 .6813.3298 1.0219.9895 1.0219.5299 0 1.1842-.4109 1.9628-1.2328l1.0706-5.4342zm3.246 8.1594c-.7029 0-1.2598-.2488-1.6708-.7462-.4001-.4975-.6002-1.2166-.6002-2.1575 0-.7569.119-1.4653.3569-2.1249.2379-.6705.5569-1.2491.9571-1.7357.4001-.4975.8543-.8868 1.3625-1.168.5191-.2811 1.0544-.4217 1.606-.4217.3893 0 .7461.1027 1.0706.3082.3244.1946.5785.465.7624.811h.0324l.3407-.9246h1.395l-1.5897 7.9647h-1.4275l.0811-1.103h-.0486c-.3785.3893-.8003.7029-1.2653.9408-.4542.2379-.9084.3569-1.3626.3569zm.7138-1.4275c.346 0 .6975-.1027 1.0543-.3082.3677-.2055.7138-.5515 1.0382-1.0382l.6489-3.1794c-.1839-.346-.3948-.5947-.6327-.7461-.2271-.1514-.465-.2271-.7137-.2271-.3353 0-.6597.1027-.9733.3082-.3136.1946-.5894.465-.8273.811-.2379.3461-.4271.7516-.5677 1.2166-.1406.4542-.2109.9355-.2109 1.4437 0 .584.1027 1.0166.3082 1.2977.2163.2812.5083.4218.876.4218zm7.2662 1.4275c-.465 0-.8056-.1136-1.0219-.3407s-.3244-.5461-.3244-.957c0-.2488.0378-.5299.1135-.8435l1.8979-9.5058h1.7357l-1.9141 9.5869c-.0217.0865-.0325.1514-.0325.1946v.1136c0 .2271.0919.3406.2758.3406h.1298c.0324-.0108.0865-.027.1622-.0487l-.0325 1.2978c-.1189.054-.2595.0919-.4217.1135-.1622.0324-.3515.0487-.5678.0487zm-75.9609 16.6259c0-.7462.1244-1.422.3731-2.0276.2596-.6164.5948-1.1409 1.0058-1.5735.4217-.4434.8921-.784 1.4112-1.022.5191-.2379 1.0382-.3568 1.5573-.3568.465 0 .8543.0757 1.1679.2271.3244.1514.584.3623.7786.6326.2055.2595.3515.5678.438.9246.0973.3569.146.7408.146 1.1517 0 .3461-.0433.6813-.1298 1.0058-.0865.3244-.1568.5515-.2109.6813h-4.8501c-.0433.4217-.0217.784.0649 1.0868.0865.3028.2162.5515.3893.7462.1838.1946.4055.3406.665.4379.2596.0866.5408.1298.8436.1298.2811 0 .5677-.0649.8597-.1946.292-.1298.5461-.2758.7624-.438l.6488 1.1193c-.3244.2271-.7191.4271-1.1841.6001-.4542.1623-.9679.2434-1.541.2434-.4759 0-.9084-.0757-1.2978-.2271-.3893-.1514-.7245-.3677-1.0057-.6489-.2811-.292-.5028-.6434-.6651-1.0544-.1514-.4217-.2271-.903-.2271-1.4437zm1.8331-1.4599h3.52c.0216-.1081.0378-.2163.0487-.3244.0216-.119.0324-.2433.0324-.3731 0-.3893-.0973-.73-.292-1.022-.1838-.3028-.5191-.4542-1.0057-.4542s-.9463.1947-1.3788.584c-.4218.3785-.73.9084-.9246 1.5897zm7.3427 4.6393-1.0869-7.9647h1.7357l.4218 4.2338c.0432.4001.0757.8003.0973 1.2004s.0432.8056.0649 1.2166h.0649c.1838-.411.3676-.8111.5515-1.2004.1946-.4001.3839-.8057.5677-1.2166l2.0601-4.2338h1.7195l-4.1527 7.9647zm6.0793-3.1794c0-.7462.1243-1.422.3731-2.0276.2595-.6164.5948-1.1409 1.0057-1.5735.4218-.4434.8922-.784 1.4113-1.022.519-.2379 1.0381-.3568 1.5572-.3568.465 0 .8543.0757 1.1679.2271.3245.1514.584.3623.7787.6326.2054.2595.3514.5678.4379.9246.0974.3569.146.7408.146 1.1517 0 .3461-.0432.6813-.1297 1.0058-.0866.3244-.1568.5515-.2109.6813h-4.8502c-.0433.4217-.0216.784.0649 1.0868s.2163.5515.3893.7462c.1838.1946.4055.3406.6651.4379.2595.0866.5407.1298.8435.1298.2812 0 .5677-.0649.8597-.1946.292-.1298.5461-.2758.7624-.438l.6489 1.1193c-.3245.2271-.7192.4271-1.1842.6001-.4542.1623-.9679.2434-1.541.2434-.4758 0-.9084-.0757-1.2977-.2271s-.7246-.3677-1.0057-.6489c-.2812-.292-.5029-.6434-.6651-1.0544-.1514-.4217-.2271-.903-.2271-1.4437zm1.833-1.4599h3.52c.0217-.1081.0379-.2163.0487-.3244.0216-.119.0324-.2433.0324-.3731 0-.3893-.0973-.73-.292-1.022-.1838-.3028-.519-.4542-1.0057-.4542-.4866 0-.9462.1947-1.3788.584-.4217.3785-.73.9084-.9246 1.5897zm5.9091 4.6393 1.5897-7.9647h1.4113l-.0811 1.1193h.0649c.4217-.3569.8543-.6651 1.2977-.9246.4542-.2596.9354-.3893 1.4437-.3893.6704 0 1.1517.173 1.4437.5191.2919.346.4379.8435.4379 1.4923 0 .1839-.0108.3623-.0324.5353-.0108.1731-.0433.3677-.0973.584l-1.0058 5.0286h-1.7356l.9732-4.8015c.0325-.1838.0595-.3407.0811-.4704.0325-.1298.0487-.2542.0487-.3731 0-.6813-.3352-1.022-1.0057-1.022-.2812 0-.584.0974-.9084.292-.3136.1947-.6813.5083-1.1031.9409l-1.0706 5.4341zm11.5344.1947c-.7462 0-1.2815-.1839-1.6059-.5516-.3136-.3785-.4704-.8435-.4704-1.395 0-.1622.0108-.319.0324-.4704.0217-.1514.0433-.3082.0649-.4704l.8111-3.8932h-1.1193l.2595-1.2977 1.2166-.0811.6327-2.1412h1.4599l-.4218 2.1412h1.9142l-.2758 1.3788h-1.9466l-.811 3.9581c-.0325.1946-.0487.3839-.0487.5677 0 .292.0703.5137.2109.6651.1406.1406.3785.2109.7137.2109.1406 0 .2704-.0217.3893-.0649.119-.0433.238-.092.3569-.146l.3244 1.2328c-.1946.0865-.4325.1676-.7137.2433s-.6056.1136-.9733.1136zm5.1536 0c-.2487 0-.5083-.0379-.7786-.1136-.2596-.0757-.5137-.1784-.7624-.3082-.2488-.1298-.4813-.2866-.6976-.4704-.2162-.1947-.4001-.4055-.5515-.6326l1.0382-.8435c.2595.346.5461.611.8597.7948.3244.1838.6651.2758 1.022.2758.3785 0 .7029-.0974.9732-.292.2812-.2055.4218-.4542.4218-.7462 0-.2487-.1136-.4596-.3407-.6326-.2271-.1839-.5893-.4164-1.0868-.6976-.5299-.2919-.9462-.611-1.249-.957-.3028-.3461-.4542-.7624-.4542-1.2491 0-.3568.0757-.6867.2271-.9895.1514-.3136.3568-.5785.6164-.7948.2703-.2163.5785-.3839.9246-.5029.3569-.1297.7354-.1946 1.1355-.1946.5191 0 .9841.1081 1.395.3244.4218.2163.7895.4866 1.1031.8111l-.9733.9246c-.2055-.2055-.4326-.3785-.6813-.5191-.2487-.1514-.5299-.2271-.8435-.2271-.3677 0-.6705.0973-.9084.292-.2379.1946-.3569.4326-.3569.7137 0 .1514.0379.2812.1136.3893.0757.1082.1784.2109.3082.3082.1298.0974.2757.1893.438.2758.1622.0865.3298.1784.5028.2758.5948.3136 1.0382.6434 1.3302.9895.292.346.4379.7624.4379 1.249 0 .3893-.0811.7408-.2433 1.0544-.1514.3136-.3677.584-.6488.8111-.2812.2163-.6164.3839-1.0057.5028-.3894.119-.8111.1785-1.2653.1785zm5.3382 0c-.292 0-.5245-.092-.6975-.2758-.173-.1946-.2596-.438-.2596-.73 0-.173.0325-.3406.0974-.5028.0649-.173.1568-.3244.2757-.4542.1298-.1298.2758-.2325.438-.3082.1622-.0865.3407-.1298.5353-.1298.292 0 .5191.0973.6813.292.173.1947.2596.438.2596.73 0 .173-.0325.346-.0974.519-.0649.1623-.1568.3082-.2757.438-.1082.1298-.2488.2325-.4218.3082-.1622.0757-.3406.1136-.5353.1136z" fill="#fafafb"/><path clip-rule="evenodd" d="m151.438 76.3004c-.685 0-1.24.5553-1.24 1.2403v11.9384c0 .685.555 1.2403 1.24 1.2403h11.938c.685 0 1.241-.5553 1.241-1.2403v-11.9384c0-.685-.556-1.2403-1.241-1.2403zm3.841 7.64c1.246 0 2.256-1.01 2.256-2.256s-1.01-2.256-2.256-2.256-2.256 1.01-2.256 2.256 1.01 2.256 2.256 2.256zm6.237-.2654c0 .7329-.595 1.3271-1.327 1.3271-.733 0-1.328-.5942-1.328-1.3271s.595-1.3271 1.328-1.3271c.732 0 1.327.5942 1.327 1.3271zm-4.114 2.6541c.366 0 .663-.2971.663-.6635 0-.3665-.297-.6636-.663-.6636-.367 0-.664.2971-.664.6636 0 .3664.297.6635.664.6635z" fill="#fafafb" fill-rule="evenodd"/><path d="m114.722 85.6476c.25 0 .457.0817.62.2451.164.1634.245.3749.245.6344v6.0993c0 .2499-.081.4614-.245.6344-.163.1634-.37.2451-.62.2451s-.456-.0817-.62-.2451c-.154-.1634-.235-.3701-.245-.62-.24.2787-.567.5191-.98.7209-.404.1923-.832.2884-1.284.2884-.663 0-1.264-.1682-1.802-.5047-.538-.346-.966-.8218-1.283-1.4274-.308-.6056-.462-1.2929-.462-2.0619 0-.7691.154-1.4564.462-2.062.307-.6152.725-1.091 1.254-1.4274.538-.3461 1.13-.5191 1.774-.5191.461 0 .894.0865 1.297.2595.404.1634.745.3749 1.024.6345v-.0145c0-.2499.082-.4566.245-.62.164-.173.37-.2595.62-.2595zm-2.912 6.4164c.624 0 1.134-.2259 1.528-.6777.394-.4614.591-1.0381.591-1.7302 0-.6922-.197-1.2689-.591-1.7303s-.904-.6921-1.528-.6921c-.616 0-1.12.2307-1.514.6921-.395.4614-.592 1.0381-.592 1.7303 0 .6921.193 1.2688.577 1.7302.394.4518.904.6777 1.529.6777zm11.236-6.2722c.25 0 .457.0865.62.2595.163.1634.245.3701.245.62v3.6624c0 1.0382-.288 1.8505-.865 2.4369-.567.5863-1.379.8795-2.437.8795-1.057 0-1.87-.2932-2.437-.8795-.567-.5864-.85-1.3987-.85-2.4369v-3.6624c0-.2499.081-.4566.245-.62.163-.173.37-.2595.62-.2595s.456.0865.62.2595c.163.1634.245.3701.245.62v3.6624c0 .5864.13 1.0238.389 1.3122.26.2787.649.4181 1.168.4181.529 0 .923-.1394 1.183-.4181.259-.2884.389-.7258.389-1.3122v-3.6624c0-.2499.082-.4566.245-.62.163-.173.37-.2595.62-.2595zm8.982-2.9559c.25 0 .456.0817.62.2451.163.1634.245.3749.245.6344v8.911c0 .2499-.082.4614-.245.6344-.164.1634-.37.2451-.62.2451s-.457-.0817-.62-.2451c-.154-.1634-.236-.3701-.245-.62-.241.2787-.568.5191-.981.7209-.404.1923-.831.2884-1.283.2884-.663 0-1.264-.1682-1.803-.5047-.538-.346-.966-.8218-1.283-1.4274-.307-.6056-.461-1.2929-.461-2.0619 0-.7691.154-1.4564.461-2.062.308-.6152.726-1.091 1.255-1.4274.538-.3461 1.129-.5191 1.773-.5191.462 0 .894.0865 1.298.2595.404.1634.745.3749 1.024.6345v-2.8262c0-.2499.081-.4566.245-.62.163-.173.37-.2595.62-.2595zm-2.913 9.2281c.625 0 1.134-.2259 1.529-.6777.394-.4614.591-1.0381.591-1.7302 0-.6922-.197-1.2689-.591-1.7303-.395-.4614-.904-.6921-1.529-.6921-.615 0-1.12.2307-1.514.6921s-.591 1.0381-.591 1.7303c0 .6921.192 1.2688.577 1.7302.394.4518.903.6777 1.528.6777zm7.282.5624c0 .2499-.081.4614-.245.6344-.163.1634-.37.2451-.62.2451s-.456-.0817-.62-.2451c-.163-.173-.245-.3845-.245-.6344v-5.9551c0-.2499.082-.4566.245-.62.164-.173.37-.2595.62-.2595s.457.0865.62.2595c.164.1634.245.3701.245.62zm-.879-7.7719c-.327 0-.558-.0528-.692-.1586-.135-.1057-.202-.2932-.202-.5623v-.274c0-.2691.072-.4566.216-.5623.144-.1058.375-.1586.692-.1586.337 0 .572.0528.707.1586.134.1057.202.2932.202.5623v.274c0 .2788-.072.471-.217.5767-.134.0962-.37.1442-.706.1442zm10.069 4.8016c0 .769-.173 1.4611-.519 2.0763-.346.6056-.822 1.0766-1.428 1.413-.596.3365-1.254.5047-1.975.5047-.731 0-1.394-.1682-1.99-.5047-.596-.3364-1.067-.8074-1.413-1.413-.346-.6152-.519-1.3073-.519-2.0763 0-.7691.173-1.4564.519-2.062.346-.6152.817-1.091 1.413-1.4274.596-.3461 1.259-.5191 1.99-.5191.721 0 1.379.173 1.975.5191.606.3364 1.082.8122 1.428 1.4274.346.6056.519 1.2929.519 2.062zm-1.73 0c0-.4711-.101-.8892-.303-1.2545-.192-.3749-.457-.6633-.793-.8651-.327-.2019-.692-.3028-1.096-.3028s-.774.1009-1.11.3028c-.327.2018-.591.4902-.793.8651-.193.3653-.289.7834-.289 1.2545 0 .471.096.8891.289 1.2544.202.3653.466.6489.793.8507.336.2019.706.3028 1.11.3028s.769-.1009 1.096-.3028c.336-.2018.601-.4854.793-.8507.202-.3653.303-.7834.303-1.2544zm-31.384 10.9919c.663 0 1.264.173 1.802.519.538.336.961.807 1.269 1.413.317.605.476 1.293.476 2.062s-.154 1.461-.462 2.076c-.307.606-.73 1.081-1.268 1.427-.529.337-1.115.505-1.76.505-.461 0-.898-.091-1.312-.274-.403-.192-.74-.423-1.009-.692v.087c0 .249-.082.461-.245.634-.164.163-.37.245-.62.245s-.457-.082-.62-.245c-.164-.163-.245-.375-.245-.634v-9.0556c0-.2499.081-.4566.245-.62.163-.173.37-.2595.62-.2595s.456.0865.62.2595c.163.1634.245.3701.245.62v3.0136c.231-.288.553-.538.966-.75.413-.221.846-.331 1.298-.331zm-.216 6.416c.615 0 1.119-.231 1.513-.692.395-.461.592-1.038.592-1.73s-.197-1.264-.592-1.716c-.384-.462-.889-.692-1.513-.692-.625 0-1.135.23-1.529.692-.394.452-.591 1.024-.591 1.716s.197 1.269.591 1.73.904.692 1.529.692zm10.93-6.272c.25 0 .456.086.62.259.163.164.245.37.245.62v3.663c0 1.038-.288 1.85-.865 2.437-.567.586-1.38.879-2.437.879s-1.87-.293-2.437-.879c-.567-.587-.851-1.399-.851-2.437v-3.663c0-.25.082-.456.246-.62.163-.173.37-.259.62-.259.249 0 .456.086.62.259.163.164.245.37.245.62v3.663c0 .586.129 1.023.389 1.312.26.279.649.418 1.168.418.529 0 .923-.139 1.182-.418.26-.289.39-.726.39-1.312v-3.663c0-.25.081-.456.245-.62.163-.173.37-.259.62-.259zm6.732-.144c.663 0 1.264.173 1.803.519.538.336.961.807 1.268 1.413.318.605.476 1.293.476 2.062s-.154 1.461-.461 2.076c-.308.606-.731 1.081-1.269 1.427-.529.337-1.115.505-1.759.505-.462 0-.899-.091-1.312-.274-.404-.192-.74-.423-1.01-.692v.087c0 .249-.081.461-.245.634-.163.163-.37.245-.62.245s-.456-.082-.62-.245c-.163-.163-.245-.375-.245-.634v-9.0556c0-.2499.082-.4566.245-.62.164-.173.37-.2595.62-.2595s.457.0865.62.2595c.164.1634.245.3701.245.62v3.0136c.231-.288.553-.538.966-.75.414-.221.846-.331 1.298-.331zm-.216 6.416c.615 0 1.12-.231 1.514-.692s.591-1.038.591-1.73-.197-1.264-.591-1.716c-.385-.462-.889-.692-1.514-.692s-1.134.23-1.529.692c-.394.452-.591 1.024-.591 1.716s.197 1.269.591 1.73c.395.461.904.692 1.529.692zm9.2-6.416c.663 0 1.264.173 1.802.519.539.336.962.807 1.269 1.413.317.605.476 1.293.476 2.062s-.154 1.461-.461 2.076c-.308.606-.731 1.081-1.269 1.427-.529.337-1.115.505-1.759.505-.462 0-.899-.091-1.313-.274-.403-.192-.74-.423-1.009-.692v.087c0 .249-.082.461-.245.634-.163.163-.37.245-.62.245s-.457-.082-.62-.245-.245-.375-.245-.634v-9.0556c0-.2499.082-.4566.245-.62.163-.173.37-.2595.62-.2595s.457.0865.62.2595c.163.1634.245.3701.245.62v3.0136c.231-.288.553-.538.966-.75.414-.221.846-.331 1.298-.331zm-.216 6.416c.615 0 1.119-.231 1.514-.692.394-.461.591-1.038.591-1.73s-.197-1.264-.591-1.716c-.385-.462-.89-.692-1.514-.692-.625 0-1.135.23-1.529.692-.394.452-.591 1.024-.591 1.716s.197 1.269.591 1.73.904.692 1.529.692zm7.08.562c0 .25-.087.462-.26.635-.163.163-.37.245-.62.245-.24 0-.442-.082-.605-.245-.164-.173-.245-.385-.245-.635v-8.9106c0-.2499.081-.4566.245-.62.173-.173.384-.2595.634-.2595.241 0 .442.0865.606.2595.163.1634.245.3701.245.62zm8.792-3.157c-.009.23-.101.418-.274.562s-.375.216-.605.216h-4.759c.116.567.38 1.014.793 1.341.414.317.88.476 1.399.476.394 0 .702-.034.923-.101.221-.077.394-.154.519-.231.135-.086.226-.144.274-.173.173-.086.336-.129.49-.129.202 0 .375.072.519.216s.217.312.217.505c0 .259-.135.495-.404.706-.269.221-.63.409-1.082.562-.451.154-.908.231-1.369.231-.808 0-1.514-.168-2.12-.505-.596-.336-1.057-.797-1.384-1.384-.327-.596-.49-1.264-.49-2.004 0-.827.173-1.552.519-2.177s.802-1.101 1.369-1.428c.568-.336 1.173-.504 1.817-.504.635 0 1.231.173 1.788.519.567.346 1.019.812 1.356 1.398.336.587.504 1.221.504 1.904zm-3.648-2.235c-1.115 0-1.773.524-1.975 1.571h3.778v-.101c-.039-.403-.236-.749-.592-1.038-.355-.288-.759-.432-1.211-.432z" fill="#fff"/></g></svg>