<svg width="258" height="39" fill="none" xmlns="http://www.w3.org/2000/svg"><path fill-rule="evenodd" clip-rule="evenodd" d="M133.7 35.8V3.1h4.4v32.7h-4.4zm22.6-32.7l11.4 27h.1l11.3-27h6.3v32.7h-4.2V8l-11.9 28H166L154.1 8h-.2v27.8H150V3.1h6.3zm64 0v3.6h-19v10.8h15V21h-15v11.3h19v3.6h-23.2V3.1h23.3zM236.3 19h9c4.6 0 7.2-2.2 7.2-5.6v-1.3c0-3.7-2.1-5.6-7-5.6h-9.2V19zm0 16.8h-4.4V3.1h14.3c7.2 0 10.6 3.3 10.6 8.8v1.6c0 4.4-2.8 7.7-7.8 8.6l9.1 13.7h-4.9l-8.8-13.4h-8.1v13.4zM100.8 19h9c4.7 0 7.2-2.2 7.2-5.6v-1.3c0-3.7-2-5.6-6.9-5.6h-9.3V19zm0 16.8h-4.3V3.1h14.3c7.1 0 10.6 3.3 10.6 8.8v1.6c0 4.4-2.8 7.7-7.8 8.6l9 13.7h-4.8L109 22.4h-8.2v13.4zM66 19.8h8.3c5.1 0 7.1-2.2 7.1-6v-1.4c0-3.6-2-5.9-7-5.9H66v13.3zM74.9 3c7.2 0 10.8 3.5 10.8 9.2v1.8c0 5.9-3.7 9.3-11 9.3H66v12.4h-4.4V3.1H75z" fill="#BBC0C4"/><circle cx="33" cy="28" r="2" fill="#BBC0C4"/><circle cx="33" cy="11" r="2" fill="#BBC0C4"/><circle cx="2" cy="11" r="2" fill="#BBC0C4"/><circle cx="2" cy="28" r="2" fill="#BBC0C4"/><circle cx="18" cy="20" r="2" fill="#BBC0C4"/><circle cx="18" cy="37" r="2" fill="#BBC0C4"/><circle cx="18" cy="2" r="2" fill="#BBC0C4"/></svg>