<svg fill="none" height="43" viewBox="0 0 140 43" width="140" xmlns="http://www.w3.org/2000/svg"><g fill="#bbc0c4"><path d="m46.9667 5.32258 2.5355.02467 2.65 8.24295 3.0476-8.24295h2.4704l3.0004 8.24295 2.7444-8.24295h2.5333l-4.0425 11.61185h-2.4053l-3.0924-8.29898-3.1442 8.29898h-2.4367z"/><path d="m68.4074.224294c.2224-.008844.4442.028385.6515.109345.2073.080959.3955.203896.5529.361071s.2805.34519.3615.5522c.0811.20701.1184.42854.1095.65064-.0159.43288-.1992.84274-.5115 1.14338-.3122.30064-.729.46862-1.1627.46862-.4338 0-.8506-.16798-1.1628-.46862-.3123-.30064-.4956-.7105-.5115-1.14338-.0088-.22191.0284-.44324.1093-.65009.0809-.20686.2038-.394757.3609-.551898.1572-.157142.3452-.280127.5522-.361228.207-.081102.4285-.118566.6507-.11004zm-1.2576 5.122946h2.5153v11.61186h-2.5153z"/><path d="m70.8441 14.5659 2.2324-1.2068c.6737 1.0924 1.6731 1.6711 3.0677 1.6711 1.4418 0 2.1875-.6954 2.1875-1.5096 0-.951-1.3969-1.1596-2.8837-1.4848-1.9763-.3948-4.0694-1.0452-4.0694-3.43849 0-1.83475 1.7675-3.53043 4.5343-3.50576 2.2458 0 3.7662.83438 4.7432 2.24297l-2.0931 1.13719c-.557-.83439-1.4171-1.32336-2.6501-1.32336-1.3722 0-2.0212.62804-2.0212 1.39513 0 .83439.9994 1.02055 2.7668 1.41532 1.9539.4194 4.1638 1.0677 4.1638 3.508 0 1.7405-1.5586 3.739-4.7904 3.7144-2.5153.0089-4.1884-.895-5.1878-2.6153z"/><path d="m81.7679 11.1992c0-3.41385 2.6276-6.08522 6.0457-6.08522s5.9783 2.48521 5.9783 5.92142v.9757h-9.6278c.3257 1.7944 1.7203 2.9742 3.7438 2.9742.708.0182 1.4061-.1697 2.0091-.5409.6029-.3712 1.0847-.9096 1.3865-1.5496l2.046 1.1372c-1.0241 1.9043-2.8612 3.1581-5.4416 3.1581-3.6741 0-6.14-2.6242-6.14-5.9909zm2.513-1.30097h6.9755c-.3728-1.67101-1.6507-2.60184-3.4428-2.60184-.7932-.01372-1.5688.23362-2.2072.70383-.6385.47022-1.1042 1.13719-1.3255 1.89801z"/><path d="m94.405 5.34724h1.9763v-2.74091l2.513-1.37046v4.11137h2.4707v2.22951h-2.4707v4.62055c0 2.0904.3257 2.4157 2.4707 2.4157v2.3461h-.371c-3.5347 0-4.606-1.1215-4.606-4.7372v-4.64515h-1.9763z"/><path d="m102.059 11.1992c0-3.41385 2.627-6.08522 6.045-6.08522s5.983 2.48521 5.983 5.92142v.9757h-9.632c.326 1.7944 1.72 2.9742 3.744 2.9742.707.0184 1.405-.1695 2.008-.5408.603-.3712 1.084-.9097 1.385-1.5497l2.046 1.1372c-1.024 1.9043-2.861 3.1581-5.442 3.1581-3.672 0-6.137-2.6242-6.137-5.9909zm2.51-1.30097h6.978c-.373-1.67101-1.65-2.60184-3.443-2.60184-.793-.01346-1.569.23394-2.208.70408-.638.47014-1.105 1.13696-1.327 1.89776z"/><path d="m115.172 11.152c-.009-.7968.142-1.58741.444-2.32511.302-.73771.748-1.40763 1.314-1.97031.565-.56267 1.237-1.00673 1.976-1.306.74-.29928 1.532-.44773 2.33-.43661 2.58 0 4.626 1.46241 5.511 3.55286l-2.233.95327c-.259-.65332-.712-1.21209-1.298-1.60195-.586-.38987-1.277-.59234-1.98-.58046-2.071 0-3.627 1.64858-3.627 3.71431-.008.4863.081.9692.263 1.4205.181.4514.45.8621.793 1.2081.342.3461.749.6205 1.199.8074.45.1868.932.2822 1.419.2806 1.572 0 2.744-.9756 3.279-2.2766l2.245.9533c-.929 2.1353-2.861 3.6448-5.58 3.6448-.797.0078-1.587-.143-2.325-.4436-.737-.3006-1.407-.7449-1.971-1.307s-1.009-1.2308-1.311-1.9669c-.303-.7362-.455-1.525-.448-2.3206z"/><path d="m128.236 0h2.47v6.80966c.426-.53878.971-.97209 1.593-1.26619.621-.2941 1.302-.44108 1.989-.4295 2.931 0 4.716 1.90429 4.716 5.06243v6.7827h-2.54v-6.5495c0-1.92893-.929-3.14013-2.814-3.14013-1.65 0-2.919 1.25382-2.919 3.29713v6.3925h-2.495z"/><path d="m47.582 31.5272c0-3.7188 2.7713-6.0448 5.8211-6.0448.7391-.0055 1.4701.1546 2.139.4687.6689.314 1.2587.7739 1.726 1.3459v-1.5701h2.4929v11.3449c0 3.4183-2.1425 5.9282-5.8683 5.9282-2.9196 0-4.8869-1.3951-5.7717-3.277l2.3042-1.0923c.5816 1.2785 1.7 2.0904 3.4675 2.0904 2.12 0 3.4001-1.5566 3.4001-3.5551v-1.4646c-.4668.589-1.0616 1.0644-1.7393 1.3904s-1.4207.494-2.1729.4914c-2.9577-.0112-5.7986-2.3686-5.7986-6.056zm9.8254-.0224c0-2.0703-1.5721-3.766-3.6787-3.766-2.0728 0-3.6786 1.6509-3.6786 3.766s1.6058 3.7884 3.6786 3.7884c2.1178 0 3.6787-1.6957 3.6787-3.7884z"/><path d="m61.9529 20.3684h2.5018v16.9703h-2.5018z"/><path d="m66.083 31.5272c.0022-1.1933.3587-2.3592 1.0243-3.3502.6657-.991 1.6106-1.7625 2.7154-2.2172 1.1047-.4546 2.3196-.5718 3.4911-.3368 1.1714.235 2.2468.8116 3.0901 1.657s1.4167 1.9215 1.6476 3.0923c.2309 1.1709.1091 2.3838-.3502 3.4854-.4593 1.1017-1.2354 2.0426-2.2301 2.7037s-2.1634 1.0128-3.3582 1.0106c-.7952.0051-1.5835-.1479-2.3189-.4502-.7353-.3022-1.4031-.7477-1.9643-1.3103-.5613-.5626-1.0048-1.2312-1.3047-1.9668-.2999-.7355-.4502-1.5233-.4421-2.3175zm9.6143 0c0-2.0456-1.5833-3.7188-3.5933-3.7188s-3.5619 1.6732-3.5619 3.7188 1.5586 3.7211 3.5619 3.7211c2.0032 0 3.5933-1.6755 3.5933-3.7211z"/><path d="m82.2438 35.7597v1.5701h-2.4434v-16.9614h2.4703v6.9039c.4691-.568 1.0595-1.0239 1.7279-1.3344.6683-.3105 1.3978-.4676 2.1349-.46 3.0499 0 5.7965 2.326 5.7965 6.056 0 3.7301-2.8163 6.0448-5.7717 6.0448-1.5631-.0067-3.0521-.6796-3.9145-1.819zm7.218-4.2617c0-2.1151-1.608-3.7659-3.6786-3.7659s-3.6539 1.6957-3.6539 3.7659c0 2.0703 1.5586 3.7884 3.6539 3.7884s3.6786-1.6665 3.6786-3.7816z"/><path d="m93.0013 31.5272c0-3.7188 2.7691-6.0448 5.8189-6.0448 1.5358 0 3.0028.6729 3.8648 1.745v-1.5117h2.491v11.6231h-2.491v-1.6038c-.467.579-1.06 1.045-1.733 1.3631s-1.4096.4801-2.1543.4739c-2.9577 0-5.7964-2.3573-5.7964-6.0448zm9.8227-.0224c0-2.0703-1.572-3.766-3.6782-3.766-2.0706 0-3.6764 1.6509-3.6764 3.766s1.6058 3.7884 3.6764 3.7884c2.1182 0 3.6782-1.6957 3.6782-3.7884z"/><path d="m107.35 20.3684h2.49v16.9703h-2.49z"/><path d="m0 30.9829 3 .009v-10.9881l-3-.009zm14 6.0074h2.9918v-9.9973h-2.9918zm19.9836-16.9865v9.9884h3.0164v-9.9884zm-33.9836-3.0335h3v-16.9703h-3zm7 .0253 3 .0016v-16.9972h-3zm7-.0253h2.9918v-16.9703h-2.9918zm6 20.02h3v-16.9955h-3zm7-20.02 3 .0269v-16.9972h-3z"/></g></svg>
