<svg width="695" height="57" fill="none" xmlns="http://www.w3.org/2000/svg"><g clip-path="url(#clip0)"><path fill="#F5F5F5" d="M0 0H695V57H0z"/><path d="M59.31 33V20.115h9.553v2.18h-6.952v2.856h6.469v2.171H61.91v3.507h7.198V33h-9.8zm20.478 0h-2.47v-4.764c0-1.008-.052-1.658-.158-1.95a1.362 1.362 0 0 0-.518-.695 1.45 1.45 0 0 0-.853-.246 1.98 1.98 0 0 0-1.151.351c-.34.235-.575.545-.703.932-.124.387-.185 1.102-.185 2.145V33h-2.47v-9.334h2.294v1.371c.815-1.055 1.84-1.582 3.076-1.582.545 0 1.043.1 1.494.299.452.193.791.442 1.02.747.234.305.396.65.483 1.037.094.387.141.94.141 1.661V33zm2.285.615l2.822.343c.046.328.155.554.325.677.234.175.603.263 1.107.263.645 0 1.128-.096 1.45-.29.217-.128.381-.336.492-.624.077-.205.115-.583.115-1.133v-1.363C87.645 32.496 86.714 33 85.589 33c-1.254 0-2.247-.53-2.98-1.59-.574-.839-.861-1.882-.861-3.13 0-1.564.375-2.76 1.125-3.586.756-.826 1.693-1.239 2.813-1.239 1.154 0 2.106.507 2.856 1.52v-1.309h2.311v8.376c0 1.102-.09 1.925-.272 2.47-.182.545-.437.972-.765 1.283-.328.31-.767.554-1.318.73-.545.175-1.236.263-2.074.263-1.582 0-2.704-.272-3.366-.817-.663-.54-.994-1.225-.994-2.057 0-.082.003-.182.01-.299zm2.206-5.475c0 .99.19 1.716.572 2.18.386.456.86.685 1.423.685.604 0 1.114-.235 1.53-.703.416-.475.624-1.175.624-2.1 0-.968-.2-1.685-.598-2.154a1.9 1.9 0 0 0-1.512-.703c-.591 0-1.08.231-1.467.694-.381.457-.572 1.157-.572 2.1zm9.027-5.74v-2.285h2.47V22.4h-2.47zm0 10.6v-9.334h2.47V33h-2.47zm13.5 0h-2.47v-4.764c0-1.008-.053-1.658-.158-1.95a1.367 1.367 0 0 0-.519-.695c-.234-.164-.518-.246-.852-.246-.428 0-.812.117-1.152.351-.34.235-.574.545-.703.932-.123.387-.184 1.102-.184 2.145V33h-2.47v-9.334h2.294v1.371c.814-1.055 1.84-1.582 3.076-1.582.545 0 1.043.1 1.494.299.451.193.791.442 1.02.747.234.305.395.65.483 1.037.094.387.141.94.141 1.661V33zm7.919-2.97l2.461.412c-.317.903-.818 1.591-1.503 2.066-.68.469-1.533.703-2.558.703-1.623 0-2.824-.53-3.604-1.59-.615-.85-.922-1.923-.922-3.218 0-1.547.404-2.756 1.213-3.63.808-.878 1.831-1.318 3.067-1.318 1.389 0 2.484.46 3.287 1.38.803.914 1.187 2.317 1.151 4.21h-6.187c.017.732.217 1.304.598 1.714.38.404.855.606 1.423.606.387 0 .712-.105.976-.316.264-.211.463-.551.598-1.02zm.14-2.497c-.017-.715-.202-1.257-.553-1.626a1.695 1.695 0 0 0-1.284-.562c-.539 0-.984.196-1.336.589-.351.392-.524.925-.518 1.6h3.691zm9.879 2.496l2.461.413c-.316.903-.817 1.591-1.503 2.066-.68.469-1.532.703-2.557.703-1.624 0-2.825-.53-3.604-1.59-.615-.85-.923-1.923-.923-3.218 0-1.547.404-2.756 1.213-3.63.809-.878 1.831-1.318 3.067-1.318 1.389 0 2.485.46 3.288 1.38.802.914 1.186 2.317 1.151 4.21h-6.188c.018.732.217 1.304.598 1.714.381.404.856.606 1.424.606.387 0 .712-.105.975-.316.264-.211.463-.551.598-1.02zm.141-2.496c-.018-.715-.202-1.257-.554-1.626a1.693 1.693 0 0 0-1.283-.562c-.539 0-.985.196-1.336.589-.352.392-.524.925-.519 1.6h3.692zM131.723 33h-2.47v-9.334h2.294v1.327c.392-.627.744-1.04 1.055-1.24.316-.198.673-.298 1.072-.298.562 0 1.104.155 1.626.466l-.765 2.153c-.416-.27-.803-.404-1.16-.404-.346 0-.639.097-.879.29-.24.188-.431.53-.571 1.028-.135.498-.202 1.541-.202 3.13V33zm4.649-10.6v-2.285h2.47V22.4h-2.47zm0 10.6v-9.334h2.47V33h-2.47zm13.5 0h-2.47v-4.764c0-1.008-.052-1.658-.158-1.95a1.36 1.36 0 0 0-.518-.695 1.452 1.452 0 0 0-.853-.246c-.428 0-.811.117-1.151.351-.34.235-.575.545-.703.932-.123.387-.185 1.102-.185 2.145V33h-2.47v-9.334h2.294v1.371c.815-1.055 1.84-1.582 3.076-1.582.545 0 1.043.1 1.495.299.451.193.791.442 1.019.747.234.305.396.65.483 1.037.094.387.141.94.141 1.661V33zm2.285.615l2.822.343c.046.328.155.554.325.677.234.175.603.263 1.107.263.645 0 1.128-.096 1.45-.29.217-.128.381-.336.493-.624.076-.205.114-.583.114-1.133v-1.363c-.739 1.008-1.67 1.512-2.795 1.512-1.254 0-2.247-.53-2.98-1.59-.574-.839-.861-1.882-.861-3.13 0-1.564.375-2.76 1.125-3.586.756-.826 1.693-1.239 2.813-1.239 1.154 0 2.106.507 2.856 1.52v-1.309h2.312v8.376c0 1.102-.091 1.925-.273 2.47-.182.545-.436.972-.765 1.283-.328.31-.767.554-1.318.73-.545.175-1.236.263-2.074.263-1.582 0-2.704-.272-3.366-.817-.663-.54-.994-1.225-.994-2.057 0-.082.003-.182.009-.299zm2.206-5.475c0 .99.191 1.716.572 2.18.386.456.861.685 1.423.685.604 0 1.114-.235 1.53-.703.416-.475.624-1.175.624-2.1 0-.968-.2-1.685-.598-2.154a1.898 1.898 0 0 0-1.512-.703c-.591 0-1.081.231-1.467.694-.381.457-.572 1.157-.572 2.1z" fill="#242424"/><path d="M180.08 33V22.979h3.78c.666 0 1.174.031 1.525.095.492.082.904.24 1.237.472.333.228.599.55.8.964.205.414.307.87.307 1.367 0 .852-.271 1.575-.813 2.167-.542.588-1.522.882-2.939.882h-2.571V33h-1.326zm1.326-5.257h2.591c.857 0 1.465-.16 1.825-.478.36-.32.54-.768.54-1.347 0-.42-.107-.777-.321-1.073-.21-.301-.488-.5-.834-.595-.223-.06-.636-.089-1.237-.089h-2.564v3.582zm7.397 1.627c0-1.344.373-2.34 1.121-2.987.624-.538 1.385-.807 2.283-.807.998 0 1.814.328 2.447.985.634.651.95 1.554.95 2.707 0 .934-.141 1.67-.423 2.208a2.954 2.954 0 0 1-1.224 1.244 3.543 3.543 0 0 1-1.75.444c-1.016 0-1.839-.326-2.468-.977-.624-.652-.936-1.591-.936-2.817zm1.264 0c0 .93.203 1.627.609 2.092.405.46.916.69 1.531.69.611 0 1.119-.232 1.524-.697.406-.465.609-1.173.609-2.126 0-.898-.205-1.577-.615-2.037a1.933 1.933 0 0 0-1.518-.697c-.615 0-1.126.23-1.531.69-.406.46-.609 1.155-.609 2.085zm6.495 1.463l1.216-.191c.069.487.258.86.568 1.12.314.26.752.39 1.312.39.565 0 .985-.114 1.258-.341.273-.233.41-.504.41-.814a.748.748 0 0 0-.362-.656c-.169-.11-.588-.249-1.258-.417-.902-.228-1.529-.424-1.88-.588a1.874 1.874 0 0 1-.793-.69 1.861 1.861 0 0 1-.266-.978c0-.324.073-.622.218-.895.151-.279.354-.509.609-.691.191-.141.451-.26.779-.355.333-.1.688-.15 1.066-.15.57 0 1.069.081 1.498.245.432.164.751.388.957.67.205.278.346.652.423 1.121l-1.203.164c-.054-.373-.214-.665-.478-.875-.26-.21-.629-.314-1.108-.314-.565 0-.968.093-1.21.28-.241.187-.362.406-.362.656 0 .16.05.303.15.431.101.132.258.242.472.328.123.046.485.15 1.087.315.87.232 1.477.424 1.818.574.347.146.618.36.814.642.196.283.294.634.294 1.053 0 .41-.121.798-.362 1.162-.237.36-.582.64-1.033.841a3.804 3.804 0 0 1-1.531.294c-.943 0-1.663-.196-2.16-.588-.492-.392-.807-.973-.943-1.743zm10.178 1.066l.178 1.087c-.346.073-.656.11-.93.11-.446 0-.793-.07-1.039-.212a1.188 1.188 0 0 1-.519-.554c-.101-.232-.151-.718-.151-1.456v-4.177h-.902v-.957h.902v-1.798l1.224-.738v2.536h1.237v.957h-1.237v4.245c0 .351.02.577.061.677.046.1.117.18.212.24.101.059.242.088.424.088.137 0 .317-.016.54-.048zm.718-1.066l1.217-.191c.068.487.257.86.567 1.12.315.26.752.39 1.313.39.565 0 .984-.114 1.257-.341.274-.233.411-.504.411-.814a.747.747 0 0 0-.363-.656c-.168-.11-.588-.249-1.257-.417-.903-.228-1.529-.424-1.88-.588a1.868 1.868 0 0 1-.793-.69 1.862 1.862 0 0 1-.267-.978c0-.324.073-.622.219-.895.15-.279.353-.509.608-.691.192-.141.451-.26.78-.355.332-.1.688-.15 1.066-.15.57 0 1.069.081 1.497.245.433.164.752.388.957.67.205.278.346.652.424 1.121l-1.203.164c-.055-.373-.214-.665-.479-.875-.26-.21-.629-.314-1.107-.314-.565 0-.969.093-1.21.28-.242.187-.362.406-.362.656 0 .16.05.303.15.431.1.132.257.242.472.328.123.046.485.15 1.087.315.87.232 1.476.424 1.818.574.346.146.617.36.813.642.196.283.294.634.294 1.053 0 .41-.12.798-.362 1.162-.237.36-.581.64-1.032.841a3.808 3.808 0 0 1-1.531.294c-.944 0-1.664-.196-2.161-.588-.492-.392-.806-.973-.943-1.743zM232.148 33V22.979h6.761v1.182h-5.434v3.104h4.703v1.182h-4.703V33h-1.327zm8.34-8.606v-1.415h1.231v1.415h-1.231zm0 8.606v-7.26h1.231V33h-1.231zm3.083 0V22.979h1.231V33h-1.231zm8.115-2.338l1.271.157c-.2.743-.572 1.32-1.114 1.73-.543.41-1.235.615-2.078.615-1.062 0-1.905-.326-2.53-.977-.619-.657-.929-1.575-.929-2.755 0-1.222.314-2.17.943-2.844.629-.675 1.445-1.012 2.447-1.012.971 0 1.764.33 2.379.991s.923 1.59.923 2.79c0 .072-.002.182-.007.328h-5.414c.046.797.271 1.408.677 1.832.406.423.911.635 1.517.635.452 0 .837-.118 1.156-.355.319-.237.572-.615.759-1.135zm-4.04-1.99h4.053c-.054-.61-.209-1.068-.465-1.373-.392-.474-.9-.711-1.524-.711-.565 0-1.041.189-1.429.567-.383.378-.594.884-.635 1.518zm6.371 2.161l1.216-.191c.069.487.258.86.568 1.12.314.26.752.39 1.312.39.565 0 .985-.114 1.258-.341.274-.233.41-.504.41-.814a.748.748 0 0 0-.362-.656c-.169-.11-.588-.249-1.258-.417-.902-.228-1.529-.424-1.88-.588a1.88 1.88 0 0 1-.793-.69 1.87 1.87 0 0 1-.266-.978c0-.324.073-.622.218-.895.151-.279.354-.509.609-.691.191-.141.451-.26.779-.355.333-.1.688-.15 1.067-.15.569 0 1.068.081 1.497.245.433.164.752.388.957.67.205.278.346.652.423 1.121l-1.203.164c-.054-.373-.214-.665-.478-.875-.26-.21-.629-.314-1.108-.314-.565 0-.968.093-1.21.28-.241.187-.362.406-.362.656 0 .16.05.303.151.431.1.132.257.242.471.328.123.046.486.15 1.087.315.871.232 1.477.424 1.818.574.347.146.618.36.814.642.196.283.294.634.294 1.053 0 .41-.121.798-.362 1.162-.237.36-.581.64-1.033.841a3.804 3.804 0 0 1-1.531.294c-.943 0-1.663-.196-2.16-.588-.492-.392-.807-.973-.943-1.743zM276.979 33l3.849-10.021h1.429L286.358 33h-1.51l-1.169-3.035h-4.191l-1.1 3.035h-1.409zm2.892-4.115h3.398l-1.046-2.776a27.449 27.449 0 0 1-.711-2.078c-.128.643-.308 1.28-.54 1.914l-1.101 2.94zM292.019 33v-1.066c-.566.82-1.333 1.23-2.304 1.23-.429 0-.83-.082-1.203-.246-.369-.164-.645-.37-.827-.615a2.378 2.378 0 0 1-.376-.916c-.051-.242-.076-.625-.076-1.149V25.74h1.231v4.027c0 .642.025 1.075.075 1.298.078.324.242.58.492.766.251.182.561.274.93.274s.715-.094 1.039-.28c.324-.192.551-.45.684-.773.136-.328.205-.802.205-1.422v-3.89h1.23V33h-1.1zm7.745 0v-.916c-.461.72-1.137 1.08-2.031 1.08-.578 0-1.112-.16-1.599-.479a3.184 3.184 0 0 1-1.128-1.333c-.264-.574-.397-1.232-.397-1.975 0-.725.121-1.38.363-1.969.241-.592.604-1.046 1.087-1.36a2.905 2.905 0 0 1 1.62-.472 2.4 2.4 0 0 1 1.169.28c.341.183.619.422.834.718v-3.596h1.223V33h-1.141zm-3.89-3.623c0 .93.196 1.625.588 2.085.392.46.854.69 1.388.69.537 0 .993-.218 1.367-.656.378-.442.567-1.114.567-2.016 0-.994-.191-1.723-.574-2.188-.383-.465-.855-.697-1.415-.697-.547 0-1.005.223-1.374.67-.365.446-.547 1.15-.547 2.112zm6.98-4.983v-1.415h1.23v1.415h-1.23zm0 8.606v-7.26h1.23V33h-1.23zm2.652-3.63c0-1.344.374-2.34 1.121-2.987.624-.538 1.385-.807 2.283-.807.998 0 1.814.328 2.447.985.634.651.951 1.554.951 2.707 0 .934-.142 1.67-.424 2.208a2.954 2.954 0 0 1-1.224 1.244 3.54 3.54 0 0 1-1.75.444c-1.016 0-1.839-.326-2.468-.977-.624-.652-.936-1.591-.936-2.817zm1.265 0c0 .93.202 1.627.608 2.092.406.46.916.69 1.531.69a1.94 1.94 0 0 0 1.525-.697c.405-.465.608-1.173.608-2.126 0-.898-.205-1.577-.615-2.037a1.933 1.933 0 0 0-1.518-.697c-.615 0-1.125.23-1.531.69-.406.46-.608 1.155-.608 2.085zm7.088 3.63V22.979h3.76c.766 0 1.379.102 1.839.307.465.2.827.513 1.087.937.264.419.396.859.396 1.319 0 .428-.116.832-.348 1.21-.233.378-.584.684-1.053.916.606.178 1.071.48 1.395.91.328.428.492.933.492 1.517 0 .47-.101.907-.301 1.312-.196.401-.44.711-.731.93-.292.219-.659.385-1.101.499-.438.11-.975.164-1.613.164h-3.822zm1.327-5.81h2.167c.587 0 1.009-.04 1.264-.117.337-.1.59-.266.759-.499.173-.232.26-.524.26-.875 0-.333-.08-.624-.24-.875a1.19 1.19 0 0 0-.683-.52c-.296-.095-.804-.143-1.525-.143h-2.002v3.028zm0 4.627h2.495c.428 0 .729-.016.902-.047.305-.055.561-.146.766-.274.205-.127.373-.312.505-.554.133-.246.199-.528.199-.847 0-.374-.096-.697-.287-.971a1.492 1.492 0 0 0-.8-.581c-.337-.114-.825-.17-1.463-.17h-2.317v3.444zM327.853 33v-1.066c-.566.82-1.333 1.23-2.304 1.23-.429 0-.83-.082-1.203-.246-.369-.164-.645-.37-.827-.615a2.362 2.362 0 0 1-.376-.916c-.051-.242-.076-.625-.076-1.149V25.74h1.231v4.027c0 .642.025 1.075.075 1.298.078.324.242.58.492.766.251.182.561.274.93.274s.715-.094 1.039-.28c.324-.192.551-.45.684-.773.136-.328.205-.802.205-1.422v-3.89h1.23V33h-1.1zm4.169 0h-1.141V22.979h1.23v3.575c.52-.652 1.183-.978 1.99-.978.446 0 .868.091 1.264.274.401.177.729.43.985.758.259.324.462.716.608 1.176.146.46.219.953.219 1.477 0 1.244-.308 2.206-.923 2.884-.615.68-1.354 1.02-2.215 1.02-.857 0-1.529-.359-2.017-1.074V33zm-.013-3.685c0 .87.118 1.5.355 1.887.388.634.912.95 1.573.95.537 0 1.002-.232 1.394-.697.392-.47.588-1.167.588-2.092 0-.948-.189-1.647-.567-2.098-.374-.451-.828-.677-1.361-.677-.538 0-1.002.235-1.394.704-.392.465-.588 1.14-.588 2.023zM339.815 33h-1.141V22.979h1.23v3.575c.52-.652 1.183-.978 1.99-.978.446 0 .868.091 1.264.274.401.177.729.43.985.758.259.324.462.716.608 1.176.146.46.219.953.219 1.477 0 1.244-.308 2.206-.923 2.884-.615.68-1.354 1.02-2.215 1.02-.857 0-1.529-.359-2.017-1.074V33zm-.013-3.685c0 .87.118 1.5.355 1.887.388.634.912.95 1.572.95.538 0 1.003-.232 1.395-.697.392-.47.588-1.167.588-2.092 0-.948-.189-1.647-.567-2.098-.374-.451-.828-.677-1.361-.677-.538 0-1.002.235-1.394.704-.392.465-.588 1.14-.588 2.023zM346.446 33V22.979h1.231V33h-1.231zm8.115-2.338l1.271.157c-.2.743-.572 1.32-1.114 1.73-.543.41-1.235.615-2.078.615-1.062 0-1.905-.326-2.53-.977-.619-.657-.929-1.575-.929-2.755 0-1.222.314-2.17.943-2.844.629-.675 1.445-1.012 2.447-1.012.971 0 1.764.33 2.379.991s.923 1.59.923 2.79c0 .072-.002.182-.007.328h-5.414c.046.797.271 1.408.677 1.832.406.423.911.635 1.517.635.452 0 .837-.118 1.156-.355.319-.237.572-.615.759-1.135zm-4.04-1.99h4.053c-.054-.61-.209-1.068-.465-1.373-.392-.474-.9-.711-1.524-.711-.565 0-1.041.189-1.429.567-.383.378-.594.884-.635 1.518zm18.511 3.255c.615.424 1.183.733 1.702.93l-.389.922c-.72-.26-1.438-.67-2.154-1.23a4.96 4.96 0 0 1-2.461.622c-.906 0-1.729-.219-2.467-.656a4.4 4.4 0 0 1-1.709-1.846c-.397-.793-.595-1.686-.595-2.68 0-.989.201-1.889.602-2.7.401-.811.97-1.429 1.709-1.853.742-.423 1.572-.635 2.488-.635.925 0 1.759.22 2.502.663a4.258 4.258 0 0 1 1.695 1.846c.392.788.588 1.679.588 2.672 0 .825-.125 1.568-.376 2.229a4.672 4.672 0 0 1-1.135 1.716zm-2.919-1.696c.766.215 1.397.534 1.894.957.779-.71 1.169-1.78 1.169-3.206 0-.81-.139-1.52-.417-2.126a3.137 3.137 0 0 0-1.21-1.408 3.25 3.25 0 0 0-1.784-.506c-.989 0-1.81.34-2.461 1.019-.652.674-.978 1.684-.978 3.028 0 1.304.321 2.304.964 3.001.647.698 1.472 1.046 2.475 1.046.474 0 .92-.089 1.339-.267a4.293 4.293 0 0 0-1.312-.574l.321-.964zM376.935 33v-1.066c-.566.82-1.333 1.23-2.304 1.23-.429 0-.83-.082-1.203-.246-.369-.164-.645-.37-.827-.615a2.378 2.378 0 0 1-.376-.916c-.051-.242-.076-.625-.076-1.149V25.74h1.231v4.027c0 .642.025 1.075.075 1.298.078.324.242.58.492.766.251.182.561.274.93.274s.715-.094 1.039-.28c.324-.192.551-.45.684-.773.136-.328.205-.802.205-1.422v-3.89h1.23V33h-1.1zm8.004-2.338l1.272.157c-.201.743-.572 1.32-1.114 1.73-.543.41-1.235.615-2.078.615-1.062 0-1.905-.326-2.53-.977-.62-.657-.929-1.575-.929-2.755 0-1.222.314-2.17.943-2.844.629-.675 1.445-1.012 2.447-1.012.971 0 1.764.33 2.379.991s.923 1.59.923 2.79c0 .072-.002.182-.007.328h-5.414c.046.797.271 1.408.677 1.832.405.423.911.635 1.517.635.452 0 .837-.118 1.156-.355.319-.237.572-.615.758-1.135zm-4.04-1.99h4.054c-.055-.61-.21-1.068-.465-1.373-.392-.474-.9-.711-1.524-.711-.565 0-1.041.189-1.429.567-.383.378-.595.884-.636 1.518zm6.372 2.161l1.216-.191c.069.487.258.86.568 1.12.314.26.752.39 1.312.39.565 0 .985-.114 1.258-.341.273-.233.41-.504.41-.814a.748.748 0 0 0-.362-.656c-.169-.11-.588-.249-1.258-.417-.902-.228-1.529-.424-1.88-.588a1.874 1.874 0 0 1-.793-.69 1.861 1.861 0 0 1-.266-.978c0-.324.073-.622.218-.895.151-.279.354-.509.609-.691.191-.141.451-.26.779-.355.333-.1.688-.15 1.066-.15.57 0 1.069.081 1.498.245.432.164.751.388.957.67.205.278.346.652.423 1.121l-1.203.164c-.054-.373-.214-.665-.478-.875-.26-.21-.629-.314-1.108-.314-.565 0-.968.093-1.21.28-.241.187-.362.406-.362.656 0 .16.05.303.15.431.101.132.258.242.472.328.123.046.485.15 1.087.315.87.232 1.477.424 1.818.574.347.146.618.36.814.642.196.283.294.634.294 1.053 0 .41-.121.798-.362 1.162-.237.36-.582.64-1.033.841a3.804 3.804 0 0 1-1.531.294c-.943 0-1.663-.196-2.16-.588-.492-.392-.807-.973-.943-1.743zm10.178 1.066l.178 1.087c-.346.073-.656.11-.93.11-.446 0-.793-.07-1.039-.212a1.188 1.188 0 0 1-.519-.554c-.101-.232-.151-.718-.151-1.456v-4.177h-.902v-.957h.902v-1.798l1.224-.738v2.536h1.237v.957h-1.237v4.245c0 .351.02.577.061.677.046.1.117.18.212.24.101.059.242.088.424.088.137 0 .317-.016.54-.048zm1.217-7.505v-1.415h1.23v1.415h-1.23zm0 8.606v-7.26h1.23V33h-1.23zm2.652-3.63c0-1.344.374-2.34 1.121-2.987.625-.538 1.386-.807 2.284-.807.998 0 1.813.328 2.447.985.633.651.95 1.554.95 2.707 0 .934-.141 1.67-.424 2.208a2.957 2.957 0 0 1-1.223 1.244 3.546 3.546 0 0 1-1.75.444c-1.017 0-1.839-.326-2.468-.977-.624-.652-.937-1.591-.937-2.817zm1.265 0c0 .93.203 1.627.608 2.092.406.46.916.69 1.532.69a1.94 1.94 0 0 0 1.524-.697c.406-.465.608-1.173.608-2.126 0-.898-.205-1.577-.615-2.037a1.93 1.93 0 0 0-1.517-.697c-.616 0-1.126.23-1.532.69-.405.46-.608 1.155-.608 2.085zm6.986 3.63v-7.26h1.108v1.033c.533-.798 1.303-1.197 2.31-1.197.438 0 .839.08 1.203.24.37.154.645.36.828.615.182.255.309.558.382.909.046.228.069.627.069 1.196V33h-1.231v-4.416c0-.501-.048-.875-.143-1.121a1.163 1.163 0 0 0-.513-.595 1.583 1.583 0 0 0-.854-.225c-.525 0-.978.166-1.361.499-.378.332-.567.963-.567 1.893V33h-1.231zm7.301-2.167l1.217-.191c.068.487.257.86.567 1.12.315.26.752.39 1.313.39.565 0 .984-.114 1.258-.341.273-.233.41-.504.41-.814a.747.747 0 0 0-.363-.656c-.168-.11-.587-.249-1.257-.417-.903-.228-1.529-.424-1.88-.588a1.868 1.868 0 0 1-.793-.69 1.862 1.862 0 0 1-.267-.978c0-.324.073-.622.219-.895.15-.279.353-.509.608-.691.192-.141.452-.26.78-.355.332-.1.688-.15 1.066-.15.57 0 1.069.081 1.497.245.433.164.752.388.957.67.205.278.347.652.424 1.121l-1.203.164c-.055-.373-.214-.665-.479-.875-.259-.21-.629-.314-1.107-.314-.565 0-.969.093-1.21.28-.242.187-.362.406-.362.656 0 .16.05.303.15.431.1.132.258.242.472.328.123.046.485.15 1.087.315.87.232 1.476.424 1.818.574.346.146.618.36.813.642.196.283.294.634.294 1.053 0 .41-.12.798-.362 1.162-.237.36-.581.64-1.032.841a3.808 3.808 0 0 1-1.531.294c-.944 0-1.664-.196-2.161-.588-.492-.392-.806-.973-.943-1.743z" fill="#616161"/><path d="M450.056 33h-2.202l-.875-2.276h-4.005L442.146 33H440l3.903-10.021h2.14L450.056 33zm-3.726-3.965l-1.381-3.719-1.353 3.72h2.734zM455.9 33v-1.087a2.788 2.788 0 0 1-1.046.916 2.898 2.898 0 0 1-1.36.335c-.487 0-.925-.107-1.312-.321a1.893 1.893 0 0 1-.841-.903c-.173-.387-.26-.922-.26-1.606V25.74h1.921v3.336c0 1.021.034 1.648.102 1.88.073.228.203.41.39.547.187.132.424.198.711.198.328 0 .622-.089.882-.266.26-.183.437-.406.533-.67.096-.27.144-.923.144-1.962V25.74h1.921V33H455.9zm10.439 0h-1.784v-1.066a2.91 2.91 0 0 1-1.053.93c-.401.2-.807.3-1.217.3-.834 0-1.549-.335-2.146-1.005-.593-.674-.889-1.613-.889-2.816 0-1.23.289-2.165.868-2.803.579-.642 1.31-.964 2.194-.964.812 0 1.514.337 2.106 1.012v-3.61h1.921V33zm-5.127-3.787c0 .775.107 1.335.321 1.681.31.502.743.753 1.299.753.442 0 .818-.187 1.128-.561.31-.378.465-.941.465-1.688 0-.834-.151-1.434-.451-1.798a1.425 1.425 0 0 0-1.156-.554c-.455 0-.838.182-1.148.547-.305.36-.458.9-.458 1.62zm7.027-4.457v-1.777h1.921v1.777h-1.921zm0 8.244v-7.26h1.921V33h-1.921zm3.452-3.732c0-.638.158-1.256.472-1.853a3.247 3.247 0 0 1 1.333-1.367 3.987 3.987 0 0 1 1.935-.472c1.098 0 1.998.358 2.7 1.073.702.711 1.053 1.611 1.053 2.7 0 1.099-.356 2.01-1.067 2.735-.706.72-1.597 1.08-2.673 1.08-.665 0-1.301-.15-1.907-.451a3.11 3.11 0 0 1-1.374-1.32c-.314-.583-.472-1.291-.472-2.125zm1.969.102c0 .72.171 1.272.513 1.654.342.383.763.575 1.265.575.501 0 .92-.192 1.257-.575.342-.382.513-.938.513-1.668 0-.71-.171-1.257-.513-1.64a1.607 1.607 0 0 0-1.257-.574c-.502 0-.923.191-1.265.574-.342.383-.513.934-.513 1.654zm7.055-6.392h4.006c.793 0 1.383.035 1.77.103.392.064.741.2 1.046.41.31.21.567.49.773.841.205.346.307.736.307 1.169 0 .47-.127.9-.383 1.292-.25.392-.592.686-1.025.882.611.177 1.08.48 1.408.909.328.428.492.932.492 1.51 0 .456-.107.9-.321 1.334-.21.428-.499.772-.868 1.032-.365.255-.816.412-1.354.472-.337.036-1.15.059-2.44.068h-3.411V22.979zm2.023 1.668v2.318h1.326c.789 0 1.279-.011 1.47-.034.347-.041.618-.16.814-.356.2-.2.3-.462.3-.786 0-.31-.086-.56-.259-.752-.169-.196-.422-.314-.759-.355-.201-.023-.777-.035-1.73-.035h-1.162zm0 3.986v2.68h1.873c.729 0 1.192-.021 1.388-.062.301-.055.545-.187.731-.396.192-.215.288-.5.288-.855 0-.3-.073-.556-.219-.766a1.238 1.238 0 0 0-.636-.458c-.273-.095-.87-.143-1.791-.143h-1.634zM495.59 33v-1.087a2.788 2.788 0 0 1-1.046.916 2.901 2.901 0 0 1-1.36.335c-.488 0-.926-.107-1.313-.321a1.898 1.898 0 0 1-.841-.903c-.173-.387-.259-.922-.259-1.606V25.74h1.92v3.336c0 1.021.035 1.648.103 1.88.073.228.203.41.39.547.186.132.423.198.711.198.328 0 .622-.089.881-.266.26-.183.438-.406.534-.67.095-.27.143-.923.143-1.962V25.74h1.921V33h-1.784zm3.698 0V22.979h1.921v3.609c.592-.675 1.294-1.012 2.105-1.012.885 0 1.616.322 2.195.964.579.638.868 1.556.868 2.755 0 1.24-.296 2.194-.889 2.864-.588.67-1.303 1.005-2.146 1.005-.415 0-.825-.102-1.231-.308a2.98 2.98 0 0 1-1.039-.922V33h-1.784zm1.907-3.787c0 .752.119 1.308.356 1.668.332.51.775.765 1.326.765.424 0 .784-.18 1.08-.54.301-.364.451-.936.451-1.715 0-.83-.15-1.427-.451-1.791a1.425 1.425 0 0 0-1.155-.554c-.461 0-.843.18-1.149.54-.305.355-.458.898-.458 1.627zM507.847 33V22.979h1.921v3.609c.592-.675 1.294-1.012 2.105-1.012.884 0 1.616.322 2.194.964.579.638.869 1.556.869 2.755 0 1.24-.297 2.194-.889 2.864-.588.67-1.304 1.005-2.147 1.005-.414 0-.824-.102-1.23-.308a2.98 2.98 0 0 1-1.039-.922V33h-1.784zm1.907-3.787c0 .752.118 1.308.355 1.668.333.51.775.765 1.327.765.423 0 .783-.18 1.08-.54.3-.364.451-.936.451-1.715 0-.83-.151-1.427-.451-1.791a1.425 1.425 0 0 0-1.156-.554c-.46 0-.843.18-1.148.54-.305.355-.458.898-.458 1.627zM516.487 33V22.979h1.921V33h-1.921zm8.101-2.31l1.914.32c-.246.703-.636 1.238-1.169 1.607-.529.365-1.192.547-1.989.547-1.263 0-2.197-.412-2.803-1.237-.479-.661-.718-1.495-.718-2.502 0-1.203.315-2.144.944-2.823.629-.684 1.424-1.026 2.385-1.026 1.08 0 1.933.358 2.557 1.073.624.711.923 1.803.895 3.275h-4.812c.014.57.169 1.014.465 1.333.296.314.665.471 1.107.471.301 0 .554-.082.759-.246.205-.164.36-.428.465-.793zm.109-1.942c-.013-.556-.157-.978-.43-1.265a1.319 1.319 0 0 0-.998-.437c-.42 0-.766.153-1.04.458-.273.305-.407.72-.403 1.244h2.871zm7.41 4.252V22.979h1.969l4.102 6.692v-6.692h1.88V33h-2.031l-4.04-6.535V33h-1.88zm9.639-3.732c0-.638.157-1.256.472-1.853a3.241 3.241 0 0 1 1.333-1.367 3.983 3.983 0 0 1 1.934-.472c1.099 0 1.999.358 2.701 1.073.701.711 1.052 1.611 1.052 2.7 0 1.099-.355 2.01-1.066 2.735-.707.72-1.597 1.08-2.673 1.08-.665 0-1.301-.15-1.907-.451a3.1 3.1 0 0 1-1.374-1.32c-.315-.583-.472-1.291-.472-2.125zm1.969.102c0 .72.171 1.272.513 1.654.341.383.763.575 1.264.575a1.61 1.61 0 0 0 1.258-.575c.342-.382.513-.938.513-1.668 0-.71-.171-1.257-.513-1.64a1.61 1.61 0 0 0-1.258-.574c-.501 0-.923.191-1.264.574-.342.383-.513.934-.513 1.654zm10.363-3.63v1.532h-1.312v2.925c0 .593.011.94.034 1.04a.44.44 0 0 0 .171.239c.091.063.2.095.328.095.178 0 .435-.061.772-.184l.164 1.49a3.814 3.814 0 0 1-1.517.287 2.45 2.45 0 0 1-.937-.17c-.278-.12-.483-.27-.615-.452-.128-.187-.216-.438-.267-.752-.041-.223-.061-.674-.061-1.354v-3.165h-.882v-1.53h.882v-1.443l1.928-1.121v2.563h1.312zm1.333-.984v-1.777h1.921v1.777h-1.921zm0 8.244v-7.26h1.921V33h-1.921zm3.056-7.26h1.066v-.547c0-.61.064-1.066.192-1.367.132-.3.371-.544.717-.731.351-.192.793-.287 1.327-.287.546 0 1.082.082 1.606.246l-.26 1.34a3.786 3.786 0 0 0-.882-.11c-.278 0-.478.066-.601.198-.119.128-.178.376-.178.745v.513h1.436v1.511h-1.436V33h-1.921v-5.749h-1.066v-1.51zm5.503-.984v-1.777h1.921v1.777h-1.921zm0 8.244v-7.26h1.921V33h-1.921zm10.226-5.113l-1.893.341c-.064-.378-.21-.663-.438-.854-.223-.191-.515-.287-.875-.287-.478 0-.861.166-1.148.499-.283.328-.424.88-.424 1.654 0 .862.144 1.47.431 1.825.291.356.681.534 1.169.534.364 0 .663-.103.895-.308.233-.21.397-.567.492-1.073l1.887.321c-.196.866-.572 1.52-1.128 1.962-.556.442-1.301.663-2.235.663-1.062 0-1.91-.335-2.543-1.005-.629-.67-.944-1.597-.944-2.782 0-1.199.317-2.13.951-2.796.633-.67 1.49-1.005 2.57-1.005.884 0 1.586.192 2.105.574.524.379.9.957 1.128 1.737zm2.899.068l-1.743-.314c.196-.702.533-1.222 1.011-1.559.479-.337 1.19-.506 2.133-.506.857 0 1.495.103 1.914.308.419.2.713.458.882.772.173.31.26.882.26 1.716l-.021 2.242c0 .638.03 1.11.089 1.415.064.301.18.625.349.971h-1.901a7.192 7.192 0 0 1-.184-.567 3.204 3.204 0 0 0-.069-.226 3.467 3.467 0 0 1-1.052.718 3.02 3.02 0 0 1-1.197.24c-.747 0-1.337-.204-1.77-.61-.428-.405-.643-.918-.643-1.537 0-.41.098-.775.294-1.094.196-.324.47-.57.821-.738.355-.174.865-.324 1.531-.452.898-.168 1.52-.326 1.866-.471v-.192c0-.369-.091-.63-.273-.786-.183-.16-.527-.24-1.033-.24-.341 0-.608.07-.799.206-.192.132-.347.367-.465.704zm2.57 1.559c-.246.082-.636.18-1.169.294-.533.114-.882.225-1.046.335-.25.177-.376.403-.376.676 0 .27.1.502.301.698.201.196.456.294.766.294.346 0 .676-.114.991-.342.232-.173.385-.385.458-.636.05-.164.075-.476.075-.936v-.383zm7.116-3.774v1.532h-1.312v2.925c0 .593.011.94.034 1.04a.44.44 0 0 0 .171.239c.091.063.2.095.328.095.178 0 .435-.061.772-.184l.164 1.49a3.814 3.814 0 0 1-1.517.287c-.346 0-.659-.057-.937-.17-.278-.12-.483-.27-.615-.452-.127-.187-.216-.438-.266-.752-.041-.223-.062-.674-.062-1.354v-3.165h-.882v-1.53h.882v-1.443l1.928-1.121v2.563h1.312zm1.333-.984v-1.777h1.921v1.777h-1.921zm0 8.244v-7.26h1.921V33h-1.921zm3.452-3.732c0-.638.158-1.256.472-1.853a3.247 3.247 0 0 1 1.333-1.367 3.987 3.987 0 0 1 1.935-.472c1.098 0 1.998.358 2.7 1.073.702.711 1.053 1.611 1.053 2.7 0 1.099-.356 2.01-1.067 2.735-.706.72-1.597 1.08-2.673 1.08-.665 0-1.301-.15-1.907-.451a3.11 3.11 0 0 1-1.374-1.32c-.314-.583-.472-1.291-.472-2.125zm1.969.102c0 .72.171 1.272.513 1.654.342.383.763.575 1.264.575.502 0 .921-.192 1.258-.575.342-.382.513-.938.513-1.668 0-.71-.171-1.257-.513-1.64a1.608 1.608 0 0 0-1.258-.574c-.501 0-.922.191-1.264.574-.342.383-.513.934-.513 1.654zM607.173 33h-1.921v-3.705c0-.784-.041-1.29-.123-1.518a1.063 1.063 0 0 0-.403-.54 1.131 1.131 0 0 0-.664-.191 1.54 1.54 0 0 0-.895.273 1.397 1.397 0 0 0-.547.725c-.096.3-.143.857-.143 1.668V33h-1.921v-7.26h1.784v1.067c.633-.82 1.431-1.23 2.392-1.23.424 0 .812.077 1.163.232.35.15.615.344.793.58.182.238.307.506.375.807.073.301.11.732.11 1.292V33zm1.278-2.071l1.928-.294c.082.373.248.658.499.854.251.192.601.287 1.053.287.496 0 .87-.09 1.121-.273a.612.612 0 0 0 .253-.513.505.505 0 0 0-.137-.362c-.096-.091-.31-.175-.643-.253-1.549-.342-2.531-.654-2.946-.936-.574-.392-.861-.937-.861-1.634 0-.63.248-1.158.745-1.586.497-.429 1.267-.643 2.31-.643.994 0 1.732.162 2.215.485.483.324.816.803.998 1.436l-1.811.335a1.117 1.117 0 0 0-.445-.65c-.214-.15-.521-.225-.922-.225-.506 0-.869.07-1.087.212a.455.455 0 0 0-.219.39c0 .136.064.252.191.348.174.128.771.308 1.791.54 1.026.233 1.741.518 2.147.855.401.342.601.818.601 1.428 0 .666-.278 1.238-.834 1.716-.556.479-1.378.718-2.467.718-.989 0-1.773-.2-2.352-.602a2.778 2.778 0 0 1-1.128-1.633z" fill="#242424"/><path d="M623.146 26.646a.501.501 0 0 1 .708 0L628 30.793l4.146-4.147a.501.501 0 0 1 .708.708l-4.5 4.5a.501.501 0 0 1-.708 0l-4.5-4.5a.5.5 0 0 1 0-.708z" fill="#616161"/><path d="M440 57a2 2 0 0 1 2-2h192a2 2 0 0 1 2 2H440z" fill="#6264A7"/><path d="M659.5 34.5a.5.5 0 0 0 1 0v-6h6a.5.5 0 0 0 0-1h-6v-6a.5.5 0 0 0-1 0v6h-6a.5.5 0 0 0 0 1h6v6z" fill="#616161"/><rect x="15" y="12" width="32" height="32" rx="3" fill="#F2720C"/><circle cx="26" cy="24" r="5" fill="#fff"/><circle cx="30.5" cy="32.5" r="1.5" fill="#fff"/><circle cx="37.5" cy="28.5" r="3.5" fill="#fff"/></g><defs><clipPath id="clip0"><path fill="#fff" d="M0 0H695V57H0z"/></clipPath></defs></svg>