<svg fill="none" height="128" width="192" xmlns="http://www.w3.org/2000/svg"><path d="m0 0h192v128h-192z" fill="#f5f5f5"/><path d="m17.025 20v-10.021h3.76c.766 0 1.379.102 1.839.307.465.2.827.513 1.087.937.264.419.396.859.396 1.319 0 .428-.116.832-.348 1.21-.233.378-.584.683-1.053.916.606.178 1.071.48 1.395.91.328.428.492.933.492 1.517 0 .47-.1.907-.301 1.312-.196.401-.44.711-.732.93-.291.219-.658.385-1.1.499-.438.11-.975.164-1.613.164zm1.327-5.81h2.167c.587 0 1.009-.04 1.264-.117.337-.1.59-.266.759-.499.173-.232.26-.524.26-.875 0-.332-.08-.624-.24-.875a1.192 1.192 0 0 0 -.683-.52c-.296-.095-.805-.143-1.524-.143h-2.003zm0 4.627h2.495c.428 0 .729-.016.902-.047.305-.055.56-.146.766-.274.205-.127.373-.312.505-.554.133-.246.199-.528.199-.847a1.65 1.65 0 0 0 -.287-.971 1.49 1.49 0 0 0 -.8-.581c-.337-.114-.825-.17-1.463-.17h-2.317zm7.45-2.447c0-1.344.374-2.34 1.122-2.987.624-.538 1.385-.807 2.283-.807.998 0 1.814.328 2.447.984.634.652.95 1.555.95 2.708 0 .934-.14 1.67-.423 2.208a2.954 2.954 0 0 1 -1.224 1.244 3.542 3.542 0 0 1 -1.75.444c-1.016 0-1.839-.326-2.468-.978-.624-.651-.936-1.59-.936-2.816zm1.265 0c0 .93.203 1.627.609 2.092.405.46.916.69 1.531.69.61 0 1.119-.232 1.524-.697.406-.465.609-1.173.609-2.126 0-.898-.205-1.577-.615-2.037a1.932 1.932 0 0 0 -1.518-.697c-.615 0-1.126.23-1.531.69-.406.46-.609 1.155-.609 2.085zm6.529 0c0-1.344.373-2.34 1.12-2.987.625-.538 1.386-.807 2.284-.807.998 0 1.814.328 2.447.984.634.652.95 1.555.95 2.708 0 .934-.14 1.67-.423 2.208a2.954 2.954 0 0 1 -1.224 1.244 3.542 3.542 0 0 1 -1.75.444c-1.016 0-1.839-.326-2.468-.978-.624-.651-.936-1.59-.936-2.816zm1.264 0c0 .93.203 1.627.609 2.092.405.46.916.69 1.531.69.61 0 1.119-.232 1.524-.697.406-.465.609-1.173.609-2.126 0-.898-.205-1.577-.615-2.037a1.932 1.932 0 0 0 -1.518-.697c-.615 0-1.126.23-1.531.69-.406.46-.609 1.155-.609 2.085zm6.993 3.63v-10.021h1.231v5.714l2.912-2.953h1.593l-2.776 2.694 3.057 4.566h-1.517l-2.4-3.712-.868.834v2.878h-1.23zm6.994 0v-7.26h1.1v1.019c.228-.356.531-.64.91-.855a2.533 2.533 0 0 1 1.291-.328c.538 0 .978.112 1.32.335.346.223.59.536.731.937.574-.848 1.322-1.272 2.242-1.272.72 0 1.274.2 1.661.602.388.396.582 1.01.582 1.839v4.983h-1.224v-4.573c0-.492-.041-.846-.123-1.06a1.01 1.01 0 0 0 -.43-.526 1.355 1.355 0 0 0 -.739-.198c-.51 0-.934.17-1.271.512-.338.338-.506.88-.506 1.627v4.218h-1.23v-4.717c0-.547-.101-.957-.302-1.23-.2-.274-.528-.41-.984-.41-.346 0-.668.09-.964.273a1.557 1.557 0 0 0 -.636.8c-.132.35-.198.857-.198 1.517v3.767zm16.4-.895c-.457.387-.896.66-1.32.82-.42.16-.87.24-1.354.24-.797 0-1.41-.195-1.839-.582-.428-.392-.642-.89-.642-1.497 0-.355.08-.68.24-.97.163-.297.375-.534.635-.712.264-.177.56-.312.889-.403a8.8 8.8 0 0 1 1.093-.185c.994-.118 1.725-.26 2.195-.423l.006-.322c0-.501-.116-.854-.348-1.06-.315-.277-.782-.416-1.402-.416-.578 0-1.007.102-1.285.307-.273.2-.476.559-.608 1.074l-1.203-.165c.11-.514.29-.93.54-1.244.25-.319.613-.562 1.087-.731.474-.173 1.023-.26 1.647-.26.62 0 1.123.073 1.51.219.388.146.673.33.855.554.183.218.31.496.383.834.041.21.062.588.062 1.134v1.641c0 1.144.025 1.869.075 2.174.055.3.16.59.314.868h-1.285a2.61 2.61 0 0 1 -.246-.895zm-.103-2.749c-.447.183-1.117.338-2.01.465-.506.073-.864.155-1.074.246a1.062 1.062 0 0 0 -.656.985c0 .328.123.601.37.82.25.219.615.328 1.093.328a2.56 2.56 0 0 0 1.265-.307c.369-.21.64-.495.813-.855.133-.278.199-.688.199-1.23zm3.144 3.644v-7.26h1.108v1.1c.282-.514.542-.854.779-1.018.241-.164.506-.246.793-.246.414 0 .836.132 1.264.397l-.423 1.141a1.76 1.76 0 0 0 -.903-.266c-.269 0-.51.082-.724.246-.215.16-.367.383-.458.67a4.793 4.793 0 0 0 -.205 1.435v3.801h-1.23zm4.683 0v-10.021h1.23v5.714l2.912-2.953h1.593l-2.775 2.694 3.055 4.566h-1.516l-2.4-3.712-.868.834v2.878h-1.23zm6.5-2.167 1.218-.191c.068.487.257.86.567 1.12.314.26.752.39 1.312.39.566 0 .985-.114 1.258-.341.274-.233.41-.504.41-.814a.747.747 0 0 0 -.362-.656c-.169-.11-.588-.249-1.258-.417-.902-.228-1.529-.424-1.88-.588a1.873 1.873 0 0 1 -.793-.69 1.864 1.864 0 0 1 -.266-.978c0-.324.073-.622.218-.895.15-.278.354-.509.609-.691.191-.141.451-.26.78-.355.332-.1.687-.15 1.066-.15.57 0 1.068.081 1.497.245.433.164.752.388.957.67.205.278.346.652.424 1.121l-1.204.164c-.054-.373-.214-.665-.478-.875-.26-.21-.629-.314-1.108-.314-.565 0-.968.093-1.21.28-.241.187-.362.406-.362.656 0 .16.05.304.15.431.1.132.258.242.472.328.123.046.486.15 1.087.315.87.232 1.477.423 1.819.574.346.146.617.36.813.642.196.283.294.634.294 1.053 0 .41-.12.798-.362 1.162-.237.36-.581.64-1.033.841a3.807 3.807 0 0 1 -1.53.294c-.944 0-1.664-.196-2.161-.588-.492-.392-.807-.973-.943-1.743zm-62.322 34.167v-10.022h6.761v1.183h-5.434v3.104h4.703v1.182h-4.703v4.553zm7.875-3.63c0-1.344.374-2.34 1.122-2.987.624-.538 1.385-.807 2.283-.807.998 0 1.813.328 2.447.984.634.652.95 1.555.95 2.708 0 .934-.141 1.67-.424 2.208a2.954 2.954 0 0 1 -1.223 1.244 3.542 3.542 0 0 1 -1.75.444c-1.017 0-1.84-.326-2.468-.977-.624-.652-.937-1.591-.937-2.817zm1.265 0c0 .93.203 1.627.608 2.092.406.46.916.69 1.532.69.61 0 1.119-.232 1.524-.697.406-.465.608-1.173.608-2.126 0-.898-.204-1.577-.615-2.037a1.932 1.932 0 0 0 -1.517-.697c-.616 0-1.126.23-1.532.69-.405.46-.608 1.155-.608 2.085zm6.96 3.63v-10.022h1.23v10.022zm3.116 0v-10.022h1.23v10.022zm2.687-3.63c0-1.344.373-2.34 1.12-2.987.625-.538 1.386-.807 2.284-.807.998 0 1.814.328 2.447.984.634.652.95 1.555.95 2.708 0 .934-.14 1.67-.423 2.208a2.955 2.955 0 0 1 -1.224 1.244 3.543 3.543 0 0 1 -1.75.444c-1.016 0-1.839-.326-2.468-.977-.624-.652-.936-1.591-.936-2.817zm1.264 0c0 .93.203 1.627.609 2.092.405.46.916.69 1.531.69.61 0 1.119-.232 1.525-.697.405-.465.608-1.173.608-2.126 0-.898-.205-1.577-.615-2.037a1.932 1.932 0 0 0 -1.518-.697c-.615 0-1.126.23-1.531.69-.406.46-.609 1.155-.609 2.085zm8.326 3.63-2.222-7.26h1.271l1.156 4.19.43 1.56.376-1.498 1.156-4.252h1.264l1.087 4.211.363 1.388.416-1.401 1.245-4.198h1.196l-2.27 7.26h-1.278l-1.155-4.348-.28-1.237-1.47 5.585zm13.747-2.338 1.271.157c-.2.743-.572 1.32-1.114 1.73s-1.235.615-2.078.615c-1.062 0-1.905-.326-2.53-.977-.62-.657-.93-1.575-.93-2.755 0-1.222.315-2.17.944-2.844.63-.675 1.445-1.012 2.447-1.012.971 0 1.764.33 2.38.991.615.661.922 1.59.922 2.79 0 .072-.002.182-.007.328h-5.414c.046.797.271 1.408.677 1.832.406.423.911.635 1.518.635.45 0 .836-.118 1.155-.355s.572-.615.759-1.135zm-4.04-1.99h4.053c-.054-.61-.21-1.068-.465-1.373-.391-.474-.9-.711-1.524-.711-.565 0-1.041.189-1.429.567-.382.378-.594.884-.635 1.518zm11.573 4.328v-.916c-.46.72-1.137 1.08-2.03 1.08-.58 0-1.112-.16-1.6-.479a3.182 3.182 0 0 1 -1.128-1.333c-.264-.574-.396-1.232-.396-1.975 0-.725.12-1.38.362-1.969.241-.592.604-1.046 1.087-1.36a2.906 2.906 0 0 1 1.62-.472c.437 0 .827.094 1.169.28.342.183.62.422.834.718v-3.596h1.224v10.022zm-3.89-3.623c0 .93.196 1.625.588 2.085s.855.69 1.388.69c.538 0 .993-.218 1.367-.656.378-.442.567-1.114.567-2.017 0-.993-.191-1.722-.574-2.187s-.854-.697-1.415-.697c-.547 0-1.005.223-1.374.67-.364.446-.547 1.15-.547 2.112zm15.497 6.405v-3.554c-.191.268-.46.492-.806.67a2.337 2.337 0 0 1 -1.094.266c-.861 0-1.604-.344-2.229-1.032-.62-.688-.93-1.632-.93-2.83 0-.73.126-1.383.377-1.962.255-.579.622-1.016 1.1-1.313a2.943 2.943 0 0 1 1.586-.45c.898 0 1.604.377 2.12 1.134v-.97h1.107v10.041h-1.23zm-3.794-6.432c0 .934.196 1.636.588 2.105.392.465.862.697 1.408.697.525 0 .976-.22 1.354-.663.378-.446.567-1.123.567-2.03 0-.966-.2-1.693-.601-2.18-.397-.488-.864-.732-1.402-.732-.533 0-.986.228-1.36.684-.37.45-.554 1.157-.554 2.119zm11.717 3.65v-1.066c-.565.82-1.333 1.23-2.304 1.23a2.96 2.96 0 0 1 -1.203-.246c-.369-.164-.644-.37-.827-.615a2.38 2.38 0 0 1 -.376-.916c-.05-.242-.075-.625-.075-1.149v-4.498h1.23v4.027c0 .642.025 1.075.076 1.298.077.324.241.58.492.766.25.182.56.273.93.273.369 0 .715-.093 1.039-.28.323-.191.551-.449.683-.772.137-.328.205-.802.205-1.422v-3.89h1.23v7.26zm8.005-2.338 1.272.157c-.201.743-.572 1.32-1.115 1.73-.542.41-1.235.615-2.078.615-1.062 0-1.905-.326-2.53-.977-.619-.657-.929-1.575-.929-2.755 0-1.222.315-2.17.944-2.844.628-.675 1.444-1.012 2.447-1.012.97 0 1.763.33 2.379.991.615.661.922 1.59.922 2.79 0 .072-.002.182-.006.328h-5.414c.045.797.27 1.408.676 1.832.406.423.912.635 1.518.635.451 0 .836-.118 1.155-.355.32-.237.572-.615.759-1.135zm-4.04-1.99h4.054c-.055-.61-.21-1.068-.465-1.373-.392-.474-.9-.711-1.525-.711-.565 0-1.04.189-1.428.567-.383.378-.595.884-.636 1.518zm6.371 2.161 1.217-.191c.068.487.257.86.567 1.12.315.26.752.39 1.313.39.565 0 .984-.114 1.258-.342.273-.232.41-.503.41-.813a.747.747 0 0 0 -.363-.656c-.168-.11-.587-.249-1.257-.417-.903-.228-1.529-.424-1.88-.588a1.868 1.868 0 0 1 -.793-.69 1.862 1.862 0 0 1 -.267-.978c0-.324.073-.622.219-.895.15-.279.353-.509.608-.691.192-.141.451-.26.78-.355.332-.1.688-.15 1.066-.15.57 0 1.069.081 1.497.245.433.164.752.388.957.67.205.278.346.652.424 1.121l-1.203.164c-.055-.373-.214-.665-.479-.875-.259-.21-.629-.314-1.107-.314-.565 0-.969.093-1.21.28-.242.187-.362.406-.362.656 0 .16.05.303.15.431.1.132.257.242.472.328.123.046.485.15 1.087.315.87.232 1.476.424 1.818.574.346.146.617.36.813.643.196.282.294.633.294 1.052 0 .41-.12.798-.362 1.162-.237.36-.581.64-1.032.841a3.808 3.808 0 0 1 -1.531.294c-.944 0-1.664-.196-2.161-.588-.492-.392-.806-.973-.943-1.743zm10.179 1.066.178 1.087c-.347.073-.657.11-.93.11-.447 0-.793-.07-1.039-.212a1.196 1.196 0 0 1 -.52-.554c-.1-.232-.15-.718-.15-1.456v-4.177h-.902v-.957h.902v-1.798l1.223-.738v2.536h1.238v.957h-1.238v4.245c0 .351.021.577.062.677.046.1.116.18.212.24.1.059.241.088.424.088.136 0 .316-.016.54-.048zm1.217-7.505v-1.416h1.23v1.416zm0 8.606v-7.26h1.23v7.26zm2.652-3.63c0-1.344.374-2.34 1.121-2.987.624-.538 1.385-.807 2.283-.807.998 0 1.814.328 2.448.984.633.652.95 1.555.95 2.708 0 .934-.142 1.67-.424 2.208a2.954 2.954 0 0 1 -1.224 1.244 3.54 3.54 0 0 1 -1.75.444c-1.016 0-1.839-.326-2.468-.977-.624-.652-.936-1.591-.936-2.817zm1.265 0c0 .93.202 1.627.608 2.092.406.46.916.69 1.531.69a1.94 1.94 0 0 0 1.525-.697c.405-.465.608-1.173.608-2.126 0-.898-.205-1.577-.615-2.037a1.933 1.933 0 0 0 -1.518-.697c-.615 0-1.125.23-1.531.69s-.608 1.155-.608 2.085zm6.986 3.63v-7.26h1.107v1.032c.534-.797 1.304-1.196 2.311-1.196.437 0 .838.08 1.203.24.369.154.645.36.827.615s.31.558.383.909c.046.228.068.627.068 1.196v4.464h-1.23v-4.416c0-.501-.048-.875-.144-1.121a1.156 1.156 0 0 0 -.512-.595 1.587 1.587 0 0 0 -.855-.225c-.524 0-.977.166-1.36.499-.378.332-.568.963-.568 1.893v3.965zm7.301-2.167 1.216-.191c.069.487.258.86.568 1.12.314.26.752.39 1.312.39.565 0 .985-.114 1.258-.342.274-.232.41-.503.41-.813a.746.746 0 0 0 -.362-.656c-.169-.11-.588-.249-1.258-.417-.902-.228-1.529-.424-1.88-.588a1.88 1.88 0 0 1 -.793-.69 1.87 1.87 0 0 1 -.266-.978c0-.324.073-.622.219-.895.15-.279.353-.509.608-.691.191-.141.451-.26.779-.355.333-.1.688-.15 1.067-.15.569 0 1.068.081 1.497.245.433.164.752.388.957.67.205.278.346.652.424 1.121l-1.204.164c-.054-.373-.214-.665-.478-.875-.26-.21-.629-.314-1.108-.314-.565 0-.968.093-1.209.28-.242.187-.363.406-.363.656 0 .16.05.303.151.431.1.132.257.242.471.328.123.046.486.15 1.087.315.871.232 1.477.424 1.819.574.346.146.617.36.813.643.196.282.294.633.294 1.052 0 .41-.121.798-.362 1.162-.237.36-.581.64-1.033.841a3.804 3.804 0 0 1 -1.531.294c-.943 0-1.663-.196-2.16-.588-.492-.392-.807-.973-.943-1.743zm-109.485 34.167v-4.245l-3.862-5.776h1.613l1.976 3.021c.364.565.704 1.13 1.018 1.695.301-.524.666-1.114 1.094-1.77l1.942-2.947h1.544l-3.998 5.777v4.245zm4.615-3.63c0-1.344.373-2.34 1.12-2.987.625-.538 1.386-.807 2.284-.807.998 0 1.814.328 2.447.985.634.651.95 1.554.95 2.707 0 .934-.14 1.67-.424 2.208a2.955 2.955 0 0 1 -1.223 1.244 3.543 3.543 0 0 1 -1.75.444c-1.016 0-1.839-.326-2.468-.978-.624-.651-.936-1.59-.936-2.816zm1.264 0c0 .93.203 1.627.609 2.092.405.46.916.69 1.53.69.612 0 1.12-.232 1.525-.697.406-.465.609-1.173.609-2.126 0-.898-.205-1.577-.616-2.037a1.932 1.932 0 0 0 -1.517-.697c-.615 0-1.126.23-1.531.69-.406.46-.609 1.155-.609 2.085zm11.744 3.63v-1.066c-.565.82-1.333 1.23-2.303 1.23a2.96 2.96 0 0 1 -1.203-.246c-.37-.164-.645-.37-.828-.615a2.38 2.38 0 0 1 -.376-.916c-.05-.242-.075-.625-.075-1.149v-4.498h1.23v4.027c0 .642.026 1.075.076 1.298.077.324.241.58.492.766.25.182.56.273.93.273.369 0 .715-.093 1.039-.28.323-.191.551-.449.683-.772.137-.328.206-.802.206-1.422v-3.89h1.23v7.26h-1.1zm3.022 0v-7.26h1.107v1.1c.283-.514.543-.854.78-1.018.241-.164.505-.246.792-.246.415 0 .837.132 1.265.397l-.424 1.141a1.76 1.76 0 0 0 -.902-.266c-.269 0-.51.082-.725.246-.214.16-.367.383-.458.67a4.793 4.793 0 0 0 -.205 1.435v3.801zm13.2 2.782v-3.554c-.191.268-.46.492-.807.67a2.337 2.337 0 0 1 -1.093.266c-.862 0-1.605-.344-2.229-1.032-.62-.688-.93-1.632-.93-2.83 0-.73.126-1.383.376-1.962.256-.579.623-1.016 1.101-1.313a2.944 2.944 0 0 1 1.586-.45c.898 0 1.604.377 2.12 1.134v-.97h1.106v10.041zm-3.794-6.432c0 .934.196 1.636.588 2.105.392.465.861.697 1.408.697.524 0 .975-.22 1.354-.663.378-.446.567-1.123.567-2.03 0-.966-.2-1.693-.602-2.18-.396-.488-.863-.732-1.4-.732-.534 0-.987.228-1.361.684-.37.45-.554 1.157-.554 2.119zm11.717 3.65v-1.066c-.565.82-1.333 1.23-2.304 1.23a2.96 2.96 0 0 1 -1.203-.246c-.37-.164-.645-.37-.827-.615a2.382 2.382 0 0 1 -.376-.916c-.05-.242-.075-.625-.075-1.149v-4.498h1.23v4.027c0 .642.025 1.075.075 1.298.078.324.242.58.493.766.25.182.56.273.93.273.368 0 .715-.093 1.038-.28.324-.191.552-.449.684-.772.137-.328.205-.802.205-1.422v-3.89h1.23v7.26zm8.005-2.338 1.271.157c-.2.743-.572 1.32-1.114 1.73s-1.235.615-2.078.615c-1.062 0-1.905-.326-2.53-.978-.62-.656-.93-1.574-.93-2.754 0-1.222.315-2.17.944-2.844.63-.675 1.445-1.012 2.447-1.012.971 0 1.764.33 2.38.991.615.661.922 1.59.922 2.79 0 .072-.002.182-.007.328h-5.414c.046.797.272 1.408.677 1.832.406.423.912.635 1.518.635.45 0 .836-.118 1.155-.355s.572-.615.759-1.135zm-4.04-1.99h4.053c-.054-.61-.21-1.068-.464-1.373-.392-.474-.9-.711-1.525-.711-.565 0-1.041.189-1.428.567-.383.379-.595.884-.636 1.518zm6.37 2.161 1.218-.191c.068.487.257.86.567 1.12.315.26.752.39 1.313.39.565 0 .984-.114 1.257-.341.274-.233.41-.504.41-.814a.747.747 0 0 0 -.362-.656c-.168-.11-.588-.249-1.258-.417-.902-.228-1.529-.424-1.88-.588a1.873 1.873 0 0 1 -.793-.69 1.865 1.865 0 0 1 -.266-.978c0-.324.073-.622.219-.896.15-.278.353-.508.608-.69.192-.141.451-.26.78-.355.332-.1.688-.15 1.066-.15.57 0 1.069.081 1.497.245.433.164.752.388.957.67.205.278.346.652.424 1.121l-1.203.164c-.055-.373-.215-.665-.479-.875-.26-.21-.629-.314-1.107-.314-.566 0-.969.093-1.21.28-.242.187-.363.406-.363.656 0 .16.05.303.15.431.101.132.258.242.472.328.124.046.486.15 1.087.315.87.232 1.477.424 1.819.574.346.146.617.36.813.642.196.283.294.634.294 1.053 0 .41-.12.798-.362 1.162-.237.36-.581.64-1.032.841a3.807 3.807 0 0 1 -1.532.294c-.943 0-1.663-.196-2.16-.588-.492-.392-.806-.973-.943-1.743zm10.18 1.066.177 1.087c-.346.073-.656.11-.93.11-.446 0-.792-.07-1.039-.212a1.19 1.19 0 0 1 -.519-.554c-.1-.232-.15-.718-.15-1.456v-4.177h-.903v-.957h.903v-1.798l1.223-.738v2.536h1.238v.957h-1.238v4.245c0 .351.02.577.062.677.045.1.116.18.212.24.1.059.241.088.424.088.136 0 .316-.016.54-.048zm1.216-7.505v-1.416h1.23v1.416zm0 8.606v-7.26h1.23v7.26zm2.653-3.63c0-1.344.373-2.34 1.12-2.987.625-.538 1.386-.807 2.284-.807.998 0 1.814.328 2.447.985.634.651.95 1.554.95 2.707 0 .934-.14 1.67-.423 2.208a2.955 2.955 0 0 1 -1.224 1.244 3.543 3.543 0 0 1 -1.75.444c-1.016 0-1.839-.326-2.468-.978-.624-.651-.936-1.59-.936-2.816zm1.264 0c0 .93.203 1.627.609 2.092.405.46.916.69 1.531.69.61 0 1.119-.232 1.524-.697.406-.465.609-1.173.609-2.126 0-.898-.205-1.577-.615-2.037a1.932 1.932 0 0 0 -1.518-.697c-.615 0-1.126.23-1.531.69-.406.46-.609 1.155-.609 2.085zm6.987 3.63v-7.26h1.107v1.032c.533-.797 1.303-1.196 2.31-1.196.438 0 .84.08 1.204.24.369.154.645.36.827.615s.31.558.383.909c.045.228.068.626.068 1.196v4.464h-1.23v-4.416c0-.501-.048-.875-.144-1.121a1.16 1.16 0 0 0 -.513-.595 1.584 1.584 0 0 0 -.854-.225c-.524 0-.978.166-1.36.499-.379.332-.568.964-.568 1.893v3.965zm7.3-2.167 1.217-.191c.069.487.258.86.568 1.12.314.26.752.39 1.312.39.565 0 .985-.114 1.258-.341.273-.233.41-.504.41-.814a.748.748 0 0 0 -.362-.656c-.169-.11-.588-.249-1.258-.417-.902-.228-1.529-.424-1.88-.588a1.874 1.874 0 0 1 -.793-.69 1.861 1.861 0 0 1 -.266-.978c0-.324.072-.622.218-.896.151-.278.353-.508.609-.69.191-.141.451-.26.779-.355.333-.1.688-.15 1.066-.15.57 0 1.069.081 1.497.245.433.164.752.388.957.67.206.278.347.652.424 1.121l-1.203.164c-.055-.373-.214-.665-.478-.875-.26-.21-.629-.314-1.108-.314-.565 0-.968.093-1.21.28-.241.187-.362.406-.362.656 0 .16.05.303.15.431.101.132.258.242.472.328.123.046.485.15 1.087.315.87.232 1.477.424 1.818.574.347.146.618.36.814.642.196.283.294.634.294 1.053 0 .41-.121.798-.363 1.162-.237.36-.581.64-1.032.841a3.804 3.804 0 0 1 -1.531.294c-.943 0-1.663-.196-2.16-.588-.492-.392-.807-.973-.944-1.743z" fill="#484644"/><rect fill="#fff" height="32" rx="3" width="192" y="96"/><path d="m19.903 116v-4.245l-3.862-5.776h1.613l1.976 3.021c.364.565.704 1.13 1.018 1.695.301-.524.666-1.114 1.094-1.77l1.942-2.946h1.544l-3.998 5.776v4.245zm4.615-3.63c0-1.344.373-2.34 1.12-2.987.625-.538 1.386-.807 2.284-.807.998 0 1.814.328 2.447.985.634.651.95 1.554.95 2.707 0 .934-.14 1.67-.424 2.208a2.954 2.954 0 0 1 -1.223 1.244 3.546 3.546 0 0 1 -1.75.444c-1.016 0-1.839-.326-2.468-.977-.624-.652-.936-1.591-.936-2.817zm1.264 0c0 .93.203 1.627.609 2.092.405.46.916.69 1.53.69.612 0 1.12-.232 1.525-.697.406-.465.609-1.173.609-2.126 0-.898-.205-1.577-.616-2.037a1.931 1.931 0 0 0 -1.517-.697c-.615 0-1.126.23-1.531.69-.406.46-.609 1.155-.609 2.085zm11.744 3.63v-1.066c-.565.82-1.333 1.23-2.303 1.23a2.96 2.96 0 0 1 -1.203-.246c-.37-.164-.645-.369-.828-.615a2.382 2.382 0 0 1 -.376-.916c-.05-.242-.075-.625-.075-1.149v-4.498h1.23v4.027c0 .642.026 1.075.076 1.298.077.324.241.579.492.766.25.182.56.273.93.273.369 0 .715-.093 1.039-.28.323-.191.551-.449.683-.772.137-.328.206-.802.206-1.422v-3.89h1.23v7.26h-1.1zm3.022 0v-7.26h1.107v1.101c.283-.515.543-.855.78-1.019.241-.164.505-.246.792-.246.415 0 .837.132 1.265.397l-.424 1.141a1.767 1.767 0 0 0 -.902-.266c-.269 0-.51.082-.725.246a1.294 1.294 0 0 0 -.458.67 4.79 4.79 0 0 0 -.205 1.435v3.801zm13.31-.896c-.456.388-.896.661-1.32.821-.42.159-.87.239-1.353.239-.798 0-1.41-.194-1.84-.581-.428-.392-.642-.891-.642-1.497 0-.356.08-.679.24-.971.163-.296.375-.533.635-.711.264-.177.56-.312.889-.403a8.881 8.881 0 0 1 1.093-.185c.994-.118 1.725-.259 2.195-.423l.007-.322c0-.501-.117-.854-.349-1.059-.314-.278-.781-.417-1.401-.417-.58 0-1.007.102-1.285.307-.274.201-.477.559-.609 1.074l-1.203-.164c.11-.515.29-.93.54-1.245.25-.319.613-.562 1.087-.731.474-.173 1.023-.26 1.648-.26.62 0 1.123.073 1.51.219.388.146.672.33.855.554a1.9 1.9 0 0 1 .383.834c.04.209.061.588.061 1.134v1.641c0 1.144.025 1.868.075 2.174.055.301.16.59.315.868h-1.286a2.61 2.61 0 0 1 -.246-.896zm-.103-2.748c-.447.183-1.117.338-2.01.465-.506.073-.863.155-1.073.246a1.068 1.068 0 0 0 -.656.985c0 .328.123.601.369.82.25.219.615.328 1.093.328a2.56 2.56 0 0 0 1.265-.307c.37-.21.64-.495.814-.855.132-.278.198-.688.198-1.23zm3.144 3.644v-7.26h1.108v1.101c.282-.515.542-.855.78-1.019.24-.164.505-.246.792-.246.415 0 .836.132 1.265.397l-.424 1.141a1.767 1.767 0 0 0 -.902-.266c-.27 0-.51.082-.725.246a1.294 1.294 0 0 0 -.458.67 4.787 4.787 0 0 0 -.205 1.435v3.801h-1.23zm7.363-1.101.177 1.087c-.346.073-.656.11-.93.11-.446 0-.792-.071-1.038-.212a1.188 1.188 0 0 1 -.52-.554c-.1-.232-.15-.718-.15-1.456v-4.177h-.903v-.957h.903v-1.798l1.223-.738v2.536h1.238v.957h-1.238v4.245c0 .351.02.577.062.677.046.1.116.18.212.239.1.06.241.089.424.089.136 0 .316-.016.54-.048zm1.216-7.505v-1.415h1.231v1.415h-1.23zm0 8.606v-7.26h1.231v7.26h-1.23zm7.848-2.659 1.21.157c-.132.834-.472 1.488-1.018 1.962-.543.469-1.21.704-2.003.704-.994 0-1.794-.324-2.4-.971-.601-.651-.902-1.583-.902-2.796 0-.783.13-1.469.39-2.057s.654-1.028 1.182-1.319a3.509 3.509 0 0 1 1.737-.445c.788 0 1.433.201 1.934.602.501.396.823.961.964 1.695l-1.196.185c-.114-.488-.317-.855-.609-1.101a1.553 1.553 0 0 0 -1.046-.369c-.62 0-1.123.223-1.51.67-.388.442-.581 1.144-.581 2.105 0 .976.186 1.684.56 2.126s.861.663 1.463.663c.483 0 .886-.148 1.21-.444.323-.296.529-.752.615-1.367zm2.236 2.659v-10.021h1.23v10.021zm8.114-2.338 1.271.157c-.2.743-.572 1.32-1.114 1.73s-1.235.615-2.078.615c-1.062 0-1.905-.326-2.53-.977-.62-.657-.93-1.575-.93-2.755 0-1.222.315-2.17.944-2.844.63-.675 1.445-1.012 2.447-1.012.971 0 1.764.331 2.38.991.615.661.922 1.591.922 2.789 0 .073-.002.183-.007.329h-5.414c.046.797.272 1.408.677 1.832.406.423.912.635 1.518.635.45 0 .836-.118 1.155-.355s.572-.615.759-1.135zm-4.04-1.989h4.053c-.054-.611-.21-1.069-.464-1.374-.392-.474-.9-.711-1.525-.711-.565 0-1.041.189-1.428.567-.383.379-.595.884-.636 1.518zm6.37 2.16 1.218-.191c.068.487.257.861.567 1.121.315.259.752.389 1.313.389.565 0 .984-.114 1.257-.341.274-.233.41-.504.41-.814a.746.746 0 0 0 -.362-.656c-.168-.11-.588-.249-1.258-.417-.902-.228-1.529-.424-1.88-.588a1.88 1.88 0 0 1 -.793-.69 1.87 1.87 0 0 1 -.266-.978c0-.324.073-.622.219-.896.15-.278.353-.508.608-.69.192-.141.451-.26.78-.355a3.652 3.652 0 0 1 1.066-.151c.57 0 1.069.082 1.497.246.433.164.752.388.957.67.205.278.346.652.424 1.121l-1.203.164c-.055-.373-.215-.665-.479-.875-.26-.209-.629-.314-1.107-.314-.566 0-.969.093-1.21.28-.242.187-.363.406-.363.656 0 .16.05.303.15.431.101.132.258.242.472.328.124.046.486.151 1.087.315.87.232 1.477.423 1.819.574.346.146.617.36.813.642.196.283.294.634.294 1.053 0 .41-.12.798-.362 1.162-.237.36-.581.641-1.032.841a3.807 3.807 0 0 1 -1.532.294c-.943 0-1.663-.196-2.16-.588-.492-.392-.806-.973-.943-1.743z" fill="#484644"/></svg>