<svg fill="none" height="141" viewBox="0 0 390 141" width="390" xmlns="http://www.w3.org/2000/svg"><path clip-rule="evenodd" d="m389.93 15.3326c0-8.47165-6.866-15.3326-15.333-15.3326s-15.337 6.86095-15.337 15.3326c0 8.4671 6.866 15.3372 15.337 15.3372 8.463 0 15.333-6.8655 15.333-15.3372zm-43.812-15.3326v140.198h-13.851v-124.573l-25.578 22.8527v-16.015l25.578-22.4627zm-56.957 93.0121c0 13.8429-1.207 26.9099-11.466 36.8529-6.638 6.434-15.894 10.333-28.567 10.333-12.478 0-22.532-3.899-28.771-9.943-6.234-6.239-9.256-14.232-10.055-24.176h14.483c1.811 13.843 9.256 21.642 24.343 21.642 7.042 0 13.476-2.34 17.7-6.439 7.446-7.209 7.845-18.327 7.845-28.2699 0-16.9666-3.416-33.7335-24.138-33.7335-12.474 0-20.922 5.459-23.74 13.6475h-13.076v-72.9261h72.429v12.4824h-59.353v44.0667c5.631-6.0439 14.488-9.5533 25.754-9.5533 10.658 0 19.111 3.3145 24.742 8.7735 10.463 10.1382 11.87 24.1802 11.87 37.2428zm-100.765 47.1859h-21.91v-21.905h21.91zm-107.7176-20.759 59.5196.005v20.754h-104.227c17.3101-5.287 29.565-19.037 29.565-40.232 0-17.4401-10.4306-26.8634-18.4055-32.0764 7.3576-5.0134 16.363-14.4321 16.363-29.6718 0-19.3712-11.9206-32.92589-28.4462-38.2178h94.8827l-49.2516 94.7437zm-41.249-20.7636c0 11.0106-8.6528 19.6176-19.7148 19.6176-11.0619 0-19.7146-8.607-19.7146-19.6176 0-11.0062 8.6527-19.812 19.7146-19.812 11.062 0 19.7148 8.8104 19.7148 19.812zm0-59.2414c0 10.1242-7.3252 17.5236-17.4216 17.5236-10.1057 0-17.62573-7.404-17.62573-17.5236 0-9.9293 7.52473-17.5283 17.62573-17.5283 10.0964 0 17.4216 7.5943 17.4216 17.5283zm135.8206-39.434h-17.171l-48.546 96.387h30.034v-27.128h25.206v27.128h10.477zm199.509 6.5c-4.827 0-8.759 3.9271-8.759 8.7595 0 4.8323 3.927 8.7641 8.759 8.7641 4.837 0 8.765-3.9318 8.765-8.7641 0-4.8277-3.928-8.7595-8.765-8.7595z" fill="#bbc0c4" fill-rule="evenodd"/></svg>