<svg fill="none" height="38" viewBox="0 0 128 38" width="128" xmlns="http://www.w3.org/2000/svg"><path clip-rule="evenodd" d="m41.4963 11.8445c-.0609-.4157-.1246-.8314-.2188-1.2444-.0942-.4129-.1913-.83137-.3326-1.23325-.2527-.82031-.587-1.61321-.9981-2.36679-.4178-.74745-.9081-1.45202-1.4636-2.10354-.5463-.62498-1.1515-1.19577-1.8073-1.70442-.6226-.47889-1.287-.90092-1.9851-1.26101-.2491-.14002-.5028-.25403-.7544-.36704l-.0003-.00006c-.087-.03908-.1735-.07803-.2598-.1179-.3354-.1552-.6763-.27714-1.0145-.39077-1.2629-.43926-2.5698-.739427-3.8976-.895177-2.2021-.2450599-4.4267-.2087391-6.6198.108086-1.6383.21804-3.2573.561789-4.8429 1.028201-1.011.29989-2.0057.65234-2.98 1.05592-.6708.27714-1.0229.46561-1.0229.46561l-.2384.12193.0998.37692h.2772 1.0895c.7124 0 1.752 0 3.0493.03325 1.2973.03327 2.8802.10532 4.6377.27716 1.9156.17624 3.8118.52219 5.6662 1.03373 1.9405.55429 3.9002 1.4273 5.3446 2.73543.3576.32686.6894.6808.9925 1.05866.299.391.5678.80422.8038 1.23609.4967.95057.8499 1.96957 1.0478 3.02367.438 2.2698.3467 4.9581-.1275 7.6935-.035.1889-.0693.3778-.1034.5672-.0281.1551-.0563.3105-.085.4665-.0312.1693-.0683.3372-.1055.5057-.0391.1765-.0783.3536-.1108.5336-.041.2258-.0922.4437-.1434.6616-.0284.1216-.057.2435-.0839.3666l-.0942.5127c-.0208.0933-.0453.1905-.0707.2899-.022.0868-.0445.1754-.0653.2644-.0455.1909-.088.3728-.1292.5488-.124.5292-.2351 1.005-.3807 1.5103-.1923.6549-.4245 1.2973-.6958 1.9233-.5415 1.2718-1.291 2.4445-2.2178 3.4701-.9518 1.0306-2.0861 1.8765-3.3459 2.4941-.6323.3099-1.29.5659-1.9653.765-.6705.205-1.3565.3542-2.0514.4461-1.3672.1791-2.7525.1679-4.1166-.033-2.6945-.3855-5.145-1.3859-7.3128-2.3946-1.9884-.9214-3.89344-2.0127-5.69389-3.2619-1.56623-1.153-2.69724-2.4558-3.07978-3.52-.04741-.1267-.08722-.2564-.11922-.388-.03356-.1364-.05673-.2754-.0693-.4156-.04964-.3417-.0811-.6859-.09423-1.031-.02926-.6201-.00236-1.2416.08038-1.8568.13394-.9374.37868-1.8557.72906-2.7354.03587-.0901.06856-.174.099-.252.08013-.2056.14441-.3706.20869-.4991l.11922-.2772.10811-.2549-.24118-.2273-.24671.1248-.27722.1302c-.08594.0444-.19128.1026-.3188.1829-.03502.0221-.0717.0448-.10979.0684-.10056.0621-.21085.1304-.32541.2087-.94732.6735-1.74254 1.5384-2.33411 2.5387-.436239.7398-.768323 1.5363-.986873 2.3668-.062621.2393-.112588.4816-.149694.7261-.049897.2411-.0831626.485-.1164278.7372-.04369177.2925-.0557737.5889-.03603738.884.01768198.3176.05751248.6332.11920018.9452.263891 1.2467.790245 2.423 1.544062 3.4503.75003 1.0284 1.63379 1.952 2.62794 2.7467 2.09247 1.6992 4.53469 2.9154 7.15201 3.5612 2.7167.7066 5.6773.8591 8.6379.6623 1.4978-.1006 2.9875-.2969 4.4603-.5873.7392-.1498 1.4785-.3289 2.2178-.5378.3686-.1054.7373-.2244 1.1087-.3547.3715-.1303.7319-.2606 1.0921-.4131 1.4805-.6022 2.878-1.391 4.1582-2.3472 1.3261-.9861 2.5027-2.1583 3.4929-3.481.4966-.6701.9459-1.3739 1.3445-2.1064.1997-.3657.3909-.7343.5545-1.1085l.4767-1.0642c.0281-.0655.0561-.1297.0842-.194.0469-.1072.0935-.2145.1403-.3271l.2217-.5543c.0486-.1299.0991-.2605.1495-.3909l.0003-.0008.0002-.0001c.0935-.2419.1866-.4828.266-.7167.0522-.1543.105-.3131.1579-.4728.0707-.2133.1421-.4282.2136-.6358l.3297-1.1363c.4257-1.5379.736-3.1053.9288-4.6893.206-1.6461.2088-3.3113.0081-4.9581zm85.5867 13.9209c.119-.1454.262-.2693.424-.3658.069-.0486.148-.0824.231-.099.083-.0167.168-.016.251.002.158.036-1.397 3.3922-4.554 2.9349.85.1249-.258 4.4705-3.862 4.4705-2.83 0-5.078-2.3918-6.24-3.9133-.355.992-1.547 3.9133-4.538 3.9133-2.79 0-4.599-3.3935-5.13-4.3914-.039-.0717-.07-.1313-.095-.1761-.014.0258-.026.0527-.038.0798-.01.0223-.02.0448-.032.0671-.296.6209-2.206 4.4344-5.9624 4.4344-2.3509 0-4.1027-3.3423-4.4355-4.6504-.0471-.1792-.0898-.3647-.1341-.5572l-.0154-.0665c-.3632.4998-.8271.918-1.3619 1.2272-.5348.3094-1.1284.5032-1.7428.5687-.5184.0555-.7486.5543-.9841 1.1084-.172.3965-1.569 2.561-5.0424 2.561-2.1021 0-3.6079-1.8904-4.1777-2.6057l-.0195-.0244-.0804-.1082c-.4221.7153-.9418 1.3682-1.5439 1.94-.5414.5567-1.2805.8774-2.0569.8925-1.3778.0473-2.7272-.3978-3.8063-1.2554-1.0319-.8559-1.8749-1.9167-2.4752-3.1151-.064-.1249-.1278-.2495-.1887-.377-.5571 1.1669-2.944 4.7446-7.102 4.7114-4.3688-.0333-6.7279-4.4314-7.2076-5.6399-.3613.5331-.8343.9808-1.3863 1.3125-.5519.3317-1.1696.5392-1.8099.6081-.5184.0555-.7485.5543-.9841 1.1087-.1717.3962-1.569 2.5607-5.0424 2.5607-2.102 0-3.6042-1.8858-4.1756-2.6032l-.0213-.0269c-.5481-.6524-.8553-1.4734-.8706-2.3252-.0499-.8566.0438-1.7155.2772-2.5414.2325-.8545.5924-1.6692 1.0673-2.4167.4513-.7162 1.046-1.3314 1.7464-1.8069.7056-.4696 1.5368-.7141 2.3842-.7012.567-.0076 1.1264.1308 1.6243.4019.4772.2416.8417.6589 1.0173 1.1639.9989.1829 1.8952.7276 2.5173 1.5299.5744.7651.918 1.6787.9894 2.633.6211.0829 1.5857-.3023 2.2595-1.1087v-.2772c.0046-.6914.1177-1.3778.3353-2.0342.1378-.4863.3863-.934.7263-1.3081.0259-.0243.0609-.0672.1073-.1238.4449-.5437 1.9284-2.3572 6.3045-1.2176 4.6571 1.2111 3.4708 4.717 3.1437 5.2269-.3244.5107-.8966-.0044-1.5888-.6274-1.0363-.9324-2.3408-2.1065-3.4841-.4451-.3438.4988-1.7411 4.8805 1.2362 6.1525 3.4429 1.4716 5.7216-2.1532 7.0771-9.7609.1664-1.2195.3937-2.5109.6459-3.7747-5.3389.0693-3.4678-1.3996-3.4678-1.3996 1.2946-.0942 2.5726-.2051 3.8311-.3242.7511-3.3812 1.5772-6.20531 1.7298-6.37436.1438-.16485.323-.29543.524-.38222.2009-.08679.4188-.12759.6374-.11942.2947 0 .6444.1272 1.0734.28327.2169.07888.4542.16513.7145.24609 3.2768 1.01433 2.5393 2.78524 2.5393 2.78524s-.266 1.1058-.6597 2.7493c.863-.1146 1.6246-.2189 2.2843-.3132 1.0949-.1552 1.7741-.2466 2.029-.2466.5694-.0074 1.1364.075 1.6799.2439.608.1701 1.2004.3907 1.7715.6596.4823.2129.9321.4928 1.3361.8314.3354.3021.4518.5792.3354.8564-.083.1524-.6237.2577-1.6272.3159-.9943.0591-2.3229.1109-3.9862.1552-1.3168.0388-2.8027.0748-4.4492.1136-1.1282 4.7309-2.5974 10.9333-2.6473 11.3297-.1941 1.5354-.2025 2.3475 1.0616 2.7713 1.7935.6015 3.3958-2.3057 3.3958-2.3057.5102-1.0663.843-1.8999 1.1021-2.5494.3338-.8363.5458-1.3673.8579-1.6965.2073-.5419.4682-1.0618.7787-1.552.4524-.7156 1.0468-1.3306 1.7465-1.8069.7063-.4702 1.5385-.7147 2.3869-.7012.5696-.0012 1.1297.1439 1.6271.4213.4772.2408.8413.6585 1.0146 1.1639.9991.1821 1.8956.727 2.5172 1.5299.5747.7651.918 1.6787.9895 2.6328.5934.0693 1.4914-.277 2.1568-1.0032-1.0535-6.6625-1.278-17.49332.2163-20.87171.4324-.97554 1.4441-3.20654 5.8657-2.47765 4.1247.69562 3.7197 4.66155 3.5427 5.68421-1.584 9.19135-5.1601 14.32275-6.3938 16.09295-.1569.225-.2757.3957-.3479.5135-.1359.2162-1.1118 4.2819 1.4275 5.5818 2.1263 1.089 4.8372-4.2764 5.3922-6.5601.005-.2658.036-.5304.094-.7899-.014-.1136 0-.1358.033-.1136.105-.327.283-.5183.593-.4434.311.0748.655.1773 1.04.3076.378.1254.748.2735 1.109.4434.344.1612.671.3571.976.5848.283.2064.517.4722.687.7788.197.4122.324.8542.377 1.3081.08.5764.177 1.1584.277 1.7542.1.5961.205 1.1335.305 1.616.1.4822.261.7785.485.8894.158.075.397.0279.713-.1385.364-.2053.7-.4579.998-.7509.389-.3786.747-.7883 1.07-1.2252.335-.4492.625-.9311.865-1.4384-.084-.3158-.161-.6678-.239-1.0558-.296-1.5514-.507-3.1177-.632-4.6921-.162-1.8892-.228-3.7854-.199-5.6814.013-1.8911.155-3.779.424-5.65096.21-1.58872.629-3.1429 1.244-4.62274.573-1.31553 1.331-2.17837 2.273-2.58854.467-.17146.968-.22849 1.461-.16628.727.04669 1.447.16741 2.149.36028.771.21087 1.515.51033 2.217.89241.639.31618 1.19.78442 1.605 1.36354.446.73045.688 1.56675.702 2.42223.052 1.14719-.028 2.29659-.238 3.42551-.249 1.36185-.572 2.70895-.968 4.03525-.425 1.43-.915 2.8601-1.469 4.2901-.542 1.398-1.161 2.7646-1.855 4.0934-.617 1.192-1.307 2.3444-2.068 3.4505.002.6352.056 1.2692.161 1.8957.087.5012.214.9943.382 1.4742.115.3988.366.744.71.9757.059.0455.126.0785.197.0977.072.019.147.0236.22.0131.074-.0102.144-.0353.208-.0732.063-.0381.119-.0886.163-.1485.241-.3032.436-.6416.576-1.0032.177-.4298.305-.8776.383-1.3358.08-.4822.138-.8924.174-1.2249-.318-.3563-.561-.7729-.715-1.2251-.12-.3567-.148-.7382-.08-1.1086.071-.3299.257-.6242.524-.8314.299-.2313.661-.3665 1.039-.388.526.0197 1.047.113 1.547.2771.501.1496.96.4138 1.341.7717.382.3579.674.7997.855 1.2903.149.4288.228.879.235 1.333.576.183 1.189.2127 1.78.086.242-.0768.466-.203.657-.3708.191-.1682.345-.374.452-.6048zm-30.9176-16.45122c-.0665 1.04762-.1257 2.11832-.1774 3.21212-.0473 1.5338.0184 3.0079.1191 5.2609v.0004c.0348.7797.0739 1.6528.1136 2.6539.776-1.4945 1.4037-3.0614 1.8742-4.6782.3354-1.2776.6403-2.6051.948-3.9909.2839-1.2482.4692-2.51681.5545-3.79407.0834-.96647.014-1.94009-.2053-2.88507-.2079-.77045-.6127-1.18062-1.2224-1.23327-.391-.02495-.7263.2023-1.0036.69009-.322.61546-.5455 1.27755-.6625 1.96216-.171.92601-.2839 1.86182-.3382 2.80194zm-51.148 21.46192c.3753.4804 1.0025.4804 1.8823 0 .9603-.5546 1.7823-1.3203 2.4034-2.2392-.7821-.5234-1.4661-1.1801-2.0209-1.94-.6356-.853-1.1272-1.8041-1.4554-2.8158-.7457 1.2538-1.2454 2.6384-1.472 4.0796-.1958 1.3486.0251 2.3206.6626 2.9154zm37.8862 0c.3771.4794 1.0063.4794 1.8824 0 .9612-.5546 1.784-1.3203 2.4061-2.2392-.7828-.5236-1.4676-1.1801-2.0237-1.94-.6305-.8538-1.1174-1.805-1.4415-2.8158-.7493 1.2533-1.2536 2.6377-1.4858 4.0796-.1959 1.3486.0251 2.3206.6625 2.9154zm33.0544-21.26792c-.072 1.04762-.138 2.11732-.199 3.20932-.091 2.6014-.062 5.5521.085 8.852.406-.7011.764-1.4289 1.07-2.1784.474-1.1167.872-2.2639 1.193-3.4338.366-1.2841.718-2.6144 1.056-3.9909.317-1.2442.526-2.51366.624-3.79407.091-.96773.014-1.94411-.231-2.88507-.233-.77321-.687-1.18338-1.369-1.23326-.424-.02496-.798.20229-1.109.68729-.357.60806-.607 1.27261-.74 1.96495-.192.92396-.319 1.86024-.38 2.80194zm5.223 15.78052.352.3188c.291.2467.637.5182 1.045.8064-.04-.1093-.089-.215-.147-.3158-.082-.1549-.175-.3038-.277-.4464-.117-.1606-.233-.3186-.361-.4849-.113-.1494-.24-.2877-.379-.413-.104-.1011-.224-.1836-.355-.2438-.044-.0236-.095-.0327-.145-.0263-.049.0065-.096.0282-.132.0623-.024.0239-.04.0545-.046.0877-.006.0331-.001.0673.012.098.038.0944.09.1823.156.2605.085.1053.177.2044.277.2965zm-15.155-7.4188c-.38.2356-.821.3523-1.268.3351-.288-.0054-.572-.0675-.837-.1829-.264-.1153-.503-.2815-.703-.4892s-.357-.4528-.463-.7212c-.105-.2684-.156-.5549-.151-.8432 0-.4466.133-.8831.383-1.2533.25-.3703.605-.6574 1.019-.8245s.869-.2065 1.306-.1133c.437.0933.836.3151 1.146.6368s.516.7287.593 1.1687c.077.4399.02.8928-.163 1.3003-.183.4076-.483.7512-.862.9867zm-79.5343-10.04111-3.3764 17.23831c-.2522 1.2915-4.1747 3.4698-3.8061 1.5825l3.3765-17.23555c.2494-1.29147 4.1746-3.46705 3.806-1.58526z" fill="#bbc0c4" fill-rule="evenodd"/></svg>