<svg fill="none" height="118" viewBox="0 0 598 118" width="598" xmlns="http://www.w3.org/2000/svg"><g fill="#bbc0c4"><path d="m69.3975 22.1944-34.6987 22.1943 34.6987 22.1944-34.6987 22.1943-34.6988-22.3793 34.6988-22.1943-34.6988-22.0094 34.6988-22.1944zm-34.8833 73.6112 34.6988-22.1943 34.699 22.1943-34.699 22.1944zm34.8833-29.4075 34.6985-22.1943-34.6985-22.0094 34.5145-22.1944 34.698 22.1944-34.698 22.1943 34.698 22.1944-34.698 22.1943z"/><path d="m165.742 22.1944h28.054c17.903 0 32.669 10.3573 32.669 34.0313v4.9937c0 23.859-13.843 34.5862-32.115 34.5862h-28.608zm15.688 13.3166v46.7931h11.997c10.151 0 16.98-6.6583 16.98-21.4546v-3.884c0-14.7962-7.198-21.4545-17.534-21.4545zm53.34.7398h12.551l2.03 13.8715c2.4-9.4326 8.49-14.4264 19.564-14.4264h3.876v15.906h-6.46c-12.735 0-15.872 4.4388-15.872 17.0156v27.3731h-15.504v-59.7398zm41.159 31.0721v-1.6646c0-19.9749 12.735-30.8871 30.085-30.8871 17.718 0 30.084 10.9122 30.084 30.8871v1.6646c0 19.605-11.997 30.1473-30.084 30.1473-19.196-.1849-30.085-10.5423-30.085-30.1473zm44.296-.185v-1.4796c0-11.0972-5.537-17.7555-14.396-17.7555-8.675 0-14.396 6.1035-14.396 17.7555v1.4796c0 10.7273 5.537 16.8307 14.396 16.8307 8.859-.1849 14.396-6.1034 14.396-16.8307zm23.994-30.8871h12.92l1.476 11.2821c3.138-7.5831 9.782-12.7617 19.565-12.7617 15.134 0 25.101 10.9122 25.101 31.0721v1.6645c0 19.605-11.074 29.9624-25.101 29.9624-9.413 0-15.873-4.2539-19.011-11.0972v30.147h-15.134zm43.374 30.8871v-1.2946c0-11.837-6.091-17.7555-14.212-17.7555-8.675 0-14.396 6.6583-14.396 17.7555v1.1097c0 10.5423 5.537 17.2006 14.211 17.2006 8.86-.185 14.397-5.9185 14.397-17.0157zm38.574 17.7555-1.292 10.9122h-13.289v-79.5297h15.135v30.5172c3.322-7.768 9.967-12.0219 19.38-12.0219 14.211.1849 24.732 9.9874 24.732 29.7774v1.8495c0 19.79-9.967 31.0721-25.102 31.0721-9.966-.1849-16.426-4.8088-19.564-12.5768zm28.793-18.4953v-1.4796c0-10.9122-5.906-17.0157-14.212-17.0157-8.49 0-14.396 6.8433-14.396 17.2006v1.2947c0 11.0972 5.721 17.5705 14.212 17.5705 9.043 0 14.396-5.7335 14.396-17.5705zm22.517.9248v-1.6646c0-19.9749 12.735-30.8871 30.085-30.8871 17.718 0 30.084 10.9122 30.084 30.8871v1.6646c0 19.605-12.181 30.1473-30.084 30.1473-19.195-.1849-30.085-10.5423-30.085-30.1473zm44.481-.185v-1.4796c0-11.0972-5.537-17.7555-14.396-17.7555-8.675 0-14.397 6.1035-14.397 17.7555v1.4796c0 10.7273 5.537 16.8307 14.397 16.8307 8.859-.1849 14.396-6.1034 14.396-16.8307zm35.991-2.2194-20.856-28.6677h17.903l11.997 17.9404 12.181-17.9404h17.719l-21.226 28.4827 22.333 31.0721h-17.534l-13.658-19.7899-13.289 19.7899h-18.272z"/></g></svg>