<svg fill="none" height="67" viewBox="0 0 161 67" width="161" xmlns="http://www.w3.org/2000/svg"><g fill="#bbc0c4"><path clip-rule="evenodd" d="m105.307 30.2575v3.1426h4.693v-33.4001h-4.975v12.519c-.631-1.0635-3.195-3.83513-7.7053-3.83513-6.8091 0-11.3197 5.26743-11.3197 12.70533 0 7.3903 4.8375 12.6101 11.6392 12.6101 1.4769.0185 2.9378-.3096 4.2678-.9589 1.331-.6493 2.495-1.6018 3.4-2.7829zm-14.2947-8.8226c0-4.8452 2.9227-8.2691 7.0761-8.2691 3.9766 0 7.1266 3.0017 7.1196 8.2691 0 4.434-2.694 8.1301-7.0745 8.1301-4.0634 0-7.1212-3.1844-7.1212-8.1301z" fill-rule="evenodd"/><path clip-rule="evenodd" d="m11.5662 37.7346c3.9774 0 7.4979-1.4523 7.4979-5.9476v-1.5889c-.5478.7719-2.9256 3.6767-7.6355 3.6767-6.85602 0-11.4286-5.1289-11.4286-12.3906 0-7.3085 4.75518-12.4842 11.521-12.4842 4.4802 0 7.0403 2.6785 7.7727 3.7684v-3.17775h4.7063v20.56065c0 8.8974-5.4404 11.8487-12.3889 11.8487-3.20011 0-6.53777-1.045-8.64052-2.2712l1.60011-3.813c2.14777 1.1628 4.54915 1.7872 6.99551 1.8188zm.5025-24.331c-4.11338 0-7.08574 3.2675-7.08574 8.0376 0 4.8596 3.06278 8.0373 7.13284 8.0373 4.2959 0 7.0855-3.3646 7.0855-8.0373 0-4.8599-3.0176-8.0376-7.1326-8.0376z" fill-rule="evenodd"/><path d="m32.675 22.9072v10.0928h-4.675v-23.4163h4.5988v3.6778c.8596-2.3329 3.2227-4.2615 6.4012-4.2615v4.9339c-4.9013 0-6.325 3.9028-6.325 8.9733z"/><path clip-rule="evenodd" d="m55.2823 19.939c-.8741-.8228-2.838-1.7339-5.4603-1.7339-5.241 0-8.822 3.246-8.822 7.858 0 4.7902 3.8004 7.9369 8.6042 7.9369 2.8401 0 4.6744-1.0032 5.8525-2.3707l.394 1.779h4.1493v-15.3743c0-5.2016-2.3147-9.034-9.0845-9.034-3.8004 0-6.8578 1.5028-8.6998 2.7332l1.8346 3.468c1.66-.9655 3.8436-1.8785 6.3759-1.8785 3.0215 0 4.8561 1.6417 4.8561 4.3807zm.1312 5.9756c0 2.4628-2.009 4.1067-4.8038 4.1067v.0074c-2.8831 0-4.8562-1.7415-4.8562-4.1141s1.9137-4.1064 4.8041-4.1064c2.8901 0 4.8559 1.5968 4.8559 4.1064z" fill-rule="evenodd"/><path d="m84 18.9138v14.0862h-4.9548v-14.489c0-3.2306-2.0626-5.1148-4.8148-5.1148-3.166 0-5.2305 2.2888-5.2305 5.4732v14.1306h-4.9999v-23.4163h4.9111v3.0497c1.056-1.8379 3.5324-3.6334 6.7435-3.6334 6.1901.00376 8.3454 4.8062 8.3454 9.9138z"/><path d="m43.9584 46.5142c-4.6626 0-7.7686 3.4654-7.7686 7.983 0 4.5608 3.3891 8.0774 7.9487 8.0774 3.1543 0 5.3664-1.734 6.3978-2.6469l1.46 4.1063c-2.2549 1.9098-5.1477 2.9635-8.1426 2.966-7.4856 0-12.8537-5.3383-12.8537-12.499 0-7.1171 5.5098-12.5006 12.8072-12.5006 3.0067-.0243 5.9195 1.0141 8.1928 2.9209l-1.5509 4.1963c-1.1245-1.0538-3.3829-2.6034-6.4907-2.6034z"/><path clip-rule="evenodd" d="m75.9981 54.4539c0-7.4816-4.2354-12.4539-11.4324-12.4539-6.5146 0-11.5714 5.2014-11.5657 12.5912 0 7.2074 4.9201 12.4088 12.3459 12.4088 5.6477 0 8.7915-3.2402 9.93-5.2014l-3.2806-2.4626c-.9154 1.3225-2.9655 3.3304-6.565 3.3304-4.2353 0-7.2891-2.7388-7.3792-6.9802h17.9019c.0377-.4096.0527-.8208.0451-1.2323zm-17.7649-2.19c.3189-3.74 2.9618-6.1124 6.3775-6.1124s6.1503 2.19 6.3324 6.1124z" fill-rule="evenodd"/><path d="m99 52.3267v14.6733h-4.7844v-15.0928c0-3.3652-1.9936-5.3276-4.6512-5.3276-3.055 0-5.7271 2.3839-5.7271 5.7009v14.7195h-4.8373v-24.392h4.7422v3.1768c1.0198-1.9241 4.0896-3.7848 7.1903-3.7848 5.9863 0 8.0675 5.0008 8.0675 10.3267z"/><path d="m110.027 42.9546v-4.9546h-4.711v4.9546h-3.316v4.092h3.316v10.2688c0 5.8196 1.546 9.683 7.287 9.683.803.0128 1.606-.0499 2.397-.1872v-4.2734s-.542.0449-.95.0449c-2.621 0-4.023-.8105-4.023-4.4925v-11.0436h4.792v-4.092z"/><path d="m122.107 57.236v9.764h-5.107v-23.9697h5.017v4.3318c.937-2.3861 3.516-4.3621 6.983-4.3621v5.0524c-5.345 0-6.893 4.0008-6.893 9.1836z"/><path d="m132 43h5v24h-5z"/><path d="m143.498 66.9942h-5.498l8.66-12.3151-8.156-11.6791h5.686l5.315 8.1409 5.314-8.1409h5.681l-8.158 11.6791 8.658 12.3209h-5.49l-6.001-8.597z"/><path d="m132 32h5v5h-5z"/></g></svg>