<svg fill="none" height="45" viewBox="0 0 151 45" width="151" xmlns="http://www.w3.org/2000/svg"><path clip-rule="evenodd" d="m147.904 43.2216c-.486-.0019-.952-.196-1.296-.54s-.538-.8101-.54-1.2966c.021-.4728.224-.9193.566-1.2464.342-.3272.797-.5097 1.27-.5097s.928.1825 1.27.5097c.342.3271.545.7736.566 1.2464 0 1.0061-.821 1.8366-1.836 1.8366zm0-4.0079c-1.203 0-2.18.9658-2.18 2.1713 0 1.2074.977 2.1513 2.18 2.1513 1.207 0 2.182-.9458 2.182-2.1513s-.977-2.1713-2.182-2.1713zm-.411 2.0086v-.697h.402c.23 0 .488.0692.488.3347 0 .2966-.287.3623-.536.3623zm1.329-.3547c0-.5234-.448-.7171-.907-.7171h-.859v2.4477h.436v-1.0226h.317l.574 1.0243h.536l-.662-1.0719c.348-.0747.565-.3056.565-.6582zm-13.729-31.03412c.593.01199 1.182-.09448 1.734-.31312.551-.21864 1.053-.5451 1.477-.96024.423-.41515.76-.91061.99-1.45746.229-.54684.348-1.13402.348-1.72721 0-.59318-.118-1.18048-.348-1.72742-.229-.54693-.566-1.04256-.989-1.45787-.424-.41532-.926-.74191-1.477-.96077s-1.14-.325608-1.733-.313858c-1.167.023361-2.278.503408-3.095 1.337078s-1.275 1.95453-1.275 3.12189c0 1.16737.458 2.28822 1.275 3.1219.817.83367 1.928 1.31372 3.095 1.33708zm-11.961 3.85052v6.5416h8.27v22.9982h7.38v-22.9982h8.272v-6.5416zm-64.3813-3.85052c.5855.00014 1.1653-.11506 1.7063-.33907.5409-.22402 1.0325-.55251 1.4466-.96658.4141-.41406.7425-.90563.9666-1.44669.2241-.54105.3395-1.12098.3395-1.70664 0-.58565-.1154-1.16558-.3395-1.70663-.2241-.54106-.5525-1.03263-.9666-1.4467-.4141-.41406-.9057-.74255-1.4466-.96657-.541-.22402-1.1208-.339214-1.7063-.339068-1.1669.023361-2.2781.503408-3.095 1.337078-.817.83367-1.2746 1.95453-1.2746 3.12189 0 1.16737.4576 2.28822 1.2746 3.1219.8169.83367 1.9281 1.31372 3.095 1.33708zm-11.9626 10.39042h8.2719v22.9999h7.3777v-22.9982h8.2738v-6.5416h-23.9216v6.5416zm63.7929 22.9999h7.381v-29.5214h-7.379v29.5214zm-14.9311-13.2845c0 3.9367-2.2166 7.9941-6.8875 7.9941-4.735 0-5.5342-4.3648-5.5342-7.8716v-16.3594h-7.3795v18.4504c0 6.0294 3.1969 11.9326 10.8854 11.9326 4.3637 0 7.8696-2.6452 9.1608-5.5978h.1224v4.7362h7.0097v-29.5214h-7.3773zm-63.5037-17.0985c-4.3655 0-7.8696 2.6452-9.1608 5.5977h-.1244v-4.7361h-7.0082v29.5214h7.3776v-16.237c0-3.9366 2.2148-7.9959 6.8875-7.9959 4.7331 0 5.5342 4.3666 5.5342 7.8734v16.3595h7.3776v-18.454c0-6.0258-3.195-11.9308-10.8836-11.9308zm-31.231527 30.383h7.377647v-29.5214h-7.377647z" fill="#bbc0c4" fill-rule="evenodd"/></svg>