<svg width="257" height="64" fill="none" xmlns="http://www.w3.org/2000/svg"><path d="M56.754 34.613c0 1.614.715 2.153 3.049 2.153 2.515 0 3.594-.718 5.212-4.125h.54l-.54 5.2H49.747v-.537c2.333-.538 2.515-1.077 2.515-3.229V21.342c0-1.792-.357-2.33-2.515-2.869v-.539h9.522v.539c-1.976.539-2.515 1.077-2.515 2.687v13.453zm15.262.538c0 1.256.721 1.973 2.158 2.153v.538h-8.086v-.538c1.618-.36 2.158-.897 2.158-2.511v-6.817c0-1.61-.54-1.973-2.334-2.33v-.54l5.564-.538h.54v10.583zM70.04 16.5c1.26 0 2.334 1.077 2.334 2.33 0 1.26-1.073 2.155-2.334 2.155-1.073 0-2.152-.896-2.152-2.155 0-1.253 1.08-2.33 2.152-2.33zm10.42 11.3c1.254-1.259 1.975-1.616 3.054-1.616 2.152 0 3.77 2.33 3.77 5.381 0 4.124-1.976 5.918-4.849 5.918-1.436 0-1.976-.717-1.976-2.152V27.8zm0-11.3h-.54l-5.207.357v.72c1.073.176 1.794.714 1.794 1.792v18.473c1.976.358 3.952.538 6.286.538 6.285 0 8.8-3.229 8.8-7.172 0-3.77-2.696-6.64-6.285-6.64-1.794 0-3.412.72-4.849 2.336V16.5zm16.698 13.092c.182-2.512 1.08-4.122 2.697-4.122 1.613 0 2.692 1.61 2.873 4.122h-5.57zm9.698.72c-.357-3.59-3.049-5.744-6.643-5.744-4.128 0-7.183 3.05-7.183 6.997 0 3.945 3.055 6.815 7.001 6.815 3.055 0 5.752-1.614 6.825-4.484h-.539c-1.255 1.973-2.691 2.87-4.667 2.87-2.334 0-4.668-2.153-4.492-6.454h9.698zm12.396-.72c-1.079-1.253-1.976-1.792-2.874-1.792-1.26 0-1.975.539-2.873 1.792v5.38c0 1.435.358 1.973 2.152 2.332v.538h-8.08v-.538c1.619-.36 2.152-.897 2.152-2.332v-6.815c0-1.616-.715-2.33-2.509-2.512v-.538l5.746-.539h.539v4.128c1.255-2.869 2.692-4.128 4.31-4.128.897 0 1.612.363 2.334 1.077l-.897 3.947zm21.729-4.485v.538c1.619.358 1.976 1.26.897 4.128l-1.794 4.123-2.697-5.739c-.897-1.616-.897-2.33.539-2.512v-.538h-11.31v-5.018h-.721c-1.794 2.33-3.77 4.304-5.389 5.381v.533h2.334v8.252c0 3.049 1.8 4.125 4.315 4.125 1.97 0 3.231-.718 4.128-2.332l-.357-.359c-.722.718-1.261 1.077-1.976 1.077-1.795 0-2.334-1.256-2.334-3.228v-7.535h3.412c1.976 0 2.51.72 3.231 2.512l4.667 9.865c-1.436 4.304-2.873 5.918-5.206 5.918-.54 0-.897 0-1.794-.359l-.722 3.946h1.079c2.691 0 4.128-1.077 5.389-4.125l6.643-14.888c.897-2.33 1.436-2.87 3.055-3.227v-.538h-5.389zm37.174 9.148c.364 1.793 1.079 2.869 3.055 3.228v.538h-9.88v-.538c2.158-.538 2.515-1.794 2.158-4.483l-1.619-11.3-6.461 16.32h-.721l-6.468-16.32-1.794 11.658c-.357 2.331.182 3.946 2.334 4.125v.538h-7.183v-.538c2.158-.18 3.055-1.435 3.595-4.483l1.976-12.91c-.897-.903-1.976-1.435-2.873-1.435v-.54h7.182l5.207 13.093 5.206-13.092h6.825v.539c-2.151.357-2.515 1.434-2.333 3.226l1.794 12.374zm4.673-6.28c0-1.434-.539-1.972-1.976-2.148v-.72l5.207-.539h.539v9.507c0 1.614 1.079 2.332 2.516 2.332 1.255 0 1.976-.538 3.049-2.332V27.62c0-1.078-.534-1.616-1.97-1.792v-.72l5.382-.539h.54v10.225c0 1.793.363 2.152 1.976 2.69v.538l-5.928.538v-3.228c-1.437 2.152-3.049 3.228-5.025 3.228-2.697 0-4.31-1.435-4.31-3.946v-6.637zm18.317-1.79h-2.333v-.715c1.612-.902 3.77-3.05 5.564-5.205h.54v4.842h4.309v1.077h-4.309v7.354c0 2.151.539 3.407 2.333 3.407.721 0 1.261-.359 1.976-1.076l.364.358c-.903 1.615-2.158 2.332-4.134 2.332-2.334 0-4.31-1.255-4.31-4.125v-8.25zm10.596 1.79c0-1.434-.54-1.972-2.152-2.148v-.72l5.382-.539h.54v9.507c0 1.614 1.079 2.332 2.333 2.332 1.443 0 2.158-.538 3.237-2.332V27.62c0-1.078-.721-1.616-1.976-1.792v-.72l5.207-.539h.721v10.225c0 1.793.358 2.152 1.976 2.69v.538l-5.928.538v-3.228c-1.436 2.152-3.055 3.228-5.207 3.228-2.515 0-4.133-1.435-4.133-3.946v-6.637zm24.063 7.894c-.897.717-1.612 1.255-2.334 1.255-1.079 0-1.794-.897-1.794-2.331 0-1.793.897-2.511 4.128-3.948v5.024zm3.952-6.459c0-3.583-2.873-4.842-5.746-4.842-3.055 0-5.025 1.616-5.746 4.485h.539c.897-1.434 2.152-2.149 3.77-2.149 2.334 0 3.231 1.072 3.231 3.408-3.049 1.072-8.262 1.435-8.262 4.84 0 1.793 1.801 3.407 3.952 3.407 1.619 0 2.698-.359 3.952-1.614l.358-.18c.721 1.256 1.618 1.794 3.055 1.794 1.976 0 3.055-.897 3.23-2.51h-.533c-.182.717-.539 1.255-1.079 1.255-.539 0-.721-.538-.721-1.794v-6.1zm5.031-9.145c0-1.792-.722-2.512-2.516-2.688v-.539l5.746-.357h.54v18.112c0 1.793.357 2.152 2.333 2.69v.538h-8.619v-.538c1.976-.36 2.516-.897 2.516-2.69V20.265zM15.625 53.982c-1.976 2.51-3.233 4.663-3.233 4.663-.093.004.029.19 1.257.896 1.976-3.945 5.029-6.814 6.825-8.428 3.053-2.511 4.849-3.229 7.902-4.842-2.694.537-5.747 1.793-8.261 3.586-.898.538-1.796 1.435-2.874 2.152-.539.718-1.078 1.256-1.616 1.973zM7.543 21.881c-.18-.182-1.077-.539-1.616-.539-.718 0-1.257.182-1.796.357-.18 0-.18-.357-.18-.714.18-.357.36-.357.36-.357l-.18-3.232s.898-.715 1.257-.715c.18 0 .36-.181.36-.538.358.357.897.896 1.256 1.434.18.357.36.714.36 1.253a3.07 3.07 0 0 1 0 1.798c.18.175.359.357.359.532.18.364 0 .364-.18.72zm29.274 9.866c0-.539-.718-2.337-1.257-2.694l7.72-3.407-6.463 6.1zm-20.833-12.56l6.465 5.92c-.718.181-1.616 1.259-1.796 1.973l-4.669-7.893zm3.772 11.482c-.18.357-.36.539-.36 1.078-.18.356 0 .535 0 .894l-1.975-1.257c0-.54-.18-1.253-.18-1.61v-.182l2.515 1.077z" fill="#BBC0C4"/><path d="M8.8 31.384c0-.358-.718-12.197-.718-12.554l.718-.539c-.538 0-1.077-.175-1.257-.538l-.18-3.584c-.538 0-1.257-.357-1.436-.538-.359-.357-.54-.72-.18-1.253.18.175 1.257.357 1.976.357.18 0 .539.357.718.539.18 0 .719.357.898.357.18 0 .18.538.18.538.18.176 6.106 15.423 6.106 15.604.18.176.539 2.868.539 3.047 0 .18.898 2.152 1.077 2.331-.898 0-2.155.538-3.232 1.435-.898 1.076-1.796 3.228-2.155 4.305 0-.539-2.874-9.326-3.054-9.507zm7.543 14.528c-.359 2.331-.898 4.304-1.796 5.739-.538 1.076-1.975 2.87-2.514 3.586.539-1.075 1.078-3.945.898-6.097 0-1.435-.36-4.663 0-6.636.359-2.331 1.078-3.587 2.514-5.021.719-.717 2.335-1.614 4.49-.897l1.976 3.407c-1.078-.179-2.335 0-3.233.539-1.616 1.255-2.155 2.87-2.335 5.38" fill="#BBC0C4"/><path d="M16.523 50.575c.359-1.076 1.077-3.946 1.077-4.842.36-1.256.539-2.87 1.976-4.125.718-.538 1.796-.717 2.335-.538l1.975 4.125c.18.538.718.717 1.257.538-1.975.717-6.824 3.048-8.62 4.842zm17.42-13.271c-.359.358-.18.896 0 1.255.18.358 1.257 2.332 1.257 2.332.36 1.075.539 1.434.898 1.972h1.976C37.356 41.25 35.56 38.2 35.56 38.2v-2.51c-.54.358-1.258 1.076-1.617 1.614zm-8.8-13.275c.898-.175 2.694 0 3.233.363l-1.796-10.58-1.437 10.217zM9.52 14.17s0-.538-.18-.538-.718-.357-.898-.357c-.18-.182-.539-.54-.718-.54-.719 0-1.796-.18-1.976-.356-.36.533-.18.896.18 1.253.179.181.898.538 1.437.538l.18 3.584c.179.363.717.538 1.256.538l-.718.54c0 .356.718 12.195.718 12.552.18.182 3.053 8.97 3.053 9.508.36-1.077 1.257-3.23 2.156-4.305 1.077-.897 2.334-1.435 3.232-1.435-.18-.179-1.078-2.152-1.078-2.331 0-.18-.359-2.871-.538-3.047 0-.181-5.927-15.428-6.106-15.604zM5.927 11.3c1.616 0 2.334.715 2.694 1.078.18-.539 0-1.078-.539-1.435-.36-.363-1.078-.72-2.335-.72-.718 0-1.616.182-1.975.72-.539.357-.539.715-.539 1.435.18-.539 1.257-1.078 2.694-1.078zM2.874 2.694c0 .533.179 1.253.359 1.61.18.182.539.72.898.72.36-.18.898-.895 1.796-.895.718 0 1.077.896 1.616 1.071.359 0 .539-.538 1.078-.538.359 0 .359.181.718.363 0-.363.359-.539.898-.896.539-.539 2.873-1.077 3.772-1.798.538-.538.538-1.253.538-1.791-.359.538-1.437 1.077-2.334 1.077-.54 0-1.796-.182-2.156-.357.18-.363.36-.902.18-1.259-.359.357-1.796.357-2.335.357-.538 0-1.616-.175-2.334-.175-1.796.175-2.694 1.434-2.694 2.511" fill="#BBC0C4"/><path d="M5.927 8.25c3.951 0 5.567 1.791 5.747 3.226.18-.357.18-.896 0-1.253 0-.539-.539-1.616-.539-1.973s0-.539.18-.896c-.36 0-1.078.357-1.437 0-.539-.181-.18-1.077-.718-1.253-.539-.181-1.258.533-1.796.357-.539 0-1.078-.72-1.437-.72-.719 0-.898.72-1.616.72-.54.176-1.078-.181-1.437-.181-.18.181-.54.357-.54.72-.179.176-.358.357-.717.539-.36 0-.719-.182-.898-.182 0 .182.18.896 0 1.253C.539 9.146.18 9.684 0 10.223c0 .72.18.896.36 1.253C.18 9.503 2.514 8.068 5.926 8.25zm-2.335 7.354c-.359 0-.898.539-1.257.896.18.357.539 1.077.718 1.253.18-.357.539-.896.719-1.072.18-.181.359-.181.539-.363.359-.175.359-.175.359-.357 0-.357 0-.357-.18-.539.18 0 .539 0 .718-.175.18-.182.18-.363.18-.72 0-.182-.18-.182-.359-.182H3.951s.36-.357.54-.357c.179-.176.179-.176.358-.357 0-.182 0-.357-.18-.72-.718 0-1.975.72-2.334.901l.36.715h-.54c-.179.357 0 .895 0 1.077h1.437zM35.2 30.844c-.18-.532-1.436-1.79-3.412-3.407-1.616-1.253-3.951-2.33-5.747-2.33-3.232 0-4.669 2.155-4.849 3.408-.18.538-.18 1.434 0 1.797-.539.357-.718.714-.718 1.253-.18.357 0 .896.36 1.255-.18-.538.179-1.073.538-1.436.18-.358.718-.54 1.077-.715l.18.715c-.36.363-.898.898-1.078 1.078l.18 1.434 1.078-.538.179.359-.359 2.51h.539l1.257.36-1.257.896v.359s.18-.18.718-.18c.36 0 1.257.538 1.257.538v.18h-1.975c0 .358.18.537.359.537.18 0 .539-.179.718-.179 0 0 .36.18.719.18l-.36.358s-.179.18-.538.18c-.18 0-.36.18-.36.358 0 .18.18.897.18.897.18.718 1.078.538 1.078.538.538 0 2.334-.717 2.334-.717l-1.616 2.331.719 2.51c1.077-.358 4.31-1.613 7.902-2.151-.36-.538-.36-.897-.899-1.793l-1.795-4.305.18-.538c.358.18 1.077-.18 1.436-.538.36-.359.898-.897 1.078-1.255-.18-.18-.54-.18-.719 0-.18.18-.36.538-.718.358-.36-.179-.18-.538 0-.896 0-.359-.539-.359-.719 0-.359.18-.897 0-1.257-.359-.539-.358-2.514-1.974-3.053-2.33-1.077-.54-2.514-.721-3.412-.54-.539 0-1.078.358-1.257.182l-.719-1.077.18-.182c.18.182.539.363.718.363.36-.181 1.437-.363 2.515-.363 1.436-.176 3.232.363 3.951.72 0 1.078 1.975 2.15 2.873 2.33.718 0 1.078-.18 1.617-.358l-1.976-1.615 1.077-1.253s1.617 1.435 1.796 1.792v-.72zM23.886 32.82s.719-.538 1.616-.718c1.078-.18 2.335.539 3.233 1.077l-.18.359-1.257.358c-.359-.358-.718-.358-1.257-.358-.539 0-.898.179-.898.179l.36.358-.539.18c-.36-.359-.719-.717-1.078-.897v-.538zm-1.975-2.871c-.36-1.253.538-2.33 1.077-2.687l.539 1.434c-.539.176-1.257.896-1.616 1.253zm5.926-1.253c-.718-.539-2.694-.357-3.412-.181l-.539-1.792c.36-.182 1.257-.539 1.976-.539.718 0 1.616.182 2.155.539l-.18 1.973zm3.772 1.616c-.898-.539-2.335-1.259-2.874-1.44l.719-1.792c.538.357 2.693 1.616 3.053 1.973l-.898 1.26zm-.36-4.667c.719.182 2.335 1.435 2.694 1.792l3.952-8.25-6.646 6.458zm223.417 7.893c1.255 0 2.334.896 2.334 2.151 0 1.435-1.079 2.332-2.334 2.332-1.079 0-2.157-.897-2.157-2.332 0-1.255 1.078-2.151 2.157-2.151zm0 3.945c1.073 0 1.795-.717 1.795-1.794 0-1.076-.722-1.793-1.795-1.793-.903 0-1.618.717-1.618 1.793 0 1.077.715 1.794 1.618 1.794zm-.721-2.87h.897c.54 0 .897.18.897.718 0 .358-.176.538-.539.538l.539 1.255h-.357l-.716-1.076h-.363v1.076h-.358v-2.51zm.358 1.076h.539c.182 0 .54-.179.54-.538 0-.179-.358-.179-.54-.179h-.539v.717zM50.104 45.912h77.942v-.897H50.104v.897zm88.719 0h112.425v-.897H138.823v.897zM95.006 63.487h2.155v-10.76h-2.155v10.76zm8.08-10.76h1.794l4.673 7.712v-7.712h1.794v10.76h-1.794l-4.491-7.712h-.182v7.712h-1.794v-10.76zm14.729 7.532c.715 1.076 1.976 1.614 3.23 1.614.898 0 2.334-.358 2.334-1.434 0-.718-.897-1.077-2.334-1.435l-1.078-.18c-1.795-.358-3.413-1.075-3.413-3.048 0-2.332 2.34-3.408 4.31-3.408 1.8 0 3.412.718 4.491 2.152l-1.612 1.255c-.54-.896-1.619-1.434-2.879-1.434-1.255 0-2.152.358-2.152 1.076 0 .896 1.079 1.255 2.333 1.435l1.261.359c1.613.358 3.231.896 3.231 3.048 0 2.69-2.516 3.587-4.849 3.587-1.794 0-3.594-.897-4.673-2.331l1.8-1.256zm21.729 0c0 2.152-1.794 3.587-4.491 3.587-2.515 0-4.309-1.435-4.309-3.587v-7.532h1.975v6.994c0 1.256.54 2.152 2.334 2.152 1.8 0 2.334-.896 2.334-2.152v-6.994h2.157v7.532zm5.747-7.532h4.491c2.334 0 3.77 1.255 3.77 3.228 0 2.51-1.618 3.049-2.152 3.228l2.334 4.304H151.4l-2.157-3.946h-1.976v3.946h-1.976v-10.76zm1.976 5.022h2.333c1.079 0 1.8-.538 1.8-1.615 0-1.076-.721-1.614-2.157-1.614h-1.976v3.229zm14.189-5.022h2.334l3.594 10.76h-2.158l-.539-2.152h-4.128l-.721 2.152h-2.152l3.77-10.76zm1.079 1.972l-1.437 4.843h3.049l-1.612-4.843zm9.516-1.972h1.794l4.492 7.712h.182v-7.712h1.794v10.76h-1.976l-4.492-7.712v7.712h-1.794v-10.76zm21.015 3.587c-.182-1.256-1.079-1.973-2.34-1.973-2.152 0-3.049 1.793-3.049 3.766 0 1.793.897 3.766 3.049 3.766 1.436 0 2.158-.896 2.515-2.152l1.976.897c-.897 2.152-2.333 3.228-4.491 3.228-3.588 0-5.207-2.69-5.207-5.739s1.976-5.739 5.207-5.739c2.158 0 3.776 1.256 4.316 3.407l-1.976.538zm6.461-3.587h7.722v1.793h-5.564v2.51h5.025v1.794h-5.025v2.87h5.928v1.793h-8.086v-10.76z" fill="#BBC0C4"/></svg>