<svg width="596" height="88" fill="none" xmlns="http://www.w3.org/2000/svg"><g clip-path="url(#clip0)"><path d="M79.637 88a4.625 4.625 0 0 1-3.264-1.42L61.558 71.862a4.643 4.643 0 0 1 5.05-7.576 4.64 4.64 0 0 1 1.506 1.004l14.787 14.832A4.613 4.613 0 0 1 79.637 88zM49.383 75.013H16.546A16.559 16.559 0 0 1 0 58.477V33.894A16.566 16.566 0 0 1 16.546 17.36h38.187a16.559 16.559 0 0 1 16.546 16.535v19.247a4.628 4.628 0 0 1-7.798 3.105 4.627 4.627 0 0 1-1.44-3.105V33.894a7.31 7.31 0 0 0-7.308-7.295H16.546a7.293 7.293 0 0 0-7.294 7.295v24.583a7.297 7.297 0 0 0 7.294 7.296h32.837a4.625 4.625 0 0 1 4.505 6.45 4.628 4.628 0 0 1-4.505 2.79zm264.681.369a4.628 4.628 0 0 1-4.626-4.627V33.852a7.296 7.296 0 0 0-7.294-7.296h-38.201a7.308 7.308 0 0 0-7.308 7.296v36.903a4.632 4.632 0 0 1-1.259 3.436 4.621 4.621 0 0 1-5.19 1.07 4.626 4.626 0 0 1-2.789-4.506V33.852a16.565 16.565 0 0 1 16.546-16.493h38.186a16.56 16.56 0 0 1 16.547 16.535v36.903a4.626 4.626 0 0 1-4.612 4.585zm-94.395-.37h-38.187a16.56 16.56 0 0 1-16.546-16.535V53.41a16.565 16.565 0 0 1 16.546-16.507h45.566v-2.98a7.313 7.313 0 0 0-7.308-7.296h-38.258a4.623 4.623 0 0 1-4.37-4.62 4.627 4.627 0 0 1 4.37-4.62h38.187a16.58 16.58 0 0 1 16.56 16.536v24.554a16.58 16.58 0 0 1-16.56 16.536zm-38.187-28.897a7.307 7.307 0 0 0-7.294 7.295v5.067a7.312 7.312 0 0 0 7.294 7.296h38.187a7.306 7.306 0 0 0 7.379-7.296V46.115h-45.566zm245.552 28.898h-38.215a16.567 16.567 0 0 1-16.518-16.535V33.893a16.567 16.567 0 0 1 16.518-16.535h38.187a16.559 16.559 0 0 1 11.69 4.846 16.568 16.568 0 0 1 4.856 11.69V48.74a4.63 4.63 0 0 1-4.626 4.612h-57.387v5.124a7.312 7.312 0 0 0 7.28 7.296h38.187a4.624 4.624 0 0 1 4.882 4.62 4.641 4.641 0 0 1-1.447 3.361 4.623 4.623 0 0 1-3.435 1.259h.028zm-45.495-30.9h52.803V33.895a7.312 7.312 0 0 0-7.308-7.295h-38.215a7.31 7.31 0 0 0-7.308 7.295l.028 10.22zm197.432 30.9h-38.172a16.573 16.573 0 0 1-16.56-16.536V53.41a16.575 16.575 0 0 1 16.56-16.507h45.41v-2.98a7.297 7.297 0 0 0-7.238-7.324h-38.172a4.621 4.621 0 0 1-4.505-2.79 4.623 4.623 0 0 1 1.07-5.191 4.625 4.625 0 0 1 3.435-1.26h38.172a16.567 16.567 0 0 1 16.547 16.536v24.584a16.56 16.56 0 0 1-16.547 16.536v-.001zm-38.172-28.898a7.31 7.31 0 0 0-7.237 7.295v5.068a7.311 7.311 0 0 0 7.308 7.295h38.101a7.307 7.307 0 0 0 7.294-7.295V46.114h-45.466zM137.733 75.013H99.56A16.559 16.559 0 0 1 83 58.477V21.574a4.628 4.628 0 0 1 4.626-4.627 4.626 4.626 0 0 1 4.626 4.627v36.903a7.31 7.31 0 0 0 7.308 7.296h38.173a7.307 7.307 0 0 0 7.308-7.296V21.574a4.626 4.626 0 1 1 9.252 0v36.903a16.58 16.58 0 0 1-16.56 16.536zM362.07 17.359h-17.653V4.585a4.626 4.626 0 1 0-9.252 0v12.774h-4.257a4.629 4.629 0 0 0-4.506 6.45 4.63 4.63 0 0 0 4.506 2.79h4.257v44.156a4.626 4.626 0 1 0 9.252 0V26.599h17.653a4.621 4.621 0 0 0 4.505-2.79 4.624 4.624 0 0 0-1.07-5.191 4.623 4.623 0 0 0-3.435-1.26zm129.673 28.827l22.704-21.29a4.65 4.65 0 0 0 1.117-5.043 4.646 4.646 0 0 0-7.545-1.671l-23.031 21.66-23.102-21.66a4.64 4.64 0 0 0-5.08-.863 4.634 4.634 0 0 0-2.742 4.364 4.652 4.652 0 0 0 1.45 3.24l22.705 21.291-22.705 21.29a4.63 4.63 0 0 0-1.451 3.224 4.618 4.618 0 0 0 7.78 3.504l23.145-21.716 23.031 21.66a4.618 4.618 0 1 0 6.329-6.728l-22.605-21.262z" fill="#BBC0C4"/></g><defs><clipPath id="clip0"><path fill="#fff" d="M0 0H596V88H0z"/></clipPath></defs></svg>