<svg width="324" height="147" fill="none" xmlns="http://www.w3.org/2000/svg"><path d="M37.1 144.489H.76v-21.58c9.27 14 18.73 20.07 29 20.07 9.65 0 17.6-5.11 17.6-13.63C47.32 108.529 0 107.579 0 77.109c0-16.28 13.44-27.25 33.88-27.25h30.47v21.57c-10.6-15-19.11-20.06-29.15-20.06-8.89 0-14.57 4.35-14.57 11.55 0 23.65 51.29 18.54 51.29 54.32 0 17.41-12.11 27.25-34.82 27.25zM89 30.739L115.23.249c.35-.41.63-.3.63.23v144H89V30.739zm55.08 55.65l43 58.1h-33.36L125 104.929l19.08-18.54zm35.58-36.53l-30.49 29.14c2.46-14-5.68-25.36-20.63-29.14h51.12zm8.69 69.46c0-36.34 60.57-25.74 60.57-53.38 0-8.7-6.25-14.57-15.52-14.57-9.84 0-20.06 7-29.15 20.06v-21.57h34.64c23.11 0 36.72 12.14 36.72 32.74v61.89h-26.88v-69.49c-7.38 15.36-32.73 17.25-32.73 40.53 0 11.93 6.62 19.5 17 19.5a18.313 18.313 0 0 0 13.25-5.49c-5.49 11-14.76 16.47-27.63 16.47-18.34-.01-30.27-10.41-30.27-26.69zm131.21 25.17v-94.63h-26.88v94.63h26.88zm3.86-125.07a16 16 0 0 0-18-14 15.653 15.653 0 0 0-12.67 8.85.355.355 0 0 0-.025.223.355.355 0 0 0 .316.285.361.361 0 0 0 .219-.048 15.999 15.999 0 0 1 8.6-2.49 16.298 16.298 0 0 1 16.26 16.25 16.725 16.725 0 0 1-.68 4.71.348.348 0 0 0 .148.396.35.35 0 0 0 .422-.036 16.382 16.382 0 0 0 4.435-6.408 16.381 16.381 0 0 0 .975-7.732z" fill="#BBC0C4"/></svg>