<svg width="207" height="62" viewBox="0 0 207 62" fill="none" xmlns="http://www.w3.org/2000/svg">
<path d="M29.808 23.3533C29.808 26.8667 26.91 29.76 23.391 29.76C19.872 29.76 16.974 26.8667 16.974 23.3533C16.974 19.84 19.872 16.9467 23.391 16.9467C26.91 16.9467 29.808 19.84 29.808 23.3533V23.3533ZM23.391 32.24C19.872 32.24 16.974 35.1333 16.974 38.6467C16.974 42.16 19.872 45.0533 23.391 45.0533C26.91 45.0533 29.808 42.16 29.808 38.6467C29.808 35.1333 26.91 32.24 23.391 32.24V32.24ZM62.1 31C62.1 48.1533 48.231 62 31.05 62C13.869 62 0 48.1533 0 31C0 13.8467 13.869 0 31.05 0C48.231 0 62.1 13.8467 62.1 31ZM53.82 31C53.82 18.3933 43.677 8.26667 31.05 8.26667C18.423 8.26667 8.28 18.3933 8.28 31C8.28 43.6067 18.423 53.7333 31.05 53.7333C43.677 53.7333 53.82 43.6067 53.82 31ZM38.709 32.24C35.19 32.24 32.292 35.1333 32.292 38.6467C32.292 42.16 35.19 45.0533 38.709 45.0533C42.228 45.0533 45.126 42.16 45.126 38.6467C45.126 35.1333 42.228 32.24 38.709 32.24ZM38.709 16.9467C35.19 16.9467 32.292 19.84 32.292 23.3533C32.292 26.8667 35.19 29.76 38.709 29.76C42.228 29.76 45.126 26.8667 45.126 23.3533C45.126 19.84 42.228 16.9467 38.709 16.9467ZM145.521 12.1933C145.728 12.1933 145.935 12.4 146.142 12.6067V19.22C146.142 19.6333 145.728 19.84 145.521 19.84H134.55C134.136 19.84 133.929 19.4267 133.929 19.22V12.8133C133.929 12.4 134.343 12.1933 134.55 12.1933H145.521V12.1933ZM145.314 21.4933H124.2C123.993 21.4933 123.579 21.7 123.579 22.1133L120.888 32.4467L120.681 33.0667L117.369 22.1133C117.369 21.9067 116.955 21.4933 116.748 21.4933H108.468C108.261 21.4933 107.847 21.7 107.847 22.1133L104.742 32.4467L104.535 33.0667L104.328 32.4467L103.086 27.28L101.844 22.1133C101.844 21.9067 101.43 21.4933 101.223 21.4933H84.663V12.6067C84.663 12.4 84.249 11.9867 83.835 12.1933L73.485 15.5C73.071 15.5 72.864 15.7067 72.864 16.12V21.7H70.173C69.966 21.7 69.552 21.9067 69.552 22.32V30.1733C69.552 30.38 69.759 30.7933 70.173 30.7933H72.864V40.5067C72.864 47.3267 76.59 50.4267 83.421 50.4267C86.319 50.4267 89.01 49.8067 90.873 48.7733V40.5067C90.873 40.0933 90.459 39.8867 90.252 40.0933C89.217 40.5067 88.182 40.7133 87.354 40.7133C85.491 40.7133 84.456 39.8867 84.456 37.82V30.7933H90.459C90.666 30.7933 91.08 30.5867 91.08 30.1733V23.56L98.946 49.6C98.946 49.8067 99.36 50.22 99.567 50.22H108.261C108.468 50.22 108.882 50.0133 108.882 49.6L112.608 38.0267L114.471 44.02L116.127 49.6C116.127 49.8067 116.541 50.22 116.748 50.22H125.442C125.649 50.22 126.063 50.0133 126.063 49.6L133.929 23.56V49.6C133.929 49.8067 134.136 50.22 134.55 50.22H145.107C145.314 50.22 145.728 50.0133 145.728 49.6V22.1133C145.728 21.9067 145.521 21.4933 145.314 21.4933V21.4933ZM159.183 12.1933H148.626C148.419 12.1933 148.005 12.4 148.005 12.8133V49.3933C148.005 49.6 148.212 50.0133 148.626 50.0133H159.183C159.39 50.0133 159.804 49.8067 159.804 49.3933V12.6067C159.804 12.4 159.597 12.1933 159.183 12.1933V12.1933ZM173.259 12.1933H162.288C162.081 12.1933 161.667 12.4 161.667 12.8133V19.22C161.667 19.4267 161.874 19.84 162.288 19.84H173.259C173.466 19.84 173.88 19.6333 173.88 19.22V12.6067C173.88 12.4 173.673 12.1933 173.259 12.1933V12.1933ZM173.052 21.4933H162.495C162.288 21.4933 161.874 21.7 161.874 22.1133V49.1867C161.874 49.3933 162.081 49.8067 162.495 49.8067H173.052C173.259 49.8067 173.673 49.6 173.673 49.1867V22.1133C173.673 21.9067 173.466 21.4933 173.052 21.4933ZM206.379 35.5467C206.379 43.4 199.755 50.22 190.44 50.22C181.332 50.22 174.708 43.4 174.708 35.5467C174.708 27.6933 181.332 20.8733 190.647 20.8733C199.755 20.8733 206.379 27.6933 206.379 35.5467V35.5467ZM195.201 35.7533C195.201 32.86 193.131 30.5867 190.647 30.7933C187.956 30.7933 186.093 33.0667 186.093 35.7533C186.093 38.44 188.163 40.7133 190.647 40.7133C193.338 40.7133 195.201 38.44 195.201 35.7533Z" fill="#BBC0C4"/>
</svg>
