<svg fill="none" height="360" viewBox="0 0 480 360" width="480" xmlns="http://www.w3.org/2000/svg" xmlns:xlink="http://www.w3.org/1999/xlink"><filter id="a" color-interpolation-filters="sRGB" filterUnits="userSpaceOnUse" height="47.88" width="42.9573" x="409.56" y="102.6"><feFlood flood-opacity="0" result="BackgroundImageFix"/><feColorMatrix in="SourceAlpha" type="matrix" values="0 0 0 0 0 0 0 0 0 0 0 0 0 0 0 0 0 0 127 0"/><feOffset dy=".631086"/><feGaussianBlur stdDeviation=".841448"/><feColorMatrix type="matrix" values="0 0 0 0 0 0 0 0 0 0 0 0 0 0 0 0 0 0 0.015 0"/><feBlend in2="BackgroundImageFix" mode="normal" result="effect1_dropShadow"/><feColorMatrix in="SourceAlpha" type="matrix" values="0 0 0 0 0 0 0 0 0 0 0 0 0 0 0 0 0 0 127 0"/><feOffset dy="5.04"/><feGaussianBlur stdDeviation="6.72"/><feColorMatrix type="matrix" values="0 0 0 0 0 0 0 0 0 0 0 0 0 0 0 0 0 0 0.03 0"/><feBlend in2="effect1_dropShadow" mode="normal" result="effect2_dropShadow"/><feBlend in="SourceGraphic" in2="effect2_dropShadow" mode="normal" result="shape"/></filter><filter id="b" color-interpolation-filters="sRGB" filterUnits="userSpaceOnUse" height="123.508" width="98.4" x="270.8" y="67.14"><feFlood flood-opacity="0" result="BackgroundImageFix"/><feColorMatrix in="SourceAlpha" type="matrix" values="0 0 0 0 0 0 0 0 0 0 0 0 0 0 0 0 0 0 127 0"/><feOffset dy="2.34"/><feGaussianBlur stdDeviation="4.1"/><feColorMatrix type="matrix" values="0 0 0 0 0 0 0 0 0 0 0 0 0 0 0 0 0 0 0.06 0"/><feBlend in2="BackgroundImageFix" mode="normal" result="effect1_dropShadow"/><feBlend in="SourceGraphic" in2="effect1_dropShadow" mode="normal" result="shape"/></filter><filter id="c" color-interpolation-filters="sRGB" filterUnits="userSpaceOnUse" height="90.6065" width="90.6065" x="81.6968" y="235.076"><feFlood flood-opacity="0" result="BackgroundImageFix"/><feColorMatrix in="SourceAlpha" type="matrix" values="0 0 0 0 0 0 0 0 0 0 0 0 0 0 0 0 0 0 127 0"/><feOffset dy="2.37908"/><feGaussianBlur stdDeviation="4.15162"/><feColorMatrix type="matrix" values="0 0 0 0 0 0 0 0 0 0 0 0 0 0 0 0 0 0 0.06 0"/><feBlend in2="BackgroundImageFix" mode="normal" result="effect1_dropShadow"/><feBlend in="SourceGraphic" in2="effect1_dropShadow" mode="normal" result="shape"/></filter><filter id="d" color-interpolation-filters="sRGB" filterUnits="userSpaceOnUse" height="123.508" width="98.4" x="13.8" y="142.14"><feFlood flood-opacity="0" result="BackgroundImageFix"/><feColorMatrix in="SourceAlpha" type="matrix" values="0 0 0 0 0 0 0 0 0 0 0 0 0 0 0 0 0 0 127 0"/><feOffset dy="2.34"/><feGaussianBlur stdDeviation="4.1"/><feColorMatrix type="matrix" values="0 0 0 0 0 0 0 0 0 0 0 0 0 0 0 0 0 0 0.06 0"/><feBlend in2="BackgroundImageFix" mode="normal" result="effect1_dropShadow"/><feBlend in="SourceGraphic" in2="effect1_dropShadow" mode="normal" result="shape"/></filter><filter id="e" color-interpolation-filters="sRGB" filterUnits="userSpaceOnUse" height="54.4" width="45.4922" x="111.8" y="49.14"><feFlood flood-opacity="0" result="BackgroundImageFix"/><feColorMatrix in="SourceAlpha" type="matrix" values="0 0 0 0 0 0 0 0 0 0 0 0 0 0 0 0 0 0 127 0"/><feOffset dy="2.34"/><feGaussianBlur stdDeviation="4.1"/><feColorMatrix type="matrix" values="0 0 0 0 0 0 0 0 0 0 0 0 0 0 0 0 0 0 0.03 0"/><feBlend in2="BackgroundImageFix" mode="normal" result="effect1_dropShadow"/><feBlend in="SourceGraphic" in2="effect1_dropShadow" mode="normal" result="shape"/></filter><filter id="f" color-interpolation-filters="sRGB" filterUnits="userSpaceOnUse" height="31.9849" width="52.6635" x="237.632" y="80.7998"><feFlood flood-opacity="0" result="BackgroundImageFix"/><feColorMatrix in="SourceAlpha" type="matrix" values="0 0 0 0 0 0 0 0 0 0 0 0 0 0 0 0 0 0 127 0"/><feOffset dy="3.0061"/><feGaussianBlur stdDeviation="5.26233"/><feColorMatrix type="matrix" values="0 0 0 0 0 0 0 0 0 0 0 0 0 0 0 0 0 0 0.06 0"/><feBlend in2="BackgroundImageFix" mode="normal" result="effect1_dropShadow"/><feBlend in="SourceGraphic" in2="effect1_dropShadow" mode="normal" result="shape"/></filter><linearGradient id="g" gradientUnits="userSpaceOnUse" x1="194.555" x2="154.484" y1="375.615" y2="249.364"><stop offset="0" stop-color="#4ca143"/><stop offset="1" stop-color="#a9d9a4"/></linearGradient><g filter="url(#a)"><path d="m423 112.68c0-.928.752-1.68 1.68-1.68h10.76c.446 0 .873.177 1.188.492l1.957 1.957c.315.315.492.742.492 1.188v15.683c0 .928-.752 1.68-1.68 1.68h-12.717c-.928 0-1.68-.752-1.68-1.68z" fill="#fafafb"/><path d="m437.397 131.79h-12.717c-.812 0-1.47-.658-1.47-1.47v-17.64c0-.812.658-1.47 1.47-1.47h10.76c.39 0 .764.155 1.04.431l1.957 1.956c.275.276.43.65.43 1.04v15.683c0 .812-.658 1.47-1.47 1.47z" stroke="#e4e6e8" stroke-width=".42"/></g><g fill="#e4e6e8"><path d="m439.077 113.941h-2.941v-2.941z"/><rect height="1.65789" rx=".42" width="8.75" x="425.211" y="122.053"/><rect height="1.65789" rx=".42" width="11.0526" x="425.211" y="125.368"/><rect height="1.65789" rx=".42" width="6.44737" x="425.211" y="128.132"/><path d="m177 342.5-4.5-4.5-4.5 4.5 4.5 4.5z" opacity=".5"/></g><path d="m393.243 289.248c0-.689-.559-1.248-1.249-1.248-.689 0-1.248.559-1.248 1.248v2.495h-2.497c-.69 0-1.249.559-1.249 1.248s.559 1.247 1.249 1.247h2.497v2.496c0 .689.559 1.248 1.248 1.248.69 0 1.249-.559 1.249-1.248v-2.496h2.497c.689 0 1.248-.558 1.248-1.247s-.559-1.248-1.248-1.248h-2.497z" fill="#c8ccd0"/><path clip-rule="evenodd" d="m36.5941 290.294-5.2971-5.294-5.297 5.294 5.297 5.293zm-5.2971 1.764-1.7656-1.764 1.7656-1.765 1.7657 1.765z" fill="#c8ccd0" fill-rule="evenodd" opacity=".5"/><path d="m450 29h8.5v8.5h-8.5z" fill="#f2720c"/><path d="m458.5 37.5h8.5v8.5h-8.5z" fill="#f2720c" opacity=".2"/><path d="m202 217h8.5v8.5h-8.5z" fill="#27348b"/><path d="m210.5 225.5h8.5v8.5h-8.5z" fill="#27348b" opacity=".2"/><g filter="url(#b)"><path d="m279 78c0-2.7614 2.239-5 5-5h62l15 15v87.108c0 2.761-2.239 5-5 5h-72c-2.761 0-5-2.239-5-5z" fill="#fafafb"/><path d="m356 179.608h-72c-2.485 0-4.5-2.015-4.5-4.5v-97.108c0-2.4853 2.015-4.5 4.5-4.5h61.793l14.707 14.7071v86.9009c0 2.485-2.015 4.5-4.5 4.5z" stroke="#d6d9dc"/></g><path d="m361 88h-15v-15z" fill="#d6d9dc"/><path d="m288.145 140.106c0-.345.037-.678.11-1.001.081-.323.205-.609.374-.858.169-.257.389-.458.66-.605.271-.154.601-.231.99-.231s.719.077.99.231c.271.147.491.348.66.605.169.249.29.535.363.858.081.323.121.656.121 1.001 0 .33-.04.653-.121.968-.073.308-.194.587-.363.836s-.389.451-.66.605c-.271.147-.601.22-.99.22s-.719-.073-.99-.22c-.271-.154-.491-.356-.66-.605s-.293-.528-.374-.836c-.073-.315-.11-.638-.11-.968zm-1.727 0c0 .572.088 1.107.264 1.606.176.491.429.92.759 1.287s.733.656 1.21.869c.484.205 1.027.308 1.628.308.609 0 1.151-.103 1.628-.308.477-.213.88-.502 1.21-.869s.583-.796.759-1.287c.176-.499.264-1.034.264-1.606 0-.587-.088-1.129-.264-1.628-.176-.506-.429-.946-.759-1.32s-.733-.667-1.21-.88-1.019-.319-1.628-.319c-.601 0-1.144.106-1.628.319-.477.213-.88.506-1.21.88s-.583.814-.759 1.32c-.176.499-.264 1.041-.264 1.628zm14.073 3.894v-5.687h-1.562v2.981c0 .579-.096.997-.286 1.254-.191.249-.499.374-.924.374-.374 0-.635-.114-.781-.341-.147-.235-.22-.587-.22-1.056v-3.212h-1.562v3.498c0 .352.029.675.088.968.066.286.176.532.33.737.154.198.363.352.627.462.271.11.616.165 1.034.165.33 0 .652-.073.968-.22.315-.147.572-.385.77-.715h.033v.792zm1.185-5.687v5.687h1.562v-2.563c0-.257.026-.495.077-.715s.136-.411.253-.572c.125-.169.286-.301.484-.396s.44-.143.726-.143c.095 0 .194.007.297.022.103.007.191.018.264.033v-1.452c-.125-.037-.238-.055-.341-.055-.198 0-.389.029-.572.088s-.356.143-.517.253c-.161.103-.304.231-.429.385-.125.147-.224.308-.297.484h-.022v-1.056zm10.208 4.664c-.249 0-.462-.051-.638-.154s-.319-.235-.429-.396c-.103-.169-.18-.363-.231-.583-.044-.22-.066-.444-.066-.671 0-.235.022-.462.066-.682s.117-.414.22-.583c.11-.169.249-.304.418-.407.176-.11.392-.165.649-.165.249 0 .458.055.627.165.176.103.319.242.429.418.11.169.187.363.231.583.051.22.077.444.077.671s-.022.451-.066.671-.121.414-.231.583c-.103.161-.242.293-.418.396-.169.103-.381.154-.638.154zm-2.871-4.664v7.678h1.562v-2.695h.022c.191.279.433.491.726.638.301.139.627.209.979.209.418 0 .781-.081 1.089-.242.315-.161.576-.378.781-.649.213-.271.37-.583.473-.935s.154-.719.154-1.1c0-.403-.051-.788-.154-1.155-.103-.374-.26-.7-.473-.979s-.48-.502-.803-.671-.708-.253-1.155-.253c-.352 0-.675.07-.968.209s-.535.363-.726.671h-.022v-.726zm6.725 0v5.687h1.562v-2.563c0-.257.025-.495.077-.715.051-.22.135-.411.253-.572.124-.169.286-.301.484-.396s.44-.143.726-.143c.095 0 .194.007.297.022.102.007.19.018.264.033v-1.452c-.125-.037-.239-.055-.341-.055-.198 0-.389.029-.572.088-.184.059-.356.143-.517.253-.162.103-.305.231-.429.385-.125.147-.224.308-.297.484h-.022v-1.056zm5.468 2.849c0-.227.022-.451.066-.671s.117-.414.22-.583c.11-.169.253-.304.429-.407.176-.11.396-.165.66-.165s.484.055.66.165c.183.103.326.238.429.407.11.169.187.363.231.583s.066.444.066.671-.022.451-.066.671c-.044.213-.121.407-.231.583-.103.169-.246.304-.429.407-.176.103-.396.154-.66.154s-.484-.051-.66-.154-.319-.238-.429-.407c-.103-.176-.176-.37-.22-.583-.044-.22-.066-.444-.066-.671zm-1.562 0c0 .455.069.865.209 1.232.139.367.337.682.594.946.256.257.564.455.924.594.359.139.762.209 1.21.209.447 0 .85-.07 1.21-.209.366-.139.678-.337.935-.594.256-.264.454-.579.594-.946.139-.367.209-.777.209-1.232s-.07-.865-.209-1.232c-.14-.374-.338-.689-.594-.946-.257-.264-.569-.466-.935-.605-.36-.147-.763-.22-1.21-.22-.448 0-.851.073-1.21.22-.36.139-.668.341-.924.605-.257.257-.455.572-.594.946-.14.367-.209.777-.209 1.232zm10.937-.022c0 .235-.022.462-.066.682s-.117.418-.22.594c-.102.169-.242.304-.418.407-.168.103-.381.154-.638.154-.242 0-.451-.051-.627-.154-.168-.11-.311-.249-.429-.418-.11-.176-.19-.374-.242-.594-.051-.22-.077-.44-.077-.66 0-.235.022-.458.066-.671.052-.22.129-.414.231-.583.11-.169.253-.304.429-.407s.393-.154.649-.154c.257 0 .47.051.638.154.169.103.305.238.407.407.11.161.187.352.231.572.044.213.066.436.066.671zm.022 2.134v.726h1.485v-7.854h-1.562v2.86h-.022c-.176-.279-.418-.488-.726-.627-.3-.147-.619-.22-.957-.22-.418 0-.784.084-1.1.253-.315.161-.579.378-.792.649-.205.271-.363.587-.473.946-.102.352-.154.719-.154 1.1 0 .396.052.777.154 1.144.11.367.268.693.473.979.213.279.481.502.803.671.323.161.697.242 1.122.242.374 0 .708-.066 1.001-.198.301-.139.543-.363.726-.671zm8.001.726v-5.687h-1.562v2.981c0 .579-.096.997-.286 1.254-.191.249-.499.374-.924.374-.374 0-.635-.114-.781-.341-.147-.235-.22-.587-.22-1.056v-3.212h-1.562v3.498c0 .352.029.675.088.968.066.286.176.532.33.737.154.198.363.352.627.462.271.11.616.165 1.034.165.33 0 .652-.073.968-.22.315-.147.572-.385.77-.715h.033v.792zm5.057-3.685h1.529c-.022-.367-.11-.682-.264-.946-.154-.271-.355-.495-.605-.671-.242-.183-.52-.319-.836-.407-.308-.088-.63-.132-.968-.132-.462 0-.872.077-1.232.231-.359.154-.663.37-.913.649-.249.271-.44.598-.572.979-.124.374-.187.781-.187 1.221 0 .425.07.818.209 1.177.14.352.334.656.583.913.25.257.55.458.902.605.36.139.752.209 1.177.209.756 0 1.375-.198 1.859-.594s.778-.972.88-1.727h-1.507c-.051.352-.179.634-.385.847-.198.205-.484.308-.858.308-.242 0-.447-.055-.616-.165-.168-.11-.304-.249-.407-.418-.095-.176-.165-.37-.209-.583s-.066-.422-.066-.627c0-.213.022-.425.066-.638.044-.22.118-.418.22-.594.11-.183.25-.33.418-.44.169-.117.378-.176.627-.176.668 0 1.053.326 1.155.979zm4.425-2.002v-1.705h-1.562v1.705h-.946v1.045h.946v3.355c0 .286.047.517.143.693.095.176.223.312.385.407.168.095.359.158.572.187.22.037.451.055.693.055.154 0 .311-.004.473-.011.161-.007.308-.022.44-.044v-1.21c-.074.015-.151.026-.231.033-.081.007-.165.011-.253.011-.264 0-.44-.044-.528-.132s-.132-.264-.132-.528v-2.816h1.144v-1.045zm-60.282 16.839h-1.485c.015.381.099.7.253.957.161.249.363.451.605.605.249.154.532.264.847.33s.638.099.968.099c.323 0 .638-.033.946-.099.315-.059.594-.165.836-.319s.436-.356.583-.605c.154-.257.231-.572.231-.946 0-.264-.051-.484-.154-.66-.103-.183-.238-.334-.407-.451-.169-.125-.363-.224-.583-.297-.213-.073-.433-.136-.66-.187-.22-.051-.436-.099-.649-.143s-.403-.092-.572-.143c-.161-.059-.293-.132-.396-.22s-.154-.202-.154-.341c0-.117.029-.209.088-.275.059-.073.128-.128.209-.165.088-.037.183-.059.286-.066.103-.015.198-.022.286-.022.279 0 .521.055.726.165.205.103.319.304.341.605h1.485c-.029-.352-.121-.642-.275-.869-.147-.235-.334-.422-.561-.561s-.488-.238-.781-.297c-.286-.059-.583-.088-.891-.088s-.609.029-.902.088c-.293.051-.557.147-.792.286-.235.132-.425.315-.572.55-.139.235-.209.535-.209.902 0 .249.051.462.154.638.103.169.238.312.407.429.169.11.359.202.572.275.22.066.444.125.671.176.557.117.99.235 1.298.352.315.117.473.293.473.528 0 .139-.033.257-.099.352-.066.088-.15.161-.253.22-.095.051-.205.092-.33.121-.117.022-.231.033-.341.033-.154 0-.304-.018-.451-.055-.139-.037-.264-.092-.374-.165-.11-.081-.202-.18-.275-.297-.066-.125-.099-.271-.099-.44zm10.033 1.848v-5.687h-1.562v2.981c0 .579-.095.997-.286 1.254-.19.249-.498.374-.924.374-.374 0-.634-.114-.781-.341-.146-.235-.22-.587-.22-1.056v-3.212h-1.562v3.498c0 .352.03.675.088.968.066.286.176.532.33.737.154.198.363.352.627.462.272.11.616.165 1.034.165.33 0 .653-.073.968-.22.316-.147.572-.385.77-.715h.033v.792zm2.792-6.567v-1.287h-1.562v1.287zm-1.562.88v5.687h1.562v-5.687zm4.772 0v-1.705h-1.562v1.705h-.946v1.045h.946v3.355c0 .286.047.517.143.693.095.176.223.312.385.407.168.095.359.158.572.187.22.037.451.055.693.055.154 0 .311-.004.473-.011.161-.007.308-.022.44-.044v-1.21c-.074.015-.151.026-.231.033-.081.007-.165.011-.253.011-.264 0-.44-.044-.528-.132s-.132-.264-.132-.528v-2.816h1.144v-1.045zm5.715 2.233h-2.541c.007-.11.029-.235.066-.374.044-.139.114-.271.209-.396.103-.125.235-.227.396-.308.169-.088.378-.132.627-.132.381 0 .664.103.847.308.191.205.323.506.396.902zm-2.541.99h4.103c.029-.44-.007-.862-.11-1.265s-.271-.763-.506-1.078c-.227-.315-.521-.565-.88-.748-.359-.191-.781-.286-1.265-.286-.433 0-.829.077-1.188.231-.352.154-.656.367-.913.638-.257.264-.455.579-.594.946s-.209.763-.209 1.188c0 .44.066.843.198 1.21.139.367.334.682.583.946s.554.469.913.616c.359.139.763.209 1.21.209.645 0 1.195-.147 1.65-.44s.792-.781 1.012-1.463h-1.375c-.051.176-.191.345-.418.506-.227.154-.499.231-.814.231-.44 0-.777-.114-1.012-.341s-.363-.594-.385-1.1zm6.833-1.43v-1.694h-1.727v1.694zm-1.727 2.2v1.694h1.727v-1.694zm-23.908 11.449 1.331-3.663h.022l1.309 3.663zm.781-4.609-3.058 7.854h1.067l.88-2.365h3.322l.858 2.365h1.155l-3.069-7.854zm7.906 0v7.854h.935v-3.212c0-.257.033-.491.099-.704.074-.22.18-.411.319-.572.14-.161.312-.286.517-.374.213-.088.462-.132.748-.132.36 0 .642.103.847.308.206.205.308.484.308.836v3.85h.935v-3.74c0-.308-.033-.587-.099-.836-.058-.257-.165-.477-.319-.66s-.355-.326-.605-.429c-.249-.103-.561-.154-.935-.154-.168 0-.344.018-.528.055-.176.037-.348.095-.517.176-.161.073-.308.172-.44.297-.132.117-.234.264-.308.44h-.022v-3.003zm7.103 1.144v-1.144h-.935v1.144zm-.935 1.023v5.687h.935v-5.687zm2.955 3.894h-.935c.015.352.088.653.22.902.132.242.308.44.528.594.22.147.473.253.759.319s.587.099.902.099c.286 0 .572-.029.858-.088.293-.051.554-.147.781-.286.235-.139.422-.323.561-.55.147-.227.22-.513.22-.858 0-.271-.055-.499-.165-.682-.103-.183-.242-.334-.418-.451-.169-.125-.367-.224-.594-.297-.22-.073-.447-.136-.682-.187-.22-.051-.44-.099-.66-.143-.22-.051-.418-.11-.594-.176-.176-.073-.323-.161-.44-.264-.11-.11-.165-.246-.165-.407 0-.147.037-.264.11-.352.073-.095.169-.169.286-.22.117-.059.246-.099.385-.121.147-.022.29-.033.429-.033.154 0 .304.018.451.055.154.029.293.081.418.154s.227.172.308.297c.081.117.128.268.143.451h.935c-.022-.345-.095-.631-.22-.858-.125-.235-.293-.418-.506-.55-.205-.139-.444-.235-.715-.286-.271-.059-.568-.088-.891-.088-.249 0-.502.033-.759.099-.249.059-.477.154-.682.286-.198.125-.363.29-.495.495-.125.205-.187.451-.187.737 0 .367.092.653.275.858s.411.367.682.484c.279.11.579.198.902.264.323.059.62.128.891.209.279.073.51.172.693.297s.275.308.275.55c0 .176-.044.323-.132.44-.088.11-.202.194-.341.253-.132.059-.279.099-.44.121s-.315.033-.462.033c-.191 0-.378-.018-.561-.055-.176-.037-.337-.095-.484-.176-.139-.088-.253-.202-.341-.341-.088-.147-.136-.323-.143-.528zm6.226-3.894v-1.705h-.935v1.705h-.968v.825h.968v3.619c0 .264.026.477.077.638s.128.286.231.374c.11.088.249.15.418.187.176.029.385.044.627.044h.715v-.825h-.429c-.147 0-.268-.004-.363-.011-.088-.015-.158-.04-.209-.077s-.088-.088-.11-.154c-.015-.066-.022-.154-.022-.264v-3.531h1.133v-.825zm2.854 2.849c0-.345.044-.649.132-.913.095-.271.224-.499.385-.682s.348-.323.561-.418c.22-.095.451-.143.693-.143s.469.048.682.143c.22.095.411.235.572.418s.286.411.374.682c.095.264.143.568.143.913s-.048.653-.143.924c-.088.264-.213.488-.374.671-.161.176-.352.312-.572.407-.213.095-.44.143-.682.143s-.473-.048-.693-.143c-.213-.095-.4-.231-.561-.407-.161-.183-.29-.407-.385-.671-.088-.271-.132-.579-.132-.924zm-.99 0c0 .418.059.807.176 1.166s.293.675.528.946c.235.264.524.473.869.627.345.147.741.22 1.188.22.455 0 .851-.073 1.188-.22.345-.154.634-.363.869-.627.235-.271.411-.587.528-.946s.176-.748.176-1.166-.059-.807-.176-1.166c-.117-.367-.293-.682-.528-.946-.235-.271-.524-.484-.869-.638-.337-.154-.733-.231-1.188-.231-.447 0-.843.077-1.188.231s-.634.367-.869.638c-.235.264-.411.579-.528.946-.117.359-.176.748-.176 1.166zm6.591-2.849v5.687h.935v-2.53c0-.367.037-.689.11-.968.074-.286.191-.528.352-.726.162-.198.374-.348.638-.451s.583-.154.957-.154v-.99c-.506-.015-.924.088-1.254.308s-.608.561-.836 1.023h-.022v-1.199zm5.929 6.446c-.11.279-.22.513-.33.704-.102.191-.22.345-.352.462-.124.125-.267.213-.429.264-.154.059-.333.088-.539.088-.11 0-.22-.007-.33-.022s-.216-.04-.319-.077v-.858c.081.037.173.066.275.088.11.029.202.044.275.044.191 0 .349-.048.473-.143.132-.088.231-.216.297-.385l.385-.957-2.255-5.654h1.056l1.661 4.653h.022l1.595-4.653h.99z" fill="#2f3337"/><rect fill="#f16720" height="70.961" rx="5.38973" transform="matrix(0 1 -1 0 339.961 -261.961)" width="70.8862" x="300.961" y="39"/><ellipse cx="265.48" cy="74.4437" fill="#fff" rx="24.8363" ry="24.8102"/><g filter="url(#c)"><rect fill="#0b4cb4" height="74" rx="5.22874" transform="matrix(0 1 -1 0 405 77)" width="74" x="164" y="241"/></g><circle cx="127" cy="278" fill="#fff" r="25.9"/><g filter="url(#d)"><path d="m22 152.51c0-2.491 2.0191-4.51 4.5098-4.51h62.4902l15 15v87.598c0 2.491-2.019 4.51-4.5098 4.51h-72.9804c-2.4907 0-4.5098-2.019-4.5098-4.51z" fill="#3c4146"/><path d="m31.759 210.146v7.854h1.727v-3.388h3.179v3.388h1.727v-7.854h-1.727v3.014h-3.179v-3.014zm9.3743 5.016c0-.227.022-.451.066-.671s.1174-.414.22-.583c.11-.169.253-.304.429-.407.176-.11.396-.165.66-.165s.484.055.66.165c.1834.103.3264.238.429.407.11.169.187.363.231.583s.066.444.066.671-.022.451-.066.671c-.044.213-.121.407-.231.583-.1026.169-.2456.304-.429.407-.176.103-.396.154-.66.154s-.484-.051-.66-.154-.319-.238-.429-.407c-.1026-.176-.176-.37-.22-.583-.044-.22-.066-.444-.066-.671zm-1.562 0c0 .455.0697.865.209 1.232.1394.367.3374.682.594.946.2567.257.5647.455.924.594.3594.139.7627.209 1.21.209.4474 0 .8507-.07 1.21-.209.3667-.139.6784-.337.935-.594.2567-.264.4547-.579.594-.946.1394-.367.209-.777.209-1.232s-.0696-.865-.209-1.232c-.1393-.374-.3373-.689-.594-.946-.2566-.264-.5683-.466-.935-.605-.3593-.147-.7626-.22-1.21-.22-.4473 0-.8506.073-1.21.22-.3593.139-.6673.341-.924.605-.2566.257-.4546.572-.594.946-.1393.367-.209.777-.209 1.232zm13.4016 2.838 1.793-5.687h-1.606l-1.045 3.85h-.022l-.968-3.85h-1.518l-.946 3.861h-.022l-1.045-3.861h-1.65l1.804 5.687h1.617l.968-3.817h.022l1.012 3.817zm2.447-3.674v1.342h3.311v-1.342zm6.4705-2.013v-1.705h-1.562v1.705h-.946v1.045h.946v3.355c0 .286.0477.517.143.693s.2237.312.385.407c.1687.095.3593.158.572.187.22.037.451.055.693.055.154 0 .3117-.004.473-.011s.308-.022.44-.044v-1.21c-.0733.015-.1503.026-.231.033s-.165.011-.253.011c-.264 0-.44-.044-.528-.132s-.132-.264-.132-.528v-2.816h1.144v-1.045zm3.2732 2.849c0-.227.022-.451.066-.671s.1173-.414.22-.583c.11-.169.253-.304.429-.407.176-.11.396-.165.66-.165s.484.055.66.165c.1833.103.3263.238.429.407.11.169.187.363.231.583s.066.444.066.671-.022.451-.066.671c-.044.213-.121.407-.231.583-.1027.169-.2457.304-.429.407-.176.103-.396.154-.66.154s-.484-.051-.66-.154-.319-.238-.429-.407c-.1027-.176-.176-.37-.22-.583-.044-.22-.066-.444-.066-.671zm-1.562 0c0 .455.0697.865.209 1.232s.3373.682.594.946c.2567.257.5647.455.924.594s.7627.209 1.21.209.8507-.07 1.21-.209c.3667-.139.6783-.337.935-.594.2567-.264.4547-.579.594-.946s.209-.777.209-1.232-.0697-.865-.209-1.232c-.1393-.374-.3373-.689-.594-.946-.2567-.264-.5683-.466-.935-.605-.3593-.147-.7627-.22-1.21-.22s-.8507.073-1.21.22c-.3593.139-.6673.341-.924.605-.2567.257-.4547.572-.594.946-.1393.367-.209.777-.209 1.232zm-29.3566 14.496c-.242 0-.4437-.051-.605-.154s-.2933-.235-.396-.396c-.0953-.161-.165-.341-.209-.539-.0367-.205-.055-.411-.055-.616 0-.213.022-.414.066-.605.0513-.198.1283-.37.231-.517.11-.154.242-.275.396-.363.1613-.088.352-.132.572-.132.2567 0 .4693.048.638.143s.3043.224.407.385.176.348.22.561c.044.205.066.425.066.66 0 .205-.0293.403-.088.594-.0513.183-.132.348-.242.495s-.2493.264-.418.352-.363.132-.583.132zm2.816.979v-5.324h-1.485v.759h-.022c-.1907-.33-.429-.565-.715-.704-.2787-.139-.605-.209-.979-.209-.396 0-.748.077-1.056.231-.3007.154-.5537.363-.759.627-.2053.257-.363.557-.473.902-.1027.337-.154.689-.154 1.056 0 .389.044.759.132 1.111.0953.345.242.649.44.913.198.257.451.462.759.616.308.147.6747.22 1.1.22.3447 0 .671-.07.979-.209.3153-.147.5573-.37.726-.671h.022v.748c.0073.403-.0917.737-.297 1.001-.198.264-.517.396-.957.396-.2787 0-.5243-.059-.737-.176-.2127-.11-.3557-.312-.429-.605h-1.551c.022.323.11.598.264.825.1613.235.3593.425.594.572.242.147.506.253.792.319.2933.073.5793.11.858.11.6527 0 1.1733-.088 1.562-.264s.6857-.392.891-.649c.2053-.249.3373-.521.396-.814.066-.293.099-.554.099-.781zm6.5926.363v-5.687h-1.562v2.981c0 .579-.0953.997-.286 1.254-.1907.249-.4987.374-.924.374-.374 0-.6343-.114-.781-.341-.1467-.235-.22-.587-.22-1.056v-3.212h-1.562v3.498c0 .352.0293.675.088.968.066.286.176.532.33.737.154.198.363.352.627.462.2713.11.616.165 1.034.165.33 0 .6527-.073.968-.22s.572-.385.77-.715h.033v.792zm2.7915-6.567v-1.287h-1.562v1.287zm-1.562.88v5.687h1.562v-5.687zm6.829 2.827c0 .235-.022.462-.066.682s-.1174.418-.22.594c-.1027.169-.242.304-.418.407-.1687.103-.3814.154-.638.154-.242 0-.451-.051-.627-.154-.1687-.11-.3117-.249-.429-.418-.11-.176-.1907-.374-.242-.594-.0514-.22-.077-.44-.077-.66 0-.235.022-.458.066-.671.0513-.22.1283-.414.231-.583.11-.169.253-.304.429-.407s.3923-.154.649-.154c.2566 0 .4693.051.638.154.1686.103.3043.238.407.407.11.161.187.352.231.572.044.213.066.436.066.671zm.022 2.134v.726h1.485v-7.854h-1.562v2.86h-.022c-.176-.279-.418-.488-.726-.627-.3007-.147-.6197-.22-.957-.22-.418 0-.7847.084-1.1.253-.3154.161-.5794.378-.792.649-.2054.271-.363.587-.473.946-.1027.352-.154.719-.154 1.1 0 .396.0513.777.154 1.144.11.367.2676.693.473.979.2126.279.4803.502.803.671.3226.161.6966.242 1.122.242.374 0 .7076-.066 1.001-.198.3006-.139.5426-.363.726-.671zm6.4936-2.728h-2.541c.0073-.11.0293-.235.066-.374.044-.139.1136-.271.209-.396.1026-.125.2346-.227.396-.308.1686-.088.3776-.132.627-.132.3813 0 .6636.103.847.308.1906.205.3226.506.396.902zm-2.541.99h4.103c.0293-.44-.0074-.862-.11-1.265-.1027-.403-.2714-.763-.506-1.078-.2274-.315-.5207-.565-.88-.748-.3594-.191-.781-.286-1.265-.286-.4327 0-.8287.077-1.188.231-.352.154-.6564.367-.913.638-.2567.264-.4547.579-.594.946-.1394.367-.209.763-.209 1.188 0 .44.066.843.198 1.21.1393.367.3336.682.583.946.2493.264.5536.469.913.616.3593.139.7626.209 1.21.209.6453 0 1.1953-.147 1.65-.44.4546-.293.792-.781 1.012-1.463h-1.375c-.0514.176-.1907.345-.418.506-.2274.154-.4987.231-.814.231-.44 0-.7774-.114-1.012-.341-.2347-.227-.363-.594-.385-1.1zm6.8334-1.43v-1.694h-1.727v1.694zm-1.727 2.2v1.694h1.727v-1.694zm-25.8441 14.694 2.794-7.854h-1.089l-2.266 6.809h-.022l-2.244-6.809h-1.122l2.761 7.854zm4.6786-4.092v-2.882h2.046c.594 0 1.0267.125 1.298.374.2787.242.418.598.418 1.067s-.1393.829-.418 1.078c-.2713.249-.704.37-1.298.363zm-1.045-3.762v7.854h1.045v-3.212h2.398c.792.007 1.3897-.194 1.793-.605.4107-.411.616-.983.616-1.716s-.2053-1.302-.616-1.705c-.4033-.411-1.001-.616-1.793-.616zm7.1218 0v7.854h.99v-6.303h.022l4.103 6.303h1.144v-7.854h-.99v6.369h-.022l-4.136-6.369zm11.429 6.061h-.935c.0147.352.088.653.22.902.132.242.308.44.528.594.22.147.473.253.759.319s.5867.099.902.099c.286 0 .572-.029.858-.088.2934-.051.5537-.147.781-.286.2347-.139.4217-.323.561-.55.1467-.227.22-.513.22-.858 0-.271-.055-.499-.165-.682-.1026-.183-.242-.334-.418-.451-.1686-.125-.3666-.224-.594-.297-.22-.073-.4473-.136-.682-.187-.22-.051-.44-.099-.66-.143-.22-.051-.418-.11-.594-.176-.176-.073-.3226-.161-.44-.264-.11-.11-.165-.246-.165-.407 0-.147.0367-.264.11-.352.0734-.095.1687-.169.286-.22.1174-.059.2457-.099.385-.121.1467-.022.2897-.033.429-.033.154 0 .3044.018.451.055.154.029.2934.081.418.154.1247.073.2274.172.308.297.0807.117.1284.268.143.451h.935c-.022-.345-.0953-.631-.22-.858-.1246-.235-.2933-.418-.506-.55-.2053-.139-.4436-.235-.715-.286-.2713-.059-.5683-.088-.891-.088-.2493 0-.5023.033-.759.099-.2493.059-.4766.154-.682.286-.198.125-.363.29-.495.495-.1246.205-.187.451-.187.737 0 .367.0917.653.275.858.1834.205.4107.367.682.484.2787.11.5794.198.902.264.3227.059.6197.128.891.209.2787.073.5097.172.693.297.1834.125.275.308.275.55 0 .176-.044.323-.132.44-.088.11-.2016.194-.341.253-.132.059-.2786.099-.44.121-.1613.022-.3153.033-.462.033-.1906 0-.3776-.018-.561-.055-.176-.037-.3373-.095-.484-.176-.1393-.088-.253-.202-.341-.341-.088-.147-.1356-.323-.143-.528zm8.877-1.595h-3.267c.0147-.22.0624-.425.143-.616.0807-.198.1907-.37.33-.517.1394-.147.3044-.26.495-.341.198-.088.418-.132.66-.132.2347 0 .4474.044.638.132.198.081.3667.194.506.341.1467.139.2604.308.341.506.088.198.1394.407.154.627zm.902 1.584h-.924c-.0806.374-.2493.653-.506.836-.2493.183-.572.275-.968.275-.308 0-.5756-.051-.803-.154-.2273-.103-.4143-.238-.561-.407-.1466-.176-.253-.374-.319-.594-.066-.227-.0953-.466-.088-.715h4.257c.0147-.345-.0183-.708-.099-1.089-.0733-.381-.2126-.733-.418-1.056-.198-.323-.4656-.587-.803-.792-.33-.213-.748-.319-1.254-.319-.3886 0-.748.073-1.078.22-.3226.147-.605.352-.847.616-.2346.264-.418.576-.55.935s-.198.755-.198 1.188c.0147.433.077.832.187 1.199.1174.367.2897.682.517.946.2274.264.506.469.836.616.3374.147.7334.22 1.188.22.6454 0 1.1807-.161 1.606-.484.4254-.323.7004-.803.825-1.441zm2.3552-3.883v-1.705h-.935v1.705h-.968v.825h.968v3.619c0 .264.0257.477.077.638.0514.161.1284.286.231.374.11.088.2494.15.418.187.176.029.385.044.627.044h.715v-.825h-.429c-.1466 0-.2676-.004-.363-.011-.088-.015-.1576-.04-.209-.077-.0513-.037-.088-.088-.11-.154-.0146-.066-.022-.154-.022-.264v-3.531h1.133v-.825zm6.8798 5.687v-5.687h-.935v3.212c0 .257-.0367.495-.11.715-.066.213-.1687.4-.308.561-.1394.161-.3154.286-.528.374-.2054.088-.451.132-.737.132-.3594 0-.6417-.103-.847-.308-.2054-.205-.308-.484-.308-.836v-3.85h-.935v3.74c0 .308.0293.59.088.847.066.249.176.466.33.649s.3556.326.605.429c.2493.095.561.143.935.143.418 0 .781-.081 1.089-.242.308-.169.561-.429.759-.781h.022v.902zm1.4373-5.687v7.854h.935v-2.926h.022c.1026.169.2273.312.374.429.154.11.3153.198.484.264.1686.066.3373.114.506.143.176.029.3336.044.473.044.4326 0 .8103-.077 1.133-.231.33-.154.6013-.363.814-.627.22-.271.3813-.587.484-.946.11-.359.165-.741.165-1.144s-.055-.785-.165-1.144-.275-.675-.495-.946c-.2127-.279-.484-.499-.814-.66-.3227-.161-.704-.242-1.144-.242-.396 0-.759.073-1.089.22-.33.139-.572.367-.726.682h-.022v-.77zm4.4 2.794c0 .279-.0294.55-.088.814-.0587.264-.154.499-.286.704s-.308.37-.528.495c-.2127.125-.4804.187-.803.187-.3227 0-.5977-.059-.825-.176-.2274-.125-.4144-.286-.561-.484-.1394-.198-.242-.425-.308-.682-.066-.264-.099-.535-.099-.814 0-.264.0293-.524.088-.781.066-.257.1686-.484.308-.682.1393-.205.319-.37.539-.495s.4876-.187.803-.187c.3006 0 .561.059.781.176.2273.117.4106.275.55.473.1466.198.253.425.319.682.0733.249.11.506.11.77z" fill="#fafafb"/><path d="m104 163h-15v-15z" fill="#848d95"/></g><g filter="url(#e)"><path d="m120 57c0-1.1046.895-2 2-2h20.942c.53 0 1.039.2107 1.414.5858l4.15 4.1502c.375.375.586.8837.586 1.4142v29.8498c0 1.1046-.895 2-2 2h-25.092c-1.105 0-2-.8954-2-2z" fill="#fafafb"/><path d="m147.092 92.75h-25.092c-.966 0-1.75-.7835-1.75-1.75v-34c0-.9665.784-1.75 1.75-1.75h20.942c.464 0 .909.1844 1.237.5126l4.151 4.1501c.328.3282.512.7733.512 1.2375v29.8498c0 .9665-.783 1.75-1.75 1.75z" stroke="#d6d9dc" stroke-width=".5"/></g><path d="m149.092 60.3218h-5.322v-5.3218z" fill="#e4e6e8"/><rect fill="#e4e6e8" height="3" rx=".5" width="15.8333" x="124" y="74"/><rect fill="#e4e6e8" height="3" rx=".5" width="20" x="124" y="80"/><rect fill="#e4e6e8" height="3" rx=".5" width="11.6667" x="124" y="85"/><path clip-rule="evenodd" d="m145.447 296.18c-4.697 4.765-11.227 7.72-18.447 7.72-6.927 0-13.219-2.72-17.867-7.149 4.343-2.508 12.959-4.546 18.732-4.082.756.061 1.483.116 2.185.17 6.25.477 10.472.799 15.397 3.341z" fill="url(#g)" fill-rule="evenodd"/><path clip-rule="evenodd" d="m133.248 282.69c2.608-2.784-17.192-3.431-14.457-.472s-.3 12.426-.3 12.426c-.093 2.859 5.083 3.045 7.582 2.935.386-.017.808-.02 1.247-.022 2.399-.015 5.281-.032 5.36-2.45-.01-.046-2.034-9.639.568-12.417z" fill="#bb7054" fill-rule="evenodd"/><path d="m133.121 288.59c-4.518.453-11.679-3.187-14.182-5.064-2.867-2.973-4.965-15.134.638-19.543 3.42-4.561 9.89-5.486 14.451-2.066 2.504 1.879 3.628 6.01 4.129 10.322.772 6.637-.519 15.897-5.036 16.351z" fill="#ca7a5d"/><path d="m135.704 280.351-8.234.516c.346.808 1.803 2.378 4.861 2.187 3.058-.192 3.523-1.882 3.373-2.703z" fill="#fff"/><path d="m120.071 258.034c-8.333 2.415-5.275 14.608-5.275 14.608s1.118 4.37 1.593 4.082c.563-1.196-.437-4.237.176-5.368 1.106-.625 1.344 2.923 2.684.087 2.68-5.67 1.917-8.133 7.804-9.726 5.699-1.543 7.62.057 9.652 4.155-.369-6.346-8.302-10.254-16.634-7.838z" fill="#2e201f"/><path clip-rule="evenodd" d="m258.016 71.4108c-.546.2751-1.481.6822-3.01 1.2798-5.916 2.3126-5.916 7.9657-5.4 10.0213.515 2.0556 2.572 7.4521 2.572 7.4521 5.627-2.2977 10.886-7.2418 6.207-12.8477l.887-4.9176c-.434-.3041-.854-.6334-1.256-.9879z" fill="#faf0be" fill-rule="evenodd"/><g filter="url(#f)"><path clip-rule="evenodd" d="m248.157 92.2227c.174-.145.371-.2897.589-.4339 4.397-2.8983 7.818-3.0782 13.131-3.3578.544-.0285 1.107-.0582 1.693-.0918 5.675-.3263 14.786 3.2469 16.201 6.3983-4.042 2.8454-8.971 4.5164-14.291 4.5164-6.738 0-12.849-2.68-17.323-7.0312z" fill="#99d4ff" fill-rule="evenodd"/></g><path clip-rule="evenodd" d="m260.085 77.3828c-2.163-3.2351 14.865-3.2349 12.432 0-1.868 2.4843-.867 9.4207-.302 12.506.348.6219.541 1.3071.541 2.0269 0 2.8382-2.995 5.1391-6.688 5.1391-3.694 0-6.688-2.3009-6.688-5.1391 0-1.042.403-2.0115 1.097-2.8214.502-3.3532 1.138-9.4222-.392-11.7115z" fill="#f4c5a7" fill-rule="evenodd"/><path d="m272.631 85.5456c-5.419.0183-11.976-5.7935-14.47-7.9641-4.546-3.9549-1.877-14.468 2.076-19.014 3.952-4.5461 12.452-4.214 16.997-.2591 2.496 2.1718 1.858 5.701 2.058 10.2857.306 7.0554-1.242 16.9332-6.661 16.9515z" fill="#ffceaf"/><path d="m271.258 79.0683 4.584.6067c-.276.8275-1.254 2.426-2.957 2.2007-1.703-.2254-1.794-1.9655-1.627-2.8074z" fill="#fff"/><path d="m262.209 74.2329c-.514-.7741-2.518-2.0901-2.564-3.3836-.059-1.2148.512-2.0573 1.029-1.8004.516.257.514 1.0279.514 1.0279.4-.0254 1.803 3.0828 7.974-3.0838 7.306-4.5801 8.593-3.0383 10.136-3.2953.514-.5139 1.441-14.9461-15.277-8.0098-6.855 2.8438-9.271 8.7308-8.499 16.1853.771 7.4544 4.314 9.918 3.858 9.2504-.408-.7182 1.294-.7705 1.808-1.0279.514-.2573 1.536-5.0887 1.021-5.8628z" fill="#faf0be"/><path clip-rule="evenodd" d="m252.503 84.0529-2.074 2.9868c-2.473 3.649-2.693 8.4221-.48 12.2248l5.016 8.7225c5.516-3.142 7.426-10.1793 4.235-15.7225l-3.858-6.7276c-.96-.4299-1.909-.9243-2.839-1.484z" fill="#faf0be" fill-rule="evenodd"/></svg>