<svg fill="none" height="404" viewBox="0 0 610 404" width="610" xmlns="http://www.w3.org/2000/svg" xmlns:xlink="http://www.w3.org/1999/xlink"><linearGradient id="a"><stop offset="0" stop-color="#fbba23"/><stop offset="1" stop-color="#ffe476"/></linearGradient><linearGradient id="b" gradientUnits="userSpaceOnUse" x1="3" x2="499.999" xlink:href="#a" y1="43.985" y2="43.985"/><linearGradient id="c"><stop offset="0" stop-color="#3af"/><stop offset="1" stop-color="#99d4ff"/></linearGradient><linearGradient id="d" gradientUnits="userSpaceOnUse" x1="3" x2="609.999" xlink:href="#c" y1="20" y2="20"/><linearGradient id="e"><stop offset="0" stop-color="#64b674"/><stop offset="1" stop-color="#87ca80"/></linearGradient><linearGradient id="f" gradientUnits="userSpaceOnUse" x1="3" x2="380.998" xlink:href="#e" y1="67.97" y2="67.97"/><linearGradient id="g" gradientUnits="userSpaceOnUse" x1="3" x2="291.999" xlink:href="#a" y1="91.985" y2="91.985"/><linearGradient id="h" gradientUnits="userSpaceOnUse" x1="3" x2="261.999" xlink:href="#e" y1="115.97" y2="115.97"/><linearGradient id="i" gradientUnits="userSpaceOnUse" x1="3" x2="253" xlink:href="#c" y1="140" y2="140"/><linearGradient id="j" gradientUnits="userSpaceOnUse" x1="3" x2="197.999" xlink:href="#e" y1="163.97" y2="163.97"/><linearGradient id="k" gradientUnits="userSpaceOnUse" x1="3" x2="184" xlink:href="#a" y1="187.985" y2="187.985"/><linearGradient id="l" gradientUnits="userSpaceOnUse" x1="3" x2="144.999" xlink:href="#e" y1="211.97" y2="211.97"/><linearGradient id="m" gradientUnits="userSpaceOnUse" x1="3" x2="145" xlink:href="#a" y1="235.985" y2="235.985"/><linearGradient id="n" gradientUnits="userSpaceOnUse" x1="3" x2="144" xlink:href="#c" y1="260" y2="260"/><linearGradient id="o" gradientUnits="userSpaceOnUse" x1="3" x2="139.999" xlink:href="#e" y1="283.97" y2="283.97"/><linearGradient id="p" gradientUnits="userSpaceOnUse" x1="3" x2="136" xlink:href="#a" y1="307.985" y2="307.985"/><linearGradient id="q" gradientUnits="userSpaceOnUse" x1="3" x2="128" xlink:href="#c" y1="332" y2="332"/><linearGradient id="r" gradientUnits="userSpaceOnUse" x1="3" x2="124" xlink:href="#a" y1="355.985" y2="355.985"/><path d="m3.5 0v387" stroke="#c8ccd0"/><path d="m126.5 0v387" stroke="#c8ccd0"/><path d="m249.5 0v387" stroke="#c8ccd0"/><path d="m373.5 0v387" stroke="#c8ccd0"/><path d="m496.5 0v387" stroke="#c8ccd0"/><rect fill="url(#b)" height="20" rx="10" width="497" x="3" y="34"/><rect fill="url(#d)" height="20" rx="10" width="607" x="3" y="10"/><rect fill="url(#f)" height="20" rx="10" width="378" x="3" y="58"/><rect fill="url(#g)" height="20" rx="10" width="289" x="3" y="82"/><rect fill="url(#h)" height="20" rx="10" width="259" x="3" y="106"/><rect fill="url(#i)" height="20" rx="10" width="250" x="3" y="130"/><rect fill="url(#j)" height="20" rx="10" width="195" x="3" y="154"/><rect fill="url(#k)" height="20" rx="10" width="181" x="3" y="178"/><rect fill="url(#l)" height="20" rx="10" width="142" x="3" y="202"/><rect fill="url(#m)" height="20" rx="10" width="142" x="3" y="226"/><rect fill="url(#n)" height="20" rx="10" width="141" x="3" y="250"/><rect fill="url(#o)" height="20" rx="10" width="137" x="3" y="274"/><rect fill="url(#p)" height="20" rx="10" width="133" x="3" y="298"/><rect fill="url(#q)" height="20" rx="10" width="125" x="3" y="322"/><rect fill="url(#r)" height="20" rx="10" width="121" x="3" y="346"/><g font-family="Arial" font-size="11" letter-spacing="0em"><text fill="#132837"><tspan x="566.946" y="24.3135">python</tspan></text><text fill="#132837"><tspan x="443.508" y="48.3135">javascript</tspan></text><text fill="#132837"><tspan x="352.805" y="72.3135">java</tspan></text><text fill="#132837"><tspan x="270.377" y="96.3135">c#</tspan></text><text fill="#132837"><tspan x="216.272" y="120.313">android</tspan></text><text fill="#132837"><tspan x="225.631" y="144.313">php</tspan></text><text fill="#132837"><tspan x="169.203" y="168.313">html</tspan></text><text fill="#bbc0c4"><tspan x=".876953" y="401.313">0</tspan></text><text fill="#bbc0c4"><tspan x="120.188" y="401.313">5k</tspan></text><text fill="#bbc0c4"><tspan x="240.127" y="401.313">10k</tspan></text><text fill="#bbc0c4"><tspan x="365.127" y="401.313">15k</tspan></text><text fill="#bbc0c4"><tspan x="487.127" y="401.313">20k</tspan></text><text fill="#132837"><tspan x="123.599" y="192.313">python-3.x</tspan></text><text fill="#132837"><tspan x="117.652" y="216.313">c++</tspan></text><text fill="#132837"><tspan x="132.337" y="240.313">r</tspan></text><text fill="#132837"><tspan x="103.58" y="264.313">reactjs</tspan></text><text fill="#132837"><tspan x="100.497" y="288.313">node.js</tspan></text><text fill="#132837"><tspan x="91.2725" y="311.313">angular</tspan></text><text fill="#132837"><tspan x="102.5" y="336.313">css</tspan></text><text fill="#132837"><tspan x="102.928" y="359.313">sql</tspan></text></g></svg>