<svg fill="none" height="205" viewBox="0 0 489 205" width="489" xmlns="http://www.w3.org/2000/svg"><rect fill="#edf7f1" height="7" rx=".5" stroke="#5eba7d" width="7" x="101" y="4"/><path d="m113.443 12v-8.58984h3.809c.766 0 1.348.07812 1.746.23437.398.15235.717.42383.955.81445.238.39063.358.82227.358 1.29493 0 .60937-.198 1.12304-.592 1.54101-.395.41797-1.004.6836-1.828.79688.3.14453.529.28711.685.42773.332.30469.647.68555.944 1.14258l1.494 2.33789h-1.43l-1.137-1.7871c-.332-.51563-.605-.91017-.82-1.1836-.215-.27344-.408-.46485-.58-.57422-.168-.10938-.34-.18555-.516-.22852-.129-.02734-.34-.04101-.633-.04101h-1.318v3.81445zm1.137-4.79883h2.443c.52 0 .926-.05273 1.219-.1582.293-.10938.516-.28125.668-.51563.152-.23828.229-.49609.229-.77343 0-.40625-.149-.74024-.446-1.00196-.293-.26172-.757-.39257-1.394-.39257h-2.719zm11.643 2.79492 1.089.13481c-.171.6367-.49 1.1308-.955 1.4824-.464.3515-1.058.5273-1.781.5273-.91 0-1.633-.2793-2.168-.8379-.531-.5625-.797-1.34958-.797-2.36129 0-1.04688.27-1.85938.809-2.4375.539-.57813 1.238-.86719 2.098-.86719.832 0 1.511.2832 2.039.84961.527.5664.791 1.36328.791 2.39062 0 .0625-.002.15625-.006.28125h-4.641c.039.6836.233 1.207.58 1.5703.348.3633.781.5449 1.301.5449.387 0 .717-.1015.99-.3046.274-.2032.49-.5274.651-.97271zm-3.463-1.70507h3.474c-.046-.52344-.179-.91602-.398-1.17774-.336-.40625-.772-.60937-1.307-.60937-.484 0-.892.16211-1.224.48632-.328.32422-.51.75782-.545 1.30079zm5.461 1.85158 1.043-.16408c.058.41798.22.73828.486.96098.27.2226.645.3339 1.125.3339.484 0 .844-.0976 1.078-.2929.235-.1993.352-.4317.352-.6973 0-.2383-.104-.42578-.311-.5625-.144-.09375-.504-.21289-1.078-.35742-.773-.19531-1.311-.36328-1.611-.5039-.297-.14454-.524-.3418-.68-.5918-.152-.25391-.229-.5332-.229-.83789 0-.27735.063-.53321.188-.76758.129-.23828.303-.43555.521-.5918.165-.12109.387-.22265.668-.30469.286-.08593.59-.1289.915-.1289.488 0 .916.07031 1.283.21094.371.14062.644.33203.82.57422.176.23828.297.55859.363.96093l-1.031.14063c-.047-.32032-.184-.57032-.41-.75-.223-.17969-.539-.26953-.949-.26953-.485 0-.83.08007-1.037.24023s-.311.34766-.311.5625c0 .13672.043.25977.129.36914.086.11328.221.20703.404.28125.106.03906.416.12891.932.26953.746.19922 1.265.36328 1.558.49219.297.125.53.30859.698.55078s.252.54297.252.90237c0 .3515-.104.6836-.311.9961-.203.3086-.498.5488-.885.7207-.386.1679-.824.2519-1.312.2519-.809 0-1.426-.1679-1.852-.5039-.422-.3359-.691-.834-.808-1.4941zm6.422 4.2422v-8.60746h.961v.8086c.226-.31641.482-.55274.767-.70899.285-.16015.631-.24023 1.037-.24023.531 0 1 .13672 1.406.41016.407.27343.713.66015.92 1.16015.207.49609.311 1.04102.311 1.63477 0 .63672-.115 1.2109-.346 1.7227-.226.5078-.558.8984-.996 1.1718-.433.2696-.891.4043-1.371.4043-.352 0-.668-.0742-.949-.2226-.278-.1485-.506-.336-.686-.5625v3.0293zm.955-5.46097c0 .80078.162 1.39257.486 1.77537s.717.5742 1.178.5742c.468 0 .869-.1972 1.201-.5918.336-.3984.504-1.01363.504-1.84566 0-.79297-.164-1.38672-.492-1.78125-.325-.39453-.713-.5918-1.166-.5918-.45 0-.848.21094-1.196.63281-.343.41797-.515 1.02735-.515 1.82813zm5.332-.03516c0-1.15234.32-2.00586.961-2.56055.535-.46093 1.187-.6914 1.957-.6914.855 0 1.554.28125 2.097.84375.543.55859.815 1.33203.815 2.32031 0 .80078-.121 1.43162-.364 1.89262-.238.457-.587.8125-1.048 1.0664-.457.2539-.957.3808-1.5.3808-.871 0-1.577-.2793-2.116-.8379-.535-.5586-.802-1.36325-.802-2.41403zm1.084 0c0 .79688.174 1.39453.521 1.79293.348.3946.785.5918 1.313.5918.523 0 .959-.1992 1.306-.5976.348-.3985.522-1.00588.522-1.82228 0-.76954-.176-1.35157-.528-1.7461-.347-.39844-.781-.59765-1.3-.59765-.528 0-.965.19726-1.313.59179-.347.39453-.521.99024-.521 1.78711zm5.988 3.11133v-6.22266h.949v.88477c.457-.68359 1.117-1.02539 1.981-1.02539.375 0 .718.06836 1.031.20508.316.13281.553.30859.709.52734s.266.47852.328.7793c.039.19531.059.53711.059 1.02539v3.82617h-1.055v-3.78516c0-.42968-.041-.75-.123-.96093-.082-.21485-.229-.38477-.44-.50977-.207-.12891-.451-.19336-.732-.19336-.449 0-.838.14258-1.166.42774-.324.28515-.486.82617-.486 1.62304v3.39844zm6.258-1.8574 1.043-.16408c.058.41798.22.73828.486.96098.27.2226.645.3339 1.125.3339.484 0 .844-.0976 1.078-.2929.235-.1993.352-.4317.352-.6973 0-.2383-.104-.42578-.311-.5625-.144-.09375-.504-.21289-1.078-.35742-.773-.19531-1.31-.36328-1.611-.5039-.297-.14454-.524-.3418-.68-.5918-.152-.25391-.228-.5332-.228-.83789 0-.27735.062-.53321.187-.76758.129-.23828.303-.43555.522-.5918.164-.12109.386-.22265.667-.30469.286-.08593.59-.1289.915-.1289.488 0 .916.07031 1.283.21094.371.14062.644.33203.82.57422.176.23828.297.55859.363.96093l-1.031.14063c-.047-.32032-.183-.57032-.41-.75-.223-.17969-.539-.26953-.949-.26953-.485 0-.83.08007-1.037.24023s-.311.34766-.311.5625c0 .13672.043.25977.129.36914.086.11328.221.20703.404.28125.106.03906.416.12891.932.26953.746.19922 1.266.36328 1.559.49219.296.125.529.30859.697.55078s.252.54297.252.90237c0 .3515-.104.6836-.311.9961-.203.3086-.498.5488-.885.7207-.386.1679-.824.2519-1.312.2519-.809 0-1.426-.1679-1.852-.5039-.422-.3359-.691-.834-.808-1.4941zm10.681-.14651 1.09.13481c-.172.6367-.49 1.1308-.955 1.4824-.465.3515-1.058.5273-1.781.5273-.91 0-1.633-.2793-2.168-.8379-.531-.5625-.797-1.34958-.797-2.36129 0-1.04688.27-1.85938.809-2.4375.539-.57813 1.238-.86719 2.097-.86719.832 0 1.512.2832 2.039.84961.528.5664.791 1.36328.791 2.39062 0 .0625-.002.15625-.005.28125h-4.641c.039.6836.232 1.207.58 1.5703s.781.5449 1.301.5449c.387 0 .717-.1015.99-.3046.273-.2032.49-.5274.65-.97271zm-3.462-1.70507h3.474c-.047-.52344-.18-.91602-.398-1.17774-.336-.40625-.772-.60937-1.307-.60937-.484 0-.893.16211-1.225.48632-.328.32422-.509.75782-.544 1.30079zm9.21 3.70898v-6.22266h.95v.94336c.242-.4414.465-.73242.668-.87304.207-.14063.433-.21094.679-.21094.356 0 .717.11328 1.084.33984l-.363.97852c-.258-.15235-.516-.22852-.773-.22852-.231 0-.438.07032-.622.21094-.183.13672-.314.32812-.392.57422-.117.375-.176.78516-.176 1.23047v3.25781zm8.069-.7676c-.391.3321-.768.5664-1.131.7031-.359.1368-.746.2051-1.16.2051-.684 0-1.209-.166-1.576-.498-.368-.336-.551-.7637-.551-1.2832 0-.3047.068-.58206.205-.83206.141-.2539.322-.45703.545-.60937.226-.15235.48-.26758.762-.3457.207-.05469.519-.10743.937-.15821.852-.10156 1.479-.22265 1.881-.36328.004-.14453.006-.23633.006-.27539 0-.42969-.1-.73242-.299-.9082-.27-.23828-.67-.35742-1.201-.35742-.496 0-.864.08789-1.102.26367-.234.17187-.408.47851-.521.91992l-1.032-.14063c.094-.4414.249-.79687.463-1.0664.215-.27344.526-.48242.932-.62695.406-.14844.877-.22266 1.412-.22266.531 0 .963.0625 1.295.1875s.576.2832.732.47461c.157.1875.266.42578.329.71484.035.17969.052.50391.052.97266v1.40625c0 .98042.022 1.60152.065 1.86332.047.2578.137.5058.269.7441h-1.101c-.11-.2188-.18-.4746-.211-.7676zm-.088-2.35545c-.383.15625-.957.28907-1.723.39844-.433.0625-.74.13281-.92.21094-.179.07812-.318.19336-.416.3457-.097.14844-.146.31447-.146.49807 0 .2812.105.5156.316.7031.215.1875.528.2813.938.2813.406 0 .767-.0879 1.084-.2637.316-.1797.549-.4238.697-.7324.113-.2383.17-.58988.17-1.05473zm5.01 2.17965.152.9317c-.297.0625-.562.0937-.797.0937-.383 0-.68-.0605-.89-.1816-.211-.1211-.36-.2793-.446-.4746-.086-.1992-.129-.6153-.129-1.2481v-3.58004h-.773v-.82032h.773v-1.54101l1.049-.63281v2.17382h1.061v.82032h-1.061v3.63864c0 .3008.018.4942.053.5801.039.0859.099.1543.182.2051.085.0508.207.0762.363.0762.117 0 .271-.0137.463-.0411zm5.297-1.06051 1.089.13481c-.171.6367-.49 1.1308-.955 1.4824-.465.3515-1.058.5273-1.781.5273-.91 0-1.633-.2793-2.168-.8379-.531-.5625-.797-1.34958-.797-2.36129 0-1.04688.27-1.85938.809-2.4375.539-.57813 1.238-.86719 2.097-.86719.833 0 1.512.2832 2.04.84961.527.5664.791 1.36328.791 2.39062 0 .0625-.002.15625-.006.28125h-4.641c.039.6836.233 1.207.58 1.5703.348.3633.781.5449 1.301.5449.387 0 .717-.1015.99-.3046.274-.2032.49-.5274.651-.97271zm-3.463-1.70507h3.474c-.047-.52344-.179-.91602-.398-1.17774-.336-.40625-.772-.60937-1.307-.60937-.484 0-.892.16211-1.224.48632-.329.32422-.51.75782-.545 1.30079z" fill="#535a60"/><rect fill="#5eba7d" height="8" rx="1" width="8" x="203.5" y="3.5"/><path d="m215.482 12 3.299-8.58984h1.225l3.515 8.58984h-1.294l-1.002-2.60156h-3.592l-.944 2.60156zm2.479-3.52734h2.912l-.896-2.37891c-.274-.72266-.477-1.31641-.61-1.78125-.109.55078-.263 1.09766-.463 1.64062zm6.334 3.52734v-6.22266h.949v.88477c.457-.68359 1.117-1.02539 1.981-1.02539.375 0 .718.06836 1.031.20508.316.13281.553.30859.709.52734s.265.47852.328.7793c.039.19531.059.53711.059 1.02539v3.82617h-1.055v-3.78516c0-.42968-.041-.75-.123-.96093-.082-.21485-.229-.38477-.44-.50977-.207-.12891-.451-.19336-.732-.19336-.449 0-.838.14258-1.166.42774-.324.28515-.486.82617-.486 1.62304v3.39844zm6.258-1.8574 1.043-.16408c.058.41798.22.73828.486.96098.27.2226.645.3339 1.125.3339.484 0 .844-.0976 1.078-.2929.235-.1993.352-.4317.352-.6973 0-.2383-.104-.42578-.311-.5625-.144-.09375-.504-.21289-1.078-.35742-.773-.19531-1.31-.36328-1.611-.5039-.297-.14454-.524-.3418-.68-.5918-.152-.25391-.228-.5332-.228-.83789 0-.27735.062-.53321.187-.76758.129-.23828.303-.43555.522-.5918.164-.12109.386-.22265.667-.30469.286-.08593.59-.1289.915-.1289.488 0 .916.07031 1.283.21094.371.14062.644.33203.82.57422.176.23828.297.55859.363.96093l-1.031.14063c-.047-.32032-.184-.57032-.41-.75-.223-.17969-.539-.26953-.949-.26953-.485 0-.83.08007-1.037.24023s-.311.34766-.311.5625c0 .13672.043.25977.129.36914.086.11328.221.20703.404.28125.106.03906.416.12891.932.26953.746.19922 1.266.36328 1.558.49219.297.125.53.30859.698.55078s.252.54297.252.90237c0 .3515-.104.6836-.311.9961-.203.3086-.498.5488-.885.7207-.386.1679-.824.2519-1.312.2519-.809 0-1.426-.1679-1.852-.5039-.422-.3359-.691-.834-.808-1.4941zm7.57 1.8574-1.904-6.22266h1.09l.99 3.5918.369 1.33596c.016-.0664.123-.4942.322-1.28322l.99-3.64454h1.084l.932 3.60938.311 1.18948.357-1.2012 1.066-3.59766h1.026l-1.945 6.22266h-1.096l-.99-3.72656-.241-1.06055-1.259 4.78711zm11.783-2.00391 1.09.13481c-.172.6367-.49 1.1308-.955 1.4824-.465.3515-1.059.5273-1.781.5273-.91 0-1.633-.2793-2.168-.8379-.531-.5625-.797-1.34958-.797-2.36129 0-1.04688.269-1.85938.809-2.4375.539-.57813 1.238-.86719 2.097-.86719.832 0 1.512.2832 2.039.84961.528.5664.791 1.36328.791 2.39062 0 .0625-.002.15625-.006.28125h-4.64c.039.6836.232 1.207.58 1.5703.347.3633.781.5449 1.301.5449.386 0 .716-.1015.99-.3046.273-.2032.49-.5274.65-.97271zm-3.463-1.70507h3.475c-.047-.52344-.18-.91602-.398-1.17774-.336-.40625-.772-.60937-1.307-.60937-.484 0-.893.16211-1.225.48632-.328.32422-.509.75782-.545 1.30079zm5.871 3.70898v-6.22266h.95v.94336c.242-.4414.465-.73242.668-.87304.207-.14063.433-.21094.679-.21094.356 0 .717.11328 1.084.33984l-.363.97852c-.258-.15235-.516-.22852-.773-.22852-.231 0-.438.07032-.621.21094-.184.13672-.315.32812-.393.57422-.117.375-.176.78516-.176 1.23047v3.25781zm7.336 0v-6.22266h.95v.94336c.242-.4414.464-.73242.668-.87304.207-.14063.433-.21094.679-.21094.356 0 .717.11328 1.084.33984l-.363.97852c-.258-.15235-.516-.22852-.773-.22852-.231 0-.438.07032-.622.21094-.183.13672-.314.32812-.392.57422-.117.375-.176.78516-.176 1.23047v3.25781zm8.069-.7676c-.391.3321-.768.5664-1.131.7031-.359.1368-.746.2051-1.16.2051-.684 0-1.209-.166-1.576-.498-.368-.336-.551-.7637-.551-1.2832 0-.3047.068-.58206.205-.83206.14-.2539.322-.45703.545-.60937.226-.15235.48-.26758.761-.3457.208-.05469.52-.10743.938-.15821.852-.10156 1.479-.22265 1.881-.36328.004-.14453.006-.23633.006-.27539 0-.42969-.1-.73242-.299-.9082-.27-.23828-.67-.35742-1.201-.35742-.496 0-.864.08789-1.102.26367-.234.17187-.408.47851-.521.91992l-1.032-.14063c.094-.4414.248-.79687.463-1.0664.215-.27344.526-.48242.932-.62695.406-.14844.877-.22266 1.412-.22266.531 0 .963.0625 1.295.1875s.576.2832.732.47461c.157.1875.266.42578.329.71484.035.17969.052.50391.052.97266v1.40625c0 .98042.022 1.60152.065 1.86332.047.2578.136.5058.269.7441h-1.101c-.11-.2188-.18-.4746-.211-.7676zm-.088-2.35545c-.383.15625-.957.28907-1.723.39844-.433.0625-.74.13281-.92.21094-.179.07812-.318.19336-.416.3457-.097.14844-.146.31447-.146.49807 0 .2812.105.5156.316.7031.215.1875.528.2813.938.2813.406 0 .767-.0879 1.084-.2637.316-.1797.548-.4238.697-.7324.113-.2383.17-.58988.17-1.05473zm5.01 2.17965.152.9317c-.297.0625-.563.0937-.797.0937-.383 0-.68-.0605-.891-.1816-.21-.1211-.359-.2793-.445-.4746-.086-.1992-.129-.6153-.129-1.2481v-3.58004h-.773v-.82032h.773v-1.54101l1.049-.63281v2.17382h1.061v.82032h-1.061v3.63864c0 .3008.018.4942.053.5801.039.0859.099.1543.181.2051.086.0508.207.0762.364.0762.117 0 .271-.0137.463-.0411zm5.297-1.06051 1.089.13481c-.172.6367-.49 1.1308-.955 1.4824-.465.3515-1.058.5273-1.781.5273-.91 0-1.633-.2793-2.168-.8379-.531-.5625-.797-1.34958-.797-2.36129 0-1.04688.27-1.85938.809-2.4375.539-.57813 1.238-.86719 2.097-.86719.832 0 1.512.2832 2.039.84961.528.5664.791 1.36328.791 2.39062 0 .0625-.001.15625-.005.28125h-4.641c.039.6836.232 1.207.58 1.5703s.781.5449 1.301.5449c.387 0 .717-.1015.99-.3046.274-.2032.49-.5274.651-.97271zm-3.463-1.70507h3.474c-.047-.52344-.179-.91602-.398-1.17774-.336-.40625-.772-.60937-1.307-.60937-.484 0-.892.16211-1.224.48632-.329.32422-.51.75782-.545 1.30079z" fill="#535a60"/><path d="m292.5 6.5h8v2h-8z" fill="#f48024"/><path d="m304.482 12 3.299-8.58984h1.225l3.515 8.58984h-1.294l-1.002-2.60156h-3.592l-.944 2.60156zm2.479-3.52734h2.912l-.896-2.37891c-.274-.72266-.477-1.31641-.61-1.78125-.109.55078-.263 1.09766-.463 1.64062zm7.84 3.52734-2.367-6.22266h1.113l1.336 3.72657c.144.40234.277.82029.398 1.25389.094-.3281.225-.7226.393-1.18358l1.383-3.79688h1.084l-2.356 6.22266zm8.332-.7676c-.391.3321-.768.5664-1.131.7031-.359.1368-.746.2051-1.16.2051-.684 0-1.209-.166-1.576-.498-.368-.336-.551-.7637-.551-1.2832 0-.3047.068-.58206.205-.83206.141-.2539.322-.45703.545-.60937.226-.15235.48-.26758.762-.3457.207-.05469.519-.10743.937-.15821.852-.10156 1.479-.22265 1.881-.36328.004-.14453.006-.23633.006-.27539 0-.42969-.1-.73242-.299-.9082-.27-.23828-.67-.35742-1.201-.35742-.496 0-.863.08789-1.102.26367-.234.17187-.408.47851-.521.91992l-1.032-.14063c.094-.4414.249-.79687.463-1.0664.215-.27344.526-.48242.932-.62695.406-.14844.877-.22266 1.412-.22266.531 0 .963.0625 1.295.1875s.576.2832.732.47461c.157.1875.266.42578.329.71484.035.17969.052.50391.052.97266v1.40625c0 .98042.022 1.60152.065 1.86332.047.2578.136.5058.269.7441h-1.101c-.11-.2188-.18-.4746-.211-.7676zm-.088-2.35545c-.383.15625-.957.28907-1.723.39844-.433.0625-.74.13281-.92.21094-.179.07812-.318.19336-.416.3457-.097.14844-.146.31447-.146.49807 0 .2812.105.5156.316.7031.215.1875.528.2813.938.2813.406 0 .767-.0879 1.084-.2637.316-.1797.549-.4238.697-.7324.113-.2383.17-.58988.17-1.05473zm2.713-4.2539v-1.21289h1.054v1.21289zm0 7.37695v-6.22266h1.054v6.22266zm2.642 0v-8.58984h1.055v8.58984zm2.995 0v-1.2012h1.201v1.2012zm10.347 2.3848v-3.0469c-.164.2305-.394.4219-.691.5742-.293.1524-.606.2285-.938.2285-.738 0-1.375-.2949-1.91-.8847-.531-.5899-.797-1.39848-.797-2.42582 0-.625.108-1.18555.323-1.68164.218-.4961.533-.8711.943-1.125.414-.25782.867-.38672 1.359-.38672.77 0 1.375.32422 1.817.97266v-.83204h.949v8.60746zm-3.252-5.51371c0 .80079.168 1.40231.504 1.80471.336.3984.738.5976 1.207.5976.449 0 .836-.1894 1.16-.5683.325-.3828.487-.96291.487-1.74026 0-.82812-.172-1.45117-.516-1.86914-.34-.41797-.74-.62695-1.201-.62695-.457 0-.846.19531-1.166.58594-.317.38672-.475.99219-.475 1.8164zm10.043 3.12891v-.9141c-.484.7032-1.142 1.0547-1.974 1.0547-.368 0-.711-.0703-1.032-.2109-.316-.1406-.552-.3164-.709-.5274-.152-.2148-.259-.4765-.322-.7851-.043-.207-.064-.5352-.064-.98439v-3.85547h1.054v3.45118c0 .55078.022.92188.065 1.11328.066.2773.207.4961.422.6562.215.1563.48.2344.797.2344.316 0 .613-.0801.89-.2402.278-.1641.473-.3848.586-.6621.117-.2813.176-.68752.176-1.21877v-3.33399h1.055v6.22266zm6.862-2.00391 1.089.13481c-.172.6367-.49 1.1308-.955 1.4824-.465.3515-1.058.5273-1.781.5273-.91 0-1.633-.2793-2.168-.8379-.531-.5625-.797-1.34958-.797-2.36129 0-1.04688.27-1.85938.809-2.4375.539-.57813 1.238-.86719 2.097-.86719.832 0 1.512.2832 2.04.84961.527.5664.791 1.36328.791 2.39062 0 .0625-.002.15625-.006.28125h-4.641c.039.6836.232 1.207.58 1.5703s.781.5449 1.301.5449c.387 0 .717-.1015.99-.3046.274-.2032.49-.5274.651-.97271zm-3.463-1.70507h3.474c-.047-.52344-.179-.91602-.398-1.17774-.336-.40625-.772-.60937-1.307-.60937-.484 0-.892.16211-1.224.48632-.329.32422-.51.75782-.545 1.30079zm5.461 1.85158 1.043-.16408c.058.41798.22.73828.486.96098.269.2226.644.3339 1.125.3339.484 0 .844-.0976 1.078-.2929.234-.1993.352-.4317.352-.6973 0-.2383-.104-.42578-.311-.5625-.145-.09375-.504-.21289-1.078-.35742-.774-.19531-1.311-.36328-1.611-.5039-.297-.14454-.524-.3418-.68-.5918-.152-.25391-.229-.5332-.229-.83789 0-.27735.063-.53321.188-.76758.129-.23828.303-.43555.521-.5918.164-.12109.387-.22265.668-.30469.285-.08593.59-.1289.914-.1289.489 0 .916.07031 1.284.21094.371.14062.644.33203.82.57422.176.23828.297.55859.363.96093l-1.031.14063c-.047-.32032-.184-.57032-.41-.75-.223-.17969-.539-.26953-.949-.26953-.485 0-.831.08007-1.038.24023s-.31.34766-.31.5625c0 .13672.043.25977.129.36914.086.11328.221.20703.404.28125.106.03906.416.12891.932.26953.746.19922 1.265.36328 1.558.49219.297.125.53.30859.698.55078s.252.54297.252.90237c0 .3515-.104.6836-.311.9961-.203.3086-.498.5488-.885.7207-.386.1679-.824.2519-1.312.2519-.809 0-1.426-.1679-1.852-.5039-.422-.3359-.691-.834-.808-1.4941zm8.724.914.153.9317c-.297.0625-.563.0937-.797.0937-.383 0-.68-.0605-.891-.1816s-.359-.2793-.445-.4746c-.086-.1992-.129-.6153-.129-1.2481v-3.58004h-.774v-.82032h.774v-1.54101l1.049-.63281v2.17382h1.06v.82032h-1.06v3.63864c0 .3008.017.4942.052.5801.039.0859.1.1543.182.2051.086.0508.207.0762.363.0762.117 0 .272-.0137.463-.0411zm1.043-6.43355v-1.21289h1.055v1.21289zm0 7.37695v-6.22266h1.055v6.22266zm2.274-3.11133c0-1.15234.32-2.00586.961-2.56055.535-.46093 1.187-.6914 1.957-.6914.855 0 1.554.28125 2.097.84375.543.55859.815 1.33203.815 2.32031 0 .80078-.121 1.43162-.364 1.89262-.238.457-.588.8125-1.048 1.0664-.457.2539-.957.3808-1.5.3808-.872 0-1.577-.2793-2.116-.8379-.535-.5586-.802-1.36325-.802-2.41403zm1.084 0c0 .79688.173 1.39453.521 1.79293.348.3946.785.5918 1.313.5918.523 0 .959-.1992 1.306-.5976.348-.3985.522-1.00588.522-1.82228 0-.76954-.176-1.35157-.528-1.7461-.347-.39844-.781-.59765-1.3-.59765-.528 0-.965.19726-1.313.59179s-.521.99024-.521 1.78711zm5.988 3.11133v-6.22266h.949v.88477c.457-.68359 1.117-1.02539 1.981-1.02539.375 0 .718.06836 1.031.20508.316.13281.553.30859.709.52734s.265.47852.328.7793c.039.19531.058.53711.058 1.02539v3.82617h-1.054v-3.78516c0-.42968-.041-.75-.123-.96093-.082-.21485-.229-.38477-.44-.50977-.207-.12891-.451-.19336-.732-.19336-.449 0-.838.14258-1.166.42774-.324.28515-.486.82617-.486 1.62304v3.39844zm6.258-1.8574 1.043-.16408c.058.41798.22.73828.486.96098.269.2226.645.3339 1.125.3339.484 0 .844-.0976 1.078-.2929.234-.1993.352-.4317.352-.6973 0-.2383-.104-.42578-.311-.5625-.144-.09375-.504-.21289-1.078-.35742-.773-.19531-1.311-.36328-1.611-.5039-.297-.14454-.524-.3418-.68-.5918-.152-.25391-.229-.5332-.229-.83789 0-.27735.063-.53321.188-.76758.129-.23828.303-.43555.521-.5918.164-.12109.387-.22265.668-.30469.286-.08593.59-.1289.914-.1289.489 0 .916.07031 1.284.21094.371.14062.644.33203.82.57422.176.23828.297.55859.363.96093l-1.031.14063c-.047-.32032-.184-.57032-.41-.75-.223-.17969-.539-.26953-.949-.26953-.485 0-.83.08007-1.037.24023-.208.16016-.311.34766-.311.5625 0 .13672.043.25977.129.36914.086.11328.221.20703.404.28125.106.03906.416.12891.932.26953.746.19922 1.265.36328 1.558.49219.297.125.53.30859.698.55078s.252.54297.252.90237c0 .3515-.104.6836-.311.9961-.203.3086-.498.5488-.885.7207-.386.1679-.824.2519-1.312.2519-.809 0-1.426-.1679-1.852-.5039-.422-.3359-.691-.834-.808-1.4941z" fill="#535a60"/><path d="m489 181h-440v1h440z" fill="#bbc0c4"/><path d="m50 37h-1v145h1z" fill="#bbc0c4"/><path d="m18.1299 41h-.8789v-5.6006c-.2116.2018-.4899.4037-.835.6055-.3418.2018-.6494.3532-.9228.4541v-.8496c.4915-.2311.9212-.5111 1.289-.8399.3679-.3287.6283-.6478.7813-.957h.5664zm2.2558-3.5303c0-.8463.0863-1.5267.2588-2.041.1758-.5176.4346-.9163.7764-1.1963.3451-.2799.778-.4199 1.2988-.4199.3841 0 .7211.0781 1.0108.2344.2897.153.5289.376.7177.6689.1888.2897.337.6446.4444 1.0645.1074.4166.1611.9798.1611 1.6894 0 .8399-.0863 1.5186-.2588 2.0362-.1725.5143-.4313.913-.7763 1.1962-.3418.28-.7748.42-1.2989.42-.6901 0-1.2321-.2474-1.6259-.7422-.4721-.5957-.7081-1.5658-.7081-2.9102zm.9034 0c0 1.1752.1367 1.958.4101 2.3487.2767.3873.6169.581 1.0205.581.4037 0 .7422-.1953 1.0157-.5859.2766-.3906.415-1.1719.415-2.3438 0-1.1784-.1384-1.9612-.415-2.3486-.2735-.3874-.6153-.5811-1.0254-.5811-.4037 0-.726.1709-.9668.5127-.3028.4362-.4541 1.2419-.4541 2.417zm4.663 0c0-.8463.0863-1.5267.2588-2.041.1758-.5176.4346-.9163.7764-1.1963.3451-.2799.778-.4199 1.2988-.4199.3841 0 .7211.0781 1.0108.2344.2897.153.5289.376.7177.6689.1889.2897.337.6446.4444 1.0645.1074.4166.1611.9798.1611 1.6894 0 .8399-.0862 1.5186-.2588 2.0362-.1725.5143-.4313.913-.7763 1.1962-.3418.28-.7748.42-1.2989.42-.6901 0-1.2321-.2474-1.6259-.7422-.472-.5957-.7081-1.5658-.7081-2.9102zm.9034 0c0 1.1752.1367 1.958.4101 2.3487.2767.3873.6169.581 1.0205.581.4037 0 .7422-.1953 1.0157-.5859.2767-.3906.415-1.1719.415-2.3438 0-1.1784-.1383-1.9612-.415-2.3486-.2735-.3874-.6153-.5811-1.0254-.5811-.4037 0-.7259.1709-.9668.5127-.3028.4362-.4541 1.2419-.4541 2.417zm4.8291-1.9092c0-.511.1286-.9456.3857-1.3037.2572-.358.6299-.5371 1.1182-.5371.4492 0 .8203.1612 1.1133.4834.2962.319.4443.7894.4443 1.4112 0 .6054-.1497 1.0725-.4492 1.4013-.2962.3255-.6625.4883-1.0987.4883-.4329 0-.7942-.1611-1.0839-.4834-.2865-.3223-.4297-.8089-.4297-1.46zm1.5283-1.2353c-.2181 0-.4004.0944-.5469.2832-.1432.1888-.2148.5355-.2148 1.04 0 .459.0732.7829.2197.9717.1465.1856.3271.2783.542.2783.2213 0 .4036-.0944.5469-.2832.1464-.1888.2197-.5338.2197-1.0351 0-.4623-.0733-.7862-.2197-.9717-.1465-.1888-.3288-.2832-.5469-.2832zm.0049 6.9385 3.916-7.544h.7129l-3.9014 7.544zm3.0957-1.9434c0-.5143.1286-.9489.3857-1.3037.2572-.3581.6315-.5371 1.1231-.5371.4492 0 .8203.1611 1.1132.4834.2963.319.4444.7894.4444 1.4111 0 .6055-.1498 1.0726-.4492 1.4014-.2963.3255-.6641.4883-1.1036.4883-.4329 0-.7942-.1612-1.0839-.4834-.2865-.3255-.4297-.8122-.4297-1.46zm1.5332-1.2353c-.2214 0-.4053.0944-.5518.2832-.1432.1888-.2148.5354-.2148 1.04 0 .4557.0732.778.2197.9668s.3272.2832.542.2832c.2246 0 .4085-.0944.5518-.2832.1464-.1888.2197-.5339.2197-1.0352 0-.4622-.0733-.7861-.2197-.9716-.1465-.1888-.3288-.2832-.5469-.2832z" fill="#6a737c"/><path d="m20.4443 70.7793v-.8447h4.6338v.6836c-.4557.485-.9082 1.1295-1.3574 1.9336-.446.804-.791 1.6308-1.0352 2.4804-.1757.599-.288 1.2549-.3369 1.9678h-.9033c.0098-.5632.1205-1.2435.332-2.041.2116-.7975.5144-1.5658.9082-2.3047.3972-.7422.8187-1.3672 1.2647-1.875zm5.5078 4.3457.9229-.0781c.0684.4492.2262.7877.4736 1.0156.2507.2246.5518.3369.9034.3369.4231 0 .7812-.1595 1.0742-.4785.2929-.319.4394-.7422.4394-1.2695 0-.5013-.1416-.8968-.4248-1.1866-.2799-.2897-.6478-.4345-1.1035-.4345-.2832 0-.5387.0651-.7666.1953-.2279.1269-.4069.293-.5371.498l-.8252-.1074.6934-3.6767h3.5595v.8398h-2.8564l-.3858 1.9238c.4297-.2995.8806-.4492 1.3526-.4492.625 0 1.1523.2165 1.582.6494.4297.433.6445.9896.6445 1.6699 0 .6478-.1888 1.2077-.5664 1.6797-.4589.5795-1.0856.8692-1.8798.8692-.6511 0-1.1833-.1823-1.5967-.5469-.4102-.3646-.6446-.848-.7032-1.4502zm5.7325-3.5645c0-.511.1286-.9456.3857-1.3037.2572-.358.6299-.5371 1.1182-.5371.4492 0 .8203.1612 1.1133.4834.2962.319.4443.7894.4443 1.4112 0 .6054-.1497 1.0725-.4492 1.4013-.2962.3255-.6625.4883-1.0987.4883-.4329 0-.7942-.1611-1.0839-.4834-.2865-.3223-.4297-.8089-.4297-1.46zm1.5283-1.2353c-.2181 0-.4004.0944-.5469.2832-.1432.1888-.2148.5355-.2148 1.04 0 .459.0732.7829.2197.9717.1465.1856.3271.2783.542.2783.2213 0 .4036-.0944.5469-.2832.1464-.1888.2197-.5338.2197-1.0351 0-.4623-.0733-.7862-.2197-.9717-.1465-.1888-.3288-.2832-.5469-.2832zm.0049 6.9385 3.916-7.544h.7129l-3.9014 7.544zm3.0957-1.9434c0-.5143.1286-.9489.3857-1.3037.2572-.3581.6315-.5371 1.1231-.5371.4492 0 .8203.1611 1.1132.4834.2963.319.4444.7894.4444 1.4111 0 .6055-.1498 1.0726-.4492 1.4014-.2963.3255-.6641.4883-1.1036.4883-.4329 0-.7942-.1612-1.0839-.4834-.2865-.3255-.4297-.8122-.4297-1.46zm1.5332-1.2353c-.2214 0-.4053.0944-.5518.2832-.1432.1888-.2148.5354-.2148 1.04 0 .4557.0732.778.2197.9668s.3272.2832.542.2832c.2246 0 .4085-.0944.5518-.2832.1464-.1888.2197-.5339.2197-1.0352 0-.4622-.0733-.7861-.2197-.9716-.1465-.1888-.3288-.2832-.5469-.2832z" fill="#6a737c"/><path d="m20.3857 111.125.9229-.078c.0684.449.2262.788.4736 1.015.2507.225.5518.337.9033.337.4232 0 .7813-.159 1.0743-.478.2929-.319.4394-.742.4394-1.27 0-.501-.1416-.896-.4248-1.186-.2799-.29-.6478-.435-1.1035-.435-.2832 0-.5387.065-.7666.196-.2279.127-.4069.293-.5371.498l-.8252-.108.6934-3.677h3.5595v.84h-2.8564l-.3858 1.924c.4297-.299.8806-.449 1.3526-.449.625 0 1.1523.216 1.582.649s.6445.99.6445 1.67c0 .648-.1888 1.208-.5664 1.68-.459.579-1.0856.869-1.8799.869-.651 0-1.1832-.182-1.5966-.547-.4102-.364-.6446-.848-.7032-1.45zm5.5664-1.655c0-.847.0863-1.527.2588-2.041.1758-.518.4346-.917.7764-1.197.3451-.28.778-.42 1.2988-.42.3841 0 .7211.079 1.0108.235.2897.153.5289.376.7177.669.1889.29.337.644.4444 1.064.1074.417.1611.98.1611 1.69 0 .84-.0862 1.518-.2588 2.036-.1725.514-.4313.913-.7763 1.196-.3418.28-.7748.42-1.2989.42-.6901 0-1.2321-.247-1.6259-.742-.472-.596-.7081-1.566-.7081-2.91zm.9034 0c0 1.175.1367 1.958.4101 2.348.2767.388.6169.581 1.0205.581.4037 0 .7422-.195 1.0157-.586.2767-.39.415-1.171.415-2.343 0-1.179-.1383-1.962-.415-2.349-.2735-.387-.6153-.581-1.0254-.581-.4037 0-.7259.171-.9668.513-.3028.436-.4541 1.242-.4541 2.417zm4.8291-1.909c0-.512.1286-.946.3857-1.304.2572-.358.6299-.537 1.1182-.537.4492 0 .8203.161 1.1133.483.2962.319.4443.79.4443 1.411 0 .606-.1497 1.073-.4492 1.402-.2962.325-.6625.488-1.0987.488-.4329 0-.7942-.161-1.0839-.483-.2865-.323-.4297-.809-.4297-1.46zm1.5283-1.236c-.2181 0-.4004.095-.5469.283-.1432.189-.2148.536-.2148 1.04 0 .459.0732.783.2197.972.1465.186.3271.278.542.278.2213 0 .4036-.094.5469-.283.1464-.189.2197-.534.2197-1.035 0-.462-.0733-.786-.2197-.972-.1465-.188-.3288-.283-.5469-.283zm.0049 6.939 3.916-7.544h.7129l-3.9014 7.544zm3.0957-1.944c0-.514.1286-.949.3857-1.303.2572-.358.6315-.538 1.1231-.538.4492 0 .8203.162 1.1132.484.2963.319.4444.789.4444 1.411 0 .605-.1498 1.073-.4492 1.401-.2963.326-.6641.489-1.1036.489-.4329 0-.7942-.161-1.0839-.484-.2865-.325-.4297-.812-.4297-1.46zm1.5332-1.235c-.2214 0-.4053.094-.5518.283-.1432.189-.2148.536-.2148 1.04 0 .456.0732.778.2197.967s.3272.283.542.283c.2246 0 .4085-.094.5518-.283.1464-.189.2197-.534.2197-1.035 0-.462-.0733-.786-.2197-.972-.1465-.189-.3288-.283-.5469-.283z" fill="#6a737c"/><path d="m25.0049 148.155v.845h-4.7315c-.0065-.212.0277-.415.1026-.61.1204-.323.3125-.64.5761-.952.267-.313.6511-.674 1.1524-1.084.778-.639 1.3037-1.143 1.5771-1.514.2735-.375.4102-.728.4102-1.06 0-.348-.1253-.641-.376-.879-.2474-.241-.5713-.361-.9717-.361-.4231 0-.7617.127-1.0156.381s-.3825.605-.3857 1.055l-.9033-.093c.0618-.674.2945-1.187.6982-1.538.4036-.355.9456-.533 1.626-.533.6868 0 1.2304.191 1.6308.572s.6006.853.6006 1.416c0 .286-.0586.568-.1758.845-.1172.276-.3125.568-.5859.874-.2702.306-.721.725-1.3525 1.259-.5274.443-.8659.744-1.0157.904-.1497.156-.2734.314-.3711.473zm.9472-1.03.9229-.078c.0684.449.2262.788.4736 1.015.2507.225.5518.337.9034.337.4231 0 .7812-.159 1.0742-.478.2929-.319.4394-.742.4394-1.27 0-.501-.1416-.896-.4248-1.186-.2799-.29-.6478-.435-1.1035-.435-.2832 0-.5387.065-.7666.196-.2279.127-.4069.293-.5371.498l-.8252-.108.6934-3.677h3.5595v.84h-2.8564l-.3858 1.924c.4297-.299.8806-.449 1.3526-.449.625 0 1.1523.216 1.582.649s.6445.99.6445 1.67c0 .648-.1888 1.208-.5664 1.68-.4589.579-1.0856.869-1.8798.869-.6511 0-1.1833-.182-1.5967-.547-.4102-.364-.6446-.848-.7032-1.45zm5.7325-3.564c0-.512.1286-.946.3857-1.304.2572-.358.6299-.537 1.1182-.537.4492 0 .8203.161 1.1133.483.2962.319.4443.79.4443 1.411 0 .606-.1497 1.073-.4492 1.402-.2962.325-.6625.488-1.0987.488-.4329 0-.7942-.161-1.0839-.483-.2865-.323-.4297-.809-.4297-1.46zm1.5283-1.236c-.2181 0-.4004.095-.5469.283-.1432.189-.2148.536-.2148 1.04 0 .459.0732.783.2197.972.1465.186.3271.278.542.278.2213 0 .4036-.094.5469-.283.1464-.189.2197-.534.2197-1.035 0-.462-.0733-.786-.2197-.972-.1465-.188-.3288-.283-.5469-.283zm.0049 6.939 3.916-7.544h.7129l-3.9014 7.544zm3.0957-1.944c0-.514.1286-.949.3857-1.303.2572-.358.6315-.538 1.1231-.538.4492 0 .8203.162 1.1132.484.2963.319.4444.789.4444 1.411 0 .605-.1498 1.073-.4492 1.401-.2963.326-.6641.489-1.1036.489-.4329 0-.7942-.161-1.0839-.484-.2865-.325-.4297-.812-.4297-1.46zm1.5332-1.235c-.2214 0-.4053.094-.5518.283-.1432.189-.2148.536-.2148 1.04 0 .456.0732.778.2197.967s.3272.283.542.283c.2246 0 .4085-.094.5518-.283.1464-.189.2197-.534.2197-1.035 0-.462-.0733-.786-.2197-.972-.1465-.189-.3288-.283-.5469-.283z" fill="#6a737c"/><path d="m25.9521 181.47c0-.847.0863-1.527.2588-2.041.1758-.518.4346-.917.7764-1.197.3451-.28.778-.42 1.2988-.42.3841 0 .7211.079 1.0108.235.2897.153.5289.376.7177.669.1889.29.337.644.4444 1.064.1074.417.1611.98.1611 1.69 0 .84-.0862 1.518-.2588 2.036-.1725.514-.4313.913-.7763 1.196-.3418.28-.7748.42-1.2989.42-.6901 0-1.2321-.247-1.6259-.742-.472-.596-.7081-1.566-.7081-2.91zm.9034 0c0 1.175.1367 1.958.4101 2.348.2767.388.6169.581 1.0205.581.4037 0 .7422-.195 1.0157-.586.2767-.39.415-1.171.415-2.343 0-1.179-.1383-1.962-.415-2.349-.2735-.387-.6153-.581-1.0254-.581-.4037 0-.7259.171-.9668.513-.3028.436-.4541 1.242-.4541 2.417zm4.8291-1.909c0-.512.1286-.946.3857-1.304.2572-.358.6299-.537 1.1182-.537.4492 0 .8203.161 1.1133.483.2962.319.4443.79.4443 1.411 0 .606-.1497 1.073-.4492 1.402-.2962.325-.6625.488-1.0987.488-.4329 0-.7942-.161-1.0839-.483-.2865-.323-.4297-.809-.4297-1.46zm1.5283-1.236c-.2181 0-.4004.095-.5469.283-.1432.189-.2148.536-.2148 1.04 0 .459.0732.783.2197.972.1465.186.3271.278.542.278.2213 0 .4036-.094.5469-.283.1464-.189.2197-.534.2197-1.035 0-.462-.0733-.786-.2197-.972-.1465-.188-.3288-.283-.5469-.283zm.0049 6.939 3.916-7.544h.7129l-3.9014 7.544zm3.0957-1.944c0-.514.1286-.949.3857-1.303.2572-.358.6315-.538 1.1231-.538.4492 0 .8203.162 1.1132.484.2963.319.4444.789.4444 1.411 0 .605-.1498 1.073-.4492 1.401-.2963.326-.6641.489-1.1036.489-.4329 0-.7942-.161-1.0839-.484-.2865-.325-.4297-.812-.4297-1.46zm1.5332-1.235c-.2214 0-.4053.094-.5518.283-.1432.189-.2148.536-.2148 1.04 0 .456.0732.778.2197.967s.3272.283.542.283c.2246 0 .4085-.094.5518-.283.1464-.189.2197-.534.2197-1.035 0-.462-.0733-.786-.2197-.972-.1465-.189-.3288-.283-.5469-.283z" fill="#6a737c"/><path d="m44 37h6v1h-6z" fill="#48a868"/><path d="m44 73h6v1h-6z" fill="#48a868"/><path d="m44 109h6v1h-6z" fill="#48a868"/><path d="m44 145h6v1h-6z" fill="#48a868"/><path d="m44 181h6v1h-6z" fill="#48a868"/><g fill="#bbc0c4"><path d="m80.5 181h1v6h-1z"/><path d="m127.5 181h1v6h-1z"/><path d="m174.5 181h1v6h-1z"/><path d="m221.5 181h1v6h-1z"/><path d="m268.5 181h1v6h-1z"/><path d="m315.5 181h1v6h-1z"/><path d="m362.5 181h1v6h-1z"/><path d="m409.5 181h1v6h-1z"/></g><path d="m63.8979 202v-7.874h1.0689l4.1357 6.182v-6.182h.9991v7.874h-1.0689l-4.1357-6.188v6.188zm7.4766-2.852c0-1.056.2936-1.839.8809-2.347.4905-.423 1.0885-.634 1.7939-.634.7842 0 1.4251.258 1.9229.773.4977.512.7466 1.221.7466 2.127 0 .734-.1111 1.313-.3331 1.735-.2184.419-.5389.745-.9614.978-.4189.233-.8773.349-1.375.349-.7985 0-1.4448-.256-1.9389-.768-.4906-.512-.7359-1.25-.7359-2.213zm.9937 0c0 .73.1593 1.278.478 1.644.3187.361.7197.542 1.2031.542.4798 0 .8791-.183 1.1978-.548s.478-.922.478-1.67c0-.706-.1611-1.239-.4834-1.601-.3187-.365-.7161-.548-1.1924-.548-.4834 0-.8844.181-1.2031.543-.3187.361-.478.907-.478 1.638zm7.0737 2.852-2.1699-5.704h1.0205l1.2246 3.416c.1325.369.2542.752.3652 1.149.086-.3.2059-.662.3599-1.085l1.2676-3.48h.9936l-2.1592 5.704zm6.7139-2.079.9668-.129c.111.548.2989.944.5639 1.187.2686.24.5944.36.9776.36.4547 0 .8379-.157 1.1494-.472.3151-.315.4726-.706.4726-1.171 0-.444-.145-.809-.435-1.096-.2901-.29-.6589-.435-1.1065-.435-.1826 0-.41.036-.6821.107l.1074-.848c.0645.007.1164.011.1558.011.4118 0 .7824-.108 1.1118-.323s.4941-.546.4941-.993c0-.355-.1199-.648-.3598-.881s-.5497-.349-.9292-.349c-.376 0-.6893.118-.94.354-.2506.236-.4117.591-.4834 1.064l-.9668-.172c.1182-.648.3868-1.15.8057-1.504.419-.358.9399-.537 1.563-.537.4297 0 .8254.093 1.187.279.3617.183.6374.433.8272.752.1933.319.29.657.29 1.015 0 .34-.0913.65-.2739.929-.1826.28-.453.502-.8111.666.4655.108.8272.332 1.085.672.2578.336.3867.759.3867 1.267 0 .688-.2506 1.271-.7519 1.751-.5013.477-1.1351.715-1.9014.715-.6911 0-1.2658-.206-1.7241-.618-.4548-.412-.7144-.945-.7788-1.601zm6.1176-1.804c0-.931.0949-1.68.2847-2.245.1934-.57.478-1.008.854-1.316.3796-.308.8558-.462 1.4287-.462.4225 0 .7932.086 1.1118.258.3187.168.5819.413.7896.735.2077.319.3706.709.4888 1.171.1181.459.1772 1.078.1772 1.859 0 .924-.0949 1.67-.2847 2.239-.1897.566-.4744 1.005-.854 1.316-.3759.308-.8522.462-1.4287.462-.7591 0-1.3553-.272-1.7886-.816-.5192-.655-.7788-1.722-.7788-3.201zm.9937 0c0 1.292.1504 2.154.4512 2.583.3043.426.6785.639 1.1225.639s.8164-.214 1.1172-.644c.3044-.43.4566-1.289.4566-2.578 0-1.297-.1522-2.158-.4566-2.584-.3008-.426-.6768-.639-1.1279-.639-.444 0-.7985.188-1.0635.564-.333.48-.4995 1.366-.4995 2.659z" fill="#6a737c"/><path d="m113.97 202v-7.874h2.713c.612 0 1.079.038 1.401.113.452.104.837.292 1.155.564.416.351.725.8.929 1.348.208.544.312 1.167.312 1.869 0 .598-.07 1.128-.209 1.59-.14.462-.319.845-.538 1.149-.218.301-.458.539-.719.715-.258.172-.571.302-.94.392-.366.089-.786.134-1.262.134zm1.042-.929h1.681c.52 0 .926-.049 1.22-.145.297-.097.533-.233.709-.408.247-.247.438-.579.574-.994.14-.419.21-.926.21-1.52 0-.824-.136-1.456-.408-1.896-.269-.444-.597-.741-.983-.892-.28-.107-.729-.161-1.348-.161h-1.655zm10.689-.908.999.124c-.158.583-.45 1.036-.876 1.359-.426.322-.97.483-1.633.483-.834 0-1.496-.256-1.987-.768-.487-.516-.73-1.237-.73-2.165 0-.959.247-1.704.741-2.234s1.135-.795 1.923-.795c.762 0 1.385.26 1.869.779.483.519.725 1.249.725 2.191 0 .057-.002.143-.005.258h-4.254c.035.627.213 1.106.531 1.439.319.333.717.5 1.193.5.354 0 .657-.093.907-.279.251-.187.45-.484.597-.892zm-3.175-1.563h3.185c-.043-.48-.164-.84-.365-1.079-.308-.373-.707-.559-1.198-.559-.444 0-.818.149-1.122.446-.301.297-.467.694-.5 1.192zm9.115 1.311.951.123c-.104.655-.371 1.169-.8 1.542-.427.368-.951.553-1.574.553-.781 0-1.409-.254-1.885-.763-.473-.512-.709-1.244-.709-2.197 0-.615.102-1.154.306-1.616s.514-.808.929-1.037c.419-.233.874-.349 1.364-.349.62 0 1.126.158 1.52.473.394.311.646.755.757 1.332l-.939.145c-.09-.383-.249-.672-.478-.865-.226-.193-.5-.29-.822-.29-.487 0-.883.175-1.187.526-.305.348-.457.899-.457 1.655 0 .766.147 1.323.441 1.67.293.347.676.521 1.149.521.38 0 .696-.116.951-.349.254-.233.415-.591.483-1.074zm4.635-4.754v-.929h5.098v.752c-.502.534-.999 1.242-1.494 2.127-.49.884-.87 1.794-1.138 2.728-.194.659-.317 1.381-.371 2.165h-.994c.011-.619.133-1.368.366-2.245.232-.877.565-1.722.999-2.535.437-.817.9-1.504 1.391-2.063z" fill="#6a737c"/><path d="m157.909 202v-7.874h2.712c.612 0 1.08.038 1.402.113.451.104.836.292 1.155.564.415.351.725.8.929 1.348.208.544.311 1.167.311 1.869 0 .598-.069 1.128-.209 1.59s-.319.845-.537 1.149c-.219.301-.458.539-.72.715-.258.172-.571.302-.94.392-.365.089-.786.134-1.262.134zm1.042-.929h1.681c.519 0 .925-.049 1.219-.145.297-.097.534-.233.709-.408.247-.247.439-.579.575-.994.139-.419.209-.926.209-1.52 0-.824-.136-1.456-.408-1.896-.269-.444-.596-.741-.983-.892-.279-.107-.729-.161-1.348-.161h-1.654zm10.688-.908.999.124c-.157.583-.449 1.036-.875 1.359-.426.322-.971.483-1.633.483-.834 0-1.497-.256-1.987-.768-.487-.516-.731-1.237-.731-2.165 0-.959.247-1.704.741-2.234s1.135-.795 1.923-.795c.763 0 1.386.26 1.869.779.484.519.725 1.249.725 2.191 0 .057-.001.143-.005.258h-4.254c.036.627.213 1.106.532 1.439s.716.5 1.192.5c.355 0 .657-.093.908-.279.251-.187.449-.484.596-.892zm-3.174-1.563h3.185c-.043-.48-.165-.84-.365-1.079-.308-.373-.708-.559-1.198-.559-.444 0-.818.149-1.123.446-.3.297-.467.694-.499 1.192zm9.115 1.311.95.123c-.104.655-.37 1.169-.8 1.542-.426.368-.951.553-1.574.553-.78 0-1.409-.254-1.885-.763-.473-.512-.709-1.244-.709-2.197 0-.615.102-1.154.306-1.616s.514-.808.929-1.037c.419-.233.874-.349 1.365-.349.619 0 1.126.158 1.52.473.394.311.646.755.757 1.332l-.94.145c-.089-.383-.249-.672-.478-.865-.226-.193-.5-.29-.822-.29-.487 0-.882.175-1.187.526-.304.348-.456.899-.456 1.655 0 .766.146 1.323.44 1.67s.677.521 1.15.521c.379 0 .696-.116.95-.349s.416-.591.484-1.074zm8.212 2.089h-.967v-6.161c-.233.222-.539.444-.918.666-.376.222-.715.389-1.015.5v-.935c.54-.254 1.013-.562 1.418-.924.404-.361.691-.712.859-1.052h.623zm5.581 0v-1.885h-3.416v-.886l3.593-5.103h.789v5.103h1.064v.886h-1.064v1.885zm0-2.771v-3.551l-2.466 3.551z" fill="#6a737c"/><path d="m204.909 202v-7.874h2.712c.612 0 1.08.038 1.402.113.451.104.836.292 1.155.564.415.351.725.8.929 1.348.208.544.311 1.167.311 1.869 0 .598-.069 1.128-.209 1.59s-.319.845-.537 1.149c-.219.301-.458.539-.72.715-.258.172-.571.302-.94.392-.365.089-.786.134-1.262.134zm1.042-.929h1.681c.519 0 .925-.049 1.219-.145.297-.097.534-.233.709-.408.247-.247.439-.579.575-.994.139-.419.209-.926.209-1.52 0-.824-.136-1.456-.408-1.896-.269-.444-.596-.741-.983-.892-.279-.107-.729-.161-1.348-.161h-1.654zm10.688-.908.999.124c-.157.583-.449 1.036-.875 1.359-.426.322-.971.483-1.633.483-.834 0-1.497-.256-1.987-.768-.487-.516-.731-1.237-.731-2.165 0-.959.247-1.704.741-2.234s1.135-.795 1.923-.795c.763 0 1.386.26 1.869.779.484.519.725 1.249.725 2.191 0 .057-.001.143-.005.258h-4.254c.036.627.213 1.106.532 1.439s.716.5 1.192.5c.355 0 .657-.093.908-.279.251-.187.449-.484.596-.892zm-3.174-1.563h3.185c-.043-.48-.165-.84-.365-1.079-.308-.373-.708-.559-1.198-.559-.444 0-.818.149-1.123.446-.3.297-.467.694-.499 1.192zm9.115 1.311.95.123c-.104.655-.37 1.169-.8 1.542-.426.368-.951.553-1.574.553-.78 0-1.409-.254-1.885-.763-.473-.512-.709-1.244-.709-2.197 0-.615.102-1.154.306-1.616s.514-.808.929-1.037c.419-.233.874-.349 1.365-.349.619 0 1.126.158 1.52.473.394.311.646.755.757 1.332l-.94.145c-.089-.383-.249-.672-.478-.865-.226-.193-.5-.29-.822-.29-.487 0-.882.175-1.187.526-.304.348-.456.899-.456 1.655 0 .766.146 1.323.44 1.67s.677.521 1.15.521c.379 0 .696-.116.95-.349s.416-.591.484-1.074zm9.651 1.16v.929h-5.204c-.007-.233.03-.457.113-.671.132-.355.343-.704.633-1.048.294-.343.717-.741 1.268-1.192.856-.702 1.434-1.257 1.735-1.665.301-.412.451-.8.451-1.166 0-.383-.138-.705-.414-.966-.272-.265-.628-.398-1.068-.398-.466 0-.838.14-1.118.419-.279.279-.42.666-.424 1.16l-.994-.102c.069-.741.325-1.305.769-1.692.444-.39 1.04-.585 1.788-.585.756 0 1.354.209 1.794.628s.661.938.661 1.558c0 .315-.065.625-.194.929s-.343.625-.644.961c-.297.337-.793.799-1.488 1.386-.58.487-.952.818-1.117.994-.165.172-.301.345-.408.521zm4.684.929h-.967v-6.161c-.233.222-.539.444-.918.666-.376.222-.715.389-1.015.5v-.935c.54-.254 1.013-.562 1.418-.924.404-.361.691-.712.859-1.052h.623z" fill="#6a737c"/><path d="m251.909 202v-7.874h2.712c.612 0 1.08.038 1.402.113.451.104.836.292 1.155.564.415.351.725.8.929 1.348.208.544.311 1.167.311 1.869 0 .598-.069 1.128-.209 1.59s-.319.845-.537 1.149c-.219.301-.458.539-.72.715-.258.172-.571.302-.94.392-.365.089-.786.134-1.262.134zm1.042-.929h1.681c.519 0 .925-.049 1.219-.145.297-.097.534-.233.709-.408.247-.247.439-.579.575-.994.139-.419.209-.926.209-1.52 0-.824-.136-1.456-.408-1.896-.269-.444-.596-.741-.983-.892-.279-.107-.729-.161-1.348-.161h-1.654zm10.688-.908.999.124c-.157.583-.449 1.036-.875 1.359-.426.322-.971.483-1.633.483-.834 0-1.497-.256-1.987-.768-.487-.516-.731-1.237-.731-2.165 0-.959.247-1.704.741-2.234s1.135-.795 1.923-.795c.763 0 1.386.26 1.869.779.484.519.725 1.249.725 2.191 0 .057-.001.143-.005.258h-4.254c.036.627.213 1.106.532 1.439s.716.5 1.192.5c.355 0 .657-.093.908-.279.251-.187.449-.484.596-.892zm-3.174-1.563h3.185c-.043-.48-.165-.84-.365-1.079-.308-.373-.708-.559-1.198-.559-.444 0-.818.149-1.123.446-.3.297-.467.694-.499 1.192zm9.115 1.311.95.123c-.104.655-.37 1.169-.8 1.542-.426.368-.951.553-1.574.553-.78 0-1.409-.254-1.885-.763-.473-.512-.709-1.244-.709-2.197 0-.615.102-1.154.306-1.616s.514-.808.929-1.037c.419-.233.874-.349 1.365-.349.619 0 1.126.158 1.52.473.394.311.646.755.757 1.332l-.94.145c-.089-.383-.249-.672-.478-.865-.226-.193-.5-.29-.822-.29-.487 0-.882.175-1.187.526-.304.348-.456.899-.456 1.655 0 .766.146 1.323.44 1.67s.677.521 1.15.521c.379 0 .696-.116.95-.349s.416-.591.484-1.074zm9.651 1.16v.929h-5.204c-.007-.233.03-.457.113-.671.132-.355.343-.704.633-1.048.294-.343.717-.741 1.268-1.192.856-.702 1.434-1.257 1.735-1.665.301-.412.451-.8.451-1.166 0-.383-.138-.705-.414-.966-.272-.265-.628-.398-1.068-.398-.466 0-.838.14-1.118.419-.279.279-.42.666-.424 1.16l-.994-.102c.069-.741.325-1.305.769-1.692.444-.39 1.04-.585 1.788-.585.756 0 1.354.209 1.794.628s.661.938.661 1.558c0 .315-.065.625-.194.929s-.343.625-.644.961c-.297.337-.793.799-1.488 1.386-.58.487-.952.818-1.117.994-.165.172-.301.345-.408.521zm2.53-3.341c-.401-.147-.698-.356-.891-.628-.194-.273-.29-.598-.29-.978 0-.573.205-1.055.617-1.445s.96-.585 1.644-.585c.687 0 1.241.2 1.659.601.419.398.629.883.629 1.456 0 .365-.097.684-.29.956-.19.268-.48.476-.87.623.483.158.85.412 1.101.763.254.351.381.77.381 1.257 0 .673-.238 1.238-.714 1.697-.476.458-1.103.687-1.88.687s-1.404-.229-1.88-.687c-.476-.462-.714-1.037-.714-1.724 0-.512.129-.94.386-1.284.262-.347.632-.584 1.112-.709zm-.193-1.638c0 .372.12.677.36.913s.551.354.934.354c.373 0 .677-.116.913-.349.24-.236.36-.524.36-.864 0-.355-.123-.652-.37-.892-.244-.244-.548-.365-.913-.365-.369 0-.675.118-.919.354-.243.236-.365.519-.365.849zm-.312 3.636c0 .276.065.543.194.8.132.258.327.459.585.602.258.14.535.209.833.209.462 0 .843-.148 1.144-.445.3-.298.451-.675.451-1.134 0-.465-.156-.85-.467-1.155-.308-.304-.695-.456-1.161-.456-.454 0-.832.15-1.133.451-.297.301-.446.677-.446 1.128z" fill="#6a737c"/><path d="m302.352 199.766.94-.129c.025.601.137 1.013.338 1.235.2.222.478.333.832.333.262 0 .487-.059.677-.177.19-.122.321-.285.392-.489.072-.208.108-.537.108-.988v-5.425h1.042v5.366c0 .659-.081 1.169-.242 1.53-.158.362-.41.638-.757.828-.344.189-.749.284-1.214.284-.691 0-1.221-.198-1.59-.596-.365-.397-.541-.988-.526-1.772zm9.63 1.53c-.358.305-.704.52-1.037.645-.329.125-.684.188-1.063.188-.627 0-1.108-.152-1.445-.457-.337-.308-.505-.7-.505-1.176 0-.279.063-.533.188-.763.129-.232.296-.419.5-.558.207-.14.44-.245.698-.317.19-.05.476-.099.859-.145.781-.093 1.356-.204 1.724-.333.004-.133.006-.217.006-.253 0-.393-.092-.671-.274-.832-.247-.219-.614-.328-1.101-.328-.455 0-.792.081-1.01.242-.215.158-.374.439-.478.843l-.945-.129c.086-.404.227-.73.424-.977.197-.251.482-.442.854-.575.372-.136.804-.204 1.294-.204.487 0 .883.057 1.187.172.305.114.529.259.672.435.143.172.243.39.301.655.032.165.048.462.048.892v1.289c0 .899.02 1.468.059 1.708.043.236.125.464.247.682h-1.01c-.1-.201-.164-.435-.193-.704zm-.081-2.159c-.351.143-.877.265-1.579.365-.397.058-.678.122-.843.194-.165.071-.292.177-.381.317-.09.136-.135.288-.135.456 0 .258.097.473.29.645.197.172.484.258.86.258.372 0 .703-.081.993-.242.29-.165.504-.389.64-.672.103-.218.155-.54.155-.966zm2.482 2.863v-5.704h.87v.811c.419-.627 1.024-.94 1.815-.94.344 0 .659.063.946.188.29.122.506.283.65.483.143.201.243.439.3.715.036.179.054.492.054.94v3.507h-.967v-3.47c0-.394-.037-.687-.113-.881-.075-.197-.209-.352-.402-.467-.19-.118-.414-.177-.672-.177-.412 0-.768.131-1.069.392-.297.261-.445.757-.445 1.488v3.115zm12.015 0v-1.885h-3.416v-.886l3.593-5.103h.79v5.103h1.063v.886h-1.063v1.885zm0-2.771v-3.551l-2.465 3.551z" fill="#6a737c"/><path d="m346.698 199.766.94-.129c.025.601.138 1.013.339 1.235.2.222.478.333.832.333.261 0 .487-.059.677-.177.19-.122.32-.285.392-.489.072-.208.107-.537.107-.988v-5.425h1.042v5.366c0 .659-.08 1.169-.241 1.53-.158.362-.41.638-.758.828-.343.189-.748.284-1.214.284-.691 0-1.221-.198-1.589-.596-.366-.397-.541-.988-.527-1.772zm9.631 1.53c-.358.305-.704.52-1.037.645-.329.125-.684.188-1.063.188-.627 0-1.109-.152-1.445-.457-.337-.308-.505-.7-.505-1.176 0-.279.062-.533.188-.763.129-.232.295-.419.499-.558.208-.14.441-.245.699-.317.189-.05.476-.099.859-.145.781-.093 1.355-.204 1.724-.333.004-.133.005-.217.005-.253 0-.393-.091-.671-.274-.832-.247-.219-.614-.328-1.101-.328-.454 0-.791.081-1.009.242-.215.158-.375.439-.478.843l-.946-.129c.086-.404.228-.73.425-.977.197-.251.481-.442.854-.575.372-.136.804-.204 1.294-.204.487 0 .883.057 1.187.172.304.114.528.259.671.435.144.172.244.39.301.655.032.165.049.462.049.892v1.289c0 .899.019 1.468.059 1.708.043.236.125.464.247.682h-1.01c-.1-.201-.165-.435-.193-.704zm-.081-2.159c-.351.143-.877.265-1.579.365-.398.058-.679.122-.843.194-.165.071-.292.177-.382.317-.089.136-.134.288-.134.456 0 .258.097.473.29.645.197.172.483.258.859.258.373 0 .704-.081.994-.242.29-.165.503-.389.639-.672.104-.218.156-.54.156-.966zm2.481 2.863v-5.704h.871v.811c.419-.627 1.024-.94 1.815-.94.344 0 .659.063.945.188.29.122.507.283.65.483.143.201.244.439.301.715.036.179.054.492.054.94v3.507h-.967v-3.47c0-.394-.038-.687-.113-.881-.075-.197-.209-.352-.403-.467-.189-.118-.413-.177-.671-.177-.412 0-.768.131-1.069.392-.297.261-.446.757-.446 1.488v3.115zm12.558 0h-.967v-6.161c-.232.222-.539.444-.918.666-.376.222-.714.389-1.015.5v-.935c.54-.254 1.013-.562 1.418-.924.404-.361.691-.712.859-1.052h.623zm5.307 0h-.967v-6.161c-.233.222-.539.444-.919.666-.375.222-.714.389-1.015.5v-.935c.541-.254 1.014-.562 1.418-.924.405-.361.691-.712.86-1.052h.623z" fill="#6a737c"/><path d="m393.29 199.766.94-.129c.025.601.138 1.013.338 1.235.201.222.478.333.833.333.261 0 .487-.059.677-.177.189-.122.32-.285.392-.489.071-.208.107-.537.107-.988v-5.425h1.042v5.366c0 .659-.08 1.169-.242 1.53-.157.362-.41.638-.757.828-.344.189-.748.284-1.214.284-.691 0-1.221-.198-1.59-.596-.365-.397-.54-.988-.526-1.772zm9.63 1.53c-.358.305-.703.52-1.036.645-.33.125-.684.188-1.064.188-.626 0-1.108-.152-1.445-.457-.336-.308-.504-.7-.504-1.176 0-.279.062-.533.188-.763.129-.232.295-.419.499-.558.208-.14.441-.245.698-.317.19-.05.477-.099.86-.145.78-.093 1.355-.204 1.724-.333.003-.133.005-.217.005-.253 0-.393-.091-.671-.274-.832-.247-.219-.614-.328-1.101-.328-.455 0-.791.081-1.01.242-.214.158-.374.439-.478.843l-.945-.129c.086-.404.227-.73.424-.977.197-.251.482-.442.854-.575.373-.136.804-.204 1.295-.204.487 0 .883.057 1.187.172.304.114.528.259.671.435.143.172.244.39.301.655.032.165.048.462.048.892v1.289c0 .899.02 1.468.059 1.708.043.236.126.464.248.682h-1.01c-.1-.201-.165-.435-.194-.704zm-.08-2.159c-.351.143-.877.265-1.579.365-.398.058-.679.122-.844.194-.164.071-.291.177-.381.317-.089.136-.134.288-.134.456 0 .258.097.473.29.645.197.172.483.258.859.258.373 0 .704-.081.994-.242.29-.165.503-.389.639-.672.104-.218.156-.54.156-.966zm2.481 2.863v-5.704h.87v.811c.419-.627 1.024-.94 1.816-.94.344 0 .659.063.945.188.29.122.507.283.65.483.143.201.244.439.301.715.036.179.054.492.054.94v3.507h-.967v-3.47c0-.394-.038-.687-.113-.881-.075-.197-.21-.352-.403-.467-.19-.118-.413-.177-.671-.177-.412 0-.768.131-1.069.392-.297.261-.446.757-.446 1.488v3.115zm12.558 0h-.967v-6.161c-.233.222-.539.444-.918.666-.376.222-.715.389-1.015.5v-.935c.54-.254 1.013-.562 1.417-.924.405-.361.692-.712.86-1.052h.623zm3.969-4.27c-.401-.147-.698-.356-.891-.628-.194-.273-.29-.598-.29-.978 0-.573.205-1.055.617-1.445s.96-.585 1.644-.585c.687 0 1.24.2 1.659.601.419.398.629.883.629 1.456 0 .365-.097.684-.29.956-.19.268-.48.476-.87.623.483.158.85.412 1.101.763.254.351.381.77.381 1.257 0 .673-.238 1.238-.714 1.697-.477.458-1.103.687-1.88.687s-1.404-.229-1.88-.687c-.476-.462-.714-1.037-.714-1.724 0-.512.129-.94.386-1.284.262-.347.632-.584 1.112-.709zm-.193-1.638c0 .372.12.677.36.913s.551.354.934.354c.373 0 .677-.116.913-.349.24-.236.36-.524.36-.864 0-.355-.123-.652-.37-.892-.244-.244-.548-.365-.914-.365-.368 0-.674.118-.918.354-.243.236-.365.519-.365.849zm-.312 3.636c0 .276.065.543.194.8.132.258.327.459.585.602.258.14.535.209.833.209.462 0 .843-.148 1.144-.445.3-.298.451-.675.451-1.134 0-.465-.156-.85-.467-1.155-.308-.304-.695-.456-1.161-.456-.454 0-.832.15-1.133.451-.297.301-.446.677-.446 1.128z" fill="#6a737c"/><path d="m449 181h40v1h-40z" fill="#fff"/><path d="m453.474 34.7793v-.8447h4.633v.6836c-.455.485-.908 1.1295-1.357 1.9336-.446.804-.791 1.6308-1.035 2.4804-.176.599-.288 1.2549-.337 1.9678h-.903c.009-.5632.12-1.2435.332-2.041.211-.7975.514-1.5658.908-2.3047.397-.7422.819-1.3672 1.264-1.875zm5.507 2.6904c0-.8463.087-1.5267.259-2.041.176-.5176.435-.9163.777-1.1963.345-.2799.778-.4199 1.298-.4199.385 0 .721.0781 1.011.2344.29.153.529.376.718.6689.189.2897.337.6446.444 1.0645.108.4166.161.9798.161 1.6894 0 .8399-.086 1.5186-.258 2.0362-.173.5143-.432.913-.777 1.1962-.342.28-.774.42-1.299.42-.69 0-1.232-.2474-1.626-.7422-.472-.5957-.708-1.5658-.708-2.9102zm.904 0c0 1.1752.136 1.958.41 2.3487.277.3873.617.581 1.02.581.404 0 .743-.1953 1.016-.5859.277-.3906.415-1.1719.415-2.3438 0-1.1784-.138-1.9612-.415-2.3486-.273-.3874-.615-.5811-1.025-.5811-.404 0-.726.1709-.967.5127-.303.4362-.454 1.2419-.454 2.417zm4.663 0c0-.8463.086-1.5267.259-2.041.175-.5176.434-.9163.776-1.1963.345-.2799.778-.4199 1.299-.4199.384 0 .721.0781 1.011.2344.289.153.529.376.717.6689.189.2897.337.6446.445 1.0645.107.4166.161.9798.161 1.6894 0 .8399-.086 1.5186-.259 2.0362-.172.5143-.431.913-.776 1.1962-.342.28-.775.42-1.299.42-.69 0-1.232-.2474-1.626-.7422-.472-.5957-.708-1.5658-.708-2.9102zm.903 0c0 1.1752.137 1.958.41 2.3487.277.3873.617.581 1.021.581.403 0 .742-.1953 1.015-.5859.277-.3906.415-1.1719.415-2.3438 0-1.1784-.138-1.9612-.415-2.3486-.273-.3874-.615-.5811-1.025-.5811-.404 0-.726.1709-.967.5127-.302.4362-.454 1.2419-.454 2.417z" fill="#6a737c"/><path d="m453.415 75.125.923-.0781c.068.4492.226.7877.474 1.0156.25.2246.551.3369.903.3369.423 0 .781-.1595 1.074-.4785s.44-.7422.44-1.2695c0-.5013-.142-.8968-.425-1.1866-.28-.2897-.648-.4345-1.104-.4345-.283 0-.539.0651-.766.1953-.228.1269-.407.293-.538.498l-.825-.1074.694-3.6767h3.559v.8398h-2.856l-.386 1.9238c.43-.2995.881-.4492 1.353-.4492.625 0 1.152.2165 1.582.6494.429.433.644.9896.644 1.6699 0 .6478-.189 1.2077-.566 1.6797-.459.5795-1.086.8692-1.88.8692-.651 0-1.183-.1823-1.597-.5469-.41-.3646-.644-.848-.703-1.4502zm10.186 1.0303v.8447h-4.732c-.006-.2116.028-.415.103-.6104.12-.3222.312-.6396.576-.9521.267-.3125.651-.6738 1.152-1.084.778-.638 1.304-1.1426 1.577-1.5137.274-.3743.411-.7275.411-1.0595 0-.3483-.126-.6413-.376-.8789-.248-.2409-.572-.3614-.972-.3614-.423 0-.762.127-1.016.3809s-.382.6055-.386 1.0547l-.903-.0928c.062-.6738.295-1.1865.698-1.5381.404-.3548.946-.5322 1.626-.5322.687 0 1.231.1904 1.631.5713.401.3808.601.8529.601 1.416 0 .2865-.059.568-.176.8447s-.312.5681-.586.8741c-.27.3059-.721.7259-1.352 1.2597-.528.4427-.866.7438-1.016.9033-.15.1563-.273.3142-.371.4737zm.947-1.0303.923-.0781c.068.4492.226.7877.473 1.0156.251.2246.552.3369.904.3369.423 0 .781-.1595 1.074-.4785s.439-.7422.439-1.2695c0-.5013-.141-.8968-.424-1.1866-.28-.2897-.648-.4345-1.104-.4345-.283 0-.539.0651-.767.1953-.227.1269-.406.293-.537.498l-.825-.1074.693-3.6767h3.56v.8398h-2.856l-.386 1.9238c.43-.2995.88-.4492 1.352-.4492.625 0 1.153.2165 1.582.6494.43.433.645.9896.645 1.6699 0 .6478-.189 1.2077-.566 1.6797-.459.5795-1.086.8692-1.88.8692-.651 0-1.184-.1823-1.597-.5469-.41-.3646-.645-.848-.703-1.4502z" fill="#6a737c"/><path d="m453.42 111.11.879-.117c.101.498.272.858.513 1.079.244.218.54.327.888.327.414 0 .762-.143 1.045-.429.287-.287.43-.642.43-1.065 0-.403-.132-.735-.396-.996-.263-.263-.599-.395-1.006-.395-.166 0-.372.032-.62.097l.098-.771c.059.006.106.01.142.01.374 0 .711-.098 1.01-.293.3-.196.45-.497.45-.904 0-.322-.11-.589-.328-.8-.218-.212-.499-.318-.844-.318-.342 0-.627.108-.855.322-.228.215-.374.538-.439.967l-.879-.156c.107-.589.351-1.045.732-1.367.381-.326.855-.489 1.421-.489.391 0 .75.085 1.079.254.329.166.58.394.752.684.176.29.264.597.264.923 0 .309-.083.591-.249.845-.166.253-.412.455-.737.605.423.098.751.301.986.61.234.306.351.691.351 1.153 0 .625-.227 1.155-.683 1.592-.456.432-1.032.649-1.729.649-.628 0-1.15-.187-1.567-.562-.413-.374-.649-.859-.708-1.455zm5.561.015.923-.078c.069.449.227.788.474 1.015.251.225.552.337.903.337.423 0 .781-.159 1.074-.478s.44-.742.44-1.27c0-.501-.142-.896-.425-1.186-.28-.29-.648-.435-1.103-.435-.284 0-.539.065-.767.196-.228.127-.407.293-.537.498l-.825-.108.693-3.677h3.56v.84h-2.857l-.386 1.924c.43-.299.881-.449 1.353-.449.625 0 1.152.216 1.582.649s.645.99.645 1.67c0 .648-.189 1.208-.567 1.68-.459.579-1.085.869-1.88.869-.651 0-1.183-.182-1.596-.547-.411-.364-.645-.848-.704-1.45zm5.567-1.655c0-.847.086-1.527.259-2.041.175-.518.434-.917.776-1.197.345-.28.778-.42 1.299-.42.384 0 .721.079 1.011.235.289.153.529.376.717.669.189.29.337.644.445 1.064.107.417.161.98.161 1.69 0 .84-.086 1.518-.259 2.036-.172.514-.431.913-.776 1.196-.342.28-.775.42-1.299.42-.69 0-1.232-.247-1.626-.742-.472-.596-.708-1.566-.708-2.91zm.903 0c0 1.175.137 1.958.41 2.348.277.388.617.581 1.021.581.403 0 .742-.195 1.015-.586.277-.39.415-1.171.415-2.343 0-1.179-.138-1.962-.415-2.349-.273-.387-.615-.581-1.025-.581-.404 0-.726.171-.967.513-.302.436-.454 1.242-.454 2.417z" fill="#6a737c"/><path d="m456.726 149h-.879v-5.601c-.212.202-.49.404-.835.606-.342.202-.65.353-.923.454v-.85c.491-.231.921-.511 1.289-.839.368-.329.628-.648.781-.958h.567zm2.314-6.221v-.844h4.634v.683c-.456.485-.908 1.13-1.358 1.934-.446.804-.791 1.631-1.035 2.48-.176.599-.288 1.255-.337 1.968h-.903c.01-.563.12-1.243.332-2.041s.514-1.566.908-2.305c.397-.742.819-1.367 1.265-1.875zm5.508 4.346.923-.078c.068.449.226.788.473 1.015.251.225.552.337.904.337.423 0 .781-.159 1.074-.478s.439-.742.439-1.27c0-.501-.141-.896-.424-1.186-.28-.29-.648-.435-1.104-.435-.283 0-.539.065-.767.196-.227.127-.406.293-.537.498l-.825-.108.693-3.677h3.56v.84h-2.856l-.386 1.924c.43-.299.88-.449 1.352-.449.625 0 1.153.216 1.582.649.43.433.645.99.645 1.67 0 .648-.189 1.208-.566 1.68-.459.579-1.086.869-1.88.869-.651 0-1.184-.182-1.597-.547-.41-.364-.645-.848-.703-1.45z" fill="#6a737c"/><path d="m453.415 181.47c0-.847.086-1.527.259-2.041.176-.518.434-.917.776-1.197.345-.28.778-.42 1.299-.42.384 0 .721.079 1.011.235.289.153.529.376.718.669.188.29.336.644.444 1.064.107.417.161.98.161 1.69 0 .84-.086 1.518-.259 2.036-.172.514-.431.913-.776 1.196-.342.28-.775.42-1.299.42-.69 0-1.232-.247-1.626-.742-.472-.596-.708-1.566-.708-2.91zm.903 0c0 1.175.137 1.958.411 2.348.276.388.616.581 1.02.581s.742-.195 1.016-.586c.276-.39.415-1.171.415-2.343 0-1.179-.139-1.962-.415-2.349-.274-.387-.616-.581-1.026-.581-.403 0-.726.171-.967.513-.302.436-.454 1.242-.454 2.417z" fill="#6a737c"/><path d="m443 37h6v1h-6z" fill="#f48024"/><path d="m443 73h6v1h-6z" fill="#f48024"/><path d="m443 109h6v1h-6z" fill="#f48024"/><path d="m443 145h6v1h-6z" fill="#f48024"/><path d="m443 181h6v1h-6z" fill="#f48024"/><path d="m444 37h-1v145h1z" fill="#bbc0c4"/><path d="m68.5 100c0-.2761.2239-.5.5-.5h23c.2761 0 .5.2239.5.5v80.5h-24z" fill="#edf7f1" stroke="#5eba7d"/><path d="m74 152c0-.552.4477-1 1-1h11c.5523 0 1 .448 1 1v29h-13z" fill="#48a868"/><path d="m115.5 101c0-.276.224-.5.5-.5h23c.276 0 .5.224.5.5v79.5h-24z" fill="#edf7f1" stroke="#5eba7d"/><path d="m121 152c0-.552.448-1 1-1h11c.552 0 1 .448 1 1v29h-13z" fill="#48a868"/><path d="m162.5 103c0-.276.224-.5.5-.5h23c.276 0 .5.224.5.5v77.5h-24z" fill="#edf7f1" stroke="#5eba7d"/><path d="m168 149c0-.552.448-1 1-1h11c.552 0 1 .448 1 1v32h-13z" fill="#48a868"/><path d="m209.5 100c0-.2761.224-.5.5-.5h23c.276 0 .5.2239.5.5v80.5h-24z" fill="#edf7f1" stroke="#5eba7d"/><path d="m215 148c0-.552.448-1 1-1h11c.552 0 1 .448 1 1v33h-13z" fill="#48a868"/><path d="m256.5 104c0-.276.224-.5.5-.5h23c.276 0 .5.224.5.5v76.5h-24z" fill="#edf7f1" stroke="#5eba7d"/><path d="m262 153c0-.552.448-1 1-1h11c.552 0 1 .448 1 1v28h-13z" fill="#48a868"/><path d="m303.5 101c0-.276.224-.5.5-.5h23c.276 0 .5.224.5.5v79.5h-24z" fill="#edf7f1" stroke="#5eba7d"/><path d="m309 143c0-.552.448-1 1-1h11c.552 0 1 .448 1 1v38h-13z" fill="#48a868"/><path d="m350.5 104c0-.276.224-.5.5-.5h23c.276 0 .5.224.5.5v76.5h-24z" fill="#edf7f1" stroke="#5eba7d"/><path d="m356 153c0-.552.448-1 1-1h11c.552 0 1 .448 1 1v28h-13z" fill="#48a868"/><path d="m397.5 90c0-.2761.224-.5.5-.5h23c.276 0 .5.2239.5.5v90.5h-24z" fill="#edf7f1" stroke="#5eba7d"/><path d="m403 142c0-.552.448-1 1-1h11c.552 0 1 .448 1 1v39h-13z" fill="#48a868"/><g stroke-width="2"><path d="m412.5 111-47-31h-46l-47.5 2-45.5 3-48-10-47.5 5-50-7-30 3.5" stroke="#f48024" stroke-linecap="square"/><g fill="#f48024" stroke="#fff"><path d="m178.521 79c2.21 0 4-1.7909 4-4s-1.79-4-4-4c-2.209 0-4 1.7909-4 4s1.791 4 4 4z"/><path d="m226.521 89c2.21 0 4-1.7909 4-4s-1.79-4-4-4c-2.209 0-4 1.7909-4 4s1.791 4 4 4z"/><path d="m131.521 84c2.21 0 4-1.7909 4-4s-1.79-4-4-4c-2.209 0-4 1.7909-4 4s1.791 4 4 4z"/><path d="m272.521 86c2.21 0 4-1.7909 4-4s-1.79-4-4-4c-2.209 0-4 1.7909-4 4s1.791 4 4 4z"/><path d="m319.521 84c2.21 0 4-1.7909 4-4s-1.79-4-4-4c-2.209 0-4 1.7909-4 4s1.791 4 4 4z"/><path d="m365.521 85c2.21 0 4-1.7909 4-4s-1.79-4-4-4c-2.209 0-4 1.7909-4 4s1.791 4 4 4z"/><path d="m412.521 115c2.21 0 4-1.791 4-4s-1.79-4-4-4c-2.209 0-4 1.791-4 4s1.791 4 4 4z"/><path d="m81.5215 77c2.2091 0 4-1.7909 4-4s-1.7909-4-4-4c-2.2092 0-4 1.7909-4 4s1.7908 4 4 4z"/></g></g><path d="m10 141.549-7.1582-2.749v-1.021l7.1582-2.929v1.079l-2.16797.835v2.993l2.16797.786zm-2.93945-2.066v-2.426l-1.98243.747c-.60221.228-1.097.397-1.48437.508.45898.091.91471.219 1.36719.385zm2.93945-5.278h-5.18555v-.791h.73731c-.56966-.381-.85449-.931-.85449-1.65 0-.313.05696-.599.17089-.86.11068-.263.25717-.46.43946-.591.18229-.13.39876-.221.64941-.273.16276-.033.44759-.049.85449-.049h3.18848v.879h-3.1543c-.35807 0-.625.034-.80078.103-.17903.068-.32064.19-.4248.366-.10742.172-.16114.376-.16114.61 0 .375.11882.698.35645.972.23763.27.68848.405 1.35254.405h2.83203zm-1.54785-5.215-.13672-.869c.34831-.049.61523-.184.80078-.405.18555-.225.27832-.537.27832-.938 0-.403-.08138-.703-.24414-.898-.16601-.195-.3597-.293-.58105-.293-.19857 0-.35482.086-.46875.259-.07813.12-.17741.42-.29786.898-.16276.645-.30273 1.092-.41992 1.343-.12044.247-.28483.436-.49316.566-.21159.127-.44434.191-.69824.191-.23112 0-.44434-.052-.63965-.156-.19857-.108-.36296-.253-.49317-.435-.10091-.137-.18554-.322-.2539-.557-.07162-.237-.10742-.491-.10742-.761 0-.407.05859-.764.17578-1.07.11718-.309.27669-.537.47851-.683.19857-.147.4655-.248.80078-.303l.11719.859c-.26693.039-.47526.153-.625.342-.14974.186-.22461.449-.22461.791 0 .404.06673.692.2002.864.13346.173.28971.259.46875.259.11393 0 .21647-.036.30761-.107.09441-.072.17253-.184.23438-.337.03255-.088.10742-.347.22461-.777.16601-.621.30273-1.054.41016-1.298.10416-.248.25716-.441.45898-.581s.45247-.21.75195-.21c.29297 0 .56966.086.83008.258.25716.17.45736.415.60059.738.13997.322.20997.687.20997 1.093 0 .674-.13999 1.189-.41993 1.543-.27995.352-.69499.577-1.24512.674zm1.54785-6.308-5.18555 1.587v-.909l2.99317-.825 1.11328-.307c-.05534-.013-.41179-.103-1.06934-.269l-3.03711-.825v-.904l3.00782-.776.99121-.259-1.00098-.298-2.99805-.888v-.855l5.18555 1.621v.913l-3.10547.826-.88379.2 3.98926 1.05zm-1.66992-9.82.1123-.908c.5306.143.94239.409 1.23535.796.29297.387.43947.882.43947 1.484 0 .759-.23276 1.361-.69825 1.807-.46875.443-1.12468.664-1.96778.664-.87239 0-1.54948-.225-2.03125-.674s-.72265-1.032-.72265-1.748c0-.693.236-1.26.708-1.699.47201-.439 1.13607-.659 1.99219-.659.05208 0 .13021.001.23438.005v3.867c.56966-.033 1.00586-.194 1.30859-.484.30273-.289.4541-.651.4541-1.084 0-.322-.08463-.597-.2539-.825-.16928-.228-.43946-.408-.81055-.542zm-1.4209 2.886v-2.895c-.4362.039-.76335.149-.98145.332-.33854.28-.50781.642-.50781 1.088 0 .404.13509.744.40528 1.021.27018.273.63151.425 1.08398.454zm3.09082-4.893h-5.18555v-.791h.78614c-.36784-.201-.61036-.387-.72754-.556-.11719-.173-.17578-.362-.17578-.567 0-.296.0944-.597.2832-.903l.81543.303c-.12695.215-.19043.43-.19043.644 0 .192.05859.365.17578.518.11393.153.27344.262.47852.327.3125.098.65429.147 1.02539.147h2.71484zm0-6.113h-5.18555v-.791h.78614c-.36784-.202-.61036-.387-.72754-.556-.11719-.173-.17578-.362-.17578-.567 0-.296.0944-.597.2832-.903l.81543.303c-.12695.214-.19043.429-.19043.644 0 .192.05859.365.17578.518.11393.153.27344.262.47852.327.3125.097.65429.146 1.02539.146h2.71484zm-.63965-6.7234c.27669.3255.47201.6396.58594.9423.11391.2995.17091.6218.17091.9668 0 .5693-.13836 1.0073-.41505 1.3133-.27995.306-.63639.459-1.06934.459-.2539 0-.48502-.057-.69336-.171-.21159-.117-.38086-.268-.50781-.454-.12695-.189-.22298-.4-.28809-.635-.04557-.172-.08951-.433-.13183-.7808-.08464-.7097-.18555-1.2321-.30274-1.5674-.12044-.0033-.19694-.0049-.22949-.0049-.35807 0-.61035.083-.75683.249-.19857.2246-.29786.5583-.29786 1.001 0 .4134.07325.7191.21973.9181.14323.195.39876.34.7666.434l-.11718.86c-.36784-.078-.66407-.207-.88868-.386-.22786-.179-.40201-.438-.52246-.776-.1237-.339-.18554-.7311-.18554-1.177 0-.4427.05208-.8024.15625-1.0791.10416-.2767.236-.4802.3955-.6104.15625-.1302.35482-.2213.59571-.2734.14974-.0293.41992-.044.81054-.044h1.17188c.81706 0 1.33463-.0179 1.55273-.0537.21485-.039.42155-.1139.62012-.2246v.918c-.18229.0911-.39551.1497-.63965.1758zm-1.96289.0732c.13021.319.24089.7975.33203 1.4355.05209.3614.11068.6167.17578.7667.06511.15.16114.265.28809.347.1237.081.26204.122.41504.122.23437 0 .42969-.088.58594-.264.15625-.179.23437-.439.23437-.7812 0-.3386-.07324-.6397-.21973-.9033-.14974-.2637-.35319-.4574-.61035-.5811-.19856-.0944-.49153-.1416-.8789-.1416zm1.81641-4.1748.77636-.127c.05207.2474.07817.4688.07817.6641 0 .319-.0505.5664-.15141.7422s-.23275.2995-.39551.3711c-.16601.0716-.51269.1074-1.04003.1074h-2.9834v.6445h-.6836v-.6445h-1.28418l-.52734-.874h1.81152v-.8838h.6836v.8838h3.03222c.25065 0 .41179-.0147.4834-.044.07162-.0325.12858-.083.1709-.1513.04232-.0716.06348-.1726.06348-.3028 0-.0976-.0114-.2262-.03418-.3857zm-.88379-4.4141.1123-.9082c.5306.1433.94239.4086 1.23535.7959.29297.3874.43947.8822.43947 1.4844 0 .7585-.23276 1.3607-.69825 1.8066-.46875.4427-1.12468.6641-1.96778.6641-.87239 0-1.54948-.2246-2.03125-.6738s-.72265-1.0319-.72265-1.7481c0-.6933.236-1.2597.708-1.6992.47201-.4394 1.13607-.6592 1.99219-.6592.05208 0 .13021.0017.23438.0049v3.8672c.56966-.0326 1.00586-.1937 1.30859-.4834s.4541-.651.4541-1.084c0-.3222-.08463-.5973-.2539-.8252-.16928-.2278-.43946-.4085-.81055-.542zm-1.4209 2.8858v-2.8955c-.4362.039-.76335.1497-.98145.332-.33854.2799-.50781.6429-.50781 1.0889 0 .4036.13509.7438.40528 1.0205.27018.2734.63151.4248 1.08398.4541zm-2.34863-7.6075c-.51107 0-.94564-.1285-1.30371-.3857-.35808-.2572-.53711-.6299-.53711-1.1182 0-.4492.16113-.8203.4834-1.1132.31901-.2963.78938-.4444 1.41113-.4444.60547 0 1.07259.1498 1.40137.4492.32552.2963.48828.6625.48828 1.0987 0 .4329-.16114.7942-.4834 1.084-.32227.2864-.80892.4296-1.45996.4296zm-1.23535-1.5283c0 .2181.0944.4004.2832.5469.1888.1432.53548.2148 1.04004.2148.45898 0 .78288-.0732.97168-.2197.18554-.1465.27832-.3271.27832-.542 0-.2213-.0944-.4036-.28321-.5468-.1888-.1465-.53385-.2198-1.03515-.2198-.46224 0-.78613.0733-.97168.2198-.1888.1464-.2832.3287-.2832.5468zm6.9385-.0049-7.54397-3.916v-.7129l7.54397 3.9014zm-1.94339-3.0957c-.51432 0-.94889-.1285-1.30371-.3857-.35807-.2572-.53711-.6315-.53711-1.123 0-.4493.16114-.8204.4834-1.1133.31901-.2963.78939-.4444 1.41113-.4444.60547 0 1.07259.1498 1.40137.4493.32551.2962.48831.664.48831 1.1035 0 .4329-.1612.7942-.48343 1.084-.32552.2864-.81217.4296-1.45996.4296zm-1.23535-1.5332c0 .2214.0944.4053.2832.5518.18881.1432.53549.2148 1.04004.2148.45573 0 .778-.0732.9668-.2197s.2832-.3271.2832-.542c0-.2246-.0944-.4085-.2832-.5517-.1888-.1465-.53385-.2198-1.03516-.2198-.46224 0-.78613.0733-.97168.2198-.1888.1465-.2832.3287-.2832.5468z" fill="#6a737c"/><path d="m485 168.986h-7.158v-.971l5.62-3.76h-5.62v-.908h7.158v.971l-5.625 3.76h5.625zm0-10.522h-.762c.586.404.879.952.879 1.645 0 .306-.058.593-.176.86-.117.263-.263.46-.439.591-.179.127-.397.216-.654.268-.173.036-.446.054-.821.054h-3.213v-.879h2.876c.459 0 .769-.018.928-.054.231-.055.414-.172.547-.351.13-.179.195-.401.195-.664 0-.264-.066-.511-.2-.743-.137-.231-.32-.393-.552-.488-.234-.098-.573-.146-1.015-.146h-2.779v-.879h5.186zm0-2.168h-5.186v-.786h.728c-.254-.163-.457-.379-.61-.65-.157-.27-.235-.577-.235-.922 0-.385.08-.699.24-.943.159-.247.382-.421.668-.522-.605-.411-.908-.944-.908-1.602 0-.514.143-.91.43-1.186.283-.277.721-.415 1.313-.415h3.56v.874h-3.267c-.351 0-.603.029-.756.087-.157.056-.282.158-.376.308-.095.15-.142.326-.142.527 0 .365.122.668.366.909.241.24.628.361 1.162.361h3.013v.879h-3.369c-.391 0-.684.071-.879.215-.195.143-.293.377-.293.703 0 .247.065.477.195.688.131.209.321.36.572.454.25.095.612.142 1.084.142h2.69zm0-9.141v.816h-7.158v-.879h2.554c-.466-.371-.699-.845-.699-1.421 0-.319.065-.62.196-.903.127-.287.307-.521.542-.704.231-.185.511-.33.839-.434.329-.104.681-.156 1.055-.156.889 0 1.576.219 2.061.659.485.439.727.967.727 1.582 0 .612-.255 1.092-.766 1.44zm-2.632.01c.622 0 1.071-.085 1.348-.254.452-.277.679-.651.679-1.123 0-.384-.166-.716-.499-.996-.335-.28-.833-.42-1.494-.42-.677 0-1.176.135-1.499.405-.322.267-.483.591-.483.972 0 .384.168.716.503.996.332.28.814.42 1.445.42zm.962-8.315.112-.909c.531.144.943.409 1.236.796.293.388.439.882.439 1.485 0 .758-.233 1.36-.698 1.806-.469.443-1.125.664-1.968.664-.872 0-1.549-.224-2.031-.673-.482-.45-.723-1.032-.723-1.748 0-.694.236-1.26.708-1.7.472-.439 1.136-.659 1.992-.659.053 0 .131.002.235.005v3.867c.569-.032 1.006-.194 1.308-.483.303-.29.455-.651.455-1.084 0-.322-.085-.598-.254-.825-.17-.228-.44-.409-.811-.542zm-1.421 2.885v-2.895c-.436.039-.763.15-.981.332-.339.28-.508.643-.508 1.089 0 .403.135.744.405 1.02.27.274.632.425 1.084.454zm3.091-4.892h-5.186v-.791h.787c-.368-.202-.611-.388-.728-.557-.117-.172-.176-.361-.176-.566 0-.297.095-.598.283-.904l.816.303c-.127.215-.191.43-.191.645 0 .192.059.364.176.517.114.153.274.262.479.327.312.098.654.147 1.025.147h2.715zm-2.593-5.796c-.96 0-1.671-.267-2.134-.801-.384-.446-.576-.989-.576-1.631 0-.713.235-1.295.703-1.748.466-.452 1.11-.679 1.934-.679.667 0 1.193.101 1.577.303.381.199.677.49.889.874.211.381.317.798.317 1.25 0 .726-.233 1.314-.698 1.763-.466.446-1.136.669-2.012.669zm0-.903c.664 0 1.162-.145 1.494-.435.329-.29.494-.654.494-1.094 0-.436-.166-.799-.499-1.089-.332-.289-.838-.434-1.518-.434-.641 0-1.126.146-1.455.439-.332.29-.498.651-.498 1.084 0 .44.164.804.493 1.094s.825.435 1.489.435zm2.593-5.201h-4.502v.777h-.684v-.777h-.551c-.349 0-.607-.031-.777-.092-.228-.085-.411-.233-.551-.445-.144-.215-.215-.514-.215-.898 0-.248.029-.521.088-.82l.766.131c-.032.183-.049.355-.049.518 0 .267.057.456.171.566.114.111.327.166.64.166h.478v-1.01h.684v1.01h4.502zm-.64-8.74c.277.326.472.64.586.943.114.299.171.621.171.966 0 .57-.138 1.008-.415 1.314-.28.306-.636.459-1.069.459-.254 0-.485-.057-.694-.171-.211-.117-.38-.269-.507-.454-.127-.189-.223-.401-.288-.635-.046-.173-.09-.433-.132-.781-.085-.71-.186-1.232-.303-1.568-.12-.003-.197-.005-.23-.005-.358 0-.61.083-.756.25-.199.224-.298.558-.298 1 0 .414.073.72.22.918.143.196.398.341.766.435l-.117.859c-.368-.078-.664-.206-.889-.385-.228-.179-.402-.438-.522-.777-.124-.338-.186-.731-.186-1.176 0-.443.052-.803.157-1.08.104-.276.236-.48.395-.61.156-.13.355-.221.596-.273.149-.03.42-.044.81-.044h1.172c.817 0 1.335-.018 1.553-.054.215-.039.421-.114.62-.225v.918c-.182.091-.396.15-.64.176zm-1.963.073c.131.319.241.798.332 1.436.053.361.111.617.176.767.065.149.161.265.288.346.124.082.262.122.415.122.235 0 .43-.088.586-.263.157-.179.235-.44.235-.782 0-.338-.074-.639-.22-.903-.15-.264-.353-.457-.61-.581-.199-.094-.492-.142-.879-.142zm2.603-3.696-5.186 1.973v-.928l3.106-1.113c.335-.121.684-.231 1.045-.332-.274-.078-.602-.187-.986-.327l-3.165-1.153v-.903l5.186 1.963zm-.64-6.943c.277.325.472.639.586.942.114.3.171.622.171.967 0 .57-.138 1.007-.415 1.313-.28.306-.636.459-1.069.459-.254 0-.485-.057-.694-.171-.211-.117-.38-.268-.507-.454-.127-.188-.223-.4-.288-.634-.046-.173-.09-.433-.132-.782-.085-.709-.186-1.232-.303-1.567-.12-.003-.197-.005-.23-.005-.358 0-.61.083-.756.249-.199.225-.298.558-.298 1.001 0 .413.073.719.22.918.143.195.398.34.766.435l-.117.859c-.368-.078-.664-.207-.889-.386-.228-.179-.402-.438-.522-.776-.124-.339-.186-.731-.186-1.177 0-.443.052-.802.157-1.079.104-.277.236-.48.395-.61.156-.131.355-.222.596-.274.149-.029.42-.044.81-.044h1.172c.817 0 1.335-.018 1.553-.053.215-.039.421-.114.62-.225v.918c-.182.091-.396.15-.64.176zm-1.963.073c.131.319.241.797.332 1.436.053.361.111.616.176.766s.161.265.288.347c.124.081.262.122.415.122.235 0 .43-.088.586-.264.157-.179.235-.439.235-.781 0-.339-.074-.64-.22-.903-.15-.264-.353-.458-.61-.581-.199-.095-.492-.142-.879-.142zm-3.544-2.261h-1.011v-.879h1.011zm6.147 0h-5.186v-.879h5.186zm0-2.202h-7.158v-.879h7.158zm0-2.495h-1.001v-1.001h1.001zm1.987-8.6231h-2.539c.192.1367.352.3288.479.5762.127.2441.19.5045.19.7812 0 .6153-.246 1.1459-.737 1.5918-.492.4427-1.165.6641-2.022.6641-.52 0-.988-.0895-1.401-.2686-.413-.1823-.726-.4443-.937-.7861-.215-.3451-.323-.7227-.323-1.1328 0-.6413.27-1.1458.811-1.5137h-.694v-.791h7.173zm-4.594 2.71c.667 0 1.168-.14 1.503-.42.333-.2799.499-.6152.499-1.0058 0-.3744-.158-.6966-.474-.9668-.319-.2702-.803-.4053-1.45-.4053-.69 0-1.21.1432-1.558.4297-.348.2832-.522.6169-.522 1.001 0 .3808.162.7047.488.9717.322.2636.827.3955 1.514.3955zm2.607-8.3692h-.762c.586.4037.879.9522.879 1.6455 0 .306-.058.5925-.176.8594-.117.2637-.263.4606-.439.5908-.179.127-.397.2165-.654.2686-.173.0358-.446.0537-.821.0537h-3.213v-.8789h2.876c.459 0 .769-.0179.928-.0537.231-.0554.414-.1725.547-.3516.13-.179.195-.4004.195-.664 0-.2637-.066-.5111-.2-.7422-.137-.2312-.32-.3939-.552-.4883-.234-.0977-.573-.1465-1.015-.1465h-2.779v-.8789h5.186zm-1.67-5.7177.112-.9082c.531.1432.943.4085 1.236.7958.293.3874.439.8822.439 1.4844 0 .7585-.233 1.3607-.698 1.8067-.469.4427-1.125.664-1.968.664-.872 0-1.549-.2246-2.031-.6738s-.723-1.0319-.723-1.748c0-.6934.236-1.2598.708-1.6993.472-.4394 1.136-.6591 1.992-.6591.053 0 .131.0016.235.0048v3.8672c.569-.0325 1.006-.1937 1.308-.4834.303-.2897.455-.651.455-1.084 0-.3222-.085-.5973-.254-.8252-.17-.2278-.44-.4085-.811-.5419zm-1.421 2.8857v-2.8955c-.436.039-.763.1497-.981.332-.339.28-.508.6429-.508 1.0889 0 .4036.135.7438.405 1.0205.27.2734.632.4248 1.084.4541zm1.543-4.5508-.137-.8691c.349-.0489.616-.1839.801-.4053.186-.2246.279-.5371.279-.9375 0-.4036-.082-.7031-.245-.8984-.166-.1954-.359-.293-.581-.293-.198 0-.354.0863-.468.2588-.079.1204-.178.4199-.298.8984-.163.6446-.303 1.0921-.42 1.3428-.121.2474-.285.4362-.493.5664-.212.127-.445.1904-.699.1904-.231 0-.444-.0521-.639-.1562-.199-.1074-.363-.2523-.493-.4346-.101-.1367-.186-.3223-.254-.5566-.072-.2377-.108-.4916-.108-.7618 0-.4069.059-.7633.176-1.0693.117-.3092.277-.5371.479-.6836.198-.1465.465-.2474.8-.3027l.118.8594c-.267.039-.476.153-.625.3418-.15.1855-.225.4492-.225.791 0 .4036.067.6917.2.8642.134.1726.29.2588.469.2588.114 0 .216-.0358.307-.1074.095-.0716.173-.1839.235-.3369.032-.0879.107-.3467.224-.7764.166-.6217.303-1.0547.411-1.2988.104-.2474.257-.4411.459-.5811.201-.1399.452-.2099.752-.2099.293 0 .569.0862.83.2588.257.1692.457.415.6.7373.14.3222.21.6868.21 1.0937 0 .6738-.14 1.1882-.42 1.543-.28.3515-.695.5762-1.245.6738zm.762-7.2705.776-.1269c.052.2473.078.4687.078.664 0 .319-.05.5664-.151.7422s-.233.2995-.396.3711c-.166.0716-.512.1074-1.04.1074h-2.983v.6446h-.684v-.6446h-1.284l-.527-.874h1.811v-.8838h.684v.8838h3.032c.251 0 .412-.0147.484-.044.071-.0325.128-.083.171-.1513.042-.0716.063-.1725.063-.3028 0-.0976-.011-.2262-.034-.3857zm-5.361-.8691h-1.011v-.8789h1.011zm6.147 0h-5.186v-.8789h5.186zm-2.593-1.8946c-.96 0-1.671-.2669-2.134-.8007-.384-.446-.576-.9896-.576-1.6309 0-.7129.235-1.2956.703-1.7481.466-.4524 1.11-.6787 1.934-.6787.667 0 1.193.1009 1.577.3028.381.1985.677.4899.889.874.211.3809.317.7975.317 1.25 0 .7259-.233 1.3135-.698 1.7627-.466.446-1.136.6689-2.012.6689zm0-.9033c.664 0 1.162-.1448 1.494-.4346.329-.2897.494-.6543.494-1.0937 0-.4362-.166-.7992-.499-1.0889-.332-.2897-.838-.4345-1.518-.4345-.641 0-1.126.1464-1.455.4394-.332.2897-.498.6511-.498 1.084 0 .4394.164.804.493 1.0937.329.2898.825.4346 1.489.4346zm2.593-4.9902h-5.186v-.791h.738c-.57-.3809-.855-.931-.855-1.6504 0-.3125.057-.599.171-.8594.111-.2637.257-.4606.44-.5908.182-.1302.398-.2214.649-.2735.163-.0325.448-.0488.855-.0488h3.188v.8789h-3.154c-.358 0-.625.0342-.801.1026-.179.0683-.321.1904-.425.3662-.107.1725-.161.3759-.161.6103 0 .3744.119.6983.356.9717.238.2702.689.4053 1.353.4053h2.832zm-1.548-5.2149-.137-.8691c.349-.0488.616-.1839.801-.4053.186-.2246.279-.5371.279-.9375 0-.4036-.082-.7031-.245-.8984-.166-.1953-.359-.293-.581-.293-.198 0-.354.0863-.468.2588-.079.1204-.178.4199-.298.8984-.163.6446-.303 1.0922-.42 1.3428-.121.2474-.285.4362-.493.5664-.212.127-.445.1905-.699.1905-.231 0-.444-.0521-.639-.1563-.199-.1074-.363-.2523-.493-.4346-.101-.1367-.186-.3222-.254-.5566-.072-.2376-.108-.4915-.108-.7617 0-.4069.059-.7634.176-1.0694.117-.3092.277-.5371.479-.6836.198-.1464.465-.2474.8-.3027l.118.8594c-.267.039-.476.153-.625.3418-.15.1855-.225.4492-.225.791 0 .4036.067.6917.2.8643.134.1725.29.2587.469.2587.114 0 .216-.0358.307-.1074.095-.0716.173-.1839.235-.3369.032-.0879.107-.3467.224-.7764.166-.6217.303-1.0546.411-1.2988.104-.2474.257-.4411.459-.581.201-.14.452-.21.752-.21.293 0 .569.0863.83.2588.257.1693.457.415.6.7373.14.3223.21.6868.21 1.0937 0 .6739-.14 1.1882-.42 1.543-.28.3516-.695.5762-1.245.6738z" fill="#6a737c"/></svg>