<svg viewBox="0 0 618.49 514.94" xmlns="http://www.w3.org/2000/svg"><path d="m496.62 410.95-187.38 84.54-187.38-84.54v-405.76h374.76z" fill="#fdd86f"/><path d="m309.24 500.68a5.37 5.37 0 0 1 -2.13-.47l-187.36-84.54a5.19 5.19 0 0 1 -3.11-4.66v-405.82a5.21 5.21 0 0 1 5.23-5.19h374.8a5.19 5.19 0 0 1 5.19 5.19v405.81a5.17 5.17 0 0 1 -3.11 4.66l-187.37 84.6a5.42 5.42 0 0 1 -2.14.42zm-182.24-93.08 182.2 82.19 182.2-82.19v-397.21h-364.4z" fill="#fdd86f"/><path d="m134 403.79v-386.79h351.71v386.79l-175.86 79.34z" fill="#e9c05b"/><path d="m244.29 471.23a252.14 252.14 0 0 0 -25.35-30.38c-13.68-13.79-26.7-25.66-31.94-30.39-1.36-1.21-2.48-.73-2.41 1.08.23 6.22 2.07 20.65 14.51 35.77 9.53 11.82 24.07 19.64 34.69 24.07 1.67.7 1.56 1-.18.64a214.16 214.16 0 0 1 -50.72-16.16 7.78 7.78 0 0 1 -3.73-4.59 213.49 213.49 0 0 0 -12.78-35.61c-7.92-16.74-16.35-31.49-19.83-37.48-.92-1.56-2.15-1.45-2.62.31a61.2 61.2 0 0 0 2.48 37.88c5.07 13.75 15.42 25.06 23.32 32.17 1.36 1.19 1.19 1.46-.4.59a211.55 211.55 0 0 1 -44.62-32.83 7.73 7.73 0 0 1 -2-5.56 178.36 178.36 0 0 0 -.42-35.49 350.67 350.67 0 0 0 -7.22-39.5c-.42-1.76-1.55-2-2.58-.45a60.3 60.3 0 0 0 -8.3 34.95c.64 13.53 6.22 26.34 10.88 34.94.89 1.56.63 1.79-.59.45a222.59 222.59 0 0 1 -31.82-45.35 7.67 7.67 0 0 1 -.15-5.91 168.34 168.34 0 0 0 10.54-33.54 332.26 332.26 0 0 0 4.95-39.52c.11-1.8-1-2.39-2.35-1.23a59.47 59.47 0 0 0 -18.38 30.53c-3.47 13.14-2.12 27.08-.28 36.64.34 1.77 0 1.88-.7.23a232.85 232.85 0 0 1 -14.77-43.49 7.54 7.54 0 0 1 1.39-5.72 150.22 150.22 0 0 0 17.57-27.81 297.55 297.55 0 0 0 13.77-35.16c.54-1.73-.38-2.57-2-1.76a57 57 0 0 0 -23.81 23.65c-6.23 11.28-8.32 24.47-8.91 33.67-.12 1.81-.43 1.84-.74 0a229.05 229.05 0 0 1 -3.11-46.26 7.54 7.54 0 0 1 2.83-5.15 118.86 118.86 0 0 0 20.42-19.36 234.6 234.6 0 0 0 18.91-27.4c.92-1.55.22-2.56-1.56-2.09a52.57 52.57 0 0 0 -24.63 15.55c-7.42 8.05-12 18.27-14.53 25.75-.59 1.73-.9 1.67-.73-.14a219.14 219.14 0 0 1 7.92-41.63 7.77 7.77 0 0 1 4-4.32 108.57 108.57 0 0 0 22.89-13.19 226.12 226.12 0 0 0 23.87-21.26c1.26-1.31.81-2.43-1-2.32a52 52 0 0 0 -26.07 9.24 73 73 0 0 0 -19.44 20.65 18.09 18.09 0 0 1 -1.56 2.32 1.6 1.6 0 0 1 .16-.48c.31-.91.62-1.79 1-2.69s.63-1.75 1-2.63l1-2.66 1-2.61c.38-.89.73-1.78 1.11-2.65l1.1-2.6 1.17-2.62c.39-.86.79-1.71 1.2-2.57l1.22-2.61 1.28-2.54c.44-.85.87-1.72 1.32-2.58s.87-1.68 1.32-2.5l1.4-2.57c.47-.84.94-1.66 1.42-2.49s1-1.69 1.46-2.53l1.56-2.46.42-.68a8.35 8.35 0 0 1 3.67-1.17 91.58 91.58 0 0 0 21.91-6.86 194 194 0 0 0 25.13-14.38c1.56-1 1.28-2.17-.53-2.37a49.84 49.84 0 0 0 -24.06 3.75 70.54 70.54 0 0 0 -20.34 13.39c-1.32 1.23-1.55 1-.54-.45q5-7.32 10.67-14.34a27.29 27.29 0 0 1 4.72-4.39 258.71 258.71 0 0 0 23.23-18.27 334.15 334.15 0 0 0 24.6-24.7c1.21-1.36.76-2.09-.95-1.56a92.93 92.93 0 0 0 -31.1 17.87 81.08 81.08 0 0 0 -18.67 24.4 34.71 34.71 0 0 1 -3.47 5.51q-5.75 7.11-10.88 14.54c-1 1.55-1.26 1.37-.61-.31 2.44-6.22 5.68-15 8.26-24.19a110 110 0 0 0 4.11-26.54c0-1.82-1.06-2.18-2.15-.74-4 5.31-12.68 18.15-15.55 31.71a50.62 50.62 0 0 0 .2 24.19 9.11 9.11 0 0 1 .56 3.84l-.44.73c-.49.81-1 1.56-1.46 2.43s-1 1.72-1.55 2.61-1 1.63-1.4 2.44l-1.43 2.64-1.31 2.52c-.47.89-.9 1.78-1.35 2.68s-.84 1.66-1.25 2.49-.85 1.8-1.27 2.69-.8 1.69-1.18 2.53-.75 1.78-1.17 2.71-.75 1.69-1.1 2.55-.75 1.82-1.12 2.74-.7 1.71-1 2.56-.72 1.84-1.06 2.76-.64 1.72-1 2.58l-1 2.78a1.82 1.82 0 0 1 -.17.53 10.09 10.09 0 0 1 .22-2.74c.9-7.54 2-18.66 2.3-30a131 131 0 0 0 -2.94-31.1c-.41-1.76-1.56-1.87-2.32-.22-3 6.61-9.44 23.33-8.69 39.53a57.11 57.11 0 0 0 7.63 27.31 8.42 8.42 0 0 1 .86 5.9 219.49 219.49 0 0 0 -8 42.36c-.16 1.81-.45 1.81-.7 0-1.09-8-2.91-19.63-5.65-31.27a140.89 140.89 0 0 0 -11.5-31.35c-.84-1.55-2-1.41-2.33.38-1.3 7.38-3.57 26.29 1.55 43a60.88 60.88 0 0 0 15.48 26.4 8.26 8.26 0 0 1 2.3 5.48 231.25 231.25 0 0 0 3.25 47.15c.31 1.79 0 1.87-.67.2-3.54-8.63-9.11-21.54-15.55-34.29a173.62 173.62 0 0 0 -21.77-32.75c-1.19-1.37-2.29-.92-2.2.89.44 8.36 2.87 31.1 13.67 48.85 8.9 14.83 19.44 22.11 25.4 25.33a8.21 8.21 0 0 1 3.57 4.66 233.45 233.45 0 0 0 15.07 44.47c.74 1.65.49 1.8-.61.36-6-7.78-15-19.38-24.88-30.56a185.88 185.88 0 0 0 -31.11-28c-1.55-1-2.46-.32-1.93 1.42 2.48 8.4 10.86 31.38 26.85 46.93 13.17 13 26 17.45 32.93 19a8 8 0 0 1 4.68 3.57 226 226 0 0 0 32.43 46.19c1.21 1.34 1 1.55-.47.53-8.15-5.68-20.22-13.84-32.75-21.42a181.85 181.85 0 0 0 -37.89-17.1c-1.72-.53-2.44.45-1.41 1.94 4.9 7.2 19.8 26.66 39.72 36.59 16.57 8.37 30.26 8.67 37.37 8.07a8.11 8.11 0 0 1 5.62 1.9 213.5 213.5 0 0 0 45.38 33.41c1.55.87 1.55 1.13-.25.6-10.39-3.11-25.83-7.57-41.34-11.46a204.83 204.83 0 0 0 -44-5.94c-1.82 0-2.24 1.12-.82 2.27 7 5.77 28.41 21.31 52.42 25.13 20 3.33 34.37-.88 41.43-3.81a8.52 8.52 0 0 1 6 0 212.47 212.47 0 0 0 21.16 8.5c1.71.57 3.11 1 3.11 1s1.41.42 3.11.95a226.76 226.76 0 0 0 24.38 5.95c1.78.35 1.76.59 0 .61-11.74.09-29.2.3-46.08 1a220.73 220.73 0 0 0 -45.57 6.8c-1.74.49-1.82 1.68-.14 2.38 8.64 3.53 34.69 12.44 60.44 9.22 21.52-2.63 34.91-10.89 41.18-15.82a9.07 9.07 0 0 1 5.79-1.69c1.21.15 2.42.28 3.64.4 1.8.19 3.26-.36 3.26-1.17s-1.46-1.64-3.25-1.85l-3.11-.37a8.35 8.35 0 0 1 -5.07-3.18z" fill="#cca650"/><path d="m374.18 469.67a252.2 252.2 0 0 1 25.37-30.37c13.68-13.8 26.7-25.66 32-30.39 1.33-1.21 2.45-.73 2.39 1.07-.23 6.22-2 20.65-14.52 35.77-9.52 11.82-24.06 19.64-34.67 24.08-1.68.7-1.56 1 .17.63a214.14 214.14 0 0 0 50.72-16.15 7.78 7.78 0 0 0 3.73-4.59 212.39 212.39 0 0 1 12.78-35.62c7.92-16.73 16.35-31.49 19.83-37.48.92-1.55 2.15-1.44 2.61.31 1.67 6 4.25 20.22-2.47 37.89-5.12 13.75-15.47 25.05-23.37 32.18-1.35 1.2-1.18 1.46.41.59a212.07 212.07 0 0 0 44.62-32.83 7.71 7.71 0 0 0 2-5.55 178.35 178.35 0 0 1 .42-35.49 356 356 0 0 1 7.23-39.41c.42-1.76 1.63-2 2.58-.45a60.11 60.11 0 0 1 8.29 34.94c-.64 13.53-6.22 26.35-10.89 35-.87 1.56-.62 1.79.59.45a222.09 222.09 0 0 0 31.82-45.35 7.62 7.62 0 0 0 .16-5.91 169.89 169.89 0 0 1 -10.55-33.54 332.6 332.6 0 0 1 -5-39.52c-.11-1.81 1-2.4 2.37-1.23a59.5 59.5 0 0 1 18.38 30.43c3.48 13.15 2.13 27.08.3 36.65-.35 1.77 0 1.88.69.23a232.25 232.25 0 0 0 14.83-43.62 7.58 7.58 0 0 0 -1.4-5.72 149.89 149.89 0 0 1 -17.6-27.81 299.24 299.24 0 0 1 -13.76-35.16c-.55-1.73.37-2.57 2-1.76a57 57 0 0 1 23.76 23.66c6.31 11.32 8.4 24.51 9 33.67.11 1.8.42 1.83.73 0a229.1 229.1 0 0 0 3.13-46.27 7.56 7.56 0 0 0 -2.83-5.15 118.26 118.26 0 0 1 -20.38-19.36 235.33 235.33 0 0 1 -18.91-27.34c-.91-1.56-.21-2.57 1.56-2.1a52.74 52.74 0 0 1 24.62 15.55c7.43 8.06 12 18.28 14.52 25.76.59 1.72.9 1.66.73-.14a218.45 218.45 0 0 0 -7.91-41.64 7.8 7.8 0 0 0 -4-4.32 107.91 107.91 0 0 1 -23-13.19 226.27 226.27 0 0 1 -23.79-21.26c-1.28-1.3-.83-2.42 1-2.31a52.15 52.15 0 0 1 26.1 9.23 73.06 73.06 0 0 1 19.43 20.66 21.24 21.24 0 0 0 1.56 2.31 1.7 1.7 0 0 0 -.16-.48c-.31-.9-.62-1.79-1-2.69s-.64-1.74-1-2.63-.67-1.77-1-2.66l-1-2.61c-.35-.89-.73-1.77-1.08-2.64l-1.12-2.6-1.2-2.63c-.39-.85-.79-1.71-1.2-2.57s-.81-1.74-1.24-2.61-.83-1.68-1.26-2.53l-1.3-2.58c-.43-.84-.89-1.68-1.34-2.51l-1.4-2.56-1.4-2.49-1.43-2.54-1.55-2.45-.42-.69a8.7 8.7 0 0 0 -3.67-1.17 90.83 90.83 0 0 1 -21.91-6.85 195.34 195.34 0 0 1 -25.14-14.39c-1.55-1-1.27-2.16.53-2.36a49.9 49.9 0 0 1 24.17 3.74 70.93 70.93 0 0 1 20.22 13.39c1.32 1.23 1.55 1 .54-.45q-5-7.32-10.67-14.34a27.12 27.12 0 0 0 -4.76-4.38 263.66 263.66 0 0 1 -23.32-18.27 336.25 336.25 0 0 1 -24.56-24.67c-1.21-1.35-.76-2.08 1-1.56a93.31 93.31 0 0 1 31.11 17.87 81.21 81.21 0 0 1 18.66 24.41 34.18 34.18 0 0 0 3.47 5.5q5.76 7.13 10.88 14.54c1 1.56 1.26 1.37.61-.31-2.44-6.22-5.68-15-8.26-24.18a110.51 110.51 0 0 1 -4.1-26.55c0-1.82 1.06-2.18 2.14-.73 4 5.3 12.69 18.15 15.56 31.71a51.09 51.09 0 0 1 -.19 24.18 9 9 0 0 0 -.58 3.84l.44.74 1.46 2.42c.51.86 1 1.73 1.56 2.61l1.38 2.45c.48.88 1 1.75 1.43 2.64s.89 1.65 1.32 2.47.91 1.78 1.36 2.68.84 1.66 1.24 2.49l1.29 2.69 1.17 2.53c.4.9.81 1.81 1.19 2.71s.75 1.69 1.11 2.55l1.12 2.73c.35.86.69 1.71 1 2.57s.71 1.84 1 2.75.64 1.73 1 2.59l1 2.78.19.53a12.58 12.58 0 0 0 -.24-2.74c-.9-7.54-2-18.66-2.3-30a131 131 0 0 1 2.94-31.1c.41-1.76 1.56-1.87 2.32-.22 3 6.61 9.44 23.33 8.69 39.53a57.09 57.09 0 0 1 -7.62 27.33 8.38 8.38 0 0 0 -.85 5.89 222 222 0 0 1 8 42.37c.15 1.8.45 1.8.7 0 1.09-8 2.92-19.63 5.64-31.28a140.35 140.35 0 0 1 11.53-31.38c.85-1.56 2-1.42 2.33.37 1.29 7.39 3.56 26.3-1.56 43a60.85 60.85 0 0 1 -15.42 26.44 8.26 8.26 0 0 0 -2.3 5.47 230.69 230.69 0 0 1 -3.26 47.16c-.31 1.78 0 1.86.67.2 3.55-8.63 9.12-21.54 15.63-34.29a173.76 173.76 0 0 1 21.85-32.76c1.19-1.37 2.29-.91 2.2.89-.44 8.37-2.86 31.1-13.67 48.85-8.9 14.84-19.43 22.11-25.4 25.33a8.18 8.18 0 0 0 -3.65 4.67 234.05 234.05 0 0 1 -15.07 44.46c-.75 1.65-.5 1.81.6.36 6-7.78 15-19.38 24.89-30.56a185.8 185.8 0 0 1 31.1-28c1.55-1 2.46-.33 1.93 1.41-2.55 8.34-11 31.37-26.92 46.86-13.18 12.95-26 17.45-32.94 19a8 8 0 0 0 -4.75 3.53 225.23 225.23 0 0 1 -32.42 46.18c-1.21 1.34-1 1.56.47.53 8.14-5.67 20.21-13.84 32.75-21.41a182.09 182.09 0 0 1 37.88-17.11c1.74-.53 2.44.45 1.43 1.95-4.91 7.2-19.79 26.65-39.73 36.59-16.55 8.37-30.24 8.69-37.33 8.07a8.08 8.08 0 0 0 -5.61 1.9 214 214 0 0 1 -45.4 33.38c-1.56.87-1.48 1.14.25.61 10.38-3.11 25.83-7.57 41.33-11.46a205 205 0 0 1 44-5.94c1.8 0 2.22 1.12.82 2.27-7.06 5.77-28.42 21.3-52.44 25.13-20 3.33-34.35-.89-41.43-3.81a8.47 8.47 0 0 0 -5.95 0 212.57 212.57 0 0 1 -21.2 8.44c-1.71.58-3.11 1-3.11 1s-1.42.42-3.11.95a229.62 229.62 0 0 1 -24.37 6c-1.79.34-1.77.59 0 .61 11.74.09 29.21.29 46.08 1a220 220 0 0 1 45.57 6.75c1.74.5 1.82 1.68.14 2.38-8.63 3.53-34.68 12.44-60.42 9.22-21.54-2.62-34.93-10.88-41.2-15.81a9.08 9.08 0 0 0 -5.79-1.7c-1.21.16-2.42.28-3.63.41-1.81.18-3.27-.36-3.27-1.17s1.46-1.65 3.27-1.85l3.11-.37a8.28 8.28 0 0 0 4.97-2.99z" fill="#cca650"/><path d="m287.42 439.36 14.62 25.26 14.41-.04 14.67-25.22z" fill="#f58722"/><path d="m287.46 439.33-21.83 37.84 29.19-.05 7.17-12.49z" fill="#1a6178"/><path d="m287.42 514.85h43.7l-14.67-25.23-14.41-.03z" fill="#1298b6"/><path d="m287.46 514.88 14.53-25.3-7.17-12.49-29.19-.05z" fill="#89bb48"/><path d="m323.67 477.15-7.16 12.49 14.51 25.3 21.84-37.84z" fill="#a7529e"/><path d="m79.05 279.31h-79.05l30.06 51.76-30.06 51.76h112.08v-37.61-65.91z" fill="#4d7084"/><path d="m618.49 279.31h-79.05-33.04v65.91 37.61h112.09l-30.07-51.76z" fill="#4d7084"/><path d="m533.85 348.42v-69.91-4.65-4.67-45.19h-447.85v45.19 4.67 4.65 69.91h26.77 3.12 3.14 381.79 3.12 3.15z" fill="#6896b5"/><g fill="#fff"><path d="m166.81 310.68v-39.06a27.67 27.67 0 0 1 .39-5.39 4.34 4.34 0 0 1 1.46-2.66 7.44 7.44 0 0 1 3.4-1.19v-1.38q-2.17.21-6.09.21h-.56c-2.95 0-5.29-.08-7-.21v1.4a11.16 11.16 0 0 1 4.55 1.23 4.15 4.15 0 0 1 1.82 2.8 31.21 31.21 0 0 1 .42 6v21.91l-27.09-33.34q-2.52.21-6 .21-3.85 0-6.09-.21v1.4a12.12 12.12 0 0 1 3.4.56 2.44 2.44 0 0 1 1.47 1.61 14 14 0 0 1 .38 3.85v31.5a28.66 28.66 0 0 1 -.38 5.39 4.4 4.4 0 0 1 -1.49 2.69 7.44 7.44 0 0 1 -3.4 1.19v1.4q2.23-.21 6.09-.21 4.83 0 7.56.21v-1.4a11.35 11.35 0 0 1 -4.55-1.22 4.2 4.2 0 0 1 -1.82-2.8 31.4 31.4 0 0 1 -.42-6.06v-26.93l30.38 38.5 1.89-.07z"/><path d="m215.32 310.54a94 94 0 0 1 -.49-10.64q0-3.57.21-5.88h-1.61q-1.26 8.12-4.31 11.52a10.24 10.24 0 0 1 -8 3.39h-3.43a10.28 10.28 0 0 1 -3.15-.35 2.1 2.1 0 0 1 -1.33-1.36 11.07 11.07 0 0 1 -.35-3.26v-17.64h2.24q7.07 0 8.54 9.24h1.61q-.42-6.37-.42-9.94v-3.36q0-3.64.21-6.58h-1.61a17.05 17.05 0 0 1 -2.69 6.51 6.48 6.48 0 0 1 -5.64 2.73h-2.24v-17.36a11 11 0 0 1 .35-3.25 2.09 2.09 0 0 1 1.33-1.37 10.28 10.28 0 0 1 3.15-.35h2.87q5 0 7.7 3t3.74 10.51h1.61a41 41 0 0 1 -.21-4.76c0-3 .16-6.49.49-10.36q-4.08.19-13.4.21h-2.7q-14.16 0-21.35-.21v1.4a12.12 12.12 0 0 1 3.4.56 2.44 2.44 0 0 1 1.47 1.61 14 14 0 0 1 .38 3.85v34.72a14 14 0 0 1 -.38 3.85 2.44 2.44 0 0 1 -1.47 1.61 12.12 12.12 0 0 1 -3.4.56v1.4q7.56-.21 22.82-.21 11.3 0 16.06.21z"/><path d="m267.61 310.68 12.32-40a16.4 16.4 0 0 1 2.77-5.63 8.74 8.74 0 0 1 3.39-2.7v-1.35c-1.4.14-3.2.21-5.39.21-2.61 0-5.51-.07-8.68-.21v1.4a7 7 0 0 1 4.52 1.51 5.64 5.64 0 0 1 1.5 4.37 30.21 30.21 0 0 1 -1.61 8.12l-6.65 21.14-9.59-29.26a10.55 10.55 0 0 1 -.7-3.29 2 2 0 0 1 1.12-2 9.92 9.92 0 0 1 3.64-.6v-1.39q-3.22.21-10.08.21h-.67q-5.64 0-9.34-.21v1.4a4 4 0 0 1 2.21.95 6.56 6.56 0 0 1 1.64 2.83l3.57 10.82-7.07 20.86-10.22-29.61a11.46 11.46 0 0 1 -.63-3.15 2.51 2.51 0 0 1 2.45-2.73v-1.37q-2.73.21-8.61.21h-.73q-5.75 0-9.7-.21v1.4a4 4 0 0 1 2.38 1.12 8.15 8.15 0 0 1 2 3.36l15.68 43.82c.51-.05 1.33-.07 2.45-.07s1.94 0 2.45.07l10.36-31.22 10.29 31.22c.51-.05 1.33-.07 2.45-.07s1.94 0 2.45.07z"/><path d="m331.94 310.54v-1.4a11.83 11.83 0 0 1 -3.43-.56 2.41 2.41 0 0 1 -1.43-1.61 13.56 13.56 0 0 1 -.39-3.85v-16.31l8.31-16.38q3.49-6.8 6.72-8.12v-1.4c-1.4.14-3.17.21-5.32.21q-4 0-8.75-.21v1.4a8.15 8.15 0 0 1 4.3 1.19 3.87 3.87 0 0 1 1.51 3.43q0 3.15-2.73 8.68l-5.46 10.92-10.69-20.53a3.38 3.38 0 0 1 -.49-1.54c0-.79.48-1.34 1.43-1.64a13.11 13.11 0 0 1 3.89-.46v-1.47q-6.65.34-13.16.35a77.62 77.62 0 0 1 -8.26-.35v1.47q1.89 0 4.06 3.92l13.51 25v11.83a13.56 13.56 0 0 1 -.39 3.85 2.4 2.4 0 0 1 -1.47 1.61 12 12 0 0 1 -3.39.56v1.4q3.36-.21 10.85-.21 7 0 10.78.21z"/><path d="m367.15 260a26.88 26.88 0 0 1 13 3 21 21 0 0 1 8.64 8.72 28.29 28.29 0 0 1 3.08 13.61 28.75 28.75 0 0 1 -3.16 13.67 22.77 22.77 0 0 1 -8.79 9.24 25 25 0 0 1 -12.84 3.29 26.79 26.79 0 0 1 -13-3 21 21 0 0 1 -8.65-8.71 28.36 28.36 0 0 1 -3.08-13.62 28.75 28.75 0 0 1 3.15-13.65 22.81 22.81 0 0 1 8.78-9.24 25.05 25.05 0 0 1 12.87-3.31zm-.28 1.26a9.07 9.07 0 0 0 -6.79 3.12 20.46 20.46 0 0 0 -4.51 8.71 47.37 47.37 0 0 0 -1.57 12.81 41.78 41.78 0 0 0 1.78 12.81 20.76 20.76 0 0 0 4.84 8.54 9.4 9.4 0 0 0 6.75 3 9.1 9.1 0 0 0 6.79-3.11 20.8 20.8 0 0 0 4.52-8.72 47.79 47.79 0 0 0 1.57-12.81 41.76 41.76 0 0 0 -1.79-12.81 20.64 20.64 0 0 0 -4.83-8.54 9.38 9.38 0 0 0 -6.76-3z"/><path d="m396.69 261h.29q3.57.19 10.35.19l7.77-.07h.41c.83 0 1.77-.05 2.81-.05q9.66 0 14.53 3.15a10.13 10.13 0 0 1 4.86 9 12.23 12.23 0 0 1 -3.64 8.75q-3.65 3.78-12 4.76 6.3.56 9.38 2.73a10.17 10.17 0 0 1 4 6.51l1.61 7.21.07.34a11.49 11.49 0 0 0 1.22 3.58 2.34 2.34 0 0 0 2.07 1.12 3.39 3.39 0 0 0 1.43-.42 6.14 6.14 0 0 0 1.37-1.19l1 .84-.29.33a11.52 11.52 0 0 1 -3.77 2.79 13.14 13.14 0 0 1 -5.25.94 10.69 10.69 0 0 1 -6.41-1.71q-2.34-1.72-3-5.85l-1.26-7-.09-.48a25.29 25.29 0 0 0 -2.12-7 4.49 4.49 0 0 0 -4.3-2.42h-4.55v16.45a13.39 13.39 0 0 0 .38 3.5 2.45 2.45 0 0 0 1.44 1.61 11.83 11.83 0 0 0 3.43.56v1.4h-.33q-3.75-.19-10.24-.19h-.55c-4.71 0-8.22.08-10.51.21v-1.4h.35a11.11 11.11 0 0 0 3-.54 2.4 2.4 0 0 0 1.47-1.61 13.56 13.56 0 0 0 .39-3.85v-35.14a12.88 12.88 0 0 0 -.39-3.5 2.4 2.4 0 0 0 -1.47-1.61 12 12 0 0 0 -3.39-.56zm20.72 1.4a5.91 5.91 0 0 0 -2.77.49 2.72 2.72 0 0 0 -1.22 1.75 15.33 15.33 0 0 0 -.35 3.78v17.22h3q5.75 0 7.87-3t2.14-8.58q0-5.75-2-8.68t-6.67-3z"/><path d="m493.43 310.54v-1.4a10.06 10.06 0 0 1 -2.87-1.68 12.36 12.36 0 0 1 -2.17-2.59l-16.31-25.41 8.75-10.46a19.16 19.16 0 0 1 10.17-6.69v-1.31q-2.52.21-6.58.21-5.25 0-10.36-.21v1.33a7.21 7.21 0 0 1 3.82 1.12 3.1 3.1 0 0 1 1.36 2.66q0 2.81-3.22 6.51l-4.13 5a28.46 28.46 0 0 1 -5.25 4.9 9.87 9.87 0 0 1 -5.11 1.68v-15.8a14 14 0 0 1 .38-3.85 2.45 2.45 0 0 1 1.44-1.61 11.83 11.83 0 0 1 3.43-.56v-1.38q-3.78.21-10.57.21h-.55c-4.71 0-8.22-.08-10.51-.21v1.4a12 12 0 0 1 3.39.56 2.4 2.4 0 0 1 1.47 1.61 13.56 13.56 0 0 1 .39 3.85v34.72a13.56 13.56 0 0 1 -.4 3.86 2.4 2.4 0 0 1 -1.47 1.61 12 12 0 0 1 -3.39.56v1.4q3.57-.21 11.06-.21 6.8 0 10.57.21v-1.4a11.83 11.83 0 0 1 -3.43-.56 2.45 2.45 0 0 1 -1.44-1.61 14 14 0 0 1 -.38-3.85v-17.5a4.64 4.64 0 0 1 2.56.91 12.89 12.89 0 0 1 2.34 3l10.14 16.44a3.94 3.94 0 0 1 .77 1.75c0 .47-.29.79-.88 1a12.83 12.83 0 0 1 -2.83.42v1.4q4.28-.21 8.89-.21 6 0 10.92.21z"/></g><path d="m165.7 158.66h.3q2.46.14 6.86.13l4-.05h.14 2.68q5.27 0 7.8 1.62a5.13 5.13 0 0 1 2.54 4.58 7.2 7.2 0 0 1 -1.57 4.49 11.56 11.56 0 0 1 -4.45 3.36 20.67 20.67 0 0 1 -6.62 1.69q5.11.24 7.85 2.26a6.1 6.1 0 0 1 2.72 5.07 8.12 8.12 0 0 1 -2 5.52 12.15 12.15 0 0 1 -5.48 3.46 25.2 25.2 0 0 1 -8 1.17h-2.73-1c-1.59-.05-3.1-.07-4.53-.07q-4.75 0-7.29.14l.19-.94h.33a9.17 9.17 0 0 0 2.21-.35 2.49 2.49 0 0 0 1.34-1.08 10.56 10.56 0 0 0 1-2.59l6.2-23.31.07-.29a8.92 8.92 0 0 0 .31-2 1.44 1.44 0 0 0 -.68-1.31 5.37 5.37 0 0 0 -2.47-.47zm9 16.4h-2.07l-3.13 11.94-.05.24a9.94 9.94 0 0 0 -.32 1.88 1.7 1.7 0 0 0 .51 1.34 2.74 2.74 0 0 0 1.74.44 8.43 8.43 0 0 0 4.75-1.31 8.21 8.21 0 0 0 3-3.57 12.12 12.12 0 0 0 1-5 6.6 6.6 0 0 0 -1.29-4.28 5 5 0 0 0 -4.11-1.6zm4.3-15.46a2.72 2.72 0 0 0 -2 .66 6.3 6.3 0 0 0 -1.15 2.68l-3 11.32h1.64a7.06 7.06 0 0 0 4.4-1.41 8.77 8.77 0 0 0 2.82-3.73 12.93 12.93 0 0 0 1-5 5.87 5.87 0 0 0 -.82-3.39 3.18 3.18 0 0 0 -2.89-1.13z"/><path d="m208 167a6 6 0 0 1 3.53 1 3.16 3.16 0 0 1 1.36 2.75c0 2.6-1.45 4.87-4.37 6.82a35.13 35.13 0 0 1 -10.16 4.43 18.09 18.09 0 0 0 -.28 3.19 5.34 5.34 0 0 0 .91 3.53 3.45 3.45 0 0 0 2.71 1 7.53 7.53 0 0 0 3.29-.91 11.91 11.91 0 0 0 3.57-2.94l.75.37-.25.38a15 15 0 0 1 -4.28 4.09 11.53 11.53 0 0 1 -6.37 1.83 7.93 7.93 0 0 1 -5.31-1.74 6 6 0 0 1 -2.1-4.8 19.16 19.16 0 0 1 2.25-8.65 21 21 0 0 1 6.16-7.41 13.94 13.94 0 0 1 8.59-2.94zm-1 .89c-.91 0-1.94.64-3.1 1.93a20.44 20.44 0 0 0 -3.2 5 29.32 29.32 0 0 0 -2.16 6.32 18.64 18.64 0 0 0 5.17-3.14 13 13 0 0 0 3-3.88 10.44 10.44 0 0 0 1.08-4.68 2.66 2.66 0 0 0 -.19-1.22.6.6 0 0 0 -.6-.35z"/><path d="m219.79 192.59a10.83 10.83 0 0 0 4.68-.94 7.32 7.32 0 0 0 3.08-2.56 6.5 6.5 0 0 0 1.08-3.69 8.45 8.45 0 0 0 -.64-3.19 28.07 28.07 0 0 0 -2.14-4.09l-.65-1a31.73 31.73 0 0 1 -1.67-2.91 5.28 5.28 0 0 1 -.49-2.31 4.35 4.35 0 0 1 1-2.94 3.41 3.41 0 0 1 2.65-1.05 3.15 3.15 0 0 1 1.65.37 6.15 6.15 0 0 0 -1 1.72 5.61 5.61 0 0 0 -.42 2.18 3.54 3.54 0 0 0 .7 2.26 2.26 2.26 0 0 0 1.88.89 2.43 2.43 0 0 0 2.12-1.08 4.1 4.1 0 0 0 .75-2.39 4 4 0 0 0 -2-3.79 10.75 10.75 0 0 0 -5.1-1.1 9.45 9.45 0 0 0 -6.28 1.92 6.24 6.24 0 0 0 -2.28 5 7.76 7.76 0 0 0 .45 2.56 12.66 12.66 0 0 0 1.36 2.7c.61.94 1 1.5 1.11 1.69a23.56 23.56 0 0 1 2 3.62 8.12 8.12 0 0 1 .66 3.1 4 4 0 0 1 -1.08 3 3.89 3.89 0 0 1 -2.87 1.09 4.34 4.34 0 0 1 -1.83-.33 20.67 20.67 0 0 0 .7-2 6.66 6.66 0 0 0 .24-1.86 4.44 4.44 0 0 0 -.73-2.63 2.38 2.38 0 0 0 -3.88 0 4 4 0 0 0 -.7 2.4 4.44 4.44 0 0 0 2.21 4.16 10.84 10.84 0 0 0 5.44 1.2z"/><path d="m239 192.59q5.22 0 7.05-5.54l.94-2.73h-.89l-.71 1.93a8.85 8.85 0 0 1 -1.72 3 2.77 2.77 0 0 1 -2 1 1.49 1.49 0 0 1 -1-.35 1.4 1.4 0 0 1 -.37-1.06 3.06 3.06 0 0 1 .14-.94l5.56-19.32h5.45l.14-.94h-5.31l2.21-7.67a34.27 34.27 0 0 1 -6.81.66l-2 7h-4.28l-.24.94h4.23l-4.74 16.54a10.17 10.17 0 0 0 -.43 2.82 4.71 4.71 0 0 0 1.2 3.41 4.78 4.78 0 0 0 3.58 1.25z"/><path d="m275.86 192.59a13.86 13.86 0 0 0 4.89-.8 20.62 20.62 0 0 0 4.33-2.25 1.7 1.7 0 0 1 .94-.43c.4 0 .61.41.61 1.23a11 11 0 0 1 -.15 1.59h1q.56-3.15 2.77-11.28h-1a42.09 42.09 0 0 1 -2.09 4.49 15.83 15.83 0 0 1 -2.14 2.94 10.12 10.12 0 0 1 -3.34 2.28 9.38 9.38 0 0 1 -3.71.82 5.42 5.42 0 0 1 -4.68-2.32c-1.11-1.56-1.67-3.88-1.67-7a29.7 29.7 0 0 1 2.06-10.86 23.74 23.74 0 0 1 5.45-8.6 10.22 10.22 0 0 1 7.17-3.31 5.78 5.78 0 0 1 5.54 3.05 7.11 7.11 0 0 1 .8 3.58 22.14 22.14 0 0 1 -.37 3.71h1a74.63 74.63 0 0 1 3-10.81h-1c-.69 1.88-1.31 2.82-1.88 2.82a1 1 0 0 1 -.7-.42 10.1 10.1 0 0 0 -2.85-2.26 9.08 9.08 0 0 0 -4.16-.8 20.55 20.55 0 0 0 -11.42 3.36 24.15 24.15 0 0 0 -8.11 8.7 22.37 22.37 0 0 0 -2.93 10.88q0 5.64 3.15 8.64t9.49 3.05z"/><path d="m309.37 167a7.56 7.56 0 0 1 5.64 2 7.87 7.87 0 0 1 2 5.76 20.77 20.77 0 0 1 -1.76 8 17.9 17.9 0 0 1 -5.22 7 12.62 12.62 0 0 1 -8.25 2.82 7.56 7.56 0 0 1 -5.64-2 7.82 7.82 0 0 1 -2-5.75 20.59 20.59 0 0 1 1.76-8 17.71 17.71 0 0 1 5.22-7 12.62 12.62 0 0 1 8.25-2.83zm-.23.94q-1.74 0-3.81 3.33a33.1 33.1 0 0 0 -3.48 8.18 32.43 32.43 0 0 0 -1.41 9 5.82 5.82 0 0 0 .38 2.44 1.27 1.27 0 0 0 1.22.75q1.74 0 3.79-3.24a32.06 32.06 0 0 0 3.45-8.06 32.56 32.56 0 0 0 1.41-9.14 6.09 6.09 0 0 0 -.38-2.56 1.23 1.23 0 0 0 -1.17-.72z"/><path d="m349 192.59q4.65 0 6.35-4.84l1.17-3.43h-.89l-.85 2.26c-.91 2.47-1.89 3.71-3 3.71-.59 0-.89-.33-.89-1a4.84 4.84 0 0 1 .28-1.36l4.61-13.87a10.4 10.4 0 0 0 .66-3.43 3.77 3.77 0 0 0 -.94-2.68 3.9 3.9 0 0 0 -2.92-1 8 8 0 0 0 -5.57 2.25q-2.41 2.27-4.77 7.85l.85-3a14.22 14.22 0 0 0 .56-3.43q0-3.66-3.71-3.66a7.89 7.89 0 0 0 -5.81 2.44q-2.41 2.45-4.72 8.18l1-4a10.94 10.94 0 0 0 .43-2.82 4 4 0 0 0 -.9-2.73 3.64 3.64 0 0 0 -2.91-1 6.49 6.49 0 0 0 -3.74 1.13 7.23 7.23 0 0 0 -2.6 3.71l-1.27 3.57h.89l.89-2.4a11.25 11.25 0 0 1 1.44-2.84 1.93 1.93 0 0 1 1.52-.87c.57 0 .85.33.85 1a4.87 4.87 0 0 1 -.24 1.36l-5.73 20.3h6.63l1.22-4.74a68.32 68.32 0 0 1 5-12.73q2.65-4.89 4.77-4.89c.51 0 .76.3.76.89a7.13 7.13 0 0 1 -.38 1.93l-5.73 19.5h6.72l1.22-4.37v.14a67 67 0 0 1 5.43-13.46q2.7-4.63 4.63-4.63c.44 0 .66.31.66.94a7.06 7.06 0 0 1 -.38 1.88l-4.23 12.69a11.84 11.84 0 0 0 -.7 3.67 3.88 3.88 0 0 0 .51 2.11c.83 1.08 2.05 1.67 3.83 1.67z"/><path d="m375.27 159.69-4 14.34.2-.43a15.72 15.72 0 0 1 3.37-4.93 5.93 5.93 0 0 1 4-1.69 5.26 5.26 0 0 1 4.35 1.85 8.54 8.54 0 0 1 1.48 5.39 21.94 21.94 0 0 1 -1.72 8.15 19.58 19.58 0 0 1 -4.91 7.26 10.57 10.57 0 0 1 -7.43 3 7 7 0 0 1 -2.44-.42 4.08 4.08 0 0 1 -1.78-1.22l-1.27 4.51-.08.28a5.73 5.73 0 0 0 -.21 1.41 1.83 1.83 0 0 0 .94 1.79 7.46 7.46 0 0 0 3 .51l-.28 1-1.08-.05h-.41c-2.71-.08-4.59-.12-5.65-.13h-.35c-1 0-3.25.07-6.63.19l.28-1h.26a3.64 3.64 0 0 0 2.19-.61 4.49 4.49 0 0 0 1.22-2.3l8.51-30.5-.3.64a29.64 29.64 0 0 1 -2.71 4.6 44.64 44.64 0 0 1 -4.14 4.82l-.52-.62.37-.4q1.83-2 3.06-3.52a29.84 29.84 0 0 0 2.75-4.09 43 43 0 0 0 2.75-5.9l.15-.56.76-.06a29 29 0 0 0 6.32-1.26zm1 9.78c-.94 0-2 .91-3.2 2.72a33.08 33.08 0 0 0 -3.29 6.91l-3.15 11.05.14.16a2.68 2.68 0 0 0 2 .92c1.47 0 2.91-.95 4.3-2.84a23.86 23.86 0 0 0 3.41-7 26.67 26.67 0 0 0 1.32-8 8.18 8.18 0 0 0 -.4-3.06 1.25 1.25 0 0 0 -1.14-.86z"/><path d="m411.08 167-6.16 21-.06.22a4.69 4.69 0 0 0 -.17 1.1c0 .68.3 1 .89 1q1.65 0 2.92-3.71l.84-2.26h.9l-1.18 3.43-.12.32a6.92 6.92 0 0 1 -2.49 3.42 6.42 6.42 0 0 1 -3.59 1.1 4 4 0 0 1 -3.48-1.45 3.75 3.75 0 0 1 -.66-2.35 10.79 10.79 0 0 1 .42-2.78 13.45 13.45 0 0 1 -3.54 5 6.73 6.73 0 0 1 -4.3 1.55 4.94 4.94 0 0 1 -3.93-1.53 6.22 6.22 0 0 1 -1.34-4.25 20.73 20.73 0 0 1 2.23-8.86 25.17 25.17 0 0 1 5.67-7.82q3.42-3.15 6.72-3.15a2.8 2.8 0 0 1 2 .75 3.44 3.44 0 0 1 .92 2.26l.66-2.31h.67a33.37 33.37 0 0 0 6.14-.69zm-9.54 1.74c-1.06 0-2.28.95-3.64 2.86a27.21 27.21 0 0 0 -3.48 7.19 26.48 26.48 0 0 0 -1.43 8.37 6 6 0 0 0 .3 2.23 1 1 0 0 0 1 .68 3.31 3.31 0 0 0 2.28-1.43 17.62 17.62 0 0 0 2.49-4.14 37.61 37.61 0 0 0 2.19-6.41l-.25 1.11 2.07-7.38v-.11a4.75 4.75 0 0 0 0-.6 3.21 3.21 0 0 0 -.4-1.78 1.34 1.34 0 0 0 -1.13-.61z"/><path d="m431.1 192.59q4.61 0 6.3-4.84l1.18-3.43h-.9l-.84 2.26a9.09 9.09 0 0 1 -1.48 2.91 2.07 2.07 0 0 1 -1.48.8q-.9 0-.9-1a4.55 4.55 0 0 1 .29-1.36l4.6-13.87a11.14 11.14 0 0 0 .61-3.33q0-3.77-4.23-3.76a7.71 7.71 0 0 0 -4 1.08 12 12 0 0 0 -3.57 3.73 43.55 43.55 0 0 0 -3.69 7.45l1.46-5.68a10.62 10.62 0 0 0 .38-2.73q0-3.86-4.05-3.85a5.87 5.87 0 0 0 -3.66 1.13 7.58 7.58 0 0 0 -2.4 3.71l-1.27 3.57h.9l.89-2.4a10.44 10.44 0 0 1 1.43-2.89 2 2 0 0 1 1.58-.82c.53 0 .79.28.79.85a4.76 4.76 0 0 1 -.28 1.5l-5.68 20.3h6.62l.61-2.35a85.16 85.16 0 0 1 3.53-9.84 44.35 44.35 0 0 1 4-7.55q2-2.87 3.4-2.86.9 0 .9 1.08a6.64 6.64 0 0 1 -.43 2l-4.23 12.69a12 12 0 0 0 -.75 3.71 3.86 3.86 0 0 0 .61 2.21 4.34 4.34 0 0 0 3.76 1.58z"/><path d="m438.81 200.77a9.66 9.66 0 0 0 3.34-.7 20.72 20.72 0 0 0 5.94-3.25 32.88 32.88 0 0 0 5.29-5.07 47.39 47.39 0 0 0 6.54-10.41 24.85 24.85 0 0 0 2.72-10.09q0-4.27-3.1-4.27a3.05 3.05 0 0 0 -2.3.87 3.16 3.16 0 0 0 -.85 2.32 5.26 5.26 0 0 0 1.18 3.43 9.56 9.56 0 0 0 3.14 2.64 30.18 30.18 0 0 1 -2.2 5.89 45.18 45.18 0 0 1 -3.58 6l-2.16-16.12a7 7 0 0 0 -1.55-3.94 4.22 4.22 0 0 0 -3.15-1.13 5.53 5.53 0 0 0 -3.41 1.08 7.87 7.87 0 0 0 -2.37 3.76l-1.18 3.43h.9l.84-2.3a15.09 15.09 0 0 1 1.23-2.78 1.26 1.26 0 0 1 1-.7.8.8 0 0 1 .73.44 6.43 6.43 0 0 1 .5 1.77l3.69 22.5a23 23 0 0 1 -6.11 4.33c-1.5-2.16-3.18-3.25-5-3.25a3.33 3.33 0 0 0 -2.32.83 2.64 2.64 0 0 0 -.92 2.09 2.36 2.36 0 0 0 .87 1.93 3.66 3.66 0 0 0 2.29.7z"/><rect fill="#463a1c" height="60" rx="12" width="134" x="243" y="54"/><path d="m289.61 97h-18v-3.78l6.45-6.52c1.91-2 3.16-3.31 3.74-4.07a9.09 9.09 0 0 0 1.27-2.1 5.51 5.51 0 0 0 .38-2 2.93 2.93 0 0 0 -.85-2.31 3.33 3.33 0 0 0 -2.28-.75 6.66 6.66 0 0 0 -2.9.68 15.49 15.49 0 0 0 -2.93 1.95l-2.95-3.49a19.37 19.37 0 0 1 3.14-2.29 11.69 11.69 0 0 1 2.73-1 13.9 13.9 0 0 1 3.3-.36 9.77 9.77 0 0 1 4.26.88 6.84 6.84 0 0 1 2.86 2.46 6.54 6.54 0 0 1 1 3.62 8.92 8.92 0 0 1 -.62 3.33 12.69 12.69 0 0 1 -1.94 3.19 46.46 46.46 0 0 1 -4.61 4.66l-3.31 3.11v.25h11.2z" fill="#fff"/><path d="m309.37 84.15q0 6.73-2.21 10t-6.79 3.23a7.57 7.57 0 0 1 -6.71-3.38q-2.25-3.33-2.26-9.86 0-6.8 2.2-10c1.47-2.15 3.72-3.22 6.77-3.22a7.58 7.58 0 0 1 6.72 3.37q2.28 3.36 2.28 9.86zm-12.57 0a19.9 19.9 0 0 0 .82 6.78 2.82 2.82 0 0 0 2.75 2 2.86 2.86 0 0 0 2.74-2.07 19.5 19.5 0 0 0 .84-6.75 19.31 19.31 0 0 0 -.85-6.79 2.87 2.87 0 0 0 -2.73-2.07 2.83 2.83 0 0 0 -2.74 2.07 19.91 19.91 0 0 0 -.83 6.83z" fill="#fff"/><path d="m329.41 97h-18v-3.78l6.45-6.52c1.91-2 3.16-3.31 3.75-4.07a9.38 9.38 0 0 0 1.26-2.1 5.31 5.31 0 0 0 .39-2 3 3 0 0 0 -.85-2.31 3.33 3.33 0 0 0 -2.28-.75 6.63 6.63 0 0 0 -2.9.68 15.23 15.23 0 0 0 -2.94 1.95l-2.95-3.49a19.81 19.81 0 0 1 3.15-2.29 11.78 11.78 0 0 1 2.72-1 14 14 0 0 1 3.31-.36 9.72 9.72 0 0 1 4.25.88 6.86 6.86 0 0 1 2.87 2.46 6.54 6.54 0 0 1 1 3.62 8.73 8.73 0 0 1 -.63 3.33 12.63 12.63 0 0 1 -1.93 3.19 46.83 46.83 0 0 1 -4.62 4.66l-3.3 3.11v.25h11.2z" fill="#fff"/><path d="m349.3 97h-18v-3.78l6.45-6.52c1.91-2 3.16-3.31 3.74-4.07a9.09 9.09 0 0 0 1.27-2.1 5.31 5.31 0 0 0 .39-2 2.93 2.93 0 0 0 -.86-2.31 3.29 3.29 0 0 0 -2.27-.75 6.6 6.6 0 0 0 -2.9.68 15.23 15.23 0 0 0 -2.94 1.95l-3-3.49a18.94 18.94 0 0 1 3.15-2.29 11.78 11.78 0 0 1 2.72-1 14 14 0 0 1 3.3-.36 9.74 9.74 0 0 1 4.26.88 6.84 6.84 0 0 1 2.86 2.46 6.54 6.54 0 0 1 1 3.62 8.73 8.73 0 0 1 -.62 3.33 12.93 12.93 0 0 1 -1.85 3.16 48 48 0 0 1 -4.62 4.66l-3.3 3.11v.25h11.22z" fill="#fff"/></svg>