<svg viewBox="0 0 609.58 507.53" xmlns="http://www.w3.org/2000/svg"><path d="m489.47 405.03-184.69 83.32-184.67-83.32v-399.91h369.36z" fill="#fdd86f"/><path d="m304.78 493.47a5.26 5.26 0 0 1 -2.1-.46l-184.68-83.32a5.12 5.12 0 0 1 -3.07-4.6v-399.97a5.14 5.14 0 0 1 5.18-5.12h369.41a5.12 5.12 0 0 1 5.12 5.12v399.88a5.15 5.15 0 0 1 -3.07 4.6l-184.67 83.4a5.35 5.35 0 0 1 -2.12.47zm-179.57-91.74 179.57 81 179.59-81v-391.49h-359.16z" fill="#fdd86f"/><path d="m132 399.22v-381.22h346.64v381.22l-173.33 78.19z" fill="#e9c05b"/><path d="m240.77 464.44a248.24 248.24 0 0 0 -25-29.94c-13.49-13.59-26.32-25.29-31.49-29.95-1.33-1.19-2.43-.72-2.37 1.06.23 6.13 2 20.36 14.3 35.26 9.4 11.64 23.73 19.35 34.2 23.72 1.64.69 1.53 1-.19.63a211.27 211.27 0 0 1 -50-15.92 7.65 7.65 0 0 1 -3.68-4.53 210.4 210.4 0 0 0 -12.6-35.1c-7.8-16.49-16.11-31-19.54-36.94-.91-1.53-2.12-1.42-2.58.31a60.37 60.37 0 0 0 2.44 37.34c5 13.55 15.2 24.69 23 31.7 1.33 1.18 1.17 1.44-.4.58a208.22 208.22 0 0 1 -44-32.36 7.56 7.56 0 0 1 -2-5.47 175.5 175.5 0 0 0 -.41-35 349.56 349.56 0 0 0 -7.11-38.93c-.42-1.73-1.54-2-2.55-.45a59.42 59.42 0 0 0 -8.18 34.44c.63 13.34 6.13 26 10.73 34.45.87 1.53.61 1.76-.58.44a218.93 218.93 0 0 1 -31.37-44.7 7.53 7.53 0 0 1 -.15-5.82 165.9 165.9 0 0 0 10.39-33.06 325 325 0 0 0 4.85-39c.1-1.78-1-2.36-2.32-1.21a58.67 58.67 0 0 0 -18.12 30.09c-3.41 13-2.08 26.68-.27 36.11.34 1.75 0 1.85-.69.23a228.86 228.86 0 0 1 -14.53-42.92 7.42 7.42 0 0 1 1.45-5.57 147.5 147.5 0 0 0 17.32-27.41 290.68 290.68 0 0 0 13.57-34.65c.53-1.7-.37-2.53-2-1.73a56.06 56.06 0 0 0 -23.47 23.31c-6.15 11.11-8.2 24.11-8.78 33.18-.13 1.78-.43 1.81-.74 0a226.07 226.07 0 0 1 -3.03-45.63 7.46 7.46 0 0 1 2.79-5 117 117 0 0 0 20.13-19.08 230.71 230.71 0 0 0 18.64-26.95c.9-1.53.21-2.53-1.53-2.07a51.84 51.84 0 0 0 -24.28 15.33c-7.32 7.94-11.81 18-14.32 25.38-.58 1.7-.89 1.64-.72-.14a216.11 216.11 0 0 1 7.8-41 7.7 7.7 0 0 1 4-4.26 106.82 106.82 0 0 0 22.56-13 223.72 223.72 0 0 0 23.53-20.95c1.24-1.29.79-2.39-1-2.29a51.35 51.35 0 0 0 -25.76 9.03 72 72 0 0 0 -19.16 20.35 17.56 17.56 0 0 1 -1.55 2.3 2.06 2.06 0 0 1 .15-.48c.31-.89.61-1.76.94-2.65s.62-1.72 1-2.59l1-2.62 1-2.58c.37-.87.72-1.74 1.09-2.6l1.09-2.56 1.14-2.57c.38-.84.78-1.69 1.18-2.53l1.21-2.58 1.25-2.49c.43-.85.86-1.71 1.31-2.55s.86-1.65 1.3-2.47l1.34-2.55c.46-.82.92-1.64 1.39-2.45s.95-1.67 1.45-2.5l1.53-2.42.41-.67a8.29 8.29 0 0 1 3.62-1.15 90.48 90.48 0 0 0 21.6-6.76 190.31 190.31 0 0 0 24.77-14.18c1.53-1 1.25-2.13-.52-2.33a49.16 49.16 0 0 0 -23.72 3.69 69.77 69.77 0 0 0 -20 13.2c-1.3 1.21-1.53 1-.53-.44q4.92-7.23 10.51-14.14a26.88 26.88 0 0 1 4.66-4.32 256.25 256.25 0 0 0 23-18 326.63 326.63 0 0 0 24.19-24.36c1.19-1.33.75-2.05-.94-1.53a91.84 91.84 0 0 0 -30.65 17.61 79.78 79.78 0 0 0 -18.4 24 33.72 33.72 0 0 1 -3.37 5.52q-5.67 7-10.73 14.33c-1 1.53-1.24 1.35-.59-.31 2.4-6.13 5.59-14.81 8.14-23.83a108.35 108.35 0 0 0 4-26.17c0-1.79-1-2.14-2.11-.72-3.94 5.23-12.5 17.89-15.33 31.25a49.93 49.93 0 0 0 .2 23.84 9.06 9.06 0 0 1 .55 3.79l-.43.72c-.49.79-1 1.53-1.44 2.39s-1 1.7-1.53 2.57-.94 1.61-1.38 2.41l-1.41 2.6-1.3 2.53c-.46.87-.89 1.75-1.33 2.63s-.83 1.64-1.23 2.46-.84 1.77-1.26 2.65-.78 1.67-1.16 2.5-.74 1.74-1.15 2.66-.74 1.67-1.09 2.52-.74 1.79-1.1 2.7-.69 1.68-1 2.52-.71 1.81-1 2.72-.63 1.7-.93 2.54l-1 2.75a1.86 1.86 0 0 1 -.17.52 10.63 10.63 0 0 1 .21-2.7c.89-7.43 2-18.39 2.27-29.57a129.32 129.32 0 0 0 -2.89-30.65c-.4-1.74-1.54-1.84-2.29-.22-2.94 6.52-9.3 23-8.57 39a56.36 56.36 0 0 0 7.53 26.92 8.28 8.28 0 0 1 .84 5.81 217.26 217.26 0 0 0 -7.92 41.75c-.16 1.78-.45 1.78-.69 0-1.08-7.87-2.87-19.34-5.57-30.82a138.44 138.44 0 0 0 -11.35-30.93c-.83-1.54-2-1.4-2.3.37-1.29 7.2-3.49 25.87 1.51 42.27a60 60 0 0 0 15.2 26 8.15 8.15 0 0 1 2.27 5.4 227.49 227.49 0 0 0 3.21 46.47c.3 1.77 0 1.84-.66.2-3.5-8.5-9-21.23-15.33-33.79a171.63 171.63 0 0 0 -21.46-32.29c-1.16-1.34-2.25-.9-2.16.88.43 8.24 2.82 30.65 13.47 48.14 8.77 14.63 19.16 21.8 25 25a8.08 8.08 0 0 1 3.61 4.6 229.67 229.67 0 0 0 14.85 43.84c.73 1.63.49 1.78-.6.36-5.87-7.67-14.79-19.1-24.52-30.12a183.41 183.41 0 0 0 -30.62-27.59c-1.53-1-2.42-.33-1.9 1.39 2.44 8.28 10.7 30.93 26.45 46.26 13 12.77 25.65 17.2 32.47 18.76a7.89 7.89 0 0 1 4.6 3.48 222.58 222.58 0 0 0 32 45.53c1.19 1.32 1 1.53-.46.52-8-5.6-19.93-13.64-32.28-21.11a178.92 178.92 0 0 0 -37.34-16.86c-1.7-.52-2.41.44-1.4 1.92 4.83 7.09 19.52 26.27 39.15 36.06 16.31 8.25 29.8 8.57 36.79 8a7.92 7.92 0 0 1 5.53 1.87 210.67 210.67 0 0 0 44.76 32.92c1.53.86 1.53 1.12-.25.6-10.24-3.06-25.46-7.46-40.74-11.3a202.12 202.12 0 0 0 -43.38-5.85c-1.79 0-2.2 1.1-.81 2.24 6.94 5.68 28 21 51.67 24.77 19.74 3.28 33.88-.88 40.84-3.76a8.38 8.38 0 0 1 5.88 0 207.19 207.19 0 0 0 20.88 8.32c1.68.57 3.06 1 3.06 1s1.4.41 3.07.94a228.07 228.07 0 0 0 24 5.87c1.75.33 1.74.58 0 .59-11.57.1-28.78.3-45.41 1a217 217 0 0 0 -44.91 6.7c-1.72.49-1.8 1.65-.14 2.34 8.51 3.48 34.18 12.27 59.56 9.09 21.22-2.59 34.41-10.73 40.59-15.59a9 9 0 0 1 5.7-1.67c1.2.16 2.39.28 3.59.4 1.78.19 3.22-.35 3.22-1.15s-1.44-1.62-3.2-1.82l-3.07-.37a8.28 8.28 0 0 1 -5.01-3.15z" fill="#cca650"/><path d="m368.79 462.91a249.33 249.33 0 0 1 25-29.94c13.49-13.59 26.32-25.29 31.5-30 1.32-1.2 2.42-.72 2.36 1.06-.23 6.13-2 20.35-14.31 35.25-9.34 11.72-23.72 19.41-34.17 23.78-1.66.69-1.53.95.17.63a210.84 210.84 0 0 0 50-15.93 7.63 7.63 0 0 0 3.68-4.52 210.08 210.08 0 0 1 12.6-35.1c7.8-16.49 16.11-31 19.55-36.94.9-1.53 2.11-1.43 2.57.31 1.64 5.93 4.18 19.92-2.44 37.34-5 13.55-15.2 24.69-23 31.69-1.33 1.18-1.16 1.44.4.59a209.23 209.23 0 0 0 44-32.36 7.59 7.59 0 0 0 2-5.47 176.24 176.24 0 0 1 .41-35 352.7 352.7 0 0 1 7.13-38.84c.41-1.74 1.61-2 2.54-.45a59.25 59.25 0 0 1 8.17 34.44c-.63 13.34-6.13 26-10.73 34.45-.85 1.53-.61 1.76.59.44a219.28 219.28 0 0 0 31.36-44.7 7.53 7.53 0 0 0 .15-5.82 167.21 167.21 0 0 1 -10.39-33.06 325.11 325.11 0 0 1 -4.93-38.93c-.11-1.78 1-2.36 2.33-1.21a58.67 58.67 0 0 1 18.12 30c3.43 13 2.1 26.69.29 36.12-.34 1.74 0 1.85.69.23a229.62 229.62 0 0 0 14.51-42.97 7.48 7.48 0 0 0 -1.38-5.64 147.5 147.5 0 0 1 -17.32-27.36 292.48 292.48 0 0 1 -13.56-34.66c-.54-1.7.37-2.52 2-1.73a56.14 56.14 0 0 1 23.47 23.32c6.22 11.16 8.27 24.15 8.86 33.18.1 1.78.41 1.81.72 0a225.38 225.38 0 0 0 3.06-45.6 7.38 7.38 0 0 0 -2.79-5.07 117.47 117.47 0 0 1 -20.08-19.09 231.82 231.82 0 0 1 -18.64-26.94c-.9-1.54-.21-2.53 1.54-2.07a51.91 51.91 0 0 1 24.18 15.32c7.33 7.94 11.8 18 14.32 25.38.58 1.7.89 1.64.72-.14a216 216 0 0 0 -7.8-41 7.63 7.63 0 0 0 -4-4.26 107 107 0 0 1 -22.7-13 224.12 224.12 0 0 1 -23.45-21c-1.26-1.29-.81-2.4 1-2.29a51.35 51.35 0 0 1 25.72 9.11 71.75 71.75 0 0 1 19.19 20.37 20.74 20.74 0 0 0 1.53 2.29 1.58 1.58 0 0 0 -.15-.48c-.31-.89-.61-1.76-.93-2.65s-.63-1.72-1-2.59-.65-1.75-1-2.62l-1-2.58c-.35-.87-.72-1.75-1.07-2.6l-1.06-2.6-1.14-2.59c-.39-.85-.79-1.69-1.19-2.53s-.79-1.72-1.22-2.58-.81-1.65-1.24-2.5l-1.29-2.54c-.43-.83-.87-1.66-1.32-2.47l-1.38-2.53-1.38-2.45-1.41-2.5-1.53-2.42-.41-.68a8.45 8.45 0 0 0 -3.62-1.14 90.34 90.34 0 0 1 -21.6-6.76 192.64 192.64 0 0 1 -24.77-14.18c-1.53-1-1.26-2.13.52-2.33a49.07 49.07 0 0 1 23.82 3.69 69.47 69.47 0 0 1 19.93 13.2c1.3 1.21 1.53 1 .53-.45q-4.92-7.22-10.51-14.13a27.07 27.07 0 0 0 -4.69-4.32 259.52 259.52 0 0 1 -23-18 330.52 330.52 0 0 1 -24.21-24.31c-1.19-1.34-.75-2.06.95-1.53a91.78 91.78 0 0 1 30.66 17.61 79.75 79.75 0 0 1 18.39 24 33.89 33.89 0 0 0 3.42 5.42q5.68 7 10.73 14.34c1 1.53 1.24 1.34.6-.31-2.41-6.13-5.59-14.81-8.14-23.84a108.77 108.77 0 0 1 -4.05-26.16c0-1.79 1.05-2.15 2.12-.72 3.94 5.22 12.51 17.89 15.33 31.25a50.18 50.18 0 0 1 -.19 23.84 8.84 8.84 0 0 0 -.56 3.78l.43.72 1.44 2.39c.5.85 1 1.71 1.53 2.58l1.36 2.41c.48.87 1 1.73 1.41 2.6s.88 1.63 1.31 2.44.89 1.75 1.33 2.64.83 1.64 1.23 2.45l1.27 2.65 1.15 2.5c.4.89.8 1.78 1.18 2.67s.73 1.67 1.09 2.51l1.1 2.7c.35.83.68 1.68 1 2.53s.71 1.8 1 2.71.63 1.7.94 2.54l1 2.75.19.52a12.85 12.85 0 0 0 -.23-2.7c-.89-7.43-2-18.39-2.27-29.57a128.85 128.85 0 0 1 2.9-30.65c.4-1.74 1.53-1.84 2.28-.22 2.94 6.52 9.31 23 8.57 39a56.32 56.32 0 0 1 -7.51 26.93 8.27 8.27 0 0 0 -.84 5.81 218.65 218.65 0 0 1 7.92 41.75c.15 1.78.44 1.78.69 0 1.07-7.88 2.88-19.34 5.56-30.82a139.23 139.23 0 0 1 11.36-30.94c.85-1.53 2-1.39 2.3.37 1.27 7.28 3.51 25.92-1.53 42.35a60 60 0 0 1 -15.21 26.06 8.25 8.25 0 0 0 -2.27 5.4 227.49 227.49 0 0 1 -3.2 46.47c-.31 1.76 0 1.84.66.2 3.49-8.51 9-21.23 15.4-33.8a171.14 171.14 0 0 1 21.54-32.28c1.17-1.35 2.25-.9 2.16.87-.43 8.25-2.82 30.66-13.47 48.15-8.77 14.62-19.15 21.8-25 25a8.06 8.06 0 0 0 -3.6 4.6 230.4 230.4 0 0 1 -14.86 43.82c-.73 1.63-.49 1.78.6.35 5.87-7.66 14.79-19.1 24.53-30.12a183.38 183.38 0 0 1 30.65-27.59c1.53-1 2.42-.32 1.9 1.4-2.51 8.21-10.82 30.91-26.53 46.18-13 12.77-25.64 17.2-32.47 18.76a7.92 7.92 0 0 0 -4.67 3.48 221.92 221.92 0 0 1 -32 45.53c-1.19 1.31-1 1.53.46.52 8-5.6 19.93-13.64 32.28-21.11a178.92 178.92 0 0 1 37.34-16.86c1.72-.52 2.41.44 1.41 1.92-4.84 7.09-19.51 26.27-39.16 36.06-16.31 8.25-29.8 8.57-36.79 8a8 8 0 0 0 -5.53 1.87 211.17 211.17 0 0 1 -44.76 32.92c-1.53.86-1.46 1.12.24.6 10.24-3.06 25.46-7.46 40.75-11.3a202.29 202.29 0 0 1 43.42-5.88c1.78 0 2.19 1.1.81 2.24-7 5.68-28 21-51.68 24.77-19.75 3.28-33.86-.88-40.84-3.76a8.35 8.35 0 0 0 -5.87 0 208.8 208.8 0 0 1 -20.87 8.33c-1.69.57-3.07 1-3.07 1s-1.39.41-3.06.94a227.29 227.29 0 0 1 -24 5.87c-1.76.33-1.75.58 0 .59 11.57.1 28.79.29 45.42 1a217.16 217.16 0 0 1 44.91 6.7c1.71.49 1.79 1.65.14 2.34-8.51 3.48-34.19 12.27-59.55 9.09-21.23-2.59-34.43-10.73-40.61-15.59a8.92 8.92 0 0 0 -5.7-1.67c-1.2.16-2.39.28-3.59.4-1.78.19-3.22-.35-3.22-1.15s1.44-1.62 3.22-1.82l3.07-.37a8.17 8.17 0 0 0 4.83-3z" fill="#cca650"/><path d="m283.28 433.03 14.41 24.9 14.2-.04 14.46-24.86z" fill="#f58722"/><path d="m283.32 433-21.52 37.3 28.77-.05 7.07-12.31z" fill="#1a6178"/><path d="m283.28 507.44h43.07l-14.46-24.87-14.2-.03z" fill="#1298b6"/><path d="m283.32 507.47 14.32-24.94-7.07-12.31-28.77-.05z" fill="#89bb48"/><path d="m319.01 470.28-7.05 12.31 14.3 24.94 21.52-37.3z" fill="#a7529e"/><path d="m77.91 275.29h-77.91l29.63 51.01-29.63 51.01h110.47v-37.06-64.96z" fill="#b27d28"/><path d="m609.58 275.29h-77.91-32.56v64.96 37.06h110.47l-29.63-51.01z" fill="#b27d28"/><path d="m526.4 343.62v-68.89-4.59-4.6-44.54h-441.4v44.54 4.6 4.59 68.89h26.38 3.08 3.1 376.29 3.08 3.09z" fill="#c99129"/><path d="m249.31 252a22.38 22.38 0 0 1 8.41 1.41 29.66 29.66 0 0 1 6.79 4 2.67 2.67 0 0 0 1.61.72c1.11 0 1.82-1.64 2.15-4.93h1.9v.8q-.28 5.82-.29 19.25h-1.98a57.66 57.66 0 0 0 -1.11-6.75 16.55 16.55 0 0 0 -1.82-4.59 13.35 13.35 0 0 0 -3.29-3.65 13.67 13.67 0 0 0 -4.75-3 15.81 15.81 0 0 0 -5.72-1.05 12.34 12.34 0 0 0 -9.36 3.92 23.72 23.72 0 0 0 -5.42 10.37 55.39 55.39 0 0 0 -1.72 14.21 52.27 52.27 0 0 0 1.8 14.17 23.4 23.4 0 0 0 5.58 10.27 12.69 12.69 0 0 0 9.44 3.86 15.88 15.88 0 0 0 5.6-1 13 13 0 0 0 4.71-3 12 12 0 0 0 3.27-3.76 18 18 0 0 0 1.78-5 62.37 62.37 0 0 0 1-7.28h1.94v4.94q0 11.07.32 15.92h-1.9l-.07-.67a12.58 12.58 0 0 0 -.64-3.07c-.31-.77-.75-1.15-1.31-1.15a3.49 3.49 0 0 0 -1.74.68 40.76 40.76 0 0 1 -4.51 2.85 21.55 21.55 0 0 1 -4.75 1.82 23.18 23.18 0 0 1 -6 .71 31.84 31.84 0 0 1 -15.38-3.56 24.56 24.56 0 0 1 -10.23-10.33 37.3 37.3 0 0 1 .1-32.27 26.88 26.88 0 0 1 10.39-10.92 29.64 29.64 0 0 1 15.2-3.92z" fill="#fff"/><path d="m323 299.22q0 6.75.57 12.57l-1.49-.06q-5.76-.18-17.47-.18h-7.54q-12.4 0-19.42.23v-1.66a12.45 12.45 0 0 0 4-.65 3 3 0 0 0 1.7-1.94 14.88 14.88 0 0 0 .46-4.14v-41.45a15.83 15.83 0 0 0 -.46-4.52 3 3 0 0 0 -1.72-1.94 12.57 12.57 0 0 0 -4-.65v-1.66l2.11.05q7.11.17 18.75.19h7.36q11.22 0 16-.24-.53 6.38-.56 11.52v.73a50.58 50.58 0 0 0 .24 5.62h-1.9a31 31 0 0 0 -2.55-9.48 11.11 11.11 0 0 0 -4.43-5 13.36 13.36 0 0 0 -6.6-1.5h-3.4a12.13 12.13 0 0 0 -3.7.41 2.51 2.51 0 0 0 -1.58 1.61 13 13 0 0 0 -.37 3.92v20.5h2.67a7.68 7.68 0 0 0 6.71-3.23 20.08 20.08 0 0 0 3.15-7.68h1.9q-.29 4.08-.28 7.8v4 .61q0 4.11.48 11h-1.9q-1.61-10.95-10.1-10.95h-2.63v20.95a12.91 12.91 0 0 0 .42 3.88 2.49 2.49 0 0 0 1.58 1.61 12.13 12.13 0 0 0 3.7.41h4.08a11.89 11.89 0 0 0 11.56-7.24 35.16 35.16 0 0 0 3-10.39h1.9q-.24 2.66-.24 6.95z" fill="#fff"/><path d="m360.19 252a31.92 31.92 0 0 1 15.37 3.56 24.71 24.71 0 0 1 10.22 10.33 33.5 33.5 0 0 1 3.64 16.11 34 34 0 0 1 -3.74 16.17 27 27 0 0 1 -10.39 10.91 29.51 29.51 0 0 1 -15.18 3.92 31.87 31.87 0 0 1 -15.38-3.56 24.62 24.62 0 0 1 -10.23-10.33 33.72 33.72 0 0 1 -3.61-16.1 34.13 34.13 0 0 1 3.71-16.17 27 27 0 0 1 10.4-10.96 29.66 29.66 0 0 1 15.19-3.88zm-.36 1.5a10.61 10.61 0 0 0 -8 3.69 25 25 0 0 0 -5.32 10.31 55.64 55.64 0 0 0 -1.88 15.14 49.72 49.72 0 0 0 2.1 15.14 24.35 24.35 0 0 0 5.72 10.13 11.19 11.19 0 0 0 8 3.56 10.69 10.69 0 0 0 8-3.7 24.88 24.88 0 0 0 5.34-10.31 55.59 55.59 0 0 0 1.88-15.14 49.4 49.4 0 0 0 -2.11-15.16 24.22 24.22 0 0 0 -5.72-10.11 11.2 11.2 0 0 0 -8.01-3.55z" fill="#fff"/><path d="m242.22 146c2.72.15 6.61.23 11.69.23l6.53-.08c1.08-.05 2.64-.07 4.69-.07q8.61 0 12.76 2.65a8.41 8.41 0 0 1 4.15 7.49 11.75 11.75 0 0 1 -2.57 7.35 18.82 18.82 0 0 1 -7.27 5.49 33.8 33.8 0 0 1 -10.84 2.77q8.38.39 12.84 3.69a10 10 0 0 1 4.46 8.3 13.31 13.31 0 0 1 -3.23 9 19.89 19.89 0 0 1 -8.95 5.65 41.2 41.2 0 0 1 -13.11 1.92l-4.46-.08q-4.77-.15-9-.15-7.77 0-11.92.23l.31-1.54a17.31 17.31 0 0 0 4.15-.61 4 4 0 0 0 2.19-1.77 16.74 16.74 0 0 0 1.58-4.23l10.14-38.13a16.9 16.9 0 0 0 .62-3.69 2.34 2.34 0 0 0 -1.12-2.15 8.67 8.67 0 0 0 -4-.77zm14.78 26.83h-3.4l-5.15 19.45a19.66 19.66 0 0 0 -.62 3.46 2.76 2.76 0 0 0 .85 2.19 4.32 4.32 0 0 0 2.84.73 13.71 13.71 0 0 0 7.77-2.15 13.5 13.5 0 0 0 4.88-5.84 20 20 0 0 0 1.65-8.23 10.82 10.82 0 0 0 -2.11-7q-2.11-2.61-6.71-2.61zm7.08-25.29a4.52 4.52 0 0 0 -3.35 1.07 10.45 10.45 0 0 0 -1.88 4.39l-4.92 18.52h2.69a11.6 11.6 0 0 0 7.19-2.3 14.5 14.5 0 0 0 4.61-6.11 21.05 21.05 0 0 0 1.58-8.11 9.57 9.57 0 0 0 -1.34-5.53q-1.38-1.93-4.6-1.93z"/><path d="m311.41 159.61a9.79 9.79 0 0 1 5.77 1.57 5.19 5.19 0 0 1 2.23 4.5q0 6.38-7.15 11.15a57 57 0 0 1 -16.61 7.38 29.73 29.73 0 0 0 -.46 5.23q0 4.06 1.5 5.76a5.58 5.58 0 0 0 4.42 1.69 12.25 12.25 0 0 0 5.38-1.5 19.21 19.21 0 0 0 5.84-4.8l1.23.61a24.28 24.28 0 0 1 -7.41 7.31 18.85 18.85 0 0 1 -10.42 3 13 13 0 0 1 -8.69-2.85 9.88 9.88 0 0 1 -3.38-8 31.29 31.29 0 0 1 3.69-14.15 34.38 34.38 0 0 1 10.07-12.11 22.76 22.76 0 0 1 13.99-4.79zm-1.69 1.46q-2.24 0-5.07 3.15a33.52 33.52 0 0 0 -5.23 8.19 47.71 47.71 0 0 0 -3.54 10.34 30.58 30.58 0 0 0 8.46-5.15 21 21 0 0 0 4.84-6.35 17 17 0 0 0 1.82-7.65 4.32 4.32 0 0 0 -.31-2 1 1 0 0 0 -.97-.53z"/><path d="m325.17 199.35a7.13 7.13 0 0 0 3 .54 6.33 6.33 0 0 0 4.69-1.77 6.53 6.53 0 0 0 1.77-4.84 13.22 13.22 0 0 0 -1.08-5.07 36.23 36.23 0 0 0 -3.23-5.92l-1.8-2.77a20.16 20.16 0 0 1 -2.23-4.42 12.71 12.71 0 0 1 -.73-4.19 10.17 10.17 0 0 1 3.73-8.15q3.72-3.15 10.26-3.15a17.45 17.45 0 0 1 8.34 1.8q3.35 1.82 3.34 6.19a6.7 6.7 0 0 1 -1.23 3.92 4 4 0 0 1 -3.46 1.77 3.72 3.72 0 0 1 -3.07-1.46 5.75 5.75 0 0 1 -1.15-3.69 9.16 9.16 0 0 1 .69-3.57 10.14 10.14 0 0 1 1.69-2.81 5.1 5.1 0 0 0 -2.69-.62 5.61 5.61 0 0 0 -4.35 1.73 7.17 7.17 0 0 0 -1.65 4.81 8.64 8.64 0 0 0 .81 3.77 54.59 54.59 0 0 0 2.73 4.76l1.07 1.62a47.18 47.18 0 0 1 3.5 6.69 14.08 14.08 0 0 1 1 5.22 10.63 10.63 0 0 1 -1.77 6 12.1 12.1 0 0 1 -5 4.19 17.88 17.88 0 0 1 -7.65 1.54 17.7 17.7 0 0 1 -9.07-2.12 7.29 7.29 0 0 1 -3.62-6.8 6.54 6.54 0 0 1 1.16-3.92 3.65 3.65 0 0 1 3.15-1.62 3.74 3.74 0 0 1 3.19 1.69 7.36 7.36 0 0 1 1.19 4.31 11.34 11.34 0 0 1 -.38 3c-.25.99-.64 2.06-1.15 3.34z"/><path d="m364.38 193.89a5.53 5.53 0 0 0 -.23 1.54 2.25 2.25 0 0 0 .61 1.73 2.37 2.37 0 0 0 1.7.58 4.55 4.55 0 0 0 3.26-1.65 14.65 14.65 0 0 0 2.81-5l1.15-3.16h1.46l-1.54 4.46q-3 9.07-11.53 9.08-3.92 0-5.88-2a7.75 7.75 0 0 1 -2-5.58 16.58 16.58 0 0 1 .69-4.61l7.77-27.06h-6.92l.38-1.54h7l3.31-11.45a56.15 56.15 0 0 0 11.14-1.08l-3.56 12.53h8.69l-.23 1.54h-8.92z"/><rect fill="#463a1c" height="60" rx="12" width="134" x="238" y="46"/><g fill="#fff"><path d="m284.61 89v-4.57h-11.2v-.25l3.31-3.11a46.46 46.46 0 0 0 4.61-4.66 12.69 12.69 0 0 0 1.94-3.19 8.92 8.92 0 0 0 .62-3.33 6.54 6.54 0 0 0 -1-3.62 6.84 6.84 0 0 0 -2.89-2.46 9.74 9.74 0 0 0 -4.26-.88 13.9 13.9 0 0 0 -3.3.36 11.69 11.69 0 0 0 -2.73 1 19.37 19.37 0 0 0 -3.14 2.29l2.95 3.49a15.49 15.49 0 0 1 2.93-1.95 6.66 6.66 0 0 1 2.9-.68 3.33 3.33 0 0 1 2.28.75 2.93 2.93 0 0 1 .85 2.31 5.51 5.51 0 0 1 -.38 2 9.09 9.09 0 0 1 -1.27 2.1c-.58.76-1.83 2.11-3.74 4.07l-6.45 6.52v3.81z"/><path d="m295.37 62.9a7.58 7.58 0 0 1 6.72 3.37q2.28 3.38 2.28 9.88 0 6.73-2.21 10t-6.79 3.23a7.57 7.57 0 0 1 -6.71-3.38q-2.25-3.33-2.26-9.86 0-6.8 2.2-10c1.47-2.14 3.72-3.24 6.77-3.24zm0 4.39a2.83 2.83 0 0 0 -2.74 2.07 19.91 19.91 0 0 0 -.83 6.79 19.9 19.9 0 0 0 .82 6.78 2.82 2.82 0 0 0 2.75 2 2.86 2.86 0 0 0 2.74-2.07 19.5 19.5 0 0 0 .84-6.75 19.31 19.31 0 0 0 -.85-6.79 2.87 2.87 0 0 0 -2.73-2.03z"/><path d="m324.41 89v-4.57h-11.2v-.25l3.3-3.11a46.83 46.83 0 0 0 4.62-4.66 12.63 12.63 0 0 0 1.93-3.19 8.73 8.73 0 0 0 .63-3.33 6.54 6.54 0 0 0 -1-3.62 6.86 6.86 0 0 0 -2.87-2.46 9.72 9.72 0 0 0 -4.25-.88 14 14 0 0 0 -3.31.36 11.78 11.78 0 0 0 -2.72 1 19.81 19.81 0 0 0 -3.15 2.29l2.95 3.49a15.23 15.23 0 0 1 2.94-1.95 6.63 6.63 0 0 1 2.9-.68 3.33 3.33 0 0 1 2.28.75 3 3 0 0 1 .85 2.31 5.31 5.31 0 0 1 -.39 2 9.38 9.38 0 0 1 -1.26 2.1c-.59.76-1.84 2.11-3.75 4.07l-6.45 6.52v3.81z"/><path d="m339.77 89v-25.7h-4.47l-8.3 6.59 2.62 3.27 3-2.37c.35-.28 1-.87 1.88-1.78l-.09 2.68-.05 2.44v14.87z"/></g></svg>