<svg viewBox="0 0 609.58 507.53" xmlns="http://www.w3.org/2000/svg"><path d="m489.47 405.03-184.69 83.32-184.67-83.32v-399.91h369.36z" fill="#fdd86f"/><path d="m304.78 493.47a5.26 5.26 0 0 1 -2.1-.46l-184.68-83.32a5.12 5.12 0 0 1 -3.07-4.6v-399.97a5.14 5.14 0 0 1 5.18-5.12h369.41a5.12 5.12 0 0 1 5.12 5.12v399.88a5.15 5.15 0 0 1 -3.07 4.6l-184.67 83.4a5.35 5.35 0 0 1 -2.12.47zm-179.57-91.74 179.57 81 179.59-81v-391.49h-359.16z" fill="#fdd86f"/><path d="m132 399.22v-381.22h346.64v381.22l-173.33 78.19z" fill="#e9c05b"/><rect fill="#463a1c" height="60" rx="12" width="134" x="238" y="46"/><path d="m284.61 89v-4.57h-11.2v-.25l3.31-3.11a46.46 46.46 0 0 0 4.61-4.66 12.69 12.69 0 0 0 1.94-3.19 8.92 8.92 0 0 0 .62-3.33 6.54 6.54 0 0 0 -1-3.62 6.84 6.84 0 0 0 -2.89-2.46 9.74 9.74 0 0 0 -4.26-.88 13.9 13.9 0 0 0 -3.3.36 11.26 11.26 0 0 0 -2.73 1 19.37 19.37 0 0 0 -3.14 2.29l2.95 3.49a15.49 15.49 0 0 1 2.93-1.95 6.66 6.66 0 0 1 2.9-.68 3.33 3.33 0 0 1 2.28.75 2.93 2.93 0 0 1 .85 2.31 5.51 5.51 0 0 1 -.38 2 9.09 9.09 0 0 1 -1.27 2.1c-.58.76-1.83 2.11-3.74 4.07l-6.45 6.52v3.81z" fill="#fff"/><path d="m295.37 62.9a7.58 7.58 0 0 1 6.72 3.37q2.28 3.38 2.28 9.88 0 6.73-2.21 10t-6.79 3.23a7.57 7.57 0 0 1 -6.71-3.38q-2.25-3.33-2.26-9.86 0-6.8 2.2-10c1.47-2.14 3.72-3.24 6.77-3.24zm0 4.39a2.83 2.83 0 0 0 -2.74 2.07 19.91 19.91 0 0 0 -.83 6.79 19.9 19.9 0 0 0 .82 6.78 2.82 2.82 0 0 0 2.75 2 2.86 2.86 0 0 0 2.74-2.07 19.5 19.5 0 0 0 .84-6.75 19.31 19.31 0 0 0 -.85-6.79 2.87 2.87 0 0 0 -2.73-2.03z" fill="#fff"/><path d="m324.41 89v-4.57h-11.2v-.25l3.3-3.11a46.83 46.83 0 0 0 4.62-4.66 12.63 12.63 0 0 0 1.93-3.19 8.73 8.73 0 0 0 .63-3.33 6.54 6.54 0 0 0 -1-3.62 6.86 6.86 0 0 0 -2.87-2.46 9.72 9.72 0 0 0 -4.25-.88 14 14 0 0 0 -3.31.36 11.34 11.34 0 0 0 -2.72 1 19.81 19.81 0 0 0 -3.15 2.29l2.95 3.49a15.23 15.23 0 0 1 2.94-1.95 6.63 6.63 0 0 1 2.9-.68 3.33 3.33 0 0 1 2.28.75 3 3 0 0 1 .85 2.31 5.31 5.31 0 0 1 -.39 2 9.38 9.38 0 0 1 -1.26 2.1c-.59.76-1.84 2.11-3.75 4.07l-6.45 6.52v3.81z" fill="#fff"/><path d="m339.77 89v-25.7h-4.47l-8.3 6.59 2.62 3.27 3-2.37c.35-.28 1-.87 1.88-1.78l-.09 2.68-.05 2.44v14.87z" fill="#fff"/><path d="m240.77 464.44a248.24 248.24 0 0 0 -25-29.94c-13.49-13.59-26.32-25.29-31.49-29.95-1.33-1.19-2.43-.72-2.37 1.06.23 6.13 2 20.36 14.3 35.26 9.4 11.64 23.73 19.35 34.2 23.72 1.64.69 1.53 1-.19.63a211.27 211.27 0 0 1 -50-15.92 7.65 7.65 0 0 1 -3.68-4.53 210.4 210.4 0 0 0 -12.6-35.1c-7.8-16.49-16.11-31-19.54-36.94-.91-1.53-2.12-1.42-2.58.31a60.37 60.37 0 0 0 2.44 37.34c5 13.55 15.2 24.69 23 31.7 1.33 1.18 1.17 1.44-.4.58a208.22 208.22 0 0 1 -44-32.36 7.56 7.56 0 0 1 -2-5.47 175.5 175.5 0 0 0 -.41-35 349.56 349.56 0 0 0 -7.11-38.93c-.42-1.73-1.54-2-2.55-.45a59.42 59.42 0 0 0 -8.18 34.44c.63 13.34 6.13 26 10.73 34.45.87 1.53.61 1.76-.58.44a218.93 218.93 0 0 1 -31.37-44.7 7.53 7.53 0 0 1 -.15-5.82 165.9 165.9 0 0 0 10.39-33.06 325 325 0 0 0 4.85-39c.1-1.78-1-2.36-2.32-1.21a58.67 58.67 0 0 0 -18.12 30.09c-3.41 13-2.08 26.68-.27 36.11.34 1.75 0 1.85-.69.23a228.86 228.86 0 0 1 -14.53-42.92 7.42 7.42 0 0 1 1.45-5.57 147.5 147.5 0 0 0 17.32-27.41 290.68 290.68 0 0 0 13.57-34.65c.53-1.7-.37-2.53-2-1.73a56.06 56.06 0 0 0 -23.47 23.31c-6.15 11.11-8.2 24.11-8.78 33.18-.13 1.78-.43 1.81-.74 0a226.07 226.07 0 0 1 -3.03-45.63 7.46 7.46 0 0 1 2.79-5 117 117 0 0 0 20.13-19.08 230.71 230.71 0 0 0 18.64-26.95c.9-1.53.21-2.53-1.53-2.07a51.84 51.84 0 0 0 -24.28 15.33c-7.32 7.94-11.81 18-14.32 25.38-.58 1.7-.89 1.64-.72-.14a216.11 216.11 0 0 1 7.8-41 7.7 7.7 0 0 1 4-4.26 106.82 106.82 0 0 0 22.56-13 223.72 223.72 0 0 0 23.53-20.95c1.24-1.29.79-2.39-1-2.29a51.35 51.35 0 0 0 -25.76 9.03 72 72 0 0 0 -19.16 20.35 17.56 17.56 0 0 1 -1.55 2.3 2.06 2.06 0 0 1 .15-.48c.31-.89.61-1.76.94-2.65s.62-1.72 1-2.59l1-2.62 1-2.58c.37-.87.72-1.74 1.09-2.6l1.09-2.56 1.14-2.57c.38-.84.78-1.69 1.18-2.53l1.21-2.58 1.25-2.49c.43-.85.86-1.71 1.31-2.55s.86-1.65 1.3-2.47l1.34-2.55c.46-.82.92-1.64 1.39-2.45s.95-1.67 1.45-2.5l1.53-2.42.41-.67a8.29 8.29 0 0 1 3.62-1.15 90.48 90.48 0 0 0 21.6-6.76 190.31 190.31 0 0 0 24.77-14.18c1.53-1 1.25-2.13-.52-2.33a49.16 49.16 0 0 0 -23.72 3.69 69.77 69.77 0 0 0 -20 13.2c-1.3 1.21-1.53 1-.53-.44q4.92-7.23 10.51-14.14a26.88 26.88 0 0 1 4.66-4.32 256.25 256.25 0 0 0 23-18 326.63 326.63 0 0 0 24.19-24.36c1.19-1.33.75-2.05-.94-1.53a91.84 91.84 0 0 0 -30.65 17.61 79.78 79.78 0 0 0 -18.4 24 33.72 33.72 0 0 1 -3.37 5.52q-5.67 7-10.73 14.33c-1 1.53-1.24 1.35-.59-.31 2.4-6.13 5.59-14.81 8.14-23.83a108.35 108.35 0 0 0 4-26.17c0-1.79-1-2.14-2.11-.72-3.94 5.23-12.5 17.89-15.33 31.25a49.93 49.93 0 0 0 .2 23.84 9.06 9.06 0 0 1 .55 3.79l-.43.72c-.49.79-1 1.53-1.44 2.39s-1 1.7-1.53 2.57-.94 1.61-1.38 2.41l-1.41 2.6-1.3 2.53c-.46.87-.89 1.75-1.33 2.63s-.83 1.64-1.23 2.46-.84 1.77-1.26 2.65-.78 1.67-1.16 2.5-.74 1.74-1.15 2.66-.74 1.67-1.09 2.52-.74 1.79-1.1 2.7-.69 1.68-1 2.52-.71 1.81-1 2.72-.63 1.7-.93 2.54l-1 2.75a1.86 1.86 0 0 1 -.17.52 10.63 10.63 0 0 1 .21-2.7c.89-7.43 2-18.39 2.27-29.57a129.32 129.32 0 0 0 -2.89-30.65c-.4-1.74-1.54-1.84-2.29-.22-2.94 6.52-9.3 23-8.57 39a56.36 56.36 0 0 0 7.53 26.92 8.28 8.28 0 0 1 .84 5.81 217.26 217.26 0 0 0 -7.92 41.75c-.16 1.78-.45 1.78-.69 0-1.08-7.87-2.87-19.34-5.57-30.82a138.44 138.44 0 0 0 -11.35-30.93c-.83-1.54-2-1.4-2.3.37-1.29 7.2-3.49 25.87 1.51 42.27a60 60 0 0 0 15.2 26 8.15 8.15 0 0 1 2.27 5.4 227.49 227.49 0 0 0 3.21 46.47c.3 1.77 0 1.84-.66.2-3.5-8.5-9-21.23-15.33-33.79a171.63 171.63 0 0 0 -21.46-32.29c-1.16-1.34-2.25-.9-2.16.88.43 8.24 2.82 30.65 13.47 48.14 8.77 14.63 19.16 21.8 25 25a8.08 8.08 0 0 1 3.61 4.6 229.67 229.67 0 0 0 14.85 43.84c.73 1.63.49 1.78-.6.36-5.87-7.67-14.79-19.1-24.52-30.12a183.41 183.41 0 0 0 -30.62-27.59c-1.53-1-2.42-.33-1.9 1.39 2.44 8.28 10.7 30.93 26.45 46.26 13 12.77 25.65 17.2 32.47 18.76a7.89 7.89 0 0 1 4.6 3.48 222.58 222.58 0 0 0 32 45.53c1.19 1.32 1 1.53-.46.52-8-5.6-19.93-13.64-32.28-21.11a178.92 178.92 0 0 0 -37.34-16.86c-1.7-.52-2.41.44-1.4 1.92 4.83 7.09 19.52 26.27 39.15 36.06 16.31 8.25 29.8 8.57 36.79 8a7.92 7.92 0 0 1 5.53 1.87 210.67 210.67 0 0 0 44.76 32.92c1.53.86 1.53 1.12-.25.6-10.24-3.06-25.46-7.46-40.74-11.3a202.12 202.12 0 0 0 -43.38-5.85c-1.79 0-2.2 1.1-.81 2.24 6.94 5.68 28 21 51.67 24.77 19.74 3.28 33.88-.88 40.84-3.76a8.38 8.38 0 0 1 5.88 0 207.19 207.19 0 0 0 20.88 8.32c1.68.57 3.06 1 3.06 1s1.4.41 3.07.94a228.07 228.07 0 0 0 24 5.87c1.75.33 1.74.58 0 .59-11.57.1-28.78.3-45.41 1a217 217 0 0 0 -44.91 6.7c-1.72.49-1.8 1.65-.14 2.34 8.51 3.48 34.18 12.27 59.56 9.09 21.22-2.59 34.41-10.73 40.59-15.59a9 9 0 0 1 5.7-1.67c1.2.16 2.39.28 3.59.4 1.78.19 3.22-.35 3.22-1.15s-1.44-1.62-3.2-1.82l-3.07-.37a8.28 8.28 0 0 1 -5.01-3.15z" fill="#cca650"/><path d="m368.79 462.91a249.33 249.33 0 0 1 25-29.94c13.49-13.59 26.32-25.29 31.5-30 1.32-1.2 2.42-.72 2.36 1.06-.23 6.13-2 20.35-14.31 35.25-9.34 11.72-23.72 19.41-34.17 23.78-1.66.69-1.53.95.17.63a210.84 210.84 0 0 0 50-15.93 7.63 7.63 0 0 0 3.68-4.52 210.08 210.08 0 0 1 12.6-35.1c7.8-16.49 16.11-31 19.55-36.94.9-1.53 2.11-1.43 2.57.31 1.64 5.93 4.18 19.92-2.44 37.34-5 13.55-15.2 24.69-23 31.69-1.33 1.18-1.16 1.44.4.59a209.23 209.23 0 0 0 44-32.36 7.59 7.59 0 0 0 2-5.47 176.24 176.24 0 0 1 .41-35 352.7 352.7 0 0 1 7.13-38.84c.41-1.74 1.61-2 2.54-.45a59.25 59.25 0 0 1 8.17 34.44c-.63 13.34-6.13 26-10.73 34.45-.85 1.53-.61 1.76.59.44a219.28 219.28 0 0 0 31.36-44.7 7.53 7.53 0 0 0 .15-5.82 167.21 167.21 0 0 1 -10.39-33.06 325.11 325.11 0 0 1 -4.93-38.93c-.11-1.78 1-2.36 2.33-1.21a58.67 58.67 0 0 1 18.12 30c3.43 13 2.1 26.69.29 36.12-.34 1.74 0 1.85.69.23a229.62 229.62 0 0 0 14.51-42.97 7.48 7.48 0 0 0 -1.38-5.64 147.5 147.5 0 0 1 -17.32-27.36 292.48 292.48 0 0 1 -13.56-34.66c-.54-1.7.37-2.52 2-1.73a56.14 56.14 0 0 1 23.47 23.32c6.22 11.16 8.27 24.15 8.86 33.18.1 1.78.41 1.81.72 0a225.38 225.38 0 0 0 3.06-45.6 7.38 7.38 0 0 0 -2.79-5.07 117.47 117.47 0 0 1 -20.08-19.09 231.82 231.82 0 0 1 -18.64-26.94c-.9-1.54-.21-2.53 1.54-2.07a51.91 51.91 0 0 1 24.18 15.32c7.33 7.94 11.8 18 14.32 25.38.58 1.7.89 1.64.72-.14a216 216 0 0 0 -7.8-41 7.63 7.63 0 0 0 -4-4.26 107 107 0 0 1 -22.7-13 224.12 224.12 0 0 1 -23.45-21c-1.26-1.29-.81-2.4 1-2.29a51.35 51.35 0 0 1 25.72 9.11 71.75 71.75 0 0 1 19.19 20.37 20.74 20.74 0 0 0 1.53 2.29 1.58 1.58 0 0 0 -.15-.48c-.31-.89-.61-1.76-.93-2.65s-.63-1.72-1-2.59-.65-1.75-1-2.62l-1-2.58c-.35-.87-.72-1.75-1.07-2.6l-1.06-2.6-1.14-2.59c-.39-.85-.79-1.69-1.19-2.53s-.79-1.72-1.22-2.58-.81-1.65-1.24-2.5l-1.29-2.54c-.43-.83-.87-1.66-1.32-2.47l-1.38-2.53-1.38-2.45-1.41-2.5-1.53-2.42-.41-.68a8.45 8.45 0 0 0 -3.62-1.14 90.34 90.34 0 0 1 -21.6-6.76 192.64 192.64 0 0 1 -24.77-14.18c-1.53-1-1.26-2.13.52-2.33a49.07 49.07 0 0 1 23.82 3.69 69.47 69.47 0 0 1 19.93 13.2c1.3 1.21 1.53 1 .53-.45q-4.92-7.22-10.51-14.13a27.07 27.07 0 0 0 -4.69-4.32 259.52 259.52 0 0 1 -23-18 330.52 330.52 0 0 1 -24.21-24.31c-1.19-1.34-.75-2.06.95-1.53a91.78 91.78 0 0 1 30.66 17.61 79.75 79.75 0 0 1 18.39 24 33.89 33.89 0 0 0 3.42 5.42q5.68 7 10.73 14.34c1 1.53 1.24 1.34.6-.31-2.41-6.13-5.59-14.81-8.14-23.84a108.77 108.77 0 0 1 -4.05-26.16c0-1.79 1.05-2.15 2.12-.72 3.94 5.22 12.51 17.89 15.33 31.25a50.18 50.18 0 0 1 -.19 23.84 8.84 8.84 0 0 0 -.56 3.78l.43.72 1.44 2.39c.5.85 1 1.71 1.53 2.58l1.36 2.41c.48.87 1 1.73 1.41 2.6s.88 1.63 1.31 2.44.89 1.75 1.33 2.64.83 1.64 1.23 2.45l1.27 2.65 1.15 2.5c.4.89.8 1.78 1.18 2.67s.73 1.67 1.09 2.51l1.1 2.7c.35.83.68 1.68 1 2.53s.71 1.8 1 2.71.63 1.7.94 2.54l1 2.75.19.52a12.85 12.85 0 0 0 -.23-2.7c-.89-7.43-2-18.39-2.27-29.57a128.85 128.85 0 0 1 2.9-30.65c.4-1.74 1.53-1.84 2.28-.22 2.94 6.52 9.31 23 8.57 39a56.32 56.32 0 0 1 -7.51 26.93 8.27 8.27 0 0 0 -.84 5.81 218.65 218.65 0 0 1 7.92 41.75c.15 1.78.44 1.78.69 0 1.07-7.88 2.88-19.34 5.56-30.82a139.23 139.23 0 0 1 11.36-30.94c.85-1.53 2-1.39 2.3.37 1.27 7.28 3.51 25.92-1.53 42.35a60 60 0 0 1 -15.21 26.06 8.25 8.25 0 0 0 -2.27 5.4 227.49 227.49 0 0 1 -3.2 46.47c-.31 1.76 0 1.84.66.2 3.49-8.51 9-21.23 15.4-33.8a171.14 171.14 0 0 1 21.54-32.28c1.17-1.35 2.25-.9 2.16.87-.43 8.25-2.82 30.66-13.47 48.15-8.77 14.62-19.15 21.8-25 25a8.06 8.06 0 0 0 -3.6 4.6 230.4 230.4 0 0 1 -14.86 43.82c-.73 1.63-.49 1.78.6.35 5.87-7.66 14.79-19.1 24.53-30.12a183.38 183.38 0 0 1 30.65-27.59c1.53-1 2.42-.32 1.9 1.4-2.51 8.21-10.82 30.91-26.53 46.18-13 12.77-25.64 17.2-32.47 18.76a7.92 7.92 0 0 0 -4.67 3.48 221.92 221.92 0 0 1 -32 45.53c-1.19 1.31-1 1.53.46.52 8-5.6 19.93-13.64 32.28-21.11a178.92 178.92 0 0 1 37.34-16.86c1.72-.52 2.41.44 1.41 1.92-4.84 7.09-19.51 26.27-39.16 36.06-16.31 8.25-29.8 8.57-36.79 8a8 8 0 0 0 -5.53 1.87 211.17 211.17 0 0 1 -44.76 32.92c-1.53.86-1.46 1.12.24.6 10.24-3.06 25.46-7.46 40.75-11.3a202.29 202.29 0 0 1 43.42-5.88c1.78 0 2.19 1.1.81 2.24-7 5.68-28 21-51.68 24.77-19.75 3.28-33.86-.88-40.84-3.76a8.35 8.35 0 0 0 -5.87 0 208.8 208.8 0 0 1 -20.87 8.33c-1.69.57-3.07 1-3.07 1s-1.39.41-3.06.94a227.29 227.29 0 0 1 -24 5.87c-1.76.33-1.75.58 0 .59 11.57.1 28.79.29 45.42 1a217.16 217.16 0 0 1 44.91 6.7c1.71.49 1.79 1.65.14 2.34-8.51 3.48-34.19 12.27-59.55 9.09-21.23-2.59-34.43-10.73-40.61-15.59a8.92 8.92 0 0 0 -5.7-1.67c-1.2.16-2.39.28-3.59.4-1.78.19-3.22-.35-3.22-1.15s1.44-1.62 3.22-1.82l3.07-.37a8.17 8.17 0 0 0 4.83-3z" fill="#cca650"/><path d="m283.28 433.03 14.41 24.9 14.2-.04 14.46-24.86z" fill="#f58722"/><path d="m283.32 433-21.52 37.3 28.77-.05 7.07-12.31z" fill="#1a6178"/><path d="m283.28 507.44h43.07l-14.46-24.87-14.2-.03z" fill="#1298b6"/><path d="m283.32 507.47 14.32-24.94-7.07-12.31-28.77-.05z" fill="#89bb48"/><path d="m319.01 470.28-7.05 12.31 14.3 24.94 21.52-37.3z" fill="#a7529e"/><path d="m77.91 275.29h-77.91l29.63 51.01-29.63 51.01h110.47v-37.06-64.96z" fill="#b27d28"/><path d="m609.58 275.29h-77.91-32.56v64.96 37.06h110.47l-29.63-51.01z" fill="#b27d28"/><path d="m526.4 343.62v-68.89-4.59-4.6-44.54h-441.4v44.54 4.6 4.59 68.89h26.38 3.08 3.1 376.29 3.08 3.09z" fill="#c99129"/><g fill="#fff"><path d="m146.31 252a22.38 22.38 0 0 1 8.41 1.41 29.66 29.66 0 0 1 6.79 4 2.67 2.67 0 0 0 1.61.72c1.11 0 1.82-1.64 2.15-4.93h1.9v.8q-.28 5.82-.29 19.25h-1.98a57.66 57.66 0 0 0 -1.11-6.75 16.55 16.55 0 0 0 -1.82-4.59 13.35 13.35 0 0 0 -3.29-3.65 13.67 13.67 0 0 0 -4.75-3 15.81 15.81 0 0 0 -5.72-1.05 12.34 12.34 0 0 0 -9.36 3.92 23.72 23.72 0 0 0 -5.42 10.37 55.39 55.39 0 0 0 -1.72 14.21 52.27 52.27 0 0 0 1.8 14.17 23.4 23.4 0 0 0 5.58 10.27 12.69 12.69 0 0 0 9.44 3.86 15.88 15.88 0 0 0 5.6-1 13 13 0 0 0 4.71-3 12 12 0 0 0 3.27-3.76 18 18 0 0 0 1.78-5 62.37 62.37 0 0 0 1-7.28h1.94v4.94q0 11.07.32 15.92h-1.9a14.38 14.38 0 0 0 -.71-3.74c-.31-.77-.75-1.15-1.31-1.15a3.49 3.49 0 0 0 -1.74.68 40.76 40.76 0 0 1 -4.51 2.85 21.55 21.55 0 0 1 -4.75 1.82 23.18 23.18 0 0 1 -6 .71 31.84 31.84 0 0 1 -15.38-3.56 24.56 24.56 0 0 1 -10.23-10.33 37.3 37.3 0 0 1 .1-32.27 26.88 26.88 0 0 1 10.39-10.92 29.64 29.64 0 0 1 15.2-3.92z"/><path d="m227.36 254.83a8.16 8.16 0 0 0 -4 1.39 5.37 5.37 0 0 0 -1.76 3.18 30.1 30.1 0 0 0 -.46 5.86v22.44a59 59 0 0 1 -.77 10.12 21.38 21.38 0 0 1 -2.63 7.42 14.53 14.53 0 0 1 -6.39 5.7 23.72 23.72 0 0 1 -10.35 2.06q-9.66 0-14.91-4.2a15 15 0 0 1 -4-4.87 20.7 20.7 0 0 1 -1.94-6.53 70.22 70.22 0 0 1 -.52-9.42v-26a15.75 15.75 0 0 0 -.47-4.52 3 3 0 0 0 -1.71-1.94 12.77 12.77 0 0 0 -4.05-.65v-1.66l1.26.06c2.35.11 5.48.16 9.4.18h2.32q8.49 0 13.1-.24v1.66a14.62 14.62 0 0 0 -4.35.65 3.09 3.09 0 0 0 -1.86 1.94 14.53 14.53 0 0 0 -.5 4.52v31.25a35 35 0 0 0 1.05 9.44 10.14 10.14 0 0 0 3.55 5.54 11.2 11.2 0 0 0 6.84 1.88q8.24 0 11.66-5.58t3.42-15.84v-22.85a29.09 29.09 0 0 0 -.58-6.2 5.37 5.37 0 0 0 -2.24-3.38 12.47 12.47 0 0 0 -5.22-1.41v-1.66l.67.05c2 .12 4.54.19 7.7.19h1.63q3.89 0 6.13-.24z"/><path d="m257.72 254.83a14.73 14.73 0 0 0 -4.35.65 3.09 3.09 0 0 0 -1.86 1.94 14.84 14.84 0 0 0 -.5 4.52v42.06a13.41 13.41 0 0 0 .4 3.88 2.44 2.44 0 0 0 1.46 1.61 10 10 0 0 0 3.35.41h4a11.36 11.36 0 0 0 6.89-2.31 17.75 17.75 0 0 0 5.25-6.48 31 31 0 0 0 2.93-9.69h1.9q-.24 2.83-.24 7.28 0 7.08.57 13.1l-1.49-.06q-5.76-.18-17.47-.18h-7.54q-12.4 0-19.42.23v-1.66a12.5 12.5 0 0 0 4-.65 3 3 0 0 0 1.7-1.94 15.83 15.83 0 0 0 .46-4.52v-41.08a15.83 15.83 0 0 0 -.46-4.52 3 3 0 0 0 -1.72-1.94 12.57 12.57 0 0 0 -4-.65v-1.66l1.24.06c2.34.11 5.49.16 9.46.18h2.35q8.42 0 13-.24z"/><path d="m327.09 253.17q-.57 7.17-.6 13.21v.86q0 4 .24 6.31h-1.9a45.15 45.15 0 0 0 -3.35-11 13.63 13.63 0 0 0 -4.77-5.76 12.51 12.51 0 0 0 -6.75-1.74h-1.82v47.26a13.49 13.49 0 0 0 .69 5.05 3.75 3.75 0 0 0 2.48 2.14 21.38 21.38 0 0 0 5.68.61v1.66l-1.78-.06q-6.34-.18-14-.18h-3c-4.5 0-8.56.11-12.15.24v-1.66a21.38 21.38 0 0 0 5.68-.61 3.75 3.75 0 0 0 2.48-2.14 13.49 13.49 0 0 0 .69-5.05v-47.24h-1.82a12.48 12.48 0 0 0 -6.77 1.74 13.67 13.67 0 0 0 -4.75 5.76 46.75 46.75 0 0 0 -3.4 11h-1.9a60.88 60.88 0 0 0 .25-6.31q0-6.18-.57-14.07l2.25.06q6.13.15 17.28.18h7.52q16.9-.02 24.09-.26z"/><path d="m384.69 254.83a8.24 8.24 0 0 0 -4 1.39 5.37 5.37 0 0 0 -1.69 3.18 30.92 30.92 0 0 0 -.46 5.86v22.44a59 59 0 0 1 -.77 10.12 21.38 21.38 0 0 1 -2.63 7.42 14.5 14.5 0 0 1 -6.38 5.7 23.79 23.79 0 0 1 -10.35 2q-9.66 0-14.92-4.2a14.92 14.92 0 0 1 -4-4.87 20.7 20.7 0 0 1 -1.94-6.53 70 70 0 0 1 -.53-9.42v-26a15.83 15.83 0 0 0 -.46-4.52 3 3 0 0 0 -1.72-1.94 12.7 12.7 0 0 0 -4-.65v-1.66l1.25.06c2.35.11 5.48.16 9.4.18h2.32q8.49 0 13.1-.24v1.66a14.6 14.6 0 0 0 -4.34.65 3 3 0 0 0 -1.86 1.94 14.46 14.46 0 0 0 -.51 4.52v31.25a35 35 0 0 0 1.05 9.44 10.15 10.15 0 0 0 3.56 5.54 11.16 11.16 0 0 0 6.83 1.88q8.25 0 11.66-5.58t3.42-15.84v-22.79a28.45 28.45 0 0 0 -.58-6.2 5.37 5.37 0 0 0 -2.24-3.38 12.43 12.43 0 0 0 -5.22-1.41v-1.66l.68.05c2 .12 4.53.19 7.69.19h1.63c2.59 0 4.64-.1 6.13-.24z"/><path d="m389 253.17.95.05c2.54.12 6 .18 10.45.19h1.76l8.71-.12h3.72q11.4 0 17.16 3.74a12 12 0 0 1 5.76 10.65 14.17 14.17 0 0 1 -7.62 12.8 27.67 27.67 0 0 1 -11 3.21 30.93 30.93 0 0 1 8.25 1.7 11.92 11.92 0 0 1 5.07 3.5 13 13 0 0 1 2.57 5.72l1.86 8.53a14.59 14.59 0 0 0 1.54 4.65 2.69 2.69 0 0 0 2.42 1.21 3.43 3.43 0 0 0 1.76-.44 6.88 6.88 0 0 0 1.6-1.46l1.13 1a13.87 13.87 0 0 1 -4.79 3.68 15.41 15.41 0 0 1 -6.21 1.13 12.56 12.56 0 0 1 -7.52-2c-1.85-1.35-3.08-3.67-3.67-6.95l-1.46-8.25a45.12 45.12 0 0 0 -1.5-6.47 9.37 9.37 0 0 0 -2.28-3.86 5.39 5.39 0 0 0 -3.94-1.43h-5.38v19a15.75 15.75 0 0 0 .47 4.52 3 3 0 0 0 1.72 1.94 12.65 12.65 0 0 0 4 .65v1.66l-1.13-.06q-4.32-.18-11.4-.18h-2.36c-4.72 0-8.28.1-10.7.24v-1.66a12.45 12.45 0 0 0 4-.65 3 3 0 0 0 1.7-1.94 15.83 15.83 0 0 0 .46-4.52v-41.01a15.83 15.83 0 0 0 -.46-4.52 3 3 0 0 0 -1.72-1.94 12.52 12.52 0 0 0 -4-.65zm24.5 1.66a7 7 0 0 0 -3.26.59 3.16 3.16 0 0 0 -1.47 2.08 18.12 18.12 0 0 0 -.41 4.44v20.38h3.56a12.73 12.73 0 0 0 7.26-1.78 9.14 9.14 0 0 0 3.59-4.77 23 23 0 0 0 1-7.2c0-4.52-.8-7.95-2.4-10.26s-4.25-3.48-7.89-3.48z"/><path d="m491.62 299.22q0 6.75.56 12.57l-1.48-.06q-5.76-.18-17.47-.18h-7.54q-12.42 0-19.43.23v-1.66a12.45 12.45 0 0 0 4-.65 3 3 0 0 0 1.7-1.94 15.75 15.75 0 0 0 .47-4.52v-41.07a15.75 15.75 0 0 0 -.47-4.52 3 3 0 0 0 -1.72-1.94 12.52 12.52 0 0 0 -4-.65v-1.66l2.12.05q7.11.17 18.75.19h7.36q11.2 0 16-.24-.47 6.83-.47 12.25v.93a43 43 0 0 0 .23 4.69h-1.9a31 31 0 0 0 -2.54-9.48 11.17 11.17 0 0 0 -4.43-5 13.4 13.4 0 0 0 -6.61-1.5h-3.39a12.08 12.08 0 0 0 -3.7.41 2.49 2.49 0 0 0 -1.58 1.61 11.92 11.92 0 0 0 -.42 3.54v20.84h2.66a7.66 7.66 0 0 0 6.71-3.23 20.25 20.25 0 0 0 3.16-7.68h1.9q-.29 4.08-.29 7.8v4 .65q0 4.11.48 11h-1.9q-1.62-10.95-10.11-10.95h-2.66v20.95a12.91 12.91 0 0 0 .42 3.88 2.47 2.47 0 0 0 1.58 1.61 12.08 12.08 0 0 0 3.7.41h4.08a11.89 11.89 0 0 0 11.61-7.25 34.89 34.89 0 0 0 3-10.39h1.9q-.28 2.67-.28 6.96z"/></g><path d="m163.57 160.65c1.64.09 4 .14 7 .14h3.94c.65 0 1.59-.05 2.82-.05 3.46 0 6 .54 7.69 1.6a5.08 5.08 0 0 1 2.51 4.52 7 7 0 0 1 -1.56 4.42 11.34 11.34 0 0 1 -4.37 3.32 20.51 20.51 0 0 1 -6.54 1.66q5.06.24 7.74 2.23a6 6 0 0 1 2.69 5 8 8 0 0 1 -1.95 5.44 11.94 11.94 0 0 1 -5.4 3.41 24.81 24.81 0 0 1 -7.89 1.16h-2.69c-1.91-.06-3.72-.09-5.42-.09-3.12 0-5.51 0-7.18.14l.19-.93a10.46 10.46 0 0 0 2.5-.37 2.46 2.46 0 0 0 1.32-1.07 10.1 10.1 0 0 0 1-2.54l6.11-23a10 10 0 0 0 .37-2.22 1.42 1.42 0 0 0 -.67-1.3 5.34 5.34 0 0 0 -2.43-.47zm8.89 16.17h-2l-3.11 11.72a11.39 11.39 0 0 0 -.37 2.08 1.64 1.64 0 0 0 .51 1.32 2.64 2.64 0 0 0 1.71.44 8 8 0 0 0 7.63-4.82 12 12 0 0 0 1-4.95 6.51 6.51 0 0 0 -1.27-4.22 4.91 4.91 0 0 0 -4.1-1.57zm4.27-15.25a2.72 2.72 0 0 0 -2 .65 6.36 6.36 0 0 0 -1.13 2.64l-3 11.17h1.62a7 7 0 0 0 4.33-1.39 8.73 8.73 0 0 0 2.78-3.68 12.54 12.54 0 0 0 .95-4.89 5.82 5.82 0 0 0 -.81-3.34 3.13 3.13 0 0 0 -2.74-1.16z"/><path d="m205.26 168.85a5.81 5.81 0 0 1 3.47 1 3.1 3.1 0 0 1 1.35 2.71q0 3.84-4.31 6.71a34.29 34.29 0 0 1 -10 4.45 18.61 18.61 0 0 0 -.27 3.15 5.27 5.27 0 0 0 .9 3.48 3.39 3.39 0 0 0 2.66 1 7.45 7.45 0 0 0 3.25-.9 11.81 11.81 0 0 0 3.52-2.89l.74.37a14.67 14.67 0 0 1 -4.47 4.4 11.37 11.37 0 0 1 -6.28 1.8 7.86 7.86 0 0 1 -5.23-1.71 6 6 0 0 1 -2-4.82 18.85 18.85 0 0 1 2.22-8.52 20.72 20.72 0 0 1 6.07-7.3 13.69 13.69 0 0 1 8.38-2.93zm-1 .88c-.89 0-1.91.63-3.06 1.9a20.35 20.35 0 0 0 -3.15 4.93 29.59 29.59 0 0 0 -2.13 6.23 18.43 18.43 0 0 0 5.1-3.1 12.8 12.8 0 0 0 2.92-3.82 10.29 10.29 0 0 0 1.06-4.61 2.79 2.79 0 0 0 -.18-1.21.62.62 0 0 0 -.58-.32z"/><path d="m213.55 192.8a4.45 4.45 0 0 0 1.81.32 3.81 3.81 0 0 0 2.82-1.06 3.92 3.92 0 0 0 1.07-2.92 8.06 8.06 0 0 0 -.65-3.06 22.43 22.43 0 0 0 -1.94-3.57c-.13-.18-.49-.74-1.09-1.66a12.89 12.89 0 0 1 -1.35-2.67 7.78 7.78 0 0 1 -.44-2.52 6.12 6.12 0 0 1 2.25-4.91 9.26 9.26 0 0 1 6.18-1.9 10.43 10.43 0 0 1 5 1.09 3.89 3.89 0 0 1 2 3.73 4 4 0 0 1 -.75 2.36 2.37 2.37 0 0 1 -2.08 1.06 2.23 2.23 0 0 1 -1.85-.88 3.41 3.41 0 0 1 -.7-2.22 5.46 5.46 0 0 1 .42-2.15 6.39 6.39 0 0 1 1-1.7 3.13 3.13 0 0 0 -1.62-.37 3.35 3.35 0 0 0 -2.62 1 4.31 4.31 0 0 0 -1 2.89 5.25 5.25 0 0 0 .49 2.27 30.15 30.15 0 0 0 1.64 2.87l.65 1a28.8 28.8 0 0 1 2.11 4 8.43 8.43 0 0 1 .63 3.15 6.38 6.38 0 0 1 -1.07 3.63 7.24 7.24 0 0 1 -3 2.53 12.23 12.23 0 0 1 -10.08-.35 4.4 4.4 0 0 1 -2.18-4.1 4 4 0 0 1 .7-2.36 2.21 2.21 0 0 1 1.9-1 2.23 2.23 0 0 1 1.92 1 4.41 4.41 0 0 1 .72 2.6 6.83 6.83 0 0 1 -.23 1.83c-.12.64-.35 1.27-.66 2.07z"/><path d="m237.18 189.51a3 3 0 0 0 -.14.92 1.37 1.37 0 0 0 .37 1 1.45 1.45 0 0 0 1 .34 2.76 2.76 0 0 0 2-1 9 9 0 0 0 1.69-3l.69-1.9h.88l-.92 2.69q-1.81 5.46-7 5.46a4.74 4.74 0 0 1 -3.55-1.22 4.68 4.68 0 0 1 -1.18-3.36 9.88 9.88 0 0 1 .42-2.78l4.68-16.31h-4.12l.23-.92h4.22l2-6.91a34.16 34.16 0 0 0 6.71-.64l-2.16 7.62h5.23l-.14.92h-5.37z"/><path d="m292.3 160.65a73.59 73.59 0 0 0 -3 10.65h-1a21.51 21.51 0 0 0 .37-3.66 7 7 0 0 0 -.79-3.52 5.71 5.71 0 0 0 -5.46-3 10.08 10.08 0 0 0 -7.07 3.27 23.25 23.25 0 0 0 -5.37 8.47 29.29 29.29 0 0 0 -2 10.68q0 4.59 1.65 6.88a5.33 5.33 0 0 0 4.61 2.29 9.34 9.34 0 0 0 3.66-.81 10 10 0 0 0 3.28-2.24 15 15 0 0 0 2.11-2.9 40.61 40.61 0 0 0 2.06-4.42h1q-2.17 8-2.73 11.12h-1a12.24 12.24 0 0 0 .14-1.58q0-1.2-.6-1.2a1.65 1.65 0 0 0 -.93.41 20.28 20.28 0 0 1 -4.26 2.23 14 14 0 0 1 -4.82.78q-6.21 0-9.31-3t-3.1-8.52a22 22 0 0 1 2.89-10.73 23.86 23.86 0 0 1 8-8.57 20.22 20.22 0 0 1 11.25-3.28 8.84 8.84 0 0 1 4.1.79 9.93 9.93 0 0 1 2.8 2.22 1 1 0 0 0 .7.42c.55 0 1.17-.93 1.85-2.78z"/><path d="m305.18 168.85a7.45 7.45 0 0 1 5.56 2 7.71 7.71 0 0 1 1.94 5.67 20.33 20.33 0 0 1 -1.73 7.92 17.55 17.55 0 0 1 -5.14 6.9 12.41 12.41 0 0 1 -8.13 2.78 7.47 7.47 0 0 1 -5.56-2 7.75 7.75 0 0 1 -1.95-5.68 20.35 20.35 0 0 1 1.74-7.92 17.55 17.55 0 0 1 5.14-6.9 12.41 12.41 0 0 1 8.13-2.77zm-.23.92c-1.14 0-2.4 1.1-3.75 3.29a32.45 32.45 0 0 0 -3.43 8.06 31.82 31.82 0 0 0 -1.39 8.9 5.73 5.73 0 0 0 .37 2.41 1.26 1.26 0 0 0 1.2.74q1.73 0 3.73-3.2a31.42 31.42 0 0 0 3.41-7.94 32.37 32.37 0 0 0 1.39-9 6.16 6.16 0 0 0 -.37-2.53 1.23 1.23 0 0 0 -1.11-.73z"/><path d="m351.69 185.94-1.16 3.38c-1.11 3.18-3.2 4.77-6.25 4.77-1.79 0-3-.55-3.71-1.66a3.8 3.8 0 0 1 -.51-2.09 11.5 11.5 0 0 1 .7-3.61l4.17-12.51a7.13 7.13 0 0 0 .37-1.85c0-.62-.22-.93-.65-.93q-1.9 0-4.57 4.56a67 67 0 0 0 -5.35 13.28v-.14l-1.2 4.31h-6.62l5.65-19.23a7.13 7.13 0 0 0 .37-1.9c0-.58-.25-.88-.74-.88q-2.08 0-4.71 4.82a67.92 67.92 0 0 0 -4.93 12.55l-1.2 4.68h-6.53l5.65-20a5 5 0 0 0 .23-1.34c0-.65-.28-1-.84-1a1.91 1.91 0 0 0 -1.5.85 11.24 11.24 0 0 0 -1.41 2.81l-.88 2.36h-.88l1.25-3.52a7.13 7.13 0 0 1 2.56-3.65 6.41 6.41 0 0 1 3.68-1.11 3.59 3.59 0 0 1 2.87 1 3.94 3.94 0 0 1 .88 2.68 11.32 11.32 0 0 1 -.41 2.78l-1 4q2.26-5.65 4.65-8.06a7.75 7.75 0 0 1 5.72-2.41q3.66 0 3.66 3.61a13.71 13.71 0 0 1 -.55 3.38l-.84 3q2.33-5.52 4.7-7.74a7.82 7.82 0 0 1 5.49-2.22 3.81 3.81 0 0 1 2.88 1 3.71 3.71 0 0 1 .92 2.64 10.1 10.1 0 0 1 -.65 3.38l-4.54 13.67a5 5 0 0 0 -.27 1.34c0 .65.29 1 .88 1q1.57 0 2.91-3.66l.84-2.22z"/><path d="m370.12 161.67-4 14.13a16.27 16.27 0 0 1 3.52-5.28 5.83 5.83 0 0 1 4-1.67 5.14 5.14 0 0 1 4.28 1.83 8.36 8.36 0 0 1 1.46 5.3 21.7 21.7 0 0 1 -1.69 8 19.52 19.52 0 0 1 -4.84 7.16 10.45 10.45 0 0 1 -7.32 2.91 7 7 0 0 1 -2.41-.41 4 4 0 0 1 -1.76-1.21l-1.25 4.45a6 6 0 0 0 -.28 1.67 1.78 1.78 0 0 0 .93 1.76 7.24 7.24 0 0 0 2.92.51l-.28 1-1.07-.05q-4.72-.14-6.25-.14c-1 0-3.2.07-6.53.19l.28-1a3.74 3.74 0 0 0 2.4-.61 4.35 4.35 0 0 0 1.21-2.26l8.38-30.07a28.86 28.86 0 0 1 -3 5.17 42.4 42.4 0 0 1 -4.08 4.74l-.51-.6q2-2.22 3.38-3.87a29 29 0 0 0 2.71-4 43.45 43.45 0 0 0 2.71-5.81l.14-.56a29.15 29.15 0 0 0 6.95-1.28zm1 9.63c-.93 0-2 .9-3.15 2.69a31.89 31.89 0 0 0 -3.24 6.81l-3.11 10.89a2.68 2.68 0 0 0 2.13 1.06c1.45 0 2.87-.93 4.24-2.8a23.55 23.55 0 0 0 3.36-6.95 26.45 26.45 0 0 0 1.3-7.85 7.68 7.68 0 0 0 -.4-3 1.23 1.23 0 0 0 -1.15-.85z"/><path d="m405.42 168.85-6.07 20.66a5 5 0 0 0 -.23 1.29c0 .68.3 1 .88 1q1.62 0 2.88-3.66l.83-2.22h.88l-1.16 3.38a7.11 7.11 0 0 1 -2.57 3.69 6.35 6.35 0 0 1 -3.54 1.08 3.9 3.9 0 0 1 -3.43-1.43 3.72 3.72 0 0 1 -.65-2.32 10.45 10.45 0 0 1 .42-2.73 13.44 13.44 0 0 1 -3.5 5 6.68 6.68 0 0 1 -4.24 1.52 4.88 4.88 0 0 1 -3.87-1.5 6.16 6.16 0 0 1 -1.32-4.19 20.46 20.46 0 0 1 2.2-8.74 24.86 24.86 0 0 1 5.59-7.71q3.38-3.1 6.62-3.1a2.74 2.74 0 0 1 2 .74 3.4 3.4 0 0 1 .91 2.22l.65-2.27a34 34 0 0 0 6.72-.71zm-9.4 1.71q-1.57 0-3.59 2.83a26.53 26.53 0 0 0 -3.43 7.08 26.25 26.25 0 0 0 -1.41 8.25 5.83 5.83 0 0 0 .3 2.2 1 1 0 0 0 1 .67 3.28 3.28 0 0 0 2.24-1.41 17.3 17.3 0 0 0 2.46-4.08 36.59 36.59 0 0 0 2.15-6.32l-.23 1.11 2-7.27a4.16 4.16 0 0 0 0-.7 3.28 3.28 0 0 0 -.39-1.76 1.32 1.32 0 0 0 -1.12-.6z"/><path d="m432.52 185.94-1.16 3.38q-1.67 4.77-6.2 4.77a4.3 4.3 0 0 1 -3.71-1.52 3.8 3.8 0 0 1 -.6-2.18 11.87 11.87 0 0 1 .74-3.66l4.17-12.51a6.67 6.67 0 0 0 .42-2c0-.71-.3-1.07-.88-1.07-.93 0-2.05 1-3.36 2.83a42 42 0 0 0 -4 7.43 82.92 82.92 0 0 0 -3.48 9.71l-.6 2.32h-6.53l5.6-20a4.61 4.61 0 0 0 .28-1.48c0-.55-.26-.83-.79-.83a2 2 0 0 0 -1.55.81 10 10 0 0 0 -1.41 2.85l-.88 2.36h-.88l1.25-3.52a7.47 7.47 0 0 1 2.36-3.66 5.88 5.88 0 0 1 3.62-1.11c2.65 0 4 1.26 4 3.8a10.23 10.23 0 0 1 -.37 2.68l-1.44 5.61a41.88 41.88 0 0 1 3.64-7.34 11.73 11.73 0 0 1 3.52-3.69 7.58 7.58 0 0 1 4-1.06q4.17 0 4.17 3.7a11.13 11.13 0 0 1 -.6 3.29l-4.54 13.67a4.32 4.32 0 0 0 -.28 1.34c0 .65.29 1 .88 1a2 2 0 0 0 1.46-.78 9.14 9.14 0 0 0 1.46-2.88l.83-2.22z"/><path d="m453.18 168.85q3.06 0 3.06 4.21a24.39 24.39 0 0 1 -2.69 9.94 46.48 46.48 0 0 1 -6.44 10.26 32.36 32.36 0 0 1 -5.21 5 20.51 20.51 0 0 1 -5.86 3.2 9.56 9.56 0 0 1 -3.29.69 3.66 3.66 0 0 1 -2.34-.69 2.31 2.31 0 0 1 -.85-1.9 2.65 2.65 0 0 1 .9-2.06 3.31 3.31 0 0 1 2.29-.81q2.75 0 5 3.19a22.71 22.71 0 0 0 6-4.26l-3.61-22.14a6.45 6.45 0 0 0 -.49-1.74.8.8 0 0 0 -.72-.44c-.33 0-.66.23-1 .7a14.3 14.3 0 0 0 -1.2 2.73l-.83 2.27h-.9l1.16-3.38a7.76 7.76 0 0 1 2.34-3.71 5.41 5.41 0 0 1 3.36-1.06 4.19 4.19 0 0 1 3.14 1.15 7 7 0 0 1 1.53 3.89l2.13 15.89a44 44 0 0 0 3.52-6 29.51 29.51 0 0 0 2.18-5.82 9.4 9.4 0 0 1 -3.1-2.59 5.2 5.2 0 0 1 -1.16-3.38 3.2 3.2 0 0 1 .83-2.3 3 3 0 0 1 2.25-.84z"/></svg>