<svg viewBox="0 0 618.49 514.94" xmlns="http://www.w3.org/2000/svg"><path d="m496.62 410.95-187.38 84.54-187.38-84.54v-405.76h374.76z" fill="#fdd86f"/><path d="m309.24 500.68a5.37 5.37 0 0 1 -2.13-.47l-187.36-84.54a5.19 5.19 0 0 1 -3.11-4.66v-405.82a5.21 5.21 0 0 1 5.23-5.19h374.8a5.19 5.19 0 0 1 5.19 5.19v405.81a5.17 5.17 0 0 1 -3.11 4.66l-187.37 84.6a5.42 5.42 0 0 1 -2.14.42zm-182.24-93.08 182.2 82.19 182.2-82.19v-397.21h-364.4z" fill="#fdd86f"/><path d="m134 403.79v-386.79h351.71v386.79l-175.86 79.34z" fill="#e9c05b"/><path d="m244.29 471.23a252.14 252.14 0 0 0 -25.35-30.38c-13.68-13.79-26.7-25.66-31.94-30.39-1.36-1.21-2.48-.73-2.41 1.08.23 6.22 2.07 20.65 14.51 35.77 9.53 11.82 24.07 19.64 34.69 24.07 1.67.7 1.56 1-.18.64a214.16 214.16 0 0 1 -50.72-16.16 7.78 7.78 0 0 1 -3.73-4.59 213.49 213.49 0 0 0 -12.78-35.61c-7.92-16.74-16.35-31.49-19.83-37.48-.92-1.56-2.15-1.45-2.62.31a61.2 61.2 0 0 0 2.48 37.88c5.07 13.75 15.42 25.06 23.32 32.17 1.36 1.19 1.19 1.46-.4.59a211.55 211.55 0 0 1 -44.62-32.83 7.73 7.73 0 0 1 -2-5.56 178.36 178.36 0 0 0 -.42-35.49 350.67 350.67 0 0 0 -7.22-39.5c-.42-1.76-1.55-2-2.58-.45a60.3 60.3 0 0 0 -8.3 34.95c.64 13.53 6.22 26.34 10.88 34.94.89 1.56.63 1.79-.59.45a222.59 222.59 0 0 1 -31.82-45.35 7.67 7.67 0 0 1 -.15-5.91 168.34 168.34 0 0 0 10.54-33.54 332.26 332.26 0 0 0 4.95-39.52c.11-1.8-1-2.39-2.35-1.23a59.47 59.47 0 0 0 -18.38 30.53c-3.47 13.14-2.12 27.08-.28 36.64.34 1.77 0 1.88-.7.23a232.85 232.85 0 0 1 -14.77-43.49 7.54 7.54 0 0 1 1.39-5.72 150.22 150.22 0 0 0 17.57-27.81 297.55 297.55 0 0 0 13.77-35.16c.54-1.73-.38-2.57-2-1.76a57 57 0 0 0 -23.81 23.65c-6.23 11.28-8.32 24.47-8.91 33.67-.12 1.81-.43 1.84-.74 0a229.05 229.05 0 0 1 -3.11-46.26 7.54 7.54 0 0 1 2.83-5.15 118.86 118.86 0 0 0 20.42-19.36 234.6 234.6 0 0 0 18.91-27.4c.92-1.55.22-2.56-1.56-2.09a52.57 52.57 0 0 0 -24.63 15.55c-7.42 8.05-12 18.27-14.53 25.75-.59 1.73-.9 1.67-.73-.14a219.14 219.14 0 0 1 7.92-41.63 7.77 7.77 0 0 1 4-4.32 108.57 108.57 0 0 0 22.89-13.19 226.12 226.12 0 0 0 23.87-21.26c1.26-1.31.81-2.43-1-2.32a52 52 0 0 0 -26.07 9.24 73 73 0 0 0 -19.44 20.65 18.09 18.09 0 0 1 -1.56 2.32 1.6 1.6 0 0 1 .16-.48c.31-.91.62-1.79 1-2.69s.63-1.75 1-2.63l1-2.66 1-2.61c.38-.89.73-1.78 1.11-2.65l1.1-2.6 1.17-2.62c.39-.86.79-1.71 1.2-2.57l1.22-2.61 1.28-2.54c.44-.85.87-1.72 1.32-2.58s.87-1.68 1.32-2.5l1.4-2.57c.47-.84.94-1.66 1.42-2.49s1-1.69 1.46-2.53l1.56-2.46.42-.68a8.35 8.35 0 0 1 3.67-1.17 91.58 91.58 0 0 0 21.91-6.86 194 194 0 0 0 25.13-14.38c1.56-1 1.28-2.17-.53-2.37a49.84 49.84 0 0 0 -24.06 3.75 70.54 70.54 0 0 0 -20.34 13.39c-1.32 1.23-1.55 1-.54-.45q5-7.32 10.67-14.34a27.29 27.29 0 0 1 4.72-4.39 258.71 258.71 0 0 0 23.23-18.27 334.15 334.15 0 0 0 24.6-24.7c1.21-1.36.76-2.09-.95-1.56a92.93 92.93 0 0 0 -31.1 17.87 81.08 81.08 0 0 0 -18.67 24.4 34.71 34.71 0 0 1 -3.47 5.51q-5.75 7.11-10.88 14.54c-1 1.55-1.26 1.37-.61-.31 2.44-6.22 5.68-15 8.26-24.19a110 110 0 0 0 4.11-26.54c0-1.82-1.06-2.18-2.15-.74-4 5.31-12.68 18.15-15.55 31.71a50.62 50.62 0 0 0 .2 24.19 9.11 9.11 0 0 1 .56 3.84l-.44.73c-.49.81-1 1.56-1.46 2.43s-1 1.72-1.55 2.61-1 1.63-1.4 2.44l-1.43 2.64-1.31 2.52c-.47.89-.9 1.78-1.35 2.68s-.84 1.66-1.25 2.49-.85 1.8-1.27 2.69-.8 1.69-1.18 2.53-.75 1.78-1.17 2.71-.75 1.69-1.1 2.55-.75 1.82-1.12 2.74-.7 1.71-1 2.56-.72 1.84-1.06 2.76-.64 1.72-1 2.58l-1 2.78a1.82 1.82 0 0 1 -.17.53 10.09 10.09 0 0 1 .22-2.74c.9-7.54 2-18.66 2.3-30a131 131 0 0 0 -2.94-31.1c-.41-1.76-1.56-1.87-2.32-.22-3 6.61-9.44 23.33-8.69 39.53a57.11 57.11 0 0 0 7.63 27.31 8.42 8.42 0 0 1 .86 5.9 219.49 219.49 0 0 0 -8 42.36c-.16 1.81-.45 1.81-.7 0-1.09-8-2.91-19.63-5.65-31.27a140.89 140.89 0 0 0 -11.5-31.35c-.84-1.55-2-1.41-2.33.38-1.3 7.38-3.57 26.29 1.55 43a60.88 60.88 0 0 0 15.48 26.4 8.26 8.26 0 0 1 2.3 5.48 231.25 231.25 0 0 0 3.25 47.15c.31 1.79 0 1.87-.67.2-3.54-8.63-9.11-21.54-15.55-34.29a173.62 173.62 0 0 0 -21.77-32.75c-1.19-1.37-2.29-.92-2.2.89.44 8.36 2.87 31.1 13.67 48.85 8.9 14.83 19.44 22.11 25.4 25.33a8.21 8.21 0 0 1 3.57 4.66 233.45 233.45 0 0 0 15.07 44.47c.74 1.65.49 1.8-.61.36-6-7.78-15-19.38-24.88-30.56a185.88 185.88 0 0 0 -31.11-28c-1.55-1-2.46-.32-1.93 1.42 2.48 8.4 10.86 31.38 26.85 46.93 13.17 13 26 17.45 32.93 19a8 8 0 0 1 4.68 3.57 226 226 0 0 0 32.43 46.19c1.21 1.34 1 1.55-.47.53-8.15-5.68-20.22-13.84-32.75-21.42a181.85 181.85 0 0 0 -37.89-17.1c-1.72-.53-2.44.45-1.41 1.94 4.9 7.2 19.8 26.66 39.72 36.59 16.57 8.37 30.26 8.67 37.37 8.07a8.11 8.11 0 0 1 5.62 1.9 213.5 213.5 0 0 0 45.38 33.41c1.55.87 1.55 1.13-.25.6-10.39-3.11-25.83-7.57-41.34-11.46a204.83 204.83 0 0 0 -44-5.94c-1.82 0-2.24 1.12-.82 2.27 7 5.77 28.41 21.31 52.42 25.13 20 3.33 34.37-.88 41.43-3.81a8.52 8.52 0 0 1 6 0 212.47 212.47 0 0 0 21.16 8.5c1.71.57 3.11 1 3.11 1s1.41.42 3.11.95a226.76 226.76 0 0 0 24.38 5.95c1.78.35 1.76.59 0 .61-11.74.09-29.2.3-46.08 1a220.73 220.73 0 0 0 -45.57 6.8c-1.74.49-1.82 1.68-.14 2.38 8.64 3.53 34.69 12.44 60.44 9.22 21.52-2.63 34.91-10.89 41.18-15.82a9.07 9.07 0 0 1 5.79-1.69c1.21.15 2.42.28 3.64.4 1.8.19 3.26-.36 3.26-1.17s-1.46-1.64-3.25-1.85l-3.11-.37a8.35 8.35 0 0 1 -5.07-3.18z" fill="#cca650"/><path d="m374.18 469.67a252.2 252.2 0 0 1 25.37-30.37c13.68-13.8 26.7-25.66 32-30.39 1.33-1.21 2.45-.73 2.39 1.07-.23 6.22-2 20.65-14.52 35.77-9.52 11.82-24.06 19.64-34.67 24.08-1.68.7-1.56 1 .17.63a214.14 214.14 0 0 0 50.72-16.15 7.78 7.78 0 0 0 3.73-4.59 212.39 212.39 0 0 1 12.78-35.62c7.92-16.73 16.35-31.49 19.83-37.48.92-1.55 2.15-1.44 2.61.31 1.67 6 4.25 20.22-2.47 37.89-5.12 13.75-15.47 25.05-23.37 32.18-1.35 1.2-1.18 1.46.41.59a212.07 212.07 0 0 0 44.62-32.83 7.71 7.71 0 0 0 2-5.55 178.35 178.35 0 0 1 .42-35.49 356 356 0 0 1 7.23-39.41c.42-1.76 1.63-2 2.58-.45a60.11 60.11 0 0 1 8.29 34.94c-.64 13.53-6.22 26.35-10.89 35-.87 1.56-.62 1.79.59.45a222.09 222.09 0 0 0 31.82-45.35 7.62 7.62 0 0 0 .16-5.91 169.89 169.89 0 0 1 -10.55-33.54 332.6 332.6 0 0 1 -5-39.52c-.11-1.81 1-2.4 2.37-1.23a59.5 59.5 0 0 1 18.38 30.43c3.48 13.15 2.13 27.08.3 36.65-.35 1.77 0 1.88.69.23a232.25 232.25 0 0 0 14.83-43.62 7.58 7.58 0 0 0 -1.4-5.72 149.89 149.89 0 0 1 -17.6-27.81 299.24 299.24 0 0 1 -13.76-35.16c-.55-1.73.37-2.57 2-1.76a57 57 0 0 1 23.76 23.66c6.31 11.32 8.4 24.51 9 33.67.11 1.8.42 1.83.73 0a229.1 229.1 0 0 0 3.13-46.27 7.56 7.56 0 0 0 -2.83-5.15 118.26 118.26 0 0 1 -20.38-19.36 235.33 235.33 0 0 1 -18.91-27.34c-.91-1.56-.21-2.57 1.56-2.1a52.74 52.74 0 0 1 24.62 15.55c7.43 8.06 12 18.28 14.52 25.76.59 1.72.9 1.66.73-.14a218.45 218.45 0 0 0 -7.91-41.64 7.8 7.8 0 0 0 -4-4.32 107.91 107.91 0 0 1 -23-13.19 226.27 226.27 0 0 1 -23.79-21.26c-1.28-1.3-.83-2.42 1-2.31a52.15 52.15 0 0 1 26.1 9.23 73.06 73.06 0 0 1 19.43 20.66 21.24 21.24 0 0 0 1.56 2.31 1.7 1.7 0 0 0 -.16-.48c-.31-.9-.62-1.79-1-2.69s-.64-1.74-1-2.63-.67-1.77-1-2.66l-1-2.61c-.35-.89-.73-1.77-1.08-2.64l-1.12-2.6-1.2-2.63c-.39-.85-.79-1.71-1.2-2.57s-.81-1.74-1.24-2.61-.83-1.68-1.26-2.53l-1.3-2.58c-.43-.84-.89-1.68-1.34-2.51l-1.4-2.56-1.4-2.49-1.43-2.54-1.55-2.45-.42-.69a8.7 8.7 0 0 0 -3.67-1.17 90.83 90.83 0 0 1 -21.91-6.85 195.34 195.34 0 0 1 -25.14-14.39c-1.55-1-1.27-2.16.53-2.36a49.9 49.9 0 0 1 24.17 3.74 70.93 70.93 0 0 1 20.22 13.39c1.32 1.23 1.55 1 .54-.45q-5-7.32-10.67-14.34a27.12 27.12 0 0 0 -4.76-4.38 263.66 263.66 0 0 1 -23.32-18.27 336.25 336.25 0 0 1 -24.56-24.67c-1.21-1.35-.76-2.08 1-1.56a93.31 93.31 0 0 1 31.11 17.87 81.21 81.21 0 0 1 18.66 24.41 34.18 34.18 0 0 0 3.47 5.5q5.76 7.13 10.88 14.54c1 1.56 1.26 1.37.61-.31-2.44-6.22-5.68-15-8.26-24.18a110.51 110.51 0 0 1 -4.1-26.55c0-1.82 1.06-2.18 2.14-.73 4 5.3 12.69 18.15 15.56 31.71a51.09 51.09 0 0 1 -.19 24.18 9 9 0 0 0 -.58 3.84l.44.74 1.46 2.42c.51.86 1 1.73 1.56 2.61l1.38 2.45c.48.88 1 1.75 1.43 2.64s.89 1.65 1.32 2.47.91 1.78 1.36 2.68.84 1.66 1.24 2.49l1.29 2.69 1.17 2.53c.4.9.81 1.81 1.19 2.71s.75 1.69 1.11 2.55l1.12 2.73c.35.86.69 1.71 1 2.57s.71 1.84 1 2.75.64 1.73 1 2.59l1 2.78.19.53a12.58 12.58 0 0 0 -.24-2.74c-.9-7.54-2-18.66-2.3-30a131 131 0 0 1 2.94-31.1c.41-1.76 1.56-1.87 2.32-.22 3 6.61 9.44 23.33 8.69 39.53a57.09 57.09 0 0 1 -7.62 27.33 8.38 8.38 0 0 0 -.85 5.89 222 222 0 0 1 8 42.37c.15 1.8.45 1.8.7 0 1.09-8 2.92-19.63 5.64-31.28a140.35 140.35 0 0 1 11.53-31.38c.85-1.56 2-1.42 2.33.37 1.29 7.39 3.56 26.3-1.56 43a60.85 60.85 0 0 1 -15.42 26.44 8.26 8.26 0 0 0 -2.3 5.47 230.69 230.69 0 0 1 -3.26 47.16c-.31 1.78 0 1.86.67.2 3.55-8.63 9.12-21.54 15.63-34.29a173.76 173.76 0 0 1 21.85-32.76c1.19-1.37 2.29-.91 2.2.89-.44 8.37-2.86 31.1-13.67 48.85-8.9 14.84-19.43 22.11-25.4 25.33a8.18 8.18 0 0 0 -3.65 4.67 234.05 234.05 0 0 1 -15.07 44.46c-.75 1.65-.5 1.81.6.36 6-7.78 15-19.38 24.89-30.56a185.8 185.8 0 0 1 31.1-28c1.55-1 2.46-.33 1.93 1.41-2.55 8.34-11 31.37-26.92 46.86-13.18 12.95-26 17.45-32.94 19a8 8 0 0 0 -4.75 3.53 225.23 225.23 0 0 1 -32.42 46.18c-1.21 1.34-1 1.56.47.53 8.14-5.67 20.21-13.84 32.75-21.41a182.09 182.09 0 0 1 37.88-17.11c1.74-.53 2.44.45 1.43 1.95-4.91 7.2-19.79 26.65-39.73 36.59-16.55 8.37-30.24 8.69-37.33 8.07a8.08 8.08 0 0 0 -5.61 1.9 214 214 0 0 1 -45.4 33.38c-1.56.87-1.48 1.14.25.61 10.38-3.11 25.83-7.57 41.33-11.46a205 205 0 0 1 44-5.94c1.8 0 2.22 1.12.82 2.27-7.06 5.77-28.42 21.3-52.44 25.13-20 3.33-34.35-.89-41.43-3.81a8.47 8.47 0 0 0 -5.95 0 212.57 212.57 0 0 1 -21.2 8.44c-1.71.58-3.11 1-3.11 1s-1.42.42-3.11.95a229.62 229.62 0 0 1 -24.37 6c-1.79.34-1.77.59 0 .61 11.74.09 29.21.29 46.08 1a220 220 0 0 1 45.57 6.75c1.74.5 1.82 1.68.14 2.38-8.63 3.53-34.68 12.44-60.42 9.22-21.54-2.62-34.93-10.88-41.2-15.81a9.08 9.08 0 0 0 -5.79-1.7c-1.21.16-2.42.28-3.63.41-1.81.18-3.27-.36-3.27-1.17s1.46-1.65 3.27-1.85l3.11-.37a8.28 8.28 0 0 0 4.97-2.99z" fill="#cca650"/><path d="m287.42 439.36 14.62 25.26 14.41-.04 14.67-25.22z" fill="#f58722"/><path d="m287.46 439.33-21.83 37.84 29.19-.05 7.17-12.49z" fill="#1a6178"/><path d="m287.42 514.85h43.7l-14.67-25.23-14.41-.03z" fill="#1298b6"/><path d="m287.46 514.88 14.53-25.3-7.17-12.49-29.19-.05z" fill="#89bb48"/><path d="m323.67 477.15-7.16 12.49 14.51 25.3 21.84-37.84z" fill="#a7529e"/><path d="m79.05 279.31h-79.05l30.06 51.76-30.06 51.76h112.08v-37.61-65.91z" fill="#e87c61"/><path d="m618.49 279.31h-79.05-33.04v65.91 37.61h112.09l-30.07-51.76z" fill="#e87c61"/><path d="m533.85 348.42v-69.91-4.65-4.67-45.19h-447.85v45.19 4.67 4.65 69.91h26.77 3.12 3.14 381.79 3.12 3.15z" fill="#ff8a6a"/><g fill="#fff"><path d="m146.22 257.41a29.53 29.53 0 0 1 14.28 3.31 23 23 0 0 1 9.5 9.58 31.12 31.12 0 0 1 3.39 15 31.64 31.64 0 0 1 -3.46 15 25.06 25.06 0 0 1 -9.67 10.16 27.52 27.52 0 0 1 -14.13 3.62 29.64 29.64 0 0 1 -14.28-3.31 23.19 23.19 0 0 1 -9.51-9.59 31.09 31.09 0 0 1 -3.39-15 31.6 31.6 0 0 1 3.47-15 25.1 25.1 0 0 1 9.67-10.18 27.42 27.42 0 0 1 14.13-3.59zm-.31 1.38a10 10 0 0 0 -7.47 3.43 22.66 22.66 0 0 0 -5 9.59 51.89 51.89 0 0 0 -1.74 14.09 45.93 45.93 0 0 0 2 14.09 22.91 22.91 0 0 0 5.31 9.39 10.34 10.34 0 0 0 7.43 3.31 10 10 0 0 0 7.47-3.42 22.72 22.72 0 0 0 5-9.59 52.35 52.35 0 0 0 1.73-14.09 45.85 45.85 0 0 0 -2-14.09 22.78 22.78 0 0 0 -5.32-9.4 10.38 10.38 0 0 0 -7.41-3.31z"/><path d="m228 260a8.3 8.3 0 0 0 -3.73 1.31 4.82 4.82 0 0 0 -1.62 2.93 31.06 31.06 0 0 0 -.42 5.93v20.4q0 11-3.16 16.33a13.83 13.83 0 0 1 -6 5.27 22.1 22.1 0 0 1 -9.63 1.89q-8.93 0-13.86-3.85a13.89 13.89 0 0 1 -4.77-7.2 47.09 47.09 0 0 1 -1.23-12.21v-24.15a15.17 15.17 0 0 0 -.43-4.24 2.67 2.67 0 0 0 -1.61-1.77 13.58 13.58 0 0 0 -3.74-.62v-1.54q3.93.24 12 .24t12.25-.24v1.52a15.61 15.61 0 0 0 -4.05.62 2.79 2.79 0 0 0 -1.73 1.77 13.88 13.88 0 0 0 -.46 4.24v29q0 8.08 2.35 11.89t8.27 3.81q7.71 0 10.86-5.19t3.16-14.75v-20.28a29.6 29.6 0 0 0 -.54-6.62 4.85 4.85 0 0 0 -2.08-3.12 12.22 12.22 0 0 0 -4.83-1.37v-1.54q2.93.24 8.32.24 4.3 0 6.69-.24z"/><path d="m278.82 258.48q-.54 7.32-.54 13.09a57.61 57.61 0 0 0 .23 5.86h-1.77q-1.86-9.48-5.05-13.32a10.74 10.74 0 0 0 -8.74-3.85h-1.77v44a12.25 12.25 0 0 0 .66 4.7 3.47 3.47 0 0 0 2.31 2 21.1 21.1 0 0 0 5.27.58v1.46q-9.71-.22-14.63-.23t-14.09.23v-1.54a21.1 21.1 0 0 0 5.27-.58 3.47 3.47 0 0 0 2.31-2 12.25 12.25 0 0 0 .66-4.7v-44h-1.7a11.56 11.56 0 0 0 -6.27 1.61 12.75 12.75 0 0 0 -4.43 5.35 43.08 43.08 0 0 0 -3.16 10.21h-1.77a57.16 57.16 0 0 0 .24-5.86q0-5.77-.54-13.09 7 .24 23.79.24t23.72-.16z"/><path d="m307.69 260a15.44 15.44 0 0 0 -4 .62 2.75 2.75 0 0 0 -1.73 1.77 13.81 13.81 0 0 0 -.47 4.24v39.11a11.82 11.82 0 0 0 .39 3.58 2.26 2.26 0 0 0 1.35 1.5 9 9 0 0 0 3.11.39h3.78q5.24 0 9-4.7t5-12.47h1.77q-.23 2.61-.23 6.77a111.94 111.94 0 0 0 .54 12.17q-5.24-.22-17.63-.23-16.79 0-25.11.23v-1.54a13.2 13.2 0 0 0 3.74-.62 2.64 2.64 0 0 0 1.62-1.77 15.17 15.17 0 0 0 .42-4.23v-38.17a15.26 15.26 0 0 0 -.42-4.24 2.68 2.68 0 0 0 -1.62-1.77 13.58 13.58 0 0 0 -3.74-.62v-1.54q3.93.24 12.17.24 7.86 0 12.09-.24z"/><path d="m358.43 257.41a29.57 29.57 0 0 1 14.29 3.31 23.11 23.11 0 0 1 9.51 9.58 31.23 31.23 0 0 1 3.38 15 31.64 31.64 0 0 1 -3.46 15 25.1 25.1 0 0 1 -9.66 10.16 27.57 27.57 0 0 1 -14.13 3.62 29.65 29.65 0 0 1 -14.29-3.31 23.19 23.19 0 0 1 -9.51-9.59 31.09 31.09 0 0 1 -3.39-15 31.6 31.6 0 0 1 3.47-15 25.1 25.1 0 0 1 9.66-10.18 27.47 27.47 0 0 1 14.13-3.59zm-.31 1.38a10 10 0 0 0 -7.46 3.43 22.55 22.55 0 0 0 -5 9.59 51.9 51.9 0 0 0 -1.66 14.09 45.94 45.94 0 0 0 2 14.09 22.91 22.91 0 0 0 5.31 9.39 10.36 10.36 0 0 0 7.43 3.31 10 10 0 0 0 7.47-3.42 22.72 22.72 0 0 0 5-9.59 52.35 52.35 0 0 0 1.73-14.09 45.85 45.85 0 0 0 -2-14.09 22.89 22.89 0 0 0 -5.31-9.4 10.4 10.4 0 0 0 -7.51-3.31z"/><path d="m419.49 257.41a29.54 29.54 0 0 1 14.29 3.31 23.11 23.11 0 0 1 9.51 9.58 31.12 31.12 0 0 1 3.38 15 31.64 31.64 0 0 1 -3.46 15 25.1 25.1 0 0 1 -9.66 10.16 27.57 27.57 0 0 1 -14.13 3.62 29.68 29.68 0 0 1 -14.29-3.31 23.19 23.19 0 0 1 -9.51-9.59 31.2 31.2 0 0 1 -3.38-15 31.59 31.59 0 0 1 3.46-15 25.1 25.1 0 0 1 9.66-10.18 27.47 27.47 0 0 1 14.13-3.59zm-.3 1.38a10 10 0 0 0 -7.47 3.43 22.66 22.66 0 0 0 -5 9.59 52.3 52.3 0 0 0 -1.72 14.09 45.94 45.94 0 0 0 2 14.1 22.91 22.91 0 0 0 5.31 9.39 10.36 10.36 0 0 0 7.44 3.31 10 10 0 0 0 7.46-3.42 22.61 22.61 0 0 0 5-9.59 52 52 0 0 0 1.73-14.09 45.85 45.85 0 0 0 -2-14.09 22.89 22.89 0 0 0 -5.31-9.4 10.4 10.4 0 0 0 -7.44-3.32z"/><path d="m499.57 306.76a13.82 13.82 0 0 0 2.39 2.85 10.71 10.71 0 0 0 3.16 1.85v1.54q-5.4-.22-12-.23-5.08 0-9.78.23v-1.54a15.12 15.12 0 0 0 3.12-.46q1-.31 1-1.08a4.22 4.22 0 0 0 -.85-1.92l-11.21-18.1a14.38 14.38 0 0 0 -2.58-3.31 5 5 0 0 0 -2.81-1v19.25a15.17 15.17 0 0 0 .42 4.23 2.63 2.63 0 0 0 1.58 1.77 13 13 0 0 0 3.77.62v1.54q-4.15-.22-11.63-.23-8.23 0-12.16.23v-1.54a13.12 13.12 0 0 0 3.73-.62 2.62 2.62 0 0 0 1.62-1.77 15.17 15.17 0 0 0 .42-4.23v-38.19a15.26 15.26 0 0 0 -.42-4.24 2.66 2.66 0 0 0 -1.62-1.77 13.49 13.49 0 0 0 -3.72-.64v-1.54q3.93.24 12.16.24 7.47 0 11.63-.24v1.54a13.33 13.33 0 0 0 -3.77.62 2.68 2.68 0 0 0 -1.58 1.77 15.26 15.26 0 0 0 -.42 4.24v17.37a10.93 10.93 0 0 0 5.62-1.85 30.93 30.93 0 0 0 5.77-5.39l4.55-5.46q3.54-4.08 3.54-7.16a3.42 3.42 0 0 0 -1.5-2.93 7.89 7.89 0 0 0 -4.2-1.23v-1.47c3.75.16 7.54.24 11.39.24 3 0 5.4-.08 7.24-.24v1.49q-6.15 1.46-11.16 7.39l-9.63 11.47z"/></g><path d="m177.4 174.45q5.11.24 7.85 2.26a6.1 6.1 0 0 1 2.72 5.07 8.12 8.12 0 0 1 -2 5.52 12.15 12.15 0 0 1 -5.48 3.46 25.2 25.2 0 0 1 -8 1.17h-2.73c-1.94-.07-3.77-.1-5.49-.1q-4.75 0-7.29.14l.19-.94a10.27 10.27 0 0 0 2.54-.37 2.49 2.49 0 0 0 1.34-1.08 10.56 10.56 0 0 0 1-2.59l6.2-23.31a10.31 10.31 0 0 0 .38-2.26 1.44 1.44 0 0 0 -.68-1.31 5.37 5.37 0 0 0 -2.47-.47l.24-.94q2.49.14 7.14.14l4-.05h2.87q5.27 0 7.8 1.62a5.11 5.11 0 0 1 2.54 4.58 7.2 7.2 0 0 1 -1.57 4.49 11.56 11.56 0 0 1 -4.45 3.36 20.67 20.67 0 0 1 -6.65 1.61zm1.6-14.85a2.72 2.72 0 0 0 -2 .66 6.31 6.31 0 0 0 -1.15 2.67l-3 11.33h1.64a7.06 7.06 0 0 0 4.4-1.41 8.77 8.77 0 0 0 2.82-3.73 12.93 12.93 0 0 0 1-5 5.87 5.87 0 0 0 -.82-3.39 3.18 3.18 0 0 0 -2.89-1.13zm-7.66 31.25a8.43 8.43 0 0 0 4.75-1.31 8.18 8.18 0 0 0 3-3.58 12 12 0 0 0 1-5 6.6 6.6 0 0 0 -1.29-4.28 5 5 0 0 0 -4.11-1.6h-2.07l-3.12 11.92a11.76 11.76 0 0 0 -.37 2.12 1.7 1.7 0 0 0 .51 1.34 2.74 2.74 0 0 0 1.74.39z"/><path d="m212.88 170.69c0 2.6-1.45 4.87-4.37 6.82a35.13 35.13 0 0 1 -10.15 4.49 18.09 18.09 0 0 0 -.28 3.19 5.34 5.34 0 0 0 .91 3.53 3.45 3.45 0 0 0 2.71 1 7.53 7.53 0 0 0 3.29-.91 11.91 11.91 0 0 0 3.57-2.94l.75.37a14.87 14.87 0 0 1 -4.53 4.47 11.53 11.53 0 0 1 -6.37 1.83 7.93 7.93 0 0 1 -5.31-1.74 6 6 0 0 1 -2.1-4.8 19.15 19.15 0 0 1 2.25-8.64 21 21 0 0 1 6.16-7.41 13.94 13.94 0 0 1 8.59-2.95 6 6 0 0 1 3.53 1 3.16 3.16 0 0 1 1.35 2.69zm-5.88-2.82c-.91 0-1.94.64-3.1 1.93a20.44 20.44 0 0 0 -3.2 5 29.32 29.32 0 0 0 -2.16 6.32 18.64 18.64 0 0 0 5.17-3.14 13 13 0 0 0 3-3.88 10.44 10.44 0 0 0 1.08-4.68 2.66 2.66 0 0 0 -.19-1.22.6.6 0 0 0 -.6-.33z"/><path d="m216.41 191.28a4.35 4.35 0 0 0 1.83.32 3.88 3.88 0 0 0 2.87-1.08 4 4 0 0 0 1.08-3 8.12 8.12 0 0 0 -.66-3.1 23.56 23.56 0 0 0 -2-3.62c-.13-.19-.5-.75-1.11-1.69a12.66 12.66 0 0 1 -1.36-2.7 7.76 7.76 0 0 1 -.45-2.56 6.24 6.24 0 0 1 2.28-5 9.45 9.45 0 0 1 6.31-1.85 10.75 10.75 0 0 1 5.1 1.1 4 4 0 0 1 2 3.79 4.1 4.1 0 0 1 -.75 2.39 2.43 2.43 0 0 1 -2.12 1.08 2.26 2.26 0 0 1 -1.88-.89 3.54 3.54 0 0 1 -.7-2.26 5.61 5.61 0 0 1 .42-2.18 6.15 6.15 0 0 1 1-1.72 3.15 3.15 0 0 0 -1.65-.37 3.41 3.41 0 0 0 -2.65 1.05 4.35 4.35 0 0 0 -1 2.94 5.21 5.21 0 0 0 .49 2.3 30.33 30.33 0 0 0 1.67 2.92l.65 1a28.07 28.07 0 0 1 2.14 4.09 8.45 8.45 0 0 1 .64 3.19 6.5 6.5 0 0 1 -1.08 3.69 7.32 7.32 0 0 1 -3.08 2.56 12.35 12.35 0 0 1 -10.22-.35 4.44 4.44 0 0 1 -2.21-4.16 4 4 0 0 1 .7-2.4 2.38 2.38 0 0 1 3.88 0 4.44 4.44 0 0 1 .73 2.63 6.66 6.66 0 0 1 -.24 1.86 20.67 20.67 0 0 1 -.63 2.02z"/><path d="m240.38 187.94a3.06 3.06 0 0 0 -.14.94 1.4 1.4 0 0 0 .37 1.06 1.49 1.49 0 0 0 1 .35 2.77 2.77 0 0 0 2-1 8.85 8.85 0 0 0 1.72-3l.71-1.93h.96l-.94 2.73q-1.83 5.53-7.05 5.54a4.78 4.78 0 0 1 -3.6-1.24 4.71 4.71 0 0 1 -1.2-3.41 10.17 10.17 0 0 1 .43-2.82l4.74-16.55h-4.23l.24-.94h4.28l2-7a34.27 34.27 0 0 0 6.81-.66l-2.21 7.66h5.31l-.14.94h-5.44z"/><path d="m296.31 158.66a74.63 74.63 0 0 0 -3 10.81h-1a22.14 22.14 0 0 0 .37-3.71 7.11 7.11 0 0 0 -.8-3.58 5.78 5.78 0 0 0 -5.54-3.05 10.22 10.22 0 0 0 -7.17 3.31 23.74 23.74 0 0 0 -5.45 8.6 29.7 29.7 0 0 0 -2.05 10.84c0 3.1.56 5.42 1.67 7a5.42 5.42 0 0 0 4.68 2.32 9.38 9.38 0 0 0 3.71-.82 10.12 10.12 0 0 0 3.34-2.28 15.83 15.83 0 0 0 2.14-2.94 42.09 42.09 0 0 0 2.09-4.49h1q-2.21 8.13-2.77 11.28h-1a11 11 0 0 0 .15-1.59c0-.82-.21-1.23-.61-1.23a1.7 1.7 0 0 0 -.94.43 20.62 20.62 0 0 1 -4.33 2.25 13.86 13.86 0 0 1 -4.89.8q-6.3 0-9.44-3t-3.15-8.64a22.37 22.37 0 0 1 2.93-10.88 24.15 24.15 0 0 1 8.11-8.7 20.55 20.55 0 0 1 11.37-3.39 9.08 9.08 0 0 1 4.16.8 10.24 10.24 0 0 1 2.85 2.25 1 1 0 0 0 .7.43c.57 0 1.19-.94 1.88-2.82z"/><path d="m294.15 184.84a20.59 20.59 0 0 1 1.76-8 17.71 17.71 0 0 1 5.22-7 12.62 12.62 0 0 1 8.24-2.82 7.56 7.56 0 0 1 5.64 2 7.87 7.87 0 0 1 2 5.76 20.77 20.77 0 0 1 -1.76 8 17.9 17.9 0 0 1 -5.22 7 12.62 12.62 0 0 1 -8.25 2.82 7.56 7.56 0 0 1 -5.64-2 7.82 7.82 0 0 1 -1.99-5.76zm15-16.92q-1.74 0-3.81 3.33a33.1 33.1 0 0 0 -3.48 8.18 32.43 32.43 0 0 0 -1.41 9 5.82 5.82 0 0 0 .38 2.44 1.27 1.27 0 0 0 1.22.75q1.74 0 3.79-3.24a32.06 32.06 0 0 0 3.45-8.06 32.56 32.56 0 0 0 1.41-9.14 6.09 6.09 0 0 0 -.38-2.56 1.23 1.23 0 0 0 -1.18-.7z"/><path d="m356.56 184.32-1.17 3.43q-1.69 4.84-6.35 4.84c-1.82 0-3.07-.56-3.76-1.69a3.88 3.88 0 0 1 -.51-2.11 11.84 11.84 0 0 1 .7-3.67l4.23-12.69a7.06 7.06 0 0 0 .38-1.88c0-.63-.22-.94-.66-.94q-1.94 0-4.63 4.63a67 67 0 0 0 -5.43 13.46v-.14l-1.22 4.37h-6.72l5.73-19.5a7.13 7.13 0 0 0 .38-1.93c0-.59-.25-.89-.76-.89q-2.11 0-4.77 4.89a68.32 68.32 0 0 0 -5 12.73l-1.22 4.74h-6.63l5.73-20.3a4.87 4.87 0 0 0 .24-1.36c0-.66-.28-1-.85-1a1.93 1.93 0 0 0 -1.52.87 11.25 11.25 0 0 0 -1.44 2.84l-.89 2.4h-.89l1.27-3.57a7.3 7.3 0 0 1 2.6-3.72 6.55 6.55 0 0 1 3.74-1.12 3.64 3.64 0 0 1 2.91 1 4 4 0 0 1 .9 2.73 10.94 10.94 0 0 1 -.43 2.82l-1 4q2.31-5.73 4.72-8.18a7.89 7.89 0 0 1 5.76-2.38q3.71 0 3.71 3.66a14.22 14.22 0 0 1 -.56 3.43l-.85 3q2.35-5.6 4.77-7.85a8 8 0 0 1 5.57-2.25 3.9 3.9 0 0 1 2.92 1 3.76 3.76 0 0 1 .94 2.68 10.4 10.4 0 0 1 -.66 3.43l-4.61 13.87a4.84 4.84 0 0 0 -.28 1.36c0 .66.3 1 .89 1 1.07 0 2.05-1.24 3-3.71l.85-2.26z"/><path d="m378.84 167a5.26 5.26 0 0 1 4.35 1.85 8.53 8.53 0 0 1 1.48 5.38 22 22 0 0 1 -1.72 8.16 19.58 19.58 0 0 1 -4.91 7.26 10.61 10.61 0 0 1 -7.43 3 7 7 0 0 1 -2.44-.42 4.08 4.08 0 0 1 -1.78-1.22l-1.27 4.51a6.29 6.29 0 0 0 -.29 1.69 1.83 1.83 0 0 0 .94 1.79 7.46 7.46 0 0 0 3 .51l-.28 1-1.08-.05c-3.19-.09-5.31-.14-6.34-.14s-3.25.07-6.63.19l.28-1a3.9 3.9 0 0 0 2.45-.61 4.49 4.49 0 0 0 1.22-2.3l8.51-30.5a29.67 29.67 0 0 1 -3 5.24 44.64 44.64 0 0 1 -4.14 4.82l-.52-.62c1.38-1.5 2.53-2.81 3.43-3.92a29.84 29.84 0 0 0 2.75-4.09 43 43 0 0 0 2.75-5.9l.15-.56a30 30 0 0 0 7-1.32l-4 14.34a16.23 16.23 0 0 1 3.57-5.36 5.93 5.93 0 0 1 3.95-1.73zm-10.06 24.25c1.47 0 2.91-.95 4.3-2.84a23.86 23.86 0 0 0 3.41-7 26.67 26.67 0 0 0 1.32-8 8.18 8.18 0 0 0 -.4-3.06 1.25 1.25 0 0 0 -1.15-.84c-.94 0-2 .91-3.2 2.72a33.08 33.08 0 0 0 -3.29 6.91l-3.15 11.05a2.73 2.73 0 0 0 2.16 1.04z"/><path d="m409.34 184.32h.9l-1.18 3.43a7.22 7.22 0 0 1 -2.61 3.74 6.42 6.42 0 0 1 -3.59 1.1 4 4 0 0 1 -3.48-1.46 3.7 3.7 0 0 1 -.66-2.34 10.79 10.79 0 0 1 .42-2.78 13.45 13.45 0 0 1 -3.54 5 6.78 6.78 0 0 1 -4.3 1.55 4.94 4.94 0 0 1 -3.93-1.53 6.22 6.22 0 0 1 -1.34-4.25 20.73 20.73 0 0 1 2.23-8.86 25.17 25.17 0 0 1 5.67-7.82q3.42-3.15 6.72-3.15a2.8 2.8 0 0 1 2 .75 3.44 3.44 0 0 1 .92 2.26l.66-2.31a34.28 34.28 0 0 0 6.81-.7l-6.16 21a5.08 5.08 0 0 0 -.23 1.32c0 .68.3 1 .89 1q1.65 0 2.92-3.71zm-6.25-12.5a4 4 0 0 0 .05-.71 3.21 3.21 0 0 0 -.4-1.78 1.34 1.34 0 0 0 -1.2-.61c-1.06 0-2.28.95-3.64 2.86a27.21 27.21 0 0 0 -3.48 7.19 26.48 26.48 0 0 0 -1.43 8.37 6 6 0 0 0 .3 2.23 1 1 0 0 0 1 .68 3.31 3.31 0 0 0 2.28-1.43 17.62 17.62 0 0 0 2.49-4.14 37.61 37.61 0 0 0 2.19-6.41l-.25 1.13z"/><path d="m438.58 184.32-1.18 3.43q-1.69 4.84-6.3 4.84a4.36 4.36 0 0 1 -3.76-1.55 3.86 3.86 0 0 1 -.61-2.21 12 12 0 0 1 .75-3.71l4.23-12.69a6.64 6.64 0 0 0 .43-2q0-1.08-.9-1.08-1.41 0-3.4 2.86a44.35 44.35 0 0 0 -4 7.55 85.16 85.16 0 0 0 -3.53 9.84l-.61 2.35h-6.62l5.68-20.3a4.76 4.76 0 0 0 .28-1.5c0-.57-.26-.85-.79-.85a2 2 0 0 0 -1.58.82 10.44 10.44 0 0 0 -1.43 2.89l-.89 2.4h-.9l1.27-3.57a7.67 7.67 0 0 1 2.4-3.72 5.92 5.92 0 0 1 3.66-1.12q4 0 4.05 3.85a10.62 10.62 0 0 1 -.38 2.73l-1.45 5.66a43.55 43.55 0 0 1 3.69-7.45 12 12 0 0 1 3.57-3.73 7.71 7.71 0 0 1 4-1.08q4.23 0 4.23 3.76a11.14 11.14 0 0 1 -.61 3.33l-4.6 13.87a4.55 4.55 0 0 0 -.29 1.36q0 1 .9 1a2.07 2.07 0 0 0 1.48-.8 9.09 9.09 0 0 0 1.48-2.91l.84-2.26z"/><path d="m459.54 167q3.1 0 3.1 4.27a24.85 24.85 0 0 1 -2.72 10.09 47.39 47.39 0 0 1 -6.54 10.41 32.88 32.88 0 0 1 -5.29 5.07 20.72 20.72 0 0 1 -5.94 3.25 9.66 9.66 0 0 1 -3.34.7 3.66 3.66 0 0 1 -2.37-.7 2.36 2.36 0 0 1 -.87-1.93 2.64 2.64 0 0 1 .92-2.09 3.33 3.33 0 0 1 2.32-.83q2.78 0 5 3.25a23 23 0 0 0 6.11-4.33l-3.66-22.46a6.43 6.43 0 0 0 -.5-1.77.8.8 0 0 0 -.73-.44 1.26 1.26 0 0 0 -1 .7 15.09 15.09 0 0 0 -1.23 2.78l-.84 2.3h-.9l1.18-3.43a7.87 7.87 0 0 1 2.37-3.76 5.53 5.53 0 0 1 3.41-1.08 4.26 4.26 0 0 1 3.15 1.12 7.09 7.09 0 0 1 1.55 4l2.16 16.12a45.18 45.18 0 0 0 3.58-6 30.18 30.18 0 0 0 2.2-5.89 9.56 9.56 0 0 1 -3.14-2.64 5.26 5.26 0 0 1 -1.18-3.43 3.16 3.16 0 0 1 .85-2.32 3.05 3.05 0 0 1 2.35-.96z"/><rect fill="#463a1c" height="60" rx="12" width="134" x="243" y="54"/><path d="m289.61 97h-18v-3.78l6.45-6.52c1.91-2 3.16-3.31 3.74-4.07a9.09 9.09 0 0 0 1.27-2.1 5.51 5.51 0 0 0 .38-2 2.93 2.93 0 0 0 -.85-2.31 3.33 3.33 0 0 0 -2.28-.75 6.66 6.66 0 0 0 -2.9.68 15.49 15.49 0 0 0 -2.93 1.95l-2.95-3.49a19.37 19.37 0 0 1 3.14-2.29 11.69 11.69 0 0 1 2.73-1 13.9 13.9 0 0 1 3.3-.36 9.74 9.74 0 0 1 4.26.88 6.84 6.84 0 0 1 2.86 2.46 6.54 6.54 0 0 1 1 3.62 8.92 8.92 0 0 1 -.62 3.33 12.69 12.69 0 0 1 -1.94 3.19 46.46 46.46 0 0 1 -4.61 4.66l-3.31 3.11v.25h11.2z" fill="#fff"/><path d="m309.37 84.15q0 6.73-2.21 10t-6.79 3.23a7.57 7.57 0 0 1 -6.71-3.38q-2.25-3.33-2.26-9.86 0-6.8 2.2-10c1.47-2.15 3.72-3.22 6.77-3.22a7.58 7.58 0 0 1 6.72 3.37q2.28 3.36 2.28 9.86zm-12.57 0a19.9 19.9 0 0 0 .82 6.78 2.82 2.82 0 0 0 2.75 2 2.86 2.86 0 0 0 2.74-2.07 19.5 19.5 0 0 0 .84-6.75 19.31 19.31 0 0 0 -.85-6.79 2.87 2.87 0 0 0 -2.73-2.07 2.83 2.83 0 0 0 -2.74 2.07 19.91 19.91 0 0 0 -.83 6.83z" fill="#fff"/><path d="m329.41 97h-18v-3.78l6.45-6.52c1.91-2 3.16-3.31 3.75-4.07a9.38 9.38 0 0 0 1.26-2.1 5.31 5.31 0 0 0 .39-2 3 3 0 0 0 -.85-2.31 3.33 3.33 0 0 0 -2.28-.75 6.63 6.63 0 0 0 -2.9.68 15.23 15.23 0 0 0 -2.94 1.95l-2.95-3.49a19.81 19.81 0 0 1 3.15-2.29 11.78 11.78 0 0 1 2.72-1 14 14 0 0 1 3.31-.36 9.72 9.72 0 0 1 4.25.88 6.86 6.86 0 0 1 2.87 2.46 6.54 6.54 0 0 1 1 3.62 8.73 8.73 0 0 1 -.63 3.33 12.63 12.63 0 0 1 -1.93 3.19 46.83 46.83 0 0 1 -4.62 4.66l-3.3 3.11v.25h11.2z" fill="#fff"/><path d="m349.3 97h-18v-3.78l6.45-6.52c1.91-2 3.16-3.31 3.74-4.07a9.09 9.09 0 0 0 1.27-2.1 5.31 5.31 0 0 0 .39-2 2.93 2.93 0 0 0 -.86-2.31 3.29 3.29 0 0 0 -2.27-.75 6.6 6.6 0 0 0 -2.9.68 15.23 15.23 0 0 0 -2.94 1.95l-3-3.49a18.94 18.94 0 0 1 3.15-2.29 11.78 11.78 0 0 1 2.72-1 14 14 0 0 1 3.3-.36 9.74 9.74 0 0 1 4.26.88 6.84 6.84 0 0 1 2.86 2.46 6.54 6.54 0 0 1 1 3.62 8.73 8.73 0 0 1 -.62 3.33 12.93 12.93 0 0 1 -1.85 3.16 48 48 0 0 1 -4.62 4.66l-3.3 3.11v.25h11.22z" fill="#fff"/></svg>