<svg fill="none" height="321" viewBox="0 0 491 321" width="491" xmlns="http://www.w3.org/2000/svg" xmlns:xlink="http://www.w3.org/1999/xlink"><filter id="a" color-interpolation-filters="sRGB" filterUnits="userSpaceOnUse" height="38" width="71" x="404" y="119"><feFlood flood-opacity="0" result="BackgroundImageFix"/><feBlend in="SourceGraphic" in2="BackgroundImageFix" mode="normal" result="shape"/><feColorMatrix in="SourceAlpha" result="hardAlpha" type="matrix" values="0 0 0 0 0 0 0 0 0 0 0 0 0 0 0 0 0 0 127 0"/><feOffset dy="2"/><feComposite in2="hardAlpha" k2="-1" k3="1" operator="arithmetic"/><feColorMatrix type="matrix" values="0 0 0 0 1 0 0 0 0 1 0 0 0 0 1 0 0 0 1 0"/><feBlend in2="shape" mode="normal" result="effect1_innerShadow"/></filter><filter id="b" color-interpolation-filters="sRGB" filterUnits="userSpaceOnUse" height="38" width="71" x="404" y="56"><feFlood flood-opacity="0" result="BackgroundImageFix"/><feBlend in="SourceGraphic" in2="BackgroundImageFix" mode="normal" result="shape"/><feColorMatrix in="SourceAlpha" result="hardAlpha" type="matrix" values="0 0 0 0 0 0 0 0 0 0 0 0 0 0 0 0 0 0 127 0"/><feOffset dy="2"/><feComposite in2="hardAlpha" k2="-1" k3="1" operator="arithmetic"/><feColorMatrix type="matrix" values="0 0 0 0 1 0 0 0 0 1 0 0 0 0 1 0 0 0 1 0"/><feBlend in2="shape" mode="normal" result="effect1_innerShadow"/></filter><path d="m0 0h491v321h-491z" fill="#fff"/><path d="m0 0h491v43h-491z" fill="#fafafb"/><path d="m0 170h491v90h-491z" fill="#fafafb"/><path d="m0 43.5h491" stroke="#e4e6e8"/><path d="m0 169.5h491" stroke="#e4e6e8"/><path d="m0 259.5h491" stroke="#e4e6e8"/><path d="m0 106.5h491" stroke="#eff0f1"/><g font-family="Arial" letter-spacing="0em"><text fill="#3c4146" font-size="15" font-weight="bold"><tspan x="14" y="26.7002">Select your Team</tspan></text><text fill="#3c4146" font-size="15" font-weight="bold"><tspan x="14" y="196.7">Other Teams</tspan></text><text fill="#6a737c" font-size="15" font-weight="bold"><tspan x="131.173" y="223.7">Stack Overflow Team admin</tspan></text><text fill="#6a737c" font-size="15" xml:space="preserve"><tspan x="14" y="223.7">You need to be a </tspan><tspan x="330.289" y="223.7"> to install the Jira </tspan><tspan x="14" y="242.7">integration.</tspan></text><text fill="#242729" font-size="13"><tspan x="53" y="79.0068">My Team</tspan></text><text fill="#242729" font-size="13"><tspan x="53" y="142.007">Pickles Dev Team</tspan></text><text fill="#242729" font-size="13"><tspan x="53" y="295.007">Pickles</tspan></text><text fill="#07c" font-size="13"><tspan x="349.704" y="295.007">Request Installation</tspan></text></g><g filter="url(#a)"><rect fill="#e1ecf4" height="38" rx="3" width="71" x="404" y="119"/></g><rect height="37" rx="2.5" stroke="#71a5cb" width="70" x="404.5" y="119.5"/><text fill="#39739d" font-family="Arial" font-size="13" letter-spacing="0em"><tspan x="415.271" y="142.507">Connect</tspan></text><g filter="url(#b)"><rect fill="#e1ecf4" height="38" rx="3" width="71" x="404" y="56"/></g><rect height="37" rx="2.5" stroke="#71a5cb" width="70" x="404.5" y="56.5"/><text fill="#39739d" font-family="Arial" font-size="13" letter-spacing="0em"><tspan x="415.271" y="79.5068">Connect</tspan></text><rect fill="#666" height="32" rx="3" width="32" x="15" y="59"/><rect fill="#10c2a4" height="32" rx="3" width="32" x="15" y="122"/><rect fill="#666" height="32" rx="3" width="32" x="15" y="274"/><path d="m42 86.8406 4.5-1.8406 4.5 1.8406v3.1694c0 2.5175-2.6959 4.99-4.5 4.99s-4.5-2.4725-4.5-4.99z" fill="#fff"/><path clip-rule="evenodd" d="m43 87.5 3.5-1.5 3.5 1.5v2.51c0 2.335-2.655 3.99-3.5 3.99s-3.5-1.655-3.5-3.99zm2.9818 3.0247-.7818 1.4753 2.6-.0038-.7818-1.4715c-.0301-.1508.0362-.3017.1507-.387.3375-.2361.7295-.7017.7295-1.1346 0-.7149-.4948-1.2332-1.4105-1.2332-.9156 0-1.3835.5183-1.3835 1.2332 0 .4329.3892.8985.7267 1.1346.1187.0829.1785.2366.1507.387z" fill="#6a7e7c" fill-rule="evenodd"/><path d="m42 149.841 4.5-1.841 4.5 1.841v3.169c0 2.518-2.6959 4.99-4.5 4.99s-4.5-2.472-4.5-4.99z" fill="#fff"/><path clip-rule="evenodd" d="m43 150.5 3.5-1.5 3.5 1.5v2.51c0 2.335-2.655 3.99-3.5 3.99s-3.5-1.655-3.5-3.99zm2.9818 3.025-.7818 1.475 2.6-.004-.7818-1.471c-.0301-.151.0362-.302.1507-.387.3375-.236.7295-.702.7295-1.135 0-.715-.4948-1.233-1.4105-1.233-.9156 0-1.3835.518-1.3835 1.233 0 .433.3892.899.7267 1.135.1187.083.1785.236.1507.387z" fill="#6a7e7c" fill-rule="evenodd"/><path d="m42 301.841 4.5-1.841 4.5 1.841v3.169c0 2.518-2.6959 4.99-4.5 4.99s-4.5-2.472-4.5-4.99z" fill="#fff"/><path clip-rule="evenodd" d="m43 302.5 3.5-1.5 3.5 1.5v2.51c0 2.335-2.655 3.99-3.5 3.99s-3.5-1.655-3.5-3.99zm2.9818 3.025-.7818 1.475 2.6-.004-.7818-1.471c-.0301-.151.0362-.302.1507-.387.3375-.236.7295-.702.7295-1.135 0-.715-.4948-1.233-1.4105-1.233-.9156 0-1.3835.518-1.3835 1.233 0 .433.3892.899.7267 1.135.1187.083.1785.236.1507.387z" fill="#6a7e7c" fill-rule="evenodd"/><text fill="#fff" font-family="Arial" font-size="22" font-weight="bold" letter-spacing="0em"><tspan x="22" y="81.627">M</tspan></text><text fill="#fff" font-family="Arial" font-size="22" font-weight="bold" letter-spacing="0em"><tspan x="22" y="81.627">M</tspan></text><text fill="#fff" font-family="Arial" font-size="22" font-weight="bold" letter-spacing="0em"><tspan x="24" y="296.627">P</tspan></text><text fill="#fff" font-family="Arial" font-size="22" font-weight="bold" letter-spacing="0em"><tspan x="24" y="296.627">P</tspan></text><text fill="#fff" font-family="Arial" font-size="22" font-weight="bold" letter-spacing="0em"><tspan x="24" y="144.627">P</tspan></text><text fill="#fff" font-family="Arial" font-size="22" font-weight="bold" letter-spacing="0em"><tspan x="24" y="144.627">P</tspan></text></svg>