<svg width="571" height="60" fill="none" xmlns="http://www.w3.org/2000/svg"><g clip-path="url(#clip0)"><path fill="#F5F5F5" d="M0 0H571V60H0z"/><path d="M58.65 31.808l2.532-.247c.152.85.46 1.474.922 1.873.47.398 1.1.597 1.89.597.838 0 1.468-.175 1.89-.527.427-.357.641-.773.641-1.248 0-.305-.09-.563-.272-.774-.176-.216-.486-.404-.932-.562-.304-.106-.999-.293-2.083-.563-1.394-.345-2.373-.77-2.935-1.274-.791-.709-1.187-1.573-1.187-2.593 0-.656.185-1.268.554-1.837.375-.574.911-1.01 1.608-1.31.703-.298 1.55-.448 2.54-.448 1.618 0 2.833.355 3.648 1.064.82.709 1.25 1.655 1.292 2.839l-2.602.114c-.111-.662-.351-1.137-.72-1.424-.364-.293-.912-.44-1.644-.44-.756 0-1.348.156-1.775.467a.939.939 0 0 0-.414.8c0 .304.13.565.387.782.328.275 1.125.562 2.39.861 1.267.299 2.201.61 2.805.932a3.54 3.54 0 0 1 1.423 1.31c.346.55.519 1.233.519 2.047 0 .738-.205 1.43-.615 2.074-.41.645-.99 1.125-1.74 1.442-.75.31-1.685.465-2.804.465-1.63 0-2.88-.375-3.753-1.125-.873-.755-1.395-1.854-1.565-3.295zm16.928-5.142v1.969h-1.687v3.762c0 .761.014 1.206.044 1.335a.57.57 0 0 0 .22.308.717.717 0 0 0 .421.123c.229 0 .56-.079.993-.237l.211 1.916c-.574.246-1.224.369-1.95.369-.446 0-.848-.073-1.205-.22-.357-.152-.621-.346-.791-.58-.164-.24-.278-.562-.343-.967-.052-.287-.079-.867-.079-1.74v-4.07h-1.134v-1.968h1.134v-1.855l2.479-1.44v3.295h1.687zm3.56 2.848l-2.242-.405c.252-.902.686-1.57 1.301-2.004.615-.433 1.53-.65 2.742-.65 1.102 0 1.922.132 2.461.396.54.257.917.588 1.134.993.223.398.334 1.133.334 2.206l-.026 2.883c0 .82.038 1.426.114 1.819.082.387.231.803.448 1.248h-2.443a9.127 9.127 0 0 1-.237-.73 4.391 4.391 0 0 0-.088-.29c-.422.41-.873.718-1.354.923-.48.205-.993.308-1.538.308-.96 0-1.72-.26-2.276-.782-.551-.522-.826-1.181-.826-1.978 0-.527.126-.996.377-1.406a2.438 2.438 0 0 1 1.055-.95c.457-.222 1.114-.415 1.969-.58 1.154-.216 1.954-.418 2.4-.606v-.246c0-.474-.118-.811-.352-1.01-.235-.206-.677-.308-1.327-.308-.44 0-.783.088-1.029.263-.246.17-.445.472-.597.906zm3.304 2.004c-.316.105-.817.231-1.502.377-.686.147-1.134.29-1.345.431-.323.229-.484.519-.484.87 0 .346.13.645.387.897.258.252.586.378.984.378.446 0 .87-.147 1.275-.44.299-.222.495-.495.589-.817.064-.211.096-.612.096-1.204v-.492zm13.008-2.092l-2.434.44c-.082-.487-.27-.853-.563-1.1-.287-.245-.662-.368-1.125-.368-.615 0-1.107.213-1.476.641-.364.422-.545 1.13-.545 2.127 0 1.107.184 1.89.553 2.347.375.457.876.685 1.503.685.469 0 .853-.132 1.152-.395.299-.27.51-.73.632-1.38l2.426.413c-.252 1.113-.735 1.954-1.45 2.522-.715.569-1.673.853-2.874.853-1.365 0-2.455-.43-3.27-1.292-.808-.861-1.212-2.054-1.212-3.577 0-1.541.407-2.74 1.221-3.595.815-.861 1.916-1.292 3.305-1.292 1.137 0 2.039.246 2.707.738.674.487 1.157 1.23 1.45 2.233zM97.243 36V23.115h2.47v6.838l2.891-3.287h3.042l-3.191 3.41L105.874 36h-2.663l-2.347-4.192-1.151 1.204V36h-2.47zm14.608-6.363c0-1.313.196-2.414.588-3.305a6.11 6.11 0 0 1 1.196-1.767 5.059 5.059 0 0 1 1.67-1.16c.802-.34 1.728-.51 2.777-.51 1.898 0 3.416.59 4.553 1.767 1.142 1.178 1.714 2.816 1.714 4.913 0 2.08-.566 3.71-1.697 4.887-1.131 1.172-2.642 1.758-4.535 1.758-1.916 0-3.439-.583-4.57-1.75-1.131-1.171-1.696-2.782-1.696-4.833zm2.68-.088c0 1.459.337 2.566 1.011 3.322.674.75 1.529 1.125 2.566 1.125 1.038 0 1.887-.372 2.549-1.116.668-.75 1.002-1.872 1.002-3.366 0-1.477-.325-2.578-.975-3.305-.645-.727-1.503-1.09-2.576-1.09-1.072 0-1.936.37-2.592 1.108-.657.732-.985 1.84-.985 3.322zM128.937 36l-3.762-9.334h2.593l1.757 4.764.51 1.59c.135-.404.22-.67.255-.8.082-.263.17-.527.264-.79l1.775-4.764h2.54L131.16 36h-2.223zm12.858-2.97l2.461.412c-.317.903-.818 1.591-1.503 2.066-.68.469-1.532.703-2.558.703-1.623 0-2.824-.53-3.603-1.59-.615-.85-.923-1.923-.923-3.218 0-1.547.404-2.756 1.213-3.63.808-.878 1.831-1.318 3.067-1.318 1.389 0 2.485.46 3.287 1.38.803.914 1.187 2.317 1.152 4.21H138.2c.018.732.217 1.304.598 1.714.381.404.855.606 1.424.606.386 0 .712-.105.975-.316.264-.211.463-.551.598-1.02zm.141-2.497c-.018-.715-.203-1.257-.554-1.626a1.693 1.693 0 0 0-1.283-.562c-.539 0-.985.196-1.336.589-.352.392-.525.925-.519 1.6h3.692zM148.773 36h-2.469v-9.334h2.294v1.327c.392-.627.744-1.04 1.054-1.24.317-.198.674-.298 1.073-.298.562 0 1.104.155 1.626.466l-.765 2.153c-.416-.27-.803-.404-1.16-.404-.346 0-.639.097-.879.29-.24.188-.431.53-.571 1.028-.135.498-.203 1.541-.203 3.13V36zm3.569-9.334h1.371v-.703c0-.785.082-1.371.246-1.758.17-.387.478-.7.923-.94.451-.246 1.019-.37 1.705-.37a6.87 6.87 0 0 1 2.065.317l-.334 1.723a4.867 4.867 0 0 0-1.133-.141c-.358 0-.616.085-.774.255-.152.164-.228.483-.228.958v.659h1.845v1.942h-1.845V36h-2.47v-7.392h-1.371v-1.942zM159.417 36V23.115h2.47V36h-2.47zm4.438-4.799c0-.82.203-1.614.607-2.382a4.17 4.17 0 0 1 1.714-1.758c.744-.404 1.573-.606 2.487-.606 1.412 0 2.569.46 3.472 1.38.902.914 1.353 2.071 1.353 3.472 0 1.412-.457 2.584-1.371 3.515-.908.926-2.054 1.389-3.436 1.389a5.444 5.444 0 0 1-2.452-.58 3.987 3.987 0 0 1-1.767-1.696c-.404-.75-.607-1.662-.607-2.734zm2.532.132c0 .926.219 1.635.659 2.127.439.492.981.738 1.626.738.644 0 1.183-.246 1.617-.738.44-.492.659-1.207.659-2.145 0-.914-.219-1.617-.659-2.109-.434-.492-.973-.738-1.617-.738-.645 0-1.187.246-1.626.738-.44.492-.659 1.201-.659 2.127zM177.171 36l-2.953-9.334h2.399l1.749 6.117 1.609-6.117h2.381l1.556 6.117 1.784-6.117h2.435L185.134 36h-2.373l-1.609-6.003L179.57 36h-2.399zm16.198-9.334h1.371v-.703c0-.785.082-1.371.246-1.758.17-.387.478-.7.923-.94.451-.246 1.02-.37 1.705-.37a6.88 6.88 0 0 1 2.066.317l-.334 1.723a4.882 4.882 0 0 0-1.134-.141c-.358 0-.615.085-.774.255-.152.164-.228.483-.228.958v.659h1.846v1.942h-1.846V36h-2.47v-7.392h-1.371v-1.942zm6.504 4.535c0-.82.202-1.614.606-2.382a4.176 4.176 0 0 1 1.714-1.758c.745-.404 1.574-.606 2.488-.606 1.412 0 2.569.46 3.471 1.38.903.914 1.354 2.071 1.354 3.472 0 1.412-.457 2.584-1.371 3.515-.908.926-2.054 1.389-3.437 1.389a5.447 5.447 0 0 1-2.452-.58 3.997 3.997 0 0 1-1.767-1.696c-.404-.75-.606-1.662-.606-2.734zm2.531.132c0 .926.22 1.635.659 2.127.44.492.982.738 1.626.738.645 0 1.184-.246 1.618-.738.439-.492.659-1.207.659-2.145 0-.914-.22-1.617-.659-2.109-.434-.492-.973-.738-1.618-.738-.644 0-1.186.246-1.626.738-.439.492-.659 1.201-.659 2.127zM213.812 36h-2.469v-9.334h2.294v1.327c.392-.627.744-1.04 1.054-1.24.317-.198.674-.298 1.073-.298.562 0 1.104.155 1.626.466l-.765 2.153c-.416-.27-.803-.404-1.16-.404-.346 0-.639.097-.879.29-.24.188-.431.53-.571 1.028-.135.498-.203 1.541-.203 3.13V36zm12.578 0V25.295h-3.824v-2.18h10.24v2.18h-3.815V36h-2.601zm12.155-2.97l2.461.412c-.317.903-.818 1.591-1.503 2.066-.68.469-1.532.703-2.558.703-1.623 0-2.824-.53-3.603-1.59-.615-.85-.923-1.923-.923-3.218 0-1.547.404-2.756 1.213-3.63.808-.878 1.831-1.318 3.067-1.318 1.389 0 2.485.46 3.287 1.38.803.914 1.187 2.317 1.152 4.21h-6.188c.018.732.217 1.304.598 1.714.381.404.855.606 1.424.606.386 0 .712-.105.975-.316.264-.211.463-.551.598-1.02zm.141-2.497c-.018-.715-.203-1.257-.554-1.626a1.693 1.693 0 0 0-1.283-.562c-.539 0-.985.196-1.336.589-.352.392-.525.925-.519 1.6h3.692zm6.319-1.02l-2.241-.404c.252-.902.685-1.57 1.3-2.004.616-.433 1.53-.65 2.743-.65 1.101 0 1.922.132 2.461.396.539.257.917.588 1.133.993.223.398.334 1.133.334 2.206l-.026 2.883c0 .82.038 1.426.114 1.819.082.387.232.803.448 1.248h-2.443a9.406 9.406 0 0 1-.237-.73 4.13 4.13 0 0 0-.088-.29 4.45 4.45 0 0 1-1.354.923c-.48.205-.993.308-1.538.308-.961 0-1.719-.26-2.276-.782-.551-.522-.826-1.181-.826-1.978 0-.527.126-.996.378-1.406a2.438 2.438 0 0 1 1.054-.95c.457-.222 1.114-.415 1.969-.58 1.154-.216 1.954-.418 2.4-.606v-.246c0-.474-.118-.811-.352-1.01-.234-.206-.677-.308-1.327-.308-.44 0-.782.088-1.028.263-.247.17-.446.472-.598.906zm3.305 2.005c-.317.105-.818.231-1.503.377-.686.147-1.134.29-1.345.431-.322.229-.483.519-.483.87 0 .346.128.645.386.897s.586.378.985.378c.445 0 .87-.147 1.274-.44.299-.222.495-.495.589-.817.064-.211.097-.612.097-1.204v-.492zm4.684-4.852h2.277v1.274c.814-.99 1.784-1.485 2.909-1.485.597 0 1.116.123 1.555.37.44.245.8.617 1.081 1.115.411-.498.853-.87 1.328-1.116.474-.246.981-.369 1.52-.369.686 0 1.266.14 1.74.422.475.275.829.683 1.064 1.222.17.398.255 1.043.255 1.933V36h-2.47v-5.335c0-.926-.085-1.523-.255-1.793-.228-.352-.58-.527-1.055-.527-.345 0-.671.105-.975.316-.305.211-.525.522-.659.932-.135.404-.203 1.046-.203 1.925V36h-2.469v-5.115c0-.908-.044-1.494-.132-1.758-.088-.264-.226-.46-.413-.589-.182-.129-.431-.193-.747-.193-.381 0-.724.102-1.029.307a1.714 1.714 0 0 0-.659.888c-.129.387-.193 1.028-.193 1.925V36h-2.47v-9.334zm15.328 6.67l2.479-.377c.105.48.319.847.641 1.099.323.246.774.369 1.354.369.639 0 1.119-.117 1.441-.352a.784.784 0 0 0 .325-.659.649.649 0 0 0-.175-.466c-.123-.117-.399-.225-.826-.325-1.993-.44-3.255-.84-3.789-1.204-.738-.504-1.107-1.204-1.107-2.1 0-.81.319-1.489.958-2.04.639-.55 1.629-.826 2.971-.826 1.277 0 2.226.208 2.847.624.621.416 1.049 1.031 1.284 1.846l-2.329.43a1.437 1.437 0 0 0-.572-.835c-.275-.193-.671-.29-1.186-.29-.651 0-1.117.091-1.398.273-.187.129-.281.296-.281.5 0 .177.082.326.246.45.223.163.99.395 2.303.694 1.318.298 2.238.665 2.76 1.098.515.44.773 1.052.773 1.837 0 .855-.357 1.59-1.072 2.206-.715.615-1.773.923-3.173.923-1.272 0-2.279-.258-3.024-.773a3.572 3.572 0 0 1-1.45-2.101z" fill="#000"/><path d="M295.025 36V25.979h2.024v3.944h3.965v-3.944h2.023V36h-2.023v-4.382h-3.965V36h-2.024zm9.653-3.732c0-.638.157-1.256.471-1.853a3.247 3.247 0 0 1 1.333-1.367 3.987 3.987 0 0 1 1.935-.472c1.098 0 1.998.358 2.7 1.073.702.711 1.053 1.611 1.053 2.7 0 1.099-.356 2.01-1.066 2.735-.707.72-1.598 1.08-2.673 1.08a4.24 4.24 0 0 1-1.908-.451 3.11 3.11 0 0 1-1.374-1.32c-.314-.583-.471-1.291-.471-2.125zm1.968.102c0 .72.171 1.272.513 1.654a1.63 1.63 0 0 0 1.265.575c.501 0 .92-.192 1.258-.575.341-.382.512-.938.512-1.668 0-.71-.171-1.257-.512-1.64a1.61 1.61 0 0 0-1.258-.574 1.63 1.63 0 0 0-1.265.574c-.342.383-.513.934-.513 1.654zm6.891-3.63h1.771v.991c.633-.77 1.387-1.155 2.262-1.155.465 0 .868.096 1.21.287.342.192.622.481.841.868.319-.387.663-.676 1.032-.868a2.534 2.534 0 0 1 1.183-.287c.533 0 .984.11 1.353.328.37.215.645.531.828.95.132.31.198.812.198 1.504V36h-1.921v-4.15c0-.72-.066-1.184-.198-1.394-.178-.273-.451-.41-.821-.41-.268 0-.521.082-.758.246-.237.164-.408.406-.513.725-.105.314-.157.813-.157 1.497V36h-1.921v-3.978c0-.707-.034-1.163-.103-1.368a.861.861 0 0 0-.321-.458c-.141-.1-.335-.15-.581-.15-.296 0-.563.08-.8.24a1.33 1.33 0 0 0-.513.69c-.1.3-.15.8-.15 1.497V36h-1.921v-7.26zm16.803 4.95l1.914.32c-.246.703-.636 1.238-1.169 1.607-.529.365-1.192.547-1.989.547-1.263 0-2.197-.412-2.803-1.237-.479-.661-.718-1.495-.718-2.502 0-1.203.315-2.144.944-2.823.628-.684 1.424-1.026 2.385-1.026 1.08 0 1.933.358 2.557 1.073.624.711.923 1.803.895 3.275h-4.812c.014.57.169 1.014.465 1.333.296.314.665.471 1.107.471.301 0 .554-.081.759-.246.205-.164.36-.428.465-.792zm.109-1.942c-.013-.556-.157-.978-.43-1.265a1.319 1.319 0 0 0-.998-.437c-.42 0-.766.153-1.04.458-.273.305-.407.72-.403 1.244h2.871z" fill="#242424"/><path d="M294 60a2 2 0 0 1 2-2h35a2 2 0 0 1 2 2h-39z" fill="#6264A7"/><path d="M357.23 32.486l1.327.335c-.278 1.09-.78 1.921-1.504 2.495-.72.57-1.602.855-2.646.855-1.08 0-1.959-.219-2.638-.656-.675-.442-1.19-1.08-1.545-1.914a6.854 6.854 0 0 1-.527-2.687c0-1.044.199-1.953.595-2.728.401-.779.968-1.369 1.702-1.77a4.972 4.972 0 0 1 2.434-.608c1.002 0 1.845.255 2.529.765.684.51 1.16 1.228 1.429 2.154l-1.306.307c-.232-.729-.57-1.26-1.012-1.593-.442-.332-.998-.499-1.668-.499-.77 0-1.415.185-1.934.554-.515.37-.877.866-1.087 1.49-.21.62-.315 1.26-.315 1.921 0 .852.124 1.598.37 2.236.25.633.638 1.107 1.162 1.422a3.248 3.248 0 0 0 1.702.471c.743 0 1.372-.214 1.887-.642.515-.429.863-1.065 1.045-1.908zM360.04 36V25.979h1.231v3.595c.574-.665 1.298-.998 2.173-.998.538 0 1.005.107 1.402.322.396.21.679.5.847.875.174.373.26.916.26 1.626V36h-1.23v-4.6c0-.616-.135-1.062-.404-1.34-.264-.283-.64-.424-1.128-.424-.364 0-.708.095-1.032.287a1.584 1.584 0 0 0-.683.766c-.137.323-.205.77-.205 1.34V36h-1.231zm12.53-.895c-.455.387-.895.66-1.319.82-.419.16-.87.24-1.354.24-.797 0-1.41-.195-1.838-.582-.429-.392-.643-.89-.643-1.497 0-.355.08-.68.239-.97.164-.297.376-.534.636-.712.264-.177.561-.312.889-.403a8.788 8.788 0 0 1 1.093-.185c.994-.118 1.725-.26 2.195-.423l.007-.322c0-.501-.117-.854-.349-1.06-.314-.277-.782-.416-1.401-.416-.579 0-1.008.102-1.286.307-.273.2-.476.559-.608 1.074l-1.203-.165c.109-.514.289-.93.54-1.244.251-.319.613-.562 1.087-.731.474-.173 1.023-.26 1.647-.26.62 0 1.124.073 1.511.219.387.146.672.33.855.554.182.218.309.496.382.834.041.21.062.587.062 1.134v1.641c0 1.144.025 1.869.075 2.174.055.3.16.59.315.868h-1.286a2.635 2.635 0 0 1-.246-.895zm-.102-2.749c-.447.183-1.117.338-2.01.465-.506.073-.864.155-1.073.246a1.063 1.063 0 0 0-.656.985c0 .328.123.601.369.82.25.219.615.328 1.093.328a2.56 2.56 0 0 0 1.265-.307c.369-.21.64-.495.814-.855.132-.278.198-.688.198-1.23v-.452zm5.844 2.543l.178 1.087a4.56 4.56 0 0 1-.929.11c-.447 0-.793-.07-1.04-.212a1.188 1.188 0 0 1-.519-.554c-.1-.232-.15-.718-.15-1.456v-4.177h-.903v-.957h.903v-1.798l1.223-.738v2.536h1.237v.957h-1.237v4.245c0 .351.021.577.062.677.045.1.116.18.212.24.1.059.241.088.423.088.137 0 .317-.016.54-.048zM396.066 36V25.979h1.361l5.263 7.868v-7.869h1.272V36h-1.36l-5.264-7.875V36h-1.272zm9.516-3.63c0-1.344.374-2.34 1.121-2.987.624-.538 1.386-.807 2.283-.807.998 0 1.814.328 2.448.985.633.651.95 1.554.95 2.707 0 .934-.141 1.67-.424 2.208a2.954 2.954 0 0 1-1.224 1.244 3.54 3.54 0 0 1-1.75.444c-1.016 0-1.839-.326-2.467-.977-.625-.652-.937-1.591-.937-2.817zm1.265 0c0 .93.202 1.627.608 2.092.406.46.916.69 1.531.69a1.94 1.94 0 0 0 1.525-.697c.405-.465.608-1.173.608-2.126 0-.898-.205-1.577-.615-2.037a1.933 1.933 0 0 0-1.518-.697c-.615 0-1.125.23-1.531.69-.406.46-.608 1.155-.608 2.085zm9.673 2.53l.177 1.086a4.56 4.56 0 0 1-.929.11c-.447 0-.793-.07-1.039-.212a1.186 1.186 0 0 1-.52-.554c-.1-.232-.15-.718-.15-1.456v-4.177h-.903v-.957h.903v-1.798l1.223-.738v2.536h1.238v.957h-1.238v4.245c0 .351.021.577.062.677.045.1.116.18.212.24.1.059.241.088.423.088.137 0 .317-.016.541-.048zm1.216-7.506v-1.415h1.231v1.415h-1.231zm0 8.606v-7.26h1.231V36h-1.231zm3.405 0v-6.303h-1.087v-.957h1.087v-.772c0-.488.043-.85.13-1.087.118-.32.325-.577.622-.773.3-.2.72-.3 1.257-.3.347 0 .73.04 1.149.123l-.185 1.073a4.117 4.117 0 0 0-.724-.069c-.374 0-.638.08-.793.24-.155.16-.233.458-.233.895v.67h1.415v.957h-1.415V36h-1.223zm3.609-8.606v-1.415h1.23v1.415h-1.23zm0 8.606v-7.26h1.23V36h-1.23zm7.848-2.66l1.21.158c-.133.834-.472 1.488-1.019 1.962-.542.47-1.21.704-2.003.704-.993 0-1.793-.324-2.399-.97-.602-.652-.903-1.584-.903-2.797 0-.783.13-1.47.39-2.057.26-.588.654-1.028 1.183-1.32a3.516 3.516 0 0 1 1.736-.444c.788 0 1.433.2 1.935.602.501.396.822.961.963 1.695l-1.196.185c-.114-.488-.317-.855-.608-1.101a1.553 1.553 0 0 0-1.046-.37c-.62 0-1.124.224-1.511.67-.387.443-.581 1.145-.581 2.106 0 .976.187 1.684.561 2.126.373.442.861.663 1.462.663.484 0 .887-.148 1.21-.444.324-.296.529-.752.616-1.367zm7 1.764c-.456.388-.896.661-1.32.82-.419.16-.87.24-1.353.24-.798 0-1.411-.194-1.839-.581-.428-.392-.643-.89-.643-1.497 0-.355.08-.68.24-.97a2.05 2.05 0 0 1 .635-.712c.265-.177.561-.312.889-.403a8.811 8.811 0 0 1 1.094-.185c.993-.118 1.725-.26 2.194-.423.005-.169.007-.276.007-.322 0-.501-.116-.854-.349-1.06-.314-.277-.781-.416-1.401-.416-.579 0-1.007.102-1.285.307-.274.2-.476.559-.609 1.074l-1.203-.165c.11-.514.29-.93.54-1.244.251-.319.613-.562 1.087-.731.474-.173 1.023-.26 1.648-.26.619 0 1.123.073 1.51.219.388.146.673.33.855.554.182.218.31.496.383.834.041.21.061.587.061 1.134v1.641c0 1.144.025 1.869.075 2.174.055.3.16.59.315.868h-1.285a2.59 2.59 0 0 1-.246-.895zm-.103-2.748c-.446.183-1.116.338-2.01.465-.506.073-.863.155-1.073.246a1.06 1.06 0 0 0-.656.985c0 .328.123.601.369.82.251.219.615.328 1.094.328.474 0 .895-.102 1.264-.307.37-.21.641-.495.814-.855.132-.278.198-.688.198-1.23v-.452zm5.845 2.543l.178 1.087c-.347.073-.657.11-.93.11-.447 0-.793-.07-1.039-.212a1.196 1.196 0 0 1-.52-.554c-.1-.232-.15-.718-.15-1.456v-4.177h-.902v-.957h.902v-1.798l1.224-.738v2.536h1.237v.957h-1.237v4.245c0 .351.02.577.061.677.046.1.116.18.212.24.1.059.242.088.424.088.137 0 .317-.016.54-.048zm1.217-7.505v-1.415h1.23v1.415h-1.23zm0 8.606v-7.26h1.23V36h-1.23zm2.652-3.63c0-1.344.374-2.34 1.121-2.987.624-.538 1.385-.807 2.283-.807.998 0 1.814.328 2.448.985.633.651.95 1.554.95 2.707 0 .934-.142 1.67-.424 2.208a2.954 2.954 0 0 1-1.224 1.244 3.54 3.54 0 0 1-1.75.444c-1.016 0-1.839-.326-2.467-.977-.625-.652-.937-1.591-.937-2.817zm1.265 0c0 .93.202 1.627.608 2.092.406.46.916.69 1.531.69a1.94 1.94 0 0 0 1.525-.697c.405-.465.608-1.173.608-2.126 0-.898-.205-1.577-.615-2.037a1.933 1.933 0 0 0-1.518-.697c-.615 0-1.125.23-1.531.69-.406.46-.608 1.155-.608 2.085zM457.46 36v-7.26h1.107v1.033c.534-.798 1.304-1.197 2.311-1.197.437 0 .838.08 1.203.24.369.154.645.36.827.615.182.255.31.558.383.909.046.228.068.627.068 1.196V36h-1.23v-4.416c0-.501-.048-.875-.144-1.121a1.156 1.156 0 0 0-.512-.595 1.587 1.587 0 0 0-.855-.225c-.524 0-.977.166-1.36.499-.378.332-.568.963-.568 1.893V36h-1.23zm7.301-2.167l1.217-.191c.068.487.257.86.567 1.12.314.26.752.39 1.312.39.566 0 .985-.114 1.258-.342.274-.232.41-.503.41-.813a.746.746 0 0 0-.362-.656c-.169-.11-.588-.249-1.258-.417-.902-.228-1.529-.424-1.88-.588a1.88 1.88 0 0 1-.793-.69 1.87 1.87 0 0 1-.266-.978c0-.324.073-.622.219-.895.15-.279.353-.509.608-.691.191-.141.451-.26.779-.355.333-.1.688-.15 1.067-.15.569 0 1.068.081 1.497.245.433.164.752.388.957.67.205.278.346.652.424 1.121l-1.204.164c-.054-.373-.214-.665-.478-.875-.26-.21-.629-.314-1.107-.314-.566 0-.969.093-1.21.28-.242.187-.363.406-.363.656 0 .16.05.303.151.431.1.132.257.242.471.328.123.046.486.15 1.087.315.871.232 1.477.424 1.819.574.346.146.617.36.813.643.196.282.294.633.294 1.052 0 .41-.121.798-.362 1.162-.237.36-.581.64-1.032.841a3.813 3.813 0 0 1-1.532.294c-.943 0-1.663-.196-2.16-.588-.492-.392-.807-.973-.943-1.743zM487.979 36l3.849-10.021h1.429L497.358 36h-1.51l-1.169-3.035h-4.191l-1.1 3.035h-1.409zm2.892-4.115h3.398l-1.046-2.776a27.449 27.449 0 0 1-.711-2.078c-.128.643-.308 1.28-.54 1.914l-1.101 2.94zM499.396 36h-1.142V25.979h1.23v3.575c.52-.652 1.183-.978 1.99-.978.446 0 .868.091 1.264.274.401.177.729.43.985.758.259.324.462.716.608 1.176.146.46.219.953.219 1.477 0 1.244-.308 2.206-.923 2.884-.615.68-1.354 1.02-2.215 1.02-.857 0-1.529-.359-2.016-1.074V36zm-.014-3.685c0 .87.118 1.5.355 1.887.388.634.912.95 1.573.95.537 0 1.002-.232 1.394-.697.392-.47.588-1.167.588-2.092 0-.948-.189-1.647-.567-2.098-.374-.451-.828-.677-1.361-.677-.538 0-1.002.235-1.394.704-.392.465-.588 1.14-.588 2.023zm6.214.055c0-1.344.373-2.34 1.121-2.987.624-.538 1.385-.807 2.283-.807.998 0 1.814.328 2.447.985.634.651.95 1.554.95 2.707 0 .934-.141 1.67-.423 2.208a2.954 2.954 0 0 1-1.224 1.244 3.543 3.543 0 0 1-1.75.444c-1.016 0-1.839-.326-2.468-.977-.624-.652-.936-1.591-.936-2.817zm1.264 0c0 .93.203 1.627.609 2.092.405.46.916.69 1.531.69.611 0 1.119-.232 1.524-.697.406-.465.609-1.173.609-2.126 0-.898-.205-1.577-.615-2.037a1.933 1.933 0 0 0-1.518-.697c-.615 0-1.126.23-1.531.69-.406.46-.609 1.155-.609 2.085zM518.604 36v-1.066c-.565.82-1.333 1.23-2.303 1.23-.429 0-.83-.082-1.203-.246-.369-.164-.645-.37-.827-.615a2.362 2.362 0 0 1-.376-.916c-.051-.242-.076-.625-.076-1.149V28.74h1.231v4.027c0 .642.025 1.075.075 1.298a1.3 1.3 0 0 0 .492.766c.251.182.561.273.93.273s.715-.093 1.039-.28c.324-.191.551-.449.684-.772.136-.328.205-.802.205-1.422v-3.89h1.23V36h-1.101zm5.722-1.1l.178 1.086c-.346.073-.656.11-.93.11-.446 0-.793-.07-1.039-.212a1.188 1.188 0 0 1-.519-.554c-.101-.232-.151-.718-.151-1.456v-4.177h-.902v-.957h.902v-1.798l1.224-.738v2.536h1.237v.957h-1.237v4.245c0 .351.02.577.061.677.046.1.117.18.212.24.101.059.242.088.424.088.137 0 .317-.016.54-.048z" fill="#616161"/><rect x="15" y="13" width="32" height="32" rx="3" fill="#F48024"/><path d="M38 38.6v-6.4h2.4V41H21.2v-8.8h2.4v6.4H38z" fill="#fff"/><path fill-rule="evenodd" clip-rule="evenodd" d="M34.88 17.16l-1.68 1.28 6.32 8.48 1.68-1.28-6.32-8.48zm2.96 11.76l-8.16-6.8 1.36-1.6 8.16 6.8-1.36 1.6zm-10.88-2.08l9.6 4.48.88-1.92-9.6-4.48-.88 1.92zm-1.438 5.44L36.37 33.85l.13-1.905-10.604-2.037-.375 2.374zM36.4 37H25.2v-2.4h11.2V37z" fill="#fff"/></g><defs><clipPath id="clip0"><path fill="#fff" d="M0 0H571V60H0z"/></clipPath></defs></svg>