<svg fill="none" height="731" width="1073" xmlns="http://www.w3.org/2000/svg"><filter id="a" color-interpolation-filters="sRGB" filterUnits="userSpaceOnUse" height="697" width="626" x="224" y="21"><feFlood flood-opacity="0" result="BackgroundImageFix"/><feColorMatrix in="SourceAlpha" result="hardAlpha" values="0 0 0 0 0 0 0 0 0 0 0 0 0 0 0 0 0 0 127 0"/><feOffset dy="4"/><feGaussianBlur stdDeviation="6.5"/><feColorMatrix values="0 0 0 0 0 0 0 0 0 0 0 0 0 0 0 0 0 0 0.13 0"/><feBlend in2="BackgroundImageFix" result="effect1_dropShadow"/><feColorMatrix in="SourceAlpha" result="hardAlpha" values="0 0 0 0 0 0 0 0 0 0 0 0 0 0 0 0 0 0 127 0"/><feOffset dy="3"/><feGaussianBlur stdDeviation="4"/><feColorMatrix values="0 0 0 0 0 0 0 0 0 0 0 0 0 0 0 0 0 0 0.09 0"/><feBlend in2="effect1_dropShadow" result="effect2_dropShadow"/><feColorMatrix in="SourceAlpha" result="hardAlpha" values="0 0 0 0 0 0 0 0 0 0 0 0 0 0 0 0 0 0 127 0"/><feOffset dy="1"/><feGaussianBlur stdDeviation="2"/><feColorMatrix values="0 0 0 0 0 0 0 0 0 0 0 0 0 0 0 0 0 0 0.09 0"/><feBlend in2="effect2_dropShadow" result="effect3_dropShadow"/><feBlend in="SourceGraphic" in2="effect3_dropShadow" result="shape"/></filter><path d="M0 0h1073v731H0z" fill="#8c8c8c"/><rect fill="#fff" filter="url(#a)" height="671" rx="4" width="600" x="237" y="30"/><rect fill="#f0f0f0" height="32" rx="3" width="532" x="268" y="197"/><rect fill="#f0f0f0" height="32" rx="3" width="532" x="268" y="528"/><rect fill="#f0f0f0" height="32" rx="3" width="532" x="268" y="594"/><rect fill="#f0f0f0" height="236" rx="3" width="532" x="268" y="250"/><path d="M282.83 218l-2.659-10.021h1.36l1.525 6.569c.164.688.305 1.372.423 2.051.256-1.071.406-1.689.452-1.853l1.907-6.767h1.6l1.435 5.072c.36 1.258.62 2.44.779 3.548.128-.634.294-1.361.499-2.181l1.573-6.439h1.333L290.309 218h-1.279l-2.112-7.636a29.431 29.431 0 0 1-.314-1.176c-.105.461-.203.853-.294 1.176L284.184 218zm11.314 0v-10.021h1.23v3.595c.574-.665 1.299-.998 2.174-.998.538 0 1.005.107 1.401.321.397.21.679.502.848.875.173.374.26.916.26 1.627V218h-1.231v-4.601c0-.615-.134-1.061-.403-1.339-.264-.283-.64-.424-1.128-.424-.365 0-.709.095-1.032.287a1.593 1.593 0 0 0-.684.765c-.137.324-.205.771-.205 1.34V218zm12.53-.896c-.456.388-.896.661-1.32.821-.419.159-.87.239-1.353.239-.798 0-1.411-.194-1.839-.581-.428-.392-.642-.891-.642-1.497 0-.356.079-.679.239-.971.164-.296.376-.533.636-.711.264-.177.56-.312.888-.403a8.892 8.892 0 0 1 1.094-.185c.993-.118 1.725-.259 2.194-.423.005-.169.007-.276.007-.322 0-.501-.116-.854-.349-1.059-.314-.278-.781-.417-1.401-.417-.579 0-1.007.102-1.285.307-.273.201-.476.559-.608 1.074l-1.204-.164c.11-.515.29-.93.54-1.245.251-.319.613-.562 1.087-.731.474-.173 1.024-.26 1.648-.26.62 0 1.123.073 1.511.219.387.146.672.33.854.554.182.218.31.496.383.834.041.209.061.588.061 1.134v1.641c0 1.144.025 1.868.076 2.174.054.301.159.59.314.868h-1.285a2.59 2.59 0 0 1-.246-.896zm-.103-2.748c-.446.183-1.116.338-2.009.465-.506.073-.864.155-1.074.246a1.07 1.07 0 0 0-.656.985c0 .328.123.601.369.82.251.219.615.328 1.094.328.474 0 .895-.102 1.265-.307.369-.21.64-.495.813-.855.132-.278.198-.688.198-1.23zm5.845 2.543l.178 1.087c-.347.073-.656.11-.93.11-.447 0-.793-.071-1.039-.212a1.194 1.194 0 0 1-.52-.554c-.1-.232-.15-.718-.15-1.456v-4.177h-.902v-.957h.902v-1.798l1.224-.738v2.536h1.237v.957h-1.237v4.245c0 .351.02.577.061.677.046.1.116.18.212.239.1.06.242.089.424.089.137 0 .317-.016.54-.048zm1.135-7.594v-1.429h1.319v1.128c0 .611-.071 1.05-.212 1.319a1.866 1.866 0 0 1-.916.834l-.301-.485c.247-.1.429-.258.547-.472.123-.219.192-.517.205-.895zm2.44 6.528l1.217-.191c.068.487.257.861.567 1.121.315.259.752.389 1.313.389.565 0 .984-.114 1.258-.341.273-.233.41-.504.41-.814a.747.747 0 0 0-.362-.656c-.169-.11-.588-.249-1.258-.417-.903-.228-1.529-.424-1.88-.588a1.88 1.88 0 0 1-.793-.69 1.867 1.867 0 0 1-.267-.978c0-.324.073-.622.219-.896.15-.278.353-.508.608-.69.192-.141.452-.26.78-.355a3.648 3.648 0 0 1 1.066-.151c.57 0 1.069.082 1.497.246.433.164.752.388.957.67.205.278.347.652.424 1.121l-1.203.164c-.055-.373-.214-.665-.479-.875-.259-.209-.628-.314-1.107-.314-.565 0-.968.093-1.21.28-.241.187-.362.406-.362.656 0 .16.05.303.15.431.1.132.258.242.472.328.123.046.485.151 1.087.315.87.232 1.476.423 1.818.574.346.146.618.36.814.642.196.283.294.634.294 1.053 0 .41-.121.798-.363 1.162-.237.36-.581.641-1.032.841a3.808 3.808 0 0 1-1.531.294c-.944 0-1.664-.196-2.16-.588-.493-.392-.807-.973-.944-1.743zm11.334 4.963l-.137-1.155c.269.073.504.109.705.109.273 0 .492-.046.656-.137a1.11 1.11 0 0 0 .403-.383c.078-.123.203-.428.376-.916.023-.068.059-.168.11-.3l-2.755-7.274h1.326l1.511 4.204c.195.534.371 1.094.526 1.682.141-.565.31-1.117.506-1.654l1.552-4.232h1.23l-2.762 7.383c-.296.798-.526 1.347-.69 1.648-.219.405-.47.701-.752.888-.283.192-.62.287-1.012.287-.237 0-.501-.05-.793-.15zm6.597-6.426c0-1.344.374-2.34 1.121-2.987.624-.538 1.385-.807 2.283-.807.998 0 1.814.328 2.447.985.634.651.951 1.554.951 2.707 0 .934-.142 1.67-.424 2.208a2.954 2.954 0 0 1-1.224 1.244 3.543 3.543 0 0 1-1.75.444c-1.016 0-1.839-.326-2.468-.977-.624-.652-.936-1.591-.936-2.817zm1.265 0c0 .93.202 1.627.608 2.092.406.46.916.69 1.531.69a1.94 1.94 0 0 0 1.525-.697c.405-.465.608-1.173.608-2.126 0-.898-.205-1.577-.615-2.037a1.933 1.933 0 0 0-1.518-.697c-.615 0-1.125.23-1.531.69s-.608 1.155-.608 2.085zm11.744 3.63v-1.066c-.565.82-1.333 1.23-2.304 1.23-.428 0-.829-.082-1.203-.246-.369-.164-.645-.369-.827-.615a2.38 2.38 0 0 1-.376-.916c-.05-.242-.075-.625-.075-1.149v-4.498h1.23v4.027c0 .642.025 1.075.075 1.298.078.324.242.579.492.766.251.182.561.273.93.273a2.04 2.04 0 0 0 1.039-.28c.324-.191.552-.449.684-.772.136-.328.205-.802.205-1.422v-3.89h1.23V218zm3.021 0v-7.26h1.108v1.101c.282-.515.542-.855.779-1.019.241-.164.506-.246.793-.246.415 0 .836.132 1.264.397l-.423 1.141a1.769 1.769 0 0 0-.903-.266c-.269 0-.51.082-.724.246a1.295 1.295 0 0 0-.458.67 4.78 4.78 0 0 0-.205 1.435V218zm8.114-3.63c0-1.344.374-2.34 1.122-2.987.624-.538 1.385-.807 2.283-.807.998 0 1.814.328 2.447.985.633.651.95 1.554.95 2.707 0 .934-.141 1.67-.424 2.208a2.957 2.957 0 0 1-1.223 1.244 3.546 3.546 0 0 1-1.75.444c-1.017 0-1.839-.326-2.468-.977-.624-.652-.937-1.591-.937-2.817zm1.265 0c0 .93.203 1.627.608 2.092.406.46.916.69 1.532.69.61 0 1.119-.232 1.524-.697.406-.465.609-1.173.609-2.126 0-.898-.206-1.577-.616-2.037a1.93 1.93 0 0 0-1.517-.697c-.616 0-1.126.23-1.532.69-.405.46-.608 1.155-.608 2.085zm6.986 3.63v-7.26h1.108v1.032c.533-.797 1.303-1.196 2.31-1.196.438 0 .839.08 1.203.239.37.155.645.36.828.616.182.255.31.558.382.909.046.228.069.626.069 1.196V218h-1.231v-4.416c0-.501-.048-.875-.143-1.121a1.163 1.163 0 0 0-.513-.595 1.584 1.584 0 0 0-.854-.225c-.525 0-.978.166-1.361.499-.378.332-.567.963-.567 1.893V218zm7.315-3.008v-1.237h3.78v1.237zm7.827 1.907l.178 1.087c-.347.073-.657.11-.93.11-.447 0-.793-.071-1.039-.212a1.194 1.194 0 0 1-.52-.554c-.1-.232-.15-.718-.15-1.456v-4.177h-.902v-.957h.902v-1.798l1.224-.738v2.536h1.237v.957h-1.237v4.245c0 .351.02.577.061.677.046.1.116.18.212.239.1.06.242.089.424.089.137 0 .317-.016.54-.048zm.752-2.529c0-1.344.374-2.34 1.121-2.987.624-.538 1.385-.807 2.283-.807.998 0 1.814.328 2.447.985.634.651.951 1.554.951 2.707 0 .934-.142 1.67-.424 2.208a2.954 2.954 0 0 1-1.224 1.244 3.543 3.543 0 0 1-1.75.444c-1.016 0-1.839-.326-2.468-.977-.624-.652-.936-1.591-.936-2.817zm1.265 0c0 .93.202 1.627.608 2.092.406.46.916.69 1.531.69a1.94 1.94 0 0 0 1.525-.697c.405-.465.608-1.173.608-2.126 0-.898-.205-1.577-.615-2.037a1.933 1.933 0 0 0-1.518-.697c-.615 0-1.125.23-1.531.69s-.608 1.155-.608 2.085zm6.986 6.412V210.74h1.121v.944c.264-.37.563-.645.896-.828.332-.186.736-.28 1.209-.28.62 0 1.167.16 1.641.479s.832.77 1.073 1.353c.242.579.363 1.215.363 1.907 0 .743-.135 1.413-.404 2.01-.264.593-.651 1.048-1.162 1.367a2.978 2.978 0 0 1-1.599.472c-.411 0-.78-.087-1.108-.26a2.538 2.538 0 0 1-.8-.656v3.534zm1.114-6.371c0 .934.189 1.625.568 2.071.378.447.836.67 1.374.67.546 0 1.014-.23 1.401-.69.392-.465.588-1.183.588-2.153 0-.926-.192-1.618-.574-2.079-.379-.46-.832-.69-1.361-.69-.524 0-.989.246-1.394.738-.401.488-.602 1.199-.602 2.133zm6.686-5.017v-1.415h1.23v1.415zm0 8.606v-7.26h1.23V218zm7.847-2.659l1.21.157c-.132.834-.471 1.488-1.018 1.962-.543.469-1.21.704-2.003.704-.994 0-1.793-.324-2.4-.971-.601-.651-.902-1.583-.902-2.796 0-.783.13-1.469.39-2.057s.654-1.028 1.182-1.319a3.512 3.512 0 0 1 1.737-.445c.788 0 1.433.201 1.934.602.502.396.823.961.964 1.695l-1.196.185c-.114-.488-.317-.855-.609-1.101a1.55 1.55 0 0 0-1.045-.369c-.62 0-1.124.223-1.511.67-.388.442-.581 1.144-.581 2.105 0 .976.187 1.684.56 2.126.374.442.862.663 1.463.663.483 0 .887-.148 1.21-.444.324-.296.529-.752.615-1.367zm10.787 5.441v-3.554c-.191.268-.46.492-.806.669a2.337 2.337 0 0 1-1.094.267c-.861 0-1.604-.344-2.228-1.032-.62-.688-.93-1.632-.93-2.83 0-.729.125-1.383.376-1.962.255-.579.622-1.016 1.1-1.313a2.952 2.952 0 0 1 1.586-.451c.898 0 1.605.378 2.12 1.135v-.971h1.107v10.042zm-3.793-6.432c0 .934.196 1.636.587 2.105.392.465.862.697 1.409.697.524 0 .975-.221 1.353-.663.378-.446.568-1.123.568-2.03 0-.966-.201-1.693-.602-2.181-.397-.487-.864-.731-1.401-.731-.534 0-.987.228-1.361.683-.369.452-.553 1.158-.553 2.12zm11.716 3.65v-1.066c-.565.82-1.333 1.23-2.303 1.23-.429 0-.83-.082-1.204-.246-.369-.164-.644-.369-.827-.615a2.396 2.396 0 0 1-.376-.916c-.05-.242-.075-.625-.075-1.149v-4.498h1.231v4.027c0 .642.025 1.075.075 1.298.077.324.241.579.492.766.251.182.561.273.93.273s.715-.093 1.039-.28c.323-.191.551-.449.683-.772.137-.328.205-.802.205-1.422v-3.89h1.231V218zm8.005-2.338l1.272.157c-.201.743-.572 1.32-1.115 1.73-.542.41-1.235.615-2.078.615-1.062 0-1.905-.326-2.529-.977-.62-.657-.93-1.575-.93-2.755 0-1.222.315-2.17.944-2.844.629-.675 1.444-1.012 2.447-1.012.971 0 1.764.331 2.379.991.615.661.923 1.591.923 2.789 0 .073-.003.183-.007.329h-5.414c.045.797.271 1.408.677 1.832.405.423.911.635 1.517.635.451 0 .836-.118 1.155-.355s.572-.615.759-1.135zm-4.04-1.989h4.054c-.055-.611-.21-1.069-.465-1.374-.392-.474-.9-.711-1.524-.711-.565 0-1.042.189-1.429.567-.383.379-.595.884-.636 1.518zm6.371 2.16l1.217-.191c.068.487.258.861.567 1.121.315.259.752.389 1.313.389.565 0 .984-.114 1.258-.341.273-.233.41-.504.41-.814a.747.747 0 0 0-.362-.656c-.169-.11-.588-.249-1.258-.417-.903-.228-1.529-.424-1.88-.588a1.88 1.88 0 0 1-.793-.69 1.867 1.867 0 0 1-.267-.978c0-.324.073-.622.219-.896.15-.278.353-.508.609-.69.191-.141.451-.26.779-.355a3.648 3.648 0 0 1 1.066-.151c.57 0 1.069.082 1.497.246.433.164.752.388.957.67.205.278.347.652.424 1.121l-1.203.164c-.055-.373-.214-.665-.479-.875-.259-.209-.628-.314-1.107-.314-.565 0-.968.093-1.21.28-.241.187-.362.406-.362.656 0 .16.05.303.15.431.1.132.258.242.472.328.123.046.485.151 1.087.315.87.232 1.476.423 1.818.574.347.146.618.36.814.642.196.283.294.634.294 1.053 0 .41-.121.798-.363 1.162-.237.36-.581.641-1.032.841a3.808 3.808 0 0 1-1.531.294c-.944 0-1.664-.196-2.16-.588-.493-.392-.807-.973-.944-1.743zm10.179 1.066l.178 1.087c-.347.073-.657.11-.93.11-.447 0-.793-.071-1.039-.212a1.194 1.194 0 0 1-.52-.554c-.1-.232-.15-.718-.15-1.456v-4.177h-.902v-.957h.902v-1.798l1.224-.738v2.536h1.237v.957h-1.237v4.245c0 .351.02.577.061.677.046.1.116.18.212.239.1.06.242.089.424.089.137 0 .317-.016.54-.048zm1.217-7.505v-1.415h1.23v1.415zm0 8.606v-7.26h1.23V218zm2.652-3.63c0-1.344.374-2.34 1.121-2.987.625-.538 1.386-.807 2.283-.807.998 0 1.814.328 2.448.985.633.651.95 1.554.95 2.707 0 .934-.141 1.67-.424 2.208a2.954 2.954 0 0 1-1.224 1.244 3.543 3.543 0 0 1-1.75.444c-1.016 0-1.838-.326-2.467-.977-.625-.652-.937-1.591-.937-2.817zm1.265 0c0 .93.203 1.627.608 2.092.406.46.916.69 1.531.69a1.94 1.94 0 0 0 1.525-.697c.405-.465.608-1.173.608-2.126 0-.898-.205-1.577-.615-2.037a1.931 1.931 0 0 0-1.518-.697c-.615 0-1.125.23-1.531.69-.405.46-.608 1.155-.608 2.085zm6.986 3.63v-7.26h1.108v1.032c.533-.797 1.303-1.196 2.31-1.196.438 0 .839.08 1.203.239.369.155.645.36.827.616.183.255.31.558.383.909.046.228.069.626.069 1.196V218h-1.231v-4.416c0-.501-.048-.875-.144-1.121a1.157 1.157 0 0 0-.512-.595 1.59 1.59 0 0 0-.855-.225c-.524 0-.977.166-1.36.499-.378.332-.567.963-.567 1.893V218zm10.097-2.468a12.818 12.818 0 0 1-.007-.369c0-.483.068-.9.205-1.251.1-.264.262-.531.485-.8.164-.196.458-.48.882-.854.429-.378.707-.679.834-.903.128-.223.192-.467.192-.731 0-.478-.187-.898-.561-1.258a1.896 1.896 0 0 0-1.374-.547c-.524 0-.962.164-1.312.493-.351.328-.582.84-.691 1.538l-1.265-.151c.114-.934.452-1.65 1.012-2.146.565-.497 1.31-.745 2.236-.745.979 0 1.761.266 2.344.799.584.534.875 1.178.875 1.935 0 .437-.102.841-.307 1.21s-.606.818-1.203 1.347c-.402.355-.664.617-.787.786a1.74 1.74 0 0 0-.273.581c-.059.219-.093.574-.103 1.066zm-.075 2.468v-1.401h1.401V218zm9.563 0v-10.021h3.76c.765 0 1.378.102 1.839.307.465.201.827.513 1.087.937.264.419.396.859.396 1.319 0 .428-.116.832-.349 1.21-.232.378-.583.684-1.052.916.606.178 1.071.481 1.394.909.328.429.492.934.492 1.518 0 .469-.1.907-.3 1.312-.196.401-.44.711-.732.93-.291.219-.658.385-1.1.499-.438.109-.976.164-1.614.164zm1.326-5.811h2.167c.588 0 1.01-.038 1.265-.116.337-.1.59-.266.759-.499.173-.232.259-.524.259-.875 0-.332-.079-.624-.239-.875a1.189 1.189 0 0 0-.683-.519c-.297-.096-.805-.144-1.525-.144h-2.003zm0 4.628h2.495c.429 0 .73-.016.903-.047.305-.055.56-.146.765-.274s.374-.312.506-.554c.132-.246.198-.528.198-.847 0-.374-.095-.698-.287-.971a1.488 1.488 0 0 0-.799-.581c-.338-.114-.825-.171-1.463-.171h-2.318zm12.879-1.155l1.272.157c-.201.743-.572 1.32-1.115 1.73-.542.41-1.235.615-2.078.615-1.062 0-1.905-.326-2.529-.977-.62-.657-.93-1.575-.93-2.755 0-1.222.315-2.17.944-2.844.629-.675 1.444-1.012 2.447-1.012.971 0 1.764.331 2.379.991.615.661.923 1.591.923 2.789 0 .073-.003.183-.007.329h-5.414c.045.797.271 1.408.676 1.832.406.423.912.635 1.518.635.451 0 .836-.118 1.155-.355s.572-.615.759-1.135zm-4.04-1.989h4.054c-.055-.611-.21-1.069-.465-1.374-.392-.474-.9-.711-1.524-.711-.566 0-1.042.189-1.429.567-.383.379-.595.884-.636 1.518zm10.268 2.16l1.216-.191c.069.487.258.861.568 1.121.314.259.752.389 1.312.389.565 0 .985-.114 1.258-.341.274-.233.41-.504.41-.814a.745.745 0 0 0-.362-.656c-.169-.11-.588-.249-1.258-.417-.902-.228-1.529-.424-1.88-.588a1.886 1.886 0 0 1-.793-.69 1.876 1.876 0 0 1-.266-.978c0-.324.073-.622.219-.896.15-.278.353-.508.608-.69.191-.141.451-.26.779-.355a3.655 3.655 0 0 1 1.067-.151c.569 0 1.068.082 1.497.246.433.164.752.388.957.67.205.278.346.652.424 1.121l-1.204.164c-.054-.373-.214-.665-.478-.875-.26-.209-.629-.314-1.108-.314-.565 0-.968.093-1.209.28-.242.187-.363.406-.363.656 0 .16.05.303.151.431.1.132.257.242.471.328.123.046.486.151 1.087.315.871.232 1.477.423 1.819.574.346.146.617.36.813.642.196.283.294.634.294 1.053 0 .41-.121.798-.362 1.162-.237.36-.581.641-1.033.841a3.804 3.804 0 0 1-1.531.294c-.943 0-1.663-.196-2.16-.588-.492-.392-.807-.973-.943-1.743zm7.492 4.949V210.74h1.121v.944a2.73 2.73 0 0 1 .895-.828c.333-.186.736-.28 1.21-.28.62 0 1.167.16 1.641.479s.832.77 1.073 1.353c.242.579.363 1.215.363 1.907 0 .743-.135 1.413-.404 2.01-.264.593-.651 1.048-1.162 1.367a2.978 2.978 0 0 1-1.599.472c-.411 0-.78-.087-1.108-.26a2.538 2.538 0 0 1-.8-.656v3.534zm1.114-6.371c0 .934.189 1.625.568 2.071.378.447.836.67 1.374.67.546 0 1.014-.23 1.401-.69.392-.465.588-1.183.588-2.153 0-.926-.192-1.618-.574-2.079-.379-.46-.832-.69-1.361-.69-.524 0-.989.246-1.394.738-.401.488-.602 1.199-.602 2.133zm11.649 1.251l1.271.157c-.2.743-.572 1.32-1.114 1.73-.543.41-1.235.615-2.078.615-1.062 0-1.905-.326-2.53-.977-.619-.657-.929-1.575-.929-2.755 0-1.222.314-2.17.943-2.844.629-.675 1.445-1.012 2.447-1.012.971 0 1.764.331 2.379.991.615.661.923 1.591.923 2.789 0 .073-.002.183-.007.329h-5.414c.046.797.271 1.408.677 1.832.406.423.911.635 1.517.635.452 0 .837-.118 1.156-.355s.572-.615.759-1.135zm-4.04-1.989h4.053c-.054-.611-.209-1.069-.465-1.374-.392-.474-.9-.711-1.524-.711-.565 0-1.041.189-1.429.567-.383.379-.594.884-.635 1.518zm11.6 1.668l1.21.157c-.132.834-.472 1.488-1.018 1.962-.543.469-1.21.704-2.003.704-.994 0-1.794-.324-2.4-.971-.601-.651-.902-1.583-.902-2.796 0-.783.13-1.469.389-2.057.26-.588.654-1.028 1.183-1.319a3.508 3.508 0 0 1 1.736-.445c.789 0 1.434.201 1.935.602.501.396.823.961.964 1.695l-1.196.185c-.114-.488-.317-.855-.609-1.101a1.553 1.553 0 0 0-1.046-.369c-.62 0-1.123.223-1.51.67-.388.442-.582 1.144-.582 2.105 0 .976.187 1.684.561 2.126s.861.663 1.463.663c.483 0 .886-.148 1.21-.444.323-.296.529-.752.615-1.367zm2.27-5.947v-1.415h1.23v1.415zm0 8.606v-7.26h1.23V218zm3.404 0v-6.303h-1.087v-.957h1.087v-.772c0-.488.043-.85.13-1.087a1.56 1.56 0 0 1 .622-.773c.301-.2.72-.3 1.258-.3.346 0 .729.041 1.148.123l-.184 1.073a4.097 4.097 0 0 0-.725-.068c-.374 0-.638.079-.793.239-.155.159-.232.458-.232.895v.67h1.415v.957h-1.415V218zm3.609-8.606v-1.415h1.231v1.415zm0 8.606v-7.26h1.231V218zm7.848-2.659l1.21.157c-.132.834-.472 1.488-1.019 1.962-.542.469-1.21.704-2.003.704-.993 0-1.793-.324-2.399-.971-.602-.651-.902-1.583-.902-2.796 0-.783.13-1.469.389-2.057.26-.588.654-1.028 1.183-1.319a3.508 3.508 0 0 1 1.736-.445c.789 0 1.434.201 1.935.602.501.396.822.961.964 1.695l-1.197.185c-.114-.488-.316-.855-.608-1.101a1.553 1.553 0 0 0-1.046-.369c-.62 0-1.123.223-1.511.67-.387.442-.581 1.144-.581 2.105 0 .976.187 1.684.561 2.126s.861.663 1.463.663c.483 0 .886-.148 1.21-.444.323-.296.528-.752.615-1.367z" fill="#9199a1"/><path d="M269.31 136v-12.885h4.174c1.582 0 2.614.065 3.094.194.738.193 1.357.615 1.855 1.265.498.645.747 1.48.747 2.505 0 .791-.144 1.456-.431 1.995s-.653.964-1.099 1.275a3.779 3.779 0 0 1-1.344.606c-.621.123-1.521.185-2.699.185h-1.696V136zm2.601-10.705v3.656h1.424c1.025 0 1.711-.067 2.057-.202.345-.135.615-.346.808-.633.199-.287.299-.621.299-1.002 0-.468-.138-.855-.413-1.16a1.795 1.795 0 0 0-1.046-.571c-.311-.059-.935-.088-1.872-.088zm8.816 5.906c0-.82.202-1.614.606-2.382a4.17 4.17 0 0 1 1.714-1.757c.744-.405 1.573-.607 2.487-.607 1.412 0 2.57.46 3.472 1.38.902.914 1.353 2.071 1.353 3.472 0 1.412-.457 2.584-1.371 3.515-.908.926-2.053 1.389-3.436 1.389a5.44 5.44 0 0 1-2.452-.58 3.988 3.988 0 0 1-1.767-1.696c-.404-.75-.606-1.662-.606-2.734zm2.531.132c0 .926.22 1.635.659 2.127s.981.738 1.626.738 1.184-.246 1.617-.738c.44-.492.659-1.207.659-2.145 0-.914-.219-1.617-.659-2.109-.433-.492-.972-.738-1.617-.738s-1.187.246-1.626.738-.659 1.201-.659 2.127zm8.174 2.004l2.478-.378c.106.48.319.847.642 1.099.322.246.773.369 1.353.369.639 0 1.119-.117 1.442-.352a.787.787 0 0 0 .325-.659.65.65 0 0 0-.176-.466c-.123-.117-.398-.225-.826-.325-1.992-.439-3.255-.841-3.788-1.204-.738-.504-1.108-1.204-1.108-2.101 0-.808.32-1.488.958-2.039.639-.551 1.629-.826 2.971-.826 1.277 0 2.227.208 2.848.624s1.049 1.031 1.283 1.846l-2.329.43c-.1-.363-.29-.641-.571-.834-.276-.194-.671-.291-1.187-.291-.65 0-1.116.091-1.397.273-.188.129-.282.296-.282.501 0 .176.082.325.246.448.223.164.991.396 2.303.694 1.319.299 2.238.666 2.76 1.099.516.44.773 1.052.773 1.837 0 .856-.357 1.591-1.072 2.206s-1.772.923-3.173.923c-1.271 0-2.279-.258-3.023-.773a3.57 3.57 0 0 1-1.45-2.101zm15.17-6.671v1.969h-1.688v3.761c0 .762.015 1.208.044 1.336a.568.568 0 0 0 .22.308.717.717 0 0 0 .422.123c.228 0 .559-.079.993-.237l.211 1.916c-.575.246-1.225.369-1.951.369-.446 0-.847-.073-1.205-.22-.357-.152-.621-.345-.791-.58-.164-.24-.278-.562-.342-.967-.053-.287-.079-.867-.079-1.74v-4.069h-1.134v-1.969h1.134v-1.854l2.478-1.442v3.296zm8.569 2.848l-2.241-.405c.252-.902.685-1.57 1.3-2.004.616-.433 1.53-.65 2.743-.65 1.101 0 1.922.132 2.461.396.539.257.917.588 1.133.993.223.398.334 1.134.334 2.206l-.026 2.883c0 .82.038 1.426.114 1.819.082.387.232.803.449 1.248h-2.444a9.409 9.409 0 0 1-.237-.729 4.163 4.163 0 0 0-.088-.291 4.434 4.434 0 0 1-1.354.923c-.48.205-.993.308-1.538.308-.961 0-1.719-.261-2.276-.782-.551-.522-.826-1.181-.826-1.978 0-.527.126-.996.378-1.406a2.432 2.432 0 0 1 1.054-.949c.457-.223 1.114-.416 1.969-.58 1.154-.217 1.954-.419 2.4-.607v-.246c0-.475-.118-.811-.352-1.011-.234-.205-.677-.307-1.327-.307-.44 0-.782.088-1.028.263-.247.17-.446.472-.598.906zm3.305 2.004c-.317.105-.818.231-1.503.378-.686.146-1.134.29-1.345.43-.322.229-.483.519-.483.87 0 .346.128.645.386.897s.586.378.985.378c.445 0 .87-.147 1.274-.44.299-.222.495-.495.589-.817.064-.211.097-.612.097-1.204zM336.845 136h-2.47v-4.764c0-1.007-.053-1.658-.158-1.951a1.365 1.365 0 0 0-.519-.694c-.234-.164-.518-.246-.852-.246-.428 0-.812.117-1.152.351-.34.235-.574.545-.703.932-.123.387-.184 1.101-.184 2.144V136h-2.47v-9.334h2.294v1.371c.814-1.055 1.84-1.582 3.076-1.582.545 0 1.043.1 1.494.299.451.193.791.442 1.02.747.234.305.395.65.483 1.037.094.387.141.941.141 1.661zm7.919-2.971l2.461.413c-.317.903-.818 1.591-1.503 2.066-.68.469-1.533.703-2.558.703-1.623 0-2.824-.53-3.603-1.591-.616-.849-.923-1.922-.923-3.217 0-1.547.404-2.757 1.213-3.63.808-.878 1.831-1.318 3.067-1.318 1.389 0 2.484.46 3.287 1.38.803.914 1.187 2.317 1.151 4.21h-6.187c.018.732.217 1.304.598 1.714.38.404.855.606 1.423.606.387 0 .712-.105.976-.316s.463-.551.598-1.02zm.14-2.496c-.017-.715-.202-1.257-.553-1.626a1.695 1.695 0 0 0-1.284-.562c-.539 0-.984.196-1.336.589-.351.392-.524.925-.518 1.599zm6.214 5.467l-2.953-9.334h2.399l1.749 6.117 1.609-6.117h2.382l1.555 6.117 1.785-6.117h2.434L359.081 136h-2.373l-1.608-6.003-1.582 6.003zm23.379 3.551v-4.694a3.562 3.562 0 0 1-1.204.994c-.481.24-.999.36-1.556.36-1.06 0-1.933-.399-2.619-1.195-.808-.932-1.213-2.195-1.213-3.788 0-1.5.378-2.669 1.134-3.507.762-.844 1.705-1.266 2.83-1.266.621 0 1.157.132 1.609.396.457.263.861.662 1.212 1.195v-1.38h2.277v12.885zm.079-8.332c0-.955-.196-1.664-.589-2.127-.386-.469-.873-.703-1.459-.703-.597 0-1.098.237-1.503.712-.398.474-.597 1.227-.597 2.258 0 1.026.193 1.767.58 2.224.387.451.864.677 1.432.677.569 0 1.067-.255 1.495-.765.427-.51.641-1.268.641-2.276zM385.545 136v-1.397c-.34.498-.788.89-1.345 1.177a3.734 3.734 0 0 1-1.749.431 3.43 3.43 0 0 1-1.687-.413 2.438 2.438 0 0 1-1.081-1.16c-.223-.498-.334-1.187-.334-2.066v-5.906h2.469v4.289c0 1.313.044 2.118.132 2.417.094.293.261.527.501.703.24.17.545.255.914.255.422 0 .8-.114 1.134-.343.334-.234.563-.521.686-.861.123-.346.184-1.187.184-2.522v-3.938h2.47V136zm10.266-2.971l2.46.413c-.316.903-.817 1.591-1.502 2.066-.68.469-1.533.703-2.558.703-1.623 0-2.824-.53-3.604-1.591-.615-.849-.922-1.922-.922-3.217 0-1.547.404-2.757 1.212-3.63.809-.878 1.832-1.318 3.068-1.318 1.389 0 2.484.46 3.287 1.38.803.914 1.186 2.317 1.151 4.21h-6.187c.017.732.217 1.304.597 1.714.381.404.856.606 1.424.606.387 0 .712-.105.976-.316s.463-.551.598-1.02zm.14-2.496c-.017-.715-.202-1.257-.554-1.626a1.691 1.691 0 0 0-1.283-.562c-.539 0-.984.196-1.336.589-.351.392-.524.925-.518 1.599zm3.604 2.804l2.478-.378c.106.48.32.847.642 1.099.322.246.773.369 1.353.369.639 0 1.119-.117 1.442-.352a.784.784 0 0 0 .325-.659.65.65 0 0 0-.176-.466c-.123-.117-.398-.225-.826-.325-1.992-.439-3.255-.841-3.788-1.204-.738-.504-1.108-1.204-1.108-2.101 0-.808.32-1.488.958-2.039.639-.551 1.629-.826 2.971-.826 1.278 0 2.227.208 2.848.624s1.049 1.031 1.283 1.846l-2.329.43c-.1-.363-.29-.641-.571-.834-.276-.194-.671-.291-1.187-.291-.65 0-1.116.091-1.397.273-.188.129-.282.296-.282.501 0 .176.082.325.247.448.222.164.99.396 2.302.694 1.319.299 2.239.666 2.76 1.099.516.44.773 1.052.773 1.837 0 .856-.357 1.591-1.072 2.206s-1.772.923-3.173.923c-1.271 0-2.279-.258-3.023-.773a3.57 3.57 0 0 1-1.45-2.101zm15.17-6.671v1.969h-1.688v3.761c0 .762.015 1.208.044 1.336a.568.568 0 0 0 .22.308.717.717 0 0 0 .422.123c.228 0 .559-.079.993-.237l.211 1.916c-.574.246-1.225.369-1.951.369-.446 0-.847-.073-1.205-.22-.357-.152-.621-.345-.791-.58-.164-.24-.278-.562-.342-.967-.053-.287-.079-.867-.079-1.74v-4.069h-1.134v-1.969h1.134v-1.854l2.478-1.442v3.296zm1.713-1.266v-2.285h2.47v2.285zm0 10.6v-9.334h2.47V136zm4.439-4.799c0-.82.202-1.614.606-2.382a4.175 4.175 0 0 1 1.714-1.757c.744-.405 1.574-.607 2.488-.607 1.412 0 2.569.46 3.471 1.38.903.914 1.354 2.071 1.354 3.472 0 1.412-.457 2.584-1.371 3.515-.909.926-2.054 1.389-3.437 1.389a5.444 5.444 0 0 1-2.452-.58 3.998 3.998 0 0 1-1.767-1.696c-.404-.75-.606-1.662-.606-2.734zm2.531.132c0 .926.22 1.635.659 2.127.44.492.982.738 1.626.738.645 0 1.184-.246 1.618-.738.439-.492.659-1.207.659-2.145 0-.914-.22-1.617-.659-2.109-.434-.492-.973-.738-1.618-.738-.644 0-1.186.246-1.626.738-.439.492-.659 1.201-.659 2.127zM440.942 136h-2.469v-4.764c0-1.007-.053-1.658-.159-1.951a1.358 1.358 0 0 0-.518-.694c-.234-.164-.519-.246-.853-.246-.427 0-.811.117-1.151.351-.34.235-.574.545-.703.932-.123.387-.185 1.101-.185 2.144V136h-2.469v-9.334h2.294v1.371c.814-1.055 1.839-1.582 3.076-1.582.545 0 1.043.1 1.494.299.451.193.791.442 1.019.747.235.305.396.65.484 1.037.094.387.14.941.14 1.661zm6.953-4.799c0-.82.202-1.614.606-2.382a4.17 4.17 0 0 1 1.714-1.757c.744-.405 1.573-.607 2.487-.607 1.412 0 2.569.46 3.472 1.38.902.914 1.353 2.071 1.353 3.472 0 1.412-.457 2.584-1.371 3.515-.908.926-2.053 1.389-3.436 1.389a5.44 5.44 0 0 1-2.452-.58 3.988 3.988 0 0 1-1.767-1.696c-.404-.75-.606-1.662-.606-2.734zm2.531.132c0 .926.22 1.635.659 2.127s.981.738 1.626.738c.644 0 1.184-.246 1.617-.738.44-.492.659-1.207.659-2.145 0-.914-.219-1.617-.659-2.109a2.068 2.068 0 0 0-1.617-.738c-.645 0-1.187.246-1.626.738s-.659 1.201-.659 2.127zM467.96 136h-2.47v-4.764c0-1.007-.052-1.658-.158-1.951a1.354 1.354 0 0 0-.519-.694c-.234-.164-.518-.246-.852-.246-.428 0-.812.117-1.151.351-.34.235-.575.545-.704.932-.123.387-.184 1.101-.184 2.144V136h-2.47v-9.334h2.294v1.371c.815-1.055 1.84-1.582 3.076-1.582.545 0 1.043.1 1.494.299.452.193.791.442 1.02.747.234.305.395.65.483 1.037.094.387.141.941.141 1.661zm6.882-4.192l2.531-.246c.152.849.46 1.473.923 1.872.469.398 1.099.597 1.89.597.837 0 1.467-.176 1.889-.527.428-.358.642-.774.642-1.248 0-.305-.091-.563-.273-.774-.175-.216-.486-.404-.931-.562-.305-.106-.999-.293-2.083-.563-1.395-.345-2.373-.77-2.936-1.274-.791-.709-1.186-1.573-1.186-2.593 0-.656.184-1.268.553-1.837.375-.574.911-1.01 1.609-1.309.703-.299 1.55-.448 2.54-.448 1.617 0 2.833.354 3.647 1.063.821.709 1.251 1.655 1.292 2.839l-2.601.114c-.112-.662-.352-1.137-.721-1.424-.363-.293-.911-.439-1.644-.439-.755 0-1.347.155-1.775.466a.938.938 0 0 0-.413.799c0 .305.129.566.387.783.328.275 1.125.562 2.39.861 1.266.299 2.2.609 2.804.932a3.543 3.543 0 0 1 1.424 1.309c.346.551.518 1.234.518 2.048 0 .738-.205 1.43-.615 2.074-.41.645-.99 1.125-1.74 1.442-.75.31-1.685.466-2.804.466-1.629 0-2.88-.375-3.753-1.125-.873-.756-1.394-1.855-1.564-3.296zm16.928-5.142v1.969h-1.688v3.761c0 .762.015 1.208.044 1.336a.568.568 0 0 0 .22.308.717.717 0 0 0 .422.123c.228 0 .559-.079.993-.237l.211 1.916c-.575.246-1.225.369-1.951.369-.446 0-.847-.073-1.205-.22-.357-.152-.621-.345-.791-.58-.164-.24-.278-.562-.342-.967-.053-.287-.079-.867-.079-1.74v-4.069h-1.134v-1.969h1.134v-1.854l2.478-1.442v3.296zm3.559 2.848l-2.241-.405c.252-.902.685-1.57 1.301-2.004.615-.433 1.529-.65 2.742-.65 1.101 0 1.922.132 2.461.396.539.257.917.588 1.134.993.222.398.334 1.134.334 2.206l-.027 2.883c0 .82.038 1.426.114 1.819.082.387.232.803.449 1.248h-2.444a9.409 9.409 0 0 1-.237-.729 4.163 4.163 0 0 0-.088-.291 4.442 4.442 0 0 1-1.353.923 3.883 3.883 0 0 1-1.538.308c-.961 0-1.72-.261-2.277-.782-.551-.522-.826-1.181-.826-1.978 0-.527.126-.996.378-1.406a2.43 2.43 0 0 1 1.055-.949c.457-.223 1.113-.416 1.968-.58 1.155-.217 1.954-.419 2.4-.607v-.246c0-.475-.117-.811-.352-1.011-.234-.205-.677-.307-1.327-.307-.439 0-.782.088-1.028.263-.246.17-.446.472-.598.906zm3.305 2.004c-.317.105-.818.231-1.503.378-.686.146-1.134.29-1.345.43-.322.229-.483.519-.483.87 0 .346.129.645.386.897.258.252.586.378.985.378.445 0 .87-.147 1.274-.44.299-.222.495-.495.589-.817.065-.211.097-.612.097-1.204zm13.008-2.092l-2.435.439c-.082-.486-.269-.852-.562-1.098-.288-.246-.663-.37-1.125-.37-.616 0-1.108.214-1.477.642-.363.422-.545 1.131-.545 2.127 0 1.107.185 1.89.554 2.347.375.457.876.685 1.503.685.468 0 .852-.132 1.151-.395.299-.27.51-.73.633-1.38l2.426.413c-.252 1.113-.736 1.954-1.451 2.522-.714.569-1.672.853-2.874.853-1.365 0-2.455-.431-3.269-1.292-.809-.861-1.213-2.054-1.213-3.577 0-1.541.407-2.739 1.222-3.595.814-.861 1.916-1.292 3.304-1.292 1.137 0 2.039.246 2.707.738.674.487 1.158 1.231 1.451 2.233zm1.793 6.574v-12.885h2.469v6.838l2.892-3.287h3.041l-3.191 3.41 3.419 5.924h-2.663l-2.346-4.192-1.152 1.204V136zm14.607-6.363c0-1.313.196-2.414.589-3.305a6.118 6.118 0 0 1 1.195-1.767 5.077 5.077 0 0 1 1.67-1.16c.803-.34 1.729-.509 2.777-.509 1.899 0 3.416.588 4.553 1.766 1.143 1.178 1.714 2.816 1.714 4.913 0 2.08-.565 3.709-1.696 4.887-1.131 1.172-2.643 1.758-4.535 1.758-1.916 0-3.44-.583-4.571-1.749-1.131-1.172-1.696-2.783-1.696-4.834zm2.681-.088c0 1.459.337 2.566 1.01 3.322.674.75 1.53 1.125 2.567 1.125s1.887-.372 2.549-1.116c.668-.75 1.002-1.872 1.002-3.366 0-1.477-.326-2.578-.976-3.305-.645-.727-1.503-1.09-2.575-1.09s-1.937.369-2.593 1.108c-.656.732-.984 1.839-.984 3.322zM545.128 136l-3.762-9.334h2.593l1.758 4.764.51 1.591c.134-.405.219-.671.254-.8.082-.264.17-.528.264-.791l1.776-4.764h2.54L547.352 136zm12.858-2.971l2.461.413c-.316.903-.817 1.591-1.503 2.066-.679.469-1.532.703-2.557.703-1.623 0-2.825-.53-3.604-1.591-.615-.849-.923-1.922-.923-3.217 0-1.547.405-2.757 1.213-3.63.809-.878 1.831-1.318 3.068-1.318 1.388 0 2.484.46 3.287 1.38.802.914 1.186 2.317 1.151 4.21h-6.187c.017.732.216 1.304.597 1.714.381.404.856.606 1.424.606.387 0 .712-.105.976-.316.263-.211.463-.551.597-1.02zm.141-2.496c-.018-.715-.202-1.257-.554-1.626a1.691 1.691 0 0 0-1.283-.562c-.539 0-.984.196-1.336.589-.351.392-.524.925-.518 1.599zm6.838 5.467h-2.47v-9.334h2.294v1.327c.393-.627.744-1.04 1.055-1.239a1.971 1.971 0 0 1 1.072-.299c.563 0 1.105.155 1.626.466l-.765 2.153c-.416-.269-.802-.404-1.16-.404a1.36 1.36 0 0 0-.879.29c-.24.187-.43.53-.571 1.028-.135.498-.202 1.541-.202 3.129zm3.568-9.334h1.371v-.703c0-.785.082-1.371.246-1.758.17-.387.478-.7.923-.94.451-.246 1.02-.369 1.705-.369.703 0 1.392.105 2.066.316l-.334 1.723a4.872 4.872 0 0 0-1.134-.141c-.357 0-.615.085-.773.255-.153.164-.229.483-.229.958v.659h1.846v1.942h-1.846V136h-2.47v-7.392h-1.371zm7.075 9.334v-12.885h2.47V136zm4.439-4.799c0-.82.202-1.614.606-2.382a4.175 4.175 0 0 1 1.714-1.757c.744-.405 1.573-.607 2.487-.607 1.413 0 2.57.46 3.472 1.38.903.914 1.354 2.071 1.354 3.472 0 1.412-.457 2.584-1.371 3.515-.909.926-2.054 1.389-3.437 1.389a5.444 5.444 0 0 1-2.452-.58 3.993 3.993 0 0 1-1.767-1.696c-.404-.75-.606-1.662-.606-2.734zm2.531.132c0 .926.22 1.635.659 2.127.44.492.982.738 1.626.738.645 0 1.184-.246 1.617-.738.44-.492.66-1.207.66-2.145 0-.914-.22-1.617-.66-2.109-.433-.492-.972-.738-1.617-.738-.644 0-1.186.246-1.626.738-.439.492-.659 1.201-.659 2.127zM593.362 136l-2.953-9.334h2.4l1.749 6.117 1.608-6.117h2.382l1.556 6.117 1.784-6.117h2.434L601.325 136h-2.373l-1.608-6.003-1.582 6.003zm16.199-9.334h1.371v-.703c0-.785.082-1.371.246-1.758.17-.387.477-.7.923-.94.451-.246 1.019-.369 1.705-.369a6.87 6.87 0 0 1 2.065.316l-.334 1.723a4.86 4.86 0 0 0-1.134-.141c-.357 0-.615.085-.773.255-.152.164-.229.483-.229.958v.659h1.846v1.942h-1.846V136h-2.469v-7.392h-1.371zm6.503 4.535c0-.82.203-1.614.607-2.382a4.164 4.164 0 0 1 1.714-1.757c.744-.405 1.573-.607 2.487-.607 1.412 0 2.569.46 3.472 1.38.902.914 1.353 2.071 1.353 3.472 0 1.412-.457 2.584-1.371 3.515-.908.926-2.054 1.389-3.436 1.389a5.44 5.44 0 0 1-2.452-.58 3.988 3.988 0 0 1-1.767-1.696c-.404-.75-.607-1.662-.607-2.734zm2.532.132c0 .926.219 1.635.659 2.127.439.492.981.738 1.626.738.644 0 1.183-.246 1.617-.738.44-.492.659-1.207.659-2.145 0-.914-.219-1.617-.659-2.109-.434-.492-.973-.738-1.617-.738-.645 0-1.187.246-1.626.738-.44.492-.659 1.201-.659 2.127zM630.004 136h-2.47v-9.334h2.294v1.327c.393-.627.744-1.04 1.055-1.239a1.971 1.971 0 0 1 1.072-.299c.563 0 1.105.155 1.626.466l-.765 2.153c-.416-.269-.802-.404-1.16-.404-.345 0-.638.097-.879.29-.24.187-.43.53-.571 1.028-.135.498-.202 1.541-.202 3.129zm12.577 0v-10.705h-3.823v-2.18h10.239v2.18h-3.814V136zm12.155-2.971l2.461.413c-.316.903-.817 1.591-1.503 2.066-.679.469-1.532.703-2.557.703-1.623 0-2.825-.53-3.604-1.591-.615-.849-.923-1.922-.923-3.217 0-1.547.405-2.757 1.213-3.63.809-.878 1.831-1.318 3.068-1.318 1.388 0 2.484.46 3.287 1.38.802.914 1.186 2.317 1.151 4.21h-6.187c.017.732.216 1.304.597 1.714.381.404.856.606 1.424.606.387 0 .712-.105.976-.316.263-.211.463-.551.597-1.02zm.141-2.496c-.018-.715-.202-1.257-.554-1.626a1.691 1.691 0 0 0-1.283-.562c-.539 0-.984.196-1.336.589-.351.392-.524.925-.518 1.599zm6.319-1.019l-2.241-.405c.252-.902.686-1.57 1.301-2.004.615-.433 1.529-.65 2.742-.65 1.102 0 1.922.132 2.461.396.539.257.917.588 1.134.993.222.398.334 1.134.334 2.206l-.027 2.883c0 .82.038 1.426.115 1.819.082.387.231.803.448 1.248h-2.443a8.914 8.914 0 0 1-.238-.729 4.163 4.163 0 0 0-.088-.291 4.442 4.442 0 0 1-1.353.923 3.88 3.88 0 0 1-1.538.308c-.961 0-1.72-.261-2.277-.782-.55-.522-.826-1.181-.826-1.978 0-.527.126-.996.378-1.406a2.435 2.435 0 0 1 1.055-.949c.457-.223 1.113-.416 1.969-.58 1.154-.217 1.954-.419 2.399-.607v-.246c0-.475-.117-.811-.352-1.011-.234-.205-.676-.307-1.327-.307-.439 0-.782.088-1.028.263-.246.17-.445.472-.598.906zm3.305 2.004c-.316.105-.817.231-1.503.378-.686.146-1.134.29-1.345.43-.322.229-.483.519-.483.87 0 .346.129.645.387.897.257.252.586.378.984.378.445 0 .87-.147 1.274-.44a1.54 1.54 0 0 0 .589-.817c.065-.211.097-.612.097-1.204zm4.685-4.852h2.276v1.274c.814-.99 1.784-1.485 2.909-1.485.598 0 1.116.123 1.556.369.439.246.8.618 1.081 1.116.41-.498.852-.87 1.327-1.116a3.256 3.256 0 0 1 1.52-.369c.686 0 1.266.141 1.741.422.474.275.829.683 1.063 1.222.17.398.255 1.043.255 1.933V136h-2.47v-5.335c0-.926-.085-1.523-.255-1.793-.228-.351-.58-.527-1.054-.527-.346 0-.671.105-.976.316s-.524.522-.659.932c-.135.404-.202 1.046-.202 1.925V136h-2.47v-5.115c0-.908-.044-1.494-.132-1.758s-.225-.46-.413-.589c-.181-.129-.43-.193-.747-.193-.381 0-.724.102-1.028.307a1.703 1.703 0 0 0-.659.888c-.129.387-.194 1.028-.194 1.925V136h-2.469zm15.328 6.671l2.478-.378c.106.48.32.847.642 1.099.322.246.773.369 1.353.369.639 0 1.119-.117 1.442-.352a.784.784 0 0 0 .325-.659.65.65 0 0 0-.176-.466c-.123-.117-.398-.225-.826-.325-1.992-.439-3.255-.841-3.788-1.204-.738-.504-1.108-1.204-1.108-2.101 0-.808.32-1.488.958-2.039.639-.551 1.629-.826 2.971-.826 1.277 0 2.227.208 2.848.624s1.049 1.031 1.283 1.846l-2.329.43c-.1-.363-.29-.641-.571-.834-.276-.194-.671-.291-1.187-.291-.65 0-1.116.091-1.397.273-.188.129-.282.296-.282.501 0 .176.082.325.246.448.223.164.991.396 2.303.694 1.319.299 2.239.666 2.76 1.099.516.44.773 1.052.773 1.837 0 .856-.357 1.591-1.072 2.206s-1.772.923-3.173.923c-1.271 0-2.279-.258-3.023-.773a3.57 3.57 0 0 1-1.45-2.101z" fill="#252423"/><rect fill="#f48024" height="40" rx="3" width="40" x="268" y="58"/><path d="M296 90v-8h3v11h-24V82h3v8z" fill="#fff"/><path clip-rule="evenodd" d="M292.1 63.2l-2.1 1.6 7.9 10.6 2.1-1.6zm3.7 14.7l-10.2-8.5 1.7-2 10.2 8.5zm-13.6-2.6l12 5.6 1.1-2.4-12-5.6zm-1.798 6.801l13.561 1.96.164-2.38-13.256-2.547zM294 88h-14v-3h14z" fill="#fff" fill-rule="evenodd"/><path d="M330.056 75h-2.202l-.875-2.276h-4.005L322.146 75H320l3.903-10.022h2.14zm-3.726-3.965l-1.381-3.719-1.353 3.72h2.734zm4.115 1.894l1.928-.294c.082.373.248.658.499.854.251.192.602.287 1.053.287.497 0 .87-.09 1.121-.273a.61.61 0 0 0 .253-.513.505.505 0 0 0-.137-.362c-.096-.091-.31-.175-.642-.253-1.55-.342-2.532-.654-2.947-.936-.574-.392-.861-.937-.861-1.634 0-.63.248-1.158.745-1.586.497-.429 1.267-.643 2.311-.643.993 0 1.731.162 2.214.486.483.323.816.802.998 1.435l-1.811.335a1.12 1.12 0 0 0-.444-.65c-.215-.15-.522-.225-.923-.225-.506 0-.868.07-1.087.212a.455.455 0 0 0-.219.39c0 .136.064.252.192.348.173.128.77.308 1.791.54 1.025.233 1.74.517 2.146.855.401.342.602.818.602 1.428 0 .666-.278 1.238-.834 1.716-.556.479-1.379.718-2.468.718-.989 0-1.773-.2-2.352-.602a2.778 2.778 0 0 1-1.128-1.633zM338.847 75V64.978h1.921v5.319l2.249-2.557h2.365l-2.482 2.653L345.56 75h-2.072l-1.825-3.26-.895.936V75zm13.193-5.045l-1.743-.314c.196-.702.533-1.222 1.012-1.559.478-.337 1.189-.506 2.132-.506.857 0 1.495.103 1.914.308.42.2.714.458.882.772.173.31.26.882.26 1.716l-.02 2.242c0 .638.029 1.11.088 1.415.064.301.18.625.349.971h-1.9a7.113 7.113 0 0 1-.185-.567 4.179 4.179 0 0 0-.068-.226 3.46 3.46 0 0 1-1.053.718c-.374.16-.772.24-1.196.24-.748 0-1.338-.204-1.771-.61-.428-.405-.642-.918-.642-1.537 0-.41.098-.775.294-1.094.196-.324.469-.57.82-.739.355-.173.866-.323 1.531-.45.898-.17 1.52-.326 1.866-.472v-.192c0-.369-.091-.63-.273-.786-.182-.16-.526-.24-1.032-.24-.342 0-.609.07-.8.206-.192.132-.346.367-.465.704zm2.57 1.559c-.246.082-.635.18-1.169.294-.533.113-.881.225-1.045.335-.251.177-.376.403-.376.676 0 .27.1.502.3.698.201.196.456.294.766.294.346 0 .677-.114.991-.342a1.2 1.2 0 0 0 .458-.636c.05-.164.075-.476.075-.936zm12.428 6.248v-3.65a2.67 2.67 0 0 1-2.146 1.053c-.825 0-1.504-.31-2.038-.93-.628-.725-.943-1.707-.943-2.947 0-1.167.294-2.076.882-2.727.592-.657 1.326-.985 2.201-.985.483 0 .9.103 1.251.308.356.205.67.515.943.93V67.74h1.771v10.022zm.062-6.48c0-.744-.153-1.295-.458-1.655-.301-.365-.679-.547-1.135-.547-.465 0-.855.185-1.169.554-.31.369-.465.954-.465 1.757 0 .797.15 1.374.451 1.73.301.35.672.526 1.114.526.443 0 .83-.199 1.163-.595.332-.397.499-.987.499-1.77zM375.631 75v-1.087a2.788 2.788 0 0 1-1.046.916 2.901 2.901 0 0 1-1.36.335c-.488 0-.926-.107-1.313-.321a1.898 1.898 0 0 1-.841-.903c-.173-.387-.259-.922-.259-1.606V67.74h1.92v3.336c0 1.021.035 1.648.103 1.88.073.228.203.41.39.547.186.132.423.198.711.198.328 0 .622-.089.881-.266.26-.183.438-.406.534-.67.095-.27.143-.923.143-1.962V67.74h1.921V75zm7.984-2.31l1.914.32c-.246.703-.635 1.238-1.169 1.607-.528.365-1.191.547-1.989.547-1.262 0-2.197-.412-2.803-1.237-.478-.661-.717-1.495-.717-2.502 0-1.203.314-2.144.943-2.823.629-.684 1.424-1.026 2.386-1.026 1.08 0 1.932.358 2.556 1.073.625.711.923 1.803.896 3.275h-4.813c.014.57.169 1.014.465 1.333a1.46 1.46 0 0 0 1.108.471c.3 0 .553-.081.758-.246.205-.164.36-.428.465-.793zm.11-1.942c-.014-.556-.158-.978-.431-1.265a1.316 1.316 0 0 0-.998-.437c-.419 0-.766.153-1.039.458-.274.305-.408.72-.403 1.244zm2.802 2.18l1.928-.293c.082.373.248.658.499.854.251.192.602.287 1.053.287.497 0 .87-.09 1.121-.273a.61.61 0 0 0 .253-.513.505.505 0 0 0-.137-.362c-.096-.091-.31-.175-.642-.253-1.55-.342-2.532-.654-2.947-.936-.574-.392-.861-.937-.861-1.634 0-.63.248-1.158.745-1.586.497-.429 1.267-.643 2.311-.643.993 0 1.731.162 2.214.486.484.323.816.802.998 1.435l-1.811.335a1.115 1.115 0 0 0-.444-.65c-.215-.15-.522-.225-.923-.225-.506 0-.868.07-1.087.212a.455.455 0 0 0-.219.39c0 .136.064.252.192.348.173.128.77.308 1.791.54 1.025.233 1.74.517 2.146.855.401.342.602.818.602 1.428 0 .666-.278 1.238-.834 1.716-.556.479-1.379.718-2.468.718-.989 0-1.773-.2-2.352-.602a2.778 2.778 0 0 1-1.128-1.633zm11.799-5.188v1.532h-1.312v2.925c0 .593.011.94.034 1.04a.44.44 0 0 0 .171.239c.091.063.2.095.328.095.178 0 .435-.061.772-.184l.164 1.49a3.814 3.814 0 0 1-1.517.287 2.45 2.45 0 0 1-.937-.17c-.278-.12-.483-.27-.615-.452-.128-.187-.216-.438-.267-.752-.041-.223-.061-.674-.061-1.354v-3.165h-.882v-1.53h.882v-1.443l1.928-1.121v2.563zm1.333-.984v-1.778h1.921v1.778zm0 8.244v-7.26h1.921V75zm3.452-3.732c0-.638.158-1.256.472-1.853a3.241 3.241 0 0 1 1.333-1.367 3.987 3.987 0 0 1 1.935-.472c1.098 0 1.998.358 2.7 1.073.702.711 1.053 1.611 1.053 2.7 0 1.099-.356 2.01-1.067 2.735-.706.72-1.597 1.08-2.673 1.08-.665 0-1.301-.15-1.907-.451a3.1 3.1 0 0 1-1.374-1.32c-.314-.583-.472-1.291-.472-2.125zm1.969.102c0 .72.171 1.272.513 1.654.342.383.763.575 1.264.575.502 0 .921-.192 1.258-.575.342-.382.513-.938.513-1.668 0-.71-.171-1.257-.513-1.64a1.608 1.608 0 0 0-1.258-.574c-.501 0-.922.191-1.264.574s-.513.934-.513 1.654zM418.718 75h-1.921v-3.705c0-.784-.041-1.29-.123-1.518a1.063 1.063 0 0 0-.403-.54 1.131 1.131 0 0 0-.664-.191 1.54 1.54 0 0 0-.895.273 1.397 1.397 0 0 0-.547.725c-.096.3-.144.857-.144 1.668V75h-1.92v-7.26h1.784v1.067c.633-.82 1.431-1.23 2.392-1.23.424 0 .812.077 1.162.232.351.15.616.344.793.58.183.238.308.507.376.807.073.301.11.732.11 1.292z" fill="#252423"/><path d="M320.539 89.24l1.072-.093c.051.43.168.783.352 1.06.187.274.476.496.867.668.391.168.83.252 1.318.252a3.16 3.16 0 0 0 1.149-.193c.332-.13.578-.305.738-.528a1.23 1.23 0 0 0 .246-.738c0-.27-.078-.504-.234-.703-.156-.203-.414-.373-.774-.51-.23-.09-.74-.228-1.529-.416-.789-.191-1.342-.371-1.658-.539-.41-.215-.717-.48-.92-.797a1.991 1.991 0 0 1-.299-1.072c0-.434.123-.838.369-1.213.246-.379.606-.666 1.078-.861a4.093 4.093 0 0 1 1.577-.293c.636 0 1.197.103 1.681.31.489.203.864.504 1.125.903.262.398.403.85.422 1.353l-1.09.082c-.058-.543-.258-.953-.597-1.23-.336-.278-.834-.416-1.494-.416-.688 0-1.19.127-1.506.38-.313.25-.469.553-.469.909 0 .308.111.562.334.761.219.2.789.405 1.711.616.926.207 1.56.388 1.904.545.5.23.869.523 1.108.879.238.351.357.757.357 1.218 0 .457-.131.889-.393 1.295-.261.403-.638.717-1.13.944a3.956 3.956 0 0 1-1.653.334c-.777 0-1.43-.114-1.957-.34a2.766 2.766 0 0 1-1.236-1.02 2.931 2.931 0 0 1-.469-1.547zm10.559 1.817l.152.931a3.909 3.909 0 0 1-.797.094c-.383 0-.68-.06-.891-.182a1.024 1.024 0 0 1-.445-.474c-.086-.2-.129-.615-.129-1.248v-3.58h-.773v-.82h.773v-1.542l1.049-.633v2.174h1.061v.82h-1.061v3.64c0 .3.018.494.053.58a.46.46 0 0 0 .181.205.73.73 0 0 0 .364.076 3.5 3.5 0 0 0 .463-.041zm5.097.175c-.39.332-.767.567-1.131.704a3.232 3.232 0 0 1-1.16.205c-.683 0-1.209-.166-1.576-.498-.367-.336-.551-.764-.551-1.284 0-.304.069-.582.205-.832.141-.254.323-.457.545-.609a2.61 2.61 0 0 1 .762-.346 7.73 7.73 0 0 1 .938-.158c.851-.102 1.478-.223 1.88-.363l.006-.276c0-.43-.099-.732-.299-.908-.269-.238-.669-.357-1.201-.357-.496 0-.863.088-1.101.263-.235.172-.408.479-.522.92l-1.031-.14c.094-.442.248-.797.463-1.067.215-.273.525-.482.932-.627.406-.148.876-.222 1.412-.222.531 0 .963.062 1.295.187s.576.283.732.475c.156.187.266.426.328.715.035.18.053.504.053.972v1.407c0 .98.021 1.601.064 1.863.047.258.137.506.27.744h-1.102a2.262 2.262 0 0 1-.211-.768zm-.088-2.355c-.382.156-.957.289-1.722.398-.434.063-.74.133-.92.211a.906.906 0 0 0-.563.844c0 .281.106.516.317.703.215.188.527.281.937.281.406 0 .768-.087 1.084-.263a1.66 1.66 0 0 0 .698-.733c.113-.238.169-.59.169-1.054zm6.768.844l1.037.135c-.113.714-.404 1.275-.873 1.681-.465.402-1.037.604-1.717.604-.851 0-1.537-.278-2.056-.832-.516-.559-.774-1.358-.774-2.397 0-.672.112-1.26.334-1.764a2.32 2.32 0 0 1 1.014-1.13 3.013 3.013 0 0 1 1.488-.381c.676 0 1.229.172 1.658.515.43.34.705.825.826 1.454l-1.025.158c-.098-.418-.271-.733-.521-.944a1.331 1.331 0 0 0-.897-.316c-.531 0-.963.191-1.295.574-.332.379-.498.98-.498 1.805 0 .836.16 1.443.481 1.822.32.379.738.568 1.254.568.414 0 .759-.126 1.037-.38.277-.254.453-.645.527-1.172zM344.82 92v-8.59h1.055v4.899l2.496-2.532h1.365l-2.379 2.309 2.62 3.914h-1.301l-2.057-3.182-.744.715V92zm9.123-4.184c0-1.425.383-2.54 1.149-3.345.765-.809 1.754-1.213 2.965-1.213.793 0 1.507.19 2.144.568a3.687 3.687 0 0 1 1.453 1.588c.336.676.504 1.443.504 2.303 0 .87-.176 1.65-.527 2.338a3.623 3.623 0 0 1-1.494 1.564 4.29 4.29 0 0 1-2.086.528c-.809 0-1.531-.196-2.168-.587a3.767 3.767 0 0 1-1.447-1.6 4.836 4.836 0 0 1-.493-2.144zm1.172.018c0 1.035.278 1.852.832 2.45.559.593 1.258.89 2.098.89.855 0 1.559-.301 2.109-.903.555-.601.832-1.455.832-2.56 0-.7-.119-1.309-.357-1.828a2.678 2.678 0 0 0-1.037-1.213 2.784 2.784 0 0 0-1.53-.434c-.804 0-1.498.278-2.08.832-.578.551-.867 1.473-.867 2.766zM365.223 92l-2.368-6.223h1.114l1.336 3.727c.144.402.277.82.398 1.254.094-.328.225-.723.393-1.184l1.383-3.797h1.083L366.207 92zm8.531-2.004l1.09.135c-.172.637-.49 1.13-.955 1.482s-1.059.528-1.782.528c-.91 0-1.632-.28-2.168-.838-.531-.563-.796-1.35-.796-2.362 0-1.047.269-1.859.808-2.437s1.238-.867 2.098-.867c.832 0 1.512.283 2.039.85.527.566.791 1.363.791 2.39 0 .063-.002.156-.006.281h-4.641c.039.684.233 1.207.58 1.57.348.364.782.545 1.301.545.387 0 .717-.101.991-.304.273-.203.49-.528.65-.973zm-3.463-1.705h3.475c-.047-.523-.18-.916-.399-1.178a1.615 1.615 0 0 0-1.306-.61c-.485 0-.893.163-1.225.487-.328.325-.51.758-.545 1.301zM376.162 92v-6.223h.949v.944c.243-.442.465-.733.668-.873.207-.141.434-.211.68-.211.355 0 .717.113 1.084.34l-.363.978a1.51 1.51 0 0 0-.774-.228 1 1 0 0 0-.621.21 1.112 1.112 0 0 0-.392.575 4.083 4.083 0 0 0-.176 1.23V92zm4.26 0v-5.402h-.932v-.82h.932v-.663c0-.418.037-.728.111-.931a1.34 1.34 0 0 1 .533-.662c.258-.172.618-.258 1.079-.258.296 0 .625.035.984.105l-.158.92a3.54 3.54 0 0 0-.621-.058c-.321 0-.547.068-.68.205-.133.136-.199.392-.199.767v.574h1.213v.82h-1.213V92zm3.064 0v-8.59h1.055V92zm2.303-3.111c0-1.153.32-2.006.961-2.56.535-.462 1.188-.692 1.957-.692.855 0 1.555.281 2.098.844.543.558.814 1.332.814 2.32 0 .8-.121 1.431-.363 1.892a2.531 2.531 0 0 1-1.049 1.067c-.457.254-.957.38-1.5.38-.871 0-1.576-.279-2.115-.837-.535-.559-.803-1.364-.803-2.414zm1.084 0c0 .797.174 1.394.522 1.793.347.394.785.591 1.312.591.523 0 .959-.199 1.307-.597.347-.399.521-1.006.521-1.823 0-.769-.176-1.351-.527-1.746a1.656 1.656 0 0 0-1.301-.597c-.527 0-.965.197-1.312.592-.348.394-.522.99-.522 1.787zM394.01 92l-1.905-6.223h1.09l.991 3.592.369 1.336c.015-.066.123-.494.322-1.283l.99-3.645h1.084l.932 3.61.31 1.19.358-1.202 1.066-3.598h1.026L398.697 92h-1.095l-.991-3.727-.24-1.06-1.26 4.787zm11.115 0v-5.402h-.932v-.82h.932v-.663c0-.418.037-.728.111-.931.102-.274.28-.495.534-.662.257-.172.617-.258 1.078-.258.297 0 .625.035.984.105l-.158.92a3.54 3.54 0 0 0-.621-.058c-.321 0-.547.068-.68.205-.133.136-.199.392-.199.767v.574h1.213v.82h-1.213V92zm2.695-3.111c0-1.153.321-2.006.961-2.56.535-.462 1.188-.692 1.957-.692.856 0 1.555.281 2.098.844.543.558.814 1.332.814 2.32 0 .8-.121 1.431-.363 1.892a2.531 2.531 0 0 1-1.049 1.067c-.457.254-.957.38-1.5.38-.871 0-1.576-.279-2.115-.837-.535-.559-.803-1.364-.803-2.414zm1.084 0c0 .797.174 1.394.522 1.793.347.394.785.591 1.312.591.524 0 .959-.199 1.307-.597.348-.399.521-1.006.521-1.823 0-.769-.175-1.351-.527-1.746a1.656 1.656 0 0 0-1.301-.597c-.527 0-.965.197-1.312.592-.348.394-.522.99-.522 1.787zM414.881 92v-6.223h.949v.944c.242-.442.465-.733.668-.873.207-.141.434-.211.68-.211.355 0 .717.113 1.084.34l-.364.978a1.504 1.504 0 0 0-.773-.228 1 1 0 0 0-.621.21 1.108 1.108 0 0 0-.393.575 4.115 4.115 0 0 0-.175 1.23V92zm9.445 0v-7.576h-2.83V83.41h6.809v1.014h-2.842V92zm7.94-2.004l1.089.135c-.171.637-.49 1.13-.955 1.482-.464.352-1.058.528-1.781.528-.91 0-1.633-.28-2.168-.838-.531-.563-.797-1.35-.797-2.362 0-1.047.27-1.859.809-2.437s1.238-.867 2.098-.867c.832 0 1.511.283 2.039.85.527.566.791 1.363.791 2.39 0 .063-.002.156-.006.281h-4.641c.039.684.233 1.207.58 1.57.348.364.781.545 1.301.545.387 0 .717-.101.99-.304.274-.203.49-.528.651-.973zm-3.463-1.705h3.474c-.047-.523-.179-.916-.398-1.178a1.617 1.617 0 0 0-1.307-.61c-.484 0-.892.163-1.224.487-.328.325-.51.758-.545 1.301zm9.943 2.941c-.391.332-.767.567-1.131.704a3.232 3.232 0 0 1-1.16.205c-.684 0-1.209-.166-1.576-.498-.367-.336-.551-.764-.551-1.284 0-.304.068-.582.205-.832.141-.254.322-.457.545-.609a2.61 2.61 0 0 1 .762-.346c.207-.054.519-.107.937-.158.852-.102 1.479-.223 1.881-.363l.006-.276c0-.43-.1-.732-.299-.908-.269-.238-.67-.357-1.201-.357-.496 0-.863.088-1.102.263-.234.172-.408.479-.521.92l-1.031-.14c.094-.442.248-.797.463-1.067.215-.273.525-.482.931-.627.407-.148.877-.222 1.412-.222.532 0 .963.062 1.295.187s.577.283.733.475c.156.187.265.426.328.715.035.18.053.504.053.972v1.407c0 .98.021 1.601.064 1.863.047.258.137.506.27.744h-1.102a2.24 2.24 0 0 1-.211-.768zm-.088-2.355c-.383.156-.957.289-1.722.398-.434.063-.741.133-.92.211a.906.906 0 0 0-.563.844c0 .281.106.516.317.703.214.188.527.281.937.281.406 0 .768-.087 1.084-.263.316-.18.549-.424.697-.733.114-.238.17-.59.17-1.054zM441.365 92v-6.223h.944v.873a2.2 2.2 0 0 1 .779-.732 2.17 2.17 0 0 1 1.107-.281c.461 0 .838.095 1.131.287.297.191.506.459.627.803.492-.727 1.133-1.09 1.922-1.09.617 0 1.092.172 1.424.515.332.34.498.866.498 1.576V92h-1.049v-3.92c0-.422-.035-.724-.105-.908a.87.87 0 0 0-.37-.451 1.157 1.157 0 0 0-.632-.17c-.438 0-.801.146-1.09.44-.289.288-.434.753-.434 1.394V92h-1.055v-4.043c0-.469-.085-.82-.257-1.055-.172-.234-.453-.351-.844-.351-.297 0-.572.078-.826.234-.25.156-.432.385-.545.686-.113.3-.17.734-.17 1.3V92zm9.574-1.857l1.043-.165c.059.419.221.739.487.962.269.222.644.333 1.125.333.484 0 .844-.097 1.078-.292.234-.2.351-.432.351-.698a.64.64 0 0 0-.31-.562c-.145-.094-.504-.213-1.078-.358-.774-.195-1.311-.363-1.612-.504a1.608 1.608 0 0 1-.679-.591 1.592 1.592 0 0 1-.229-.838c0-.278.063-.534.188-.768.129-.238.302-.435.521-.592a2.16 2.16 0 0 1 .668-.304c.285-.086.59-.13.914-.13.489 0 .916.071 1.283.212.372.14.645.332.821.574.176.238.297.559.363.96l-1.031.141c-.047-.32-.184-.57-.41-.75-.223-.18-.539-.27-.95-.27-.484 0-.83.081-1.037.241s-.31.348-.31.563c0 .136.043.26.129.369.086.113.22.207.404.281.105.04.416.129.932.27.746.199 1.265.363 1.558.492.297.125.53.308.697.55.168.243.252.543.252.903 0 .351-.103.684-.31.996-.203.309-.498.549-.885.72a3.264 3.264 0 0 1-1.312.253c-.809 0-1.426-.168-1.852-.504-.422-.336-.691-.834-.809-1.494z" fill="#616161"/><path d="M268 153h532v2H268z" fill="#6264a7"/><path d="M271.111 187v-7.576h-2.83v-1.014h6.809v1.014h-2.842V187zm4.577-7.377v-1.213h1.054v1.213zm0 7.377v-6.223h1.054V187zm4.968-.943l.153.931a3.884 3.884 0 0 1-.797.094c-.383 0-.68-.061-.891-.182a1.02 1.02 0 0 1-.445-.474c-.086-.199-.129-.615-.129-1.248v-3.58h-.774v-.821h.774v-1.541l1.049-.632v2.173h1.06v.821h-1.06v3.638c0 .301.017.494.052.58.04.086.1.155.182.205a.715.715 0 0 0 .363.077c.118 0 .272-.014.463-.041zm1.014.943v-8.59h1.055V187zm6.955-2.004l1.09.135c-.172.637-.49 1.131-.955 1.482-.465.352-1.059.528-1.781.528-.911 0-1.633-.28-2.168-.838-.532-.563-.797-1.35-.797-2.362 0-1.046.269-1.859.808-2.437s1.239-.867 2.098-.867c.832 0 1.512.283 2.039.849.527.567.791 1.364.791 2.391 0 .062-.002.156-.006.281h-4.64c.039.684.232 1.207.58 1.571.347.363.781.544 1.3.544.387 0 .717-.101.991-.304.273-.203.49-.528.65-.973zm-3.463-1.705h3.475c-.047-.523-.18-.916-.399-1.178a1.616 1.616 0 0 0-1.306-.609c-.485 0-.893.162-1.225.486-.328.324-.51.758-.545 1.301z" fill="#484644"/><path d="M294.62 275.08l-1.52-5.42h-.06l-1.5 5.42zm-7.92 1.05l-1.17-4.11h-.08l-1.13 4.11zm11.61 3.87h-2.25l-.95-3.25h-4.07l-.95 3.25h-2.25l-.69-2.33h-3.28l-.7 2.33H281l3.3-9.59h2.5l2.17 6.34 2.89-8.75h2.52l3.94 12zm19.69-9c0-1.5-1.57-3-3.5-3H309v12h6.25c1.79 0 3.25-1.71 3.25-3.5 0-1.3-.9-2.48-2-3 .83-.58 1.5-1 1.5-2.5zm-6.5-1h2.5a1.503 1.503 0 0 1 1.5 1.5 1.503 1.503 0 0 1-1.5 1.5h-2.5zm3 8h-3v-3h3a1.503 1.503 0 0 1 1.5 1.5 1.503 1.503 0 0 1-1.5 1.5zm21.5-10v2h2.58l-3.66 8H332v2h8v-2h-2.58l3.66-8H344v-2zm25 1.41l-1.41-1.41-6 6 6 6 1.41-1.41-4.59-4.59zm2 0l1.41-1.41 6 6-6 6-1.41-1.41 4.59-4.59z" fill="#3c4146"/><path d="M400.223 276.831a5.99 5.99 0 0 0 1.614.845l.616-1.798a4.095 4.095 0 0 1-2.762-4.152 4.1 4.1 0 1 1 6.801 3.349l1.257 1.426a6.007 6.007 0 0 0 1.411-7.161 6 6 0 1 0-8.937 7.491z" fill="#c8ccd0"/><path d="M403.646 271.235a5.976 5.976 0 0 0-1.597-.874l-.649 1.786a4.103 4.103 0 0 1 2.685 4.202 4.105 4.105 0 0 1-5.963 3.295 4.098 4.098 0 0 1-.776-6.768l-1.23-1.449a5.99 5.99 0 0 0-1.981 3.306 6.005 6.005 0 0 0 3.116 6.6 5.992 5.992 0 0 0 3.81.572 5.994 5.994 0 0 0 4.917-5.394 5.992 5.992 0 0 0-2.332-5.276z" fill="#c8ccd0"/><g fill="#3c4146"><path d="M419 269a2 2 0 0 1 2-2h4a2 2 0 0 1 2 2v9l-1.75 3H423l1.75-3H421a2 2 0 0 1-2-2zm9 0a2 2 0 0 1 2-2h4a2 2 0 0 1 2 2v9l-1.75 3H432l1.75-3H430a2 2 0 0 1-2-2z"/><path clip-rule="evenodd" d="M445 268a2 2 0 0 1 2-2h10l4 4v10a2 2 0 0 1-2 2h-12a2 2 0 0 1-2-2zm9.711 2l-1.41 1.41 2.59 2.59-2.59 2.59 1.41 1.41 4-4zm-1.998 1.41l-1.41-1.41-4 4 4 4 1.41-1.41-2.59-2.59z" fill-rule="evenodd"/><path d="M469 268c0-1.1.9-2 2-2h12c1.089 0 2 .911 2 2v12c0 1.089-.911 2-2 2h-12c-1.089 0-2-.911-2-2zm4.5 7.5L470 280h14l-4.5-6-3.5 4.51zm0-4.5a1.503 1.503 0 0 0 1.5-1.5 1.503 1.503 0 0 0-1.5-1.5 1.503 1.503 0 0 0-1.5 1.5 1.503 1.503 0 0 0 1.5 1.5z"/><path clip-rule="evenodd" d="M493 268a2 2 0 0 1 2-2h12a2 2 0 0 1 2 2v12a2 2 0 0 1-2 2h-12a2 2 0 0 1-2-2zm7 4v-4h-5v4zm0 4v-2h-5v2zm7-2h-5v2h5zm0 6v-2h-5v2zm-7-2h-5v2h5zm7-10h-5v4h5zm32 3h1v-4h-2v1h1zm.8 2H538v-1h3v.9l-1.8 2.1h1.8v1h-3v-.9zm-1.8 5v-1h3v4h-3v-1h2v-.5h-1v-1h1v-.5zm5-8v-2h9v2zm0 10h9v-2h-9zm9-5h-9v-2h9z" fill-rule="evenodd"/><path d="M566.25 269a1.25 1.25 0 1 1-2.5 0 1.25 1.25 0 0 1 2.5 0zm10.75 1h-9v-2h9zm0 10h-9v-2h9zm-9-5h9v-2h-9zm-1.75 4a1.25 1.25 0 1 1-2.5 0 1.25 1.25 0 0 1 2.5 0zm-1.25-3.75a1.25 1.25 0 1 0 0-2.5 1.25 1.25 0 0 0 0 2.5zm25-2.25h14v2h-14z"/><path d="M590 267h14v1h-14zm0 3h14v1h-14zm0 7h14v1h-14zm0 3h14v1h-14z" opacity=".4"/><path d="M636 266c-4.357 0-8 3.643-8 8s3.643 8 8 8 8-3.643 8-8-3.643-8-8-8zm.81 12.13c-.02.71-.55 1.15-1.24 1.13-.66-.02-1.17-.49-1.15-1.2.02-.72.56-1.18 1.22-1.16.7.03 1.2.51 1.17 1.23zm1.96-5.13c-.586.663-1.778 1.085-2.05 1.97a3.95 3.95 0 0 0-.09.75c0 .05-.03.16-.18.16h-1.57c-.16 0-.18-.1-.18-.15.062-1.353.661-2.199 1.83-2.88.387-.29.692-.747.698-1.241.015-1.24-1.637-1.819-2.348-.719-.21.33-.18.73-.18 1.1h-1.95c0-1.971 1.027-3.26 3.03-3.26 1.755 0 3.47.874 3.47 2.83 0 .57-.2 1.05-.48 1.44z"/></g><path d="M271.111 518v-7.576h-2.83v-1.014h6.809v1.014h-2.842V518zm7.741-.768c-.391.332-.768.567-1.131.704-.36.136-.746.205-1.16.205-.684 0-1.209-.166-1.577-.498-.367-.336-.55-.764-.55-1.284a1.738 1.738 0 0 1 .75-1.441 2.6 2.6 0 0 1 .761-.346 7.73 7.73 0 0 1 .938-.158c.851-.102 1.478-.223 1.881-.363l.006-.276c0-.429-.1-.732-.299-.908-.27-.238-.67-.357-1.201-.357-.497 0-.864.088-1.102.263-.234.172-.408.479-.522.92l-1.031-.14c.094-.442.248-.797.463-1.067.215-.273.526-.482.932-.627.406-.148.877-.222 1.412-.222.531 0 .963.062 1.295.187s.576.283.732.475c.156.187.266.426.328.715.035.179.053.504.053.972v1.407c0 .98.022 1.601.065 1.863.046.258.136.506.269.744h-1.102a2.243 2.243 0 0 1-.21-.768zm-.088-2.355c-.383.156-.957.289-1.723.398-.434.063-.74.133-.92.211a.913.913 0 0 0-.562.844.9.9 0 0 0 .316.703c.215.188.527.281.937.281.407 0 .768-.087 1.084-.263a1.66 1.66 0 0 0 .698-.733c.113-.238.17-.589.17-1.054zm2.513 3.639l1.026.152c.043.316.162.547.357.691.262.196.619.293 1.072.293.489 0 .866-.097 1.131-.293.266-.195.446-.468.539-.82.055-.215.08-.666.077-1.353-.461.543-1.036.814-1.723.814-.856 0-1.518-.309-1.986-.926-.469-.617-.704-1.357-.704-2.22 0-.594.108-1.141.323-1.641.215-.504.525-.893.931-1.166.41-.274.891-.41 1.442-.41.734 0 1.34.297 1.816.89v-.75h.973v5.379c0 .969-.1 1.655-.299 2.057a2.143 2.143 0 0 1-.938.961c-.425.234-.951.351-1.576.351-.742 0-1.342-.168-1.799-.504-.457-.332-.677-.833-.662-1.505zm.873-3.739c0 .817.162 1.412.487 1.787.324.375.73.563 1.218.563.485 0 .891-.186 1.219-.557.328-.375.492-.961.492-1.758 0-.761-.17-1.335-.509-1.722-.336-.387-.743-.58-1.219-.58-.469 0-.867.191-1.195.574-.329.379-.493.943-.493 1.693zm5.579 1.366l1.042-.164c.059.417.221.738.487.96.269.223.644.334 1.125.334.484 0 .844-.097 1.078-.293.234-.199.351-.431.351-.697a.639.639 0 0 0-.31-.562c-.145-.094-.504-.213-1.078-.358-.774-.195-1.311-.363-1.612-.504a1.602 1.602 0 0 1-.679-.591 1.595 1.595 0 0 1-.229-.838c0-.278.063-.534.188-.768.129-.238.303-.435.521-.592.164-.121.387-.222.668-.304a3.15 3.15 0 0 1 .914-.129c.489 0 .916.07 1.284.211.371.14.644.332.82.574.176.238.297.558.363.961l-1.031.14c-.047-.32-.184-.57-.41-.75-.223-.179-.539-.269-.95-.269-.484 0-.83.08-1.037.24s-.31.348-.31.563c0 .136.043.259.129.369.086.113.22.207.404.281.105.039.416.129.932.27.746.199 1.265.363 1.558.492.297.125.53.308.698.551.167.242.251.542.251.902 0 .351-.103.683-.31.996-.203.309-.498.549-.885.721a3.263 3.263 0 0 1-1.312.252c-.809 0-1.426-.168-1.852-.504-.422-.336-.691-.834-.808-1.494zm11.777 4.382c-.582-.734-1.074-1.593-1.477-2.578a8.015 8.015 0 0 1-.603-3.058c0-.93.15-1.821.451-2.672.352-.988.894-1.973 1.629-2.953h.756c-.473.812-.785 1.392-.938 1.74a9.462 9.462 0 0 0-.562 1.687 9.806 9.806 0 0 0-.252 2.204c0 1.878.584 3.755 1.752 5.63zm1.172-2.525l3.299-8.59h1.224l3.516 8.59h-1.295l-1.002-2.602h-3.592l-.943 2.602zm2.478-3.527h2.912l-.896-2.379a23.419 23.419 0 0 1-.61-1.782 10.926 10.926 0 0 1-.462 1.641zm8.637 2.584l.152.931a3.876 3.876 0 0 1-.797.094c-.382 0-.679-.061-.89-.182a1.021 1.021 0 0 1-.446-.474c-.085-.199-.128-.615-.128-1.248v-3.58h-.774v-.821h.774v-1.541l1.048-.632v2.173h1.061v.821h-1.061v3.638c0 .301.018.494.053.58.039.086.1.155.182.205a.715.715 0 0 0 .363.077c.117 0 .272-.014.463-.041zm4.353.943v-8.59h1.055V518zm6.956-2.004l1.089.135c-.171.637-.49 1.131-.955 1.482-.465.352-1.058.528-1.781.528-.91 0-1.633-.28-2.168-.838-.531-.563-.797-1.35-.797-2.362 0-1.046.27-1.859.809-2.437s1.238-.867 2.097-.867c.833 0 1.512.283 2.04.849.527.567.791 1.364.791 2.391 0 .062-.002.156-.006.281h-4.641c.039.684.232 1.207.58 1.571.348.363.781.544 1.301.544.387 0 .717-.101.99-.304.274-.203.49-.528.651-.973zm-3.463-1.705h3.474c-.047-.523-.179-.916-.398-1.178a1.618 1.618 0 0 0-1.307-.609c-.484 0-.892.162-1.224.486-.329.324-.51.758-.545 1.301zm9.943 2.941c-.391.332-.768.567-1.131.704a3.25 3.25 0 0 1-1.16.205c-.684 0-1.209-.166-1.576-.498-.367-.336-.551-.764-.551-1.284 0-.304.068-.582.205-.832.141-.254.322-.457.545-.609.227-.152.481-.268.762-.346.207-.054.519-.107.937-.158.852-.102 1.479-.223 1.881-.363l.006-.276c0-.429-.1-.732-.299-.908-.269-.238-.67-.357-1.201-.357-.496 0-.863.088-1.102.263-.234.172-.408.479-.521.92l-1.031-.14c.093-.442.248-.797.463-1.067.214-.273.525-.482.931-.627.406-.148.877-.222 1.412-.222.532 0 .963.062 1.295.187s.576.283.733.475c.156.187.265.426.328.715.035.179.053.504.053.972v1.407c0 .98.021 1.601.064 1.863.047.258.137.506.27.744h-1.102a2.243 2.243 0 0 1-.211-.768zm-.088-2.355c-.383.156-.957.289-1.723.398-.433.063-.74.133-.919.211a.908.908 0 0 0-.563.844c0 .281.106.516.316.703.215.188.528.281.938.281.406 0 .768-.087 1.084-.263.316-.18.549-.424.697-.733.114-.238.17-.589.17-1.054zm2.285 1.266l1.043-.164c.059.417.221.738.487.96.269.223.644.334 1.125.334.484 0 .843-.097 1.078-.293.234-.199.351-.431.351-.697a.639.639 0 0 0-.31-.562c-.145-.094-.504-.213-1.078-.358-.774-.195-1.311-.363-1.612-.504a1.597 1.597 0 0 1-.679-.591 1.595 1.595 0 0 1-.229-.838c0-.278.063-.534.188-.768.128-.238.302-.435.521-.592.164-.121.387-.222.668-.304a3.15 3.15 0 0 1 .914-.129c.488 0 .916.07 1.283.211.371.14.645.332.821.574.175.238.296.558.363.961l-1.031.14c-.047-.32-.184-.57-.411-.75-.222-.179-.539-.269-.949-.269-.484 0-.83.08-1.037.24s-.31.348-.31.563c0 .136.043.259.129.369.085.113.22.207.404.281.105.039.416.129.931.27.747.199 1.266.363 1.559.492.297.125.529.308.697.551.168.242.252.542.252.902 0 .351-.103.683-.31.996-.203.309-.498.549-.885.721a3.264 3.264 0 0 1-1.313.252c-.808 0-1.425-.168-1.851-.504-.422-.336-.692-.834-.809-1.494zm8.725.914l.152.931a3.876 3.876 0 0 1-.797.094c-.382 0-.679-.061-.89-.182a1.021 1.021 0 0 1-.446-.474c-.085-.199-.128-.615-.128-1.248v-3.58h-.774v-.821h.774v-1.541l1.048-.632v2.173h1.061v.821h-1.061v3.638c0 .301.018.494.053.58.039.086.1.155.182.205a.715.715 0 0 0 .363.077 3.5 3.5 0 0 0 .463-.041zm3.984-2.168c0-1.153.321-2.006.961-2.561.535-.461 1.188-.691 1.957-.691.856 0 1.555.281 2.098.843.543.559.814 1.332.814 2.321 0 .801-.121 1.431-.363 1.892a2.533 2.533 0 0 1-1.049 1.067 3.036 3.036 0 0 1-1.5.381c-.871 0-1.576-.28-2.115-.838-.535-.559-.803-1.364-.803-2.414zm1.084 0c0 .797.174 1.394.522 1.793.347.394.785.591 1.312.591.524 0 .959-.199 1.307-.597.348-.399.521-1.006.521-1.822 0-.77-.175-1.352-.527-1.747a1.657 1.657 0 0 0-1.301-.597c-.527 0-.965.197-1.312.592-.348.394-.522.99-.522 1.787zm5.989 3.111v-6.223h.949v.885c.457-.683 1.117-1.025 1.98-1.025.375 0 .719.068 1.031.205.317.133.553.308.709.527.157.219.266.479.329.779.039.196.058.538.058 1.026V518h-1.055v-3.785c0-.43-.041-.75-.123-.961a.994.994 0 0 0-.439-.51 1.355 1.355 0 0 0-.732-.193c-.45 0-.838.142-1.166.428-.325.285-.487.826-.487 1.623V518zm10.939-2.004l1.09.135c-.172.637-.49 1.131-.955 1.482-.465.352-1.059.528-1.781.528-.911 0-1.633-.28-2.168-.838-.532-.563-.797-1.35-.797-2.362 0-1.046.269-1.859.808-2.437s1.239-.867 2.098-.867c.832 0 1.512.283 2.039.849.527.567.791 1.364.791 2.391 0 .062-.002.156-.006.281h-4.64c.039.684.232 1.207.58 1.571.347.363.781.544 1.3.544.387 0 .717-.101.991-.304.273-.203.49-.528.65-.973zm-3.463-1.705h3.475c-.047-.523-.18-.916-.399-1.178a1.616 1.616 0 0 0-1.306-.609c-.485 0-.893.162-1.225.486-.328.324-.51.758-.545 1.301zm11.525 2.766l.153.931a3.884 3.884 0 0 1-.797.094c-.383 0-.68-.061-.891-.182a1.02 1.02 0 0 1-.445-.474c-.086-.199-.129-.615-.129-1.248v-3.58h-.773v-.821h.773v-1.541l1.049-.632v2.173h1.06v.821h-1.06v3.638c0 .301.018.494.053.58a.455.455 0 0 0 .181.205.717.717 0 0 0 .364.077c.117 0 .271-.014.462-.041zm5.098.175c-.39.332-.767.567-1.131.704a3.25 3.25 0 0 1-1.16.205c-.683 0-1.209-.166-1.576-.498-.367-.336-.551-.764-.551-1.284 0-.304.069-.582.205-.832.141-.254.323-.457.545-.609.227-.152.481-.268.762-.346.207-.054.519-.107.937-.158.852-.102 1.479-.223 1.881-.363l.006-.276c0-.429-.099-.732-.299-.908-.269-.238-.67-.357-1.201-.357-.496 0-.863.088-1.101.263-.235.172-.409.479-.522.92l-1.031-.14c.094-.442.248-.797.463-1.067.215-.273.525-.482.931-.627.407-.148.877-.222 1.412-.222.532 0 .963.062 1.295.187s.577.283.733.475c.156.187.265.426.328.715.035.179.053.504.053.972v1.407c0 .98.021 1.601.064 1.863.047.258.137.506.27.744h-1.102a2.243 2.243 0 0 1-.211-.768zm-.088-2.355c-.383.156-.957.289-1.722.398-.434.063-.741.133-.92.211a.908.908 0 0 0-.563.844c0 .281.106.516.317.703.214.188.527.281.937.281.406 0 .768-.087 1.084-.263.316-.18.549-.424.697-.733.114-.238.17-.589.17-1.054zm2.514 3.639l1.025.152c.043.316.162.547.358.691.261.196.619.293 1.072.293.488 0 .865-.097 1.131-.293.266-.195.445-.468.539-.82.055-.215.08-.666.076-1.353-.461.543-1.035.814-1.723.814-.855 0-1.517-.309-1.986-.926s-.703-1.357-.703-2.22c0-.594.107-1.141.322-1.641.215-.504.526-.893.932-1.166.41-.274.891-.41 1.441-.41.735 0 1.34.297 1.817.89v-.75h.972v5.379c0 .969-.099 1.655-.298 2.057a2.148 2.148 0 0 1-.938.961c-.426.234-.951.351-1.576.351-.742 0-1.342-.168-1.799-.504-.457-.332-.678-.833-.662-1.505zm.873-3.739c0 .817.162 1.412.486 1.787.325.375.731.563 1.219.563.484 0 .891-.186 1.219-.557.328-.375.492-.961.492-1.758 0-.761-.17-1.335-.51-1.722-.336-.387-.742-.58-1.219-.58-.468 0-.867.191-1.195.574-.328.379-.492.943-.492 1.693zm9.346-4.154v-1.213h1.054v1.213zm0 7.377v-6.223h1.054V518h-1.054zm2.244-1.857l1.043-.164c.058.417.22.738.486.96.27.223.645.334 1.125.334.485 0 .844-.097 1.078-.293.235-.199.352-.431.352-.697a.64.64 0 0 0-.311-.562c-.144-.094-.504-.213-1.078-.358-.773-.195-1.31-.363-1.611-.504a1.6 1.6 0 0 1-.68-.591 1.603 1.603 0 0 1-.228-.838c0-.278.062-.534.187-.768.129-.238.303-.435.522-.592.164-.121.386-.222.668-.304.285-.086.589-.129.914-.129.488 0 .916.07 1.283.211.371.14.644.332.82.574.176.238.297.558.363.961l-1.031.14c-.047-.32-.183-.57-.41-.75-.223-.179-.539-.269-.949-.269-.485 0-.83.08-1.037.24s-.311.348-.311.563c0 .136.043.259.129.369a.933.933 0 0 0 .404.281c.106.039.416.129.932.27.746.199 1.266.363 1.559.492.296.125.529.308.697.551.168.242.252.542.252.902 0 .351-.104.683-.311.996-.203.309-.498.549-.885.721a3.26 3.26 0 0 1-1.312.252c-.809 0-1.426-.168-1.852-.504-.421-.336-.691-.834-.808-1.494zm9.75 1.857v-6.223h.949v.944c.242-.442.465-.733.668-.873.207-.141.434-.211.68-.211.355 0 .716.113 1.084.34l-.364.978a1.507 1.507 0 0 0-.773-.228.99.99 0 0 0-.621.211 1.105 1.105 0 0 0-.393.574 4.113 4.113 0 0 0-.175 1.23V518h-1.055zm8.267-2.004l1.09.135c-.172.637-.49 1.131-.955 1.482-.465.352-1.058.528-1.781.528-.91 0-1.633-.28-2.168-.838-.531-.563-.797-1.35-.797-2.362 0-1.046.27-1.859.809-2.437s1.238-.867 2.097-.867c.832 0 1.512.283 2.039.849.528.567.791 1.364.791 2.391 0 .062-.002.156-.005.281h-4.641c.039.684.232 1.207.58 1.571.348.363.781.544 1.301.544.386 0 .717-.101.99-.304s.49-.528.65-.973zm-3.462-1.705h3.474c-.047-.523-.18-.916-.398-1.178a1.618 1.618 0 0 0-1.307-.609c-.484 0-.893.162-1.225.486-.328.324-.509.758-.544 1.301zm9.849 6.094v-3.047c-.164.23-.394.422-.691.574a2.01 2.01 0 0 1-.938.229c-.738 0-1.375-.295-1.91-.885-.531-.59-.797-1.399-.797-2.426 0-.625.108-1.185.322-1.682.219-.496.534-.871.944-1.125a2.528 2.528 0 0 1 1.359-.386c.77 0 1.375.324 1.817.972v-.832h.949v8.608zm-3.252-5.514c0 .801.168 1.402.504 1.805.336.398.738.597 1.207.597.449 0 .836-.189 1.16-.568.324-.383.487-.963.487-1.74 0-.828-.172-1.451-.516-1.869-.34-.418-.74-.627-1.201-.627-.457 0-.846.195-1.166.586-.317.386-.475.992-.475 1.816zM421.744 518v-.914c-.484.703-1.142 1.055-1.974 1.055a2.55 2.55 0 0 1-1.032-.211c-.316-.141-.552-.317-.709-.528a2.045 2.045 0 0 1-.322-.785c-.043-.207-.064-.535-.064-.984v-3.856h1.054v3.452c0 .55.022.921.065 1.113.066.277.207.496.422.656.214.156.48.234.796.234.317 0 .614-.08.891-.24.277-.164.473-.385.586-.662.117-.281.176-.687.176-1.219v-3.334h1.055V518zm2.608-7.377v-1.213h1.054v1.213zm0 7.377v-6.223h1.054V518zm2.654 0v-6.223h.949v.944c.242-.442.465-.733.668-.873.207-.141.434-.211.68-.211.355 0 .717.113 1.084.34l-.364.978a1.507 1.507 0 0 0-.773-.228c-.23 0-.438.07-.621.211a1.105 1.105 0 0 0-.393.574 4.113 4.113 0 0 0-.175 1.23V518zm8.267-2.004l1.09.135c-.172.637-.49 1.131-.955 1.482-.465.352-1.058.528-1.781.528-.91 0-1.633-.28-2.168-.838-.531-.563-.797-1.35-.797-2.362 0-1.046.27-1.859.809-2.437s1.238-.867 2.097-.867c.832 0 1.512.283 2.039.849.528.567.791 1.364.791 2.391 0 .062-.002.156-.005.281h-4.641c.039.684.232 1.207.58 1.571.348.363.781.544 1.301.544.387 0 .717-.101.99-.304s.49-.528.65-.973zm-3.462-1.705h3.474c-.047-.523-.18-.916-.398-1.178a1.618 1.618 0 0 0-1.307-.609 1.69 1.69 0 0 0-1.225.486c-.328.324-.509.758-.544 1.301zM441.73 518v-.785c-.394.617-.974.926-1.74.926a2.45 2.45 0 0 1-1.371-.411 2.73 2.73 0 0 1-.967-1.142c-.226-.492-.34-1.057-.34-1.693 0-.622.104-1.184.311-1.688.207-.508.518-.896.932-1.166s.877-.404 1.388-.404c.375 0 .709.08 1.002.24.293.156.532.361.715.615v-3.082h1.049V518zm-3.334-3.105c0 .796.168 1.392.504 1.787.336.394.733.591 1.19.591.461 0 .851-.187 1.172-.562.324-.379.486-.955.486-1.729 0-.851-.164-1.476-.492-1.875-.328-.398-.733-.597-1.213-.597-.469 0-.861.191-1.178.574-.312.383-.469.986-.469 1.811zm6.668 5.63h-.755c1.168-1.875 1.752-3.752 1.752-5.63 0-.735-.084-1.463-.252-2.186a9.25 9.25 0 0 0-.557-1.688c-.152-.351-.467-.937-.943-1.757h.755c.735.98 1.278 1.965 1.629 2.953.301.851.452 1.742.452 2.672a7.947 7.947 0 0 1-.61 3.058c-.402.985-.892 1.844-1.471 2.578zm-174.257 66c-.582-.734-1.075-1.593-1.477-2.578a8.015 8.015 0 0 1-.603-3.058c0-.93.15-1.821.451-2.672.351-.988.894-1.973 1.629-2.953h.755c-.472.812-.785 1.392-.937 1.74a9.546 9.546 0 0 0-.814 3.891c0 1.878.584 3.755 1.751 5.63zm1.769-6.709c0-1.425.383-2.541 1.149-3.345.765-.809 1.754-1.213 2.964-1.213.793 0 1.508.189 2.145.568a3.687 3.687 0 0 1 1.453 1.588c.336.676.504 1.443.504 2.303 0 .871-.176 1.65-.527 2.338a3.622 3.622 0 0 1-1.494 1.564 4.284 4.284 0 0 1-2.086.527c-.809 0-1.532-.195-2.168-.585a3.772 3.772 0 0 1-1.448-1.6 4.852 4.852 0 0 1-.492-2.145zm1.172.018c0 1.035.277 1.852.832 2.449.559.594 1.258.891 2.098.891.855 0 1.558-.301 2.109-.903.555-.601.832-1.455.832-2.56 0-.699-.119-1.309-.357-1.828a2.68 2.68 0 0 0-1.037-1.213 2.787 2.787 0 0 0-1.53-.434c-.804 0-1.498.278-2.08.832-.578.551-.867 1.473-.867 2.766zm8.379 6.551v-8.608h.961v.809c.226-.316.482-.553.767-.709.286-.16.631-.24 1.038-.24.531 0 1 .136 1.406.41.406.273.713.66.92 1.16.207.496.31 1.041.31 1.635 0 .637-.115 1.211-.345 1.722a2.583 2.583 0 0 1-.996 1.172c-.434.27-.891.405-1.372.405-.351 0-.668-.075-.949-.223a2.148 2.148 0 0 1-.685-.563v3.03zm.955-5.461c0 .801.162 1.392.486 1.775.325.383.717.574 1.178.574.469 0 .869-.197 1.201-.591.336-.399.504-1.014.504-1.846 0-.793-.164-1.387-.492-1.781-.324-.395-.713-.592-1.166-.592-.449 0-.848.211-1.195.633-.344.418-.516 1.027-.516 1.828zm8.027 2.133l.153.931a3.884 3.884 0 0 1-.797.094c-.383 0-.68-.061-.891-.182a1.02 1.02 0 0 1-.445-.474c-.086-.199-.129-.615-.129-1.248v-3.58h-.773v-.821H289v-1.541l1.049-.632v2.173h1.06v.821h-1.06v3.638c0 .301.017.494.053.58a.455.455 0 0 0 .181.205.715.715 0 0 0 .363.077c.118 0 .272-.014.463-.041zm1.043-6.434v-1.213h1.055v1.213zm0 7.377v-6.223h1.055V584zm2.274-3.111c0-1.153.32-2.006.961-2.561.535-.461 1.187-.691 1.957-.691.855 0 1.554.281 2.097.843.543.559.815 1.332.815 2.321 0 .801-.121 1.431-.363 1.892a2.539 2.539 0 0 1-1.049 1.067 3.036 3.036 0 0 1-1.5.381c-.871 0-1.576-.28-2.115-.838-.536-.559-.803-1.364-.803-2.414zm1.084 0c0 .797.174 1.394.521 1.793.348.394.785.591 1.313.591.523 0 .959-.199 1.306-.597.348-.399.522-1.006.522-1.822 0-.77-.176-1.352-.527-1.747a1.658 1.658 0 0 0-1.301-.597c-.528 0-.965.197-1.313.592-.347.394-.521.99-.521 1.787zm5.988 3.111v-6.223h.949v.885c.457-.683 1.117-1.025 1.981-1.025.375 0 .718.068 1.031.205.316.133.553.308.709.527s.266.479.328.779c.039.196.059.538.059 1.026V584H305.5v-3.785c0-.43-.041-.75-.123-.961a.998.998 0 0 0-.439-.51 1.361 1.361 0 0 0-.733-.193c-.449 0-.838.142-1.166.428-.324.285-.486.826-.486 1.623V584zm10.74-.768c-.39.332-.767.567-1.131.704a3.25 3.25 0 0 1-1.16.205c-.683 0-1.209-.166-1.576-.498-.367-.336-.551-.764-.551-1.284 0-.304.069-.582.205-.832.141-.254.323-.457.545-.609.227-.152.481-.268.762-.346a7.73 7.73 0 0 1 .938-.158c.851-.102 1.478-.223 1.88-.363l.006-.276c0-.429-.099-.732-.299-.908-.269-.238-.669-.357-1.201-.357-.496 0-.863.088-1.101.263-.235.172-.409.479-.522.92l-1.031-.14c.094-.442.248-.797.463-1.067.215-.273.525-.482.931-.627.407-.148.877-.222 1.413-.222.531 0 .962.062 1.295.187.332.125.576.283.732.475.156.187.266.426.328.715.035.179.053.504.053.972v1.407c0 .98.021 1.601.064 1.863.047.258.137.506.27.744h-1.102a2.265 2.265 0 0 1-.211-.768zm-.088-2.355c-.382.156-.957.289-1.722.398-.434.063-.74.133-.92.211a.908.908 0 0 0-.563.844c0 .281.106.516.317.703.215.188.527.281.937.281.406 0 .768-.087 1.084-.263.317-.18.549-.424.697-.733.114-.238.17-.589.17-1.054zm2.684 3.123v-8.59h1.055V584zm3.387 2.525h-.756c1.168-1.875 1.752-3.752 1.752-5.63 0-.735-.084-1.463-.252-2.186a9.25 9.25 0 0 0-.557-1.688c-.152-.351-.467-.937-.943-1.757h.756c.734.98 1.277 1.965 1.629 2.953.3.851.451 1.742.451 2.672a7.928 7.928 0 0 1-.61 3.058c-.402.985-.892 1.844-1.47 2.578zm5.168-2.525l3.299-8.59h1.224l3.516 8.59h-1.295l-1.002-2.602h-3.592l-.943 2.602zm2.478-3.527h2.912l-.896-2.379a23.419 23.419 0 0 1-.61-1.782 10.926 10.926 0 0 1-.462 1.641zm5.912 1.67l1.043-.164c.059.417.221.738.487.96.269.223.644.334 1.125.334.484 0 .843-.097 1.078-.293.234-.199.351-.431.351-.697a.639.639 0 0 0-.31-.562c-.145-.094-.504-.213-1.078-.358-.774-.195-1.311-.363-1.612-.504a1.597 1.597 0 0 1-.679-.591 1.595 1.595 0 0 1-.229-.838c0-.278.063-.534.188-.768.128-.238.302-.435.521-.592.164-.121.387-.222.668-.304a3.15 3.15 0 0 1 .914-.129c.488 0 .916.07 1.283.211.371.14.645.332.821.574.175.238.296.558.363.961l-1.031.14c-.047-.32-.184-.57-.411-.75-.222-.179-.539-.269-.949-.269-.484 0-.83.08-1.037.24s-.31.348-.31.563c0 .136.043.259.129.369.085.113.22.207.404.281.105.039.416.129.931.27.747.199 1.266.363 1.559.492.297.125.529.308.697.551.168.242.252.542.252.902 0 .351-.103.683-.31.996-.203.309-.498.549-.885.721a3.264 3.264 0 0 1-1.313.252c-.808 0-1.425-.168-1.851-.504-.422-.336-.692-.834-.809-1.494zm6.428 1.857v-8.59h1.055v4.899l2.496-2.532h1.365l-2.379 2.309 2.619 3.914h-1.301l-2.056-3.182-.744.715V584zm8.912-1.857l1.043-.164c.059.417.221.738.486.96.27.223.645.334 1.125.334.485 0 .844-.097 1.079-.293.234-.199.351-.431.351-.697a.639.639 0 0 0-.31-.562c-.145-.094-.504-.213-1.079-.358-.773-.195-1.31-.363-1.611-.504a1.605 1.605 0 0 1-.68-.591 1.603 1.603 0 0 1-.228-.838c0-.278.062-.534.187-.768.129-.238.303-.435.522-.592.164-.121.387-.222.668-.304a3.15 3.15 0 0 1 .914-.129c.488 0 .916.07 1.283.211.371.14.645.332.82.574.176.238.297.558.364.961l-1.032.14c-.046-.32-.183-.57-.41-.75-.222-.179-.539-.269-.949-.269-.484 0-.83.08-1.037.24s-.311.348-.311.563c0 .136.043.259.129.369a.93.93 0 0 0 .405.281c.105.039.416.129.931.27.746.199 1.266.363 1.559.492.297.125.529.308.697.551.168.242.252.542.252.902 0 .351-.103.683-.31.996-.204.309-.498.549-.885.721a3.264 3.264 0 0 1-1.313.252c-.808 0-1.425-.168-1.851-.504-.422-.336-.692-.834-.809-1.494zm6.422 4.242v-8.608h.961v.809c.227-.316.482-.553.768-.709.285-.16.63-.24 1.037-.24.531 0 1 .136 1.406.41.406.273.713.66.92 1.16.207.496.31 1.041.31 1.635 0 .637-.115 1.211-.345 1.722a2.583 2.583 0 0 1-.996 1.172c-.434.27-.891.405-1.372.405-.351 0-.668-.075-.949-.223a2.148 2.148 0 0 1-.685-.563v3.03zm.955-5.461c0 .801.162 1.392.486 1.775.325.383.717.574 1.178.574.469 0 .869-.197 1.201-.591.336-.399.504-1.014.504-1.846 0-.793-.164-1.387-.492-1.781-.324-.395-.713-.592-1.166-.592-.449 0-.848.211-1.195.633-.344.418-.516 1.027-.516 1.828zm9.984 1.072l1.09.135c-.172.637-.49 1.131-.955 1.482-.465.352-1.058.528-1.781.528-.91 0-1.633-.28-2.168-.838-.531-.563-.797-1.35-.797-2.362 0-1.046.27-1.859.809-2.437s1.238-.867 2.097-.867c.832 0 1.512.283 2.039.849.528.567.791 1.364.791 2.391 0 .062-.001.156-.005.281h-4.641c.039.684.232 1.207.58 1.571.348.363.781.544 1.301.544.387 0 .717-.101.99-.304.274-.203.49-.528.65-.973zm-3.462-1.705h3.474c-.047-.523-.18-.916-.398-1.178a1.618 1.618 0 0 0-1.307-.609 1.69 1.69 0 0 0-1.225.486c-.328.324-.509.758-.544 1.301zm9.943 1.43l1.037.134c-.113.715-.404 1.276-.873 1.682-.465.402-1.037.604-1.717.604-.851 0-1.537-.278-2.056-.832-.516-.559-.774-1.358-.774-2.397 0-.672.111-1.26.334-1.764.223-.503.561-.88 1.014-1.13a3.013 3.013 0 0 1 1.488-.381c.676 0 1.229.172 1.658.515.43.34.705.825.826 1.453l-1.025.159c-.098-.418-.271-.733-.521-.944a1.332 1.332 0 0 0-.897-.316c-.531 0-.963.191-1.295.574-.332.379-.498.981-.498 1.805 0 .836.16 1.443.481 1.822.32.379.738.568 1.253.568.415 0 .76-.127 1.038-.38.277-.254.453-.645.527-1.172zm1.945-5.098v-1.213h1.055v1.213zm0 7.377v-6.223h1.055V584zm2.918 0v-5.402h-.931v-.821h.931v-.662c0-.418.037-.728.112-.931.101-.274.279-.495.533-.663.258-.171.617-.257 1.078-.257.297 0 .625.035.984.105l-.158.92a3.551 3.551 0 0 0-.621-.059c-.32 0-.547.069-.68.206-.133.136-.199.392-.199.767v.574h1.213v.821h-1.213V584zm3.094-7.377v-1.213h1.055v1.213zm0 7.377v-6.223h1.055V584zm6.727-2.279l1.037.134c-.114.715-.405 1.276-.873 1.682-.465.402-1.038.604-1.717.604-.852 0-1.537-.278-2.057-.832-.515-.559-.773-1.358-.773-2.397 0-.672.111-1.26.334-1.764.222-.503.56-.88 1.013-1.13a3.014 3.014 0 0 1 1.489-.381c.675 0 1.228.172 1.658.515.43.34.705.825.826 1.453l-1.025.159c-.098-.418-.272-.733-.522-.944a1.33 1.33 0 0 0-.896-.316c-.532 0-.963.191-1.295.574-.332.379-.498.981-.498 1.805 0 .836.16 1.443.48 1.822s.738.568 1.254.568c.414 0 .76-.127 1.037-.38.278-.254.453-.645.528-1.172zm7.582 1.336l.152.931a3.884 3.884 0 0 1-.797.094c-.383 0-.68-.061-.891-.182a1.02 1.02 0 0 1-.445-.474c-.086-.199-.129-.615-.129-1.248v-3.58h-.773v-.821h.773v-1.541l1.049-.632v2.173h1.061v.821h-1.061v3.638c0 .301.018.494.053.58a.455.455 0 0 0 .181.205.717.717 0 0 0 .364.077 3.5 3.5 0 0 0 .463-.041zm5.296-1.061l1.09.135c-.172.637-.49 1.131-.955 1.482-.465.352-1.058.528-1.781.528-.91 0-1.633-.28-2.168-.838-.531-.563-.797-1.35-.797-2.362 0-1.046.27-1.859.809-2.437s1.238-.867 2.097-.867c.832 0 1.512.283 2.039.849.528.567.791 1.364.791 2.391 0 .062-.002.156-.005.281h-4.641c.039.684.232 1.207.58 1.571.348.363.781.544 1.301.544.387 0 .717-.101.99-.304s.49-.528.65-.973zm-3.462-1.705h3.474c-.047-.523-.18-.916-.398-1.178a1.618 1.618 0 0 0-1.307-.609 1.69 1.69 0 0 0-1.225.486c-.328.324-.509.758-.544 1.301zm9.943 2.941c-.391.332-.768.567-1.131.704a3.25 3.25 0 0 1-1.16.205c-.684 0-1.209-.166-1.576-.498-.367-.336-.551-.764-.551-1.284 0-.304.068-.582.205-.832.141-.254.322-.457.545-.609.226-.152.48-.268.762-.346.207-.054.519-.107.937-.158.852-.102 1.479-.223 1.881-.363l.006-.276c0-.429-.1-.732-.299-.908-.269-.238-.67-.357-1.201-.357-.496 0-.863.088-1.102.263-.234.172-.408.479-.521.92l-1.031-.14c.093-.442.248-.797.462-1.067.215-.273.526-.482.932-.627.406-.148.877-.222 1.412-.222.531 0 .963.062 1.295.187s.576.283.733.475c.156.187.265.426.328.715.035.179.052.504.052.972v1.407c0 .98.022 1.601.065 1.863.047.258.137.506.269.744h-1.101a2.22 2.22 0 0 1-.211-.768zm-.088-2.355c-.383.156-.957.289-1.723.398-.433.063-.74.133-.92.211a.918.918 0 0 0-.416.346.89.89 0 0 0-.146.498.9.9 0 0 0 .316.703c.215.188.528.281.938.281.406 0 .767-.087 1.084-.263.316-.18.549-.424.697-.733.113-.238.17-.589.17-1.054zm2.707 3.123v-6.223h.943v.873c.196-.304.455-.548.78-.732a2.164 2.164 0 0 1 1.107-.281c.461 0 .838.095 1.131.287.297.191.506.459.627.803.492-.727 1.133-1.09 1.922-1.09.617 0 1.092.172 1.424.515.332.34.498.866.498 1.577V584h-1.049v-3.92c0-.422-.035-.725-.106-.908a.86.86 0 0 0-.369-.451 1.152 1.152 0 0 0-.633-.17c-.437 0-.8.146-1.089.439-.289.289-.434.754-.434 1.395V584h-1.055v-4.043c0-.469-.086-.82-.258-1.055-.171-.234-.453-.351-.843-.351-.297 0-.573.078-.826.234-.25.156-.432.385-.545.686-.114.3-.17.734-.17 1.3V584zm13.336 0v-6.223h.943v.873c.196-.304.455-.548.78-.732a2.164 2.164 0 0 1 1.107-.281c.461 0 .838.095 1.131.287.297.191.506.459.627.803.492-.727 1.133-1.09 1.922-1.09.617 0 1.092.172 1.424.515.332.34.498.866.498 1.577V584h-1.049v-3.92c0-.422-.035-.725-.106-.908a.86.86 0 0 0-.369-.451 1.152 1.152 0 0 0-.633-.17c-.437 0-.8.146-1.089.439-.29.289-.434.754-.434 1.395V584h-1.055v-4.043c0-.469-.086-.82-.258-1.055-.171-.234-.453-.351-.843-.351-.297 0-.573.078-.826.234-.25.156-.432.385-.545.686-.114.3-.17.734-.17 1.3V584zm14.256-2.004l1.09.135c-.172.637-.491 1.131-.955 1.482-.465.352-1.059.528-1.782.528-.91 0-1.632-.28-2.168-.838-.531-.563-.796-1.35-.796-2.362 0-1.046.269-1.859.808-2.437s1.238-.867 2.098-.867c.832 0 1.511.283 2.039.849.527.567.791 1.364.791 2.391 0 .062-.002.156-.006.281h-4.641c.039.684.233 1.207.58 1.571.348.363.782.544 1.301.544.387 0 .717-.101.99-.304.274-.203.491-.528.651-.973zm-3.463-1.705h3.475c-.047-.523-.18-.916-.399-1.178a1.616 1.616 0 0 0-1.307-.609c-.484 0-.892.162-1.224.486-.328.324-.51.758-.545 1.301zm5.883 3.709v-6.223h.943v.873a2.2 2.2 0 0 1 .779-.732 2.17 2.17 0 0 1 1.108-.281c.461 0 .838.095 1.131.287.297.191.506.459.627.803.492-.727 1.132-1.09 1.922-1.09.617 0 1.091.172 1.423.515.332.34.498.866.498 1.577V584h-1.048v-3.92c0-.422-.036-.725-.106-.908a.86.86 0 0 0-.369-.451 1.157 1.157 0 0 0-.633-.17c-.437 0-.801.146-1.09.439-.289.289-.433.754-.433 1.395V584h-1.055v-4.043c0-.469-.086-.82-.258-1.055-.172-.234-.453-.351-.844-.351-.296 0-.572.078-.826.234-.25.156-.431.385-.545.686-.113.3-.17.734-.17 1.3V584zm10.969 0h-.979v-8.59h1.055v3.065c.445-.559 1.013-.838 1.705-.838.383 0 .744.078 1.084.234.343.152.625.369.843.65.223.278.397.614.522 1.008.125.395.187.817.187 1.266 0 1.066-.263 1.891-.791 2.473-.527.582-1.16.873-1.898.873-.734 0-1.311-.307-1.728-.92zm-.012-3.158c0 .746.101 1.285.304 1.617.333.543.782.814 1.348.814.461 0 .86-.199 1.195-.597.336-.403.504-1 .504-1.793 0-.813-.162-1.412-.486-1.799-.32-.387-.709-.58-1.166-.58-.461 0-.859.201-1.195.603-.336.399-.504.977-.504 1.735zm9.978 1.154l1.09.135c-.172.637-.49 1.131-.955 1.482-.465.352-1.059.528-1.781.528-.91 0-1.633-.28-2.168-.838-.531-.563-.797-1.35-.797-2.362 0-1.046.27-1.859.809-2.437s1.238-.867 2.097-.867c.832 0 1.512.283 2.039.849.528.567.791 1.364.791 2.391 0 .062-.002.156-.006.281h-4.64c.039.684.232 1.207.58 1.571.348.363.781.544 1.301.544.386 0 .716-.101.99-.304.273-.203.49-.528.65-.973zm-3.463-1.705h3.475c-.047-.523-.18-.916-.398-1.178a1.618 1.618 0 0 0-1.307-.609c-.484 0-.893.162-1.225.486-.328.324-.509.758-.545 1.301zm5.872 3.709v-6.223h.949v.944c.242-.442.465-.733.668-.873a1.18 1.18 0 0 1 .679-.211c.356 0 .717.113 1.084.34l-.363.978a1.513 1.513 0 0 0-.773-.228.99.99 0 0 0-.621.211 1.105 1.105 0 0 0-.393.574 4.112 4.112 0 0 0-.176 1.23V584zm6.023 2.525c-.582-.734-1.074-1.593-1.477-2.578a8.015 8.015 0 0 1-.603-3.058c0-.93.15-1.821.451-2.672.352-.988.895-1.973 1.629-2.953h.756c-.473.812-.785 1.392-.938 1.74a9.543 9.543 0 0 0-.562 1.687 9.806 9.806 0 0 0-.252 2.204c0 1.878.584 3.755 1.752 5.63zm1.559-4.382l1.043-.164c.058.417.22.738.486.96.269.223.644.334 1.125.334.484 0 .844-.097 1.078-.293.234-.199.352-.431.352-.697a.64.64 0 0 0-.311-.562c-.145-.094-.504-.213-1.078-.358-.774-.195-1.311-.363-1.611-.504a1.6 1.6 0 0 1-.68-.591 1.595 1.595 0 0 1-.229-.838c0-.278.063-.534.188-.768.129-.238.303-.435.521-.592.164-.121.387-.222.668-.304a3.15 3.15 0 0 1 .914-.129c.489 0 .916.07 1.284.211.371.14.644.332.82.574.176.238.297.558.363.961l-1.031.14c-.047-.32-.184-.57-.41-.75-.223-.179-.539-.269-.949-.269-.485 0-.831.08-1.038.24s-.31.348-.31.563c0 .136.043.259.129.369.086.113.22.207.404.281.106.039.416.129.932.27.746.199 1.265.363 1.558.492.297.125.53.308.698.551.168.242.252.542.252.902 0 .351-.104.683-.311.996-.203.309-.498.549-.885.721a3.263 3.263 0 0 1-1.312.252c-.809 0-1.426-.168-1.852-.504-.422-.336-.691-.834-.808-1.494zm7.113 4.382h-.756c1.168-1.875 1.752-3.752 1.752-5.63 0-.735-.084-1.463-.252-2.186a9.174 9.174 0 0 0-.557-1.688c-.152-.351-.466-.937-.943-1.757h.756c.734.98 1.277 1.965 1.629 2.953.301.851.451 1.742.451 2.672a7.946 7.946 0 0 1-.609 3.058c-.403.985-.893 1.844-1.471 2.578z" fill="#484644"/><rect fill="#6264a7" height="32" rx="4" width="117" x="683" y="647"/><path d="M696.205 667.5v-10.021h3.247c1.231 0 2.033.05 2.406.15.575.15 1.055.478 1.443.984.387.502.581 1.151.581 1.949 0 .615-.112 1.132-.335 1.551-.223.42-.508.75-.855.991-.341.237-.69.395-1.046.472-.483.096-1.182.144-2.098.144h-1.319v3.78zm2.024-8.326v2.844h1.107c.797 0 1.331-.053 1.6-.158a1.332 1.332 0 0 0 .861-1.271c0-.365-.107-.665-.321-.902a1.403 1.403 0 0 0-.814-.445c-.241-.045-.727-.068-1.456-.068zm6.856 4.594c0-.638.157-1.256.472-1.853a3.233 3.233 0 0 1 1.333-1.367 3.975 3.975 0 0 1 1.934-.472c1.099 0 1.999.358 2.7 1.073.702.711 1.053 1.611 1.053 2.701 0 1.098-.355 2.009-1.066 2.734-.707.72-1.598 1.08-2.673 1.08-.665 0-1.301-.15-1.907-.451a3.103 3.103 0 0 1-1.374-1.319c-.315-.584-.472-1.292-.472-2.126zm1.969.102c0 .72.171 1.272.512 1.654a1.63 1.63 0 0 0 1.265.575 1.61 1.61 0 0 0 1.258-.575c.342-.382.513-.938.513-1.668 0-.71-.171-1.257-.513-1.64a1.608 1.608 0 0 0-1.258-.574 1.63 1.63 0 0 0-1.265.574c-.341.383-.512.934-.512 1.654zm6.357 1.559l1.928-.294c.082.373.248.658.499.854.251.192.601.287 1.053.287.496 0 .87-.091 1.121-.273a.613.613 0 0 0 .253-.513.505.505 0 0 0-.137-.362c-.096-.091-.31-.176-.643-.253-1.549-.342-2.531-.654-2.946-.937-.574-.391-.861-.936-.861-1.633 0-.629.248-1.158.745-1.586.497-.429 1.267-.643 2.31-.643.994 0 1.732.162 2.215.486.483.323.816.802.998 1.435l-1.811.335a1.113 1.113 0 0 0-.445-.649c-.214-.151-.521-.226-.922-.226-.506 0-.869.071-1.087.212a.455.455 0 0 0-.219.39c0 .136.064.253.191.348.173.128.771.308 1.791.54 1.026.233 1.741.518 2.147.855.401.342.601.818.601 1.428 0 .666-.278 1.238-.834 1.716-.556.479-1.378.718-2.467.718-.989 0-1.773-.2-2.352-.602a2.777 2.777 0 0 1-1.128-1.633zm11.799-5.189v1.531h-1.313v2.926c0 .593.012.939.035 1.039a.442.442 0 0 0 .171.24c.091.063.2.095.328.095.177 0 .435-.061.772-.184l.164 1.49a3.82 3.82 0 0 1-1.517.287c-.347 0-.659-.057-.937-.171-.278-.118-.483-.269-.615-.451-.128-.187-.217-.438-.267-.752-.041-.223-.061-.674-.061-1.353v-3.166h-.882v-1.531h.882v-1.442l1.927-1.121v2.563zm9.974 10.022v-3.651a2.765 2.765 0 0 1-.937.773c-.374.187-.777.28-1.21.28-.825 0-1.504-.31-2.037-.93-.629-.724-.943-1.706-.943-2.946 0-1.167.294-2.076.881-2.727.593-.657 1.327-.985 2.202-.985.483 0 .9.103 1.251.308.355.205.67.515.943.929v-1.073h1.77v10.022zm.061-6.481c0-.743-.153-1.294-.458-1.654-.301-.365-.679-.547-1.135-.547-.464 0-.854.185-1.169.554-.309.369-.464.955-.464 1.757 0 .797.15 1.374.451 1.729.301.351.672.526 1.114.526s.829-.198 1.162-.594c.333-.397.499-.987.499-1.771zm8.531 3.719v-1.087a2.79 2.79 0 0 1-1.046.916 2.902 2.902 0 0 1-1.36.335c-.488 0-.925-.107-1.312-.321a1.891 1.891 0 0 1-.841-.903c-.173-.387-.26-.922-.26-1.606v-4.594h1.921v3.336c0 1.021.034 1.648.102 1.88.073.228.203.41.39.547.187.132.424.198.711.198.328 0 .622-.089.882-.266.26-.183.437-.406.533-.67.096-.269.144-.923.144-1.962v-3.063h1.921v7.26zm7.985-2.311l1.914.322c-.246.702-.636 1.237-1.169 1.606-.529.365-1.192.547-1.989.547-1.263 0-2.197-.412-2.803-1.237-.479-.661-.718-1.495-.718-2.502 0-1.203.315-2.144.943-2.823.629-.684 1.425-1.026 2.386-1.026 1.08 0 1.932.358 2.557 1.073.624.711.923 1.803.895 3.275h-4.812c.014.569.168 1.014.465 1.333a1.46 1.46 0 0 0 1.107.472c.301 0 .554-.083.759-.247s.36-.428.465-.793zm.109-1.941c-.014-.556-.157-.977-.431-1.265a1.318 1.318 0 0 0-.998-.437c-.419 0-.765.153-1.039.458-.273.305-.408.72-.403 1.244zm2.803 2.181l1.928-.294c.082.373.248.658.499.854.25.192.601.287 1.052.287.497 0 .871-.091 1.121-.273a.61.61 0 0 0 .253-.513.504.504 0 0 0-.136-.362c-.096-.091-.31-.176-.643-.253-1.549-.342-2.532-.654-2.946-.937-.574-.391-.862-.936-.862-1.633 0-.629.249-1.158.746-1.586.496-.429 1.266-.643 2.31-.643.994 0 1.732.162 2.215.486.483.323.816.802.998 1.435l-1.812.335a1.107 1.107 0 0 0-.444-.649c-.214-.151-.522-.226-.923-.226-.506 0-.868.071-1.087.212a.456.456 0 0 0-.218.39c0 .136.063.253.191.348.173.128.77.308 1.791.54 1.025.233 1.741.518 2.147.855.401.342.601.818.601 1.428 0 .666-.278 1.238-.834 1.716-.556.479-1.378.718-2.468.718-.989 0-1.772-.2-2.351-.602a2.777 2.777 0 0 1-1.128-1.633zm11.799-5.189v1.531h-1.313v2.926c0 .593.012.939.034 1.039a.452.452 0 0 0 .171.24.564.564 0 0 0 .328.095c.178 0 .436-.061.773-.184l.164 1.49a3.83 3.83 0 0 1-1.518.287c-.346 0-.658-.057-.936-.171-.278-.118-.483-.269-.615-.451-.128-.187-.217-.438-.267-.752-.041-.223-.062-.674-.062-1.353v-3.166h-.881v-1.531h.881v-1.442l1.928-1.121v2.563zm1.333-.984v-1.777h1.921v1.777zm0 8.244v-7.26h1.921v7.26zm3.452-3.732c0-.638.157-1.256.472-1.853a3.233 3.233 0 0 1 1.333-1.367 3.975 3.975 0 0 1 1.934-.472c1.098 0 1.998.358 2.7 1.073.702.711 1.053 1.611 1.053 2.701 0 1.098-.355 2.009-1.066 2.734-.707.72-1.598 1.08-2.673 1.08a4.23 4.23 0 0 1-1.907-.451 3.103 3.103 0 0 1-1.374-1.319c-.315-.584-.472-1.292-.472-2.126zm1.969.102c0 .72.17 1.272.512 1.654a1.63 1.63 0 0 0 1.265.575 1.61 1.61 0 0 0 1.258-.575c.342-.382.512-.938.512-1.668 0-.71-.17-1.257-.512-1.64a1.608 1.608 0 0 0-1.258-.574 1.63 1.63 0 0 0-1.265.574c-.342.383-.512.934-.512 1.654zm13.637 3.63h-1.921v-3.705c0-.784-.041-1.29-.123-1.518a1.061 1.061 0 0 0-.403-.54 1.13 1.13 0 0 0-.663-.191c-.333 0-.631.091-.896.273a1.397 1.397 0 0 0-.546.725c-.096.301-.144.857-.144 1.668v3.288h-1.921v-7.26h1.784v1.067c.634-.821 1.431-1.231 2.393-1.231.424 0 .811.078 1.162.233.351.15.615.344.793.581.182.237.308.506.376.806.073.301.109.732.109 1.292z" fill="#fff"/></svg>