<svg width="129" height="36" viewBox="0 0 129 36" fill="none" xmlns="http://www.w3.org/2000/svg">
<path d="M123 12H26C22.6863 12 20 14.6863 20 18C20 21.3137 22.6863 24 26 24H123C126.314 24 129 21.3137 129 18C129 14.6863 126.314 12 123 12Z" fill="#4B28AD"/>
<path d="M63 0H6C2.68629 0 0 2.68629 0 6C0 9.31371 2.68629 12 6 12H63C66.3137 12 69 9.31371 69 6C69 2.68629 66.3137 0 63 0Z" fill="#42219D"/>
<path d="M76 24H10C6.68629 24 4 26.6863 4 30C4 33.3137 6.68629 36 10 36H76C79.3137 36 82 33.3137 82 30C82 26.6863 79.3137 24 76 24Z" fill="#5B34CB"/>
</svg>
