<svg fill="none" height="189" viewBox="0 0 430 189" width="430" xmlns="http://www.w3.org/2000/svg" xmlns:xlink="http://www.w3.org/1999/xlink"><linearGradient id="a" gradientUnits="userSpaceOnUse" x1="407.867" x2="411.812" y1="112.449" y2="112.451"><stop offset="0" stop-color="#99d4ff"/><stop offset="1" stop-color="#3af"/></linearGradient><linearGradient id="b" gradientUnits="userSpaceOnUse" x1="152.75" x2="156.743" y1="114.25" y2="108.62"><stop offset="0" stop-color="#fbba23"/><stop offset="1" stop-color="#ffe476"/></linearGradient><linearGradient id="c" gradientUnits="userSpaceOnUse" x1="40.6024" x2="52.4362" y1="90.3612" y2="90.3896"><stop offset="0" stop-color="#a9d9a4"/><stop offset="1" stop-color="#65bb5c"/></linearGradient><linearGradient id="d" gradientUnits="userSpaceOnUse" x1="412.653" x2="422.429" y1="57.1551" y2="64.3739"><stop offset="0" stop-color="#f56344"/><stop offset="1" stop-color="#f23b14"/></linearGradient><path d="m409.533 103.001c.118.158 2.467.315 2.467.63 0 .158-1.292 10.235-1.527 12.125-.822.63-2.349-.158-2.467-.158-.117-.157 1.41-12.754 1.527-12.597z" fill="#2c5777"/><path d="m409.533 103.001c.118.158 2.467.315 2.467.63 0 .158-1.292 10.235-1.527 12.125-.822.63-2.349-.158-2.467-.158-.117-.157 1.41-12.754 1.527-12.597z" fill="url(#a)"/><path d="m345.81 49.9006c-.138.0858-2.667-1.5178-2.805-1.4319-.139.0858-5.765 8.5966-6.76 10.385.323 1.1362 2.39 1.6895 2.603 1.7242.138-.0859 7.1-10.7632 6.962-10.6773z" fill="#2a2f6a"/><path d="m123.997 90.5661c-.132 0-2.376-1.7266-2.508-1.554-.132.1727-3.829 10.1874-4.489 12.0869.396 1.209 2.244 1.899 2.376 1.899 0 .173 4.753-12.4319 4.621-12.4319z" fill="#2c5777"/><path d="m123.997 90.5661c-.132 0-2.376-1.7266-2.508-1.554-.132.1727-3.829 10.1874-4.489 12.0869.396 1.209 2.244 1.899 2.376 1.899 0 .173 4.753-12.4319 4.621-12.4319z" fill="url(#a)"/><path d="m150.132 103.539c-.088.124-2.704 1.626-2.662 1.841.041.216 6.077 8.405 7.147 9.909 1.256.144 2.745-1.41 2.833-1.535.217-.032-7.23-10.339-7.318-10.215z" fill="url(#b)"/><path d="m52.9986 89.3121c-.1456-.1577-.4369-3.3121-.7283-3.3121-.1456 0-9.3221 2.2081-11.07 2.6812-.5827 1.104.2913 3.1544.2913 3.3121.1457.1577 11.6527-2.5235 11.507-2.6812z" fill="#2c5777"/><path d="m52.9986 89.3121c-.1456-.1577-.4369-3.3121-.7283-3.3121-.1456 0-9.3221 2.2081-11.07 2.6812-.5827 1.104.2913 3.1544.2913 3.3121.1457.1577 11.6527-2.5235 11.507-2.6812z" fill="url(#c)"/><path d="m370.219 86.0019c0 .1616-2.351 1.9397-2.213 2.1014.138.1616 5.533 8.4055 6.64 9.8604.969.3232 2.214-1.6165 2.352-1.6165.138-.1616-6.779-10.507-6.779-10.3453z" fill="url(#b)"/><path d="m83.0705 108.001c.1462.159 3.0704.633 2.9242.949 0 .158-2.3394 10.116-2.9242 11.855-1.0235.632-2.9243-.474-3.0705-.474 0 0 2.9242-12.488 3.0705-12.33z" fill="#2a2f6a"/><path d="m413.559 56.6142c.2-.0197 2.245-2.299 2.462-2.0895.109.1048 5.67 8.4463 6.699 10.0766-.205 1.2901-2.045 2.2793-2.137 2.4037-.2.0197-7.224-10.3711-7.024-10.3908z" fill="#2c5777"/><path d="m413.559 56.6142c.2-.0197 2.245-2.299 2.462-2.0895.109.1048 5.67 8.4463 6.699 10.0766-.205 1.2901-2.045 2.2793-2.137 2.4037-.2.0197-7.224-10.3711-7.024-10.3908z" fill="url(#d)"/><path d="m63.0962 50.8751c.0274.199 2.3842 2.1546 2.1832 2.3797-.1004.1126-8.2202 5.9929-9.8095 7.0841-1.297-.1554-2.3568-1.9555-2.4847-2.042-.0274-.1991 10.0835-7.6209 10.111-7.4218z" fill="#2c5777"/><path d="m63.0962 50.8751c.0274.199 2.3842 2.1546 2.1832 2.3797-.1004.1126-8.2202 5.9929-9.8095 7.0841-1.297-.1554-2.3568-1.9555-2.4847-2.042-.0274-.1991 10.0835-7.6209 10.111-7.4218z" fill="url(#d)"/><g clip-rule="evenodd" fill-rule="evenodd"><path d="m107.5 71c9.113 0 16.5-7.3873 16.5-16.5s-7.387-16.5-16.5-16.5c-9.1127 0-16.5 7.3873-16.5 16.5s7.3873 16.5 16.5 16.5zm.516-7.1156c-.31.5519-.879.9412-1.506 1.0313-.659 0-1.27-.119-1.753-.5982l-6.1877-6.1875c-.6781-.8219-.6055-2.0645.1638-2.8018.7692-.7372 2.0139-.7569 2.8059-.0444l4.228 4.125 7.343-12.9526c.552-.9761 1.827-1.3322 2.805-.7837.976.5516 1.332 1.8274.784 2.805z" fill="#5eba7d"/><path d="m425.714 30.2895c1.497-.7101 3.286-.0723 3.996 1.4247.711 1.497.073 3.2862-1.424 3.9963l-1.286-2.7105zm-24.502 18.0241c.756-.3474 1.499-.6895 2.231-1.0263 7.537-3.4717 13.746-6.3651 18.072-8.3909 2.162-1.0128 3.854-1.8089 5.006-2.3519.576-.2715 1.016-.4798 1.313-.6203l.337-.1594.086-.0405.021-.0103.006-.0026c.001-.0006.002-.0009-1.284-2.7114s-1.286-2.7103-1.287-2.7098l-.006.0025-.02.0099-.084.0398-.334.1579c-.295.1395-.734.3468-1.307.6173-1.148.5409-2.835 1.3347-4.992 2.3453-4.316 2.0211-10.513 4.909-18.038 8.3747-.637.2934-1.283.591-1.939.8926.956 1.743 1.707 3.6151 2.219 5.5834zm-44.05 19.8521c-1.113-1.6541-2.031-3.4516-2.718-5.3588-3.346 1.4744-6.732 2.9584-10.141 4.4424-21.232 9.242-43.301 18.4678-61.791 25.378-9.247 3.4562-17.561 6.3185-24.406 8.3127-6.942 2.022-12.076 3.06-15.106 3.06-6.368 0-16.815-3.032-29.546-7.9399-12.584-4.8506-26.942-11.3441-40.931-17.9015-5.86-2.7469-11.671-5.5127-17.252-8.1689-7.685-3.6578-14.933-7.1076-21.271-10.0136-.81-.3718-1.608-.7356-2.391-1.0904-.366 2.0202-.978 3.9542-1.806 5.7695.557.2535 1.123.5119 1.696.7748 6.319 2.8975 13.483 6.3076 21.121 9.9428l.001.0004v.0002c5.581 2.6566 11.415 5.4333 17.356 8.2179 14.011 6.5676 28.528 13.1366 41.319 18.0677 12.644 4.873 24.072 8.341 31.704 8.341 3.97 0 9.836-1.275 16.784-3.299 7.046-2.053 15.514-4.972 24.829-8.4534 18.635-6.9647 40.816-16.239 62.084-25.4969 3.519-1.5319 7.014-3.0637 10.465-4.585zm-267.7598 4.0301c.2006-.1839.4004-.3666.5992-.5479-1.4056-1.4342-2.6363-3.0405-3.6576-4.7842-.33.3-.6621.6031-.996.9092-10.7661 9.8689-23.7609 23.0857-36.2751 36.2881-12.5235 13.212-24.6043 26.451-33.5517 36.384-4.4745 4.967-8.16699 9.11-10.74148 12.011-1.28728 1.451-2.29513 2.591-2.98155 3.369-.34322.389-.60608.688-.78334.89l-.201039.228-.05114.058-.01301.015-.003338.004c-.000785.001-.001217.001 2.253877 1.98l-2.255094-1.979c-1.092709 1.246-.968885 3.141.276564 4.234 1.24546 1.093 3.14091.969 4.23362-.277l-2.25509-1.978c2.25509 1.978 2.25537 1.978 2.256 1.977l.00303-.003.01239-.014.04988-.057.19847-.226c.17552-.199.43659-.496.77794-.883.68272-.774 1.68659-1.91 2.96962-3.356 2.56609-2.891 6.24859-7.022 10.71169-11.977 8.9276-9.911 20.9718-23.109 33.4483-36.272 12.4857-13.1727 25.3659-26.2683 35.9749-35.9932z" fill="#27348b"/><path d="m377.5 71c9.113 0 16.5-7.3873 16.5-16.5s-7.387-16.5-16.5-16.5-16.5 7.3873-16.5 16.5 7.387 16.5 16.5 16.5zm.516-7.1156c-.31.5519-.879.9412-1.506 1.0313-.659 0-1.27-.119-1.753-.5982l-6.188-6.1875c-.678-.8219-.605-2.0645.164-2.8018.769-.7372 2.014-.7569 2.806-.0444l4.228 4.125 7.343-12.9525c.552-.9762 1.827-1.3323 2.805-.7838.976.5516 1.332 1.8274.784 2.805z" fill="#5eba7d"/></g></svg>