<svg fill="none" height="676" viewBox="0 0 979 676" width="979" xmlns="http://www.w3.org/2000/svg" xmlns:xlink="http://www.w3.org/1999/xlink"><linearGradient id="a" gradientUnits="userSpaceOnUse" x1="-35" x2="979" y1="662" y2="553"><stop offset="0" stop-color="#fafafb"/><stop offset=".178034" stop-color="#fafafb"/><stop offset=".484149" stop-color="#0095ff"/></linearGradient><linearGradient id="b" gradientUnits="userSpaceOnUse" x1="559.726" x2="669.459" y1="256.399" y2="387.21"><stop offset="0" stop-color="#e8e8e8"/><stop offset="1" stop-color="#e4e6e8"/></linearGradient><linearGradient id="c" gradientUnits="userSpaceOnUse" x1="520.669" x2="686.198" y1="350.633" y2="513.062"><stop offset=".182244" stop-color="#f7cc46"/><stop offset="1" stop-color="#f1b600"/></linearGradient><linearGradient id="d" gradientUnits="userSpaceOnUse" x1="521.008" x2="394.152" y1="556.602" y2="374.802"><stop offset="0" stop-color="#07c"/><stop offset="1" stop-color="#0095ff"/></linearGradient><linearGradient id="e" gradientUnits="userSpaceOnUse" x1="522.624" x2="394.152" y1="539.634" y2="389.346"><stop offset="0" stop-color="#abe2f9"/><stop offset="1" stop-color="#e8e8e9"/></linearGradient><linearGradient id="f" gradientUnits="userSpaceOnUse" x1="440.208" x2="479.649" y1="450.754" y2="529.748"><stop offset="0" stop-color="#2f3337"/><stop offset="1" stop-color="#3c4146"/></linearGradient><linearGradient id="g" gradientUnits="userSpaceOnUse" x1="725.432" x2="817.544" y1="474.994" y2="544.482"><stop offset="0" stop-color="#abe2f9"/><stop offset="1" stop-color="#59a4da"/></linearGradient><path d="m575 462c231-14 367-219 404-312v516c0 5.523-4.477 10-10 10h-969c127.11-174.54 344-200 575-214z" fill="url(#a)" opacity=".1"/><path d="m663.139 343.193c0 44.028-27.92 73.654-55.676 73.654-27.755 0-55.675-29.626-55.675-73.654 0-23.425 3.637-45.145 12.431-60.504 8.131-14.201 20.94-23.689 43.244-23.689 22.305 0 35.114 9.488 43.244 23.689 8.794 15.359 12.432 37.079 12.432 60.504z" stroke="url(#b)" stroke-width="30"/><rect fill="url(#c)" height="162.429" rx="12" width="173.589" x="520.669" y="350.633"/><path clip-rule="evenodd" d="m535.594 402.844c.883 4.344 5.534.269 5.534-4.164 0-18.318 14.849-33.168 33.167-33.168 1.137 0 1.559-1.588.445-1.815-2.147-.436-4.369-.665-6.644-.665-18.318 0-33.168 14.85-33.168 33.168 0 2.275.229 4.497.666 6.644z" fill="#f2f9ff" fill-rule="evenodd" opacity=".2"/><path d="m408.961 516.031c-13.026-35.088-2.882-92.416 0-96.435 1.372-1.913 18.666-3.265 35.405-9.04 18.411-6.352 36.35-17.077 36.35-17.077s16.425 10.064 33.48 17.077c17.134 7.045 34.904 11.045 37.295 13.059 4.771 4.018 11.079 58.989-1.902 92.416-14.968 38.545-58.339 73.33-68.873 73.33s-58.031-36.364-71.755-73.33z" fill="url(#d)"/><path d="m423.014 510.117c-10.53-27.025-2.33-71.18 0-74.274 1.109-1.474 15.088-2.515 28.619-6.963 14.882-4.893 29.383-13.153 29.383-13.153s13.277 7.751 27.063 13.153c13.85 5.426 28.214 8.507 30.146 10.057 3.857 3.095 8.956 45.435-1.537 71.18-12.099 29.688-47.157 56.479-55.672 56.479s-46.909-28.008-58.002-56.479z" fill="url(#e)"/><path d="m627.738 411.705c0-11.971-7.163-17.685-16.714-19.861-2.387-.544-4.51-.544-6.897-.272-13.53 1.088-16.714 13.331-16.714 20.133 0 5.985 3.184 11.426 7.163 15.507 2.918 3.265 3.449 5.442 2.388 9.795-2.388 9.522-6.633 26.934-6.633 30.199 0 .816 9.816.544 18.571.544 3.714 0 7.428.272 15.387 0-.265-4.081-2.388-11.155-3.184-15.236-1.061-4.625-2.122-9.522-2.918-13.603-1.061-4.353.531-8.706 3.714-11.971 3.449-3.537 5.837-9.25 5.837-15.235z" fill="#2f3337"/><circle cx="479.649" cy="490.119" fill="url(#f)" r="39.6293"/><rect fill="url(#g)" height="54.9248" rx="12" width="155.736" x="647.9" y="489.424"/><g fill="#2f3337"><circle cx="679.534" cy="516.886" r="10.7764"/><circle cx="710.82" cy="516.886" r="10.7764"/><ellipse cx="741.759" cy="516.886" rx="10.4288" ry="10.7764"/><circle cx="772.698" cy="516.886" r="10.7764"/></g><path d="m461.573 493.247 12.514 12.863 25.029-31.982" stroke="#f4c01e" stroke-linecap="round" stroke-linejoin="round" stroke-width="16"/></svg>