<svg width="1600" height="600" fill="none" xmlns="http://www.w3.org/2000/svg"><style>.d { animation: dash 5s infinite linear } @keyframes dash { to { stroke-dashoffset: 70 } }</style><path d="M1073 169H917a3 3 0 0 0-3 3v78.02a3 3 0 0 0 3 3h156c1.66 0 3-1.343 3-3V172c0-1.657-1.34-3-3-3z" fill="#EFF0F1"/><path opacity=".5" d="M914 172a3 3 0 0 1 3-3h34v84h-34a3 3 0 0 1-3-3v-78z" fill="#D6D9DC"/><path d="M960.95 187.07h107m-107 10h35m-35 10h5m5 0h5m-14.95 10h64" stroke="#D6D9DC" stroke-width="2" stroke-linecap="round" stroke-linejoin="round"/><path d="M919.95 174.07a1.5 1.5 0 1 0 0-3 1.5 1.5 0 0 0 0 3zm5 0a1.5 1.5 0 1 0 0-3 1.5 1.5 0 0 0 0 3zm5 0a1.5 1.5 0 1 0 0-3 1.5 1.5 0 0 0 0 3z" fill="#C8CCD0"/><path d="M961 226h11m-11 8h19" stroke="#D6D9DC" stroke-width="2" stroke-linecap="round" stroke-linejoin="round"/><path d="M986.5 234h12" stroke="#fff" stroke-width="2" stroke-linecap="round" stroke-linejoin="round"/><g filter="url(#filter0_d)"><path d="M1318.5 206.21H987.497a5.997 5.997 0 0 0-5.997 5.997v180.506a5.997 5.997 0 0 0 5.997 5.997H1318.5c3.32 0 6-2.685 6-5.997V212.207a5.995 5.995 0 0 0-6-5.997z" fill="#fff"/><path d="M1318.5 206.21H987.497a5.997 5.997 0 0 0-5.997 5.997v180.506a5.997 5.997 0 0 0 5.997 5.997H1318.5c3.32 0 6-2.685 6-5.997V212.207a5.995 5.995 0 0 0-6-5.997z" stroke="#D4D6D9"/></g><path d="M1504.87 364.24a7.635 7.635 0 0 0 1.61-3.78c1.34-6.87-1.14-14.38-1.14-14.38h-2.29l-1.83 18.14c-.46.271-.86.646-1.16 1.094a3.558 3.558 0 0 0-.41 3.079c.18.51.46.974.84 1.357a3.488 3.488 0 0 0-1 2.48c-.01.932.35 1.829 1 2.5a3.552 3.552 0 0 0-.96 1.823 3.515 3.515 0 0 0 1.52 3.644c.58.39 1.27.597 1.97.597s1.39-.207 1.97-.597a3.515 3.515 0 0 0 1.52-3.644 3.552 3.552 0 0 0-.96-1.823 3.538 3.538 0 0 0 1-2.5 3.488 3.488 0 0 0-1-2.48c.38-.381.66-.842.83-1.349a3.513 3.513 0 0 0-.39-3.063 3.489 3.489 0 0 0-1.14-1.098h.02z" fill="#180B01"/><path opacity=".05" d="M1036.35 540.07c19.22 0 34.8-.694 34.8-1.55 0-.856-15.58-1.55-34.8-1.55s-34.8.694-34.8 1.55c0 .856 15.58 1.55 34.8 1.55z" fill="#000"/><path d="M1253.28 434.5h-50.56a4.718 4.718 0 0 0-4.72 4.72v50.56c0 2.607 2.11 4.72 4.72 4.72h50.56c2.61 0 4.72-2.113 4.72-4.72v-50.56c0-2.607-2.11-4.72-4.72-4.72z" fill="#F8F8F9" stroke="#D4D6D9"/><path d="M1241.4 449.889h-14.32a6.47 6.47 0 0 0 1.89 4.571c.6.6 1.31 1.076 2.1 1.401.78.325 1.62.492 2.47.492h2.64v2.55c0 1.711.68 3.352 1.89 4.563a6.473 6.473 0 0 0 4.56 1.897v-14.229a1.245 1.245 0 0 0-1.23-1.245z" fill="#2684FF"/><path d="M1233.78 457.453h-14.33c0 1.714.69 3.358 1.9 4.571a6.45 6.45 0 0 0 4.57 1.893h2.64v2.55c0 1.714.68 3.358 1.89 4.57a6.49 6.49 0 0 0 4.57 1.894v-14.237c0-.163-.03-.324-.09-.475a1.297 1.297 0 0 0-.27-.403 1.304 1.304 0 0 0-.4-.269 1.282 1.282 0 0 0-.48-.094z" fill="url(#paint0_linear)"/><path d="M1226.29 465.002h-14.34c0 .85.17 1.692.49 2.478a6.506 6.506 0 0 0 3.51 3.499c.79.324 1.63.489 2.48.487h2.64v2.55c0 1.714.68 3.359 1.89 4.571a6.49 6.49 0 0 0 4.58 1.893v-14.233c0-.33-.14-.647-.37-.881a1.24 1.24 0 0 0-.88-.364z" fill="url(#paint1_linear)"/><path d="M938.78 399.5h-50.56a4.72 4.72 0 0 0-4.72 4.72v50.56a4.72 4.72 0 0 0 4.72 4.72h50.56a4.72 4.72 0 0 0 4.72-4.72v-50.56a4.72 4.72 0 0 0-4.72-4.72z" fill="#F8F8F9" stroke="#D4D6D9"/><path d="M913.469 424.333a4.52 4.52 0 1 0 0-9.042 4.52 4.52 0 0 0 0 9.042z" fill="#7B83EB"/><path opacity=".1" d="M913.146 420.781h-4.094l.021.091.002.007a4.526 4.526 0 0 0 5.362 3.35v-2.156a1.295 1.295 0 0 0-1.291-1.292z" fill="#000"/><path opacity=".2" d="M912.177 421.75h-2.794a4.523 4.523 0 0 0 4.086 2.583v-1.291a1.297 1.297 0 0 0-1.292-1.292z" fill="#000"/><path d="M923.641 424.656a3.39 3.39 0 1 0 0-6.78 3.39 3.39 0 0 0 0 6.78zm2.906.969h-7.616a.618.618 0 0 0-.619.619v7.857a4.964 4.964 0 0 0 3.843 4.926 4.843 4.843 0 0 0 4.051-.981 4.842 4.842 0 0 0 1.794-3.763v-7.205a1.45 1.45 0 0 0-.426-1.027 1.45 1.45 0 0 0-1.027-.426z" fill="#5059C9"/><path d="M921.219 427.078v9.203a7.746 7.746 0 0 1-14.454 3.875 6.995 6.995 0 0 1-.484-.968 8.079 8.079 0 0 1-.32-.969 7.964 7.964 0 0 1-.242-1.938v-9.203a1.447 1.447 0 0 1 1.453-1.453h12.594a1.45 1.45 0 0 1 1.453 1.453z" fill="#7B83EB"/><path opacity=".2" d="M912.177 421.75h-2.794a4.523 4.523 0 0 0 4.086 2.583v-1.291a1.297 1.297 0 0 0-1.292-1.292z" fill="#000"/><path opacity=".1" d="M914.438 425.625v12.274a1.284 1.284 0 0 1-1.008 1.25.954.954 0 0 1-.281.039h-6.868a8.079 8.079 0 0 1-.32-.969 7.964 7.964 0 0 1-.242-1.938v-9.203a1.447 1.447 0 0 1 1.453-1.453h7.266z" fill="#000"/><path opacity=".2" d="M913.469 425.625v13.243a.954.954 0 0 1-.039.281 1.28 1.28 0 0 1-1.25 1.007h-5.415a6.995 6.995 0 0 1-.484-.968 8.079 8.079 0 0 1-.32-.969 7.964 7.964 0 0 1-.242-1.938v-9.203a1.447 1.447 0 0 1 1.453-1.453h6.297z" fill="#000"/><path opacity=".2" d="M913.469 425.625v11.305a1.299 1.299 0 0 1-.379.91 1.299 1.299 0 0 1-.91.379h-6.219a7.964 7.964 0 0 1-.242-1.938v-9.203a1.447 1.447 0 0 1 1.453-1.453h6.297z" fill="#000"/><path opacity=".2" d="M907.172 425.625a1.46 1.46 0 0 0-1.028.425 1.447 1.447 0 0 0-.425 1.028v9.203c.001.654.082 1.304.242 1.938h5.251a1.296 1.296 0 0 0 1.288-1.289v-11.305h-5.328z" fill="#000"/><path d="M898.292 421.75h12.916a1.294 1.294 0 0 1 1.292 1.292v12.916a1.294 1.294 0 0 1-1.292 1.292h-12.916a1.294 1.294 0 0 1-1.292-1.292v-12.916a1.294 1.294 0 0 1 1.292-1.292z" fill="#4B53BC"/><path d="M908.605 426.57h-2.895v7.769h-1.903v-7.769h-2.912v-1.909h7.71v1.909z" fill="#fff"/><path d="M1432.78 193.6h-50.56a4.718 4.718 0 0 0-4.72 4.72v50.56c0 2.607 2.11 4.72 4.72 4.72h50.56c2.61 0 4.72-2.113 4.72-4.72v-50.56c0-2.607-2.11-4.72-4.72-4.72z" fill="#F8F8F9" stroke="#D4D6D9"/><path fill-rule="evenodd" clip-rule="evenodd" d="M1403.63 238.211a2.92 2.92 0 0 1-2.92-2.917v-7.777a2.92 2.92 0 0 1 5.84 0v7.777a2.92 2.92 0 0 1-2.92 2.917zm-7.78-7.778a2.92 2.92 0 0 1-2.92-2.916 2.92 2.92 0 0 1 2.92-2.917h2.92v2.917a2.92 2.92 0 0 1-2.92 2.916z" fill="#E01E5A"/><path fill-rule="evenodd" clip-rule="evenodd" d="M1395.85 216.822h7.78a2.92 2.92 0 0 1 2.92 2.917 2.92 2.92 0 0 1-2.92 2.917h-7.78a2.92 2.92 0 0 1-2.92-2.917 2.92 2.92 0 0 1 2.92-2.917zm7.78-7.778a2.92 2.92 0 0 1 2.92 2.917v2.917h-2.92a2.92 2.92 0 0 1-2.92-2.917 2.92 2.92 0 0 1 2.92-2.917z" fill="#36C5F0"/><path fill-rule="evenodd" clip-rule="evenodd" d="M1411.41 224.6h7.77c1.62 0 2.92 1.306 2.92 2.917 0 1.61-1.3 2.916-2.92 2.916h-7.77a2.92 2.92 0 0 1-2.92-2.916 2.92 2.92 0 0 1 2.92-2.917zm0 13.611a2.92 2.92 0 0 1-2.92-2.917v-2.916h2.92c1.61 0 2.91 1.306 2.91 2.916 0 1.611-1.3 2.917-2.91 2.917z" fill="#ECB22E"/><path fill-rule="evenodd" clip-rule="evenodd" d="M1411.41 209.044c1.61 0 2.91 1.306 2.91 2.917v7.778c0 1.611-1.3 2.917-2.91 2.917a2.92 2.92 0 0 1-2.92-2.917v-7.778a2.92 2.92 0 0 1 2.92-2.917zm7.77 7.778c1.62 0 2.92 1.306 2.92 2.917 0 1.611-1.3 2.917-2.92 2.917h-2.91v-2.917c0-1.611 1.3-2.917 2.91-2.917z" fill="#2EB67D"/><g opacity=".5"><g opacity=".5"><path opacity=".5" d="M1324.82 497.65h-36.35c-1.1 0-2 .895-2 2v17.15c0 1.104.9 2 2 2h36.35c1.1 0 2-.896 2-2v-17.15c0-1.105-.9-2-2-2z" fill="#F8F8F9"/><path opacity=".5" d="M1324.82 497.65h-36.35c-1.1 0-2 .895-2 2v17.15c0 1.104.9 2 2 2h36.35c1.1 0 2-.896 2-2v-17.15c0-1.105-.9-2-2-2z" stroke="#EFF0F1"/></g><path opacity=".5" d="M1286.08 500l40.36-.1m-38.03-.69c.22 0 .39-.175.39-.39 0-.215-.17-.39-.39-.39s-.39.175-.39.39c0 .215.17.39.39.39zm1.55 0c.22 0 .39-.175.39-.39 0-.215-.17-.39-.39-.39s-.39.175-.39.39c0 .215.17.39.39.39zm1.56 0c.22 0 .39-.175.39-.39 0-.215-.17-.39-.39-.39s-.39.175-.39.39c0 .215.17.39.39.39z" stroke="#EFF0F1"/><path opacity=".5" d="M1323.11 501.96h-26.71c-.55 0-1 .448-1 1v1.92c0 .552.45 1 1 1h26.71c.55 0 1-.448 1-1v-1.92c0-.552-.45-1-1-1z" fill="url(#paint2_linear)"/><path opacity=".5" d="M1310.42 507.44h-14.52c-.28 0-.5.224-.5.5v.57c0 .276.22.5.5.5h14.52c.28 0 .5-.224.5-.5v-.57c0-.276-.22-.5-.5-.5z" fill="url(#paint3_linear)"/><path opacity=".5" d="M1323.61 510.57h-27.71c-.28 0-.5.224-.5.5v.57c0 .276.22.5.5.5h27.71c.28 0 .5-.224.5-.5v-.57c0-.276-.22-.5-.5-.5z" fill="url(#paint4_linear)"/><path opacity=".5" d="M1311.97 513.71h-16.07c-.28 0-.5.224-.5.5v.57c0 .276.22.5.5.5h16.07c.28 0 .5-.224.5-.5v-.57c0-.276-.22-.5-.5-.5z" fill="url(#paint5_linear)"/><g opacity=".5"><path opacity=".5" d="M1292.09 505.28h-.24v.38h.24v-.38z" fill="#F8F8F9"/><path opacity=".5" d="M1292.28 505.25l-.28-.13-.29.13v.22a.38.38 0 0 0 .29.34.386.386 0 0 0 .19-.133.435.435 0 0 0 .09-.217v-.21z" fill="#C2C2C2"/></g></g><path opacity=".05" d="M1487 539.8c19.33 0 35-1.791 35-4s-15.67-4-35-4-35 1.791-35 4 15.67 4 35 4zm-99 0c19.33 0 35-1.791 35-4s-15.67-4-35-4-35 1.791-35 4 15.67 4 35 4z" fill="#000"/><path opacity=".09" d="M937 538.5h590" stroke="#818181"/><g opacity=".75"><g opacity=".5"><path opacity=".5" d="M1566.71 189.91l-.61 27.52a3.122 3.122 0 0 1-.93 2.115c-.58.558-1.34.875-2.14.885l-19.92.06c-.8 0-1.56-.316-2.12-.879a3.01 3.01 0 0 1-.88-2.121l-.09-29.33c0-.796.32-1.559.88-2.121a2.984 2.984 0 0 1 2.12-.879l19.45-.07" fill="#fff"/><path opacity=".5" d="M1566.71 189.91l-.61 27.52a3.122 3.122 0 0 1-.93 2.115c-.58.558-1.34.875-2.14.885l-19.92.06c-.8 0-1.56-.316-2.12-.879a3.01 3.01 0 0 1-.88-2.121l-.09-29.33c0-.796.32-1.559.88-2.121a2.984 2.984 0 0 1 2.12-.879l19.45-.07" stroke="#D4D6D9"/></g><path opacity=".5" d="M1543.11 197.83h20.49m-20.49 4.35h20.49m-20.8 4.35h9.93" stroke="#D4D6D9" stroke-linecap="round"/><path opacity=".5" d="M1562.66 185.02l4.34 5-3.58-.06a.778.778 0 0 1-.55-.229.672.672 0 0 1-.16-.253.766.766 0 0 1-.06-.298l.01-4.16z" fill="#D4D7DA" stroke="#D4D6D9" stroke-linecap="round" stroke-linejoin="round"/></g><path opacity=".05" d="M741 307.63c19.33 0 35-1.344 35-3 0-1.657-15.67-3-35-3s-35 1.343-35 3c0 1.656 15.67 3 35 3z" fill="#000"/><path d="M1324 222H982v2h342v-2z" fill="#F48024"/><path d="M982 251.5h342" stroke="#F8F8F8"/><path d="M989.76 216.69a2.75 2.75 0 1 0 0-5.5 2.75 2.75 0 0 0 0 5.5zm10.09 0a2.75 2.75 0 1 0 0-5.5 2.75 2.75 0 1 0 0 5.5zm10.1 0a2.75 2.75 0 1 0 0-5.5 2.75 2.75 0 1 0 0 5.5z" fill="#F8F8F9" stroke="#D4D6D9"/><path d="M1026.46 281.47l2.69 1.2v2c.07.394.06.799-.04 1.186-.11.387-.29.747-.55 1.055-.25.307-.57.555-.94.725-.36.17-.75.258-1.15.258-.41 0-.8-.088-1.16-.258-.37-.17-.69-.418-.94-.725a2.815 2.815 0 0 1-.55-1.055 2.79 2.79 0 0 1-.04-1.186v-2l2.68-1.2zm-.68 4.9h1.37l-.39-1.2a.218.218 0 0 1 .01-.138.257.257 0 0 1 .08-.112c.2-.218.31-.505.3-.8a.674.674 0 0 0-.04-.281.735.735 0 0 0-.14-.243.844.844 0 0 0-.23-.165.705.705 0 0 0-.28-.061.744.744 0 0 0-.28.061.692.692 0 0 0-.22.165.63.63 0 0 0-.15.244.663.663 0 0 0-.03.28c0 .297.11.583.31.8.04.03.06.069.08.114.01.044.01.091 0 .136l-.39 1.2z" fill="#C2C2C2"/><g opacity=".1"><path opacity=".1" d="M1278.43 273.29l.14-.14c3.53-.11 5.14-1.25 5.14-3.09v-.05c0-1.56-1.19-2.65-3.2-2.65a6.03 6.03 0 0 0-2.5.606 5.96 5.96 0 0 0-2.03 1.594l-2.09-2.22a8.466 8.466 0 0 1 6.71-3.09c3.89 0 6.53 2.17 6.53 5.64v.06c0 3.5-2.5 5-5.59 5.56v2.75h-2.75l-.36-4.97zm3.11 7.47h-2.75v2.83h2.75v-2.83z" fill="#000"/></g><path d="M1045.88 271.31l7.51-6.35 6.87 6.42-14.38-.07z" fill="#F48024"/><path opacity=".75" d="M1060.26 276.96l-7.51 6.35-6.87-6.42 14.38.07z" fill="#EFF0F1"/><path opacity=".5" d="M1297.42 230h-10.84c-.87 0-1.58.707-1.58 1.58v10.84c0 .873.71 1.58 1.58 1.58h10.84c.87 0 1.58-.707 1.58-1.58v-10.84c0-.873-.71-1.58-1.58-1.58z" fill="#C4C4C4"/><path d="M1277.35 230.5h-142.7c-.64 0-1.15.522-1.15 1.166v10.668c0 .644.51 1.166 1.15 1.166h142.7c.64 0 1.15-.522 1.15-1.166v-10.668c0-.644-.51-1.166-1.15-1.166z" fill="#fff" stroke="#E9E9E9"/><path d="M1464.5 385.5v-21H1291" stroke="#D4D6D9" stroke-linecap="round" stroke-linejoin="round" stroke-dasharray="5 5" class="d"/><path opacity=".09" d="M686 307.63h126" stroke="#818181"/><path d="M816 160.329h6V296.5h191.5" stroke="#D4D6D9" stroke-linecap="round" stroke-linejoin="round" stroke-dasharray="5 5" class="d"/><path opacity=".5" d="M1461.7 338.65c5.5 0 10.93.79 11.83 2.32.9 1.53 1.83-1.61 1.83-7.11 0-12.78-.66-12.78-.66-25.56a9.55 9.55 0 0 0-.68-3.772 9.498 9.498 0 0 0-2.09-3.213 9.626 9.626 0 0 0-3.17-2.148 9.684 9.684 0 0 0-3.76-.747c-9.5 0-9.5.28-19 .28a9.345 9.345 0 0 0-3.71.664 9.384 9.384 0 0 0-3.15 2.075c-.89.899-1.6 1.97-2.06 3.15a9.245 9.245 0 0 0-.66 3.711c0 10-.6 10-.6 20a10.203 10.203 0 0 0 3.04 7.082 10.199 10.199 0 0 0 7.14 2.918c7.85.2 7.85.35 15.7.35z" fill="#E4E6E8"/><path opacity=".5" d="M1418.3 331.59c-5.5 0-10.94.81-11.85 2.3-.91 1.49-1.22-1.67-1.22-7.17 0-12.21-.54-12.21-.54-24.42a10.573 10.573 0 0 1 3.09-7.214A10.575 10.575 0 0 1 1415 292c9.5 0 9.5.31 19 .31 1.3.009 2.58.276 3.77.785 1.2.51 2.28 1.251 3.18 2.182.9.93 1.61 2.031 2.09 3.239.47 1.207.7 2.497.67 3.794 0 9.5-.1 9.5-.1 19 0 5.5-4.11 10.2-9.61 10.2-7.85.15-7.85.08-15.7.08z" fill="#BBC0C4"/><path d="M1464 320.8a2.5 2.5 0 1 0 0-5 2.5 2.5 0 0 0 0 5zm-8 0a2.5 2.5 0 1 0 0-5 2.5 2.5 0 0 0 0 5zm-8 0a2.5 2.5 0 1 0 0-5 2.5 2.5 0 0 0 0 5z" fill="#fff"/><path opacity=".5" d="M845.497 87.41c3.231 0 6.422.464 6.951 1.363.528.899 1.075-.946 1.075-4.178 0-7.509-.388-7.509-.388-15.018a5.695 5.695 0 0 0-1.626-4.104 5.676 5.676 0 0 0-4.073-1.7c-5.582 0-5.582.164-11.164.164a5.494 5.494 0 0 0-4.028 1.61 5.492 5.492 0 0 0-1.601 4.03c0 5.876-.352 5.876-.352 11.751a5.98 5.98 0 0 0 5.981 5.876c4.612.118 4.612.206 9.225.206z" fill="#E4E6E8"/><path opacity=".5" d="M819.997 83.261c-3.232 0-6.428.476-6.963 1.352-.535.875-.717-.981-.717-4.213 0-7.174-.317-7.174-.317-14.348A6.205 6.205 0 0 1 818.058 60c5.582 0 5.582.182 11.163.182a5.745 5.745 0 0 1 5.706 5.876c0 5.581-.059 5.581-.059 11.163 0 3.232-2.415 5.993-5.647 5.993-4.612.089-4.612.047-9.224.047z" fill="#BBC0C4"/><path d="M846.848 76.922a1.47 1.47 0 1 0 0-2.939 1.47 1.47 0 0 0 0 2.939zm-4.7 0a1.47 1.47 0 1 0 0-2.939 1.47 1.47 0 0 0 0 2.939zm-4.701 0a1.47 1.47 0 1 0 0-2.939 1.47 1.47 0 0 0 0 2.939z" fill="#fff"/><path opacity=".5" d="M1521.5 54.41c3.23 0 6.42.464 6.95 1.363.53.899 1.07-.946 1.07-4.178 0-7.509-.39-7.509-.39-15.018a5.598 5.598 0 0 0-.39-2.216 5.689 5.689 0 0 0-3.1-3.15 5.67 5.67 0 0 0-2.2-.439c-5.59 0-5.59.165-11.17.165a5.5 5.5 0 0 0-4.03 1.61 5.494 5.494 0 0 0-1.21 1.85 5.428 5.428 0 0 0-.39 2.18c0 5.876-.35 5.876-.35 11.751a5.987 5.987 0 0 0 5.98 5.876c4.61.117 4.61.206 9.23.206z" fill="#E4E6E8"/><path opacity=".5" d="M1496 50.261c-3.23 0-6.43.476-6.97 1.352-.53.875-.71-.981-.71-4.213 0-7.174-.32-7.174-.32-14.348a6.203 6.203 0 0 1 1.82-4.238 6.197 6.197 0 0 1 4.24-1.814c5.58 0 5.58.182 11.16.182a5.72 5.72 0 0 1 4.08 1.743c.54.547.95 1.194 1.23 1.904.28.709.41 1.467.4 2.229 0 5.581-.06 5.581-.06 11.163 0 3.232-2.42 5.993-5.65 5.993-4.61.089-4.61.047-9.22.047z" fill="#BBC0C4"/><path d="M1522.85 43.922a1.47 1.47 0 1 0-1.47-1.469c0 .811.66 1.469 1.47 1.469zm-4.7 0a1.47 1.47 0 1 0-1.47-1.469c0 .811.66 1.469 1.47 1.469zm-4.7 0a1.47 1.47 0 1 0-1.47-1.469c0 .811.66 1.469 1.47 1.469z" fill="#fff"/><path d="M1487.86 398.07l-7.67-4.66-14.88 28.46-7.94 4.38c-.6.333-1.16.718-1.69 1.15-2.7 2.2-4 5.14-2.78 6.56 1.22 1.42 4.28.8 7-1.39l7.69-6.72c.39-.073.75-.242 1.06-.49.17-.137.32-.299.44-.48l18.77-26.81z" fill="#C49A6D"/><path d="M1501.02 474.88a5.27 5.27 0 1 0-.001-10.541 5.27 5.27 0 0 0 .001 10.541z" fill="#FFC2B8"/><path fill-rule="evenodd" clip-rule="evenodd" d="M1490.33 531.317l-.01-.627-6.4-.29-14.83 2.78c-.93.3-1.49.78-1.49 1.3v2c.04.543.5.664 1.41.899.44.115.99.257 1.65.491l19.76-.45-.08-5.09-7.14 1.256c-.41.14-.71.304-.89.463-.18.162-.22.285-.22.361v2c0 .276-.22.5-.5.5s-.5-.224-.5-.5v-2c0-.454.24-.831.56-1.114.33-.282.77-.503 1.27-.671l.07-.017 7.34-1.291z" fill="#000"/><path fill-rule="evenodd" clip-rule="evenodd" d="M1481.74 536.886c.35.53 1.31.834 2.91.954l19.76-.46.13-7-6.03.03-.49.087a.506.506 0 0 1-.41.555l-14.41 2.534c-.41.14-.71.304-.89.463-.18.162-.22.285-.22.361v2c0 .223-.15.412-.35.476z" fill="#000"/><path fill-rule="evenodd" clip-rule="evenodd" d="M1514.94 379.19a2.419 2.419 0 0 0-.2-.45 3.605 3.605 0 0 0-.23-.44 2.02 2.02 0 0 0-.47-.56 3.727 3.727 0 0 0-2.4-1.08l-22.94-.54c-3.52-.24-6.53 3.51-6.6 7l-.1 3.68-.75 3a6.422 6.422 0 0 0-1 3c-.05.822.05 1.648.32 2.428.26.781.68 1.502 1.22 2.122l-.41 19.34 9.85.171c0-.272.23-.491.5-.491h12.3l.04.002 4.95.401 1.18-6.938-1.72.094a.5.5 0 0 1-.53-.44l-1.29-10.87-1.42-11.86a.508.508 0 0 1 .44-.556c.27-.032.52.163.56.438l1.42 11.86 1.23 10.404 8.49-.464c.06-.003.11.002.16.015-.03-3.243-.31-23.325-2.6-29.266z" fill="url(#paint6_linear)"/><path fill-rule="evenodd" clip-rule="evenodd" d="M1491.23 416.87c0-.091.02-.176.07-.25h-9.76a26.734 26.734 0 0 0-2.87 12.06v6.39c0 .335.03.669.09 1l-4.71 32.22c-.08.627-.04 1.284.11 1.9l9.88 60.7 6-.13-3.21-61.14 5.67-19.565-.12-11.74a.5.5 0 0 1 1-.01l.31 30.946 2.16 33.463 1.86 27.866h6.69l2.82-61.07 4.78-33.71c0-.19.32-5.23.32-5.23 0-.6.01-1.203.02-1.805.06-4.217.12-8.379-2.75-11.158a.504.504 0 0 1-.43.181l-5.15-.418h-12.28c-.28 0-.5-.224-.5-.5z" fill="url(#paint7_linear)"/><path d="M1504.14 356.03a2.25 2.25 0 0 0-1 .23l1.08-9.36-19.78.35.77 13.93c-.2 4.12 3.41 7.54 7.9 7.52l-.16 5.22s-.18 8 6.67 5.92c0 0 4.4-.74 3.94-3.05a97.026 97.026 0 0 1-1.35-10.47 1.286 1.286 0 0 0-.15-.54l.58-5.13h1.54c.31.015.63-.035.92-.147.3-.111.56-.282.79-.501a2.372 2.372 0 0 0 .7-1.69 2.383 2.383 0 0 0-.21-.91 2.346 2.346 0 0 0-.55-.754 2.323 2.323 0 0 0-.8-.473c-.3-.101-.62-.14-.93-.115l.04-.03z" fill="#C49A6D"/><path d="M1488.07 363.42c0 1.26 1.84 2.19 4 2.07 2.16-.11 3.86-1.23 3.83-2.49l-7.83.42z" fill="#fff"/><path d="M1490.66 353.43c.17 0 .3-.134.3-.3 0-.166-.13-.3-.3-.3-.17 0-.3.134-.3.3 0 .166.13.3.3.3z" fill="#F46344"/><path d="M1483.88 354.49c.8-.3 1.66-.416 2.51-.34 1.1-.008 2.2.106 3.28.34.09.67.04 1.351-.15 2-.37.7-2.07 1.08-3.2 1.14-2.82.17-2.44-3.14-2.44-3.14zm8.88.03a6.871 6.871 0 0 1 2.56-.31c1.08.044 2.17.148 3.24.31 0 0-.63 3-3.45 3.14-1.21.07-2-.14-2.37-.9-.23-.73-.22-1.514.02-2.24z" stroke="#000" stroke-width=".5" stroke-linecap="round" stroke-linejoin="round"/><path d="M1492.76 354.34c-.54.08-1.08.12-1.62.12-.6 0-1.47-.12-1.47-.12l-.15.5c.25.175.54.278.84.3.5.045 1 .045 1.5 0 .31-.076.62-.19.9-.34v-.46z" fill="#000"/><path d="M1498.56 354.46l5.96 1.59" stroke="#000" stroke-width=".25" stroke-miterlimit="10"/><path fill-rule="evenodd" clip-rule="evenodd" d="M771.504 169.466l.636 3.293-3.53 1.05c.417 4.883.602 9.808.339 14.034.145-.036.289-.077.431-.124v.18l24.91-6.72 2.17-.59 1.47-.39-.05-.02-.19-5.53-1.94.05-23.13.53-1.116-5.763z" fill="#916037"/><path d="M762.07 114.369c-4.3-2.38-17.58-.31-17.58-.31s-.13 2.54-.27 5.95a2.251 2.251 0 0 0-.17 4.41c-.16 4.35-.27 8.93-.17 11.26a34.91 34.91 0 0 0-2.06 5.48c-.57 1.89.17 4.35 1.22 5.13 9.43 7 12.23-1.54 12.23-1.54l2.1-7.62a7.753 7.753 0 0 0 5.71-7.8s3.3-12.58-1.01-14.96z" fill="#916037"/><path d="M763.06 112.299c-2.35-6.92-5.31-6.42-9.43-6.19-4.12.23-5.78-.18-9.07 2a4.283 4.283 0 0 0-1.14 2.53 5.197 5.197 0 0 0-1.87 4.92c.51 4.28 1.78 4.73 2.51 4.6 1.2 1.19 3.75-3.19 5-4.7l.47-.48c1.84-1 3.61-.73 6.89-.49s7 2.5 7.35 2.21c.86-.62.52-.8-.71-4.4z" fill="#1D1D1B"/><path fill-rule="evenodd" clip-rule="evenodd" d="M724.3 300.01l8.58-.38 12.148 2.767a.5.5 0 0 0 .33.609c.431.137.735.303.922.465.184.16.22.283.22.358v2a.5.5 0 0 0 .277.448c-.226.185-.617.286-1.176.431-.443.115-.993.258-1.651.492l-19.76-.46.11-6.73z" fill="#000"/><path fill-rule="evenodd" clip-rule="evenodd" d="M746.74 300.029l6.4-.28 14.83 2.78c.93.3 1.49.77 1.49 1.3v2c-.04.544-.504.664-1.409.899-.443.115-.993.258-1.651.491l-19.77-.46.009-.583a.5.5 0 0 0 .861-.347v-2c0-.454-.239-.831-.565-1.113a2.41 2.41 0 0 0-.236-.181l.041-2.506z" fill="#000"/><path fill-rule="evenodd" clip-rule="evenodd" d="M728.937 196.78l.283 5.799v.11l-1.77 39-2.72 59.77 12.36.74 10.63-59.57 1.47-6.29.74 5.87v.08l-3 59.46h10.89l7.92-59.54 1.62-39.58v-6.4h-37.027a20.51 20.51 0 0 0 5.415 1.051.5.5 0 0 1-.056.999 21.498 21.498 0 0 1-6.755-1.499z" fill="url(#paint8_linear)"/><path d="M1289.82 365.71a1.32 1.32 0 1 0 .001-2.639 1.32 1.32 0 0 0-.001 2.639zM1015 298.329c1.1 0 2-.895 2-2 0-1.104-.9-2-2-2s-2 .896-2 2c0 1.105.9 2 2 2z" fill="#F8F8F9" stroke="#D4D6D9"/><path d="M799.6 166.499l-1.49 4.13 1.49-4.13zm-1.02-18.27a9.915 9.915 0 0 0-5.615 9.472 9.91 9.91 0 1 0 18.835-4.812 9.915 9.915 0 0 0-2.314-3.101 9.913 9.913 0 0 0-7.157-2.528 9.9 9.9 0 0 0-3.749.959v.01z" stroke="#0088D5" stroke-width="2" stroke-linecap="round" stroke-linejoin="round"/><path d="M805.89 163.699a7.13 7.13 0 0 0 3.35-9.49" stroke="#D4D6D9" stroke-linecap="round"/><path d="M796.79 169.999l-5.97 12.83 2.94 1.21 5.65-12.87-2.62-1.17z" fill="#fff" stroke="#0088D5" stroke-width="2" stroke-linecap="round" stroke-linejoin="round"/><path d="M1434.17 383.93l.73-1.2c.25-.453.44-.933.57-1.43 1-3.32.21-5.7-1.55-6.25-1.76-.55-3.17 1.14-4.21 4.46l-3.21 10.29 3.12 2.77 4.55-8.64z" fill="#FFC5BB"/><path d="M1385.17 334.49a7.518 7.518 0 0 0-7.19 4.21c-.97.097-1.9.41-2.74.916a6.597 6.597 0 0 0-2.07 2.007c-.53.816-.87 1.74-1 2.705-.12.965-.03 1.947.27 2.872a5.015 5.015 0 0 0-2 2.152c-.43.9-.59 1.911-.44 2.9a5.004 5.004 0 0 0 3.79 4.138 8.492 8.492 0 0 0 2.87 4.284 8.494 8.494 0 0 0 4.81 1.846l.53-8.92-2.3-.14c.23-.523.37-1.081.41-1.65v-.27a6.54 6.54 0 0 0 3.53-2.15c.21 0 .43.06.65.07a7.504 7.504 0 0 0 5.43-1.882 7.48 7.48 0 0 0 2.51-5.173 7.474 7.474 0 0 0-1.88-5.434 7.498 7.498 0 0 0-5.17-2.511l-.01.03z" fill="#5C3A34"/><path d="M1388.95 362.13l-11.72-.699-.76 12.698 11.72.698.76-12.697z" fill="#FFC5BB"/><path d="M1399.71 343.8a7.778 7.778 0 0 0-2.59-3.976 7.78 7.78 0 0 0-4.41-1.744l-1.47-.08-.88 14.8 2.22.13c.46.029.93.012 1.39-.05l-.05.9 1.7.1c1.2.071 2.39-.234 3.41-.872a5.813 5.813 0 0 0 2.26-2.69c.46-1.11.55-2.335.28-3.504a5.814 5.814 0 0 0-1.81-3.014h-.05z" fill="#5C3A34"/><path d="M1389.55 367.53l-12.55-.73 1.55-26.05 18.07 1.08-.22 19.37c-.01.872-.2 1.732-.56 2.529a6.372 6.372 0 0 1-1.51 2.104 6.377 6.377 0 0 1-2.22 1.339c-.82.292-1.69.414-2.56.358z" fill="#FFC5BB"/><path d="M1383.65 339.778l-.6 10.062a6.03 6.03 0 0 1-2.01 4.131 5.997 5.997 0 0 1-4.34 1.501l-3.82-.227.37-6.239c.07-1.29.4-2.552.97-3.714a9.835 9.835 0 0 1 2.31-3.06 9.866 9.866 0 0 1 3.31-1.937 9.862 9.862 0 0 1 3.81-.517z" fill="#5C3A34"/><path d="M1376.83 355.87l2.35.14.14-2.35c.02-.309-.02-.618-.12-.911-.1-.292-.26-.562-.47-.793-.2-.231-.45-.42-.73-.555a2.356 2.356 0 0 0-.89-.231 2.335 2.335 0 0 0-1.7.588c-.24.205-.42.454-.56.733-.13.278-.21.58-.23.889-.02.309.02.618.12.91.11.293.26.562.47.794.2.231.45.42.73.555.28.134.58.213.89.231z" fill="#fff"/><path d="M1377.47 357.15l2.55.16.15-2.56c.02-.336-.02-.673-.13-.991a2.477 2.477 0 0 0-.51-.864 2.522 2.522 0 0 0-1.76-.855 2.57 2.57 0 0 0-2.71 2.4 2.6 2.6 0 0 0 .64 1.855c.23.252.5.457.8.604.3.147.63.232.97.251z" fill="#FFC5BB"/><path d="M1398.8 341.86a3.424 3.424 0 0 0-3.21-3.61h-.68a3.43 3.43 0 0 0-1.29-1.911 3.427 3.427 0 0 0-4.34.239 3.433 3.433 0 0 0-1.07 2.042c-.29-.374-.67-.68-1.09-.899a3.302 3.302 0 0 0-1.36-.371 3.404 3.404 0 0 0-3.61 3.2 7.221 7.221 0 0 0 1.8 5.197 7.207 7.207 0 0 0 4.95 2.403l9.7.58-.44-5.06c.38-.529.61-1.158.64-1.81z" fill="#5C3A34"/><path d="M1388.17 374.89a5.883 5.883 0 0 1-1.18 3.196 5.88 5.88 0 0 1-6.17 2.132 5.865 5.865 0 0 1-4.32-4.878 5.854 5.854 0 0 1 2.85-5.867c1-.586 2.15-.862 3.31-.793.77.045 1.52.241 2.22.577.69.337 1.31.807 1.82 1.384.52.577.91 1.249 1.16 1.978.25.729.36 1.501.31 2.271z" fill="#FFC5BB"/><path fill-rule="evenodd" clip-rule="evenodd" d="M1407.48 405.02l19.75-18.32 4.3 3.65-21.57 26.9c-.9 2.129-3.2 3.408-5.48 3.048a18.848 18.848 0 0 1-3.8-.999h-.01c-.24-.09-.45-.164-.62-.212l.51-21.655-1-.024-.69 29.497c-.04.432-.09.887-.15 1.365h-33.24l-.82-11.559 29.41-10.651a.503.503 0 0 0 .3-.64.498.498 0 0 0-.64-.3l-30.15 10.92a.503.503 0 0 0-.3.64c.02.061.05.115.1.161-.86.446-1.83.676-2.81.659h-.11c-1.86-.035-3.64-1.039-4.68-2.568a5.897 5.897 0 0 1-.93-4.432c1.28-6.79 3.07-13.544 4.86-20.275.89-3.364 1.78-6.721 2.61-10.075.53-3.09 3.47-4.62 6.45-4.62h25.7c1.82-.002 3.71.153 5.32 1.086 1.78 1.028 2.98 2.749 3.55 4.694.18.653.3 1.323.35 2l3.79 21.71zm-37.05-11.297a.51.51 0 0 1 .37.602l-2.56 10.8a.51.51 0 0 1-.61.371.508.508 0 0 1-.37-.601l2.56-10.8a.512.512 0 0 1 .61-.372z" fill="url(#paint9_linear)"/><path d="M1378.06 356.3c.49 0 .88-.394.88-.88s-.39-.88-.88-.88-.88.394-.88.88.39.88.88.88z" fill="#FFDCD6"/><path d="M1389 361.43c-.04.796.24 1.575.77 2.167a3 3 0 0 0 4.24.219c.59-.534.95-1.28.99-2.076l-6-.31z" fill="#fff"/><path fill-rule="evenodd" clip-rule="evenodd" d="M1384.28 533.088l-.07 4.432 1.97.045c.03-.027.08-.05.12-.066a17.735 17.735 0 0 1 1.71-.508c.22-.058.41-.106.57-.156.24-.076.35-.134.41-.178.02-.018.03-.032.04-.099v-1.978c0-.067-.03-.19-.22-.355-.19-.161-.48-.324-.89-.46l-3.64-.677zm5.01 4.548l14.68.334c.66-.234 1.21-.376 1.65-.491.91-.235 1.37-.355 1.41-.899v-2c0-.52-.56-1-1.49-1.3l-14.83-2.78-6.39.28-.02 1.294 3.83.714c.02.004.04.01.06.016.51.163.95.385 1.27.666.32.28.57.657.57 1.11v2.037a1.16 1.16 0 0 1-.4.804c-.1.087-.22.157-.34.215z" fill="#000"/><path fill-rule="evenodd" clip-rule="evenodd" d="M1375.21 530.875v.013c-.05.272.13.533.4.584l12.31 2.293c.41.136.7.299.89.46.19.165.22.288.22.355v1.978c-.01.067-.02.081-.04.099-.06.044-.17.102-.41.178-.16.05-.35.098-.57.156l-.36.093c-.38.102-.83.231-1.35.415a.492.492 0 0 0-.33.46l-19.26-.439.11-6.74 6.39-.28 2 .375z" fill="#000"/><path fill-rule="evenodd" clip-rule="evenodd" d="M1365.82 530.771l9.44-.362v-.067l5.36-55.95v-.004l2.28-21.69a.503.503 0 0 1 1 .104l-.55 5.175 2.25 16.463h-.01l-1.27 56.35 9.38-.16 5.25-56.19h.01l-.55-39.76.01-.03.31-6.41h-23.2a.515.515 0 0 1-.5.43l-9.09.067-.64 5.928 1.95 39.75v.038l-1.43 56.318z" fill="#8C60A7"/><path d="M1378.49 341.77c.51 0 .92-.452.92-1.01s-.41-1.01-.92-1.01-.92.452-.92 1.01.41 1.01.92 1.01z" fill="#5C3A34"/><path d="M1378.67 341.98c.61 0 1.11-.497 1.11-1.11 0-.613-.5-1.11-1.11-1.11-.61 0-1.11.497-1.11 1.11 0 .613.5 1.11 1.11 1.11zm13.33 1.82c2.76 0 5-1.119 5-2.5s-2.24-2.5-5-2.5-5 1.119-5 2.5 2.24 2.5 5 2.5z" fill="#5C3A34"/><g opacity=".75"><g opacity=".5"><path opacity=".5" d="M277 112.3h-47.5a2 2 0 0 0-2 2v23a2 2 0 0 0 2 2H277a2 2 0 0 0 2-2v-23a2 2 0 0 0-2-2z" fill="#F8F8F9"/><path opacity=".5" d="M277 112.3h-47.5a2 2 0 0 0-2 2v23a2 2 0 0 0 2 2H277a2 2 0 0 0 2-2v-23a2 2 0 0 0-2-2z" stroke="#EFF0F1"/></g><path opacity=".5" d="M227 115.3l51.5-.12m-48.53-.88a.5.5 0 1 0 0-1 .5.5 0 0 0 0 1zm1.98 0a.5.5 0 1 0 0-1 .5.5 0 0 0 0 1zm1.98 0a.5.5 0 1 0 0-1 .5.5 0 0 0 0 1z" stroke="#EFF0F1"/><path opacity=".5" d="M274.54 117.8h-34.65a1 1 0 0 0-1 1v3a1 1 0 0 0 1 1h34.65a1 1 0 0 0 1-1v-3a1 1 0 0 0-1-1z" fill="url(#paint10_linear)"/><path opacity=".5" d="M258.2 124.8h-18.81a.5.5 0 0 0-.5.5v1a.5.5 0 0 0 .5.5h18.81a.5.5 0 0 0 .5-.5v-1a.5.5 0 0 0-.5-.5z" fill="url(#paint11_linear)"/><path opacity=".5" d="M275.04 128.8h-35.65a.5.5 0 0 0-.5.5v1a.5.5 0 0 0 .5.5h35.65a.5.5 0 0 0 .5-.5v-1a.5.5 0 0 0-.5-.5z" fill="url(#paint12_linear)"/><path opacity=".5" d="M260.18 132.8h-20.79a.5.5 0 0 0-.5.5v1a.5.5 0 0 0 .5.5h20.79a.5.5 0 0 0 .5-.5v-1a.5.5 0 0 0-.5-.5z" fill="url(#paint13_linear)"/><g opacity=".5"><path opacity=".5" d="M234.67 122.04h-.31v.48h.31v-.48z" fill="#F8F8F9"/><path opacity=".5" d="M234.52 121.8l.36.17v.27a.527.527 0 0 1-.36.44.5.5 0 0 1-.36-.44v-.27l.36-.17zm-.1.66h.2l-.06-.18a.244.244 0 0 0 0-.12.105.105 0 0 0-.029-.071.105.105 0 0 0-.071-.029.103.103 0 0 0-.071.029.105.105 0 0 0-.029.071.177.177 0 0 0 0 .12l.06.18z" fill="#C2C2C2"/></g></g><g opacity=".9"><g opacity=".75"><path opacity=".75" d="M514.34 30.94H454a2 2 0 0 0-2 2V63.3a2 2 0 0 0 2 2h60.34a2 2 0 0 0 2-2V32.94a2 2 0 0 0-2-2z" fill="#F8F8F9"/><path opacity=".75" d="M514.34 30.94H454a2 2 0 0 0-2 2V63.3a2 2 0 0 0 2 2h60.34a2 2 0 0 0 2-2V32.94a2 2 0 0 0-2-2z" stroke="#EFF0F1"/></g><path opacity=".75" d="M452.16 34.76l64.34-.16m-61.41-1.11a.63.63 0 0 0 .62-.64.63.63 0 0 0-.62-.64.63.63 0 0 0-.62.64c0 .353.278.64.62.64zm2.48 0a.63.63 0 0 0 .62-.64.63.63 0 0 0-.62-.64.63.63 0 0 0-.62.64c0 .353.278.64.62.64zm2.47 0a.63.63 0 0 0 .62-.64.63.63 0 0 0-.62-.64.63.63 0 0 0-.62.64c0 .353.278.64.62.64z" stroke="#EFF0F1"/><path opacity=".5" d="M511.01 38.11h-43.78a1 1 0 0 0-1 1v4.01a1 1 0 0 0 1 1h43.78a1 1 0 0 0 1-1v-4.01a1 1 0 0 0-1-1z" fill="url(#paint14_linear)"/><path opacity=".5" d="M490.47 46.85h-23.74a.5.5 0 0 0-.5.5v1.55a.5.5 0 0 0 .5.5h23.74a.5.5 0 0 0 .5-.5v-1.55a.5.5 0 0 0-.5-.5z" fill="url(#paint15_linear)"/><path opacity=".5" d="M511.51 51.94h-44.78a.5.5 0 0 0-.5.5v1.55a.5.5 0 0 0 .5.5h44.78a.5.5 0 0 0 .5-.5v-1.55a.5.5 0 0 0-.5-.5z" fill="url(#paint16_linear)"/><path opacity=".5" d="M492.95 57.03h-26.22a.5.5 0 0 0-.5.5v1.55a.5.5 0 0 0 .5.5h26.22a.5.5 0 0 0 .5-.5v-1.55a.5.5 0 0 0-.5-.5z" fill="url(#paint17_linear)"/><g opacity=".75"><path opacity=".75" d="M460.95 43.34h-.38v.62h.38v-.62z" fill="#F8F8F9"/><path opacity=".75" d="M461.23 43.29l-.46-.21-.45.21v.35a.633.633 0 0 0 .45.55.639.639 0 0 0 .46-.55v-.35z" fill="#C2C2C2"/></g></g><rect x="1070" y="259" width="220" height="26" rx="3" fill="url(#paint18_linear)"/><rect x="1070" y="300" width="220" height="13" rx="3" fill="url(#paint19_linear)"/><rect x="1070" y="324" width="220" height="13" rx="3" fill="url(#paint20_linear)"/><rect x="1070" y="349" width="129" height="13" rx="3" fill="url(#paint21_linear)"/><rect x="1220" y="376" width="38" height="13" rx="3" fill="url(#paint22_linear)"/><rect x="1265" y="376" width="24" height="13" rx="3" fill="url(#paint23_linear)"/><path d="M1008 365.5h-92.5v34M1099 113h12.5v187" stroke="#D4D6D9" stroke-linecap="round" stroke-linejoin="round"/><path opacity=".05" d="M1033.24 521.73c19.22 0 34.8-1.191 34.8-2.66s-15.58-2.66-34.8-2.66-34.8 1.191-34.8 2.66 15.58 2.66 34.8 2.66z" fill="#000"/><path opacity=".25" d="M993.5 520.8h77" stroke="#D4D6D9"/><path fill-rule="evenodd" clip-rule="evenodd" d="M1028.6 455a5.869 5.869 0 0 0 11.62 0h6.48c1.6 0 3.1.5 4.2 1.5 1.53.973 2.85 2.512 3.3 4.3l6.2 21.1c.8.9 1.3 2.1 1.2 3.4-.1 1.9-1.3 3.5-2.9 4.4l-4.6 1.2-39.9.3-6.4-1.7c-1.6-.7-2.7-2.3-2.8-4.2-.1-1.3.4-2.4 1.1-3.3.75-2.52 1.54-5.039 2.33-7.56 1.56-4.957 3.12-9.925 4.37-14.94 1.1-2.1 3-3.4 5.1-3.8.9-.4 1.9-.7 3-.7h7.7zm-9.6 12.46c.28 0 .5.224.5.5v4.72c0 .276-.22.5-.5.5s-.5-.224-.5-.5v-4.72c0-.276.22-.5.5-.5zm30.28.5c0-.276-.22-.5-.5-.5s-.5.224-.5.5v4.72c0 .276.22.5.5.5s.5-.224.5-.5v-4.72z" fill="url(#paint24_linear)"/><path d="M1053 500.15h-39v13.46c.2 3.41 4.04 6.1 8.09 6.1H1045c4 0 7.81-2.69 8-6.1v-13.46z" fill="#2683FF"/><path d="M1014.64 501a2.28 2.28 0 0 1-2.21-1.928l-.41-2.979c-.04-.241-.03-.487.04-.722s.19-.452.35-.637c.16-.184.36-.331.58-.43.23-.098.48-.146.72-.139l38.54-.164c.25-.007.5.04.73.137.23.098.43.244.59.428.17.184.29.401.36.637.07.235.09.483.05.726l-.38 3.143a2.204 2.204 0 0 1-.73 1.36c-.4.354-.92.555-1.46.568h-36.77z" fill="#000"/><path d="M1054 497.1c0 1.1-.9 2-2 2h-37.5c-1.1 0-2-.9-2-2v-24.6c0-1.1.9-2 2-2h37.5c1.1 0 2 .9 2 2v24.6z" fill="url(#paint25_linear)"/><path d="M1054 497.1c0 1.1-.9 2-2 2h-37.5c-1.1 0-2-.9-2-2v-24.6c0-1.1.9-2 2-2h37.5c1.1 0 2 .9 2 2v24.6z" fill="url(#paint26_linear)"/><path d="M1050.1 537.43s-1.52-37.77-1.45-39.24c.07-1.47.15-1.8.15-3.32 0-1.7-.68-3.33-1.88-4.533a6.4 6.4 0 0 0-4.53-1.877 6.4 6.4 0 0 0-4.53 1.877 6.424 6.424 0 0 0-1.88 4.533c0 1.4-.22.93.48 3.67.7 2.74 2.38 38.89 2.38 38.89h11.26z" fill="url(#paint27_linear)"/><path d="M1029.31 538.22s4.23-37.64 4.51-39.08c.28-1.44.42-1.69.65-3.19.14-.84.12-1.7-.07-2.53a6.522 6.522 0 0 0-1.04-2.306 6.422 6.422 0 0 0-9.05-1.385 6.367 6.367 0 0 0-2.51 4.281 8.612 8.612 0 0 0-.09 3.78c.28 2.81-3.53 38.72-3.53 38.72l11.13 1.71z" fill="url(#paint28_linear)"/><path d="M1043.53 539.71c3.63 0 6.57-1.021 6.57-2.28s-2.94-2.28-6.57-2.28c-3.63 0-6.57 1.021-6.57 2.28s2.94 2.28 6.57 2.28zm-18.78 0c3.63 0 6.57-1.021 6.57-2.28s-2.94-2.28-6.57-2.28c-3.63 0-6.57 1.021-6.57 2.28s2.94 2.28 6.57 2.28z" fill="#000"/><path d="M1033.7 489.52c1.45 0 2.63-1.177 2.63-2.63 0-1.452-1.18-2.63-2.63-2.63a2.632 2.632 0 0 0-2.63 2.63c0 1.453 1.18 2.63 2.63 2.63z" fill="#fff"/><path opacity=".5" d="M1013 440.53c0-5.19-4.51-9.43-10-9.42h-11c-5.5 0-10 3.73-10 8.28 0 4.55 4.5 8.28 10 8.27h8.37c5.5 0 10.59.51 11.31 1.14.72.63 1.32-3.09 1.32-8.27zm-22 .66a1.806 1.806 0 0 1-1.663-1.111 1.798 1.798 0 0 1 .39-1.962 1.797 1.797 0 0 1 1.962-.39 1.8 1.8 0 0 1 1.111 1.663 1.811 1.811 0 0 1-1.8 1.8zm6.49 0a1.806 1.806 0 0 1-1.663-1.111 1.798 1.798 0 0 1 .39-1.962 1.797 1.797 0 0 1 1.962-.39 1.8 1.8 0 0 1-.679 3.463h-.01zm6.49 0c-.36 0-.7-.106-1-.303-.3-.198-.53-.479-.66-.808a1.852 1.852 0 0 1-.11-1.04c.07-.349.25-.67.5-.922s.57-.423.92-.492a1.798 1.798 0 0 1 2.15 1.765 1.8 1.8 0 0 1-1.78 1.8h-.02z" fill="#BBC0C4"/><path d="M1100.5 386.5v101H1063m253-216h91.5V254" stroke="#D4D6D9" stroke-linecap="round" stroke-linejoin="round"/><path d="M1253.28 108.5h-50.56a4.718 4.718 0 0 0-4.72 4.72v50.56c0 2.607 2.11 4.72 4.72 4.72h50.56c2.61 0 4.72-2.113 4.72-4.72v-50.56c0-2.607-2.11-4.72-4.72-4.72z" fill="#F8F8F9" stroke="#D4D6D9"/><path fill-rule="evenodd" clip-rule="evenodd" d="M1228.34 153.111c8.35 0 15.11-6.765 15.11-15.111s-6.76-15.111-15.11-15.111-15.11 6.765-15.11 15.111 6.76 15.111 15.11 15.111zm0-7.555c-4.17 0-7.56-3.383-7.56-7.556s3.39-7.556 7.56-7.556 7.56 3.383 7.56 7.556-3.39 7.556-7.56 7.556z" fill="#007DC1"/><path d="M798.721 181.032c1.904-.082 3.374-1.852 3.283-3.955-.091-2.102-1.707-3.74-3.611-3.657-1.904.082-3.373 1.852-3.283 3.955.091 2.102 1.708 3.74 3.611 3.657zm-71.911 34.117l1.82-33.5.87-7.149-10.03-3.321-2.8 9.25c-.335.856-.636 2.163-.31 3.06l3.6 29.53 1.11 4.53-1.32 7.82c-.79 3.39 0 6.47 1.82 6.89 1.82.42 3.88-2 4.67-5.38.151-.657.248-1.326.29-2l.26-9v-.73h.02z" fill="#916037"/><path fill-rule="evenodd" clip-rule="evenodd" d="M767.81 150.339l4.33 22.42-3.53 1.05c.75 8.77.75 17.68-1.25 22.42 0 9.8-38.45 0-38.45 0l-.06-21.54-10.65-3.66 6.12-21.52a9.267 9.267 0 0 1 1.47-3 9.367 9.367 0 0 1 6.49-3.71h27.26a9.321 9.321 0 0 1 8.27 7.54zm-32.241 13.343a.5.5 0 1 0-.938-.345l-4.61 12.56a.499.499 0 1 0 .938.345l4.61-12.56z" fill="url(#paint29_linear)"/><path d="M1043.81 437.71a8.72 8.72 0 0 0-1.72-3.44 8.67 8.67 0 0 0-3.05-2.35 30.317 30.317 0 0 1-5.71-3.11s6.28-5.35 9.71-3.12c3.43 2.23.77 12.02.77 12.02z" fill="url(#paint30_linear)"/><path d="M1022.25 444.55s6.1-11.39 11.52-13.42c5.42-2.03 6.51-4.92 6.51-4.92s-4.56-6.69-11.93-2.16-6.1 20.5-6.1 20.5z" fill="url(#paint31_linear)"/><path fill-rule="evenodd" clip-rule="evenodd" d="M1024.61 438.54c0 1.579.51 2.859 1.14 2.86.06 2.439.17 4.361.36 4.87a13.698 13.698 0 0 0 2.63 4.42l-.19 3.14a5.869 5.869 0 1 0 11.72.7l.19-3.07a5.886 5.886 0 0 0 2.19-1.993c.55-.84.88-1.806.95-2.807l.05-4.977c.05.018.11.027.16.027.63 0 1.14-1.28 1.14-2.86 0-1.58-.51-2.86-1.14-2.86-.18 0-.34.1-.49.278a8.76 8.76 0 0 0-1.23-1.998 8.67 8.67 0 0 0-3.05-2.35 29.918 29.918 0 0 1-3.35-1.628c-.57.289-1.21.571-1.92.838-2.38.892-4.89 3.591-6.96 6.337-.17-1.048-.58-1.787-1.06-1.787-.63 0-1.14 1.28-1.14 2.86z" fill="#F2DDDA"/><path d="M1031.32 447.83c-.04.77 1.66 1.48 3.81 1.6 2.15.11 3.92-.83 3.96-1.6h-7.77z" fill="#fff"/><path d="M1504.68 344.58c-1.79-1.93-4.85-3.86-7.6-3.86-.47.024-.93.18-1.32.45-1.6-.387-3.25-.532-4.9-.43-2.42.1-5.18 3.31-6.13 5.53a1.77 1.77 0 0 0-1.37 1.11c-.86 2.65 2.06 7.1 2.06 7.1s-1.29-3.61-.47-4.81c.36-.55 1.74-1.14 3.12-1.63 1.13-.276 2.25-.61 3.35-1 0 0 5.31 1.78 7.12 3.47a11.614 11.614 0 0 0 6 5.56s1.92-9.56.14-11.49z" fill="#180B01"/><circle cx="1100" cy="382" r="5" fill="#848D95"/><path d="M1100 384c1.1 0 2-.895 2-2s-.9-2-2-2-2 .895-2 2 .9 2 2 2z" fill="#F8F8F9" stroke="#D4D6D9"/><circle cx="1013" cy="365" r="5" fill="#848D95"/><path d="M1013 367c1.1 0 2-.895 2-2s-.9-2-2-2-2 .895-2 2 .9 2 2 2z" fill="#F8F8F9" stroke="#D4D6D9"/><circle cx="1111" cy="300" r="5" fill="#848D95"/><path d="M1111 302c1.1 0 2-.895 2-2s-.9-2-2-2-2 .895-2 2 .9 2 2 2z" fill="#F8F8F9" stroke="#D4D6D9"/><circle cx="1315" cy="271" r="5" fill="#848D95"/><path d="M1315 273c1.1 0 2-.895 2-2s-.9-2-2-2-2 .895-2 2 .9 2 2 2z" fill="#F8F8F9" stroke="#D4D6D9"/><path d="M1291.5 231v-43.5h-65v-19" stroke="#D4D6D9" stroke-linecap="round" stroke-linejoin="round"/><circle cx="1292" cy="231" r="5" fill="#848D95"/><path d="M1292 233c1.1 0 2-.895 2-2s-.9-2-2-2-2 .895-2 2 .9 2 2 2zM1093.78 83.5h-50.56a4.718 4.718 0 0 0-4.72 4.72v50.56c0 2.607 2.11 4.72 4.72 4.72h50.56c2.61 0 4.72-2.113 4.72-4.72V88.22c0-2.607-2.11-4.72-4.72-4.72z" fill="#F8F8F9" stroke="#D4D6D9"/><path d="M1068 98.889c-8.35 0-15.11 6.762-15.11 15.111 0 6.687 4.32 12.334 10.33 14.337.76.132 1.04-.321 1.04-.718 0-.359-.02-1.549-.02-2.815-3.8.699-4.78-.925-5.08-1.775-.17-.435-.91-1.776-1.55-2.135-.53-.283-1.28-.982-.02-1.001 1.19-.019 2.04 1.096 2.33 1.549 1.36 2.286 3.53 1.644 4.4 1.247.13-.982.53-1.643.96-2.021-3.36-.378-6.88-1.681-6.88-7.461 0-1.644.59-3.004 1.55-4.061-.15-.378-.68-1.927.15-4.005 0 0 1.27-.397 4.16 1.549 1.21-.34 2.49-.51 3.78-.51 1.28 0 2.57.17 3.78.51 2.89-1.964 4.15-1.549 4.15-1.549.83 2.078.3 3.627.15 4.005.97 1.057 1.55 2.398 1.55 4.061 0 5.799-3.53 7.083-6.89 7.461.54.472 1.02 1.379 1.02 2.795 0 2.021-.02 3.646-.02 4.156 0 .397.28.869 1.04.718A15.132 15.132 0 0 0 1083.11 114c0-8.349-6.76-15.111-15.11-15.111z" fill="#010101"/><path d="M1197.5 468.5h-15V383" stroke="#D4D6D9" stroke-linecap="round" stroke-linejoin="round"/><circle cx="1182" cy="383" r="5" fill="#848D95"/><path d="M1182 385c1.1 0 2-.895 2-2s-.9-2-2-2-2 .895-2 2 .9 2 2 2z" fill="#F8F8F9" stroke="#D4D6D9"/><path fill-rule="evenodd" clip-rule="evenodd" d="M1003.24 259h20.14a2.93 2.93 0 0 1 2.93 2.931v17.078a5.001 5.001 0 0 0-5.21 5.991h-17.86a2.93 2.93 0 0 1-2.93-2.931v-20.138a2.93 2.93 0 0 1 2.93-2.931z" fill="url(#paint32_linear)"/><rect x="1000" y="231" width="68" height="13" rx="3" fill="#F4F4F4"/><path d="M1290.5 366.5c1.1 0 2-.895 2-2s-.9-2-2-2-2 .895-2 2 .9 2 2 2z" fill="#F8F8F9" stroke="#D4D6D9"/><path d="M1473.3 389c-.1-.5-.6-1-1.1-1h-21.3c-.6 0-1 .4-.9 1l4.1 29.2c.1.5.6 1 1.1 1h21.3c.6 0 .9-.4.9-1l-4.1-29.2zm-8.9 15.2c-.4 1.1-1.3 1.2-2 .3-.7-.9-1-2.5-.6-3.5.4-1.1 1.3-1.2 2-.3.8.8 1 2.4.6 3.5z" fill="url(#paint33_linear)"/><path d="M1461.8 401c-.4 1.1-.1 2.7.6 3.5.7.9 1.6.7 2-.3.4-1.1.1-2.7-.6-3.5-.7-1-1.6-.8-2 .3z" fill="#fff"/><path d="M1513.11 404.58v-.18l-32.7-1.53-.13 1.1-.21-1.11-9.7-.58c-2.64-.13-1.27 1.56-1.36 3.4-.09 1.84 1.44 3.28 4.08 3.4l7.2-1.42 30.4 5.41a4.494 4.494 0 0 0 3.88.155 4.455 4.455 0 0 0 1.61-1.169c.45-.505.77-1.102.95-1.749.19-.647.22-1.326.11-1.988a4.714 4.714 0 0 0-.76-1.84 4.605 4.605 0 0 0-1.48-1.333 4.539 4.539 0 0 0-1.91-.566h.02z" fill="#C49A6D"/><path d="M1399.4 396.37c.61-.316 1.24-.577 1.9-.78 3.32-1 6.46-.45 7 1.31s-1.7 4-5 5l-10.3 3.26-2.77-4 9.17-4.79z" fill="#FFC5BB"/><path d="M757.5 134a2.5 2.5 0 0 0 2.5-2.5h-5a2.5 2.5 0 0 0 2.5 2.5z" fill="#fff"/><defs><filter id="filter0_d" x="961" y="187.71" width="392" height="241.5" filterUnits="userSpaceOnUse" color-interpolation-filters="sRGB"><feFlood flood-opacity="0" result="BackgroundImageFix"/><feColorMatrix in="SourceAlpha" values="0 0 0 0 0 0 0 0 0 0 0 0 0 0 0 0 0 0 127 0"/><feOffset dx="4" dy="6"/><feGaussianBlur stdDeviation="12"/><feColorMatrix values="0 0 0 0 0 0 0 0 0 0 0 0 0 0 0 0 0 0 0.1 0"/><feBlend in2="BackgroundImageFix" result="effect1_dropShadow"/><feBlend in="SourceGraphic" in2="effect1_dropShadow" result="shape"/></filter><linearGradient id="paint0_linear" x1="1234.72" y1="457.478" x2="1228.63" y2="463.76" gradientUnits="userSpaceOnUse"><stop offset=".18" stop-color="#0052CC"/><stop offset="1" stop-color="#2684FF"/></linearGradient><linearGradient id="paint1_linear" x1="1865.28" y1="1065.72" x2="1608.76" y2="1317.21" gradientUnits="userSpaceOnUse"><stop offset=".18" stop-color="#0052CC"/><stop offset="1" stop-color="#2684FF"/></linearGradient><linearGradient id="paint2_linear" x1="1295.4" y1="503.91" x2="1324.11" y2="503.91" gradientUnits="userSpaceOnUse"><stop stop-color="#D4D7DA"/><stop offset="1" stop-color="#EDEEEF"/></linearGradient><linearGradient id="paint3_linear" x1="18497.8" y1="1340.2" x2="18738.7" y2="1340.2" gradientUnits="userSpaceOnUse"><stop stop-color="#D4D7DA"/><stop offset="1" stop-color="#EDEEEF"/></linearGradient><linearGradient id="paint4_linear" x1="33117.5" y1="1348.26" x2="33941.8" y2="1348.26" gradientUnits="userSpaceOnUse"><stop stop-color="#D4D7DA"/><stop offset="1" stop-color="#EDEEEF"/></linearGradient><linearGradient id="paint5_linear" x1="20215.7" y1="1356.32" x2="20507.1" y2="1356.32" gradientUnits="userSpaceOnUse"><stop stop-color="#D4D7DA"/><stop offset="1" stop-color="#EDEEEF"/></linearGradient><linearGradient id="paint6_linear" x1="1504.73" y1="378.014" x2="1481.78" y2="409.762" gradientUnits="userSpaceOnUse"><stop stop-color="#FFCF10"/><stop offset="1" stop-color="#FBBA23"/></linearGradient><linearGradient id="paint7_linear" x1="1523" y1="407.5" x2="1443" y2="545" gradientUnits="userSpaceOnUse"><stop stop-color="#4CA143"/><stop offset="1" stop-color="#A9D9A4"/></linearGradient><linearGradient id="paint8_linear" x1="715" y1="195.829" x2="775" y2="311.329" gradientUnits="userSpaceOnUse"><stop stop-color="#52575C"/><stop offset="1" stop-color="#848D95"/></linearGradient><linearGradient id="paint9_linear" x1="1393.1" y1="369.532" x2="1392.17" y2="427.505" gradientUnits="userSpaceOnUse"><stop stop-color="#B2DCFF"/><stop offset="1" stop-color="#068AFF"/></linearGradient><linearGradient id="paint10_linear" x1="2140.66" y1="830.3" x2="3483.51" y2="830.3" gradientUnits="userSpaceOnUse"><stop stop-color="#D4D7DA"/><stop offset="1" stop-color="#EDEEEF"/></linearGradient><linearGradient id="paint11_linear" x1="1266.83" y1="420.8" x2="1659.27" y2="420.8" gradientUnits="userSpaceOnUse"><stop stop-color="#D4D7DA"/><stop offset="1" stop-color="#EDEEEF"/></linearGradient><linearGradient id="paint12_linear" x1="2140.66" y1="432.8" x2="3483.51" y2="432.8" gradientUnits="userSpaceOnUse"><stop stop-color="#D4D7DA"/><stop offset="1" stop-color="#EDEEEF"/></linearGradient><linearGradient id="paint13_linear" x1="1369.57" y1="444.8" x2="1844.38" y2="444.8" gradientUnits="userSpaceOnUse"><stop stop-color="#D4D7DA"/><stop offset="1" stop-color="#EDEEEF"/></linearGradient><linearGradient id="paint14_linear" x1="13249.4" y1="418.663" x2="15345.2" y2="418.663" gradientUnits="userSpaceOnUse"><stop stop-color="#D4D7DA"/><stop offset="1" stop-color="#EDEEEF"/></linearGradient><linearGradient id="paint15_linear" x1="7374.38" y1="226.166" x2="7986.44" y2="226.166" gradientUnits="userSpaceOnUse"><stop stop-color="#D4D7DA"/><stop offset="1" stop-color="#EDEEEF"/></linearGradient><linearGradient id="paint16_linear" x1="13249.4" y1="244.236" x2="15345.2" y2="244.236" gradientUnits="userSpaceOnUse"><stop stop-color="#D4D7DA"/><stop offset="1" stop-color="#EDEEEF"/></linearGradient><linearGradient id="paint17_linear" x1="8066.87" y1="262.305" x2="8807.8" y2="262.305" gradientUnits="userSpaceOnUse"><stop stop-color="#D4D7DA"/><stop offset="1" stop-color="#EDEEEF"/></linearGradient><linearGradient id="paint18_linear" x1="1073" y1="272" x2="1290" y2="272" gradientUnits="userSpaceOnUse"><stop stop-color="#E4E6E8"/><stop offset="1" stop-color="#EFF0F1"/></linearGradient><linearGradient id="paint19_linear" x1="1073" y1="306.5" x2="1290" y2="306.5" gradientUnits="userSpaceOnUse"><stop stop-color="#E4E6E8"/><stop offset="1" stop-color="#EFF0F1"/></linearGradient><linearGradient id="paint20_linear" x1="1073" y1="330.5" x2="1290" y2="330.5" gradientUnits="userSpaceOnUse"><stop stop-color="#E4E6E8"/><stop offset="1" stop-color="#EFF0F1"/></linearGradient><linearGradient id="paint21_linear" x1="1071.76" y1="355.5" x2="1199" y2="355.5" gradientUnits="userSpaceOnUse"><stop stop-color="#E4E6E8"/><stop offset="1" stop-color="#EFF0F1"/></linearGradient><linearGradient id="paint22_linear" x1="1220.52" y1="382.5" x2="1258" y2="382.5" gradientUnits="userSpaceOnUse"><stop stop-color="#E4E6E8"/><stop offset="1" stop-color="#EFF0F1"/></linearGradient><linearGradient id="paint23_linear" x1="1265.33" y1="382.5" x2="1289" y2="382.5" gradientUnits="userSpaceOnUse"><stop stop-color="#E4E6E8"/><stop offset="1" stop-color="#EFF0F1"/></linearGradient><linearGradient id="paint24_linear" x1="1077.34" y1="452.111" x2="1070.17" y2="509.521" gradientUnits="userSpaceOnUse"><stop stop-color="#4CA143"/><stop offset=".475" stop-color="#A9D9A4"/></linearGradient><linearGradient id="paint25_linear" x1="1019.75" y1="496.995" x2="1053.98" y2="479.446" gradientUnits="userSpaceOnUse"><stop stop-color="#3F3F3F"/><stop offset="1" stop-color="#8C8C8C"/></linearGradient><linearGradient id="paint26_linear" x1="1019.75" y1="496.995" x2="1053.98" y2="479.446" gradientUnits="userSpaceOnUse"><stop stop-color="#3F3F3F"/><stop offset="1" stop-color="#8C8C8C"/></linearGradient><linearGradient id="paint27_linear" x1="1043.02" y1="482.891" x2="1038.69" y2="536.383" gradientUnits="userSpaceOnUse"><stop stop-color="#B2DCFF"/><stop offset="1" stop-color="#068AFF"/></linearGradient><linearGradient id="paint28_linear" x1="1026.36" y1="482.789" x2="1022.49" y2="537.237" gradientUnits="userSpaceOnUse"><stop stop-color="#B2DCFF"/><stop offset="1" stop-color="#068AFF"/></linearGradient><linearGradient id="paint29_linear" x1="768.5" y1="142.829" x2="726" y2="200.829" gradientUnits="userSpaceOnUse"><stop stop-color="#EC3607"/><stop offset="1" stop-color="#EF6545"/></linearGradient><linearGradient id="paint30_linear" x1="1039.06" y1="425.146" x2="1039.06" y2="437.71" gradientUnits="userSpaceOnUse"><stop stop-color="#27348B"/><stop offset="1" stop-color="#9DD2FF"/></linearGradient><linearGradient id="paint31_linear" x1="1031.22" y1="422.476" x2="1031.22" y2="444.55" gradientUnits="userSpaceOnUse"><stop stop-color="#27348B"/><stop offset="1" stop-color="#9DD2FF"/></linearGradient><linearGradient id="paint32_linear" x1="1000.31" y1="272.005" x2="1026.31" y2="272.005" gradientUnits="userSpaceOnUse"><stop stop-color="#FAB923"/><stop offset="1" stop-color="#FFE376"/></linearGradient><linearGradient id="paint33_linear" x1="1454.78" y1="416.904" x2="1480.82" y2="408.817" gradientUnits="userSpaceOnUse"><stop stop-color="#3F3F3F"/><stop offset="1" stop-color="#8C8C8C"/></linearGradient></defs></svg>