<svg fill="none" height="468" viewBox="0 0 580 468" width="580" xmlns="http://www.w3.org/2000/svg" xmlns:xlink="http://www.w3.org/1999/xlink"><clipPath id="a"><path d="m0 0h580v468h-580z"/></clipPath><g clip-path="url(#a)"><path clip-rule="evenodd" d="m540.123 3.40659c6.333-4.261448 14.54-4.54611 21.153-.73374l101.724 58.63995-74.668 46.0952c-6.349 3.919-14.351 3.978-20.757.154l-96.575-57.6456zm11.877 35.37881c0 5.5228-7.163 10-16 10-8.836 0-16-4.4772-16-10 0-5.5229 7.164-10 16-10 8.837 0 16 4.4771 16 10zm57 12c2.209 0 4-1.1193 4-2.5s-1.791-2.5-4-2.5-4 1.1193-4 2.5 1.791 2.5 4 2.5zm13 2.5c0 1.3807-1.791 2.5-4 2.5s-4-1.1193-4-2.5 1.791-2.5 4-2.5 4 1.1193 4 2.5zm5 7.5c2.209 0 4-1.1193 4-2.5s-1.791-2.5-4-2.5-4 1.1193-4 2.5 1.791 2.5 4 2.5zm13 2.5c0 1.3807-1.791 2.5-4 2.5s-4-1.1193-4-2.5 1.791-2.5 4-2.5 4 1.1193 4 2.5zm-21 2.5c2.209 0 4-1.1193 4-2.5s-1.791-2.5-4-2.5-4 1.1193-4 2.5 1.791 2.5 4 2.5zm13 2.5c0 1.3807-1.791 2.5-4 2.5s-4-1.1193-4-2.5 1.791-2.5 4-2.5 4 1.1193 4 2.5zm-184.877-3.6642c6.333-4.2615 14.54-4.5461 21.153-.7338l101.724 58.6396-74.669 46.095c-6.348 3.919-14.35 3.979-20.756.155l-96.575-57.646zm11.877 35.3788c0 5.523-7.163 10-16 10-8.836 0-16-4.477-16-10 0-5.5229 7.164-10 16-10 8.837 0 16 4.4771 16 10zm57 12c2.209 0 4-1.119 4-2.5s-1.791-2.5-4-2.5-4 1.119-4 2.5 1.791 2.5 4 2.5zm13 2.5c0 1.381-1.791 2.5-4 2.5s-4-1.119-4-2.5 1.791-2.5 4-2.5 4 1.119 4 2.5zm5 7.5c2.209 0 4-1.119 4-2.5s-1.791-2.5-4-2.5-4 1.119-4 2.5 1.791 2.5 4 2.5zm13 2.5c0 1.381-1.791 2.5-4 2.5s-4-1.119-4-2.5 1.791-2.5 4-2.5 4 1.119 4 2.5zm-21 2.5c2.209 0 4-1.119 4-2.5s-1.791-2.5-4-2.5-4 1.119-4 2.5 1.791 2.5 4 2.5zm13 2.5c0 1.381-1.791 2.5-4 2.5s-4-1.119-4-2.5 1.791-2.5 4-2.5 4 1.119 4 2.5zm-259.724 56.387c-6.613-3.812-14.82-3.527-21.153.734l-69.123 46.51 96.575 57.646c6.406 3.824 14.408 3.764 20.756-.155l74.669-46.095zm-25.276 46.113c8.837 0 16-4.477 16-10s-7.163-10-16-10c-8.836 0-16 4.477-16 10s7.164 10 16 10zm77-.5c0 1.381-1.791 2.5-4 2.5s-4-1.119-4-2.5 1.791-2.5 4-2.5 4 1.119 4 2.5zm5 7.5c2.209 0 4-1.119 4-2.5s-1.791-2.5-4-2.5-4 1.119-4 2.5 1.791 2.5 4 2.5zm13 2.5c0 1.381-1.791 2.5-4 2.5s-4-1.119-4-2.5 1.791-2.5 4-2.5 4 1.119 4 2.5zm5 7.5c2.209 0 4-1.119 4-2.5s-1.791-2.5-4-2.5-4 1.119-4 2.5 1.791 2.5 4 2.5zm-13-2.5c0 1.381-1.791 2.5-4 2.5s-4-1.119-4-2.5 1.791-2.5 4-2.5 4 1.119 4 2.5zm5 7.5c2.209 0 4-1.119 4-2.5s-1.791-2.5-4-2.5-4 1.119-4 2.5 1.791 2.5 4 2.5zm5.123-128.593c6.333-4.262 14.54-4.547 21.153-.734l101.724 58.64-74.668 46.095c-6.349 3.919-14.351 3.978-20.757.154l-96.575-57.646zm11.877 35.378c0 5.523-7.163 10-16 10-8.836 0-16-4.477-16-10 0-5.522 7.164-10 16-10 8.837 0 16 4.478 16 10zm57 12c2.209 0 4-1.119 4-2.5 0-1.38-1.791-2.5-4-2.5s-4 1.12-4 2.5c0 1.381 1.791 2.5 4 2.5zm13 2.5c0 1.381-1.791 2.5-4 2.5s-4-1.119-4-2.5c0-1.38 1.791-2.5 4-2.5s4 1.12 4 2.5zm5 7.5c2.209 0 4-1.119 4-2.5 0-1.38-1.791-2.5-4-2.5s-4 1.12-4 2.5c0 1.381 1.791 2.5 4 2.5zm13 2.5c0 1.381-1.791 2.5-4 2.5s-4-1.119-4-2.5c0-1.38 1.791-2.5 4-2.5s4 1.12 4 2.5zm-21 2.5c2.209 0 4-1.119 4-2.5 0-1.38-1.791-2.5-4-2.5s-4 1.12-4 2.5c0 1.381 1.791 2.5 4 2.5zm13 2.5c0 1.381-1.791 2.5-4 2.5s-4-1.119-4-2.5c0-1.38 1.791-2.5 4-2.5s4 1.12 4 2.5zm151.276-53.398c-6.613-3.812-14.82-3.527-21.153.734l-69.123 46.51 96.575 57.646c6.406 3.824 14.408 3.764 20.756-.155l74.669-46.095zm-25.276 46.113c8.837 0 16-4.477 16-10s-7.163-10-16-10c-8.836 0-16 4.477-16 10s7.164 10 16 10zm77-.5c0 1.381-1.791 2.5-4 2.5s-4-1.119-4-2.5 1.791-2.5 4-2.5 4 1.119 4 2.5zm5 7.5c2.209 0 4-1.119 4-2.5s-1.791-2.5-4-2.5-4 1.119-4 2.5 1.791 2.5 4 2.5zm13 2.5c0 1.381-1.791 2.5-4 2.5s-4-1.119-4-2.5 1.791-2.5 4-2.5 4 1.119 4 2.5zm5 7.5c2.209 0 4-1.119 4-2.5s-1.791-2.5-4-2.5-4 1.119-4 2.5 1.791 2.5 4 2.5zm-13-2.5c0 1.381-1.791 2.5-4 2.5s-4-1.119-4-2.5 1.791-2.5 4-2.5 4 1.119 4 2.5zm5 7.5c2.209 0 4-1.119 4-2.5s-1.791-2.5-4-2.5-4 1.119-4 2.5 1.791 2.5 4 2.5zm-276.877 54.621c6.333-4.261 14.54-4.546 21.153-.734l101.724 58.64-74.669 46.095c-6.348 3.919-14.35 3.979-20.756.155l-96.575-57.646zm11.877 35.379c0 5.523-7.163 10-16 10-8.836 0-16-4.477-16-10s7.164-10 16-10c8.837 0 16 4.477 16 10zm57 12c2.209 0 4-1.119 4-2.5s-1.791-2.5-4-2.5-4 1.119-4 2.5 1.791 2.5 4 2.5zm13 2.5c0 1.381-1.791 2.5-4 2.5s-4-1.119-4-2.5 1.791-2.5 4-2.5 4 1.119 4 2.5zm5 7.5c2.209 0 4-1.119 4-2.5s-1.791-2.5-4-2.5-4 1.119-4 2.5 1.791 2.5 4 2.5zm13 2.5c0 1.381-1.791 2.5-4 2.5s-4-1.119-4-2.5 1.791-2.5 4-2.5 4 1.119 4 2.5zm-21 2.5c2.209 0 4-1.119 4-2.5s-1.791-2.5-4-2.5-4 1.119-4 2.5 1.791 2.5 4 2.5zm13 2.5c0 1.381-1.791 2.5-4 2.5s-4-1.119-4-2.5 1.791-2.5 4-2.5 4 1.119 4 2.5zm22.276-126.827c-6.613-3.813-14.82-3.528-21.153.734l-69.123 46.509 96.575 57.646c6.406 3.824 14.408 3.765 20.757-.154l74.668-46.095zm-25.276 46.112c8.837 0 16-4.477 16-10 0-5.522-7.163-10-16-10-8.836 0-16 4.478-16 10 0 5.523 7.164 10 16 10zm77-.5c0 1.381-1.791 2.5-4 2.5s-4-1.119-4-2.5c0-1.38 1.791-2.5 4-2.5s4 1.12 4 2.5zm5 7.5c2.209 0 4-1.119 4-2.5 0-1.38-1.791-2.5-4-2.5s-4 1.12-4 2.5c0 1.381 1.791 2.5 4 2.5zm13 2.5c0 1.381-1.791 2.5-4 2.5s-4-1.119-4-2.5c0-1.38 1.791-2.5 4-2.5s4 1.12 4 2.5zm5 7.5c2.209 0 4-1.119 4-2.5 0-1.38-1.791-2.5-4-2.5s-4 1.12-4 2.5c0 1.381 1.791 2.5 4 2.5zm-13-2.5c0 1.381-1.791 2.5-4 2.5s-4-1.119-4-2.5c0-1.38 1.791-2.5 4-2.5s4 1.12 4 2.5zm5 7.5c2.209 0 4-1.119 4-2.5 0-1.38-1.791-2.5-4-2.5s-4 1.12-4 2.5c0 1.381 1.791 2.5 4 2.5zm-53.877 67.836c6.333-4.261 14.54-4.546 21.153-.734l101.724 58.64-74.669 46.095c-6.348 3.919-14.35 3.979-20.756.155l-96.575-57.646zm11.877 35.379c0 5.523-7.163 10-16 10-8.836 0-16-4.477-16-10s7.164-10 16-10c8.837 0 16 4.477 16 10zm57 12c2.209 0 4-1.119 4-2.5s-1.791-2.5-4-2.5-4 1.119-4 2.5 1.791 2.5 4 2.5zm13 2.5c0 1.381-1.791 2.5-4 2.5s-4-1.119-4-2.5 1.791-2.5 4-2.5 4 1.119 4 2.5zm5 7.5c2.209 0 4-1.119 4-2.5s-1.791-2.5-4-2.5-4 1.119-4 2.5 1.791 2.5 4 2.5zm13 2.5c0 1.381-1.791 2.5-4 2.5s-4-1.119-4-2.5 1.791-2.5 4-2.5 4 1.119 4 2.5zm-21 2.5c2.209 0 4-1.119 4-2.5s-1.791-2.5-4-2.5-4 1.119-4 2.5 1.791 2.5 4 2.5zm13 2.5c0 1.381-1.791 2.5-4 2.5s-4-1.119-4-2.5 1.791-2.5 4-2.5 4 1.119 4 2.5zm22.276-126.827c-6.613-3.813-14.82-3.528-21.153.734l-69.123 46.509 96.575 57.646c6.406 3.824 14.408 3.765 20.757-.154l74.668-46.095zm-25.276 46.112c8.837 0 16-4.477 16-10 0-5.522-7.163-10-16-10-8.836 0-16 4.478-16 10 0 5.523 7.164 10 16 10zm77-.5c0 1.381-1.791 2.5-4 2.5s-4-1.119-4-2.5c0-1.38 1.791-2.5 4-2.5s4 1.12 4 2.5zm5 7.5c2.209 0 4-1.119 4-2.5 0-1.38-1.791-2.5-4-2.5s-4 1.12-4 2.5c0 1.381 1.791 2.5 4 2.5zm13 2.5c0 1.381-1.791 2.5-4 2.5s-4-1.119-4-2.5c0-1.38 1.791-2.5 4-2.5s4 1.12 4 2.5zm5 7.5c2.209 0 4-1.119 4-2.5 0-1.38-1.791-2.5-4-2.5s-4 1.12-4 2.5c0 1.381 1.791 2.5 4 2.5zm-13-2.5c0 1.381-1.791 2.5-4 2.5s-4-1.119-4-2.5c0-1.38 1.791-2.5 4-2.5s4 1.12 4 2.5zm5 7.5c2.209 0 4-1.119 4-2.5 0-1.38-1.791-2.5-4-2.5s-4 1.12-4 2.5c0 1.381 1.791 2.5 4 2.5zm-622.8774-30.164c6.3333-4.261 14.54-4.546 21.1534-.734l101.724 58.64-74.669 46.095c-6.348 3.919-14.35 3.979-20.7562.155l-96.5748-57.646zm11.8775 35.379c0 5.523-7.1634 10-16 10s-16-4.477-16-10 7.1634-10 16-10 16 4.477 16 10zm56.9999 12c2.209 0 4-1.119 4-2.5s-1.791-2.5-4-2.5-4 1.119-4 2.5 1.791 2.5 4 2.5zm13 2.5c0 1.381-1.791 2.5-4 2.5s-4-1.119-4-2.5 1.791-2.5 4-2.5 4 1.119 4 2.5zm5 7.5c2.209 0 4-1.119 4-2.5s-1.791-2.5-4-2.5-4 1.119-4 2.5 1.791 2.5 4 2.5zm13 2.5c0 1.381-1.791 2.5-4 2.5s-4-1.119-4-2.5 1.791-2.5 4-2.5 4 1.119 4 2.5zm-21 2.5c2.209 0 4-1.119 4-2.5s-1.791-2.5-4-2.5-4 1.119-4 2.5 1.791 2.5 4 2.5zm13 2.5c0 1.381-1.791 2.5-4 2.5s-4-1.119-4-2.5 1.791-2.5 4-2.5 4 1.119 4 2.5zm22.276-126.827c-6.613-3.813-14.82-3.528-21.153.734l-69.1229 46.509 96.5749 57.646c6.406 3.824 14.408 3.765 20.757-.154l74.668-46.095zm-25.276 46.112c8.837 0 16-4.477 16-10 0-5.522-7.163-10-16-10-8.836 0-16 4.478-16 10 0 5.523 7.164 10 16 10zm77-.5c0 1.381-1.791 2.5-4 2.5s-4-1.119-4-2.5c0-1.38 1.791-2.5 4-2.5s4 1.12 4 2.5zm5 7.5c2.209 0 4-1.119 4-2.5 0-1.38-1.791-2.5-4-2.5s-4 1.12-4 2.5c0 1.381 1.791 2.5 4 2.5zm13 2.5c0 1.381-1.791 2.5-4 2.5s-4-1.119-4-2.5c0-1.38 1.791-2.5 4-2.5s4 1.12 4 2.5zm5 7.5c2.209 0 4-1.119 4-2.5 0-1.38-1.791-2.5-4-2.5s-4 1.12-4 2.5c0 1.381 1.791 2.5 4 2.5zm-13-2.5c0 1.381-1.791 2.5-4 2.5s-4-1.119-4-2.5c0-1.38 1.791-2.5 4-2.5s4 1.12 4 2.5zm5 7.5c2.209 0 4-1.119 4-2.5 0-1.38-1.791-2.5-4-2.5s-4 1.12-4 2.5c0 1.381 1.791 2.5 4 2.5zm-54.877 66.836c6.333-4.261 14.54-4.546 21.153-.734l101.724 58.64-74.669 46.095c-6.348 3.919-14.35 3.979-20.756.155l-96.575-57.646zm11.877 35.379c0 5.523-7.163 10-16 10-8.836 0-16-4.477-16-10s7.164-10 16-10c8.837 0 16 4.477 16 10zm57 12c2.209 0 4-1.119 4-2.5s-1.791-2.5-4-2.5-4 1.119-4 2.5 1.791 2.5 4 2.5zm13 2.5c0 1.381-1.791 2.5-4 2.5s-4-1.119-4-2.5 1.791-2.5 4-2.5 4 1.119 4 2.5zm5 7.5c2.209 0 4-1.119 4-2.5s-1.791-2.5-4-2.5-4 1.119-4 2.5 1.791 2.5 4 2.5zm13 2.5c0 1.381-1.791 2.5-4 2.5s-4-1.119-4-2.5 1.791-2.5 4-2.5 4 1.119 4 2.5zm-21 2.5c2.209 0 4-1.119 4-2.5s-1.791-2.5-4-2.5-4 1.119-4 2.5 1.791 2.5 4 2.5zm13 2.5c0 1.381-1.791 2.5-4 2.5s-4-1.119-4-2.5 1.791-2.5 4-2.5 4 1.119 4 2.5zm22.276-126.827c-6.613-3.813-14.82-3.528-21.153.734l-69.123 46.509 96.575 57.646c6.406 3.824 14.408 3.765 20.757-.154l74.668-46.095zm-25.276 46.112c8.837 0 16-4.477 16-10 0-5.522-7.163-10-16-10-8.836 0-16 4.478-16 10 0 5.523 7.164 10 16 10zm77-.5c0 1.381-1.791 2.5-4 2.5s-4-1.119-4-2.5c0-1.38 1.791-2.5 4-2.5s4 1.12 4 2.5zm5 7.5c2.209 0 4-1.119 4-2.5 0-1.38-1.791-2.5-4-2.5s-4 1.12-4 2.5c0 1.381 1.791 2.5 4 2.5zm13 2.5c0 1.381-1.791 2.5-4 2.5s-4-1.119-4-2.5c0-1.38 1.791-2.5 4-2.5s4 1.12 4 2.5zm5 7.5c2.209 0 4-1.119 4-2.5 0-1.38-1.791-2.5-4-2.5s-4 1.12-4 2.5c0 1.381 1.791 2.5 4 2.5zm-13-2.5c0 1.381-1.791 2.5-4 2.5s-4-1.119-4-2.5c0-1.38 1.791-2.5 4-2.5s4 1.12 4 2.5zm5 7.5c2.209 0 4-1.119 4-2.5 0-1.38-1.791-2.5-4-2.5s-4 1.12-4 2.5c0 1.381 1.791 2.5 4 2.5zm39.123 6.622c6.333-4.262 14.54-4.547 21.153-.734l101.724 58.64-74.668 46.095c-6.349 3.919-14.351 3.978-20.757.154l-96.575-57.646zm11.877 35.378c0 5.523-7.163 10-16 10-8.836 0-16-4.477-16-10 0-5.522 7.164-10 16-10 8.837 0 16 4.478 16 10zm57 12c2.209 0 4-1.119 4-2.5 0-1.38-1.791-2.5-4-2.5s-4 1.12-4 2.5c0 1.381 1.791 2.5 4 2.5zm13 2.5c0 1.381-1.791 2.5-4 2.5s-4-1.119-4-2.5c0-1.38 1.791-2.5 4-2.5s4 1.12 4 2.5zm5 7.5c2.209 0 4-1.119 4-2.5 0-1.38-1.791-2.5-4-2.5s-4 1.12-4 2.5c0 1.381 1.791 2.5 4 2.5zm13 2.5c0 1.381-1.791 2.5-4 2.5s-4-1.119-4-2.5c0-1.38 1.791-2.5 4-2.5s4 1.12 4 2.5zm-21 2.5c2.209 0 4-1.119 4-2.5 0-1.38-1.791-2.5-4-2.5s-4 1.12-4 2.5c0 1.381 1.791 2.5 4 2.5zm13 2.5c0 1.381-1.791 2.5-4 2.5s-4-1.119-4-2.5c0-1.38 1.791-2.5 4-2.5s4 1.12 4 2.5z" fill="#686f75" fill-opacity=".2" fill-rule="evenodd"/></g></svg>