<svg fill="none" height="367" viewBox="0 0 441 367" width="441" xmlns="http://www.w3.org/2000/svg" xmlns:xlink="http://www.w3.org/1999/xlink"><filter id="a" color-interpolation-filters="sRGB" filterUnits="userSpaceOnUse" height="317" width="416" x="0" y="0"><feFlood flood-opacity="0" result="BackgroundImageFix"/><feColorMatrix in="SourceAlpha" type="matrix" values="0 0 0 0 0 0 0 0 0 0 0 0 0 0 0 0 0 0 127 0"/><feOffset dy="3"/><feGaussianBlur stdDeviation="4"/><feColorMatrix type="matrix" values="0 0 0 0 0 0 0 0 0 0 0 0 0 0 0 0 0 0 0.09 0"/><feBlend in2="BackgroundImageFix" mode="normal" result="effect1_dropShadow"/><feColorMatrix in="SourceAlpha" type="matrix" values="0 0 0 0 0 0 0 0 0 0 0 0 0 0 0 0 0 0 127 0"/><feOffset dy="2"/><feGaussianBlur stdDeviation="3"/><feColorMatrix type="matrix" values="0 0 0 0 0 0 0 0 0 0 0 0 0 0 0 0 0 0 0.06 0"/><feBlend in2="effect1_dropShadow" mode="normal" result="effect2_dropShadow"/><feColorMatrix in="SourceAlpha" type="matrix" values="0 0 0 0 0 0 0 0 0 0 0 0 0 0 0 0 0 0 127 0"/><feOffset dy="1"/><feGaussianBlur stdDeviation="1.5"/><feColorMatrix type="matrix" values="0 0 0 0 0 0 0 0 0 0 0 0 0 0 0 0 0 0 0.06 0"/><feBlend in2="effect2_dropShadow" mode="normal" result="effect3_dropShadow"/><feBlend in="SourceGraphic" in2="effect3_dropShadow" mode="normal" result="shape"/></filter><filter id="b" color-interpolation-filters="sRGB" filterUnits="userSpaceOnUse" height="108" width="88" x="214" y="71"><feFlood flood-opacity="0" result="BackgroundImageFix"/><feColorMatrix in="SourceAlpha" type="matrix" values="0 0 0 0 0 0 0 0 0 0 0 0 0 0 0 0 0 0 127 0"/><feOffset dy="3"/><feGaussianBlur stdDeviation="4"/><feColorMatrix type="matrix" values="0 0 0 0 0 0 0 0 0 0 0 0 0 0 0 0 0 0 0.09 0"/><feBlend in2="BackgroundImageFix" mode="normal" result="effect1_dropShadow"/><feColorMatrix in="SourceAlpha" type="matrix" values="0 0 0 0 0 0 0 0 0 0 0 0 0 0 0 0 0 0 127 0"/><feOffset dy="2"/><feGaussianBlur stdDeviation="3"/><feColorMatrix type="matrix" values="0 0 0 0 0 0 0 0 0 0 0 0 0 0 0 0 0 0 0.06 0"/><feBlend in2="effect1_dropShadow" mode="normal" result="effect2_dropShadow"/><feColorMatrix in="SourceAlpha" type="matrix" values="0 0 0 0 0 0 0 0 0 0 0 0 0 0 0 0 0 0 127 0"/><feOffset dy="1"/><feGaussianBlur stdDeviation="1.5"/><feColorMatrix type="matrix" values="0 0 0 0 0 0 0 0 0 0 0 0 0 0 0 0 0 0 0.06 0"/><feBlend in2="effect2_dropShadow" mode="normal" result="effect3_dropShadow"/><feBlend in="SourceGraphic" in2="effect3_dropShadow" mode="normal" result="shape"/></filter><filter id="c" color-interpolation-filters="sRGB" filterUnits="userSpaceOnUse" height="108" width="88" x="300" y="71"><feFlood flood-opacity="0" result="BackgroundImageFix"/><feColorMatrix in="SourceAlpha" type="matrix" values="0 0 0 0 0 0 0 0 0 0 0 0 0 0 0 0 0 0 127 0"/><feOffset dy="3"/><feGaussianBlur stdDeviation="4"/><feColorMatrix type="matrix" values="0 0 0 0 0 0 0 0 0 0 0 0 0 0 0 0 0 0 0.09 0"/><feBlend in2="BackgroundImageFix" mode="normal" result="effect1_dropShadow"/><feColorMatrix in="SourceAlpha" type="matrix" values="0 0 0 0 0 0 0 0 0 0 0 0 0 0 0 0 0 0 127 0"/><feOffset dy="2"/><feGaussianBlur stdDeviation="3"/><feColorMatrix type="matrix" values="0 0 0 0 0 0 0 0 0 0 0 0 0 0 0 0 0 0 0.06 0"/><feBlend in2="effect1_dropShadow" mode="normal" result="effect2_dropShadow"/><feColorMatrix in="SourceAlpha" type="matrix" values="0 0 0 0 0 0 0 0 0 0 0 0 0 0 0 0 0 0 127 0"/><feOffset dy="1"/><feGaussianBlur stdDeviation="1.5"/><feColorMatrix type="matrix" values="0 0 0 0 0 0 0 0 0 0 0 0 0 0 0 0 0 0 0.06 0"/><feBlend in2="effect2_dropShadow" mode="normal" result="effect3_dropShadow"/><feBlend in="SourceGraphic" in2="effect3_dropShadow" mode="normal" result="shape"/></filter><filter id="d" color-interpolation-filters="sRGB" filterUnits="userSpaceOnUse" height="108" width="88" x="128" y="176"><feFlood flood-opacity="0" result="BackgroundImageFix"/><feColorMatrix in="SourceAlpha" type="matrix" values="0 0 0 0 0 0 0 0 0 0 0 0 0 0 0 0 0 0 127 0"/><feOffset dy="3"/><feGaussianBlur stdDeviation="4"/><feColorMatrix type="matrix" values="0 0 0 0 0 0 0 0 0 0 0 0 0 0 0 0 0 0 0.09 0"/><feBlend in2="BackgroundImageFix" mode="normal" result="effect1_dropShadow"/><feColorMatrix in="SourceAlpha" type="matrix" values="0 0 0 0 0 0 0 0 0 0 0 0 0 0 0 0 0 0 127 0"/><feOffset dy="2"/><feGaussianBlur stdDeviation="3"/><feColorMatrix type="matrix" values="0 0 0 0 0 0 0 0 0 0 0 0 0 0 0 0 0 0 0.06 0"/><feBlend in2="effect1_dropShadow" mode="normal" result="effect2_dropShadow"/><feColorMatrix in="SourceAlpha" type="matrix" values="0 0 0 0 0 0 0 0 0 0 0 0 0 0 0 0 0 0 127 0"/><feOffset dy="1"/><feGaussianBlur stdDeviation="1.5"/><feColorMatrix type="matrix" values="0 0 0 0 0 0 0 0 0 0 0 0 0 0 0 0 0 0 0.06 0"/><feBlend in2="effect2_dropShadow" mode="normal" result="effect3_dropShadow"/><feBlend in="SourceGraphic" in2="effect3_dropShadow" mode="normal" result="shape"/></filter><filter id="e" color-interpolation-filters="sRGB" filterUnits="userSpaceOnUse" height="108" width="88" x="214" y="176"><feFlood flood-opacity="0" result="BackgroundImageFix"/><feColorMatrix in="SourceAlpha" type="matrix" values="0 0 0 0 0 0 0 0 0 0 0 0 0 0 0 0 0 0 127 0"/><feOffset dy="3"/><feGaussianBlur stdDeviation="4"/><feColorMatrix type="matrix" values="0 0 0 0 0 0 0 0 0 0 0 0 0 0 0 0 0 0 0.09 0"/><feBlend in2="BackgroundImageFix" mode="normal" result="effect1_dropShadow"/><feColorMatrix in="SourceAlpha" type="matrix" values="0 0 0 0 0 0 0 0 0 0 0 0 0 0 0 0 0 0 127 0"/><feOffset dy="2"/><feGaussianBlur stdDeviation="3"/><feColorMatrix type="matrix" values="0 0 0 0 0 0 0 0 0 0 0 0 0 0 0 0 0 0 0.06 0"/><feBlend in2="effect1_dropShadow" mode="normal" result="effect2_dropShadow"/><feColorMatrix in="SourceAlpha" type="matrix" values="0 0 0 0 0 0 0 0 0 0 0 0 0 0 0 0 0 0 127 0"/><feOffset dy="1"/><feGaussianBlur stdDeviation="1.5"/><feColorMatrix type="matrix" values="0 0 0 0 0 0 0 0 0 0 0 0 0 0 0 0 0 0 0.06 0"/><feBlend in2="effect2_dropShadow" mode="normal" result="effect3_dropShadow"/><feBlend in="SourceGraphic" in2="effect3_dropShadow" mode="normal" result="shape"/></filter><filter id="f" color-interpolation-filters="sRGB" filterUnits="userSpaceOnUse" height="108" width="88" x="300" y="171"><feFlood flood-opacity="0" result="BackgroundImageFix"/><feColorMatrix in="SourceAlpha" type="matrix" values="0 0 0 0 0 0 0 0 0 0 0 0 0 0 0 0 0 0 127 0"/><feOffset dy="3"/><feGaussianBlur stdDeviation="4"/><feColorMatrix type="matrix" values="0 0 0 0 0 0 0 0 0 0 0 0 0 0 0 0 0 0 0.09 0"/><feBlend in2="BackgroundImageFix" mode="normal" result="effect1_dropShadow"/><feColorMatrix in="SourceAlpha" type="matrix" values="0 0 0 0 0 0 0 0 0 0 0 0 0 0 0 0 0 0 127 0"/><feOffset dy="2"/><feGaussianBlur stdDeviation="3"/><feColorMatrix type="matrix" values="0 0 0 0 0 0 0 0 0 0 0 0 0 0 0 0 0 0 0.06 0"/><feBlend in2="effect1_dropShadow" mode="normal" result="effect2_dropShadow"/><feColorMatrix in="SourceAlpha" type="matrix" values="0 0 0 0 0 0 0 0 0 0 0 0 0 0 0 0 0 0 127 0"/><feOffset dy="1"/><feGaussianBlur stdDeviation="1.5"/><feColorMatrix type="matrix" values="0 0 0 0 0 0 0 0 0 0 0 0 0 0 0 0 0 0 0.06 0"/><feBlend in2="effect2_dropShadow" mode="normal" result="effect3_dropShadow"/><feBlend in="SourceGraphic" in2="effect3_dropShadow" mode="normal" result="shape"/></filter><filter id="g" color-interpolation-filters="sRGB" filterUnits="userSpaceOnUse" height="218" width="174" x="267" y="149"><feFlood flood-opacity="0" result="BackgroundImageFix"/><feColorMatrix in="SourceAlpha" type="matrix" values="0 0 0 0 0 0 0 0 0 0 0 0 0 0 0 0 0 0 127 0"/><feOffset dy="3"/><feGaussianBlur stdDeviation="4"/><feColorMatrix type="matrix" values="0 0 0 0 0 0 0 0 0 0 0 0 0 0 0 0 0 0 0.09 0"/><feBlend in2="BackgroundImageFix" mode="normal" result="effect1_dropShadow"/><feColorMatrix in="SourceAlpha" type="matrix" values="0 0 0 0 0 0 0 0 0 0 0 0 0 0 0 0 0 0 127 0"/><feOffset dy="2"/><feGaussianBlur stdDeviation="3"/><feColorMatrix type="matrix" values="0 0 0 0 0 0 0 0 0 0 0 0 0 0 0 0 0 0 0.06 0"/><feBlend in2="effect1_dropShadow" mode="normal" result="effect2_dropShadow"/><feColorMatrix in="SourceAlpha" type="matrix" values="0 0 0 0 0 0 0 0 0 0 0 0 0 0 0 0 0 0 127 0"/><feOffset dy="1"/><feGaussianBlur stdDeviation="1.5"/><feColorMatrix type="matrix" values="0 0 0 0 0 0 0 0 0 0 0 0 0 0 0 0 0 0 0.06 0"/><feBlend in2="effect2_dropShadow" mode="normal" result="effect3_dropShadow"/><feBlend in="SourceGraphic" in2="effect3_dropShadow" mode="normal" result="shape"/></filter><filter id="h" color-interpolation-filters="sRGB" filterUnits="userSpaceOnUse" height="108" width="88" x="128" y="71"><feFlood flood-opacity="0" result="BackgroundImageFix"/><feColorMatrix in="SourceAlpha" type="matrix" values="0 0 0 0 0 0 0 0 0 0 0 0 0 0 0 0 0 0 127 0"/><feOffset dy="3"/><feGaussianBlur stdDeviation="4"/><feColorMatrix type="matrix" values="0 0 0 0 0 0 0 0 0 0 0 0 0 0 0 0 0 0 0.09 0"/><feBlend in2="BackgroundImageFix" mode="normal" result="effect1_dropShadow"/><feColorMatrix in="SourceAlpha" type="matrix" values="0 0 0 0 0 0 0 0 0 0 0 0 0 0 0 0 0 0 127 0"/><feOffset dy="2"/><feGaussianBlur stdDeviation="3"/><feColorMatrix type="matrix" values="0 0 0 0 0 0 0 0 0 0 0 0 0 0 0 0 0 0 0.06 0"/><feBlend in2="effect1_dropShadow" mode="normal" result="effect2_dropShadow"/><feColorMatrix in="SourceAlpha" type="matrix" values="0 0 0 0 0 0 0 0 0 0 0 0 0 0 0 0 0 0 127 0"/><feOffset dy="1"/><feGaussianBlur stdDeviation="1.5"/><feColorMatrix type="matrix" values="0 0 0 0 0 0 0 0 0 0 0 0 0 0 0 0 0 0 0.06 0"/><feBlend in2="effect2_dropShadow" mode="normal" result="effect3_dropShadow"/><feBlend in="SourceGraphic" in2="effect3_dropShadow" mode="normal" result="shape"/></filter><g filter="url(#a)"><rect fill="#fff" height="301" rx="7" width="400" x="8" y="5"/><rect height="300" rx="6.5" stroke="#c8ccd0" width="399" x="8.5" y="5.5"/></g><path d="m107 46h300v259h-300z" fill="#fafafb"/><rect fill="#fafafb" height="17" rx="2.5" stroke="#e4e6e8" width="73" x="21.5" y="16.5"/><rect fill="#fafafb" height="17" rx="2.5" stroke="#e4e6e8" width="154" x="120.5" y="16.5"/><g filter="url(#b)"><rect fill="#fafafb" height="92" rx="3" width="72" x="222" y="76"/></g><g filter="url(#c)"><rect fill="#fafafb" height="92" rx="3" width="72" x="308" y="76"/></g><g filter="url(#d)"><rect fill="#fafafb" height="92" rx="3" width="72" x="136" y="181"/></g><g filter="url(#e)"><rect fill="#fafafb" height="92" rx="3" width="72" x="222" y="181"/></g><g filter="url(#f)"><rect fill="#fff" height="92" rx="3" width="72" x="308" y="176"/></g><g fill="#fafafb"><rect height="17" rx="2.5" stroke="#e4e6e8" width="17" x="378.5" y="16.5"/><rect height="11" rx="2.5" stroke="#e4e6e8" width="73" x="21.5" y="59.5"/><rect height="11" rx="2.5" stroke="#e4e6e8" width="73" x="21.5" y="77.5"/><rect height="11" rx="2.5" stroke="#e4e6e8" width="73" x="21.5" y="95.5"/><rect height="11" rx="2.5" stroke="#e4e6e8" width="73" x="21.5" y="113.5"/></g><path d="m107.5 5v301" stroke="#c8ccd0"/><path d="m107 45.5h301" stroke="#c8ccd0"/><g filter="url(#g)"><rect fill="#fff" height="202" rx="3" width="158" x="275" y="154"/></g><path d="m311.667 254.445v6.314h-14.485v-6.314h-2.182v8.555h18.845v-8.555z" fill="#bcbbbb"/><path d="m299.177 258.722h10.503v-2.036h-10.503zm.21-4.871 10.202 2.199.42-2.091-10.202-2.199zm1.343-5.022 9.447 4.526.881-1.94-9.446-4.526zm2.624-4.764 8.019 6.855 1.344-1.638-8.04-6.855zm5.164-5.065-1.679 1.272 6.214 8.6 1.679-1.272z" fill="#f48024"/><path d="m321.972 253.92-1.34-.126c-1.055-.083-1.461-.528-1.461-1.25 0-.875.649-1.417 1.867-1.417.866 0 1.624.208 2.219.681l.799-.82c-.744-.626-1.814-.917-3.004-.917-1.787 0-3.072.944-3.072 2.515 0 1.417.866 2.167 2.49 2.306l1.38.125c.961.084 1.394.5 1.394 1.251 0 1.014-.853 1.514-2.219 1.514-1.042 0-1.936-.278-2.599-.986l-.812.833c.921.904 2.017 1.237 3.424 1.237 2.016 0 3.397-.959 3.397-2.612 0-1.612-1.002-2.196-2.463-2.334zm10.447-3.849c-1.34 0-2.179.278-2.923 1.236-.014.014.798.82.798.82.487-.709 1.042-.973 2.111-.973 1.529 0 2.138.626 2.138 1.876v.82h-2.517c-1.867 0-2.882.973-2.882 2.473 0 .681.216 1.32.622 1.737.528.556 1.205.778 2.355.778 1.123 0 1.732-.222 2.409-.917v.82h1.218v-5.822c.013-1.848-1.083-2.848-3.329-2.848zm2.124 5.641c0 .709-.135 1.209-.419 1.487-.528.528-1.151.569-1.868.569-1.326 0-1.921-.472-1.921-1.459 0-.986.609-1.514 1.867-1.514h2.341zm6.008-4.53c.799 0 1.286.25 1.922.959l.812-.82c-.853-.945-1.583-1.25-2.734-1.25-2.111 0-3.694 1.459-3.694 4.39 0 2.932 1.597 4.391 3.694 4.391 1.151 0 1.881-.319 2.747-1.278l-.825-.82c-.622.709-1.123.973-1.922.973-.812 0-1.488-.334-1.935-.973-.392-.556-.541-1.223-.541-2.306 0-1.084.149-1.737.541-2.307.447-.625 1.123-.959 1.935-.959zm10.461-1.014h-1.529l-3.789 3.779v-7.6h-1.218v12.408h1.218v-3.126l1.488-1.529 2.801 4.655h1.516l-3.464-5.53zm5.751-.445c-1.286 0-2.152.514-2.693 1.098-.785.834-.988 1.848-.988 3.46 0 1.626.203 2.64.988 3.474.528.583 1.407 1.097 2.693 1.097 1.285 0 2.165-.514 2.706-1.097.785-.834.988-1.848.988-3.474 0-1.612-.203-2.626-.988-3.46-.541-.584-1.421-1.098-2.706-1.098zm1.015 6.725c-.257.264-.582.389-1.015.389s-.758-.138-1.001-.389c-.447-.458-.501-1.25-.501-2.181s.054-1.695.501-2.154c.257-.264.568-.389 1.001-.389s.771.139 1.015.389c.446.459.5 1.237.5 2.154 0 .931-.054 1.723-.5 2.181zm8.444-6.627-1.759 5.516-1.773-5.516h-2.273l3.207 8.934h1.705l3.193-8.934zm5.981-.098c-2.26 0-3.789 1.64-3.789 4.558 0 3.612 1.976 4.571 4.019 4.571 1.57 0 2.422-.5 3.302-1.403l-1.313-1.32c-.555.57-1.015.834-1.975.834-1.218 0-1.908-.834-1.908-1.987h5.439v-1.001c.014-2.445-1.353-4.252-3.775-4.252zm-1.651 3.724c.014-.389.068-.639.203-.959.23-.528.717-.931 1.448-.931s1.218.389 1.448.931c.135.32.189.57.203.959zm8.647-2.765v-.861h-2.124v8.934h2.165v-5.377c0-1.126.73-1.64 1.407-1.64.528 0 .812.181 1.15.528l1.638-1.695c-.596-.612-1.205-.834-2.057-.834-.92-.014-1.759.431-2.179.945zm4.912-1.792v9.851h2.165v-7.045h1.611v-1.695h-1.597v-.972c0-.515.257-.806.771-.806h.839v-1.89h-1.231c-1.786 0-2.558 1.292-2.558 2.557zm12.707.833c-1.286 0-2.152.514-2.693 1.098-.785.834-.988 1.848-.988 3.46 0 1.626.203 2.64.988 3.474.528.583 1.407 1.097 2.693 1.097s2.165-.514 2.706-1.097c.785-.834.988-1.848.988-3.474 0-1.612-.203-2.626-.988-3.46-.527-.584-1.42-1.098-2.706-1.098zm1.028 6.725c-.257.264-.581.389-1.015.389-.433 0-.757-.138-1.001-.389-.446-.458-.501-1.25-.501-2.181s.055-1.695.501-2.154c.257-.264.568-.389 1.001-.389.434 0 .772.139 1.015.389.447.459.501 1.237.501 2.154 0 .931-.054 1.723-.501 2.181zm12.924-6.627-1.408 5.516-1.786-5.516h-1.583l-1.773 5.516-1.407-5.516h-2.301l2.666 8.934h1.786l1.814-5.6 1.813 5.6h1.786l2.679-8.934zm-19.676 6.238v-9.726h-2.165v9.865c0 1.265.758 2.557 2.544 2.557h1.231v-1.89h-.839c-.555 0-.771-.278-.771-.806zm-63.276-4.529 1.123-1.154h-2.314v-2.834h-1.218v8.906c0 1.279.717 2.307 2.138 2.307h.866v-1.084h-.649c-.785 0-1.137-.472-1.137-1.25v-4.891z" fill="#222426"/><circle cx="410" cy="170" fill="#171717" r="2"/><circle cx="416" cy="170" fill="#171717" r="2"/><circle cx="404" cy="170" fill="#171717" r="2"/><path d="m314.168 316.24 1.072-.094c.051.43.168.784.352 1.061.187.273.476.496.867.668.391.168.83.252 1.318.252.434 0 .817-.065 1.149-.193.332-.129.578-.305.738-.528.164-.226.246-.472.246-.738 0-.27-.078-.504-.234-.703-.156-.203-.414-.373-.774-.51-.23-.09-.74-.228-1.529-.416-.789-.191-1.342-.371-1.658-.539-.41-.215-.717-.48-.92-.797-.199-.32-.299-.678-.299-1.072 0-.434.123-.838.369-1.213.246-.379.606-.666 1.078-.861.473-.196.998-.293 1.577-.293.636 0 1.197.103 1.681.31.488.203.863.504 1.125.903.262.398.403.849.422 1.353l-1.09.082c-.058-.543-.258-.953-.597-1.23-.336-.278-.834-.416-1.495-.416-.687 0-1.189.127-1.505.38-.313.25-.469.553-.469.909 0 .308.111.562.334.761.219.2.789.405 1.711.616.925.207 1.56.388 1.904.545.5.23.869.523 1.107.878.239.352.358.758.358 1.219 0 .457-.131.889-.393 1.295-.261.402-.638.717-1.131.943-.488.223-1.039.334-1.652.334-.777 0-1.43-.113-1.957-.339-.523-.227-.935-.567-1.236-1.02-.297-.457-.453-.973-.469-1.547zm10.559 1.817.152.931c-.297.063-.563.094-.797.094-.383 0-.68-.061-.891-.182s-.359-.279-.445-.474c-.086-.199-.129-.615-.129-1.248v-3.58h-.773v-.821h.773v-1.541l1.049-.632v2.173h1.061v.821h-1.061v3.638c0 .301.018.494.053.58.039.086.099.155.181.205.086.051.207.077.364.077.117 0 .271-.014.463-.041zm5.097.175c-.39.332-.767.567-1.131.704-.359.136-.746.205-1.16.205-.683 0-1.209-.166-1.576-.498-.367-.336-.551-.764-.551-1.284 0-.304.069-.582.205-.832.141-.254.323-.457.545-.609.227-.152.481-.268.762-.346.207-.054.52-.107.937-.158.852-.102 1.479-.223 1.881-.363.004-.145.006-.237.006-.276 0-.429-.099-.732-.299-.908-.269-.238-.67-.357-1.201-.357-.496 0-.863.088-1.101.263-.235.172-.409.479-.522.92l-1.031-.14c.094-.442.248-.797.463-1.067.215-.273.525-.482.931-.627.407-.148.877-.222 1.413-.222.531 0 .962.062 1.294.187s.577.283.733.475c.156.187.266.426.328.715.035.179.053.504.053.972v1.407c0 .98.021 1.601.064 1.863.047.258.137.506.27.744h-1.102c-.109-.219-.18-.475-.211-.768zm-.088-2.355c-.382.156-.957.289-1.722.398-.434.063-.741.133-.92.211-.18.078-.319.194-.416.346-.098.148-.147.314-.147.498 0 .281.106.516.317.703.214.188.527.281.937.281.406 0 .768-.087 1.084-.263.317-.18.549-.424.697-.733.114-.238.17-.589.17-1.054zm6.768.844 1.037.134c-.113.715-.404 1.276-.873 1.682-.465.402-1.037.604-1.717.604-.851 0-1.537-.278-2.056-.832-.516-.559-.774-1.358-.774-2.397 0-.672.111-1.26.334-1.764.223-.503.561-.88 1.014-1.13.457-.254.953-.381 1.488-.381.676 0 1.229.172 1.658.515.43.34.705.825.826 1.453l-1.025.159c-.098-.418-.271-.733-.521-.944-.247-.211-.545-.316-.897-.316-.531 0-.963.191-1.295.574-.332.379-.498.981-.498 1.805 0 .836.16 1.443.481 1.822.32.379.738.568 1.253.568.415 0 .76-.127 1.038-.38.277-.254.453-.645.527-1.172zm1.945 2.279v-8.59h1.055v4.899l2.496-2.532h1.365l-2.379 2.309 2.619 3.914h-1.3l-2.057-3.182-.744.715v2.467zm9.123-4.184c0-1.425.383-2.541 1.149-3.345.765-.809 1.754-1.213 2.965-1.213.793 0 1.507.189 2.144.568s1.121.908 1.453 1.588c.336.676.504 1.443.504 2.303 0 .871-.176 1.65-.527 2.338-.352.687-.85 1.209-1.494 1.564-.645.352-1.34.527-2.086.527-.809 0-1.532-.195-2.168-.585-.637-.391-1.119-.924-1.448-1.6-.328-.676-.492-1.391-.492-2.145zm1.172.018c0 1.035.277 1.852.832 2.449.559.594 1.258.891 2.098.891.855 0 1.558-.301 2.109-.903.555-.601.832-1.455.832-2.56 0-.699-.119-1.309-.357-1.828-.235-.524-.58-.928-1.037-1.213-.453-.289-.963-.434-1.53-.434-.804 0-1.498.278-2.08.832-.578.551-.867 1.473-.867 2.766zm10.108 4.166-2.368-6.223h1.114l1.336 3.727c.144.402.277.82.398 1.254.094-.328.225-.723.393-1.184l1.382-3.797h1.084l-2.355 6.223zm8.531-2.004 1.09.135c-.172.637-.491 1.131-.955 1.482-.465.352-1.059.528-1.782.528-.91 0-1.632-.28-2.168-.838-.531-.563-.797-1.35-.797-2.362 0-1.046.27-1.859.809-2.437s1.238-.867 2.098-.867c.832 0 1.511.283 2.039.849.527.567.791 1.364.791 2.391 0 .062-.002.156-.006.281h-4.641c.039.684.233 1.207.58 1.571.348.363.782.544 1.301.544.387 0 .717-.101.99-.304.274-.203.491-.528.651-.973zm-3.463-1.705h3.475c-.047-.523-.18-.916-.399-1.178-.336-.406-.771-.609-1.307-.609-.484 0-.892.162-1.224.486-.328.324-.51.758-.545 1.301zm5.871 3.709v-6.223h.949v.944c.242-.442.465-.733.668-.873.207-.141.434-.211.68-.211.355 0 .717.113 1.084.34l-.363.978c-.258-.152-.516-.228-.774-.228-.23 0-.437.07-.621.211-.184.136-.314.328-.393.574-.117.375-.175.785-.175 1.23v3.258zm4.26 0v-5.402h-.932v-.821h.932v-.662c0-.418.037-.728.111-.931.102-.274.279-.495.533-.663.258-.171.617-.257 1.078-.257.297 0 .625.035.985.105l-.158.92c-.219-.039-.426-.059-.621-.059-.321 0-.547.069-.68.206-.133.136-.199.392-.199.767v.574h1.212v.821h-1.212v5.402zm3.064 0v-8.59h1.055v8.59zm2.303-3.111c0-1.153.32-2.006.961-2.561.535-.461 1.187-.691 1.957-.691.855 0 1.555.281 2.098.843.543.559.814 1.332.814 2.321 0 .801-.121 1.431-.363 1.892-.239.457-.588.813-1.049 1.067-.457.254-.957.381-1.5.381-.871 0-1.576-.28-2.115-.838-.535-.559-.803-1.364-.803-2.414zm1.084 0c0 .797.174 1.394.521 1.793.348.394.786.591 1.313.591.523 0 .959-.199 1.307-.597.347-.399.521-1.006.521-1.822 0-.77-.176-1.352-.527-1.747-.348-.398-.782-.597-1.301-.597-.527 0-.965.197-1.313.592-.347.394-.521.99-.521 1.787zm7.137 3.111-1.905-6.223h1.09l.99 3.592.37 1.336c.015-.066.123-.494.322-1.283l.99-3.645h1.084l.932 3.61.31 1.189.358-1.201 1.066-3.598h1.025l-1.945 6.223h-1.096l-.99-3.727-.24-1.06-1.26 4.787zm-58.84 14v-5.402h-.932v-.821h.932v-.662c0-.418.037-.728.111-.931.102-.274.279-.495.533-.663.258-.171.618-.257 1.078-.257.297 0 .625.035.985.105l-.158.92c-.219-.039-.426-.059-.621-.059-.321 0-.547.069-.68.206-.133.136-.199.392-.199.767v.574h1.213v.821h-1.213v5.402zm2.695-3.111c0-1.153.32-2.006.961-2.561.535-.461 1.188-.691 1.957-.691.856 0 1.555.281 2.098.843.543.559.814 1.332.814 2.321 0 .801-.121 1.431-.363 1.892-.238.457-.588.813-1.049 1.067-.457.254-.957.381-1.5.381-.871 0-1.576-.28-2.115-.838-.535-.559-.803-1.364-.803-2.414zm1.084 0c0 .797.174 1.394.522 1.793.347.394.785.591 1.312.591.524 0 .959-.199 1.307-.597.347-.399.521-1.006.521-1.822 0-.77-.176-1.352-.527-1.747-.348-.398-.781-.597-1.301-.597-.527 0-.965.197-1.312.592-.348.394-.522.99-.522 1.787zm5.977 3.111v-6.223h.949v.944c.242-.442.465-.733.668-.873.207-.141.433-.211.68-.211.355 0 .716.113 1.084.34l-.364.978c-.258-.152-.515-.228-.773-.228-.231 0-.438.07-.621.211-.184.136-.315.328-.393.574-.117.375-.176.785-.176 1.23v3.258zm9.445 0v-7.576h-2.83v-1.014h6.809v1.014h-2.842v7.576zm7.939-2.004 1.09.135c-.172.637-.49 1.131-.955 1.482-.465.352-1.058.528-1.781.528-.91 0-1.633-.28-2.168-.838-.531-.563-.797-1.35-.797-2.362 0-1.046.27-1.859.809-2.437s1.238-.867 2.097-.867c.832 0 1.512.283 2.039.849.528.567.791 1.364.791 2.391 0 .062-.002.156-.005.281h-4.641c.039.684.232 1.207.58 1.571.348.363.781.544 1.301.544.387 0 .717-.101.99-.304s.49-.528.65-.973zm-3.462-1.705h3.474c-.047-.523-.18-.916-.398-1.178-.336-.406-.772-.609-1.307-.609-.484 0-.892.162-1.225.486-.328.324-.509.758-.544 1.301zm9.943 2.941c-.391.332-.768.567-1.131.704-.359.136-.746.205-1.16.205-.684 0-1.209-.166-1.576-.498-.367-.336-.551-.764-.551-1.284 0-.304.068-.582.205-.832.141-.254.322-.457.545-.609.227-.152.48-.268.762-.346.207-.054.519-.107.937-.158.852-.102 1.479-.223 1.881-.363.004-.145.006-.237.006-.276 0-.429-.1-.732-.299-.908-.269-.238-.67-.357-1.201-.357-.496 0-.863.088-1.102.263-.234.172-.408.479-.521.92l-1.031-.14c.093-.442.248-.797.462-1.067.215-.273.526-.482.932-.627.406-.148.877-.222 1.412-.222.531 0 .963.062 1.295.187s.576.283.733.475c.156.187.265.426.328.715.035.179.052.504.052.972v1.407c0 .98.022 1.601.065 1.863.047.258.137.506.269.744h-1.101c-.11-.219-.18-.475-.211-.768zm-.088-2.355c-.383.156-.957.289-1.723.398-.433.063-.74.133-.92.211-.179.078-.318.194-.416.346-.097.148-.146.314-.146.498 0 .281.105.516.316.703.215.188.528.281.938.281.406 0 .767-.087 1.084-.263.316-.18.549-.424.697-.733.113-.238.17-.589.17-1.054zm2.707 3.123v-6.223h.943v.873c.196-.304.456-.548.78-.732.324-.188.693-.281 1.107-.281.461 0 .838.095 1.131.287.297.191.506.459.627.803.492-.727 1.133-1.09 1.922-1.09.617 0 1.092.172 1.424.515.332.34.498.866.498 1.577v4.271h-1.049v-3.92c0-.422-.035-.725-.106-.908-.066-.188-.189-.338-.369-.451-.179-.114-.39-.17-.633-.17-.437 0-.8.146-1.089.439-.289.289-.434.754-.434 1.395v3.615h-1.055v-4.043c0-.469-.086-.82-.257-1.055-.172-.234-.454-.351-.844-.351-.297 0-.573.078-.826.234-.25.156-.432.385-.545.686-.114.3-.17.734-.17 1.3v3.229zm9.574-1.857 1.043-.164c.059.417.221.738.487.96.269.223.644.334 1.125.334.484 0 .843-.097 1.078-.293.234-.199.351-.431.351-.697 0-.238-.103-.426-.31-.562-.145-.094-.504-.213-1.078-.358-.774-.195-1.311-.363-1.612-.504-.297-.144-.523-.341-.679-.591-.153-.254-.229-.534-.229-.838 0-.278.063-.534.188-.768.128-.238.302-.435.521-.592.164-.121.387-.222.668-.304.285-.086.59-.129.914-.129.488 0 .916.07 1.283.211.371.14.645.332.821.574.175.238.296.558.363.961l-1.031.14c-.047-.32-.184-.57-.411-.75-.222-.179-.539-.269-.949-.269-.484 0-.83.08-1.037.24s-.31.348-.31.563c0 .136.043.259.129.369.085.113.22.207.404.281.105.039.416.129.931.27.747.199 1.266.363 1.559.492.297.125.529.308.697.551.168.242.252.542.252.902 0 .351-.103.683-.31.996-.203.309-.498.549-.885.721-.387.168-.824.252-1.313.252-.808 0-1.425-.168-1.851-.504-.422-.336-.692-.834-.809-1.494z" fill="#000"/><g filter="url(#h)"><rect fill="#fafafb" height="92" rx="3" width="72" x="136" y="76"/></g></svg>