<svg width="194" height="36" fill="none" xmlns="http://www.w3.org/2000/svg"><path d="M17.43.997c-3.213 0-5.81 2.607-5.81 5.833 0 3.227 2.599 5.835 5.812 5.835 3.212 0 5.81-2.609 5.81-5.835.001-3.227-2.597-5.833-5.81-5.833h-.002zm0 8.27a2.442 2.442 0 0 1-2.426-2.437 2.441 2.441 0 0 1 2.426-2.436 2.441 2.441 0 0 1 2.427 2.436 2.442 2.442 0 0 1-2.427 2.438zm23.244 3.398c-3.214 0-5.811 2.607-5.811 5.833s2.597 5.833 5.81 5.833c3.213 0 5.809-2.607 5.809-5.833s-2.597-5.834-5.81-5.834h.002zm0 8.27a2.441 2.441 0 0 1-2.428-2.437 2.441 2.441 0 0 1 2.427-2.437 2.44 2.44 0 0 1 2.426 2.436 2.419 2.419 0 0 1-2.427 2.436l.002.002z" fill="#ffffff"/><path d="M40.674.997c-3.214 0-5.811 2.607-5.811 5.833 0 3.227 2.596 5.835 5.809 5.835s5.81-2.609 5.81-5.835c0-3.227-2.597-5.833-5.81-5.833h.002zm0 8.27a2.441 2.441 0 0 1-2.428-2.437 2.441 2.441 0 0 1 2.427-2.436 2.44 2.44 0 0 1 2.425 2.436 2.441 2.441 0 0 1-2.426 2.437h.002zm-11.622 3.398c-3.214 0-5.81 2.607-5.81 5.833s2.597 5.833 5.81 5.833c3.213 0 5.81-2.607 5.81-5.833s-2.597-5.834-5.81-5.834zm0 8.27a2.442 2.442 0 0 1-2.427-2.437 2.441 2.441 0 0 1 2.427-2.437 2.44 2.44 0 0 1 2.427 2.436 2.42 2.42 0 0 1-2.427 2.436v.002z" fill="#ffffff"/><path d="M29.052.997c-3.214 0-5.81 2.607-5.81 5.833 0 3.227 2.597 5.835 5.81 5.835 3.213 0 5.81-2.609 5.81-5.835 0-3.227-2.597-5.833-5.81-5.833zm0 8.27a2.442 2.442 0 0 1-2.427-2.437 2.441 2.441 0 0 1 2.427-2.436A2.441 2.441 0 0 1 31.48 6.83a2.443 2.443 0 0 1-2.427 2.438zm0 15.066c-3.214 0-5.81 2.607-5.81 5.833 0 3.227 2.597 5.834 5.81 5.834 3.213 0 5.81-2.609 5.81-5.834 0-3.192-2.597-5.833-5.81-5.833zm0 8.27a2.442 2.442 0 0 1-2.427-2.437 2.44 2.44 0 0 1 2.427-2.437 2.441 2.441 0 0 1 2.427 2.437 2.42 2.42 0 0 1-2.427 2.438z" fill="#ffffff"/><path d="M17.43 24.333c-3.213 0-5.81 2.607-5.81 5.833 0 3.227 2.599 5.834 5.812 5.834s5.81-2.609 5.81-5.834c.001-3.192-2.597-5.834-5.81-5.834l-.002.001zm0 8.27a2.442 2.442 0 0 1-2.426-2.437 2.44 2.44 0 0 1 2.426-2.437 2.441 2.441 0 0 1 2.427 2.437 2.42 2.42 0 0 1-2.427 2.438zm34.864-19.939c-3.214 0-5.81 2.608-5.81 5.834 0 3.226 2.597 5.833 5.81 5.833 3.214 0 5.81-2.607 5.81-5.833s-2.597-5.834-5.81-5.834zm0 8.271a2.443 2.443 0 0 1-2.427-2.437 2.441 2.441 0 0 1 2.427-2.437 2.441 2.441 0 0 1 2.427 2.436 2.42 2.42 0 0 1-2.427 2.436v.002zm11.62-8.27c-3.213 0-5.81 2.607-5.81 5.833s2.598 5.833 5.81 5.833c3.214 0 5.812-2.607 5.812-5.833.035-3.227-2.598-5.834-5.81-5.834h-.003zm0 8.27a2.442 2.442 0 0 1-2.427-2.437 2.441 2.441 0 0 1 2.427-2.437 2.441 2.441 0 0 1 2.428 2.436c0 1.373-1.06 2.436-2.427 2.436l-.002.002zm11.656-8.27c-3.214 0-5.81 2.607-5.81 5.833s2.596 5.833 5.81 5.833c3.213 0 5.81-2.607 5.81-5.833s-2.597-5.834-5.81-5.834zm0 8.27a2.442 2.442 0 0 1-2.427-2.437 2.441 2.441 0 0 1 2.427-2.437 2.44 2.44 0 0 1 2.426 2.436c-.033 1.373-1.093 2.436-2.425 2.436l-.001.002zM5.81.997C2.596.997 0 3.604 0 6.83c0 3.227 2.598 5.835 5.81 5.835 3.214 0 5.81-2.609 5.81-5.835 0-3.227-2.597-5.833-5.81-5.833zm0 8.27A2.442 2.442 0 0 1 3.383 6.83a2.442 2.442 0 0 1 2.428-2.436A2.441 2.441 0 0 1 8.238 6.83 2.443 2.443 0 0 1 5.81 9.268zm34.864 15.066c-3.214 0-5.811 2.607-5.811 5.833 0 3.227 2.597 5.834 5.81 5.834 3.213 0 5.809-2.609 5.809-5.834 0-3.192-2.597-5.834-5.81-5.834l.002.001zm0 8.27a2.441 2.441 0 0 1-2.428-2.437 2.44 2.44 0 0 1 2.427-2.437 2.44 2.44 0 0 1 2.426 2.437 2.42 2.42 0 0 1-2.427 2.437h.002z" fill="#ffffff"/><path d="M52.294.997c-3.214 0-5.81 2.607-5.81 5.833 0 3.227 2.597 5.835 5.81 5.835 3.214 0 5.81-2.609 5.81-5.835 0-3.227-2.597-5.833-5.81-5.833zm0 8.27a2.443 2.443 0 0 1-2.427-2.437 2.441 2.441 0 0 1 2.427-2.436A2.442 2.442 0 0 1 54.72 6.83a2.443 2.443 0 0 1-2.427 2.438zm11.62-8.27c-3.213 0-5.81 2.607-5.81 5.833 0 3.227 2.597 5.835 5.81 5.835 3.213 0 5.812-2.609 5.812-5.835.035-3.227-2.598-5.833-5.81-5.833h-.003zm0 8.27a2.442 2.442 0 0 1-2.427-2.437 2.441 2.441 0 0 1 2.427-2.436 2.442 2.442 0 0 1 2.428 2.436 2.42 2.42 0 0 1-2.427 2.437h-.002zM87.191.998c-3.214 0-5.812 2.607-5.812 5.833 0 3.227 2.598 5.835 5.811 5.835 3.212 0 5.809-2.609 5.809-5.835C93 3.603 90.402.997 87.19.997h.002zm0 8.27a2.441 2.441 0 0 1-2.428-2.437 2.441 2.441 0 0 1 2.427-2.436 2.44 2.44 0 0 1 2.426 2.436 2.442 2.442 0 0 1-2.427 2.437h.002zm0 15.066c-3.214 0-5.812 2.607-5.812 5.833 0 3.227 2.598 5.834 5.811 5.834C90.403 36 93 33.39 93 30.166c0-3.192-2.598-5.834-5.81-5.834l.002.001zm0 8.27a2.441 2.441 0 0 1-2.428-2.437 2.44 2.44 0 0 1 2.427-2.437 2.441 2.441 0 0 1 2.426 2.437 2.42 2.42 0 0 1-2.427 2.437h.002zM75.57.998c-3.214 0-5.81 2.607-5.81 5.833 0 3.227 2.596 5.835 5.81 5.835 3.213 0 5.81-2.609 5.81-5.835 0-3.227-2.597-5.833-5.81-5.833zm0 8.27a2.442 2.442 0 0 1-2.427-2.437 2.441 2.441 0 0 1 2.427-2.436 2.441 2.441 0 0 1 2.426 2.436c-.033 1.339-1.093 2.437-2.425 2.437h-.001zm0 15.066c-3.214 0-5.81 2.607-5.81 5.833 0 3.227 2.596 5.834 5.81 5.834 3.213 0 5.81-2.609 5.81-5.834 0-3.192-2.597-5.833-5.81-5.833zm0 8.27a2.442 2.442 0 0 1-2.427-2.437 2.44 2.44 0 0 1 2.427-2.437 2.441 2.441 0 0 1 2.426 2.437c-.033 1.372-1.093 2.437-2.425 2.437h-.001zm-11.657-8.27c-3.212 0-5.809 2.607-5.809 5.833 0 3.227 2.598 5.834 5.81 5.834 3.214 0 5.812-2.609 5.812-5.834.035-3.192-2.598-5.834-5.81-5.834l-.003.001zm0 8.27a2.442 2.442 0 0 1-2.426-2.437 2.44 2.44 0 0 1 2.427-2.437 2.442 2.442 0 0 1 2.428 2.437c0 1.372-1.06 2.437-2.427 2.437h-.002zm-11.62-8.27c-3.213 0-5.81 2.607-5.81 5.833 0 3.227 2.599 5.834 5.81 5.834 3.215 0 5.811-2.609 5.811-5.834 0-3.192-2.597-5.833-5.81-5.833zm0 8.27a2.443 2.443 0 0 1-2.426-2.437 2.44 2.44 0 0 1 2.427-2.437 2.442 2.442 0 0 1 2.427 2.437 2.421 2.421 0 0 1-2.427 2.438zM5.81 12.665c-3.214 0-5.81 2.608-5.81 5.834 0 3.226 2.598 5.833 5.81 5.833 3.214 0 5.81-2.607 5.81-5.833s-2.597-5.834-5.81-5.834zm0 8.271a2.442 2.442 0 0 1-2.427-2.437 2.442 2.442 0 0 1 2.428-2.437 2.44 2.44 0 0 1 2.427 2.436 2.42 2.42 0 0 1-2.428 2.436v.002zm11.621-8.27c-3.214 0-5.81 2.607-5.81 5.833s2.598 5.833 5.81 5.833c3.213 0 5.81-2.607 5.81-5.833s-2.596-5.834-5.808-5.834h-.002zm0 8.27a2.442 2.442 0 0 1-2.427-2.437 2.441 2.441 0 0 1 2.426-2.437 2.44 2.44 0 0 1 2.427 2.436 2.419 2.419 0 0 1-2.427 2.436v.002zM5.81 24.333C2.596 24.333 0 26.94 0 30.166 0 33.393 2.598 36 5.81 36c3.214 0 5.81-2.609 5.81-5.834 0-3.192-2.596-5.834-5.81-5.834v.001zm0 8.27a2.442 2.442 0 0 1-2.427-2.437 2.441 2.441 0 0 1 2.428-2.437 2.441 2.441 0 0 1 2.427 2.437 2.421 2.421 0 0 1-2.428 2.438z" fill="#ffffff"/><path d="M87.192 12.665c-3.214 0-5.812 2.607-5.812 5.833s2.598 5.833 5.811 5.833c3.212 0 5.809-2.607 5.809-5.833s-2.597-5.834-5.809-5.834h.001zm0 8.27a2.441 2.441 0 0 1-2.428-2.437 2.441 2.441 0 0 1 2.427-2.437 2.44 2.44 0 0 1 2.426 2.436 2.42 2.42 0 0 1-2.427 2.436l.002.002zM163.204 29.683V15.65c0-2.937-.31-5.01-1.728-6.808-1.73-2.247-3.87-3.146-6.602-3.146-3.87 0-7.05 2.35-9.124 5.115a6.898 6.898 0 0 0-1.072-1.97c-1.728-2.246-3.87-3.145-6.6-3.145-3.492 0-6.395 1.9-8.435 4.286V6.25h-8.502v.83h.52c1.14 0 1.866.69 1.866 2.073v20.53c0 1.384-.725 2.075-1.865 2.075h-.52v.83h10.888v-.83h-.52c-1.14 0-1.867-.69-1.867-2.074V13.13c1.383-1.797 3.664-3.836 6.083-3.836 1.73 0 2.973.656 3.698 1.73.726 1 .864 2.072.864 3.386v15.276c0 1.383-.726 2.074-1.866 2.074h-.52v.83h10.888v-.83h-.518c-1.14 0-1.867-.69-1.867-2.074V15.65c0-.83-.035-1.625-.104-2.35 1.35-1.867 3.7-4.01 6.223-4.01 1.728 0 2.973.657 3.698 1.73.727 1.002.866 2.073.866 3.387v15.276c0 1.383-.727 2.074-1.867 2.074h-.52v.83h10.888v-.83h-.52c-1.14 0-1.864-.69-1.864-2.074h-.001zM105.864 7.08h.518c1.14 0 1.867.69 1.867 2.074v20.323c0 1.382-.727 2.28-1.868 2.28h-.518v.83h10.887v-.83h-.518c-1.14 0-1.866-.69-1.866-2.073V9.154c0-1.383.726-2.074 1.866-2.074h.52v-.83h-10.888v.83zm86.926 18.732c-1.072 1.693-3.976 4.84-8.814 4.666-4.043-.138-7.604-3.456-9.193-8.986-1.97-6.843-.277-11.51 4.113-13.548 3.422-1.59 7.396.07 8.538 1.728-1.556.76-1.833 2.696-1.487 3.872.657 2.108 3.354 3.214 5.392 1.66 1.176-.9 1.486-2.35 1.176-3.837-.347-1.555-1.66-2.8-3.18-3.767-1.97-1.245-4.286-2.005-7.26-2.04-7.154-.07-13.79 5.945-13.79 14.206 0 8.502 7.362 13.652 13.687 13.652 6.567 0 10.61-4.078 12.028-6.81-.035-.035-1.106-.692-1.21-.796z" fill="#ffffff"/></svg>