<svg width="620" height="515" fill="none" xmlns="http://www.w3.org/2000/svg"><g clip-path="url(#clip0)"><path d="M497.6 410.95l-187.38 84.54-187.38-84.54V5.19H497.6v405.76z" fill="#FDD86F"/><path d="M310.22 500.68a5.358 5.358 0 0 1-2.13-.47l-187.36-84.54a5.189 5.189 0 0 1-3.11-4.66V5.19a5.222 5.222 0 0 1 1.54-3.678A5.217 5.217 0 0 1 122.85 0h374.8a5.19 5.19 0 0 1 5.19 5.19V411a5.18 5.18 0 0 1-.869 2.788 5.179 5.179 0 0 1-2.241 1.872l-187.37 84.6a5.423 5.423 0 0 1-2.14.42zM127.98 407.6l182.2 82.19 182.2-82.19V10.39h-364.4V407.6z" fill="#FDD86F"/><path d="M134.98 403.79V17h351.71v386.79l-175.86 79.34-175.85-79.34z" fill="#E9C05B"/><path d="M245.27 471.23a252.107 252.107 0 0 0-25.35-30.38c-13.68-13.79-26.7-25.66-31.94-30.39-1.36-1.21-2.48-.73-2.41 1.08.23 6.22 2.07 20.65 14.51 35.77 9.53 11.82 24.07 19.64 34.69 24.07 1.67.7 1.56 1-.18.64a214.15 214.15 0 0 1-50.72-16.16 7.782 7.782 0 0 1-3.73-4.59 213.534 213.534 0 0 0-12.78-35.61c-7.92-16.74-16.35-31.49-19.83-37.48-.92-1.56-2.15-1.45-2.62.31a61.2 61.2 0 0 0 2.48 37.88c5.07 13.75 15.42 25.06 23.32 32.17 1.36 1.19 1.19 1.46-.4.59a211.535 211.535 0 0 1-44.62-32.83 7.728 7.728 0 0 1-2-5.56c1.04-11.815.9-23.703-.42-35.49a350.645 350.645 0 0 0-7.22-39.5c-.42-1.76-1.55-2-2.58-.45a60.301 60.301 0 0 0-8.3 34.95c.64 13.53 6.22 26.34 10.88 34.94.89 1.56.63 1.79-.59.45a222.588 222.588 0 0 1-31.82-45.35 7.669 7.669 0 0 1-.15-5.91 168.328 168.328 0 0 0 10.54-33.54 332.273 332.273 0 0 0 4.95-39.52c.11-1.8-1-2.39-2.35-1.23a59.472 59.472 0 0 0-18.38 30.53c-3.47 13.14-2.12 27.08-.28 36.64.34 1.77 0 1.88-.7.23A232.842 232.842 0 0 1 62.5 304a7.539 7.539 0 0 1 1.39-5.72 150.236 150.236 0 0 0 17.57-27.81 297.558 297.558 0 0 0 13.77-35.16c.54-1.73-.38-2.57-2-1.76a56.999 56.999 0 0 0-23.81 23.65c-6.23 11.28-8.32 24.47-8.91 33.67-.12 1.81-.43 1.84-.74 0a229.044 229.044 0 0 1-3.11-46.26 7.543 7.543 0 0 1 2.83-5.15 118.865 118.865 0 0 0 20.42-19.36 234.573 234.573 0 0 0 18.91-27.4c.92-1.55.22-2.56-1.56-2.09a52.569 52.569 0 0 0-24.63 15.55c-7.42 8.05-12 18.27-14.53 25.75-.59 1.73-.9 1.67-.73-.14a219.13 219.13 0 0 1 7.92-41.63 7.771 7.771 0 0 1 4-4.32 108.591 108.591 0 0 0 22.89-13.19 226.146 226.146 0 0 0 23.87-21.26c1.26-1.31.81-2.43-1-2.32a52 52 0 0 0-26.07 9.24 72.997 72.997 0 0 0-19.44 20.65c-.46.812-.98 1.588-1.56 2.32a1.6 1.6 0 0 1 .16-.48c.31-.91.62-1.79 1-2.69.38-.9.63-1.75 1-2.63l1-2.66 1-2.61c.38-.89.73-1.78 1.11-2.65l1.1-2.6 1.17-2.62c.39-.86.79-1.71 1.2-2.57l1.22-2.61 1.28-2.54c.44-.85.87-1.72 1.32-2.58.45-.86.87-1.68 1.32-2.5l1.4-2.57c.47-.84.94-1.66 1.42-2.49.48-.83 1-1.69 1.46-2.53l1.56-2.46.42-.68a8.35 8.35 0 0 1 3.67-1.17 91.592 91.592 0 0 0 21.91-6.86 194.015 194.015 0 0 0 25.13-14.38c1.56-1 1.28-2.17-.53-2.37a49.836 49.836 0 0 0-24.06 3.75 70.525 70.525 0 0 0-20.34 13.39c-1.32 1.23-1.55 1-.54-.45 3.333-4.88 6.89-9.66 10.67-14.34a27.282 27.282 0 0 1 4.72-4.39 258.618 258.618 0 0 0 23.23-18.27 334.264 334.264 0 0 0 24.6-24.7c1.21-1.36.76-2.09-.95-1.56a92.928 92.928 0 0 0-31.1 17.87 81.064 81.064 0 0 0-18.67 24.4 34.683 34.683 0 0 1-3.47 5.51 239.828 239.828 0 0 0-10.88 14.54c-1 1.55-1.26 1.37-.61-.31 2.44-6.22 5.68-15 8.26-24.19a110 110 0 0 0 4.11-26.54c0-1.82-1.06-2.18-2.15-.74-4 5.31-12.68 18.15-15.55 31.71a50.62 50.62 0 0 0 .2 24.19 9.11 9.11 0 0 1 .56 3.84l-.44.73c-.49.81-1 1.56-1.46 2.43-.46.87-1 1.72-1.55 2.61-.55.89-1 1.63-1.4 2.44l-1.43 2.64-1.31 2.52c-.47.89-.9 1.78-1.35 2.68-.45.9-.84 1.66-1.25 2.49-.41.83-.85 1.8-1.27 2.69-.42.89-.8 1.69-1.18 2.53-.38.84-.75 1.78-1.17 2.71-.42.93-.75 1.69-1.1 2.55-.35.86-.75 1.82-1.12 2.74-.37.92-.7 1.71-1 2.56-.3.85-.72 1.84-1.06 2.76-.34.92-.64 1.72-1 2.58l-1 2.78c-.03.184-.087.363-.17.53a10.09 10.09 0 0 1 .22-2.74c.9-7.54 2-18.66 2.3-30a130.998 130.998 0 0 0-2.94-31.1c-.41-1.76-1.56-1.87-2.32-.22-3 6.61-9.44 23.33-8.69 39.53a57.11 57.11 0 0 0 7.63 27.31 8.42 8.42 0 0 1 .86 5.9 219.486 219.486 0 0 0-8 42.36c-.16 1.81-.45 1.81-.7 0-1.09-8-2.91-19.63-5.65-31.27a140.888 140.888 0 0 0-11.5-31.35c-.84-1.55-2-1.41-2.33.38-1.3 7.38-3.57 26.29 1.55 43a60.876 60.876 0 0 0 15.48 26.4 8.26 8.26 0 0 1 2.3 5.48c-.53 15.786.56 31.586 3.25 47.15.31 1.79 0 1.87-.67.2-3.54-8.63-9.11-21.54-15.55-34.29a173.616 173.616 0 0 0-21.77-32.75c-1.19-1.37-2.29-.92-2.2.89.44 8.36 2.87 31.1 13.67 48.85 8.9 14.83 19.44 22.11 25.4 25.33a8.21 8.21 0 0 1 3.57 4.66 233.449 233.449 0 0 0 15.07 44.47c.74 1.65.49 1.8-.61.36-6-7.78-15-19.38-24.88-30.56a185.857 185.857 0 0 0-31.11-28c-1.55-1-2.46-.32-1.93 1.42 2.48 8.4 10.86 31.38 26.85 46.93 13.17 13 26 17.45 32.93 19a7.998 7.998 0 0 1 4.68 3.57 225.985 225.985 0 0 0 32.43 46.19c1.21 1.34 1 1.55-.47.53-8.15-5.68-20.22-13.84-32.75-21.42a181.83 181.83 0 0 0-37.89-17.1c-1.72-.53-2.44.45-1.41 1.94 4.9 7.2 19.8 26.66 39.72 36.59 16.57 8.37 30.26 8.67 37.37 8.07a8.112 8.112 0 0 1 5.62 1.9 213.514 213.514 0 0 0 45.38 33.41c1.55.87 1.55 1.13-.25.6-10.39-3.11-25.83-7.57-41.34-11.46a204.863 204.863 0 0 0-44-5.94c-1.82 0-2.24 1.12-.82 2.27 7 5.77 28.41 21.31 52.42 25.13 20 3.33 34.37-.88 41.43-3.81a8.515 8.515 0 0 1 6 0 212.632 212.632 0 0 0 21.16 8.5c1.71.57 3.11 1 3.11 1s1.41.42 3.11.95a226.815 226.815 0 0 0 24.38 5.95c1.78.35 1.76.59 0 .61-11.74.09-29.2.3-46.08 1a220.751 220.751 0 0 0-45.57 6.8c-1.74.49-1.82 1.68-.14 2.38 8.64 3.53 34.69 12.44 60.44 9.22 21.52-2.63 34.91-10.89 41.18-15.82a9.071 9.071 0 0 1 5.79-1.69c1.21.15 2.42.28 3.64.4 1.8.19 3.26-.36 3.26-1.17 0-.81-1.46-1.64-3.25-1.85l-3.11-.37a8.35 8.35 0 0 1-5.07-3.18zm129.89-1.56a252.188 252.188 0 0 1 25.37-30.37c13.68-13.8 26.7-25.66 32-30.39 1.33-1.21 2.45-.73 2.39 1.07-.23 6.22-2 20.65-14.52 35.77-9.52 11.82-24.06 19.64-34.67 24.08-1.68.7-1.56 1 .17.63a214.125 214.125 0 0 0 50.72-16.15 7.782 7.782 0 0 0 3.73-4.59 212.445 212.445 0 0 1 12.78-35.62c7.92-16.73 16.35-31.49 19.83-37.48.92-1.55 2.15-1.44 2.61.31 1.67 6 4.25 20.22-2.47 37.89-5.12 13.75-15.47 25.05-23.37 32.18-1.35 1.2-1.18 1.46.41.59a212.063 212.063 0 0 0 44.62-32.83 7.713 7.713 0 0 0 2-5.55c-1.04-11.815-.9-23.703.42-35.49a355.95 355.95 0 0 1 7.23-39.41c.42-1.76 1.63-2 2.58-.45a60.113 60.113 0 0 1 8.29 34.94c-.64 13.53-6.22 26.35-10.89 35-.87 1.56-.62 1.79.59.45a222.079 222.079 0 0 0 31.82-45.35 7.613 7.613 0 0 0 .16-5.91 169.886 169.886 0 0 1-10.55-33.54 332.656 332.656 0 0 1-5-39.52c-.11-1.81 1-2.4 2.37-1.23a59.507 59.507 0 0 1 18.38 30.43c3.48 13.15 2.13 27.08.3 36.65-.35 1.77 0 1.88.69.23a232.213 232.213 0 0 0 14.83-43.62 7.573 7.573 0 0 0-1.4-5.72 149.87 149.87 0 0 1-17.6-27.81 299.304 299.304 0 0 1-13.76-35.16c-.55-1.73.37-2.57 2-1.76a57.005 57.005 0 0 1 23.76 23.66c6.31 11.32 8.4 24.51 9 33.67.11 1.8.42 1.83.73 0a229.107 229.107 0 0 0 3.13-46.27 7.555 7.555 0 0 0-2.83-5.15 118.217 118.217 0 0 1-20.38-19.36 235.283 235.283 0 0 1-18.91-27.34c-.91-1.56-.21-2.57 1.56-2.1a52.743 52.743 0 0 1 24.62 15.55c7.43 8.06 12 18.28 14.52 25.76.59 1.72.9 1.66.73-.14a218.48 218.48 0 0 0-7.91-41.64 7.802 7.802 0 0 0-4-4.32 107.932 107.932 0 0 1-23-13.19 226.272 226.272 0 0 1-23.79-21.26c-1.28-1.3-.83-2.42 1-2.31a52.148 52.148 0 0 1 26.1 9.23 73.051 73.051 0 0 1 19.43 20.66c.469.803.99 1.575 1.56 2.31a1.696 1.696 0 0 0-.16-.48c-.31-.9-.62-1.79-1-2.69-.38-.9-.64-1.74-1-2.63-.36-.89-.67-1.77-1-2.66l-1-2.61c-.35-.89-.73-1.77-1.08-2.64l-1.12-2.6-1.2-2.63c-.39-.85-.79-1.71-1.2-2.57-.41-.86-.81-1.74-1.24-2.61-.43-.87-.83-1.68-1.26-2.53l-1.3-2.58c-.43-.84-.89-1.68-1.34-2.51l-1.4-2.56-1.4-2.49-1.43-2.54-1.55-2.45-.42-.69a8.71 8.71 0 0 0-3.67-1.17 90.832 90.832 0 0 1-21.91-6.85 195.337 195.337 0 0 1-25.14-14.39c-1.55-1-1.27-2.16.53-2.36a49.9 49.9 0 0 1 24.17 3.74 70.912 70.912 0 0 1 20.22 13.39c1.32 1.23 1.55 1 .54-.45-3.333-4.88-6.89-9.66-10.67-14.34a27.094 27.094 0 0 0-4.76-4.38 263.612 263.612 0 0 1-23.32-18.27 336.234 336.234 0 0 1-24.56-24.67c-1.21-1.35-.76-2.08 1-1.56a93.308 93.308 0 0 1 31.11 17.87 81.202 81.202 0 0 1 18.66 24.41 34.178 34.178 0 0 0 3.47 5.5c3.84 4.753 7.467 9.6 10.88 14.54 1 1.56 1.26 1.37.61-.31-2.44-6.22-5.68-15-8.26-24.18a110.53 110.53 0 0 1-4.1-26.55c0-1.82 1.06-2.18 2.14-.73 4 5.3 12.69 18.15 15.56 31.71a51.1 51.1 0 0 1-.19 24.18 9 9 0 0 0-.58 3.84l.44.74 1.46 2.42c.51.86 1 1.73 1.56 2.61l1.38 2.45c.48.88 1 1.75 1.43 2.64.43.89.89 1.65 1.32 2.47.43.82.91 1.78 1.36 2.68.45.9.84 1.66 1.24 2.49l1.29 2.69 1.17 2.53c.4.9.81 1.81 1.19 2.71.38.9.75 1.69 1.11 2.55l1.12 2.73c.35.86.69 1.71 1 2.57.31.86.71 1.84 1 2.75.29.91.64 1.73 1 2.59l1 2.78.19.53c.02-.919-.06-1.838-.24-2.74-.9-7.54-2-18.66-2.3-30a130.993 130.993 0 0 1 2.94-31.1c.41-1.76 1.56-1.87 2.32-.22 3 6.61 9.44 23.33 8.69 39.53a57.098 57.098 0 0 1-7.62 27.33 8.381 8.381 0 0 0-.85 5.89 222.053 222.053 0 0 1 8 42.37c.15 1.8.45 1.8.7 0 1.09-8 2.92-19.63 5.64-31.28a140.319 140.319 0 0 1 11.53-31.38c.85-1.56 2-1.42 2.33.37 1.29 7.39 3.56 26.3-1.56 43a60.85 60.85 0 0 1-15.42 26.44 8.262 8.262 0 0 0-2.3 5.47 230.678 230.678 0 0 1-3.26 47.16c-.31 1.78 0 1.86.67.2 3.55-8.63 9.12-21.54 15.63-34.29a173.744 173.744 0 0 1 21.85-32.76c1.19-1.37 2.29-.91 2.2.89-.44 8.37-2.86 31.1-13.67 48.85-8.9 14.84-19.43 22.11-25.4 25.33a8.18 8.18 0 0 0-3.65 4.67 234.031 234.031 0 0 1-15.07 44.46c-.75 1.65-.5 1.81.6.36 6-7.78 15-19.38 24.89-30.56a185.764 185.764 0 0 1 31.1-28c1.55-1 2.46-.33 1.93 1.41-2.55 8.34-11 31.37-26.92 46.86-13.18 12.95-26 17.45-32.94 19a7.999 7.999 0 0 0-4.75 3.53 225.238 225.238 0 0 1-32.42 46.18c-1.21 1.34-1 1.56.47.53 8.14-5.67 20.21-13.84 32.75-21.41a182.13 182.13 0 0 1 37.88-17.11c1.74-.53 2.44.45 1.43 1.95-4.91 7.2-19.79 26.65-39.73 36.59-16.55 8.37-30.24 8.69-37.33 8.07a8.076 8.076 0 0 0-5.61 1.9 214.029 214.029 0 0 1-45.4 33.38c-1.56.87-1.48 1.14.25.61 10.38-3.11 25.83-7.57 41.33-11.46a204.994 204.994 0 0 1 44-5.94c1.8 0 2.22 1.12.82 2.27-7.06 5.77-28.42 21.3-52.44 25.13-20 3.33-34.35-.89-41.43-3.81a8.465 8.465 0 0 0-5.95 0 212.523 212.523 0 0 1-21.2 8.44c-1.71.58-3.11 1-3.11 1s-1.42.42-3.11.95a229.498 229.498 0 0 1-24.37 6c-1.79.34-1.77.59 0 .61 11.74.09 29.21.29 46.08 1a219.97 219.97 0 0 1 45.57 6.75c1.74.5 1.82 1.68.14 2.38-8.63 3.53-34.68 12.44-60.42 9.22-21.54-2.62-34.93-10.88-41.2-15.81a9.082 9.082 0 0 0-5.79-1.7c-1.21.16-2.42.28-3.63.41-1.81.18-3.27-.36-3.27-1.17 0-.81 1.46-1.65 3.27-1.85l3.11-.37a8.282 8.282 0 0 0 4.97-2.99z" fill="#CCA650"/><path d="M288.4 439.36l14.62 25.26 14.41-.04 14.67-25.22h-43.7z" fill="#F58722"/><path d="M288.44 439.33l-21.83 37.84 29.19-.05 7.17-12.49-14.53-25.3z" fill="#1A6178"/><path d="M288.4 514.85h43.7l-14.67-25.23-14.41-.03-14.62 25.26z" fill="#1298B6"/><path d="M288.44 514.88l14.53-25.3-7.17-12.49-29.19-.05 21.83 37.84z" fill="#89BB48"/><path d="M324.65 477.15l-7.16 12.49 14.51 25.3 21.84-37.84-29.19.05z" fill="#A7529E"/><path d="M80.03 279.31H.98l30.06 51.76L.98 382.83h112.08V279.31H80.03zm539.44 0H507.38v103.52h112.09l-30.07-51.76 30.07-51.76z" fill="#667EA8"/><path d="M534.83 348.42V224H86.98V348.42h447.85z" fill="#7B95D3"/><path d="M167.98 311v-1.4a11.721 11.721 0 0 1-3.42-.56 2.45 2.45 0 0 1-1.44-1.61 13.565 13.565 0 0 1-.39-3.85v-34.72a13.565 13.565 0 0 1 .39-3.85 2.44 2.44 0 0 1 1.44-1.61 11.721 11.721 0 0 1 3.42-.56v-1.4c-2.28.14-5.827.21-10.64.21h-.6c-4.42 0-7.89-.08-10.38-.21v1.4c1.151.023 2.293.212 3.39.56a2.434 2.434 0 0 1 1.47 1.61c.313 1.258.445 2.555.39 3.85v16.52h-18.53v-16.52a13.635 13.635 0 0 1 .38-3.85 2.433 2.433 0 0 1 1.43-1.61 11.99 11.99 0 0 1 3.44-.56v-1.4c-2.527.14-6.05.21-10.57.21h-.55c-4.72 0-8.22-.08-10.52-.21v1.4a12.01 12.01 0 0 1 3.4.56 2.434 2.434 0 0 1 1.47 1.61c.309 1.259.437 2.555.38 3.85v34.72a13.635 13.635 0 0 1-.38 3.85 2.432 2.432 0 0 1-1.47 1.61 12.01 12.01 0 0 1-3.4.56v1.4c2.39-.14 6.07-.21 11.07-.21 4.52 0 8.043.07 10.57.21v-1.4a11.99 11.99 0 0 1-3.44-.56 2.438 2.438 0 0 1-1.43-1.61 13.635 13.635 0 0 1-.38-3.85v-16.8h18.55v16.8a13.565 13.565 0 0 1-.39 3.85 2.432 2.432 0 0 1-1.47 1.61 12.006 12.006 0 0 1-3.39.56v1.4c2.607-.14 6.273-.21 11-.21 4.813 0 8.36.07 10.64.21h-.04zm28.1-49.7l17 43.82.14.32a8.114 8.114 0 0 0 2 3 3.995 3.995 0 0 0 2.3 1.12V311c-2.8-.14-6.343-.21-10.63-.21h-.55c-4.493 0-7.857.07-10.09.21v-1.4h.34a10.059 10.059 0 0 0 3.43-.65 1.862 1.862 0 0 0 1.12-1.85 9.68 9.68 0 0 0-.84-3.36l-4.19-11.48h-15.29l-1.84 4.81-.16.43a22.492 22.492 0 0 0-1.8 7.34 3.995 3.995 0 0 0 1.58 3.61 9.521 9.521 0 0 0 4.66 1.15v1.4h-.95c-2.8-.107-5.38-.163-7.74-.17-2.14 0-3.92.07-5.31.21v-1.4h.2c2.2-.533 4.137-2.97 5.81-7.31l16-40.95h.15c.473.04 1.14.06 2 .06h.29c1.13 0 1.92 0 2.39-.07l-.02-.07zm-7.42 10.64l-7.28 18.9h14.2l-6.92-18.9zm29.32-10.5h.29c2.367.127 5.817.19 10.35.19l7.76-.07h.41c.84 0 1.78-.05 2.81-.05 6.3 0 11.107 1.25 14.42 3.75a11.895 11.895 0 0 1 5 10 14.365 14.365 0 0 1-8.57 13.3c-3.113 1.627-7.237 2.44-12.37 2.44h-3.72v12.55a9.715 9.715 0 0 0 .59 3.73 3.11 3.11 0 0 0 2.1 1.71c1.576.343 3.187.508 4.8.49V311c-5.75-.14-10-.21-12.81-.21-2.34 0-5.283.047-8.83.14l-2.23.07v-1.4h.34a11.22 11.22 0 0 0 3.05-.54 2.434 2.434 0 0 0 1.47-1.61c.313-1.258.445-2.555.39-3.85v-35.09a12.583 12.583 0 0 0-.38-3.5 2.432 2.432 0 0 0-1.47-1.61 12.006 12.006 0 0 0-3.39-.56l-.01-1.4zm20.72 1.4a5.859 5.859 0 0 0-2.77.49 2.725 2.725 0 0 0-1.22 1.75 14.782 14.782 0 0 0-.36 3.78v20.72h3c3.78 0 6.393-1.213 7.84-3.64s2.167-5.717 2.16-9.87c0-4.527-.667-7.86-2-10-1.333-2.14-3.547-3.217-6.64-3.23h-.01zm23.8-1.4h.3c2.373.127 5.823.19 10.35.19l7.76-.07h.41c.84 0 1.77-.05 2.81-.05 6.3 0 11.11 1.25 14.43 3.75a11.938 11.938 0 0 1 5 10 14.456 14.456 0 0 1-8.58 13.34c-3.12 1.6-7.25 2.4-12.39 2.4h-3.71v12.55a9.715 9.715 0 0 0 .59 3.73 3.11 3.11 0 0 0 2.1 1.71c1.573.343 3.18.507 4.79.49V311c-5.74-.14-10-.21-12.81-.21-2.327 0-5.263.047-8.81.14l-2.25.07v-1.4h.35a11.22 11.22 0 0 0 3.05-.54 2.434 2.434 0 0 0 1.47-1.61c.309-1.259.437-2.555.38-3.85v-35.09a12.583 12.583 0 0 0-.38-3.5 2.432 2.432 0 0 0-1.47-1.61 12.01 12.01 0 0 0-3.4-.56l.01-1.4zm20.72 1.4a5.829 5.829 0 0 0-2.76.49 2.725 2.725 0 0 0-1.22 1.75 14.782 14.782 0 0 0-.36 3.78v20.72h3c3.78 0 6.393-1.213 7.84-3.64s2.167-5.717 2.16-9.87c0-4.527-.667-7.86-2-10-1.333-2.14-3.553-3.217-6.66-3.23zM328.65 311v-1.4a11.998 11.998 0 0 1-3.43-.56 2.465 2.465 0 0 1-1.43-1.61 13.565 13.565 0 0 1-.39-3.85v-34.72a13.565 13.565 0 0 1 .39-3.85 2.465 2.465 0 0 1 1.43-1.61 11.998 11.998 0 0 1 3.43-.56v-1.4c-2.52.14-6.04.21-10.56.21h-.55c-4.72 0-8.223-.07-10.51-.21v1.4c1.151.023 2.293.212 3.39.56a2.434 2.434 0 0 1 1.47 1.61c.313 1.258.445 2.555.39 3.85v34.72a13.565 13.565 0 0 1-.39 3.85 2.432 2.432 0 0 1-1.47 1.61 12.006 12.006 0 0 1-3.39.56v1.4c2.373-.14 6.06-.21 11.06-.21 4.52 0 8.04.07 10.56.21zm45.57.14v-39.06c-.046-1.805.084-3.61.39-5.39a4.398 4.398 0 0 1 1.47-2.69 7.348 7.348 0 0 1 3.39-1.19v-1.4c-1.44.14-3.47.21-6.09.21h-.56c-2.953 0-5.287-.07-7-.21v1.4c1.584.081 3.132.501 4.54 1.23.481.313.891.722 1.204 1.203.314.48.524 1.021.616 1.587.34 2.001.484 4.031.43 6.06v21.91l-27.09-33.39c-1.69.14-3.69.21-6 .21-2.56 0-4.59-.07-6.09-.21v1.4a12.01 12.01 0 0 1 3.4.56 2.435 2.435 0 0 1 1.45 1.63c.309 1.259.437 2.555.38 3.85v31.5a27.88 27.88 0 0 1-.38 5.39 4.405 4.405 0 0 1-1.47 2.66 7.34 7.34 0 0 1-3.4 1.19V311c1.5-.14 3.53-.21 6.09-.21 3.22 0 5.75.07 7.56.21v-1.4a11.293 11.293 0 0 1-4.54-1.22 4.188 4.188 0 0 1-1.83-2.8 31.61 31.61 0 0 1-.41-6.06v-26.88l30.37 38.5 1.9-.07 1.67.07zm48.52-.14a94.052 94.052 0 0 1-.49-10.64c0-2.38.06-4.34.21-5.88h-1.62c-.84 5.407-2.273 9.243-4.3 11.51a10.237 10.237 0 0 1-8 3.4h-3.44a10.374 10.374 0 0 1-3.12-.39 2.088 2.088 0 0 1-1.32-1.37 10.603 10.603 0 0 1-.35-3.25v-17.6h2.23c4.72 0 7.56 3.08 8.55 9.24h1.6c-.28-4.25-.41-7.56-.41-9.94v-3.36c0-2.427.067-4.62.2-6.58h-1.6a17.232 17.232 0 0 1-2.7 6.51 6.462 6.462 0 0 1-5.64 2.73h-2.23V268a10.603 10.603 0 0 1 .35-3.25 2.081 2.081 0 0 1 1.32-1.35 10.395 10.395 0 0 1 3.15-.35h2.85c3.32 0 5.88 1 7.7 3 1.82 2 3.09 5.51 3.78 10.5h1.62a38.417 38.417 0 0 1-.22-4.76c0-3 .17-6.49.5-10.36-2.72.127-7.19.197-13.41.21h-2.7c-9.427 0-16.543-.07-21.35-.21v1.4c1.154.022 2.3.211 3.4.56a2.434 2.434 0 0 1 1.47 1.61c.309 1.259.437 2.555.38 3.85v34.72a13.635 13.635 0 0 1-.38 3.85 2.434 2.434 0 0 1-1.49 1.58c-1.1.349-2.246.538-3.4.56V311c5.053-.14 12.663-.21 22.83-.21 7.513 0 12.857.07 16.03.21zm23.79 1c3 .041 5.982-.482 8.79-1.54a14.065 14.065 0 0 0 6.27-4.58 12.158 12.158 0 0 0 2.31-7.53 12.638 12.638 0 0 0-1.51-6.26 17.011 17.011 0 0 0-3.89-4.73 68.48 68.48 0 0 0-6.5-4.76l-2.25-1.6c-2.61-1.73-4.54-3.09-5.81-4.09a12.16 12.16 0 0 1-2.94-3.33 8.49 8.49 0 0 1-1-4.27 6.677 6.677 0 0 1 2.13-5.21 8.005 8.005 0 0 1 5.56-1.93 9.389 9.389 0 0 1 6.13 2.14 13.93 13.93 0 0 1 4.06 5.56 23.017 23.017 0 0 1 1.72 7.21h1.6c0-7.507.12-12.84.36-16h-1.62a7.902 7.902 0 0 1-.56 2.35 1.082 1.082 0 0 1-1 .73 2.464 2.464 0 0 1-1-.28c-.4-.19-.85-.42-1.36-.7a22.091 22.091 0 0 0-4.41-2 19.45 19.45 0 0 0-5.81-.7 21.358 21.358 0 0 0-7.84 1.4 12.63 12.63 0 0 0-5.71 4.3 11.71 11.71 0 0 0-2.13 7.11 12.49 12.49 0 0 0 1.6 6.4 17.303 17.303 0 0 0 4.14 4.8c1.67 1.35 3.92 2.94 6.72 4.76a40.377 40.377 0 0 1 8 6.3 9.711 9.711 0 0 1 2.52 6.72 7.101 7.101 0 0 1-2.46 5.81 9.439 9.439 0 0 1-6.22 2c-4.16 0-7.243-1.62-9.25-4.86-2.007-3.24-3.173-7.477-3.5-12.71h-1.69c0 9.66-.093 15.96-.28 18.9h1.6a9.052 9.052 0 0 1 .56-2.35 1.082 1.082 0 0 1 1-.73 5.14 5.14 0 0 1 2.39 1 21.674 21.674 0 0 0 4.76 1.89c2.13.543 4.322.806 6.52.78zm40.88 0c3 .041 5.982-.482 8.79-1.54a14.005 14.005 0 0 0 6.26-4.58 12.1 12.1 0 0 0 2.32-7.53 12.649 12.649 0 0 0-1.51-6.26 17.011 17.011 0 0 0-3.89-4.73 67.551 67.551 0 0 0-6.51-4.76l-2.24-1.6c-2.607-1.733-4.54-3.097-5.8-4.09a12.002 12.002 0 0 1-3-3.33 8.39 8.39 0 0 1-1-4.27 6.673 6.673 0 0 1 2.13-5.21 8.005 8.005 0 0 1 5.56-1.93 9.389 9.389 0 0 1 6.13 2.14 13.93 13.93 0 0 1 4.06 5.56 22.69 22.69 0 0 1 1.71 7.21h1.62c0-7.507.117-12.84.35-16h-1.61a7.902 7.902 0 0 1-.56 2.35 1.082 1.082 0 0 1-1 .73 2.414 2.414 0 0 1-1-.28c-.4-.19-.85-.42-1.36-.7a22.091 22.091 0 0 0-4.41-2 19.45 19.45 0 0 0-5.81-.7 21.317 21.317 0 0 0-7.84 1.4 12.63 12.63 0 0 0-5.71 4.3 11.708 11.708 0 0 0-2.14 7.11 12.396 12.396 0 0 0 1.62 6.4 17.098 17.098 0 0 0 4.13 4.8 81.28 81.28 0 0 0 6.72 4.76 40.016 40.016 0 0 1 8 6.3 9.673 9.673 0 0 1 2.53 6.72 7.102 7.102 0 0 1-2.46 5.81 9.42 9.42 0 0 1-6.22 2c-4.16 0-7.243-1.62-9.25-4.86-2.007-3.24-3.173-7.477-3.5-12.71h-1.6c0 9.66-.093 15.96-.28 18.9h1.6a9.052 9.052 0 0 1 .56-2.35 1.082 1.082 0 0 1 1-.73 5.105 5.105 0 0 1 2.38 1 21.834 21.834 0 0 0 4.75 1.89c2.117.538 4.295.801 6.48.78z" fill="#fff"/><path d="M165.04 158.72h.28c1.65.08 3.93.13 6.86.13l4-.05H179.04c3.507 0 6.11.54 7.81 1.62a5.138 5.138 0 0 1 2.53 4.58 7.18 7.18 0 0 1-1.57 4.48 11.396 11.396 0 0 1-4.44 3.36 20.667 20.667 0 0 1-6.63 1.7c3.42.15 6 .9 7.85 2.25a6.098 6.098 0 0 1 2.73 5.08 8.131 8.131 0 0 1-2 5.52 12.097 12.097 0 0 1-5.47 3.45 25.008 25.008 0 0 1-8 1.18l-2.72-.05h-1c-1.59 0-3.11-.06-4.54-.06-3.17 0-5.59 0-7.29.14l.19-.94h.33a9.516 9.516 0 0 0 2.21-.36 2.401 2.401 0 0 0 1.34-1.08 9.928 9.928 0 0 0 1-2.58l6.21-23.31.07-.3a9.323 9.323 0 0 0 .3-2 1.438 1.438 0 0 0-.68-1.32 5.478 5.478 0 0 0-2.47-.47l.24-.97zm9 16.41h-2.06L168.85 187l-.06.24a10.864 10.864 0 0 0-.32 1.87 1.663 1.663 0 0 0 .52 1.34c.509.35 1.125.509 1.74.45a8.319 8.319 0 0 0 4.74-1.32 8.186 8.186 0 0 0 3-3.57 12.209 12.209 0 0 0 1-5 6.594 6.594 0 0 0-1.29-4.27 5.003 5.003 0 0 0-4.12-1.6l-.02-.01zm4.33-15.47a2.758 2.758 0 0 0-2 .66 6.5 6.5 0 0 0-1.15 2.68l-3 11.33h1.65a7.05 7.05 0 0 0 4.39-1.41 8.801 8.801 0 0 0 2.82-3.74 12.848 12.848 0 0 0 1-5 5.84 5.84 0 0 0-.83-3.38 3.173 3.173 0 0 0-2.86-1.14h-.02zm28.97 7.34a5.915 5.915 0 0 1 3.52 1 3.164 3.164 0 0 1 1.37 2.75c0 2.6-1.457 4.87-4.37 6.81a34.915 34.915 0 0 1-10.16 4.51 19.172 19.172 0 0 0-.28 3.2 5.31 5.31 0 0 0 .92 3.52 3.416 3.416 0 0 0 2.7 1 7.518 7.518 0 0 0 3.29-.92 11.756 11.756 0 0 0 3.57-2.94l.75.38-.24.37a14.853 14.853 0 0 1-4.29 4.09 11.456 11.456 0 0 1-6.37 1.84 8.001 8.001 0 0 1-5.31-1.74 5.994 5.994 0 0 1-2.07-4.89 19.081 19.081 0 0 1 2.26-8.65 21.004 21.004 0 0 1 6.15-7.4 13.942 13.942 0 0 1 8.56-2.93zm-1 .9c-.9 0-1.94.64-3.1 1.92a20.705 20.705 0 0 0-3.19 5 29.31 29.31 0 0 0-2.17 6.32 18.4 18.4 0 0 0 5.1-3.14 12.929 12.929 0 0 0 3-3.88c.72-1.451 1.09-3.05 1.08-4.67a2.824 2.824 0 0 0-.19-1.23.626.626 0 0 0-.246-.219.627.627 0 0 0-.324-.061l.04-.04zm12.8 24.76a10.986 10.986 0 0 0 4.67-.94 7.386 7.386 0 0 0 3.08-2.56 6.501 6.501 0 0 0 1.08-3.69 8.686 8.686 0 0 0-.63-3.2 30.758 30.758 0 0 0-2.14-4.09l-.66-1c-.78-1.26-1.34-2.23-1.67-2.92a5.276 5.276 0 0 1-.49-2.3 4.381 4.381 0 0 1 1-2.94 3.424 3.424 0 0 1 2.65-1.06 3.152 3.152 0 0 1 1.65.38 6.21 6.21 0 0 0-1 1.71 5.522 5.522 0 0 0-.43 2.19c-.029.812.222 1.61.71 2.26a2.279 2.279 0 0 0 1.88.89 2.42 2.42 0 0 0 2.11-1.08 4.105 4.105 0 0 0 .75-2.4 3.938 3.938 0 0 0-2-3.78 10.576 10.576 0 0 0-5.1-1.11 9.44 9.44 0 0 0-6.27 1.93 6.212 6.212 0 0 0-2.28 5c.006.872.155 1.736.44 2.56.345.955.805 1.865 1.37 2.71l1.1 1.69a21.567 21.567 0 0 1 2 3.62c.422.98.647 2.033.66 3.1a4 4 0 0 1-1.08 3 3.866 3.866 0 0 1-2.87 1.08 4.33 4.33 0 0 1-1.83-.33c.31-.78.55-1.45.71-2 .16-.603.237-1.226.23-1.85a4.42 4.42 0 0 0-.73-2.63 2.269 2.269 0 0 0-1.95-1 2.225 2.225 0 0 0-1.92 1 4.003 4.003 0 0 0-.71 2.4 4.47 4.47 0 0 0 2.21 4.16 10.847 10.847 0 0 0 5.46 1.2zm19.17 0c3.48 0 5.813-1.85 7-5.55l.94-2.72h-.89l-.71 1.92a8.829 8.829 0 0 1-1.71 3 2.766 2.766 0 0 1-2 1 1.42 1.42 0 0 1-1-.35 1.388 1.388 0 0 1-.38-1.05c.002-.318.049-.635.14-.94l5.59-19.37h5.46l.14-.94h-5.31l2.21-7.66a34.32 34.32 0 0 1-6.82.66l-2 7h-4.28l-.23.94h4.23l-4.71 16.58a10.274 10.274 0 0 0-.42 2.83 4.693 4.693 0 0 0 1.2 3.4 4.763 4.763 0 0 0 3.55 1.25zm36.9 0a14.053 14.053 0 0 0 4.88-.8 20.187 20.187 0 0 0 4.33-2.26c.262-.234.591-.381.94-.42.41 0 .61.41.61 1.22-.012.536-.059 1.07-.14 1.6h1c.38-2.1 1.307-5.86 2.78-11.28h-1a41.198 41.198 0 0 1-2.09 4.49 15.41 15.41 0 0 1-2.14 2.94 10.135 10.135 0 0 1-3.34 2.28 9.55 9.55 0 0 1-3.71.82 5.423 5.423 0 0 1-4.67-2.33c-1.12-1.55-1.67-3.88-1.67-7a29.792 29.792 0 0 1 2-10.83 23.65 23.65 0 0 1 5.45-8.6 10.236 10.236 0 0 1 7.17-3.32 5.807 5.807 0 0 1 5.55 3.06 7.197 7.197 0 0 1 .8 3.57 22.322 22.322 0 0 1-.38 3.71h1a76.245 76.245 0 0 1 3-10.81h-1c-.68 1.88-1.31 2.82-1.88 2.82a1.01 1.01 0 0 1-.7-.42 10.344 10.344 0 0 0-2.84-2.25 8.998 8.998 0 0 0-4.16-.8 20.503 20.503 0 0 0-11.42 3.36 24.12 24.12 0 0 0-8.11 8.69 22.295 22.295 0 0 0-2.86 10.9c0 3.76 1.05 6.643 3.15 8.65 2.1 2.007 5.25 3.01 9.45 3.01zM308.72 167a7.587 7.587 0 0 1 3.025.422A7.58 7.58 0 0 1 314.36 169a7.858 7.858 0 0 1 2 5.76 20.77 20.77 0 0 1-1.76 8 18.007 18.007 0 0 1-5.22 7 12.621 12.621 0 0 1-8.25 2.82 7.59 7.59 0 0 1-3.025-.422 7.58 7.58 0 0 1-2.615-1.578 7.858 7.858 0 0 1-2-5.76 20.698 20.698 0 0 1 1.76-8 17.94 17.94 0 0 1 5.22-7 12.621 12.621 0 0 1 8.25-2.82zm-.24.94c-1.16 0-2.43 1.12-3.8 3.34a32.956 32.956 0 0 0-3.48 8.18 32.357 32.357 0 0 0-1.41 9 5.912 5.912 0 0 0 .37 2.45 1.276 1.276 0 0 0 1.23.75c1.15 0 2.42-1.08 3.78-3.24a32.149 32.149 0 0 0 3.45-8.07 32.516 32.516 0 0 0 1.41-9.14 6.167 6.167 0 0 0-.37-2.56 1.255 1.255 0 0 0-1.18-.65v-.06zm39.91 24.72c3.1 0 5.21-1.62 6.34-4.84l1.18-3.43h-.93l-.84 2.25c-.91 2.48-1.9 3.71-3 3.71-.6 0-.9-.32-.9-1 .032-.464.126-.921.28-1.36l4.61-13.87c.411-1.098.634-2.258.66-3.43a3.717 3.717 0 0 0-.94-2.68 3.853 3.853 0 0 0-2.92-1 7.94 7.94 0 0 0-5.57 2.26c-1.613 1.5-3.203 4.117-4.77 7.85l.85-3a13.76 13.76 0 0 0 .56-3.43c0-2.45-1.23-3.67-3.71-3.67a7.876 7.876 0 0 0-5.8 2.45c-1.62 1.627-3.197 4.35-4.73 8.17l1-4c.26-.918.401-1.866.42-2.82a4 4 0 0 0-.89-2.72 3.686 3.686 0 0 0-2.92-1 6.508 6.508 0 0 0-3.73 1.13 7.281 7.281 0 0 0-2.61 3.71l-1.27 3.58h.89l.9-2.4c.338-1.01.82-1.967 1.43-2.84a1.928 1.928 0 0 1 1.53-.87c.56 0 .84.33.84 1a5.268 5.268 0 0 1-.23 1.37L318.49 192h6.63l1.22-4.75v.05a68.467 68.467 0 0 1 5-12.74c1.77-3.26 3.36-4.88 4.77-4.88.5 0 .75.29.75.89a6.633 6.633 0 0 1-.38 1.92L330.76 192h6.72l1.22-4.37v.14a67.34 67.34 0 0 1 5.43-13.47c1.8-3.08 3.35-4.62 4.63-4.62.44 0 .66.31.66.94a7.026 7.026 0 0 1-.38 1.87l-4.23 12.69a11.912 11.912 0 0 0-.7 3.67 3.832 3.832 0 0 0 .52 2.12c.68 1.12 1.94 1.69 3.76 1.69zm26.22-32.9l-4 14.33.2-.42a15.773 15.773 0 0 1 3.37-4.93 5.94 5.94 0 0 1 4-1.7 5.224 5.224 0 0 1 4.35 1.86 8.453 8.453 0 0 1 1.48 5.38 22.128 22.128 0 0 1-1.71 8.16 19.768 19.768 0 0 1-4.92 7.26 10.59 10.59 0 0 1-7.42 3 7.008 7.008 0 0 1-2.45-.42 4.145 4.145 0 0 1-1.78-1.23l-1.27 4.51-.08.28a6.14 6.14 0 0 0-.2 1.42 1.8 1.8 0 0 0 .94 1.78 7.177 7.177 0 0 0 3 .52l-.28 1h-1.5c-2.7-.08-4.59-.12-5.65-.13h-.28c-1.027 0-3.237.063-6.63.19l.29-1h.25a3.593 3.593 0 0 0 2.19-.61 4.504 4.504 0 0 0 1.22-2.3l8.51-30.51-.3.64a28.782 28.782 0 0 1-2.71 4.6 43.683 43.683 0 0 1-4.14 4.82l-.51-.61.37-.41a106.131 106.131 0 0 0 3.06-3.51 31.44 31.44 0 0 0 2.75-4.09 46.217 46.217 0 0 0 2.75-5.9l.14-.57h.69a30.301 30.301 0 0 0 6.31-1.26l-.04-.15zm1 9.77c-.94 0-2 .91-3.2 2.73a33.609 33.609 0 0 0-3.29 6.91l-3.15 11 .14.16a2.652 2.652 0 0 0 2 .92c1.47 0 2.9-.94 4.3-2.84a23.596 23.596 0 0 0 3.4-7 26.624 26.624 0 0 0 1.32-8 7.895 7.895 0 0 0-.4-3.05 1.27 1.27 0 0 0-1.13-.83h.01zm34.82-2.53l-6.16 21-.06.22c-.107.354-.168.72-.18 1.09 0 .69.3 1 .9 1 1.09 0 2.06-1.23 2.91-3.71l.85-2.25h.89l-1.18 3.43-.12.32a6.88 6.88 0 0 1-2.48 3.41 6.394 6.394 0 0 1-3.6 1.11 3.995 3.995 0 0 1-3.48-1.46 3.73 3.73 0 0 1-.66-2.35c.022-.938.167-1.869.43-2.77a13.659 13.659 0 0 1-3.55 5 6.763 6.763 0 0 1-4.3 1.55 4.998 4.998 0 0 1-3.93-1.53 6.258 6.258 0 0 1-1.34-4.25c.074-3.084.84-6.111 2.24-8.86a25.19 25.19 0 0 1 5.66-7.83c2.293-2.08 4.53-3.12 6.71-3.12a2.843 2.843 0 0 1 2.05.75 3.54 3.54 0 0 1 .91 2.26l.66-2.3h.68a33.443 33.443 0 0 0 6.14-.69l.01-.02zm-9.55 1.74c-1.06 0-2.28 1-3.64 2.87a27.213 27.213 0 0 0-3.48 7.19 26.673 26.673 0 0 0-1.43 8.37 5.77 5.77 0 0 0 .31 2.23.997.997 0 0 0 1 .68 3.361 3.361 0 0 0 2.28-1.43 17.817 17.817 0 0 0 2.49-4.14 36.62 36.62 0 0 0 2.18-6.42l-.23 1.13 2.07-7.38v-.1c.013-.2.013-.4 0-.6a3.273 3.273 0 0 0-.4-1.79 1.342 1.342 0 0 0-1.15-.57v-.04zm29.57 23.92c3.07 0 5.17-1.62 6.3-4.84l1.17-3.43h-.89l-.85 2.25a9.07 9.07 0 0 1-1.48 2.92 2.015 2.015 0 0 1-.653.558 2.015 2.015 0 0 1-.827.232c-.59 0-.89-.32-.89-1 .021-.465.116-.924.28-1.36l4.61-13.87a11.52 11.52 0 0 0 .61-3.34c0-2.5-1.41-3.76-4.23-3.76a7.66 7.66 0 0 0-4 1.08 11.83 11.83 0 0 0-3.57 3.74 41.717 41.717 0 0 0-3.69 7.45l1.45-5.69c.244-.886.372-1.801.38-2.72 0-2.567-1.333-3.853-4-3.86a5.995 5.995 0 0 0-3.67 1.13 7.638 7.638 0 0 0-2.4 3.71l-1.26 3.58h.89l.89-2.4c.323-1.034.809-2.01 1.44-2.89a1.998 1.998 0 0 1 1.57-.82c.53 0 .8.28.8.84a5.11 5.11 0 0 1-.28 1.51L412.4 192h6.63l.61-2.35a84.677 84.677 0 0 1 3.52-9.85 44.237 44.237 0 0 1 4-7.54c1.333-1.913 2.47-2.87 3.41-2.87.59 0 .89.36.89 1.08a6.786 6.786 0 0 1-.42 2l-4.23 12.69a12.05 12.05 0 0 0-.75 3.72 3.816 3.816 0 0 0 .61 2.21 4.346 4.346 0 0 0 3.78 1.57zm7.71 8.18a9.645 9.645 0 0 0 3.33-.71 20.873 20.873 0 0 0 5.95-3.24 32.941 32.941 0 0 0 5.29-5.08 47.728 47.728 0 0 0 6.53-10.41 24.608 24.608 0 0 0 2.72-10.08c0-2.847-1.033-4.273-3.1-4.28a3.04 3.04 0 0 0-2.3.87 3.216 3.216 0 0 0-.85 2.33 5.298 5.298 0 0 0 1.18 3.43 9.47 9.47 0 0 0 3.15 2.63 30.382 30.382 0 0 1-2.21 5.9 44.695 44.695 0 0 1-3.57 6l-2.17-16.12a6.993 6.993 0 0 0-1.55-4 4.266 4.266 0 0 0-3.15-1.13 5.483 5.483 0 0 0-3.4 1.08 7.853 7.853 0 0 0-2.38 3.76l-1.17 3.44h.89l.85-2.31c.313-.962.721-1.89 1.22-2.77.31-.47.64-.71 1-.71a.794.794 0 0 1 .72.45c.254.558.423 1.152.5 1.76l3.66 22.47a22.835 22.835 0 0 1-6.11 4.32c-1.5-2.16-3.18-3.24-5-3.24a3.352 3.352 0 0 0-2.33.82 2.699 2.699 0 0 0-.92 2.09 2.35 2.35 0 0 0 .87 1.93 3.671 3.671 0 0 0 2.35.8z" fill="#000"/><path d="M365.98 54h-110c-6.627 0-12 5.373-12 12v36c0 6.627 5.373 12 12 12h110c6.627 0 12-5.373 12-12V66c0-6.627-5.373-12-12-12z" fill="#463A1C"/><path d="M290.59 97v-4.57h-11.2v-.25l3.31-3.11c1.645-1.443 3.185-3 4.61-4.66.8-.962 1.454-2.037 1.94-3.19.417-1.06.628-2.19.62-3.33a6.538 6.538 0 0 0-1-3.62 6.84 6.84 0 0 0-2.89-2.46 9.769 9.769 0 0 0-4.26-.88 13.901 13.901 0 0 0-3.3.36 11.69 11.69 0 0 0-2.73 1 19.346 19.346 0 0 0-3.14 2.29l2.95 3.49a15.46 15.46 0 0 1 2.93-1.95 6.659 6.659 0 0 1 2.9-.68 3.329 3.329 0 0 1 2.28.75 2.932 2.932 0 0 1 .85 2.31 5.499 5.499 0 0 1-.38 2 9.085 9.085 0 0 1-1.27 2.1c-.58.76-1.83 2.11-3.74 4.07l-6.45 6.52V97h17.97zm10.76-26.1a7.579 7.579 0 0 1 6.72 3.37c1.52 2.253 2.28 5.547 2.28 9.88 0 4.487-.737 7.82-2.21 10-1.473 2.18-3.737 3.257-6.79 3.23a7.57 7.57 0 0 1-6.71-3.38c-1.5-2.22-2.253-5.507-2.26-9.86 0-4.533.733-7.867 2.2-10 1.47-2.14 3.72-3.24 6.77-3.24zm0 4.39a2.831 2.831 0 0 0-2.74 2.07 19.92 19.92 0 0 0-.83 6.79 19.91 19.91 0 0 0 .82 6.78 2.815 2.815 0 0 0 2.75 2 2.86 2.86 0 0 0 2.74-2.07c.673-2.183.958-4.468.84-6.75a19.32 19.32 0 0 0-.85-6.79 2.87 2.87 0 0 0-2.73-2.03zM330.39 97v-4.57h-11.2v-.25l3.3-3.11c1.647-1.443 3.191-3 4.62-4.66a12.618 12.618 0 0 0 1.93-3.19c.425-1.058.64-2.19.63-3.33a6.538 6.538 0 0 0-1-3.62 6.858 6.858 0 0 0-2.87-2.46 9.72 9.72 0 0 0-4.25-.88 14 14 0 0 0-3.31.36c-.944.22-1.858.556-2.72 1a19.785 19.785 0 0 0-3.15 2.29l2.95 3.49a15.231 15.231 0 0 1 2.94-1.95 6.63 6.63 0 0 1 2.9-.68 3.33 3.33 0 0 1 2.28.75 3.006 3.006 0 0 1 .85 2.31c0 .686-.132 1.365-.39 2a9.362 9.362 0 0 1-1.26 2.1c-.59.76-1.84 2.11-3.75 4.07l-6.45 6.52V97h17.95zm15.36 0V71.3h-4.47l-8.3 6.59 2.62 3.27 3-2.37c.35-.28 1-.87 1.88-1.78l-.09 2.68-.05 2.44V97h5.41z" fill="#fff"/></g><defs><clipPath id="clip0"><path fill="#fff" transform="translate(.98)" d="M0 0H618.49V514.94H0z"/></clipPath></defs></svg>