<svg fill="none" height="344" viewBox="0 0 401 344" width="401" xmlns="http://www.w3.org/2000/svg"><path clip-rule="evenodd" d="m9.68042 320.832-4.84021-4.832-4.84021 4.832 4.84021 4.832zm-4.84021 1.611-1.6134-1.611 1.6134-1.611 1.6134 1.611z" fill="#c8ccd0" fill-rule="evenodd" opacity=".5"/><path clip-rule="evenodd" d="m361.758 243.115-5.879-7.115-5.879 7.115 5.879 7.116zm-5.879 2.372-1.96-2.372 1.96-2.371 1.959 2.371z" fill="#c8ccd0" fill-rule="evenodd" opacity=".5"/><path d="m17.9999 139.169h13.169v13.1829h-13.169z" fill="#f5bb52" opacity=".2" transform="matrix(0 -1 1 0 -121.1691 157.1689)"/><path d="m31.1822 152.337h13.169v13.1829h-13.169z" fill="#f5bb52" transform="matrix(0 -1 1 0 -121.1548 183.5192)"/><rect fill="#f16720" height="63.4499" rx="4.62132" transform="matrix(0 1 -1 0 680.45 -120.45)" width="63.4499" x="400.45" y="280"/><g fill="#e37831"><path d="m259.602 0h13.1879v13.1879h-13.1879z" transform="matrix(0 1 -1 0 259.602 -259.602)"/><path d="m247.188 12.4141h13.1879v13.1879h-13.1879z" opacity=".2" transform="matrix(0 1 -1 0 259.6021 -234.7739)"/></g></svg>